<svg width="80" height="80" viewBox="0 0 80 80" fill="none" xmlns="http://www.w3.org/2000/svg">
<path d="M39.9758 73.4948C56.2633 73.4948 69.4473 58.5075 69.4473 40C69.4473 21.4925 56.2633 6.50522 39.9758 6.50522C23.736 6.50522 10.5525 21.492 10.5525 40C10.5525 58.5075 23.736 73.4948 39.9758 73.4948" stroke="#0D1853" stroke-width="1.9162" stroke-miterlimit="2.613"/>
<path fill-rule="evenodd" clip-rule="evenodd" d="M24.8347 53.1316C26.0284 52.9888 26.7451 52.9411 26.7451 51.6093V41.2845C26.7451 39.8572 25.8374 39.8099 24.8347 39.7622V39.1915H31.474C32.668 39.1915 37.0628 39.2865 37.0628 42.6172C37.0628 44.9953 34.6266 45.5668 33.7193 45.8524V45.9001C35.5347 46.1856 37.7792 47.2319 37.7792 49.7059C37.7792 51.4665 36.2983 53.6072 31.7608 53.6545H24.8347V53.1316ZM30.1363 51.7039C30.1363 52.6556 30.5663 52.9888 31.4258 52.9888C33.8139 52.9888 34.1007 51.0855 34.1007 49.8014C34.1007 46.709 32.1899 46.3757 30.805 46.328H30.1363V51.7039ZM30.1363 45.7096C33.0503 45.7096 33.5276 44.8056 33.5276 42.6172C33.5276 41.0948 33.0499 39.8572 31.2827 39.8572C30.1841 39.8572 30.1841 40.4287 30.1363 40.9043V45.7096ZM41.3136 39.1911H53.494V43.5207H52.9685C52.4904 41.2841 51.9172 39.9523 48.1915 39.9523C47.0452 39.9523 46.6633 40.0473 46.6633 40.9508V45.8997C49.3374 45.9466 49.6723 44.4242 49.9583 42.7114H50.4846V49.9437H49.9583C49.7201 48.1832 49.3851 46.6131 46.6633 46.6131V51.6089C46.6633 53.0361 47.5225 53.0835 49.0514 53.1312V53.6541H41.3136V53.1312C42.5076 52.9884 43.1762 52.9407 43.1762 51.6089V41.2845C43.1762 39.8572 42.3163 39.8099 41.3136 39.7622V39.1911Z" fill="#0D1853"/>
<path d="M51.631 18.0195L51.5832 26.8688C51.5832 26.8688 51.5832 29.8661 51.8223 30.5796C52.1083 31.293 54.354 33.5774 54.354 33.5774C54.354 33.5774 56.6462 34.4336 56.6462 37.526C56.6462 40.6661 56.4072 59.6974 56.4072 59.6974M27.7961 18.0195L27.8438 26.8688C27.8438 26.8688 27.8438 29.8661 27.6047 30.5796C27.3661 31.293 25.073 33.5774 25.073 33.5774C25.073 33.5774 22.8281 34.3863 22.8281 37.526C22.8281 40.6192 23.0672 59.6497 23.0672 59.6497L27.7961 18.0195Z" stroke="#0D1853" stroke-width="0.957895" stroke-miterlimit="2.613" stroke-linejoin="round"/>
<path fill-rule="evenodd" clip-rule="evenodd" d="M46.6158 58.9363L40.1193 57.9846V38.0494C40.2147 37.6211 40.2629 37.1454 40.3588 36.5743C40.7406 33.9098 44.8 31.6259 45.2304 31.1503C45.6131 30.6269 45.66 29.2474 45.66 29.2474L46.1854 17.9718H33.0982L33.6236 29.2474C33.6236 29.2474 33.6713 30.6269 34.0536 31.1503C34.4836 31.6259 38.5434 33.9098 38.9257 36.5743C39.0211 37.145 39.0688 37.6206 39.1643 38.0494V57.9846L32.7159 58.9363L32.6682 59.5547H46.6639L46.6158 58.9363Z" fill="#0D1853"/>
<path fill-rule="evenodd" clip-rule="evenodd" d="M39.642 57.9369L32.7159 58.9363L32.6682 59.5547H39.642V57.9369Z" fill="#0D1853"/>
</svg>
