<svg width="80" height="55" viewBox="0 0 80 55" fill="none" xmlns="http://www.w3.org/2000/svg">
<path d="M45.6317 13.7835C45.6317 12.9958 45.6317 12.2762 45.6317 11.5566C45.6317 11.0803 45.64 10.604 45.6297 10.1257C45.6049 9.01016 44.6193 8.41221 43.6255 8.90294C43.5801 8.92562 43.5306 8.93799 43.4502 8.9648C43.4915 8.29056 43.1471 7.9256 42.578 7.64106C42.1038 7.40394 41.6564 7.06578 41.2832 6.68639C41.0667 6.46577 40.9203 6.08019 40.912 5.76472C40.8749 4.18118 40.8935 2.59557 40.8955 1.01203C40.8955 0.346037 41.2378 0.0202561 41.912 0.0594323C43.4791 0.15428 45.0461 0.255313 46.6132 0.366656C47.3039 0.416142 47.8318 0.921309 47.8421 1.57699C47.8606 2.91517 47.8483 4.25541 47.8483 5.65338C47.7472 5.57297 47.6771 5.53173 47.6215 5.47399C47.106 4.93171 46.4853 4.54201 45.7864 4.29458C45.5162 4.19767 45.44 4.0719 45.4503 3.80385C45.4688 3.30281 45.4461 2.7997 45.4606 2.2966C45.4668 2.04917 45.3781 1.9502 45.1327 1.93783C44.6317 1.91102 44.1306 1.86978 43.6296 1.82442C43.4007 1.8038 43.3389 1.90278 43.3409 2.11309C43.3471 3.13167 43.3348 4.14819 43.3471 5.16677C43.3554 5.76472 44.2111 6.33381 44.7863 6.13793C44.9657 6.07813 45.1348 5.98741 45.3389 5.89668C45.3492 6.03277 45.3492 6.14411 45.3657 6.25339C45.4173 6.6266 45.576 6.90702 45.9224 7.11939C46.4338 7.43486 46.9286 7.78951 47.3843 8.18127C47.8751 8.60396 48.0874 9.17511 48.0813 9.83286C48.0709 11.2886 48.0771 12.7443 48.0771 14.2C48.0771 14.3154 48.0771 14.433 48.0689 14.5484C48.0173 15.2866 47.706 15.6186 46.9678 15.5959C45.9657 15.565 44.9637 15.466 43.9616 15.4021C43.2172 15.3546 42.4708 15.3175 41.7244 15.2742C41.0625 15.2371 40.6089 14.8598 40.6007 14.235C40.578 12.3958 40.5924 10.5545 40.5924 8.71118C41.0192 8.98954 41.4234 9.26996 41.844 9.52564C42.0522 9.65141 42.2791 9.78337 42.51 9.82049C42.9698 9.89472 43.0523 10.1421 43.0358 10.5648C43.0007 11.4515 43.0358 12.3422 43.0193 13.2309C43.0152 13.5195 43.0914 13.6453 43.4028 13.6556C44.1203 13.6804 44.8379 13.736 45.6255 13.7855L45.6317 13.7835Z" fill="#0D1853"/>
<path d="M37.4915 9.50507H37.9039V15.1959C35.1863 15.3774 32.4625 15.5588 29.714 15.7403C29.6521 15.5361 29.6831 15.3547 29.9202 15.1939C30.2377 14.9774 30.3676 14.6454 30.3676 14.2578C30.3655 12.6866 30.3779 11.1154 30.3614 9.54424C30.3552 8.88237 30.2398 8.24524 29.4666 7.9442C29.5717 7.85554 29.6521 7.7875 29.7346 7.71946C30.0624 7.44316 30.3037 7.10088 30.3119 6.66788C30.3429 5.09671 30.3676 3.52554 30.3449 1.95643C30.3408 1.7255 30.1119 1.44302 29.9078 1.28631C29.7243 1.14404 29.6212 1.01002 29.6934 0.822385C29.7325 0.721352 29.9119 0.62238 30.0356 0.612071C31.8934 0.442995 33.7512 0.28629 35.611 0.129585C35.9822 0.0986567 36.3554 0.06979 36.7286 0.0656662C36.8337 0.0656662 37.0008 0.127523 37.0337 0.203814C37.3843 1.05744 37.7121 1.91726 38.0523 2.78738C37.7018 2.88841 37.4709 2.83893 37.2379 2.56882C36.8399 2.10695 36.2708 1.90282 35.6853 1.89664C34.7368 1.88839 33.7883 1.96674 32.8192 2.01004V6.63696C33.6172 6.55036 34.3842 6.4885 35.1409 6.36891C35.3636 6.33386 35.5554 6.1256 35.7677 6.00808C35.9224 5.92354 36.0873 5.85756 36.3038 5.75652V8.65144C36.1389 8.60401 35.9636 8.60401 35.8729 8.51741C35.5698 8.23081 35.2048 8.19576 34.8296 8.20813C34.2502 8.22875 33.6708 8.2638 33.0955 8.32359C32.9883 8.3339 32.8068 8.48236 32.8068 8.56896C32.7965 10.268 32.8068 11.967 32.8151 13.668C32.8151 13.6784 32.8275 13.6887 32.8357 13.701C34.7574 13.7815 35.7719 13.6887 36.7595 11.7319C37.0997 11.0577 37.2441 10.2865 37.4956 9.50713L37.4915 9.50507Z" fill="#0D1853"/>
<path d="M0.171138 26.557C0.27011 26.3096 0.307224 26.1178 0.412381 25.9776C0.725791 25.557 0.872185 25.1034 0.865999 24.5755C0.851566 23.1466 0.861876 21.7156 0.859814 20.2847C0.859814 20.1177 0.859814 19.9486 0.845381 19.7836C0.789709 19.2022 0.630943 19.0558 0 19.029C0.0680429 18.9321 0.111343 18.8475 0.175262 18.7816C0.663933 18.2578 0.892805 17.6619 0.872186 16.9258C0.83301 15.6 0.861876 14.2722 0.859814 12.9443C0.859814 12.4082 0.785585 12.3113 0.263924 12.1525C0.148457 11.8494 0.257737 11.6536 0.534033 11.4907C2.55058 10.3009 4.56093 9.10091 6.57335 7.90707C6.68263 7.84315 6.80016 7.79573 6.97749 7.70913C7.32183 8.70091 7.65791 9.66175 7.98782 10.6123C7.70121 10.8556 7.49502 10.9484 7.23522 10.5979C6.93212 10.1855 6.44139 10.1628 6.04138 10.369C5.09497 10.8556 4.1836 11.4144 3.26193 11.9525C3.20008 11.9896 3.14853 12.0989 3.14647 12.1752C3.14028 13.3587 3.14234 14.5423 3.14234 15.8C4.26402 15.1588 5.4125 14.6825 6.25994 13.7175L6.37953 13.7835C6.37953 14.0062 6.37953 14.2268 6.37953 14.4495C6.37953 14.9897 6.38366 15.532 6.37953 16.0722C6.37541 16.4166 6.28262 16.4578 5.95066 16.3629C5.79601 16.3196 5.58158 16.3114 5.44961 16.3856C4.73001 16.7877 4.0269 17.2145 3.32379 17.6454C3.24131 17.697 3.15265 17.8207 3.15059 17.9114C3.14028 19.3651 3.14234 20.8208 3.14234 22.3487C3.35472 22.2435 3.51555 22.1548 3.68256 22.0806C5.94859 21.0682 6.95274 19.1754 7.31151 16.8454C7.36512 16.4949 7.61049 16.4867 7.85998 16.3794C7.87235 16.4846 7.88678 16.5568 7.88678 16.631C7.88678 18.3444 7.89297 20.0579 7.87854 21.7713C7.87854 21.9012 7.76926 22.093 7.65585 22.1507C5.12589 23.4332 2.68048 24.8539 0.373204 26.5075C0.354647 26.5199 0.327842 26.5199 0.173199 26.5549L0.171138 26.557Z" fill="#0D1853"/>
<path d="M27.9221 2.91932C27.6066 3.06159 27.3963 3.05953 27.1242 2.79767C26.5159 2.21209 25.7221 2.18735 24.9427 2.30281C23.889 2.45952 23.887 2.48014 23.8932 3.54408C23.9014 4.84514 23.92 6.1462 23.9303 7.44726C23.9344 8.03697 24.1715 8.46585 24.7921 8.67616C24.6375 8.82462 24.489 8.94421 24.3715 9.08648C23.9756 9.55865 23.8952 10.1319 23.8932 10.7195C23.889 12.5237 23.8849 14.3258 23.8993 16.1299C23.9014 16.4763 23.8499 16.8578 24.2189 17.1094C24.2829 17.1527 24.2478 17.3444 24.2581 17.4702C23.1282 17.7485 22.0333 18.0207 20.8622 18.3094C20.8869 18.1176 20.8931 17.9609 20.9302 17.8145C21.0106 17.497 21.1838 17.1856 21.1879 16.8702C21.2065 14.899 21.1962 12.9278 21.1797 10.9566C21.1735 10.2432 20.9446 9.91743 20.3343 9.70093C20.4168 9.61226 20.5096 9.54422 20.5611 9.4535C20.7591 9.10091 21.0952 8.74626 21.1075 8.38337C21.1653 6.67611 21.1343 4.96473 21.1343 3.2183C19.9405 3.47191 18.8704 3.97502 18.1281 5.00597C17.9074 5.31113 17.6827 5.51938 17.26 5.56681C17.4456 4.96267 17.6229 4.36884 17.8085 3.77707C17.9631 3.28634 18.1075 2.79148 18.293 2.31312C18.3508 2.16054 18.5033 1.98115 18.6497 1.93579C21.19 1.13165 23.7715 0.492459 26.3942 0.0161593C26.7035 -0.0395122 26.8231 0.0450259 26.9262 0.325445C27.2005 1.07392 27.5077 1.81002 27.8005 2.55024C27.8458 2.66777 27.8809 2.78942 27.9242 2.91726L27.9221 2.91932Z" fill="#0D1853"/>
<path d="M15.4517 14.2144L15.9775 14.0907C15.9775 15.1794 15.9775 16.2207 15.9775 17.2619C15.9775 17.6351 15.9652 18.0104 15.9816 18.3836C15.994 18.6743 15.8744 18.8228 15.6002 18.9218C14.2806 19.3939 12.963 19.8744 11.6516 20.3692C11.0516 20.596 10.4681 20.8661 9.75882 21.1672C9.83717 20.9156 9.8516 20.7239 9.94851 20.594C10.2887 20.1383 10.4331 19.6352 10.4228 19.0764C10.4083 18.2001 10.4145 17.3238 10.3671 16.4516C10.3362 15.8701 10.1217 15.6701 9.53613 15.5258C9.60418 15.4516 9.65779 15.3856 9.71965 15.3279C10.1341 14.9423 10.3939 14.4825 10.398 13.9072C10.4104 12.5031 10.4124 11.0989 10.4228 9.69474C10.4248 9.34834 10.1898 9.24318 9.81243 9.16483C9.92377 9.004 9.97944 8.8308 10.0908 8.77925C10.9815 8.38131 11.8805 8.00604 12.8909 7.57716C12.8146 7.85758 12.7651 8.03284 12.7177 8.20811C12.6187 8.56275 12.4372 8.9174 12.4352 9.27205C12.4125 12.235 12.4207 15.2 12.4228 18.163C12.4228 18.2516 12.4393 18.3403 12.4537 18.495C13.0537 18.264 13.6579 18.1053 14.1857 17.8104C14.7651 17.4887 14.926 16.8392 15.0744 16.2392C15.2332 15.5918 15.3239 14.9279 15.4538 14.2144H15.4517Z" fill="#0D1853"/>
<path d="M55.3761 45.9616C55.3761 46.5987 55.3803 47.2152 55.3699 47.8296C55.3699 47.8998 55.2813 48.0276 55.2421 48.0255C55.1576 48.0193 55.0503 47.9616 55.0009 47.8936C54.8091 47.6255 54.638 47.343 54.4421 47.042C54.1843 47.4482 54.5802 47.9843 54.1905 48.2998L54.0421 48.273C54.0421 47.6585 54.038 47.042 54.0483 46.4276C54.0483 46.3595 54.1266 46.242 54.1782 46.2358C54.2606 46.2275 54.3844 46.2688 54.4318 46.3327C54.6215 46.5904 54.7885 46.8667 55.0627 47.1327C55.0627 46.9039 55.0462 46.675 55.0668 46.4502C55.0833 46.2667 54.9349 45.9595 55.3741 45.9657L55.3761 45.9616Z" fill="#0D1853"/>
<path d="M20.0187 46.2791C19.9672 46.1801 19.8744 46.0812 19.8723 45.9822C19.8579 45.3801 19.8661 44.776 19.8661 44.0749C20.4249 44.4502 20.3857 45.0976 20.7775 45.5884V44.5368L20.8971 44.4935C20.9569 44.5925 21.0661 44.6894 21.0703 44.7904C21.0868 45.3925 21.0785 45.9946 21.0146 46.6255C20.5589 46.2647 20.5383 45.6502 20.1754 45.1203V46.2131L20.0208 46.2791H20.0187Z" fill="#0D1853"/>
<path d="M53.3559 47.2482C53.5188 47.6915 53.193 47.6853 52.9786 47.7142C52.661 47.7575 52.5868 47.9018 52.7126 48.2111C52.9497 48.1699 53.1848 48.1286 53.4446 48.0833C53.5456 48.3245 53.5291 48.4812 53.2116 48.5183C52.9373 48.5513 52.6652 48.6235 52.3456 48.6895C52.3456 48.0276 52.3373 47.4131 52.3559 46.8008C52.3579 46.7183 52.4899 46.5946 52.5827 46.5678C52.8631 46.4894 53.1538 46.4502 53.4652 46.3904V46.7472C52.9126 46.9204 52.6604 47.1252 52.7085 47.3616C52.9188 47.3245 53.1291 47.2874 53.3559 47.2482Z" fill="#0D1853"/>
<path d="M46.2689 47.4668C46.6194 47.44 46.9473 47.4132 47.271 47.3884C47.3432 47.7575 47.3452 47.7761 46.9019 47.8008C46.5782 47.8173 46.4524 47.9245 46.5803 48.2627C46.7803 48.2503 46.9782 48.2379 47.2009 48.2235C47.3143 48.8235 46.8132 48.5761 46.5679 48.7266V49.1163C46.8256 49.1019 47.0648 49.0895 47.2999 49.0771C47.3947 49.4854 47.2834 49.5328 46.2668 49.5184V47.4668H46.2689Z" fill="#0D1853"/>
<path d="M59.1949 46.774C59.1516 46.6688 59.1104 46.5637 59.0609 46.44C58.7269 46.4833 58.432 46.5431 58.3578 46.9513C58.3413 47.0482 58.2238 47.1266 58.0959 47.1843C58.3186 46.3884 58.3475 45.5389 58.7723 44.8234L58.9125 44.8461C59.0918 45.4069 59.2774 45.9657 59.4382 46.5307C59.4609 46.6111 59.364 46.7266 59.3228 46.8255L59.1929 46.7719L59.1949 46.774Z" fill="#0D1853"/>
<path d="M19.2973 44.2233L18.6725 43.9718C18.5179 44.2934 18.6972 44.4233 18.9364 44.5099C19.1735 44.5965 19.3096 44.7244 19.188 45.0069C19.021 44.9409 18.856 44.877 18.6911 44.811C18.5777 45.1821 18.5859 45.1904 18.8911 45.345C19.0993 45.4522 19.4292 45.479 19.2746 45.9182C18.9942 45.7842 18.7199 45.6626 18.456 45.5182C18.3941 45.4852 18.3405 45.3801 18.3364 45.3058C18.322 45.0357 18.3302 44.7656 18.3302 44.4955C18.3302 44.1512 18.3302 43.8068 18.3302 43.4584C19.0003 43.5883 19.3179 43.8275 19.2993 44.2233H19.2973Z" fill="#0D1853"/>
<path d="M60.8279 46.1492C60.8115 45.8894 60.7991 45.6729 60.7867 45.4585C60.2939 45.4585 60.2217 45.5265 60.2197 45.9884C60.2183 46.2509 60.1248 46.4262 59.9393 46.5142C59.9393 45.8234 59.9351 45.1533 59.9496 44.4832C59.9496 44.4502 60.0939 44.4193 60.1991 44.378L60.2362 45.0956C60.7558 45.0482 60.7908 44.9987 60.8114 44.5286C60.8176 44.3574 60.6939 44.0997 61.0176 44.0481C61.1991 44.7347 61.1042 46.0172 60.83 46.1513L60.8279 46.1492Z" fill="#0D1853"/>
<path d="M64.5603 42.2646C64.5603 42.9244 64.5645 43.5409 64.5542 44.1554C64.5542 44.2275 64.4758 44.2976 64.4325 44.3677C64.3562 44.3182 64.2593 44.2853 64.2098 44.2193C64.0614 44.0193 63.9294 43.8069 63.7644 43.5574C63.5954 44.0213 63.851 44.5038 63.5253 44.9636C63.3253 44.1595 63.4242 42.9244 63.6923 42.745C63.8737 43.011 64.0552 43.279 64.2758 43.6007C64.3191 43.1244 64.3521 42.7285 64.3933 42.3326C64.3933 42.3161 64.4572 42.3038 64.5583 42.2646H64.5603Z" fill="#0D1853"/>
<path d="M48.7661 47.7184C48.7125 47.6957 48.6506 47.6421 48.6011 47.6524C48.4733 47.6771 48.3496 47.7287 48.2238 47.7699C48.3063 47.8648 48.3702 48.0008 48.4733 48.0441C48.9248 48.2359 49.0712 48.4545 48.9661 48.8462C48.8197 49.3967 48.3434 49.5122 47.8506 49.0957L48.0155 48.7864C48.0939 48.8338 48.1599 48.906 48.2176 48.8998C48.3661 48.8854 48.5125 48.8359 48.6589 48.8009C48.564 48.6957 48.4898 48.5431 48.3722 48.4957C47.9578 48.3287 47.8362 48.1328 47.931 47.6916C48.0032 47.3555 48.2403 47.1843 48.5743 47.2214C48.9083 47.2586 48.9599 47.3802 48.7681 47.7204L48.7661 47.7184Z" fill="#0D1853"/>
<path d="M45.5864 49.108C45.5534 49.2379 45.5616 49.3987 45.4833 49.4895C45.2194 49.7987 44.7286 49.7369 44.4936 49.3884C44.2111 48.9719 44.2193 48.1925 44.574 47.8379C44.7328 47.6791 45.0132 47.5698 45.24 47.5678C45.5905 47.5657 45.6586 47.7884 45.4214 47.9843C45.2091 48.0338 44.941 48.0193 44.7967 48.1472C44.541 48.3719 44.5575 48.9987 44.8194 49.1554C44.9761 49.2503 45.2359 49.1719 45.4482 49.1719L45.5843 49.1101L45.5864 49.108Z" fill="#0D1853"/>
<path d="M66.0074 43.3636C65.9352 43.2089 65.8878 43.1079 65.8383 43.0048C65.5064 43.145 65.2795 43.3368 65.2486 43.7079C65.2404 43.8069 65.1393 43.8955 65.0342 43.9677C65.2136 43.1244 65.2466 42.2522 65.5847 41.4625L65.7311 41.4769C65.8899 42.0007 66.0569 42.5203 66.193 43.0481C66.2136 43.1244 66.0837 43.2399 66.0053 43.3636H66.0074Z" fill="#0D1853"/>
<path d="M25.316 46.3843C25.0252 46.3328 24.8005 46.2255 24.6252 46.2792C24.4046 46.3472 24.386 46.9245 24.5531 47.2379C24.7036 47.5245 24.8582 47.5761 25.2644 47.4462C25.2995 47.5555 25.3943 47.7287 25.3572 47.7637C25.2582 47.8586 25.085 47.9658 24.9716 47.941C24.7861 47.8998 24.5778 47.7947 24.4582 47.6503C24.1159 47.2359 24.0273 46.7348 24.2046 46.2359C24.2726 46.042 24.5201 45.7925 24.6912 45.7864C24.8995 45.7802 25.1283 45.9905 25.3222 46.141C25.3716 46.1802 25.318 46.3472 25.316 46.3822V46.3843Z" fill="#0D1853"/>
<path d="M15.4333 41.6295C15.4683 41.7553 15.5281 41.879 15.5364 42.0048C15.5632 42.4007 15.5652 42.7986 15.5941 43.1945C15.6023 43.3038 15.6477 43.4234 15.7157 43.51C15.7694 43.578 15.8807 43.6007 15.9673 43.6419C16.0044 43.5636 16.0704 43.4873 16.0725 43.4089C16.0828 43.0007 16.0766 42.5924 16.1591 42.1491C16.223 42.2378 16.3405 42.3264 16.3426 42.4172C16.3508 42.877 16.3591 43.343 16.3075 43.7986C16.2663 44.1677 15.9982 44.2543 15.7508 43.9739C15.5632 43.7615 15.3797 43.4811 15.3467 43.2131C15.2828 42.7017 15.3281 42.1759 15.3281 41.6563L15.4333 41.6295Z" fill="#0D1853"/>
<path d="M14.8334 43.2996L14.2272 42.1532L13.9385 42.6007C13.8808 42.4295 13.7983 42.312 13.8189 42.2192C13.9406 41.7223 14.089 41.2316 14.289 40.7305C14.6664 41.5347 14.689 42.4213 14.8313 43.2996H14.8334Z" fill="#0D1853"/>
<path d="M57.1414 45.8606C56.9641 45.8894 56.8527 45.908 56.7414 45.9245C56.6403 45.5616 56.4754 45.5884 57.8528 45.2131C57.927 45.4461 57.9373 45.6152 57.6301 45.6894C57.5455 45.71 57.4486 45.8853 57.4424 45.9925C57.4197 46.3884 57.4466 46.7864 57.4259 47.1843C57.4197 47.2936 57.3146 47.3987 57.2548 47.506L57.1435 47.4627V45.8606H57.1414Z" fill="#0D1853"/>
<path d="M17.4538 43.3863V44.9306L17.3425 44.9739C17.2868 44.8626 17.1858 44.7554 17.1796 44.642C17.159 44.2564 17.1919 43.8687 17.161 43.4852C17.1486 43.3347 17.0208 43.1924 16.9466 43.046C16.8806 42.9161 16.8146 42.7842 16.8022 42.6192C17.1755 42.879 17.7672 42.8502 17.8827 43.5079C17.7177 43.4605 17.6167 43.4316 17.4517 43.3863H17.4538Z" fill="#0D1853"/>
<path d="M22.7845 45.5698C22.5722 45.5307 22.4629 45.5121 22.3 45.4832V47.0276L22.166 47.0771C22.1165 46.9864 22.0299 46.8957 22.0258 46.8029C22.0072 46.4812 22.0134 46.1596 22.0196 45.8379C22.0258 45.5657 22.0587 45.2997 21.6835 45.209C21.6134 45.1925 21.5907 44.974 21.5144 44.7595C21.9392 44.91 22.2629 44.9966 22.5577 45.141C22.6588 45.1905 22.6897 45.3843 22.7804 45.5678L22.7845 45.5698Z" fill="#0D1853"/>
<path d="M61.0015 47.0977C61.5953 46.6523 62.3479 46.5863 63.0056 46.2915C63.6613 45.9966 64.2861 45.6317 64.9418 45.3286C64.7583 45.6956 61.7211 47.0626 61.0015 47.0956V47.0977Z" fill="#0D1853"/>
<path d="M23.4526 47.5224C23.3887 47.4399 23.2712 47.3574 23.2691 47.2729C23.2526 46.6461 23.2609 46.0193 23.2609 45.3924L23.3578 45.3512C23.4237 45.4357 23.5433 45.5162 23.5454 45.6028C23.5619 46.2275 23.5536 46.8543 23.5536 47.4812L23.4547 47.5245L23.4526 47.5224Z" fill="#0D1853"/>
<path d="M13.0992 39.5511C13.0188 39.4913 12.9198 39.4439 12.8621 39.3655C12.759 39.2253 12.6971 39.0521 12.5858 38.9201C12.4744 38.7882 12.3404 38.5387 12.1095 38.9304C12.6332 38.448 12.0806 38.0748 12.0847 37.5717C12.3322 37.9346 12.5445 38.2047 12.7074 38.5016C12.8745 38.8026 12.992 39.1284 13.1301 39.4439L13.0971 39.549L13.0992 39.5511Z" fill="#0D1853"/>
<path d="M13.0599 41.8935C12.8021 42.0419 12.3485 41.5491 12.1238 40.811C12.4289 41.1635 12.7341 41.5161 13.0599 41.8935Z" fill="#0D1853"/>
<path d="M12.9674 42.7347C13.3798 43.0688 13.7922 43.4007 14.2025 43.7348L14.1159 43.8337C13.6499 43.5554 13.2313 43.2255 12.9653 42.7368L12.9674 42.7347Z" fill="#0D1853"/>
<path d="M68.119 40.4624C67.7685 40.7903 67.4159 41.1202 67.02 41.4893C66.8963 41.1305 67.4117 40.6027 67.9891 40.3181L68.119 40.4624Z" fill="#0D1853"/>
<path d="M79.9999 26.3632L79.4741 26.2931C79.4782 26.2044 79.4844 26.0889 79.4947 25.8931C79.6081 26.023 79.67 26.0931 79.7319 26.1632L79.971 25.9013C79.9814 26.0951 79.9896 26.2127 79.9978 26.3632H79.9999Z" fill="#0D1853"/>
<path d="M18.6006 30.2168C18.6377 30.9179 18.1923 31.355 17.9078 31.8416C17.7284 32.1468 17.3078 32.1695 16.9614 32.0808C16.6129 31.9921 16.4067 32.0994 16.2376 32.4004C15.8521 33.087 15.4108 33.7448 15.2129 34.5262C15.0582 35.1386 14.8624 35.7407 14.683 36.3469L14.8149 36.3861C14.9923 35.85 15.1696 35.3139 15.3593 34.7407L15.6191 35.0768L15.7613 35.0541C15.283 34.5613 15.617 34.1654 15.8376 33.7716C16.0603 33.3736 16.3139 32.9901 16.5758 32.6148C16.6294 32.5385 16.7737 32.5262 16.8768 32.4829C16.8438 32.5798 16.817 32.6788 16.7737 32.7715C16.7201 32.8808 16.65 32.9839 16.5861 33.087C17.015 33.1901 17.0232 32.4087 17.6047 32.6746C17.2583 33.2396 16.9181 33.7798 16.5985 34.3303C16.5263 34.4541 16.5284 34.619 16.4933 34.7633C16.4603 34.9077 16.4335 35.052 16.3902 35.1922C16.3304 35.386 16.217 35.5716 16.1985 35.7675C16.1675 36.1015 16.2026 36.4417 16.1861 36.7778C16.182 36.8562 16.0809 36.9943 16.0294 36.9902C15.9325 36.984 15.7778 36.918 15.7552 36.8417C15.6582 36.5283 15.4665 36.2211 15.6892 35.8623C15.7448 35.7716 15.6129 35.5634 15.5696 35.4108L15.4582 35.4376C15.4582 35.8335 15.4727 36.2314 15.4521 36.6273C15.4438 36.8026 15.3778 36.9634 15.6418 36.9881C15.6624 36.9881 15.6974 37.1015 15.6871 37.1552C15.5593 37.782 15.8912 38.2232 16.2706 38.6521C16.3304 38.7201 16.3469 38.8294 16.382 38.9181C16.2892 38.9057 16.1696 38.9243 16.1077 38.8727C15.8253 38.6397 15.5964 38.2995 15.2768 38.1614C14.8273 37.9655 14.7015 37.5366 14.4025 37.2418C13.9098 36.751 13.5489 36.2005 13.4829 35.485C13.4747 35.3922 13.3489 35.3118 13.2603 35.2005C13.3407 35.1469 13.417 35.0933 13.4953 35.0396C13.353 34.2891 13.384 33.5881 13.9448 32.9777C14.2417 32.6561 14.4087 32.1798 14.751 31.9427C15.4376 31.4664 16.1902 31.0828 16.9428 30.7096C17.3511 30.5076 17.8109 30.4065 18.248 30.2684C18.3532 30.2354 18.4666 30.2354 18.6026 30.2148L18.6006 30.2168ZM16.4026 31.6148L16.2748 31.4725C15.8438 31.788 15.4459 32.1633 14.9758 32.4025C14.4005 32.6953 14.1675 33.1798 14.0108 33.7324C13.9386 33.986 13.9386 34.2623 13.9056 34.5324L13.7345 34.551C13.8067 34.7819 13.885 34.9778 13.9262 35.1819C13.9984 35.5407 14.0417 35.9036 14.1118 36.2624C14.118 36.2933 14.2314 36.3036 14.2644 36.316C14.285 35.3819 14.1386 34.4602 14.5366 33.5798C14.9263 32.7159 15.6768 32.1777 16.4047 31.6169L16.4026 31.6148Z" fill="#0D1853"/>
<path d="M24.7079 33.5448L25.1079 33.4273L24.9945 34.052L24.8027 34.1427L24.9161 34.184L24.8048 34.9489L24.3326 35.0335C24.3553 35.2252 24.3759 35.3861 24.3986 35.5778L24.7079 35.516C24.7986 35.6706 24.8749 35.8005 24.9512 35.9325L25.211 35.5469C25.5306 35.5613 25.5491 35.5799 25.6625 36.0892C25.3038 36.1531 24.9491 36.2191 24.5326 36.2933C24.613 36.3675 24.6996 36.516 24.78 36.5119C25.0976 36.4954 25.4151 36.4315 25.7739 36.3799C25.8069 36.6335 25.8419 36.9882 26.2069 37.1696C26.2399 37.1861 26.211 37.3284 26.211 37.4335C25.7203 37.2768 25.211 37.2026 24.8048 36.9593C24.3223 36.6706 23.8233 36.3923 23.4336 35.9242C23.1821 35.6211 23.048 35.351 23.1388 35.0314C23.2687 34.5757 23.3841 34.0108 23.712 33.7489C24.0089 33.5097 24.1635 33.1819 24.4522 32.9716C24.5739 32.8829 24.8233 32.7839 24.8873 32.8376C25.0687 32.9943 25.0935 33.2169 24.846 33.3798C24.7924 33.4149 24.745 33.4582 24.6955 33.4974L24.7099 33.5407L24.7079 33.5448Z" fill="#0D1853"/>
<path d="M22.0684 30.7448C22.1323 31.2169 21.9591 31.4788 21.6416 31.4437C21.9158 31.8108 21.4147 32.7097 20.8436 32.8293C20.8374 33.0912 20.7384 33.2458 20.4168 33.1778C20.3322 33.1592 20.1817 33.3077 20.1054 33.4129C19.9549 33.619 19.8209 33.718 19.6498 33.4397C19.5735 33.5448 19.5281 33.6417 19.4539 33.7015C19.3755 33.7634 19.2683 33.7902 19.1735 33.8314C19.1693 33.7386 19.1858 33.6397 19.159 33.5531C19.1033 33.3716 19.025 33.1943 18.9487 33.0025C19.1817 32.8335 19.4064 32.6396 19.6601 32.4994C19.8023 32.4211 19.9941 32.4396 20.159 32.3943C20.2477 32.3695 20.3467 32.3221 20.4023 32.2541C20.4972 32.1407 20.5591 32.0005 20.6642 31.8231C20.2704 32.0252 19.8992 32.2541 19.5013 32.4046C19.2271 32.5077 18.9116 32.5159 18.6126 32.5345C18.5755 32.5365 18.458 32.2994 18.493 32.2376C18.5941 32.0582 18.724 31.8293 18.8972 31.7633C19.6168 31.487 20.3549 31.2582 21.089 31.021C21.4003 30.92 21.7199 30.8437 22.0663 30.7489L22.0684 30.7448Z" fill="#0D1853"/>
<path d="M54.7395 33.3077C55.0776 33.4829 55.3622 33.619 55.6343 33.7737C55.7003 33.8108 55.7271 33.9159 55.7807 33.9819C55.8632 34.0871 55.9539 34.184 56.121 34.3778C56.1519 34.1592 56.1663 34.0603 56.1787 33.9592C56.1911 33.8644 56.2034 33.7675 56.2158 33.6726C56.3168 33.7015 56.4241 33.72 56.5189 33.7654C56.5952 33.8005 56.657 33.8685 56.7416 33.9324C56.0364 34.6376 56.1519 35.5366 56.0818 36.4005C55.9436 36.0706 55.8075 35.7407 55.6694 35.4129C55.6447 35.3551 55.6261 35.2871 55.5849 35.2459C55.3024 34.9675 55.0343 34.6685 54.7209 34.4293C54.2446 34.0644 54.1023 34.0809 53.0879 34.3881C53.0879 33.6767 53.1889 33.5365 53.8096 33.4066C53.9291 33.6066 53.9828 33.9695 54.3024 33.5386C54.4096 33.3943 54.6508 33.351 54.7395 33.3077Z" fill="#0D1853"/>
<path d="M20.8704 36.1799L20.6643 35.9263C20.8539 35.7593 20.7777 35.3758 21.1694 35.3696C21.19 35.3696 21.2313 35.1902 21.223 35.0974C21.2024 34.8727 21.157 34.6521 21.1076 34.3366C20.988 34.4397 20.8436 34.5098 20.8045 34.617C20.7694 34.7139 20.8457 34.8562 20.8808 34.9737C20.9055 35.0603 20.9426 35.1428 20.9756 35.2273C20.8869 35.2273 20.79 35.2521 20.7117 35.2232C20.3715 35.0913 20.0457 35.2583 19.9323 35.6109C19.8622 35.8356 19.7818 36.0872 19.4436 35.9799C19.5096 35.2851 19.9467 34.8706 20.456 34.5077C20.4766 34.4933 20.5075 34.4809 20.5158 34.4624C20.6952 33.9861 20.9674 33.9964 21.3962 34.1964C21.6808 34.3283 21.8519 34.4273 21.8334 34.749C21.8189 34.9902 21.8437 35.2397 21.7983 35.4748C21.7612 35.6686 21.7014 35.8603 21.3797 35.7634C21.2725 35.7304 21.0725 36.0067 20.8704 36.1799Z" fill="#0D1853"/>
<path d="M24.1284 32.2685C24.0686 31.8932 24.1016 31.621 24.4892 31.4313C25.2583 31.0581 26.0027 30.6313 26.7965 30.2045V31.021L26.3367 31.2087C26.3594 31.3674 26.3965 31.4829 26.3862 31.5922C26.3759 31.7056 26.3181 31.8169 26.2542 32.0149C26.1614 31.9406 26.0398 31.887 25.9985 31.7963C25.949 31.6932 25.9717 31.5551 25.9614 31.4004C25.7511 31.4066 25.4562 31.3138 25.2954 31.652C25.2892 31.6643 25.281 31.685 25.2769 31.6829C24.7531 31.5757 24.6377 32.2479 24.1284 32.2685Z" fill="#0D1853"/>
<path d="M17.839 34.8582C17.6638 35.0788 17.4906 35.2994 17.2802 35.5654H17.7648C18.0349 36.0211 17.8926 36.4953 17.373 36.5283C17.4184 36.3634 17.4596 36.2129 17.5256 35.9757L17.0741 36.3015C17.0741 35.8335 17.0699 35.4128 17.0802 34.9922C17.0802 34.9448 17.1524 34.8912 17.2019 34.852C17.3648 34.72 17.5318 34.5922 17.6906 34.4664L17.3792 34.2932C17.4225 34.2272 17.4596 34.153 17.5112 34.0953C17.6266 33.9695 17.7833 33.8664 17.8576 33.72C17.8885 33.6602 17.7483 33.5159 17.6864 33.4087L17.5751 33.4478C17.5998 33.3819 17.6102 33.3014 17.6535 33.2499C17.7813 33.1035 17.9215 32.9674 18.0555 32.8272C18.0885 33.0128 18.1153 33.1984 18.1566 33.3819C18.1751 33.4726 18.2163 33.5571 18.2473 33.6458L18.3483 33.621L18.4679 33.2705C18.6803 33.4293 18.6555 33.6458 18.4576 33.8973C18.2823 34.118 18.138 34.3613 17.9813 34.5943C17.938 34.6809 17.8926 34.7675 17.8493 34.8541L17.839 34.8582Z" fill="#0D1853"/>
<path d="M22.4541 30.2169C21.3118 30.5963 20.1675 30.9756 19.0273 31.353C18.9303 30.9158 19.3592 30.3756 19.7984 30.3406C20.3922 30.2931 20.9799 30.1756 21.5716 30.1117C21.8521 30.0808 22.1407 30.1055 22.4253 30.1055L22.4521 30.2169H22.4541Z" fill="#0D1853"/>
<path d="M45.9969 45.1307C45.6773 45.1595 45.3928 45.2131 45.1123 45.2008C44.9721 45.1946 44.7989 45.0977 44.7165 44.9863C44.6732 44.9286 44.7639 44.7018 44.8546 44.6379C44.9268 44.5863 45.0917 44.6647 45.2154 44.6853C45.3185 44.7038 45.4237 44.743 45.5247 44.7389C45.7763 44.7286 45.8546 44.7781 45.9969 45.1286V45.1307Z" fill="#0D1853"/>
<path d="M59.9414 32.3716C59.9991 32.2561 60.0321 32.1014 60.129 32.0169C60.2857 31.8808 60.4734 31.8581 60.626 32.0623C60.6651 32.1138 60.7497 32.1777 60.8012 32.1695C61.1992 32.1035 61.3167 32.386 61.4363 32.6582C60.9682 32.5674 60.494 32.4767 59.9414 32.3695V32.3716Z" fill="#0D1853"/>
<path d="M26.5184 32.252C26.6833 32.3509 26.8173 32.5613 26.5472 32.6437C26.1781 32.7571 26.2111 33.1283 25.974 33.3097C25.873 33.3881 25.8173 33.5262 25.7307 33.652C25.3905 33.4726 25.6214 33.2169 25.642 33.0169C25.6503 32.9241 25.8132 32.8417 25.9101 32.7613C26.106 32.5963 26.3019 32.4334 26.5204 32.252H26.5184Z" fill="#0D1853"/>
<path d="M55.1865 43.1698C54.9206 43.5636 54.7989 43.5698 54.4133 43.2213C54.6319 42.945 54.902 42.7017 55.2567 42.7883C55.3989 42.8234 55.4732 43.1347 55.5783 43.3203L55.469 43.4007L55.1865 43.1698Z" fill="#0D1853"/>
<path fill-rule="evenodd" clip-rule="evenodd" d="M64.0889 31.809L64.0979 31.8189L64.0855 31.8127L64.0868 31.8078L64.0889 31.809ZM64.087 31.8069C64.092 31.7863 64.0958 31.7624 64.0996 31.7383C64.1089 31.6797 64.1183 31.6206 64.1453 31.6106C64.2134 31.5838 64.335 31.5942 64.3804 31.6395C64.4378 31.6984 64.4772 31.7762 64.5168 31.8543L64.5168 31.8545C64.5341 31.8884 64.5513 31.9225 64.5701 31.955L64.5061 32.0436C64.4355 32.0037 64.3643 31.9638 64.2932 31.9239L64.2916 31.923C64.2239 31.885 64.1562 31.847 64.0889 31.809L64.087 31.8069ZM64.087 31.8069C63.6974 31.3778 63.231 31.056 62.6958 30.8354C62.6531 30.8178 62.6101 30.8011 62.5672 30.7845L62.5671 30.7844C62.4939 30.756 62.4208 30.7276 62.3494 30.6952C62.2999 30.6732 62.2541 30.6438 62.2083 30.6145C62.1853 30.5998 62.1624 30.5852 62.1391 30.5714L62.1824 30.4519C62.2294 30.4601 62.2773 30.466 62.3253 30.4719C62.4331 30.4852 62.541 30.4985 62.6381 30.5385C62.7662 30.5913 62.8945 30.6439 63.0228 30.6964L63.0231 30.6965C63.6401 30.949 64.2573 31.2016 64.8546 31.4952C65.1019 31.6167 65.3208 31.7932 65.5402 31.9701L65.5403 31.9702L65.5403 31.9702C65.6446 32.0543 65.7491 32.1385 65.8567 32.2168C65.9062 32.254 65.9639 32.2849 66.0237 32.3014C66.9103 32.5447 67.3454 33.2272 67.6877 34.0004C67.6966 34.021 67.7048 34.0434 67.7131 34.0662C67.7371 34.1325 67.7623 34.2017 67.8114 34.2354C68.1513 34.4662 68.1844 34.806 68.2175 35.1456C68.2395 35.3704 68.2614 35.5951 68.3722 35.7881C68.3949 35.8272 68.4011 35.8973 68.3825 35.9386C68.2402 36.2376 68.0939 36.5345 67.9433 36.8273C67.9128 36.8865 67.8841 36.9472 67.8554 37.008L67.8554 37.008C67.7811 37.165 67.7066 37.3224 67.6011 37.4561C67.4644 37.6285 67.3147 37.7902 67.165 37.9519L67.165 37.9519C67.012 38.1171 66.8592 38.2821 66.7206 38.4582C66.4979 38.7407 66.2567 38.9387 65.9 39.0438C65.7795 39.0797 65.6813 39.1826 65.5816 39.2869L65.5816 39.287C65.521 39.3505 65.4598 39.4145 65.3928 39.4644C65.282 39.5459 65.1718 39.6279 65.0615 39.71C64.6358 40.0267 64.2105 40.3432 63.7618 40.6232C63.4723 40.8032 63.1587 40.944 62.8449 41.0849C62.7094 41.1458 62.5738 41.2066 62.4401 41.2707L62.3948 41.1779C62.5717 41.0691 62.7511 40.9639 62.9304 40.8588C63.3425 40.6171 63.7543 40.3757 64.135 40.0913C64.834 39.5696 65.5082 39.0088 66.1392 38.4067C66.665 37.9036 67.1681 37.3551 67.5743 36.7572C67.7248 36.5364 67.7614 36.2379 67.7978 35.9403C67.8128 35.8182 67.8278 35.6962 67.8506 35.5798C67.8778 35.4463 67.896 35.3119 67.9166 35.1606L67.9166 35.1605L67.9166 35.1604C67.9271 35.0827 67.9383 35.0006 67.9516 34.9118C67.9011 34.8339 67.8378 34.7373 67.7669 34.6291C67.7046 34.5341 67.6364 34.4301 67.566 34.3221C67.5631 34.3267 67.5595 34.3316 67.5555 34.3367C67.5498 34.3442 67.5431 34.3522 67.5361 34.3605C67.5069 34.3953 67.4724 34.4365 67.4753 34.4746C67.531 35.221 67.4155 35.9345 67.0526 36.5943C66.9433 36.7943 66.8155 36.986 66.6711 37.1613L66.5673 37.2873C66.2992 37.6131 66.0304 37.9397 65.7309 38.2355C65.5972 38.3665 65.429 38.462 65.2611 38.5575L65.261 38.5575C65.1856 38.6004 65.1103 38.6432 65.0381 38.6892C65.0224 38.6995 65.0045 38.7089 64.9865 38.7183C64.9433 38.7411 64.8995 38.7641 64.8835 38.8005C64.6443 39.316 64.1948 39.5098 63.6938 39.7036C63.4241 39.809 63.1771 39.9705 62.9297 40.1322L62.9297 40.1322C62.7609 40.2426 62.5919 40.3531 62.4154 40.4459C62.2882 40.5123 62.1474 40.5513 62.0062 40.5905C61.8843 40.6243 61.7621 40.6582 61.6483 40.7098C61.5971 40.733 61.5412 40.7516 61.4849 40.7703C61.2808 40.8382 61.0701 40.9083 61.0442 41.2088C61.0414 41.2465 60.9648 41.2776 60.8855 41.3098C60.8478 41.3251 60.8095 41.3407 60.7782 41.3573L60.6792 41.1263L60.3473 41.3181C60.2445 41.3466 60.1583 41.3695 60.0808 41.3902C60.0012 41.4114 59.9307 41.4302 59.8607 41.4501C59.7149 41.4913 59.5792 41.5658 59.4431 41.6405C59.1712 41.7899 58.8977 41.9401 58.539 41.8274C58.4844 41.8103 58.4123 41.8672 58.3341 41.929C58.2704 41.9792 58.2026 42.0327 58.1369 42.0521C57.6792 42.1882 57.2132 42.3078 56.7472 42.415C56.6481 42.4374 56.5423 42.4323 56.4255 42.4267L56.4254 42.4267C56.3697 42.424 56.3115 42.4212 56.2503 42.4212C56.244 42.4254 56.2375 42.43 56.2306 42.4351C56.2264 42.4382 56.2221 42.4414 56.2177 42.4448C56.2071 42.4529 56.1958 42.4618 56.1839 42.4711L56.1839 42.4711L56.1839 42.4712C56.1202 42.5212 56.039 42.5851 55.9472 42.6192C55.4791 42.7944 55.4441 42.8954 55.7802 43.4006L56.2606 42.8934C56.3926 43.2666 56.6441 43.3037 57.2256 43.0501C57.4201 42.9657 57.6262 42.9096 57.8327 42.8534C57.9743 42.8148 58.1161 42.7762 58.2544 42.7284C58.3401 42.6995 58.4202 42.6545 58.5002 42.6095C58.5743 42.5679 58.6483 42.5263 58.7266 42.4975C58.8003 42.4701 58.884 42.4679 58.9757 42.4655C59.015 42.4645 59.0557 42.4635 59.0978 42.4604C59.0442 42.7635 58.9514 42.9016 58.6792 42.7449C58.6297 42.7161 58.5431 42.6996 58.4998 42.7223C58.3574 42.7988 58.2173 42.8796 58.0773 42.9603L58.0773 42.9603L58.0773 42.9603C57.893 43.0665 57.7091 43.1726 57.5204 43.2687C57.3018 43.38 57.0689 43.4666 56.8359 43.5429C56.6591 43.6013 56.4793 43.6473 56.2993 43.6934C56.2252 43.7123 56.151 43.7313 56.0771 43.7511C56.0744 43.752 56.0718 43.7534 56.0693 43.755C56.0666 43.7568 56.064 43.7588 56.0614 43.7608C56.0604 43.7615 56.0595 43.7622 56.0586 43.7629C56.0572 43.764 56.0558 43.765 56.0544 43.7659C56.0509 43.7681 56.0475 43.7697 56.0441 43.7697C55.7065 43.7393 55.4024 43.8669 55.0965 43.9953C54.7372 44.146 54.3753 44.2978 53.9533 44.1965C53.8133 44.1628 53.6496 44.2416 53.4822 44.3222C53.3835 44.3698 53.2835 44.4179 53.1863 44.4439C52.7615 44.5553 52.3327 44.6522 51.9017 44.7244C51.8458 44.7339 51.78 44.6812 51.7042 44.6206C51.6654 44.5895 51.624 44.5564 51.5801 44.5285L51.5203 44.7223C51.3823 44.7736 51.2589 44.8205 51.1415 44.8651L51.1398 44.8657L51.1388 44.8661C51.0449 44.9018 50.955 44.9359 50.8646 44.9697C50.8426 44.978 50.8206 44.9887 50.7986 44.9995C50.7546 45.021 50.7106 45.0426 50.6666 45.044C50.533 45.0468 50.3984 45.0424 50.264 45.038C50.0042 45.0295 49.7448 45.0211 49.4934 45.0646C49.307 45.0966 49.1318 45.1971 48.9388 45.3079L48.9387 45.3079C48.8457 45.3613 48.7485 45.4171 48.6439 45.4687C48.3099 45.2522 47.8789 45.2378 47.4356 45.4646C47.3965 45.4852 47.3078 45.4873 47.2892 45.4625C47.0261 45.1189 46.8282 45.2709 46.6302 45.423C46.549 45.4853 46.4678 45.5477 46.382 45.5759C46.3727 45.5788 46.3634 45.582 46.3541 45.5852L46.3277 45.5945C46.2728 45.6139 46.2171 45.6337 46.1614 45.6337C45.7293 45.6367 45.2971 45.6364 44.8564 45.636L44.4088 45.6357C44.1634 45.2934 44.1758 45.2481 44.5985 45.0068C44.5591 44.9991 44.5196 44.9917 44.48 44.9843L44.4798 44.9842L44.4798 44.9842C44.3827 44.966 44.2854 44.9478 44.1902 44.9244C43.9942 44.878 43.7948 44.8995 43.5947 44.9209C43.3317 44.9492 43.0675 44.9775 42.8087 44.8522C42.7482 44.8233 42.6611 44.8504 42.5731 44.8777C42.5291 44.8914 42.485 44.9051 42.4438 44.912C42.4172 44.9166 42.3894 44.9238 42.3614 44.9311C42.2892 44.9497 42.2156 44.9687 42.1592 44.945C41.8582 44.8192 41.6932 44.9244 41.6211 45.2708L41.1901 44.9986L40.7798 45.2398C40.7651 45.2483 40.7484 45.261 40.7319 45.2736C40.6998 45.2981 40.6683 45.3222 40.652 45.3141C40.3941 45.1808 40.1177 45.1806 39.8418 45.1805C39.597 45.1804 39.3527 45.1803 39.122 45.0873C39.0815 45.0708 39.0563 45.0128 39.0527 44.9935C38.9703 45.0109 38.8976 45.0325 38.8328 45.0517L38.8327 45.0517C38.7118 45.0877 38.6186 45.1154 38.5426 45.0914C38.0402 44.9239 37.5323 44.951 37.0234 44.9781H37.0234L37.0232 44.9781L37.0231 44.9781C36.9056 44.9843 36.788 44.9906 36.6704 44.9945C36.5706 44.9985 36.4709 44.9973 36.363 44.9959C36.3059 44.9952 36.2466 44.9945 36.1838 44.9945C36.3075 45.3264 36.4993 45.5677 36.8601 45.578C37.3605 45.5907 37.8609 45.5928 38.3612 45.5948C38.5887 45.5957 38.8162 45.5967 39.0437 45.5986C39.245 45.5999 39.4466 45.6044 39.6481 45.6089H39.6481H39.6482H39.6482H39.6483C40.0783 45.6184 40.5084 45.6279 40.9365 45.6069C41.093 45.599 41.2515 45.6042 41.4103 45.6095C41.8372 45.6235 42.2661 45.6376 42.6644 45.3986C42.7061 45.3736 42.7694 45.3842 42.834 45.395C42.8652 45.4002 42.8967 45.4055 42.9262 45.4069C42.9324 45.5326 42.9386 45.6378 42.9489 45.8048C42.7371 45.8358 42.5215 45.8678 42.3033 45.9001L42.3023 45.9003C41.8963 45.9605 41.4812 46.0221 41.0643 46.0811C41.0087 46.0893 40.9076 46.0728 40.8932 46.0399C40.7732 45.7571 40.6567 45.8604 40.543 45.9612C40.5083 45.992 40.4738 46.0226 40.4396 46.0419C40.3909 46.023 40.3421 46.0005 40.294 45.9782L40.294 45.9782C40.0853 45.8818 39.89 45.7916 39.7777 46.0295C39.6986 46.0495 39.629 46.0719 39.5661 46.0922L39.5661 46.0922C39.4471 46.1306 39.3519 46.1614 39.2602 46.1533C39.2245 46.1503 39.1884 46.1476 39.1522 46.1448C38.8832 46.1244 38.6041 46.1033 38.3715 45.9924C38.051 45.8415 37.7654 45.9193 37.478 45.9975C37.4159 46.0145 37.3537 46.0314 37.2911 46.046C37.2581 46.0543 37.223 46.2976 37.2643 46.3285C37.3921 46.4234 37.5529 46.5079 37.7096 46.5285C38.1158 46.5821 38.5261 46.6069 38.9344 46.6275C39.3983 46.6502 39.8623 46.6626 40.3262 46.6646C40.4004 46.665 40.4753 46.669 40.5502 46.673C40.8376 46.6882 41.1264 46.7034 41.3881 46.5203C41.4169 46.5017 41.4644 46.4935 41.4973 46.5017C42.1294 46.6591 42.7579 46.5951 43.3864 46.5312C43.7133 46.4979 44.0402 46.4647 44.3675 46.4625C45.0603 46.4584 45.7531 46.4172 46.4418 46.3533C46.9302 46.307 47.4153 46.2347 47.9011 46.1623L47.9013 46.1623L47.9017 46.1622L47.9021 46.1622C48.0867 46.1347 48.2713 46.1072 48.4563 46.0811C48.7412 46.0416 49.0252 45.9993 49.3273 45.9544L49.3275 45.9544L49.3281 45.9543C49.4827 45.9313 49.6421 45.9076 49.8089 45.8832L49.9862 45.6357C50.3924 45.8399 50.7574 45.7739 51.0996 45.4996C51.138 45.4686 51.1989 45.4586 51.2539 45.4495L51.2749 45.446C51.4679 45.4176 51.661 45.3902 51.8542 45.3629L51.8543 45.3628L51.8545 45.3628C52.2784 45.3027 52.7024 45.2426 53.1244 45.1718C53.5433 45.102 53.96 45.0183 54.3768 44.9345C54.5387 44.902 54.7006 44.8695 54.8626 44.8378C54.9311 44.8244 54.9979 44.7988 55.0629 44.7739L55.0791 44.7677L55.3302 44.675C55.6203 44.5681 55.9107 44.4611 56.1987 44.3491C56.2791 44.3182 56.358 44.2811 56.4369 44.2439C56.5157 44.2068 56.5946 44.1697 56.675 44.1388C56.7389 44.114 56.8194 44.1058 56.8895 44.1161C57.2173 44.1656 57.4317 43.9656 57.4132 43.6707C57.4485 43.6786 57.486 43.6918 57.5241 43.7052C57.6063 43.7341 57.6912 43.764 57.7617 43.7429C58.4277 43.5511 59.0895 43.3449 59.7473 43.1264C59.8263 43.1 59.8977 43.0515 59.9693 43.0028C60.0322 42.9601 60.0953 42.9172 60.1638 42.8893C60.4049 42.7909 60.6484 42.6977 60.8917 42.6045L60.8918 42.6045L60.8919 42.6045C61.3372 42.434 61.782 42.2638 62.2112 42.0624C62.8855 41.7449 63.5474 41.3882 64.1783 40.9903C64.6894 40.6677 65.1794 40.3136 65.6694 39.9595C65.8654 39.8179 66.0614 39.6762 66.2588 39.5366C66.2734 39.5262 66.288 39.5156 66.3026 39.5051C66.3866 39.4441 66.4718 39.3823 66.5825 39.349C66.4867 39.6833 66.2204 39.8674 65.9628 40.0456L65.9206 40.0748C65.5461 40.3359 65.1629 40.583 64.7798 40.8301C64.6334 40.9244 64.4871 41.0188 64.3412 41.114C64.2471 41.1752 64.1523 41.2353 64.0575 41.2953C63.8427 41.4314 63.6282 41.5673 63.4236 41.716C62.9182 42.0828 62.3501 42.3191 61.7823 42.5553C61.5394 42.6564 61.2965 42.7574 61.0586 42.8686C60.005 43.3594 58.9308 43.813 57.84 44.2089C57.3827 44.3742 56.9039 44.4826 56.4252 44.591C56.1636 44.6502 55.902 44.7095 55.6441 44.778C55.5102 44.8136 55.3797 44.8628 55.2493 44.912L55.2493 44.912L55.2492 44.912C55.1307 44.9567 55.0123 45.0013 54.8915 45.0357C54.7253 45.0833 54.5592 45.1319 54.3931 45.1805L54.393 45.1805L54.393 45.1805C53.8253 45.3465 53.2569 45.5127 52.6811 45.6419C52.3491 45.717 52.0108 45.7613 51.6721 45.8057L51.672 45.8057C51.3966 45.8417 51.1209 45.8779 50.8481 45.9306C50.5565 45.9863 50.2705 46.0647 49.9841 46.1432L49.984 46.1432L49.984 46.1432C49.8046 46.1924 49.625 46.2415 49.4439 46.2852C49.3697 46.3035 49.2924 46.3085 49.2147 46.3135L49.2146 46.3135C49.152 46.3175 49.0891 46.3216 49.0274 46.3326C48.8996 46.3555 48.7724 46.3817 48.6453 46.4079L48.6452 46.4079C48.4403 46.4501 48.2356 46.4923 48.0295 46.5203C47.9305 46.5337 47.8284 46.527 47.7264 46.5203H47.7264C47.6243 46.5136 47.5222 46.5069 47.4233 46.5203C47.2165 46.5475 47.0101 46.5773 46.8038 46.6071C46.027 46.7193 45.2513 46.8313 44.4562 46.8069C43.9873 46.7925 43.5176 46.8346 43.0475 46.8768C42.7776 46.9011 42.5076 46.9253 42.2376 46.9388C42.0242 46.9502 41.8108 46.9492 41.5973 46.9481C41.3839 46.9471 41.1705 46.9461 40.9571 46.9574C40.63 46.9744 40.303 47.0007 39.9759 47.027L39.9757 47.027C39.6677 47.0517 39.3598 47.0765 39.0519 47.0935C38.8499 47.1038 38.6437 47.0687 38.4437 47.0337C37.9241 46.9409 37.623 47.1966 37.6973 47.7079C37.7537 48.0993 37.8159 48.4897 37.8781 48.8801L37.8781 48.8803L37.8782 48.8806C37.9454 49.3024 38.0126 49.7242 38.0725 50.1472C38.1138 50.4296 38.2622 50.5245 38.5282 50.5719C38.9365 50.6461 39.3241 50.6833 39.7427 50.5864C39.9171 50.5456 40.1034 50.5623 40.2907 50.579C40.4067 50.5894 40.5232 50.5998 40.6375 50.5967C41.077 50.5868 41.5165 50.5722 41.956 50.5576L41.957 50.5576C42.342 50.5448 42.7269 50.5321 43.1118 50.5224C43.394 50.5155 43.6765 50.5146 43.959 50.5137C44.4298 50.5123 44.9005 50.5108 45.3696 50.4812C45.884 50.4487 46.3961 50.3777 46.9076 50.3068L46.9078 50.3068L46.9081 50.3067C47.0771 50.2833 47.2461 50.2599 47.415 50.2379L47.6272 50.2103L47.6275 50.2103C48.2704 50.1269 48.9145 50.0433 49.5553 49.943C50.1066 49.8568 50.657 49.7598 51.2078 49.6626C51.4871 49.6134 51.7664 49.5641 52.0461 49.5162C52.6564 49.4111 53.2667 49.3039 53.877 49.1966C53.9141 49.1904 53.9533 49.1822 53.9884 49.1698C54.1219 49.1302 54.2547 49.0887 54.3875 49.0472L54.3876 49.0471C54.6484 48.9656 54.9089 48.8842 55.174 48.8172C55.4332 48.7522 55.6943 48.6951 55.9551 48.6379C56.3064 48.561 56.6574 48.4842 57.0029 48.3884C57.2181 48.3284 57.4242 48.2346 57.6301 48.1408L57.6301 48.1408L57.6301 48.1408C57.7498 48.0864 57.8693 48.032 57.9905 47.9842C58.0668 47.9533 58.1699 47.9347 58.24 47.9616C58.4833 48.0564 58.5967 47.9636 58.6215 47.7389C58.9939 47.7408 59.339 47.6148 59.6822 47.4896C60.0877 47.3416 60.4906 47.1946 60.9329 47.2605L60.972 47.3698C60.8969 47.4038 60.8225 47.4437 60.7482 47.4835C60.5838 47.5716 60.4194 47.6597 60.2462 47.6853C59.6947 47.7674 59.1872 47.9766 58.6801 48.1856C58.2831 48.3493 57.8863 48.5128 57.4689 48.6152C57.1494 48.6931 56.8292 48.7664 56.509 48.8397L56.509 48.8397L56.5089 48.8397C56.1264 48.9272 55.7441 49.0146 55.3637 49.11C55.1981 49.1517 55.0363 49.2078 54.8745 49.2639L54.8744 49.2639L54.8742 49.264L54.8742 49.264C54.7238 49.3161 54.5732 49.3683 54.4193 49.409C54.1997 49.4662 53.9762 49.5128 53.7529 49.5593L53.7528 49.5593C53.3242 49.6486 52.8962 49.7378 52.4976 49.9018C52.1375 50.0508 51.7725 50.0785 51.4088 50.1061C51.1936 50.1224 50.9787 50.1388 50.7656 50.1802C50.0398 50.3204 49.3017 50.4152 48.5656 50.4977C48.0881 50.5519 47.6086 50.5927 47.129 50.6334L47.1288 50.6334C46.7697 50.664 46.4105 50.6945 46.0521 50.7307C45.8005 50.7558 45.5492 50.7878 45.298 50.8197C44.8697 50.8741 44.4417 50.9285 44.0129 50.9493C43.6936 50.9652 43.3729 50.9419 43.0521 50.9186L43.052 50.9186C42.832 50.9026 42.6119 50.8866 42.3922 50.8833C42.1352 50.8792 41.8783 50.8956 41.6207 50.9119C41.4856 50.9205 41.3504 50.9291 41.2149 50.9348C40.3489 50.9699 39.4829 51.0049 38.6169 51.0379C38.4657 51.0435 38.3144 51.0473 38.1632 51.051C37.815 51.0596 37.467 51.0681 37.122 51.0998C37.0148 51.1101 36.8663 51.2585 36.8333 51.374C36.6416 52.0235 36.7735 52.3225 37.3797 52.6586C37.8395 52.9122 38.3035 53.1617 38.7756 53.3885C38.8652 53.4315 38.9686 53.4461 39.0726 53.4608C39.1482 53.4715 39.2241 53.4823 39.2952 53.5039C39.361 53.524 39.4189 53.5678 39.4764 53.6114C39.5018 53.6306 39.5271 53.6498 39.553 53.6668C39.5347 53.6916 39.5173 53.7221 39.4999 53.7527C39.4621 53.8189 39.4242 53.8852 39.3777 53.8937C39.2834 53.91 39.1889 53.9276 39.0942 53.9453C38.7229 54.0145 38.349 54.0841 37.9777 54.0792C37.5655 54.0745 37.1548 54.0357 36.7438 53.997C36.4392 53.9682 36.1346 53.9395 35.8292 53.9246C35.225 53.8937 35.1116 53.7741 35.2621 53.2029C35.489 52.3493 35.4333 51.506 35.2477 50.6523C35.0415 49.7018 35.0415 48.7389 35.19 47.7739C35.2106 47.644 35.1735 47.4481 35.0848 47.3718C34.2498 46.6461 33.3982 45.9368 32.5466 45.2316C32.4652 45.1637 32.3713 45.1111 32.2625 45.0501C32.206 45.0184 32.1455 44.9845 32.0806 44.945C32.0757 44.9941 32.0708 45.0387 32.0664 45.0802L32.0663 45.0804C32.0541 45.1938 32.0445 45.2833 32.0414 45.3739C32.0373 45.4786 32.0299 45.5837 32.0226 45.6888C32.0047 45.9457 31.9868 46.2026 32.0147 46.4543C32.1672 47.8399 31.6476 49.0234 30.9486 50.1554C30.7631 50.456 30.5733 50.7538 30.3836 51.0514L30.3835 51.0515L30.3834 51.0516C30.1789 51.3724 29.9744 51.6932 29.7754 52.0173C29.6125 52.2833 29.4414 52.2957 29.2125 52.108C29.0146 51.9455 28.8113 51.7883 28.6149 51.6364C28.5372 51.5763 28.4605 51.517 28.3857 51.4585C28.3597 51.4669 28.3392 51.4719 28.323 51.4758C28.2994 51.4815 28.285 51.485 28.2764 51.4936C27.7664 52.0599 27.8297 52.5452 28.4661 52.9493L28.4989 52.97C28.8777 53.2087 29.2574 53.448 29.7404 53.44C29.8109 53.44 29.8824 53.5056 29.9541 53.5715L29.9542 53.5715L29.9542 53.5715C29.9873 53.602 30.0206 53.6324 30.0538 53.6565C30.024 53.6955 29.9969 53.7419 29.9697 53.7882C29.9121 53.8865 29.8546 53.9846 29.7734 54.0112C29.495 54.0998 29.1919 54.1576 28.9012 54.1493C28.2367 54.1274 27.5721 54.0879 26.9076 54.0484C26.634 54.0322 26.3603 54.0159 26.0867 54.0009C25.7423 53.9823 25.5836 53.7864 25.6578 53.4648C25.7098 53.2376 25.8193 53.0211 25.9259 52.8105L25.9485 52.7658C26.396 51.8895 26.8516 51.0173 27.3094 50.1451C27.4537 49.8709 27.3094 49.7822 27.0681 49.7204C26.3795 49.5472 25.6928 49.3678 25.0062 49.1822C24.727 49.1053 24.4519 49.0162 24.1764 48.927L24.1764 48.9269C24.1121 48.9061 24.0479 48.8853 23.9835 48.8647C23.9693 48.8596 23.9543 48.8488 23.9398 48.8382C23.9186 48.8229 23.8984 48.8082 23.8825 48.8131C23.4639 48.923 23.1266 48.746 22.7853 48.5668C22.5566 48.4468 22.3261 48.3258 22.068 48.2894C21.8269 48.2551 21.5844 48.1549 21.3372 48.0528C21.1385 47.9706 20.9366 47.8872 20.7298 47.8358C20.6775 47.8234 20.6381 47.7605 20.5931 47.6887C20.5707 47.653 20.547 47.6151 20.5195 47.5801C20.275 47.7982 20.094 47.6722 19.9081 47.5429C19.804 47.4704 19.6984 47.397 19.5793 47.3822C19.4759 47.3699 19.3806 47.2966 19.2844 47.2227C19.2349 47.1846 19.1851 47.1463 19.1339 47.1162L18.9283 46.9932C18.5719 46.7798 18.2146 46.5659 17.8514 46.3636C17.7414 46.3026 17.6184 46.2641 17.4958 46.2258C17.4484 46.211 17.401 46.1962 17.3545 46.1801C17.3292 46.1714 17.3007 46.1689 17.2725 46.1665C17.234 46.1632 17.1963 46.1599 17.1689 46.1409C16.5194 45.677 15.872 45.2089 15.2287 44.7367C15.1606 44.6852 15.1235 44.5903 15.1276 44.4646L15.2708 44.5476L15.2709 44.5477L15.2709 44.5477C15.4012 44.6232 15.532 44.699 15.6617 44.7759C15.8726 44.8989 16.0829 45.0234 16.2932 45.148L16.2933 45.148L16.2933 45.1481L16.2934 45.1481L16.2934 45.1481C16.8025 45.4497 17.312 45.7515 17.8329 46.0316C18.0144 46.1299 18.2142 46.1945 18.4143 46.2592C18.5709 46.3098 18.7277 46.3605 18.8762 46.4275C19.0098 46.4875 19.1343 46.5684 19.2589 46.6494C19.3786 46.7271 19.4985 46.805 19.6267 46.8646C19.6889 46.8934 19.7511 46.9229 19.8135 46.9524L19.8135 46.9524L19.8135 46.9524C20.1487 47.1111 20.4887 47.272 20.8432 47.345C21.0825 47.3942 21.3022 47.4977 21.5223 47.6013C21.8465 47.754 22.1715 47.907 22.5608 47.8873C22.7055 47.88 22.8509 47.9666 22.9999 48.0554C23.1037 48.1172 23.2092 48.1801 23.3175 48.2131C23.5938 48.2966 23.8744 48.3662 24.1549 48.4358L24.1551 48.4358C24.4147 48.5002 24.6742 48.5646 24.9299 48.6399C25.0787 48.6842 25.2231 48.7456 25.3674 48.807C25.5391 48.88 25.7106 48.9529 25.8887 48.9966C26.182 49.0689 26.4828 49.114 26.7835 49.1591C26.9288 49.1809 27.0742 49.2027 27.2187 49.2276C27.3154 49.2437 27.4112 49.265 27.517 49.2886L27.5181 49.2889C27.5607 49.2984 27.605 49.3082 27.6517 49.3183C27.6881 49.2753 27.7252 49.2299 27.7633 49.1832C27.8458 49.082 27.9331 48.9751 28.029 48.875C28.1533 48.744 28.2762 48.6111 28.3992 48.4782L28.3993 48.4781L28.3994 48.478C28.7371 48.1128 29.0752 47.7472 29.4455 47.4193C29.6982 47.195 29.6557 46.9619 29.6135 46.7301C29.5944 46.6252 29.5753 46.5206 29.5837 46.4172C29.5996 46.2224 29.4698 46.197 29.3299 46.1696C29.2891 46.1616 29.2475 46.1535 29.2084 46.1409C28.9636 46.0627 28.7237 45.9694 28.484 45.8762L28.484 45.8762L28.4839 45.8762C28.2371 45.7802 27.9903 45.6843 27.7383 45.6048C27.4228 45.5058 27.0888 45.446 26.7609 45.4172C26.2536 45.3732 25.7716 45.2329 25.2895 45.0925L25.2894 45.0925L25.2894 45.0925C25.07 45.0286 24.8507 44.9647 24.6289 44.9099C24.458 44.8672 24.3018 44.7625 24.1454 44.6576L24.1454 44.6576L24.1454 44.6576C24.0754 44.6106 24.0054 44.5637 23.934 44.5223C23.9107 44.509 23.887 44.4921 23.8631 44.4751C23.8091 44.4366 23.7546 44.3978 23.7031 44.4006C23.4092 44.4153 23.1629 44.2982 22.9166 44.181C22.8156 44.133 22.7146 44.085 22.6103 44.046C22.5213 44.0129 22.4241 44.0032 22.3263 43.9934C22.2475 43.9855 22.1683 43.9776 22.0928 43.9573C21.9979 43.9319 21.9089 43.8869 21.8197 43.8419L21.8197 43.8419C21.779 43.8214 21.7382 43.8008 21.6969 43.7821C21.6362 43.7537 21.5759 43.7188 21.5157 43.684L21.5157 43.684C21.3837 43.6076 21.252 43.5314 21.1175 43.5243C20.7306 43.5044 20.4104 43.3314 20.0914 43.1591C19.9479 43.0815 19.8046 43.0041 19.6556 42.9408C19.002 42.6645 18.3669 42.3429 17.736 42.0171C17.305 41.7944 16.8885 41.5449 16.4741 41.2892L16.4202 41.256C15.964 40.9744 15.5086 40.6933 15.0761 40.3779C14.8165 40.1894 14.5692 39.9846 14.322 39.7798L14.322 39.7798L14.3219 39.7798L14.3219 39.7797C14.1391 39.6284 13.9564 39.4771 13.7689 39.3325C13.3812 39.0335 13.0761 38.6809 12.8327 38.25C12.6498 37.9277 12.4311 37.6258 12.2126 37.3242L12.2126 37.3242C12.1208 37.1975 12.029 37.0708 11.9399 36.9427L12.0843 36.8376C12.1635 36.947 12.242 37.057 12.3204 37.167C12.4992 37.4176 12.678 37.6682 12.8657 37.9118C13.0018 38.0891 13.1544 38.2582 13.3235 38.4005C13.655 38.6737 13.9977 38.934 14.3403 39.1943L14.3404 39.1943L14.4761 39.2974C14.542 39.3471 14.613 39.3904 14.6838 39.4335L14.6838 39.4335L14.6838 39.4335C14.7568 39.478 14.8297 39.5224 14.8967 39.5737C15.1668 39.7778 15.4307 39.9902 15.6947 40.2026C15.7127 40.2168 15.7259 40.2376 15.739 40.2581C15.7543 40.2822 15.7693 40.3058 15.7916 40.3181C16.1219 40.4972 16.4538 40.674 16.7858 40.8509C16.9926 40.961 17.1995 41.0712 17.4061 41.182C17.6313 41.3024 17.8553 41.4243 18.0793 41.5462L18.0795 41.5463L18.0798 41.5464C18.5386 41.7961 18.997 42.0455 19.4638 42.281C19.7707 42.4359 20.0894 42.5672 20.4083 42.6987C20.5522 42.7581 20.6962 42.8174 20.8391 42.879C21.1194 43.0018 21.3986 43.1258 21.6783 43.2502L21.6787 43.2503L21.6791 43.2505L21.9381 43.3656L21.9382 43.3656C22.0207 43.4027 22.1031 43.4398 22.1876 43.4687C22.3796 43.5352 22.5713 43.6028 22.763 43.6705L22.7631 43.6705C23.2548 43.844 23.7464 44.0175 24.2433 44.1718C24.3722 44.2119 24.5109 44.2185 24.6496 44.2251C24.7815 44.2313 24.9135 44.2376 25.0372 44.2728C25.2329 44.3274 25.4217 44.4058 25.6105 44.4842L25.6105 44.4842L25.6105 44.4842C25.7499 44.5421 25.8891 44.5999 26.031 44.6481C26.2294 44.7155 26.4369 44.7541 26.6432 44.7925L26.6433 44.7926L26.6867 44.8006C27.5053 44.9594 28.3238 45.1141 29.1445 45.2666C29.1895 45.2756 29.2361 45.2734 29.2978 45.2705H29.2979C29.3351 45.2687 29.3778 45.2666 29.429 45.2666C29.4043 44.8604 29.3816 44.4728 29.361 44.1017H28.297L28.4269 44.5615L28.3774 44.5945C28.3362 44.5323 28.2931 44.4712 28.2499 44.41C28.1526 44.2721 28.0552 44.1341 27.9795 43.9841C27.8352 43.6996 27.6434 43.6955 27.4145 43.8439C27.0743 44.0646 26.7815 44.0295 26.4372 43.8027C26.2042 43.6501 25.8825 43.6047 25.5939 43.5738L25.5853 43.5728C25.2819 43.5383 25.032 43.5098 25.1444 43.0625L25.0433 43.0707L24.8454 43.3821C24.8321 43.3821 24.8175 43.3834 24.8025 43.3848C24.7689 43.388 24.7331 43.3914 24.7031 43.38C24.3786 43.2538 24.0549 43.1254 23.7313 42.997C23.3518 42.8465 22.9724 42.696 22.5917 42.5491C22.4552 42.4964 22.3159 42.4503 22.1768 42.4043C21.9945 42.3439 21.8125 42.2837 21.6371 42.2088C21.5259 42.1616 21.4232 42.0947 21.3206 42.0278C21.2217 41.9632 21.1228 41.8987 21.0164 41.8521C20.7391 41.7323 20.4581 41.6207 20.1773 41.5093C19.7043 41.3216 19.2321 41.1342 18.7793 40.9078C18.119 40.576 17.4812 40.1995 16.8445 39.8236L16.8445 39.8235L16.8444 39.8235C16.6619 39.7158 16.4795 39.6081 16.2967 39.5016C16.2181 39.4554 16.1383 39.4102 16.0585 39.3649C15.7491 39.1893 15.4377 39.0126 15.1771 38.7799C15.0672 38.681 14.9506 38.5898 14.8338 38.4985L14.8337 38.4985L14.8337 38.4984C14.5559 38.2813 14.2767 38.0631 14.0823 37.7366C13.9099 37.4474 13.6725 37.1966 13.4348 36.9454L13.4348 36.9453C13.3285 36.833 13.2221 36.7206 13.1214 36.6046C13.1158 36.5981 13.1099 36.5916 13.1038 36.585C13.083 36.5624 13.0614 36.539 13.0534 36.5118C13.015 36.3798 12.9719 36.2484 12.9287 36.1172C12.8256 35.8037 12.7227 35.4907 12.6864 35.1695C12.65 34.8481 12.6824 34.5195 12.7147 34.191L12.7147 34.191C12.7282 34.0537 12.7418 33.9165 12.7503 33.7798C12.7523 33.7303 12.7565 33.6726 12.7812 33.6313C12.8723 33.4746 12.9595 33.3147 13.0467 33.1549L13.0467 33.1549L13.0467 33.1548C13.2634 32.7577 13.4801 32.3606 13.7565 32.0107C13.9773 31.7306 14.2679 31.5062 14.5589 31.2814C14.6835 31.1851 14.8083 31.0888 14.9276 30.9879C14.9877 30.9372 15.051 30.8902 15.114 30.8434C15.2046 30.7761 15.2949 30.709 15.3751 30.6312C15.3997 30.6073 15.4233 30.5816 15.4466 30.5562L15.4466 30.5562L15.4466 30.5562C15.5618 30.4307 15.6717 30.3109 15.8844 30.4292C15.9112 30.4436 15.9751 30.4415 15.9936 30.4209C16.3088 30.0557 16.7388 29.9326 17.1685 29.8096L17.1685 29.8096C17.5006 29.7145 17.8326 29.6194 18.1112 29.4127C18.1215 29.4044 18.136 29.3941 18.1463 29.3962C18.5588 29.4892 18.823 29.264 19.0887 29.0375C19.2706 28.8825 19.4532 28.7269 19.6845 28.6724C19.8084 28.644 19.9124 28.4473 19.9884 28.3034L19.9917 28.2972C20.6061 27.1239 21.2123 25.9487 21.8103 24.7672C21.8471 24.6936 21.8499 24.6026 21.8527 24.5121C21.854 24.4707 21.8552 24.4294 21.8598 24.3899L21.4763 24.4332C21.3765 24.3078 21.2756 24.178 21.1728 24.046L21.1727 24.0459L21.1727 24.0458L21.1727 24.0458C20.9292 23.7329 20.6758 23.4073 20.4061 23.097C20.0546 22.6927 20.2057 22.2702 20.3463 21.8772L20.3525 21.8599C20.602 21.163 21.8165 20.8228 22.3856 21.2784C22.587 21.4391 22.7664 21.6276 22.9598 21.8309L22.9598 21.831L22.9599 21.831C23.0494 21.9252 23.142 22.0226 23.2412 22.1218C23.2962 21.9682 23.3906 21.8272 23.4866 21.6838C23.6898 21.3805 23.9002 21.0663 23.7588 20.6001C23.7391 20.5339 23.7755 20.4515 23.8123 20.3685C23.8487 20.2861 23.8855 20.2029 23.8681 20.1341C23.7114 19.5155 24.0289 19.4145 24.5361 19.431C24.6248 19.433 24.7464 19.2619 24.8104 19.1485C25.1837 18.4826 25.552 17.8126 25.9201 17.1429L25.9202 17.1427L25.9203 17.1426C26.0787 16.8544 26.2372 16.5662 26.396 16.2783C26.4128 16.2477 26.4276 16.2143 26.4424 16.1808L26.4424 16.1808C26.4765 16.1036 26.5108 16.026 26.5712 15.9814C26.6409 15.9288 26.7322 15.9046 26.8235 15.8804C26.8645 15.8696 26.9054 15.8587 26.9444 15.8453C26.9489 15.8828 26.9585 15.9226 26.9681 15.9625C26.9891 16.0498 27.01 16.137 26.9774 16.1979C26.6778 16.7754 26.3681 17.3467 26.0582 17.9184L26.0581 17.9185L26.0581 17.9185L26.0578 17.9191C25.9263 18.1617 25.7948 18.4043 25.664 18.6474L25.6156 18.7374C25.5218 18.9117 25.4277 19.0866 25.3485 19.266C25.2269 19.5423 25.3526 19.9238 25.6227 20.0475C26.3465 20.3794 27.0743 20.7032 27.8084 21.0145C28.2847 21.2166 28.7177 21.4496 28.8393 22.0145C28.8505 22.0651 28.8771 22.1118 28.9033 22.1579C28.9155 22.1796 28.9278 22.2011 28.9383 22.2228C29.2476 22.8517 29.1177 23.1197 28.4084 23.2393C28.2499 23.2662 28.0855 23.2591 27.9213 23.252C27.8463 23.2487 27.7714 23.2455 27.697 23.2455L27.6166 23.3733C27.8672 23.6486 28.1195 23.9239 28.4058 24.2362L28.4062 24.2366L28.4805 24.3177C28.527 24.2521 28.5682 24.1965 28.6051 24.1465C28.6681 24.0612 28.7188 23.9925 28.763 23.9197C29.9445 21.9671 31.6559 20.6001 33.6147 19.4949C36.0292 18.132 38.654 17.8268 41.3448 18.0227C42.9757 18.1423 44.5613 18.5547 46.0253 19.3506C48.446 20.6661 50.2439 22.5898 51.5038 25.0105C51.8254 25.6291 52.2378 25.8394 52.8791 25.8785C53.2439 25.9007 53.6059 25.97 53.9682 26.0394C54.1466 26.0736 54.325 26.1077 54.5038 26.1363C54.741 26.1745 54.9793 26.206 55.217 26.2373L55.2171 26.2373C55.2997 26.2483 55.3823 26.2591 55.4647 26.2703C55.492 26.274 55.5213 26.2737 55.5504 26.2735C55.6028 26.273 55.6544 26.2725 55.6915 26.2951C56.2035 26.6204 56.7777 26.7346 57.352 26.8489C57.6403 26.9062 57.9286 26.9636 58.2091 27.0476C58.4128 27.1083 58.6085 27.1994 58.8038 27.2903C58.8872 27.3292 58.9706 27.368 59.0545 27.4044L59.0112 27.5281C58.9061 27.4973 58.7999 27.4692 58.6937 27.441C58.4436 27.3747 58.1934 27.3083 57.9575 27.2085C57.3761 26.961 56.7926 26.7837 56.1472 26.8208C55.9913 26.8302 55.8336 26.7887 55.6754 26.747C55.5888 26.7242 55.502 26.7014 55.4152 26.6868C55.2505 26.659 55.0859 26.6262 54.9213 26.5934C54.5134 26.5121 54.1055 26.4308 53.6956 26.425C53.391 26.4216 53.1106 26.3645 52.8272 26.3069C52.7596 26.2931 52.6917 26.2793 52.6234 26.2662C52.5507 26.2522 52.4686 26.2884 52.3847 26.3254C52.3448 26.343 52.3045 26.3608 52.2646 26.3734C52.2708 26.6724 52.376 26.8085 52.677 26.8311C52.9301 26.8505 53.1819 26.885 53.4336 26.9195C53.7459 26.9623 54.0579 27.0051 54.3719 27.0188C55.2695 27.0566 56.1327 27.2667 56.9956 27.4767C57.4507 27.5875 57.9058 27.6983 58.3658 27.7838C58.4248 27.7947 58.4765 27.8477 58.5324 27.905C58.5605 27.9338 58.5897 27.9637 58.6215 27.9899C58.8094 27.755 58.9876 27.8623 59.1667 27.9701C59.247 28.0185 59.3275 28.0669 59.4091 28.0848C59.6637 28.1418 59.9114 28.2329 60.1595 28.3241C60.2972 28.3748 60.435 28.4255 60.5741 28.4704C60.664 28.4996 60.754 28.5333 60.844 28.567L60.8441 28.567C61.0781 28.6546 61.3126 28.7424 61.5494 28.7528C62.0383 28.776 62.4077 28.9948 62.8035 29.2293L62.8834 29.2766C63.3253 29.536 63.7837 29.7669 64.2422 29.9978L64.2422 29.9979C64.6545 30.2055 65.0667 30.4131 65.467 30.6416C65.7154 30.7839 65.9332 30.9787 66.1518 31.1742C66.2688 31.2788 66.386 31.3837 66.5083 31.4807C66.7964 31.7116 67.0886 31.9374 67.3806 32.1632L67.3824 32.1645L67.3831 32.165C67.5102 32.2633 67.6372 32.3615 67.764 32.4601L67.6835 32.5674C67.5504 32.4667 67.4184 32.3646 67.2864 32.2624L67.2862 32.2623C66.983 32.0276 66.6799 31.7931 66.3639 31.5777C66.1526 31.4326 65.925 31.3125 65.6974 31.1925C65.5919 31.1368 65.4863 31.0812 65.3825 31.023C65.3188 30.9873 65.2534 30.9533 65.1879 30.9192L65.1878 30.9192C65.0263 30.8353 64.864 30.7509 64.7247 30.6395C64.203 30.223 63.6072 29.9756 62.9824 29.7652C62.6876 29.6657 62.3974 29.553 62.1073 29.4404L62.1072 29.4404C61.7783 29.3127 61.4495 29.185 61.1143 29.0766C60.6832 28.9381 60.2465 28.8172 59.8095 28.6962C59.4982 28.61 59.1868 28.5238 58.8771 28.4312C58.685 28.374 58.4956 28.3064 58.3061 28.2387C58.0582 28.1502 57.8102 28.0616 57.5555 27.9961C56.9754 27.845 56.3853 27.7323 55.7971 27.62L55.7802 27.6167C55.3925 27.5425 55.0008 27.4806 54.609 27.4477C54.3608 27.4274 54.1112 27.4223 53.8618 27.4172H53.8618C53.6803 27.4135 53.4989 27.4098 53.3182 27.4002C53.1733 27.393 53.0294 27.3725 52.8578 27.3481L52.8577 27.3481C52.7852 27.3377 52.7079 27.3267 52.6234 27.3157C52.7001 27.5917 52.7702 27.8447 52.8376 28.088L52.8377 28.0886L52.9698 28.5652C53.0481 28.2332 53.2255 28.1714 53.5306 28.1611C53.6906 28.1555 53.8475 28.0995 54.0054 28.0432C54.1385 27.9958 54.2722 27.9481 54.409 27.9301C54.7678 27.8827 55.1389 27.8807 55.5018 27.9075C56.4441 27.9796 57.2297 28.4333 57.908 29.0498C58.2173 29.3302 58.539 29.6621 58.3926 30.1879C58.3639 30.2897 58.411 30.4124 58.4576 30.5339C58.478 30.5871 58.4984 30.6401 58.5122 30.691C58.5144 30.6991 58.5165 30.7072 58.5186 30.7154C58.5216 30.7274 58.5245 30.7395 58.5275 30.7517C58.5451 30.8247 58.5631 30.899 58.605 30.957C58.6689 31.0498 58.7555 31.157 58.8545 31.19C58.9844 31.2338 59.122 31.2553 59.2615 31.2771C59.3256 31.2872 59.3902 31.2973 59.4545 31.3096C59.8112 30.8952 60.1638 30.889 60.6318 31.3158C60.952 31.046 61.1731 31.2174 61.397 31.391C61.4845 31.4589 61.5724 31.5271 61.6669 31.5694C61.6956 31.5816 61.7267 31.6174 61.7519 31.6465C61.7738 31.6716 61.7912 31.6917 61.7989 31.6869C62.0582 31.5481 62.2809 31.6407 62.5058 31.7342C62.6583 31.7976 62.8117 31.8614 62.9783 31.8539C63.0051 31.9818 63.0319 32.1034 63.0587 32.2251C63.1229 32.2137 63.1879 32.2051 63.2525 32.1967C63.3977 32.1777 63.5413 32.1589 63.6711 32.1076C63.7773 32.0659 63.8675 31.9853 63.9578 31.9047L63.9578 31.9047C63.9972 31.8695 64.0366 31.8343 64.0773 31.8024L64.0868 31.8078L64.087 31.8069ZM18.1236 34.3673C18.0733 34.4447 18.0229 34.5222 17.971 34.5983L17.9607 34.6025C17.9795 34.6135 18.0031 34.6239 18.0266 34.6344C18.078 34.6571 18.1297 34.68 18.1339 34.7097C18.1483 34.7922 18.1133 34.887 18.0803 34.9695C18.0246 35.1035 17.9566 35.2355 17.8844 35.3613C17.8782 35.3716 17.7566 35.3303 17.7566 35.3221C17.7751 35.1674 17.8019 35.0149 17.8287 34.8623C17.7069 35.0175 17.584 35.1728 17.4485 35.3438L17.4474 35.3453L17.4471 35.3457L17.27 35.5695H17.7545C18.0267 36.0252 17.8844 36.4974 17.3628 36.5324L17.3818 36.4629C17.4203 36.3231 17.4587 36.1834 17.5153 35.9798L17.0638 36.3056C17.0638 36.1997 17.0636 36.0962 17.0634 35.9946V35.9946C17.0626 35.6472 17.062 35.3217 17.07 34.9963C17.0718 34.9537 17.1303 34.906 17.1766 34.8684L17.1916 34.8561C17.3227 34.7482 17.4564 34.6444 17.5864 34.5435L17.5864 34.5435L17.5864 34.5435L17.6803 34.4705L17.3689 34.2973C17.3827 34.2764 17.3955 34.2547 17.4085 34.2329C17.4363 34.186 17.4643 34.1388 17.5009 34.0994C17.5411 34.0549 17.5863 34.0136 17.6313 33.9725C17.7155 33.8957 17.7989 33.8195 17.8473 33.7241C17.8684 33.6834 17.8101 33.6035 17.7512 33.5227C17.7236 33.4849 17.6959 33.447 17.6762 33.4128L17.5648 33.4519C17.5722 33.4315 17.5783 33.4102 17.5844 33.389C17.5987 33.3394 17.6128 33.2901 17.6432 33.254C17.7375 33.1441 17.84 33.0401 17.9428 32.9358C17.977 32.9011 18.0113 32.8663 18.0452 32.8313C18.0544 32.883 18.0633 32.9348 18.0722 32.9865C18.0951 33.1202 18.118 33.2536 18.1463 33.3859C18.1603 33.4477 18.1829 33.5065 18.2057 33.5658L18.2057 33.5658C18.2164 33.5937 18.2271 33.6216 18.237 33.6499L18.338 33.6251L18.4576 33.2746C18.6721 33.4334 18.6473 33.6499 18.4473 33.9014C18.3307 34.0485 18.2272 34.2078 18.1236 34.3673ZM18.4824 30.2306C18.5204 30.2267 18.5601 30.2225 18.602 30.2168L18.5999 30.2189C18.6301 30.7601 18.3703 31.1441 18.1194 31.5149L18.1193 31.5149L18.1193 31.5149C18.0453 31.6244 17.9719 31.7327 17.9071 31.8436C17.7277 32.1488 17.3071 32.1715 16.9607 32.0828C16.6143 31.9942 16.406 32.1014 16.237 32.4024C16.1632 32.5342 16.0874 32.6647 16.0117 32.7951L16.0117 32.7951C15.6915 33.3466 15.3723 33.8963 15.2122 34.5282C15.1055 34.9453 14.9806 35.3576 14.8557 35.7697L14.8557 35.7698C14.7972 35.9628 14.7388 36.1556 14.6823 36.3489L14.8142 36.3881L15.3586 34.7427L15.6184 35.0788L15.7607 35.0561C15.3358 34.6203 15.5495 34.2602 15.7572 33.9104C15.7844 33.8647 15.8114 33.8191 15.8369 33.7736C16.0617 33.3756 16.3153 32.9921 16.5751 32.6169C16.61 32.5652 16.6885 32.5428 16.7676 32.5203C16.8052 32.5096 16.8429 32.4989 16.8761 32.4849C16.8667 32.5126 16.858 32.5406 16.8492 32.5686L16.8492 32.5686C16.8273 32.6387 16.8054 32.7088 16.773 32.7736C16.7349 32.8513 16.6884 32.9249 16.6417 32.9988C16.6228 33.0287 16.6038 33.0587 16.5854 33.089C16.776 33.1348 16.8835 33.0056 16.9952 32.8713C17.1348 32.7034 17.2809 32.5277 17.604 32.6767C17.5168 32.8188 17.43 32.9595 17.3439 33.0991L17.3436 33.0994L17.3436 33.0995L17.3435 33.0997C17.0874 33.5146 16.8368 33.9206 16.5978 34.3324C16.5482 34.416 16.5327 34.5201 16.5171 34.6245C16.51 34.672 16.5029 34.7196 16.4926 34.7654C16.4833 34.8058 16.4744 34.8466 16.4655 34.8874C16.4431 34.9903 16.4205 35.0939 16.3895 35.1942C16.3677 35.265 16.3387 35.3347 16.3098 35.4042C16.2596 35.525 16.2096 35.6452 16.1978 35.7695C16.1804 35.957 16.1838 36.1465 16.1873 36.336C16.19 36.4842 16.1926 36.6324 16.1854 36.7798C16.1813 36.8561 16.0782 36.9943 16.0287 36.9922C15.9318 36.986 15.7771 36.918 15.7545 36.8438C15.7367 36.7864 15.7158 36.7292 15.6948 36.6719C15.6012 36.4161 15.5066 36.1574 15.6885 35.8644C15.728 35.8022 15.6786 35.6859 15.6289 35.5691C15.6061 35.5154 15.5832 35.4615 15.5689 35.4128L15.4576 35.4396C15.4576 35.5558 15.4588 35.6718 15.46 35.7877V35.7877C15.463 36.0687 15.466 36.349 15.4514 36.6293C15.4501 36.6568 15.4475 36.6839 15.4449 36.7101C15.4311 36.8532 15.4198 36.971 15.6411 36.9902C15.6617 36.9922 15.6967 37.1036 15.6864 37.1572C15.5586 37.784 15.8906 38.2252 16.2699 38.6541C16.3103 38.7 16.3299 38.7637 16.3499 38.8281C16.3595 38.8592 16.3692 38.8905 16.3813 38.9201C16.3529 38.9163 16.3219 38.9154 16.2909 38.9145C16.2206 38.9125 16.15 38.9105 16.1071 38.8747C16.0069 38.7921 15.9134 38.696 15.8203 38.6001C15.6508 38.4258 15.4823 38.2525 15.2761 38.1634C14.985 38.0365 14.8297 37.8128 14.6751 37.5903C14.5911 37.4692 14.5072 37.3484 14.4019 37.2438C13.9091 36.753 13.5462 36.2025 13.4822 35.487C13.4768 35.4252 13.42 35.3689 13.356 35.3053C13.3238 35.2734 13.2899 35.2397 13.2596 35.2025L13.4946 35.0417C13.3523 34.2911 13.3833 33.5901 13.9441 32.9797C14.0656 32.8473 14.1653 32.6898 14.2641 32.5335C14.407 32.3078 14.548 32.0848 14.7503 31.9447C15.4369 31.4684 16.1916 31.0828 16.9421 30.7117C17.2405 30.564 17.5653 30.4703 17.89 30.3766C18.0095 30.3421 18.1291 30.3076 18.2473 30.2704C18.3201 30.2476 18.3969 30.2396 18.4824 30.2306H18.4824ZM24.6949 33.5014L24.7093 33.5447L24.7073 33.5488L25.1073 33.4313L24.9939 34.0561L24.8021 34.1468L24.9155 34.188L24.8042 34.953L24.332 35.0375C24.3423 35.1235 24.3521 35.2039 24.3619 35.284C24.3738 35.3808 24.3856 35.477 24.398 35.5819L24.7073 35.52L24.7246 35.5496L24.7252 35.5506C24.8081 35.6919 24.8793 35.8133 24.9506 35.9365C25.031 35.8169 25.1114 35.6973 25.2104 35.5509C25.53 35.5654 25.5485 35.5839 25.6619 36.0932C25.3031 36.1571 24.9485 36.2211 24.532 36.2974C24.5557 36.3198 24.5804 36.3491 24.6055 36.3789C24.6633 36.4475 24.7234 36.5188 24.7794 36.5159C25.0076 36.5041 25.2337 36.4682 25.4749 36.4298L25.475 36.4298L25.4751 36.4298C25.5717 36.4144 25.6707 36.3987 25.7733 36.384L25.7762 36.4066C25.8086 36.6602 25.852 36.9995 26.2063 37.1737C26.2282 37.1847 26.2228 37.2515 26.2167 37.3259L26.2167 37.326C26.2136 37.3633 26.2104 37.4025 26.2104 37.4376C26.0558 37.3878 25.8999 37.3465 25.746 37.3058L25.746 37.3058C25.4094 37.2167 25.083 37.1303 24.8042 36.9633L24.6897 36.8951C24.2436 36.6299 23.7919 36.3613 23.433 35.9283C23.1814 35.6252 23.0474 35.3571 23.1381 35.0355C23.155 34.9765 23.1715 34.9158 23.1883 34.8541C23.3015 34.4392 23.4259 33.9827 23.7114 33.753C23.8554 33.637 23.9664 33.5001 24.0753 33.3659L24.0753 33.3659C24.1908 33.2234 24.304 33.0839 24.4516 32.9756C24.5732 32.887 24.8227 32.788 24.8866 32.8416C25.0702 32.9962 25.0928 33.2189 24.8454 33.3839C24.8081 33.4083 24.7738 33.4367 24.7396 33.4649L24.7395 33.465C24.7247 33.4773 24.7099 33.4895 24.6949 33.5014ZM21.766 30.8259C21.8653 30.7997 21.9665 30.773 22.0701 30.7446L22.0721 30.7405C22.1361 31.2127 21.9629 31.4746 21.6453 31.4395C21.9196 31.8065 21.4185 32.7076 20.8474 32.8251C20.8412 33.087 20.7422 33.2416 20.4206 33.1736C20.334 33.155 20.1855 33.3035 20.1092 33.4086C19.9587 33.6148 19.8247 33.7138 19.6535 33.4354C19.6286 33.4697 19.607 33.5032 19.5866 33.5347L19.5866 33.5348C19.5446 33.5999 19.5076 33.657 19.4576 33.6973C19.4023 33.741 19.3326 33.7672 19.2629 33.7933C19.234 33.8042 19.2051 33.8151 19.1772 33.8272C19.1759 33.7973 19.1767 33.7667 19.1775 33.7361C19.1792 33.6719 19.181 33.6075 19.1628 33.5488C19.1229 33.4234 19.0731 33.2999 19.0216 33.1722L19.0216 33.1722L19.0216 33.1722C18.9987 33.1152 18.9754 33.0574 18.9525 32.9983C19.0203 32.9491 19.0874 32.8978 19.1547 32.8464C19.3187 32.721 19.484 32.5946 19.6638 32.4952C19.7499 32.4478 19.8541 32.4359 19.9595 32.4238C20.0283 32.4159 20.0977 32.408 20.1628 32.39C20.2515 32.3653 20.3505 32.3179 20.4061 32.2498C20.4694 32.1711 20.5193 32.0818 20.5779 31.9767L20.5779 31.9767L20.578 31.9766C20.6053 31.9277 20.6346 31.8753 20.668 31.8189C20.5513 31.8788 20.4366 31.941 20.3226 32.0028C20.0519 32.1497 19.7851 32.2944 19.5051 32.4004C19.2539 32.4967 18.9682 32.5117 18.6923 32.5262L18.6164 32.5303C18.5772 32.5323 18.4617 32.2952 18.4968 32.2333C18.5978 32.0519 18.7277 31.8251 18.9009 31.7591C19.5111 31.5248 20.1347 31.3246 20.7578 31.1246L20.7578 31.1246C20.8695 31.0887 20.9812 31.0529 21.0927 31.0168C21.311 30.946 21.5333 30.8873 21.766 30.8259ZM22.0146 25.6662L22.0146 25.6661H22.0166L22.0149 25.6674L22.0149 25.6673L22.0146 25.6662ZM22.0149 25.6674L22.0216 25.6924C22.0477 25.7868 22.0724 25.8784 22.0966 25.9682L22.0966 25.9682L22.0967 25.9684C22.1458 26.1506 22.1928 26.325 22.2444 26.4982L22.2517 26.5218C22.2895 26.645 22.3265 26.7685 22.3636 26.892C22.484 27.2937 22.6045 27.6957 22.7527 28.0868C22.8373 28.3074 22.7775 28.4043 22.6002 28.4724L22.4046 28.5472L22.3604 28.5641L22.3603 28.5642L22.3603 28.5642C21.8719 28.7515 21.3832 28.9389 20.8825 29.0907L20.8682 29.0951C20.865 29.0961 20.8617 29.0969 20.8584 29.0976C20.7414 29.1227 20.5434 28.989 20.4391 28.8786C20.4364 28.8757 20.4337 28.8726 20.4312 28.8693C20.4034 28.8343 20.3858 28.7765 20.3796 28.7153C20.3718 28.6417 20.3801 28.5635 20.4061 28.5137L20.4776 28.3771C20.821 27.7214 21.1722 27.0715 21.5247 26.4216L21.6828 26.13L21.8783 25.7693C21.8889 25.7508 21.9096 25.7373 21.9444 25.7149C21.9634 25.7026 21.9867 25.6875 22.0147 25.6674L22.0148 25.6675L22.0149 25.6674ZM54.6454 33.3453C54.6843 33.3322 54.7179 33.3209 54.741 33.3097C54.8134 33.3465 54.8831 33.3818 54.9508 33.416L54.951 33.4161C55.201 33.5425 55.4216 33.6539 55.6358 33.7756C55.6777 33.7985 55.7032 33.8471 55.729 33.8964C55.7452 33.9273 55.7616 33.9585 55.7822 33.9839C55.8352 34.0501 55.8915 34.1146 55.9692 34.2035L55.9694 34.2037L55.9695 34.2038L55.9699 34.2043C56.0131 34.2537 56.0629 34.3107 56.1224 34.3798C56.1513 34.1633 56.1657 34.0623 56.1802 33.9612L56.2173 33.6746C56.251 33.6849 56.2853 33.6939 56.3197 33.7028C56.3884 33.7207 56.4571 33.7385 56.5204 33.7674C56.5731 33.7916 56.619 33.8306 56.6702 33.8742C56.693 33.8937 56.717 33.914 56.7431 33.9344C56.1678 34.5097 56.1387 35.2152 56.1094 35.9236C56.1028 36.0836 56.0962 36.2437 56.0833 36.4025C56.0143 36.2378 55.9458 36.0736 55.8774 35.9095L55.8748 35.9033C55.807 35.7407 55.7392 35.578 55.6709 35.4149C55.6667 35.4041 55.6626 35.393 55.6585 35.3818C55.6404 35.3327 55.6216 35.2814 55.5863 35.2478C55.5103 35.1735 55.4356 35.0977 55.361 35.0219L55.3608 35.0217L55.3606 35.0214C55.156 34.8137 54.9519 34.6065 54.7224 34.4313C54.2461 34.0664 54.1038 34.0829 53.0894 34.3901C53.0873 33.6787 53.1904 33.5385 53.811 33.4086C53.8329 33.4451 53.8525 33.487 53.8719 33.5285C53.959 33.7146 54.0425 33.8929 54.3038 33.5406C54.3816 33.4339 54.5349 33.3824 54.6454 33.3453ZM24.6187 28.4869L24.6198 28.4861L24.6207 28.4889C24.9322 28.2587 25.23 28.0378 25.5229 27.8204C25.7495 27.6522 25.9732 27.4862 26.198 27.3198L26.1959 27.3179L26.1961 27.3177C25.5775 26.7569 24.8641 26.5734 24.0331 26.6208C24.1877 27.1117 24.3362 27.5853 24.4861 28.0636L24.6187 28.4869ZM21.0704 35.9919L21.0704 35.992C21.0073 36.0566 20.9407 36.1248 20.8742 36.1819L20.668 35.9283C20.7368 35.8677 20.7706 35.7786 20.8045 35.6893C20.8639 35.5326 20.9236 35.3755 21.1732 35.3716C21.1938 35.3716 21.235 35.1922 21.2268 35.0994C21.2127 34.9462 21.1872 34.795 21.1567 34.6144L21.1567 34.6143C21.1424 34.5299 21.1271 34.439 21.1113 34.3385C21.0743 34.3705 21.0349 34.3992 20.997 34.4269C20.9124 34.4886 20.8352 34.5449 20.8082 34.619C20.7823 34.6906 20.8172 34.7859 20.8514 34.879C20.8634 34.9119 20.8753 34.9445 20.8845 34.9757C20.9028 35.0397 20.9278 35.1014 20.9529 35.1634L20.9529 35.1634L20.953 35.1634C20.9618 35.1853 20.9707 35.2072 20.9793 35.2293C20.9513 35.2293 20.9223 35.2318 20.8933 35.2342L20.8933 35.2342C20.8304 35.2396 20.7676 35.2449 20.7154 35.2252C20.3731 35.0953 20.0474 35.2602 19.936 35.6128L19.9346 35.6171C19.8628 35.8408 19.7833 36.0884 19.4473 35.9819C19.5133 35.2891 19.9504 34.8746 20.4597 34.5097C20.4659 34.5053 20.4731 34.5014 20.4802 34.4974L20.4802 34.4974C20.4969 34.4881 20.5138 34.4787 20.5195 34.4643C20.6989 33.988 20.9711 33.9983 21.4 34.1983C21.6845 34.3303 21.8556 34.4293 21.8371 34.7509C21.8319 34.8374 21.8318 34.925 21.8316 35.0125C21.8314 35.1692 21.8311 35.3259 21.802 35.4767C21.767 35.6705 21.7051 35.8644 21.3835 35.7654C21.3129 35.7433 21.1988 35.8602 21.0704 35.9919ZM24.6703 31.9595C24.5223 32.1081 24.3702 32.2608 24.132 32.2705C24.0722 31.8952 24.1031 31.623 24.4928 31.4333C25.0327 31.1699 25.5593 30.8821 26.1006 30.5863L26.1006 30.5863L26.1007 30.5863C26.3305 30.4607 26.5629 30.3337 26.8001 30.2065V31.023L26.3403 31.2106C26.3479 31.2644 26.3571 31.3129 26.3656 31.3577C26.3825 31.4468 26.3966 31.5214 26.3898 31.5942C26.3831 31.6694 26.3562 31.742 26.3206 31.8382L26.3206 31.8382C26.3016 31.8896 26.2801 31.9478 26.2578 32.0168C26.2295 31.9942 26.1985 31.9735 26.1679 31.953C26.0983 31.9064 26.0308 31.8613 26.0021 31.7983C25.9695 31.7273 25.9691 31.6397 25.9686 31.5415V31.5415C25.9684 31.4971 25.9682 31.4506 25.965 31.4024C25.927 31.4035 25.8863 31.4015 25.844 31.3993H25.844H25.844C25.6525 31.3897 25.4308 31.3786 25.299 31.6539C25.2949 31.6643 25.2846 31.6849 25.2805 31.6849C25.0017 31.6267 24.8387 31.7905 24.6703 31.9595ZM22.4309 30.1055L22.4577 30.2168H22.4598C21.3175 30.5962 20.1731 30.9756 19.0329 31.3529C18.936 30.9158 19.3649 30.3756 19.804 30.3405C20.1408 30.3136 20.4755 30.2642 20.8102 30.2148L20.8103 30.2148C21.0657 30.177 21.3211 30.1393 21.5773 30.1116C21.7729 30.0902 21.9704 30.0955 22.1679 30.1008H22.1679H22.168C22.2557 30.1031 22.3434 30.1055 22.4309 30.1055ZM45.5284 44.7429C45.7799 44.7305 45.8583 44.78 46.0005 45.1326V45.1347C45.9028 45.1435 45.8084 45.1546 45.7163 45.1655L45.7161 45.1655L45.7161 45.1655C45.5072 45.1902 45.3106 45.2134 45.116 45.2048C44.9758 45.1986 44.8026 45.1017 44.7201 44.9903C44.6768 44.9326 44.7675 44.7058 44.8582 44.6419C44.9093 44.6054 45.0069 44.633 45.1034 44.6602C45.1433 44.6715 45.1829 44.6827 45.2191 44.6893C45.2523 44.6953 45.2856 44.7034 45.3189 44.7116C45.3887 44.7286 45.4585 44.7457 45.5284 44.7429ZM59.9461 32.3737C60.2442 32.4316 60.5195 32.4846 60.7833 32.5354L60.7855 32.5358C61.0096 32.579 61.2255 32.6206 61.4401 32.6622L61.4362 32.6533C61.3179 32.3819 61.1986 32.1083 60.805 32.1735C60.7535 32.1818 60.6689 32.1179 60.6298 32.0663C60.4772 31.8622 60.2896 31.8828 60.1328 32.021C60.0655 32.0797 60.029 32.1723 59.9937 32.2621C59.9784 32.3008 59.9634 32.339 59.9461 32.3737ZM26.5209 32.2526C26.3026 32.4338 26.107 32.5965 25.9114 32.7612C25.8838 32.7847 25.8511 32.808 25.8181 32.8315C25.7351 32.8905 25.6507 32.9505 25.6434 33.0169C25.6385 33.0694 25.619 33.1256 25.599 33.1833C25.5428 33.3451 25.4827 33.5181 25.732 33.6519C25.7599 33.6114 25.7846 33.5694 25.8086 33.5285C25.8592 33.4425 25.9068 33.3614 25.9753 33.3097C26.0719 33.2358 26.1237 33.1304 26.1761 33.0238C26.2523 32.8686 26.3298 32.7109 26.5485 32.6437C26.818 32.5614 26.6853 32.3539 26.5209 32.2526ZM55.4729 43.4006L55.1905 43.1697C54.9265 43.5635 54.8049 43.5697 54.4172 43.2212C54.6358 42.9449 54.9059 42.7016 55.2606 42.7882C55.357 42.8123 55.4232 42.9671 55.4893 43.1218C55.5194 43.1921 55.5494 43.2623 55.5822 43.3202L55.4729 43.4006ZM23.875 22.0811C23.8748 22.0816 23.8745 22.0821 23.8742 22.0826L24.0062 22.1712C24.2928 21.8042 24.5794 21.4372 24.864 21.0702V21.0682C24.864 21.0682 24.864 21.0682 24.864 21.0682V21.0661L24.8083 20.9424C24.7641 20.9554 24.7128 20.9641 24.6613 20.9728C24.5494 20.9917 24.4369 21.0108 24.3959 21.0743C24.2477 21.3072 24.1273 21.5578 24.0069 21.8083C23.9631 21.8994 23.9193 21.9904 23.8743 22.0806L23.875 22.0811ZM17.2215 38.1417C17.2702 38.2087 17.3195 38.2766 17.371 38.3448H17.3731C17.3559 38.3627 17.3398 38.3834 17.3246 38.403L17.3245 38.403L17.3245 38.403C17.2942 38.4421 17.2672 38.4768 17.2411 38.4768C17.1586 38.4727 17.0638 38.4479 17.004 38.3964C16.8411 38.2562 16.6782 38.1118 16.5524 37.9428C16.5126 37.8887 16.512 37.8043 16.5114 37.7199C16.5112 37.6819 16.5109 37.6439 16.5071 37.6087C16.5413 37.6125 16.58 37.6124 16.619 37.6123H16.619H16.619C16.7067 37.6121 16.7956 37.6119 16.837 37.6561C16.9764 37.8045 17.0967 37.97 17.2215 38.1417ZM23.4973 36.189L23.498 36.1898C23.651 36.3659 23.8037 36.5418 23.9712 36.7365C23.3402 36.7469 23.165 36.5303 23.2247 35.8747C23.3175 35.9819 23.4072 36.0852 23.4968 36.1884L23.4973 36.189ZM51.5326 43.5635C51.7698 43.5016 51.9471 43.4542 52.176 43.3924L52.2063 43.6203C52.2239 43.7511 52.2415 43.8831 52.2626 44.046L51.8513 43.7741L51.5326 43.5635ZM18.3401 39.2046C17.8102 39.2583 17.5215 38.9593 17.5091 38.5469L17.7728 38.7557C17.9402 38.8883 18.1247 39.0345 18.3401 39.2046ZM59.7617 32.2684L59.5926 32.3426V32.3406L59.3101 31.8354L59.572 31.7364C59.6039 31.825 59.6354 31.9136 59.6668 32.0022L59.6669 32.0024C59.6983 32.0911 59.7297 32.1797 59.7617 32.2684ZM67.065 35.0107C67.0217 34.7489 66.9784 34.487 66.9309 34.1901V34.188C67.3171 34.3473 67.2613 34.5756 67.2064 34.8005L67.2064 34.8005C67.191 34.8638 67.1756 34.9269 67.1701 34.988L67.065 35.0107ZM25.4248 34.0004L25.2619 34.0086V34.0066V33.4684L25.4248 33.4622V34.0004ZM17.8927 37.685C18.2556 37.4025 18.2576 37.3221 17.8927 37.0417V37.685Z" fill="#0D1853"/>
<path d="M17.3719 38.3449C17.3203 38.4006 17.2791 38.479 17.2399 38.4769C17.1595 38.4748 17.0626 38.448 17.0028 38.3965C16.842 38.2563 16.6791 38.1119 16.5512 37.9429C16.4914 37.8645 16.5182 37.7222 16.5059 37.6088C16.6193 37.6212 16.776 37.5923 16.8358 37.6563C17.0296 37.8625 17.1863 38.1016 17.3698 38.3449H17.3719Z" fill="#0D1853"/>
<path d="M23.9696 36.7366C23.3386 36.7449 23.1634 36.5284 23.2231 35.8748C23.4747 36.1655 23.7015 36.4294 23.9696 36.7366Z" fill="#0D1853"/>
<path d="M17.8395 34.8582C17.8828 34.7716 17.9282 34.685 17.9715 34.5984C18.0313 34.6335 18.1385 34.6623 18.1447 34.7077C18.157 34.7902 18.124 34.885 18.0911 34.9675C18.0354 35.1015 17.9673 35.2335 17.8952 35.3592C17.889 35.3675 17.7673 35.3283 17.7673 35.3201C17.7838 35.1654 17.8127 35.0128 17.8395 34.8603V34.8582Z" fill="#0D1853"/>
<path d="M52.1741 43.3925C52.2029 43.611 52.2256 43.7904 52.2607 44.0461C51.9803 43.8605 51.7926 43.7368 51.5308 43.5636C51.7679 43.4997 51.9452 43.4523 52.1741 43.3925Z" fill="#0D1853"/>
<path d="M17.5076 38.547C17.7426 38.7346 18.0045 38.9408 18.3385 39.2047C17.8086 39.2604 17.522 38.9593 17.5076 38.547Z" fill="#0D1853"/>
<path d="M59.5908 32.3427L59.3083 31.8376L59.5702 31.7386C59.6341 31.9159 59.696 32.0932 59.7599 32.2706L59.5908 32.3448V32.3427Z" fill="#0D1853"/>
<path d="M66.9294 34.1901C67.4243 34.3943 67.1913 34.7118 67.1686 34.9901L67.0635 35.0128C67.0202 34.751 66.9789 34.4891 66.9294 34.1922V34.1901Z" fill="#0D1853"/>
<path d="M64.0981 31.819C64.1166 31.7488 64.1187 31.6334 64.1579 31.6169C64.2259 31.5921 64.3476 31.6004 64.3929 31.6458C64.4775 31.7303 64.5208 31.854 64.5826 31.9612L64.5187 32.0499C64.3764 31.9695 64.2321 31.8891 64.0898 31.8086L64.0981 31.8169V31.819Z" fill="#0D1853"/>
<path d="M25.2603 34.0088V33.4706L25.4231 33.4644V34.0026L25.2603 34.0108V34.0088Z" fill="#0D1853"/>
<path d="M17.8911 37.6851V37.0418C18.2561 37.3222 18.254 37.4006 17.8911 37.6851Z" fill="#0D1853"/>
<path fill-rule="evenodd" clip-rule="evenodd" d="M58.4019 11.6473C58.4081 10.9587 58.4865 10.2885 59.3257 10.004C58.8494 9.66998 58.5174 9.28852 58.4535 8.74006C58.4205 8.4452 58.4019 8.14829 58.4019 7.85344C58.3988 7.08025 58.3988 6.30707 58.3988 5.53388C58.3988 4.76064 58.3988 3.9874 58.3957 3.21415C58.3937 2.58939 58.2267 2.37289 57.6267 2.24506C55.7771 1.85123 53.9276 1.45947 52.076 1.08214C51.3358 0.931623 50.977 1.25122 50.9749 2.00588C50.9732 2.4591 50.9704 2.91215 50.9676 3.36513C50.9607 4.49691 50.9537 5.62824 50.9626 6.76063C50.9667 7.41219 50.7605 7.87818 50.0801 8.05138C50.8306 8.79573 50.9729 9.138 50.9729 10.1937V14.7938C50.9729 15.6619 51.4409 16.2062 52.3069 16.3588C52.4337 16.381 52.5607 16.4026 52.6876 16.4243C53.0684 16.4892 53.4492 16.5542 53.8266 16.633C54.2592 16.7241 54.6906 16.8201 55.1219 16.9162C55.7945 17.066 56.4671 17.2158 57.1442 17.3464C58.0122 17.5155 58.3957 17.1815 58.3957 16.3237C58.3964 15.8041 58.396 15.2845 58.3955 14.7649C58.3946 13.7257 58.3937 12.6865 58.4019 11.6473ZM55.9498 15.1137C55.9702 15.051 55.9751 14.9571 55.9751 14.8227V10.4205C55.9751 9.89939 55.9747 9.37826 55.9743 8.8571C55.9731 7.29355 55.972 5.7297 55.9812 4.16469C55.9833 3.7853 55.841 3.5956 55.472 3.52756C55.1757 3.47236 54.8812 3.40669 54.5866 3.34099C54.342 3.28644 54.0973 3.23186 53.8513 3.18322C53.5831 3.13009 53.4732 3.11576 53.4284 3.21884C53.3995 3.2838 53.397 3.39594 53.397 3.57499V8.90296V8.90502C53.397 9.37837 53.3976 9.85187 53.3982 10.3254C53.3998 11.628 53.4014 12.931 53.3908 14.233C53.3905 14.2972 53.3944 14.356 53.4028 14.4096C53.4173 14.5038 53.446 14.5819 53.4908 14.6457C53.5716 14.7619 53.7045 14.8317 53.9001 14.866C54.3314 14.9428 54.7602 15.0299 55.1894 15.1172C55.3019 15.14 55.4144 15.1629 55.527 15.1856C55.7994 15.2415 55.9081 15.2453 55.9498 15.1137Z" fill="#0D1853"/>
<path fill-rule="evenodd" clip-rule="evenodd" d="M71.6738 13.2309C71.6738 13.9979 71.5521 14.1608 70.7789 14.3979H70.7769C71.4697 14.9979 71.6738 15.7443 71.6738 16.5774C71.6731 17.0965 71.6752 17.6156 71.6772 18.1346C71.6816 19.2525 71.686 20.3701 71.6635 21.4867C71.6449 22.3837 72.0222 22.9569 72.8037 23.3651C73.6821 23.8229 74.5316 24.3363 75.3728 24.858C75.7855 25.1157 76.1862 25.3928 76.5871 25.6701C76.8533 25.8541 77.1195 26.0382 77.3894 26.2168C77.6801 26.4085 78.008 26.5013 78.3399 26.3322C78.6371 26.1798 78.6351 25.8971 78.633 25.6192C78.6329 25.5963 78.6327 25.5735 78.6327 25.5508C78.6322 25.1734 78.6307 24.7959 78.6292 24.4185C78.6249 23.3402 78.6206 22.2619 78.6389 21.1836C78.6395 21.145 78.6399 21.1061 78.6403 21.067C78.6463 20.4571 78.6526 19.8078 79.575 19.6702C78.7441 19.0125 78.6286 18.1588 78.6286 17.2578C78.6303 16.6261 78.6295 15.9948 78.6288 15.3635C78.6277 14.4617 78.6267 13.5601 78.6327 12.6577C78.6389 11.9401 78.3709 11.3772 77.7543 11.0061C77.6991 10.9729 77.6439 10.9397 77.5886 10.9066C76.0439 9.97892 74.5006 9.05207 72.9419 8.14829C72.2037 7.71941 71.6738 8.04932 71.6738 8.90088V13.2309ZM73.9754 17.631C73.9751 17.2192 73.9749 16.8075 73.9749 16.3959C73.9749 16.038 73.9747 15.6802 73.9745 15.3224C73.9738 14.0705 73.973 12.8193 73.9811 11.5669C73.9811 11.4061 74.0305 11.1649 74.1378 11.1051C74.2287 11.0543 74.4057 11.1089 74.5441 11.1757C74.5696 11.1878 74.5939 11.2002 74.6163 11.2123C74.8029 11.3159 74.983 11.4306 75.163 11.5452C75.3629 11.6724 75.5626 11.7996 75.7709 11.9113C76.2246 12.1526 76.3813 12.5031 76.3771 13.0103C76.3648 14.9899 76.3663 16.9706 76.3679 18.9507C76.3684 19.6106 76.3689 20.2704 76.3689 20.9301C76.3689 21.0886 76.3692 21.2469 76.3696 21.4052C76.3704 21.8008 76.3712 22.1958 76.3668 22.592C76.3616 22.9317 76.2813 23.03 76.0514 22.933C76.0085 22.9153 75.9605 22.8909 75.9069 22.86C75.7289 22.7569 75.5516 22.6524 75.3742 22.548C75.0196 22.339 74.6649 22.1301 74.3048 21.9321C74.0573 21.796 73.9707 21.6166 73.9707 21.3404C73.9769 20.1045 73.9762 18.8675 73.9754 17.631Z" fill="#0D1853"/>
<path fill-rule="evenodd" clip-rule="evenodd" d="M69.9459 21.8353C69.9474 21.836 69.9489 21.8366 69.9504 21.8373H69.9463C69.9461 21.8366 69.946 21.836 69.9459 21.8353ZM69.9459 21.8353C69.9277 21.7455 69.9167 21.6621 69.9065 21.5852C69.8869 21.437 69.8705 21.3127 69.8122 21.2125C68.8658 19.5609 68.2163 17.7898 67.6575 15.9794C67.4725 15.38 67.292 14.7794 67.1102 14.1744C67.0468 13.9636 66.9833 13.7522 66.9194 13.5402C66.9499 13.529 66.9776 13.5183 67.0034 13.5084C67.063 13.4855 67.1123 13.4665 67.1627 13.4536C67.9854 13.2474 68.4988 12.7113 68.7792 11.936C69.1277 10.9731 69.0473 9.9834 68.9339 8.99574C68.7442 7.3689 67.9854 6.06784 66.5338 5.29669C65.7401 4.87258 64.8908 4.54886 64.0443 4.22614C63.8331 4.14563 63.622 4.06518 63.4121 3.98325C62.9311 3.79653 62.4405 3.63698 61.9494 3.4773C61.7247 3.40423 61.4999 3.33114 61.2759 3.2554L61.1687 3.33788C61.21 3.4585 61.2517 3.57861 61.2935 3.69871C61.3352 3.81882 61.377 3.93892 61.4182 4.05954C61.4394 4.12103 61.4667 4.18252 61.494 4.24407C61.5519 4.37449 61.61 4.50521 61.61 4.63688C61.6203 6.24516 61.6223 7.85551 61.5955 9.4638C61.5894 9.95453 61.3935 10.369 60.7563 10.4226C61.5028 10.9525 61.6388 11.6803 61.6388 12.468C61.6384 12.7827 61.6376 13.0974 61.6368 13.4121C61.6338 14.5922 61.6308 15.772 61.6471 16.9506C61.6533 17.3856 61.4945 17.6537 61.1213 17.8475C61.0419 17.8886 60.9839 17.9708 60.9259 18.053C60.8996 18.0902 60.8733 18.1275 60.845 18.1609C60.8828 18.1903 60.9192 18.2233 60.9556 18.2564C61.0342 18.3278 61.1128 18.3993 61.2058 18.4331C61.7659 18.6354 62.3319 18.8259 62.8975 19.0162C63.0753 19.076 63.2531 19.1358 63.4306 19.196C63.6178 19.2598 63.805 19.3207 64.0224 19.3914C64.1211 19.4235 64.226 19.4576 64.3399 19.495C64.3243 19.4354 64.3101 19.3819 64.2972 19.333C64.2572 19.182 64.2288 19.0746 64.2039 18.9671C64.1702 18.8214 64.1298 18.6758 64.0894 18.5303C63.996 18.1939 63.9026 17.8572 63.8925 17.5176C63.8629 16.5207 63.8684 15.5227 63.8738 14.5245C63.8759 14.1311 63.8781 13.7377 63.8781 13.3443V12.8412C63.9948 12.9042 64.1163 12.9398 64.2318 12.9736C64.4716 13.0438 64.6859 13.1065 64.7791 13.3917C65.0199 14.1244 65.2623 14.8566 65.5047 15.5887C65.9409 16.9066 66.3771 18.2242 66.8039 19.5444C66.841 19.6558 66.7606 19.8599 66.6658 19.9506C66.4431 20.1651 66.4286 20.3094 66.7049 20.4311C67.4239 20.7487 68.1458 21.0596 68.9002 21.3844C69.2412 21.5312 69.5889 21.6809 69.9459 21.8353ZM63.8801 6.12994V6.1297L63.8822 6.12763C63.8968 6.13236 63.9114 6.13708 63.926 6.14179C64.9821 6.48279 65.9786 6.80458 66.3874 7.89469C66.7503 8.85966 66.7503 9.86587 66.4204 10.8453C66.3663 11.005 66.2977 11.1364 66.2151 11.2407C65.9737 11.5467 65.61 11.6214 65.1361 11.4906C65.1114 11.4845 65.0866 11.4762 65.0619 11.468L65.0619 11.468C64.2728 11.2068 63.8783 10.6583 63.8783 9.82255V6.13174L63.8801 6.12994Z" fill="#0D1853"/>
<path fill-rule="evenodd" clip-rule="evenodd" d="M51.0145 48.2267C51.0544 48.1253 51.0943 48.0239 51.1394 47.9266V47.9245L51.0775 47.8915L51.0157 47.5513C50.9559 47.2317 50.7827 46.941 50.461 46.9554C50.2177 46.9657 49.9125 47.1307 49.762 47.3245C49.4568 47.7204 49.4094 48.2029 49.6218 48.6751C49.8404 49.1617 50.3785 49.2606 50.7043 48.8421C50.8424 48.6645 50.9285 48.4456 51.0145 48.2267ZM50.725 47.8499C50.7277 47.8689 50.7304 47.8877 50.7332 47.906L50.7352 47.9039C50.7364 48.1535 50.6593 48.3838 50.5433 48.5268C50.4612 48.629 50.359 48.6878 50.2507 48.6792C49.9043 48.6503 49.8465 48.3761 49.8404 48.0915C49.8328 47.8022 49.9476 47.5393 50.1137 47.4244C50.1759 47.3799 50.2455 47.3562 50.3187 47.3596C50.6583 47.3766 50.6942 47.6311 50.725 47.8499Z" fill="#0D1853"/>
<path fill-rule="evenodd" clip-rule="evenodd" d="M43.74 48.9852C43.7668 48.9078 43.7927 48.8328 43.8213 48.7637C43.7972 48.6733 43.7809 48.5869 43.7657 48.5066C43.7355 48.347 43.7098 48.2109 43.6358 48.1122C43.4935 47.9245 43.2667 47.6936 43.0687 47.6854C42.8502 47.6771 42.545 47.8483 42.4151 48.0359C42.1203 48.4627 42.1223 48.9576 42.3677 49.4215C42.6193 49.8998 43.1822 49.9576 43.4976 49.5163C43.6114 49.3565 43.6779 49.1645 43.74 48.9852ZM42.5279 48.7976C42.547 49.1259 42.7468 49.3881 42.9864 49.3823C43.2379 49.3761 43.4462 49.0833 43.4483 48.7245C43.4484 48.7042 43.4478 48.684 43.4466 48.6641C43.4272 48.3296 43.2264 48.0589 42.9925 48.0648C42.8705 48.0679 42.7558 48.1466 42.6707 48.2685C42.5933 48.3785 42.5404 48.5241 42.5288 48.6812C42.5276 48.6969 42.5268 48.7128 42.5265 48.7287C42.5261 48.7519 42.5266 48.7749 42.5279 48.7976Z" fill="#0D1853"/>
<path fill-rule="evenodd" clip-rule="evenodd" d="M40.846 47.7452C40.7136 47.7579 40.5769 47.771 40.4426 47.7493L40.4406 47.7472C40.4406 47.9165 40.44 48.0821 40.4394 48.2451C40.4378 48.6837 40.4362 49.1031 40.4468 49.5225C40.4482 49.5897 40.4904 49.656 40.5329 49.7225C40.553 49.754 40.5731 49.7856 40.589 49.8174C40.6031 49.7933 40.6176 49.7696 40.6321 49.7459C40.6747 49.676 40.717 49.6067 40.7478 49.5328C40.7598 49.5033 40.7574 49.4684 40.7548 49.4334C40.7526 49.4024 40.7504 49.3712 40.7581 49.3431C40.7706 49.2986 40.7964 49.2568 40.8219 49.2154C40.8341 49.1954 40.8464 49.1756 40.8571 49.1555C40.8785 49.1671 40.902 49.1775 40.9255 49.1879C40.9811 49.2125 41.037 49.2372 41.0674 49.2792C41.1012 49.3262 41.1243 49.3817 41.1473 49.4368C41.1747 49.5027 41.2019 49.568 41.2468 49.6174C41.3106 49.6884 41.3969 49.7391 41.4826 49.7895C41.5188 49.8107 41.5548 49.8319 41.5891 49.8545L41.6674 49.7679C41.6228 49.6641 41.5777 49.5608 41.5322 49.4564C41.4809 49.3389 41.4291 49.2201 41.3767 49.0978C41.6963 48.7617 41.7953 48.3637 41.5458 47.972C41.3686 47.6952 41.1163 47.7193 40.846 47.7452ZM41.3339 48.4511C41.34 48.3851 41.2685 48.2965 41.1974 48.2082C41.1637 48.1664 41.13 48.1246 41.1047 48.0854V48.0833L40.9397 48.0874C40.9208 48.1197 40.8985 48.1513 40.8763 48.183C40.826 48.2544 40.7759 48.3257 40.7645 48.4029C40.7642 48.4045 40.764 48.4061 40.7637 48.4077C40.7607 48.4278 40.7575 48.4494 40.7547 48.4716C40.7367 48.6152 40.7399 48.788 40.9705 48.7472C41.1107 48.7225 41.2983 48.5885 41.3313 48.4668C41.3327 48.4617 41.3336 48.4565 41.3339 48.4511Z" fill="#0D1853"/>
<path fill-rule="evenodd" clip-rule="evenodd" d="M27.3461 47.6368C27.3495 47.6107 27.3523 47.5885 27.3552 47.5719C27.3532 47.0482 27.2397 46.6606 26.8954 46.3801C26.5552 46.1018 26.1717 46.1946 25.9737 46.5863C25.7284 47.075 25.881 47.8668 26.2892 48.2173C26.6542 48.5307 27.114 48.4194 27.2769 47.9658C27.3194 47.8477 27.3354 47.7213 27.3461 47.6368ZM26.663 46.6791C26.5912 46.6507 26.3603 46.6957 26.349 46.7389L26.3478 46.7436C26.278 47.0021 26.2028 47.2807 26.2356 47.5389C26.2642 47.768 26.4368 48.0497 26.7213 47.9578C26.7237 47.9571 26.7261 47.9563 26.7285 47.9555C26.8428 47.9164 26.925 47.7833 27.0178 47.633C27.0624 47.5608 27.1094 47.4847 27.1636 47.4132C27.1173 47.3409 27.0742 47.2713 27.0328 47.2044C26.9695 47.1023 26.91 47.0063 26.849 46.9161C26.799 46.8418 26.7479 46.7717 26.6926 46.7056C26.6881 46.7002 26.6836 46.6948 26.679 46.6894C26.6754 46.6853 26.6699 46.6818 26.663 46.6791Z" fill="#0D1853"/>
<path fill-rule="evenodd" clip-rule="evenodd" d="M62.9319 44.5578C62.9845 44.4451 63.0371 44.3324 63.0921 44.2214H63.0962C63.0655 44.1352 63.0427 44.0486 63.0207 43.9653C62.9494 43.6953 62.8871 43.4589 62.5972 43.3801C62.2467 43.2853 62.0281 43.5554 61.8611 43.8234C61.6157 44.2172 61.4941 44.6564 61.6116 45.11C61.659 45.2956 61.8116 45.5265 61.9724 45.5863C62.1106 45.6358 62.4075 45.5224 62.4941 45.3884C62.6655 45.1283 62.7988 44.8429 62.9319 44.5578ZM62.4361 43.8073C62.4355 43.8065 62.4349 43.8057 62.4343 43.8049C62.3895 43.837 62.338 43.8665 62.2864 43.896C62.1694 43.9629 62.0523 44.0298 62.0137 44.1286C61.9209 44.3657 61.89 44.6482 61.9126 44.9059C61.9213 44.9994 61.9566 45.0712 62.0065 45.1177C62.1116 45.218 62.2837 45.2046 62.4077 45.0441C62.5136 44.9075 62.5837 44.7426 62.6607 44.5615C62.6976 44.4748 62.7361 44.3843 62.7809 44.2915H62.7829C62.7653 44.267 62.748 44.243 62.731 44.2194C62.6424 44.0947 62.5611 43.9812 62.4802 43.8686C62.4656 43.848 62.4511 43.8275 62.4365 43.8069C62.4364 43.807 62.4362 43.8072 62.4361 43.8073Z" fill="#0D1853"/>
<path fill-rule="evenodd" clip-rule="evenodd" d="M39.8731 48.2977C39.8112 47.8049 39.5411 47.6833 38.6586 47.776L38.6566 47.7781C38.6566 47.9195 38.6564 48.06 38.6562 48.1997C38.6555 48.6856 38.6548 49.1628 38.6628 49.64C38.6642 49.6814 38.7092 49.7219 38.7538 49.762C38.7736 49.7798 38.7933 49.7975 38.8092 49.8153C38.8251 49.796 38.844 49.7777 38.8628 49.7594C38.9024 49.7208 38.9416 49.6827 38.9514 49.6379C38.9708 49.5409 38.9729 49.4407 38.975 49.3442C38.9758 49.3074 38.9765 49.2712 38.9782 49.2359C39.7535 49.1204 39.9515 48.906 39.8731 48.2977ZM38.9885 48.8173V48.0668C38.9886 48.0668 38.9887 48.0668 38.9888 48.0669V48.0668C39.0556 48.0941 39.1191 48.1166 39.1786 48.1376C39.312 48.1848 39.4256 48.225 39.5125 48.2977C39.5151 48.2999 39.5176 48.3025 39.5199 48.3055C39.5586 48.353 39.5636 48.4923 39.5403 48.5753C39.5328 48.6027 39.5221 48.624 39.5084 48.6338C39.4861 48.6496 39.4624 48.6634 39.4375 48.6757C39.3562 48.7162 39.262 48.7414 39.1596 48.7687C39.1077 48.7826 39.0537 48.797 38.9983 48.8142C38.9951 48.8153 38.992 48.8163 38.9888 48.8173V48.8172C38.9887 48.8173 38.9886 48.8173 38.9885 48.8173Z" fill="#0D1853"/>
<path d="M16.4021 31.6149C15.6763 32.1757 14.9237 32.7139 14.534 33.5778C14.1381 34.4582 14.2825 35.3799 14.2618 36.314C14.2289 36.3036 14.1154 36.2933 14.1093 36.2603C14.0392 35.9016 13.9959 35.5387 13.9237 35.1799C13.8825 34.9758 13.8041 34.782 13.7319 34.549L13.9031 34.5304C13.9361 34.2582 13.9361 33.984 14.0082 33.7304C14.167 33.1778 14.4 32.6932 14.9732 32.4005C15.4433 32.1613 15.8413 31.786 16.2722 31.4705L16.4 31.6128L16.4021 31.6149Z" fill="#0D1853"/>
</svg>
