<svg width="80" height="80" viewBox="0 0 80 80" fill="none" xmlns="http://www.w3.org/2000/svg">
<path fill-rule="evenodd" clip-rule="evenodd" d="M12.9539 42.2912H11.5934V49.1558H9.01416V30.0731H13.2419C17.2703 30.0731 19.8185 32.2446 19.8185 36.0647C19.8185 39.1358 17.8464 42.2912 12.9539 42.2912ZM13.0115 32.3554H11.5934V40.0886H13.1577C15.9098 40.0886 17.1285 38.4711 17.1285 36.0913C17.1285 33.8888 15.737 32.3554 13.0159 32.3554H13.0115Z" fill="#0D1853"/>
<path fill-rule="evenodd" clip-rule="evenodd" d="M21.9497 30.0687H24.4492V49.1557H21.9497V30.0687Z" fill="#0D1853"/>
<path fill-rule="evenodd" clip-rule="evenodd" d="M64.3387 49.4439C62.0209 49.4439 60.4565 48.6063 59.4373 47.8529L60.4787 45.8542C61.2099 46.4614 62.5882 47.2458 64.2544 47.2458C65.7435 47.2458 67.4851 46.4614 67.4851 44.5779C67.4851 41.4492 63.9088 40.6337 61.8215 38.0856C61.0947 37.217 60.6249 36.1179 60.6249 34.6377C60.6249 31.9167 62.4995 29.7408 65.7878 29.7408C67.6092 29.7408 68.3449 30.4144 69.178 30.8797L69.1558 33.4279C68.1144 32.7055 67.299 31.9743 65.8942 31.9743C64.3032 31.9743 62.9737 32.6967 62.9737 34.3763C62.9737 38.3736 69.9624 38.5243 69.9624 44.312C69.9624 47.4142 67.5117 49.4394 64.3342 49.4394L64.3387 49.4439Z" fill="#0D1853"/>
<path fill-rule="evenodd" clip-rule="evenodd" d="M56.9024 32.9537C56.9024 32.9537 60.1242 31.9477 60.1242 27.5205L60.1863 27.1172C60.1863 25.8055 59.1227 24.7419 57.8109 24.7419C56.4991 24.7419 55.4355 25.8055 55.4355 27.1172C55.4355 28.429 56.4947 29.4926 57.8109 29.4926C57.8109 29.4926 58.3072 29.7364 58.2098 30.0377C58.1078 30.3391 57.9084 31.2475 56.9024 32.9582V32.9537Z" fill="#0D1853"/>
<path fill-rule="evenodd" clip-rule="evenodd" d="M40.8028 49.0538L36.0742 29.9402L33.6589 37.7842L31.2437 29.9402L26.5151 49.0538H29.2317L31.3501 40.8021L33.6589 49.0538L35.9767 40.904L38.0862 49.0538H40.8028Z" fill="#0D1853"/>
<path fill-rule="evenodd" clip-rule="evenodd" d="M56.6987 49.0538L51.9701 29.9402L49.5593 37.7842L47.1397 29.9402L42.4155 49.0538H45.1321L47.2416 40.8021L49.5593 49.0538L51.8726 40.904L53.9865 49.0538H56.6987Z" fill="#0D1853"/>
<path d="M40 0C51.0436 0 61.0459 4.47596 68.2827 11.7173C75.5196 18.9541 80 28.9563 80 40C80 51.0436 75.524 61.0459 68.2827 68.2827C61.0459 75.5196 51.0436 80 40 80C28.9563 80 18.9541 75.524 11.7173 68.2827C4.48039 61.0459 0 51.0436 0 40C0 28.9563 4.47596 18.9541 11.7173 11.7173C18.9541 4.47596 28.9563 0 40 0ZM65.6459 14.3497C59.0826 7.78639 50.0155 3.72701 40 3.72701C29.9845 3.72701 20.9173 7.78639 14.3541 14.3497C7.79083 20.9129 3.73144 29.9801 3.73144 39.9956C3.73144 50.0111 7.79083 59.0782 14.3541 65.6415C20.9173 72.2047 29.9845 76.2641 40 76.2641C50.0155 76.2641 59.0826 72.2047 65.6459 65.6415C72.2092 59.0782 76.2686 50.0111 76.2686 39.9956C76.2686 29.9801 72.2092 20.9129 65.6459 14.3497Z" fill="#0D1853"/>
</svg>
