<svg width="80" height="15" viewBox="0 0 80 15" fill="none" xmlns="http://www.w3.org/2000/svg">
<g clip-path="url(#clip0_1311_45325)">
<path d="M12.8389 13.0171C21.0782 12.229 29.338 11.8393 37.6149 11.7213C46.4919 11.5948 55.3534 11.9077 64.2064 12.5111C66.1055 12.641 67.9996 12.8444 69.8953 13.0136C69.6611 13.4666 69.3004 13.1829 68.9859 13.1709C66.3739 13.041 63.7619 12.923 61.15 12.776C53.6491 12.3538 46.1414 12.2512 38.6286 12.282C30.603 12.3145 22.591 12.6649 14.5842 13.1709C14.3585 13.1846 14.1312 13.1743 13.9038 13.176C13.5397 13.1829 13.138 13.4478 12.8389 13.0188V13.0171Z" fill="#0D1853"/>
<path d="M52.9843 6.24272C52.9843 6.75213 52.9228 7.27178 52.998 7.77093C53.1194 8.55554 52.6681 8.70768 52.1279 8.51281C51.6117 8.32648 51.1963 8.50084 50.7416 8.59486C49.3467 8.88375 48.5416 8.24785 48.5245 6.83247C48.5142 6.06666 48.5194 5.30255 48.4903 4.53845C48.4783 4.20854 48.2852 3.81366 48.8647 3.81879C49.3518 3.82392 49.8886 3.8017 49.9125 4.50255C49.9347 5.12478 49.9245 5.74871 49.9194 6.37264C49.9177 6.68888 49.945 6.99828 50.0818 7.28546C50.3159 7.77093 50.7604 7.73332 51.1877 7.69572C51.6544 7.65298 51.5792 7.27862 51.5741 6.98119C51.5587 6.16067 51.5433 5.34016 51.4835 4.52136C51.4476 4.01879 51.5843 3.77093 52.1296 3.80683C52.5741 3.83589 53.0698 3.69742 52.9912 4.45811C52.9296 5.04614 52.9792 5.64785 52.9792 6.24272H52.9826H52.9843Z" fill="#0D1853"/>
<path d="M75.1597 8.6204C73.9409 8.97766 73.6896 8.88877 73.0606 7.87339C72.852 7.53663 72.6606 7.18792 72.4469 6.85287C72.2572 6.55544 72.2008 6.29561 72.5307 6.04604C72.8384 5.81185 72.8845 5.46826 72.7939 5.12125C72.7119 4.80672 72.4572 4.66997 72.146 4.68022C71.7905 4.69219 71.7734 4.95715 71.7751 5.22723C71.7819 6.13493 71.7478 7.04433 71.8042 7.9486C71.8435 8.5674 71.5067 8.55715 71.0743 8.55373C70.6708 8.55031 70.3734 8.55715 70.3922 7.98792C70.4332 6.77082 70.4059 5.55031 70.3922 4.33151C70.3888 4.04262 70.4247 3.80843 70.7785 3.81527C71.57 3.83065 72.3649 3.69561 73.1529 3.89561C74.1922 4.15715 74.6161 5.13151 73.958 5.97253C73.6213 6.4033 73.7102 6.64262 73.9819 6.97937C74.1956 7.24262 74.3939 7.52125 74.5819 7.80501C74.7649 8.08193 75.0896 8.26313 75.1597 8.6204Z" fill="#0D1853"/>
<path d="M54.5021 6.15903C54.5021 5.59151 54.5483 5.02057 54.4901 4.45818C54.42 3.79151 54.8098 3.68553 55.2525 3.85476C55.7465 4.04451 56.1431 3.93339 56.6149 3.81203C58.0645 3.43767 58.95 4.14878 58.9636 5.62228C58.9705 6.38809 58.979 7.15391 58.9824 7.91972C58.9824 8.19493 59.1807 8.5898 58.6166 8.54878C58.1824 8.5163 57.6303 8.67356 57.5807 7.98809C57.5397 7.42399 57.5773 6.85476 57.5568 6.28724C57.5448 5.95049 57.5158 5.60861 57.4423 5.27869C57.3175 4.7163 56.8713 4.62912 56.3876 4.64792C55.8235 4.67015 55.9038 5.09408 55.9055 5.45647C55.9055 6.30775 55.8816 7.15903 55.9277 8.00861C55.9585 8.60006 55.5995 8.55733 55.2218 8.54878C54.8645 8.54023 54.4594 8.64451 54.4987 8.03083C54.5397 7.41032 54.5072 6.78297 54.5072 6.15903H54.5038H54.5021Z" fill="#0D1853"/>
<path d="M45.1617 8.68529C45.0199 8.68529 44.8728 8.70922 44.7361 8.68016C44.254 8.5793 43.5822 8.60836 43.7378 7.84426C43.8814 7.1417 44.3703 7.80836 44.6899 7.7058C44.8438 7.65623 45.0284 7.71093 45.1993 7.70922C45.5224 7.7058 45.8728 7.68016 45.9293 7.28358C45.9788 6.93657 45.6592 6.81862 45.4028 6.69725C45.0694 6.53999 44.7139 6.42204 44.3925 6.24255C43.4746 5.73144 43.4335 4.56221 44.331 4.02717C45.1019 3.56905 45.9429 3.52631 46.8028 3.78443C47.1993 3.90238 47.2352 4.21007 47.1788 4.53144C47.0934 5.01862 46.7959 4.64426 46.5925 4.6511C46.1122 4.66648 45.4233 4.32631 45.2455 4.94341C45.0916 5.47845 45.7976 5.55195 46.1874 5.71606C46.8831 6.00836 47.4797 6.35195 47.4096 7.23742C47.3378 8.14683 46.6916 8.46135 45.9224 8.62546C45.6746 8.67845 45.4164 8.68871 45.1634 8.71947V8.68358L45.1617 8.68529Z" fill="#0D1853"/>
<path d="M62.0542 3.80846C62.5089 3.80846 62.9636 3.79137 63.4183 3.8153C63.6422 3.82726 64.0115 3.63752 64.0576 4.00162C64.1004 4.33666 63.926 4.7982 63.5448 4.76231C62.3294 4.64607 62.5123 5.44436 62.526 6.16572C62.5346 6.67684 62.4799 7.19478 62.5516 7.69564C62.6593 8.45119 62.338 8.60846 61.6576 8.56572C61.1944 8.53666 60.9995 8.44436 61.0303 7.93837C61.0799 7.14692 61.0286 6.34863 61.0747 5.55718C61.1123 4.94008 60.885 4.72641 60.285 4.84436C60.0491 4.89051 59.7004 5.14008 59.6662 4.61017C59.6422 4.22213 59.7653 3.89735 60.1841 3.87C60.8046 3.82897 61.4303 3.85974 62.0542 3.85974V3.80846Z" fill="#0D1853"/>
<path d="M74.8591 3.92809C76.5634 3.3127 76.8694 4.66655 77.4608 5.72125C77.7087 5.24262 77.9019 4.87852 78.0865 4.51099C78.2455 4.19476 78.4591 3.93835 78.8147 3.84604C79.119 3.76741 79.519 3.67339 79.707 3.89219C79.9275 4.15031 79.5429 4.37424 79.3993 4.59305C78.6865 5.68023 77.8916 6.71099 78.0933 8.15544C78.1822 8.79305 77.5822 8.50758 77.2831 8.53151C77.0762 8.5486 76.6113 8.74689 76.6916 8.22723C76.9463 6.57766 75.9087 5.46655 75.0882 4.25971C75.0249 4.16741 74.9617 4.07681 74.8591 3.9298V3.92809Z" fill="#0D1853"/>
<path d="M12.8385 13.0171C13.1616 13.2786 13.5565 13.0718 13.9035 13.1744C12.8129 13.3915 11.7018 13.3932 10.5992 13.465C10.4864 13.371 10.2932 13.4615 10.2112 13.2957C11.0761 13.0974 11.9582 13.065 12.8402 13.0171H12.8385Z" fill="#0D1853"/>
<path d="M68.9841 13.171C69.285 13.1077 69.6234 13.2599 69.8935 13.0137C70.5192 13.0718 71.1465 13.1282 71.7722 13.1864C71.6764 13.5744 71.4149 13.3641 71.2064 13.3436C70.4611 13.3368 69.7123 13.3829 68.9841 13.1727V13.171Z" fill="#0D1853"/>
<path d="M71.2063 13.3417C71.4012 13.3109 71.62 13.3656 71.7721 13.1844L73.4866 13.3537C73.5242 13.393 73.5362 13.4323 73.5208 13.4699C73.5072 13.5075 73.4935 13.5263 73.4798 13.5263C72.7191 13.5024 71.9499 13.5622 71.2046 13.3434L71.2063 13.3417Z" fill="#0D1853"/>
<path d="M7.36671 13.5281L9.25047 13.3486C9.35132 13.4512 9.5462 13.3589 9.61799 13.523C8.95645 13.7401 8.27269 13.6803 7.59406 13.6957C7.42825 13.7606 7.35303 13.7059 7.365 13.5281H7.36671Z" fill="#0D1853"/>
<path d="M73.4817 13.5249C73.4834 13.4685 73.4851 13.4104 73.4885 13.354C74.109 13.4069 74.7313 13.4616 75.3518 13.5146C75.3757 13.8411 75.1723 13.7317 75.0065 13.6941C74.4988 13.6326 73.974 13.7317 73.4834 13.5249H73.4817Z" fill="#0D1853"/>
<path d="M7.36675 13.528C7.44367 13.5845 7.51889 13.6392 7.59581 13.6956C7.03 13.9246 6.43342 13.8374 5.84709 13.8614C5.66932 13.94 5.64026 13.8528 5.66761 13.7024C6.23342 13.6443 6.79923 13.5879 7.36504 13.5298L7.36675 13.528Z" fill="#0D1853"/>
<path d="M5.66756 13.7008C5.72739 13.7538 5.78722 13.8068 5.84705 13.8598C5.43508 14.0752 5.00602 14.041 4.33765 13.9504C4.92055 13.7863 5.27782 13.67 5.66756 13.7008Z" fill="#0D1853"/>
<path d="M75.0046 13.6956C75.1192 13.6358 75.2354 13.5759 75.3499 13.5161C75.6593 13.4768 75.9687 13.4529 76.2474 13.6409C76.1841 13.8016 75.9961 13.711 75.9021 13.8101C75.5927 13.8494 75.285 13.8785 75.0046 13.6956Z" fill="#0D1853"/>
<path d="M9.61996 13.5229L9.25244 13.3486C9.5721 13.3315 9.89176 13.3127 10.2114 13.2956C10.3413 13.352 10.4695 13.4084 10.5994 13.4648L9.62167 13.5229H9.61996Z" fill="#0D1853"/>
<path d="M77.0559 13.6907C77.3123 13.6462 77.5636 13.6291 77.7807 13.8137C77.7704 13.9197 77.6678 13.9283 77.608 13.9796C77.3567 14.012 77.1037 14.0462 76.8901 13.8582C76.8849 13.7437 77.0029 13.7488 77.0559 13.689V13.6907Z" fill="#0D1853"/>
<path d="M77.0559 13.6905L76.8901 13.858C76.5602 13.8409 76.232 13.8255 75.9021 13.8084C76.0166 13.752 76.1329 13.6956 76.2474 13.6392C76.5175 13.6563 76.7859 13.6734 77.0559 13.6905Z" fill="#0D1853"/>
<path d="M77.6082 13.9813C77.6663 13.9266 77.7227 13.8702 77.7808 13.8155C77.9603 13.836 78.1381 13.8565 78.3979 13.8855C78.0817 14.0873 77.8423 13.9881 77.6064 13.9813H77.6082Z" fill="#0D1853"/>
<path fill-rule="evenodd" clip-rule="evenodd" d="M10.4418 0.16748C11.8588 0.752096 12.252 1.49056 11.8469 2.94184C11.7597 3.25466 11.8589 3.33842 12.0896 3.44611C13.6469 4.17774 13.9888 4.99312 13.04 7.05295C13.2093 7.02277 13.3779 6.99782 13.5443 6.9732L13.5443 6.9732C14.4617 6.83744 15.3134 6.71141 15.8588 5.7709C16.2794 5.0444 16.9358 4.53158 17.7272 4.21193C18.5153 3.89398 19.346 4.10252 19.611 4.68372C19.8947 5.30423 19.5272 5.96919 18.6759 6.33329C18.1678 6.55017 17.6508 6.74506 17.1346 6.93968L17.011 6.98628C16.7871 7.07004 16.5477 7.16064 16.599 7.44098C16.6452 7.68201 16.8845 7.80851 17.1084 7.83586C17.358 7.86663 17.623 7.84782 17.8691 7.79825C19.2759 7.5162 20.5905 7.01705 21.7734 6.17945C22.8691 5.40338 24.0332 4.89227 25.4452 5.27859C26.6554 5.61022 26.7922 5.85637 26.1956 6.96406C26.1416 7.06389 26.0964 7.16776 26.0507 7.27289C26.0299 7.32077 26.009 7.36891 25.9871 7.41705C26.3796 7.66139 26.6747 7.49142 26.9676 7.32273C26.9923 7.30849 27.017 7.29427 27.0418 7.2803C27.2605 7.15765 27.4795 7.03517 27.6984 6.91267C28.4957 6.46661 29.2932 6.0204 30.0845 5.56577C30.6144 5.2615 31.1101 5.22218 31.5426 5.70936C31.8571 6.06321 32.1563 5.97945 32.5204 5.78628C32.9443 5.56235 33.3956 5.38457 33.8486 5.22218C34.2503 5.07859 34.6708 5.10936 34.9289 5.48543C35.2571 5.96235 35.5956 5.87688 36.0247 5.65295C36.5512 5.37774 37.1016 5.14697 37.652 4.91962C38.117 4.72816 38.5853 4.83244 38.9153 5.16577C39.2064 5.46117 39.0415 5.78184 38.885 6.08639C38.8549 6.14488 38.8252 6.20278 38.799 6.25979C38.7751 6.31104 38.7456 6.35974 38.7162 6.40843L38.7161 6.40851L38.7161 6.40859C38.6866 6.45728 38.6571 6.50597 38.6332 6.55722C38.582 6.66658 38.4965 6.77341 38.4118 6.87916C38.245 7.0875 38.0816 7.29163 38.1905 7.50252C38.3006 7.71645 38.5072 7.64496 38.7257 7.56936C38.8599 7.52293 38.9985 7.47495 39.1221 7.49056C39.1606 7.49566 39.2006 7.4977 39.2406 7.49974C39.3748 7.50657 39.509 7.5134 39.5853 7.63586C39.7067 7.83244 39.5956 8.01363 39.4708 8.18116C39.04 8.76064 37.7546 9.01705 37.1324 8.65808C36.5922 8.34697 36.6469 7.87688 36.7751 7.38799C36.804 7.27883 36.8539 7.17524 36.9053 7.06843C37.0148 6.84075 37.1314 6.59846 37.0674 6.25637C36.1204 6.70594 35.2811 7.19996 34.5016 7.80338C34.4517 7.84182 34.4021 7.88138 34.3522 7.92107L34.3521 7.92115C34.1561 8.07735 33.9576 8.23551 33.7341 8.335C33.4127 8.47859 33.0486 8.48714 32.8041 8.16064C32.6159 7.91007 32.7677 7.76496 32.918 7.62122C32.9738 7.56785 33.0294 7.51468 33.0674 7.45637C33.124 7.36953 33.196 7.29277 33.2706 7.21313C33.4532 7.01844 33.652 6.80653 33.6811 6.38799C32.5751 6.74526 31.7306 7.37945 30.8965 8.02902C30.8346 8.07759 30.7762 8.13226 30.7179 8.1869C30.567 8.32841 30.4163 8.4697 30.2041 8.50423L30.1533 8.51292C29.8902 8.55827 29.5958 8.60902 29.4144 8.35381C29.2455 8.117 29.3974 7.88019 29.5314 7.67136L29.5443 7.65124C29.645 7.49286 29.7562 7.34122 29.8813 7.17055L29.8813 7.17052C29.9452 7.08331 30.0128 6.99114 30.0845 6.89056C29.758 6.91798 29.5223 7.06711 29.2966 7.20992L29.2966 7.20994C29.2269 7.25406 29.1581 7.29758 29.0879 7.33671L28.9042 7.43941C28.1233 7.87633 27.3431 8.3129 26.4777 8.57603C25.8965 8.7521 25.358 8.82902 24.9443 8.25637C24.7324 7.96406 24.4879 8.01022 24.1956 8.14526C23.7793 8.33594 23.3506 8.50183 22.9232 8.66721L22.9232 8.66723L22.6999 8.75381C22.1785 8.95722 21.6657 8.88885 21.2503 8.53842C20.7409 8.10936 20.2469 8.15551 19.6674 8.36064C19.0537 8.57774 18.4127 8.72816 17.7751 8.85979C16.7392 9.07175 15.8383 8.84953 15.2606 7.88714C15.0588 7.55039 14.8537 7.50594 14.4947 7.61022C14.1395 7.71308 13.7789 7.79202 13.4186 7.8709C12.4974 8.07255 11.5778 8.27384 10.7546 8.87346C9.93406 9.47175 8.91355 9.39312 8.00244 8.86321C7.56141 8.6068 7.28449 8.24269 7.29817 7.68714C7.32039 6.81534 7.6503 6.54868 8.45714 6.87688C9.05543 7.11962 9.6503 7.22218 10.2879 7.16577C10.9683 7.10594 11.4725 6.78287 11.7751 6.17603C11.7881 6.14987 11.8013 6.12352 11.8147 6.09701C12.0071 5.71457 12.2169 5.29777 11.8093 4.93329C11.3922 4.56235 10.8999 4.4974 10.4024 4.85295C10.1033 5.06834 9.79047 5.26663 9.47765 5.46321C9.11013 5.69398 8.71355 5.8444 8.27252 5.83244C8.18275 5.83019 8.08871 5.83728 7.99422 5.8444H7.99421C7.6569 5.86983 7.31374 5.89569 7.13748 5.4991C6.92552 5.02047 7.21782 4.62047 7.505 4.26321C7.79902 3.8974 8.20244 3.69056 8.65372 3.56919L8.8119 3.52603C9.1154 3.44341 9.41991 3.36052 9.71697 3.2615C10.4435 3.01876 10.7751 2.47859 10.6007 1.8444C10.3734 1.02047 9.79218 1.12133 9.17509 1.29056C7.38876 1.77945 6.06911 2.91278 4.9768 4.34013C4.71737 4.67872 4.46126 5.01981 4.2052 5.36085C3.28355 6.58832 2.36248 7.81502 1.28962 8.92133C0.889618 9.33329 0.501584 9.59654 0.0144043 9.05637V8.20338C0.411261 7.36827 1.02052 6.69442 1.62856 6.02191C1.87432 5.75009 2.11989 5.47848 2.35116 5.19654C3.46911 3.83586 4.5597 2.45466 5.58534 1.02389C5.61563 0.981698 5.6456 0.939165 5.67556 0.896637C5.93814 0.523918 6.20048 0.151549 6.67765 0.0119247H7.36141C7.68278 0.309361 8.03663 0.346967 8.45714 0.222181C8.80415 0.119617 9.17338 0.0649162 9.54603 0.0991042C9.65144 0.108742 9.75771 0.103946 9.86392 0.099152C10.0591 0.0903416 10.2542 0.0815386 10.4435 0.162352L10.4418 0.16748ZM24.8709 6.12824C24.3021 7.00616 23.5417 7.31528 22.7946 7.61899C22.7402 7.64112 22.6858 7.66322 22.6316 7.68551C22.4795 7.74876 22.2812 7.74534 22.1684 7.58465C22.0487 7.41371 22.1667 7.24277 22.2692 7.12653C22.9222 6.39149 23.7427 6.06841 24.8709 6.12653V6.12824ZM17.2686 5.61999C17.1506 5.72768 17.0277 5.83976 16.8935 5.9505C17.4426 6.04291 17.8419 5.84375 18.2275 5.65141C18.3413 5.59469 18.4538 5.53856 18.5687 5.49067C18.7345 5.4223 18.8729 5.30435 18.8251 5.1146C18.7601 4.85478 18.5311 4.89067 18.3447 4.9317C17.9169 5.02848 17.6133 5.30549 17.2686 5.61999Z" fill="#0D1853"/>
<path fill-rule="evenodd" clip-rule="evenodd" d="M69.2307 6.20861C69.2478 4.54707 68.4632 3.74194 66.8136 3.7351L66.8119 3.73339C65.1606 3.72655 64.2649 4.59835 64.2649 6.21715C64.2649 7.81886 65.1469 8.70604 66.7333 8.70091C68.2854 8.69579 69.2136 7.76758 69.2307 6.20861ZM67.6701 7.18133C67.8257 6.86851 67.8616 6.53517 67.8547 6.19329V6.195C67.8521 6.14263 67.8516 6.08976 67.851 6.03692C67.8499 5.919 67.8487 5.80116 67.824 5.68902C67.706 5.14885 67.547 4.64116 66.8428 4.61552C66.1248 4.58987 65.8564 5.02064 65.7128 5.6309C65.5898 6.14885 65.6564 6.64116 65.8445 7.1215C66.0069 7.53517 66.3402 7.70611 66.7812 7.70782C67.1915 7.70953 67.4872 7.54885 67.6701 7.18133Z" fill="#0D1853"/>
</g>
<defs>
<clipPath id="clip0_1311_45325">
<rect width="80" height="14.359" fill="white"/>
</clipPath>
</defs>
</svg>
