<svg width="80" height="24" viewBox="0 0 80 24" fill="none" xmlns="http://www.w3.org/2000/svg">
<path fill-rule="evenodd" clip-rule="evenodd" d="M42.9513 9.01161L42.7558 8.69332C43.0013 9.25715 43.1741 9.84827 43.2696 10.5076C43.3923 11.1942 43.4424 11.858 43.4424 12.5219C43.3923 13.2358 43.2696 13.8951 43.0741 14.509C42.8512 15.1728 42.5602 15.7594 42.1646 16.2505C41.7236 16.7916 41.2052 17.1826 40.5959 17.4281C40.0548 17.6509 39.441 17.7737 38.7044 17.7737C38.0405 17.7237 37.4539 17.5054 36.8901 17.0871C36.4991 16.7916 36.1535 16.4232 35.908 16.0322C36.2035 16.596 36.5946 17.0644 37.1129 17.4554C37.6767 17.8737 38.2679 18.092 38.9272 18.142C39.6411 18.142 40.2776 18.042 40.8187 17.8237C41.4326 17.5555 41.9464 17.1371 42.4147 16.596C42.8058 16.105 43.1013 15.5411 43.2969 14.8773C43.4924 14.2407 43.6151 13.5996 43.6424 12.913C43.6652 12.2491 43.6197 11.5625 43.4969 10.8759C43.3969 10.212 43.2014 9.57544 42.9558 9.01161H42.9513Z" fill="#0D1853"/>
<path fill-rule="evenodd" clip-rule="evenodd" d="M42.7561 8.6933L42.7333 8.67056C42.3878 8.07945 41.9967 7.56564 41.5557 7.17459C41.0419 6.68352 40.5008 6.41525 39.9369 6.33795C39.1503 6.19244 38.441 6.26519 37.7771 6.53346C37.0905 6.80174 36.5494 7.24735 36.1083 7.88393C35.7628 8.39774 35.4718 8.98885 35.2717 9.65272C35.0989 10.2893 34.9761 10.9532 34.9534 11.6398C34.9307 12.3036 34.9761 12.9902 35.0989 13.6768C35.1989 14.3407 35.3945 14.9545 35.64 15.5411L35.9083 16.0322C36.1538 16.4232 36.4994 16.7915 36.8904 17.0871C37.4543 17.5054 38.0454 17.7237 38.7047 17.7737C39.4413 17.7737 40.0551 17.6509 40.5962 17.4281C41.2101 17.1826 41.7239 16.7915 42.165 16.2504C42.556 15.7594 42.8516 15.1682 43.0744 14.5089C43.2699 13.8951 43.3927 13.2312 43.4427 12.5219C43.4427 11.858 43.3927 11.1942 43.2699 10.5076C43.1699 9.84369 43.0016 9.25713 42.7561 8.6933ZM41.4556 7.76116L41.9967 8.57053C42.265 9.11162 42.4878 9.72547 42.6106 10.3848C42.7561 11.0214 42.8061 11.6852 42.7834 12.3991C42.7834 13.0857 42.6606 13.7496 42.4651 14.3862C42.2695 15.0227 41.9967 15.6139 41.6284 16.1049C41.2374 16.6688 40.7463 17.0644 40.1324 17.3053C39.5186 17.5281 38.882 17.6009 38.2182 17.4781C37.7771 17.3781 37.4088 17.1826 37.0405 16.9143C36.7222 16.646 36.4266 16.3505 36.1584 15.9822C35.9356 15.6139 35.74 15.2455 35.5945 14.8045C35.4217 14.4134 35.3263 13.9951 35.299 13.5768L35.1762 12.8629C35.0534 11.808 35.1034 10.8486 35.349 9.96646C35.6673 8.73877 36.3311 7.73388 37.3133 6.99726C37.5588 6.82448 37.8271 6.70171 38.1227 6.60622L39.0321 6.50618L39.9415 6.65169C40.237 6.72444 40.5053 6.87449 40.7781 7.07001L41.4647 7.75661L41.4556 7.76116Z" fill="#0D1853"/>
<path fill-rule="evenodd" clip-rule="evenodd" d="M40.5726 10.4849L40.4271 9.84828C40.2316 9.16168 39.9588 8.54783 39.6178 8.00674L39.2722 7.73846L38.7584 7.68845C38.0445 8.20226 37.6034 8.96616 37.3852 9.99378L37.2124 11.417V12.8675L37.3579 13.9224C37.4079 14.3134 37.4807 14.6363 37.6034 14.9273C37.849 15.6639 38.29 16.155 38.8812 16.4233H38.9312L39.0539 16.4005L39.2767 16.3005L39.595 16.0777H39.6178L39.6405 16.0277L39.7633 15.9276V15.9049L39.8633 15.8049C40.1589 15.2638 40.4044 14.6499 40.5499 13.9633C40.6954 13.2995 40.7454 12.6129 40.7227 11.9035V11.5125L40.5772 10.4803L40.5726 10.4849ZM40.3498 10.0165C40.5454 11.1442 40.5726 12.1764 40.4953 13.0858C40.3726 14.1907 40.077 15.1001 39.5632 15.8094C39.4404 15.9322 39.3404 16.0049 39.2449 16.055L38.8766 16.0049V15.9822C38.3628 15.2229 38.04 14.2907 37.9172 13.1858C37.8172 12.3037 37.8444 11.2488 37.9899 10.0665L38.3082 8.96161C38.4537 8.54329 38.6538 8.22499 38.9221 8.00219C39.1449 8.02493 39.3631 8.12496 39.5359 8.24773C39.6814 8.3705 39.8042 8.56602 39.9042 8.78883L40.3453 10.0165H40.3498Z" fill="#0D1853"/>
<path fill-rule="evenodd" clip-rule="evenodd" d="M38.5088 9.32991C38.6543 8.91158 38.8771 8.59329 39.1454 8.37049C39.3682 8.39322 39.5864 8.47052 39.7592 8.61603L39.9047 8.78882C39.8047 8.56601 39.6819 8.37049 39.5364 8.24772C39.3636 8.12495 39.1454 8.02492 38.9226 8.00218C38.6543 8.22499 38.4542 8.54328 38.3087 8.9616L37.9904 10.0665C37.8449 11.2442 37.8176 12.2991 37.9177 13.1858C38.0404 14.2907 38.3587 15.2228 38.8771 15.9822C38.486 15.2956 38.2405 14.4862 38.1405 13.5268C38.0404 12.6674 38.0404 11.6352 38.2132 10.4348L38.5088 9.32991Z" fill="#0D1853"/>
<path fill-rule="evenodd" clip-rule="evenodd" d="M18.6013 6.28792C18.2102 6.26518 17.8146 6.33794 17.4236 6.51072L16.4187 7.17459C16.1504 7.44286 15.8776 7.73842 15.6321 8.10672L15.091 9.11161C14.8682 9.72546 14.6999 10.362 14.6499 11.0759C14.5499 11.7625 14.5772 12.4491 14.6499 13.113C14.7499 13.7996 14.9182 14.4634 15.191 15.0773L15.6821 16.0094L16.2232 16.7461C16.6642 17.1871 17.1553 17.4827 17.6964 17.6782L19.4879 17.7509C20.1518 17.7009 20.7656 17.3826 21.3795 16.7688C21.7978 16.3004 22.2161 15.6866 22.6299 14.9272C22.8527 14.3134 22.9982 13.6996 23.071 13.0357C23.171 12.3718 23.171 11.7125 23.071 11.0486C22.9982 10.362 22.8254 9.74819 22.6026 9.13435L22.2843 8.47048L21.6205 7.51106C20.9339 6.67441 19.929 6.28337 18.6013 6.28337V6.28792ZM17.9874 6.55619L18.7968 6.50617L19.6062 6.65168L19.6289 6.67441H19.6789L19.8244 6.72443L20.0472 6.8472L20.2928 6.9927C20.5883 7.21551 20.8839 7.48378 21.1521 7.82936L21.8387 8.78878C22.1343 9.37989 22.3298 10.0392 22.4299 10.7758C22.5299 11.4624 22.5526 12.1763 22.4526 12.9129C22.3798 13.6268 22.1843 14.3361 21.9388 14.9727C21.6432 15.6366 21.2749 16.2004 20.8339 16.6915C20.3655 17.0825 19.8744 17.3281 19.3379 17.4781L17.6464 17.4281C16.5915 16.987 15.8049 16.2004 15.3411 15.0728L15.3183 15.0227C15 14.1861 14.8272 13.2085 14.8272 12.0763V11.6579C14.85 10.6258 15.05 9.72091 15.4184 8.907C15.8367 7.99759 16.4505 7.311 17.2826 6.81992L17.9965 6.55164L17.9874 6.55619Z" fill="#0D1853"/>
<path fill-rule="evenodd" clip-rule="evenodd" d="M19.0935 7.80664C18.9207 7.7066 18.7251 7.68387 18.5296 7.68387L18.1613 7.90667L17.8157 8.20223C17.1519 9.3799 16.8108 10.6303 16.8563 11.9808L16.9291 13.2312L17.1246 14.4316C17.3474 15.291 17.7612 15.9276 18.375 16.3687H18.7661L18.9389 16.2959L19.4299 15.9276C19.9938 15.0455 20.3121 13.9633 20.4121 12.6856C20.4348 12.0945 20.4121 11.5079 20.3121 10.8941L20.262 10.5758C20.212 10.1074 20.0892 9.66636 19.9665 9.24804L19.4527 8.21587C19.3299 8.02035 19.2071 7.89758 19.0844 7.79754L19.0935 7.80664ZM17.9885 9.05707C18.1613 8.56599 18.3796 8.19768 18.7024 7.95214C18.9707 8.00216 19.1935 8.12493 19.339 8.32045L19.6073 8.73878L19.68 8.91156L20.0983 10.2848C20.2939 11.2442 20.3211 12.1991 20.2211 13.1585C20.0983 14.1406 19.8301 15 19.3845 15.7594L19.0162 16.0777L18.5978 16.1004L18.4023 15.8321C17.984 15.1955 17.6884 14.3816 17.6157 13.404L17.6884 10.3621L17.984 9.06161L17.9885 9.05707Z" fill="#0D1853"/>
<path fill-rule="evenodd" clip-rule="evenodd" d="M18.2101 9.40268C18.3556 8.9116 18.6011 8.56602 18.924 8.32049C19.1695 8.3705 19.3923 8.49327 19.5606 8.66606L19.6106 8.73881L19.3423 8.32049C19.1968 8.12496 18.974 8.0022 18.7057 7.95218C18.3874 8.19772 18.1646 8.56603 17.9918 9.0571L17.6963 10.3575L17.6235 13.3995C17.6963 14.3817 17.9918 15.191 18.4102 15.8276C18.0919 15.2365 17.9191 14.5499 17.8463 13.7405C17.7963 13.2995 17.7736 12.7811 17.8236 12.2173L17.9236 10.694L18.2192 9.39358L18.2101 9.40268Z" fill="#0D1853"/>
<path fill-rule="evenodd" clip-rule="evenodd" d="M19.8298 6.729L20.0526 6.85178L19.8298 6.729Z" fill="#0D1853"/>
<path fill-rule="evenodd" clip-rule="evenodd" d="M22.2846 8.4705L22.6029 9.13437C22.8257 9.74822 22.994 10.3621 23.0713 11.0487C23.1713 11.7125 23.1713 12.3718 23.0713 13.0357C22.9985 13.6996 22.8485 14.3134 22.6302 14.9273C22.2119 15.6866 21.7936 16.3005 21.3798 16.7688C20.7659 17.3827 20.1521 17.7009 19.4882 17.751L17.6967 17.6782C17.1556 17.4827 16.6645 17.1871 16.2235 16.7461L15.6824 16.0095L15.8279 16.2777L16.4417 17.1144C16.8828 17.5554 17.3739 17.8737 17.9377 18.0465L19.7065 18.1193C20.3703 18.0693 20.9842 17.751 21.598 17.1144C22.0164 16.6733 22.4347 16.0595 22.8485 15.2728C23.044 14.709 23.194 14.0679 23.2668 13.4086C23.3668 12.7447 23.3668 12.0808 23.2668 11.4215C23.194 10.7349 23.044 10.1211 22.8257 9.52996L22.2846 8.47505V8.4705Z" fill="#0D1853"/>
<path fill-rule="evenodd" clip-rule="evenodd" d="M54.5368 18.2648H54.5141L52.5998 18.3148C51.8632 18.2148 51.2266 17.9692 50.7083 17.5555L50.9038 17.901C51.4176 18.3193 52.0587 18.5876 52.8181 18.6877L54.9552 18.5649L54.5368 18.2693V18.2648Z" fill="#0D1853"/>
<path fill-rule="evenodd" clip-rule="evenodd" d="M45.579 7.56112L45.629 7.61114L45.3562 7.19282L45.2835 7.12006H45.188L45.579 7.56112Z" fill="#0D1853"/>
<path fill-rule="evenodd" clip-rule="evenodd" d="M45.2833 7.12001L45.356 7.19277L45.6243 7.61109L45.647 7.73386L45.597 16.4232L45.0559 17.2098L45.5243 17.1871L49.0118 17.1371H49.0619L48.9618 17.0143C48.789 16.8188 48.6935 16.646 48.6435 16.4232C48.5708 16.1777 48.5208 15.8821 48.5208 15.5638L48.5708 13.6995L48.6208 13.6268L48.6435 13.6495L49.0619 14.3634L50.6806 17.5281L50.7033 17.5509C51.2171 17.9692 51.8583 18.2147 52.5949 18.3102L54.5092 18.2602L54.7547 18.2102C54.5819 18.1374 54.4364 18.0374 54.3137 17.9146L53.9454 17.5236H53.9226L53.7998 17.2553L53.7498 17.1826L52.3039 14.5316L51.5445 13.0812C52.1811 12.5401 52.6495 11.9535 52.895 11.3624C53.1905 10.6758 53.2633 9.98918 53.0905 9.25257L52.845 8.56596L52.7449 8.42046L52.2038 7.68385L51.4672 7.12001C51.1717 6.94723 50.9034 6.82446 50.6306 6.77444L44.9604 6.72443L45.2787 7.11547L45.2833 7.12001ZM45.6016 7.17003L45.4561 6.90176H49.3574L50.6851 7.12456L51.0762 7.32008C51.6173 7.61564 52.0356 8.07943 52.2811 8.69328C52.4767 9.23438 52.5494 9.77547 52.4767 10.362C52.3766 10.9531 52.1811 11.467 51.8628 11.908L51.249 12.4218L50.9034 12.6446C50.8034 12.7174 50.7079 12.7901 50.6351 12.8674L51.9356 15.4183C52.4266 16.3505 52.9177 17.1871 53.4088 17.8737L52.2311 17.9465C51.7628 17.8964 51.3717 17.7509 51.0534 17.5554C50.8079 17.2371 50.5624 16.8688 50.3396 16.4732L49.2346 14.1406C49.0118 13.6995 48.7936 13.304 48.5708 12.9857L48.398 13.0084L48.2025 12.9857C48.057 12.9857 47.9569 13.0357 47.9342 13.1312L47.9569 16.0276C48.007 16.3459 48.0797 16.6415 48.1797 16.9097L45.7016 16.9598L45.6789 16.8142L45.7289 16.6415L45.8289 16.496V16.4732L45.9017 16.3277L45.8517 7.61564L45.6561 7.24733L45.6061 7.17458L45.6016 7.17003Z" fill="#0D1853"/>
<path fill-rule="evenodd" clip-rule="evenodd" d="M50.2176 9.1071C49.9948 8.73879 49.6765 8.47052 49.2855 8.29773C48.9172 8.15223 48.4989 8.10221 48.0351 8.15223C47.9851 9.40266 47.9851 10.6576 48.0351 11.9081L48.7944 11.8853L49.0627 11.8126H49.1127C49.4083 11.6898 49.6765 11.4943 49.9948 11.2215C50.2176 10.9259 50.3631 10.5849 50.4132 10.1893V10.0438C50.4359 9.67548 50.3631 9.37992 50.2176 9.11165V9.1071ZM50.1449 9.42539L50.1949 9.47541C50.2449 9.84372 50.2176 10.162 50.1221 10.4576C50.0494 10.8031 49.8766 11.0714 49.6311 11.2942C49.4083 11.517 49.14 11.6398 48.7944 11.6625H48.5716L48.6717 8.34775C48.9899 8.34775 49.2855 8.47052 49.5811 8.69332C49.8493 8.91612 50.0221 9.13438 50.1449 9.42994V9.42539Z" fill="#0D1853"/>
<path fill-rule="evenodd" clip-rule="evenodd" d="M50.1443 9.42994C50.0215 9.13438 49.8488 8.91612 49.5805 8.69332C49.2849 8.47051 48.9894 8.34775 48.6711 8.34775L48.571 11.6625H48.7938L48.8939 8.69332C49.2122 8.71605 49.5077 8.83883 49.8033 9.06163L50.1489 9.42994H50.1443Z" fill="#0D1853"/>
<path fill-rule="evenodd" clip-rule="evenodd" d="M53.3086 9.62545C53.2586 9.35718 53.1358 9.06162 52.963 8.7888L52.8402 8.56599L53.0858 9.25259C53.2586 9.98921 53.1858 10.6758 52.8903 11.3624C52.6447 11.9535 52.1764 12.5401 51.5398 13.0812L52.2991 14.5317L51.7581 13.4495C52.3946 12.9084 52.863 12.3218 53.1085 11.7307C53.4041 11.0441 53.4768 10.3575 53.304 9.6209L53.3086 9.62545Z" fill="#0D1853"/>
<path fill-rule="evenodd" clip-rule="evenodd" d="M53.9233 17.5282H53.9506L53.8005 17.2599L53.9233 17.5282Z" fill="#0D1853"/>
<path fill-rule="evenodd" clip-rule="evenodd" d="M48.6218 13.6268L48.5717 13.6996L48.5217 15.5639C48.5217 15.8821 48.5717 16.1777 48.6445 16.4232C48.6945 16.646 48.79 16.8143 48.9628 17.0144L48.8628 16.7688C48.79 16.546 48.74 16.255 48.74 15.9322L48.79 14.1406V14.0679L48.84 14.0179L49.0628 14.3634L48.6445 13.6496L48.6218 13.6268Z" fill="#0D1853"/>
<path fill-rule="evenodd" clip-rule="evenodd" d="M49.2853 17.5281L49.017 17.1371L45.5295 17.1826L45.2839 17.5509L49.2853 17.5281Z" fill="#0D1853"/>
<path fill-rule="evenodd" clip-rule="evenodd" d="M60.8941 7.26553L60.8486 7.22006L60.9441 7.36557L60.8941 7.26553Z" fill="#0D1853"/>
<path fill-rule="evenodd" clip-rule="evenodd" d="M55.9604 17.2326C55.8377 17.3554 55.8149 17.4781 55.8149 17.5509H58.5386L58.3931 17.3054L58.2931 17.2053H55.9877L55.965 17.2281L55.9604 17.2326Z" fill="#0D1853"/>
<path fill-rule="evenodd" clip-rule="evenodd" d="M55.7146 7.12006L55.6418 7.14735L55.8874 7.46564L55.9374 7.51111V7.41562L55.7146 7.12006Z" fill="#0D1853"/>
<path fill-rule="evenodd" clip-rule="evenodd" d="M55.6692 7.06998L55.7192 7.12L55.942 7.41555V7.51559L55.9921 16.5505L55.8693 16.7233L55.7465 16.8688C55.6465 16.9916 55.601 17.1143 55.6237 17.2144H58.3247L58.1792 16.9188L58.0791 16.8461L58.0064 16.746C57.8836 16.1822 57.8336 15.4683 57.8336 14.6589L57.9063 12.4991L58.1292 12.8674L60.5573 17.2098H62.8899L62.9626 7.41555C62.9626 7.31552 63.0126 7.22003 63.0627 7.09726L63.2855 6.72895L60.6118 6.67894C60.5891 6.77897 60.6346 6.90174 60.7573 7.06998L60.8574 7.21548L60.9074 7.2655L60.9574 7.36554L60.9801 7.46557L60.9301 11.517L60.7573 11.1987L60.6846 11.0986L60.6118 10.9759L59.2614 8.52048L58.1792 6.72895L55.4282 6.77897L55.6738 7.07453L55.6692 7.06998ZM55.8647 7.12V6.99723C55.9148 6.92448 56.0375 6.89719 56.2831 6.92448L56.9969 6.99723L57.5881 6.94721L61.2211 13.2812L61.2711 10.1892L61.0983 7.14728L61.0256 7.07453L61.0029 7.02451L60.9801 7.00178L62.4306 6.95176L62.3579 7.07453L62.2851 7.24732L62.2351 7.61562L62.1623 16.9688H60.7892C60.3981 16.3322 59.807 15.3228 59.0204 13.9269L57.2789 10.9077L57.2288 10.9577C57.2137 10.9728 57.2137 10.9971 57.2288 11.0304L57.2061 13.8041C57.1834 14.909 57.2061 15.8184 57.2288 16.5551L57.3289 16.9006L57.0106 16.9734H56.274L56.1012 16.9506L56.0512 16.9279L56.224 16.3368L56.1739 7.47467C56.0284 7.32916 55.9284 7.22913 55.8784 7.12909L55.8647 7.12Z" fill="#0D1853"/>
<path fill-rule="evenodd" clip-rule="evenodd" d="M63.0538 7.09731C63.0038 7.22008 62.9538 7.32012 62.9538 7.4156L62.881 17.2099H60.5757L60.7712 17.5554H63.1038L63.1766 7.78846C63.1766 7.68842 63.2266 7.56565 63.2993 7.39741L63.4221 7.25191L63.4949 7.12914L63.4448 7.10641H63.0538V7.09731Z" fill="#0D1853"/>
<path fill-rule="evenodd" clip-rule="evenodd" d="M60.9206 11.5124L60.7478 11.1941L60.9206 11.5124Z" fill="#0D1853"/>
<path fill-rule="evenodd" clip-rule="evenodd" d="M58.0473 15.0228L58.12 12.8629L57.8972 12.4946L57.8245 14.6545C57.8245 15.4638 57.8745 16.1777 57.9973 16.7415L58.07 16.8416L58.17 16.9143C58.0973 16.4005 58.0473 15.7594 58.0473 15.0228Z" fill="#0D1853"/>
<path fill-rule="evenodd" clip-rule="evenodd" d="M65.6587 7.12006L65.877 7.46564L65.6814 7.12006H65.6587Z" fill="#0D1853"/>
<path fill-rule="evenodd" clip-rule="evenodd" d="M65.6809 7.09731V7.12005L65.8764 7.46562H65.8992L65.9719 15.8094C65.9946 16.0777 65.9719 16.3005 65.8491 16.546L65.4308 17.2099L65.9219 17.1871L69.3822 17.1371H69.4549L69.3322 17.0644L69.2321 16.9189L69.2094 16.8688L69.0366 16.5506C68.9638 15.2001 68.9366 13.7041 68.9366 11.9626L68.9866 7.3474L69.0593 7.1246L69.1321 7.02456L69.3049 6.729H65.4263L65.5263 6.92453L65.6718 7.09731H65.6809ZM65.9492 7.12005V6.94726L65.9719 6.89724L68.4 6.99728L68.3 7.22008L68.25 7.46562V12.0081C68.2272 13.7769 68.25 15.2728 68.3 16.5233L68.4 16.9143H65.9719L66.1674 15.9322L66.1902 15.7594L66.2129 15.6866L66.1629 7.56111L66.0901 7.38832L65.9901 7.21553L65.9401 7.1155L65.9492 7.12005Z" fill="#0D1853"/>
<path fill-rule="evenodd" clip-rule="evenodd" d="M69.0688 7.12006L68.9961 7.34287L68.946 11.9581C68.946 13.6996 68.9688 15.2001 69.0461 16.546L69.2189 16.8643L69.2416 16.9143C69.1916 15.5866 69.1688 14.0406 69.1688 12.3264L69.2189 7.68844L69.5372 7.12461H69.0688V7.12006Z" fill="#0D1853"/>
<path fill-rule="evenodd" clip-rule="evenodd" d="M69.4373 17.2326L69.3872 17.1371L65.927 17.1826L65.6587 17.5509L69.6828 17.5281L69.4373 17.2326Z" fill="#0D1853"/>
<path fill-rule="evenodd" clip-rule="evenodd" d="M67.0095 6.36071L67.1096 6.41073L67.1823 6.38799L67.2823 6.36526L67.3551 6.41527C67.8689 6.39254 68.3873 6.21975 68.8511 5.90146C69.2921 5.55589 69.6377 5.16484 69.856 4.67377H69.4376C69.2148 5.01934 68.9465 5.28761 68.6283 5.53315C68.1872 5.85144 67.6961 6.02423 67.205 6.04696L67.0095 6.36526V6.36071Z" fill="#0D1853"/>
<path fill-rule="evenodd" clip-rule="evenodd" d="M66.8092 6.01513L66.882 6.06514L66.9547 6.01513H67.0548L67.1275 6.06514L67.2003 6.04241C67.6914 6.01967 68.1824 5.84689 68.6235 5.52859C68.9418 5.28306 69.2146 5.01478 69.4329 4.66921L69.6284 4.32364H67.7641L66.8047 6.01513H66.8092ZM67.4003 5.69684L67.2548 5.71957L67.7459 4.83745L68.137 4.54189L68.7281 4.64193L68.6781 4.66466L68.6553 4.78743L68.5326 4.93294C68.187 5.32398 67.7959 5.5968 67.4049 5.69229L67.4003 5.69684Z" fill="#0D1853"/>
<path fill-rule="evenodd" clip-rule="evenodd" d="M71.5242 6.72898C71.5242 6.82901 71.5742 6.95178 71.6469 7.07455L71.8197 7.42013L71.8697 15.0546L71.797 15.2501L71.697 15.4229C71.5969 15.5456 71.5515 15.6684 71.5515 15.7684L71.847 15.9412L73.4157 17.2644C73.6385 17.4372 73.8568 17.56 74.0796 17.6555C74.5934 17.901 75.1345 17.9737 75.6483 17.8783C76.0894 17.8055 76.5304 17.61 77.0715 17.3144L78.422 16.4323C78.8903 16.0867 79.2814 15.8685 79.6497 15.7457L79.7725 15.6957L79.6269 15.5957L79.6042 15.5729L79.4087 15.4274C79.3359 14.3725 79.2859 13.022 79.2859 11.3533L79.3359 7.3019L79.436 7.0791L79.6088 6.8563L79.6815 6.68351H76.9078L77.1534 7.12457L77.3489 7.49288L77.3716 7.51561V14.1452L77.2716 14.7363L76.9533 15.2501C76.6578 15.4729 76.2894 15.5684 75.7984 15.5184C75.6529 15.4956 75.4801 15.4183 75.3073 15.2501L75.1618 15.0773L74.939 14.809L74.889 7.34737L75.0345 7.0791L75.0845 7.00635L75.2573 6.68806L71.5242 6.73808V6.72898ZM71.9652 7.09729V6.95179L74.2978 7.07455L74.1523 7.42013L74.2024 14.6362C74.2524 14.859 74.3751 15.0773 74.5479 15.3001L75.139 15.7684C75.3846 15.9139 75.6529 15.9913 76.0212 15.964L76.4895 15.8912L76.9078 15.6957L77.3762 15.1546L77.3989 15.1046L77.5944 14.7363L77.6444 14.5135L77.5944 7.47014L77.4717 7.17459L77.4489 7.07455L77.549 6.95179L78.7266 7.0018V7.07455C78.6539 8.12946 78.6039 9.45719 78.6039 11.0532L78.6539 15.1501L78.7767 15.3729L78.8267 15.6411L78.2856 16.0822C78.0173 16.255 77.8445 16.3777 77.6945 16.5005C77.2261 16.8461 76.8351 17.0916 76.4668 17.2599C75.9984 17.4827 75.5574 17.6054 75.1663 17.6054C74.6752 17.6282 74.2069 17.5054 73.7658 17.2599L71.9243 15.6911L72.0971 15.0273V14.9773L72.1198 14.8045L72.0698 7.41558L71.9698 7.17004V7.09729H71.9652Z" fill="#0D1853"/>
<path fill-rule="evenodd" clip-rule="evenodd" d="M79.4274 7.07L79.3274 7.29281L79.2773 11.3442C79.2773 13.0129 79.3274 14.3634 79.4001 15.4183L79.5956 15.5638L79.6184 15.5866C79.5456 14.5817 79.4956 13.2812 79.4956 11.708L79.5456 7.65657C79.5456 7.55653 79.5956 7.46104 79.7184 7.33828L79.8184 7.2155L79.8912 7.07H79.4229H79.4274Z" fill="#0D1853"/>
<path fill-rule="evenodd" clip-rule="evenodd" d="M75.0349 7.07003L74.8894 7.3383L74.9394 14.8L75.1622 15.0955C75.1122 14.5544 75.0895 13.9678 75.0895 13.3267L75.1122 7.67933L75.4805 7.06548H75.0395L75.0349 7.07003Z" fill="#0D1853"/>
<path fill-rule="evenodd" clip-rule="evenodd" d="M79.6496 15.7867V15.7366C79.2813 15.8594 78.8903 16.0822 78.4219 16.4232L77.0714 17.3054C76.5304 17.6009 76.0893 17.7964 75.6482 17.8692C75.1344 17.9692 74.5933 17.8919 74.0795 17.6464C73.8567 17.5463 73.6384 17.4236 73.4156 17.2553L71.8469 15.9322L71.7742 16.155L72.4108 16.546L73.6157 17.6009C73.8385 17.7964 74.0568 17.9192 74.2796 18.0192C74.8207 18.2648 75.3345 18.3148 75.8756 18.242C76.3166 18.1693 76.7577 17.9965 77.2988 17.6782L78.6493 16.7688C79.1631 16.4232 79.6314 16.1777 79.9997 16.0549L79.8269 15.9322L79.6541 15.7867H79.6496Z" fill="#0D1853"/>
<path fill-rule="evenodd" clip-rule="evenodd" d="M10.5034 5.96507L10.3579 5.79228L10.3806 5.8423L10.7262 6.33338C10.8717 6.5289 11.0445 6.62893 11.1946 6.65167L12.2267 6.70169C12.5723 6.60165 12.8633 6.45615 13.0861 6.18787C13.2316 5.99235 13.3317 5.74681 13.4044 5.50127C13.4544 5.233 13.4544 4.98746 13.4044 4.71464L13.3044 4.4691L13.1589 4.22356L13.1089 4.15081L13.1816 4.37361C13.2316 4.61915 13.2316 4.86469 13.1816 5.11023C13.1316 5.3785 13.0088 5.62404 12.8633 5.82411C12.6405 6.09239 12.3495 6.26517 12.0039 6.33793L10.9718 6.28791C10.8263 6.26517 10.6535 6.16514 10.5034 5.96962V5.96507Z" fill="#0D1853"/>
<path fill-rule="evenodd" clip-rule="evenodd" d="M12.8595 1.30439L11.7318 0.617797C11.2635 0.322241 10.8724 0.149452 10.5269 0.0539649C8.68532 -0.191574 6.91653 0.399539 5.22504 1.84549C4.43841 2.58211 3.80183 3.44149 3.28801 4.39636C2.79694 5.3285 2.42863 6.31066 2.20582 7.39285C1.98302 8.42502 1.88753 9.50266 1.93755 10.6076C1.96028 10.9759 1.98757 11.3442 2.06032 11.7125H2.32859C2.27858 11.3669 2.22856 11.0259 2.20582 10.6803V10.5803L2.22856 8.8388L2.45136 7.3883C2.67417 6.28338 3.06521 5.22847 3.6063 4.29633C4.17013 3.29144 4.834 2.43205 5.6661 1.71817C6.37998 1.12706 7.11205 0.713284 7.87595 0.467745C8.68532 0.172189 9.5447 0.0994384 10.4268 0.199473C10.8179 0.272225 11.2362 0.44501 11.6773 0.713284L12.8049 1.52265L12.8276 1.54539L13.687 1.61814L13.587 1.69089L11.9683 3.35965L12.3866 3.95076C12.5094 4.17356 12.5821 4.36908 12.5821 4.58734C12.5821 4.80559 12.5094 5.00567 12.4093 5.20119C12.2866 5.37397 12.1638 5.51948 11.9683 5.64225L11.3544 5.715C11.1316 5.715 10.9634 5.64225 10.7906 5.54221C10.545 5.34669 10.3995 5.10115 10.3495 4.78286L10.3268 4.66009L10.3768 3.87346C10.3768 3.75069 10.4496 3.60518 10.5723 3.4324L11.1634 2.76853C11.2135 2.71852 11.2362 2.64576 11.2362 2.59575C11.2862 2.42296 11.2135 2.25017 11.0634 2.10467L10.3995 1.63633L9.56289 1.51356C8.28518 1.80912 7.25756 2.61848 6.49366 3.94166C6.17537 4.48276 5.87981 5.0966 5.65701 5.80594C5.48422 6.44252 5.33872 7.08365 5.26596 7.77025C5.07044 9.36625 5.14319 10.6667 5.43875 11.6989H7.89414C7.72135 11.6261 7.5031 11.5534 7.25756 11.5534H6.2754L6.15263 11.4806C6.02986 11.3578 5.92983 11.1851 5.88436 10.9168L5.78432 10.1074C5.66155 8.66146 5.78432 7.28372 6.17537 6.01056C6.56641 4.71011 7.23027 3.53243 8.13968 2.50026C8.48525 2.2047 8.85356 2.00918 9.22187 1.93643C9.61291 1.81366 10.0085 1.81366 10.3768 1.93643L10.7951 2.23199L10.9679 2.55028V2.65031C10.5769 3.04136 10.3313 3.45968 10.1813 3.95076C10.0358 4.44184 10.0085 4.93291 10.1586 5.44672L10.3541 5.7923L10.4996 5.96508C10.6451 6.1606 10.8179 6.26064 10.9679 6.28338L12.0001 6.33339C12.3457 6.26064 12.6367 6.08785 12.8595 5.81958C13.005 5.62406 13.1278 5.37852 13.1778 5.1057C13.2278 4.86016 13.2278 4.61462 13.1778 4.36908L13.105 4.14628L13.0823 4.09626V4.07353L12.814 3.60519V3.35965L14.6555 1.76364L15.0011 1.41807L12.864 1.2953L12.8595 1.30439Z" fill="#0D1853"/>
<path fill-rule="evenodd" clip-rule="evenodd" d="M9.10273 14.5316L8.87993 14.5089V13.795C8.87993 13.5267 8.85719 13.2812 8.82991 13.0811C8.77989 12.8583 8.72988 12.6901 8.68441 12.5173C8.56164 12.249 8.36612 12.0262 8.14331 11.8534C8.07056 11.8034 7.99781 11.7307 7.89777 11.7079H5.44239V11.808C4.38748 12.3491 3.50536 13.0584 2.84149 13.9178C2.59595 13.1812 2.45045 12.4673 2.32768 11.7079H2.05941C2.13216 12.4218 2.28221 13.1084 2.50047 13.795C2.6005 13.9678 2.64597 14.1133 2.62324 14.2861C2.62324 14.4089 2.6005 14.5316 2.50047 14.7044L2.15489 15.5411C2.00939 16.3777 2.13216 17.0143 2.50047 17.4781L2.76874 17.7464C3.18707 17.9919 3.65086 18.0919 4.21469 18.0919C4.77852 18.0419 5.24686 17.8964 5.66519 17.6509L6.59733 18.0192L6.47456 18.242L5.59244 19.838L2.89151 19.888C2.40043 19.938 1.98211 20.0108 1.64108 20.1336C1.22276 20.2563 0.831713 20.4518 0.513422 20.7247C0.290619 20.9475 0.16785 21.2157 0.122379 21.534C0.0496272 21.8296 0.0723622 22.1251 0.195132 22.4162L0.390653 22.7117L0.831713 23.08L1.71383 23.3756C2.59596 23.5211 3.48262 23.3528 4.34201 22.8845C5.10136 22.4662 5.78796 21.8523 6.45182 21.043H75.4755L76.3849 21.8523L78.813 20.2063L79.4041 19.838C74.0523 19.8153 68.0411 19.788 61.3888 19.788H7.33849L8.05237 18.2647C10.2349 18.2875 12.2493 17.6736 14.0908 16.4232L12.2493 13.404L10.6805 14.1906C10.1167 14.4134 9.57562 14.5362 9.11183 14.5362L9.10273 14.5316ZM10.3532 14.5316L11.8037 13.9178L11.9264 14.0406C12.2947 14.5316 12.6858 15.1455 13.0814 15.8548C12.6403 16.2959 12.0992 16.6915 11.4854 17.0098C10.8943 17.3053 10.2577 17.5008 9.59381 17.6463L7.60676 17.7191C6.89288 17.6463 6.27904 17.4963 5.66974 17.2508C5.32416 17.078 4.95586 16.8324 4.61483 16.5369C4.26926 16.2413 4.00098 15.9458 3.80546 15.6275C3.95097 15.1591 4.24652 14.6953 4.71486 14.2543C5.08317 13.8632 5.52423 13.5177 6.04259 13.2221L6.95199 14.0815C7.39306 14.4498 7.93415 14.6726 8.57073 14.7453L9.11183 14.7954C9.53015 14.7954 9.97121 14.6953 10.3623 14.5271L10.3532 14.5316ZM6.91562 11.7352C7.4067 11.7352 7.79774 11.8353 8.0933 12.0808C8.2388 12.1808 8.36157 12.3491 8.4616 12.5219C8.56164 12.7901 8.63439 13.0857 8.65713 13.4313V14.4134L8.21606 14.3634L7.87049 14.0951C7.94324 13.9223 7.97053 13.7041 7.94324 13.4813C7.94324 13.2585 7.87049 13.0402 7.77046 12.8674C7.62495 12.6719 7.42488 12.5719 7.15661 12.5219L6.44273 12.4991C6.05169 12.6219 5.68338 12.7947 5.3378 13.0129L4.33291 13.7996C3.98734 14.0951 3.7418 14.4361 3.52355 14.8045C3.27801 15.15 3.10522 15.5411 3.03247 15.9321C2.98245 16.2777 3.0552 16.596 3.30074 16.8643C3.54628 17.1598 3.89185 17.2553 4.38293 17.1325C4.45568 17.0825 4.55572 17.0325 4.62847 17.0325L4.87401 17.1052L5.31507 17.4235C5.06953 17.6463 4.75124 17.7691 4.33291 17.8146L3.20526 17.7418C2.93698 17.5963 2.76419 17.4235 2.59141 17.178C2.4459 16.9552 2.34587 16.7097 2.32313 16.4641V15.923L2.69144 14.7181L3.10977 14.0315L3.1325 14.0087C3.62358 13.3449 4.28744 12.7583 5.11955 12.2672C5.56061 12.0444 5.9562 11.8989 6.34724 11.8262L6.91107 11.7261L6.91562 11.7352ZM6.79285 18.0192L7.28393 18.0919C7.45671 18.142 7.50673 18.2374 7.35668 18.4375L7.11114 18.8786L6.88834 19.3697L6.59278 19.738L6.02895 19.788C6.05169 19.5424 6.15172 19.2469 6.32451 18.9059L6.79285 18.0237V18.0192ZM0.65438 20.7701C0.999953 20.4246 1.49103 20.2063 2.0776 20.1063L2.88696 19.9835L77.749 19.9335C77.649 20.0335 77.5262 20.1063 77.4307 20.2018L76.9624 20.5473C76.6668 20.7701 76.3713 20.9384 76.1257 21.0384L75.9302 20.8429L75.6847 20.6474L2.24584 20.7201C1.97756 20.7701 1.75476 20.8429 1.58197 20.9657C1.35917 21.0884 1.21366 21.2612 1.09089 21.434C1.01814 21.6068 1.01814 21.7523 1.11363 21.9478L1.50467 22.2661L1.89571 22.3661C2.40953 22.4389 2.92789 22.3661 3.41896 22.1433L4.25562 21.6523L5.01497 21.0384L5.77432 21.0884C5.21049 21.825 4.59664 22.3661 3.93278 22.7072C3.17343 23.0982 2.40953 23.2483 1.60016 23.0982C1.35462 23.0482 1.13182 22.9527 0.963577 22.8027C0.740773 22.6572 0.595269 22.4844 0.495234 22.2616C0.3952 22.1161 0.34973 21.9433 0.372465 21.7205C0.372465 21.4249 0.445217 21.1066 0.640739 20.761L0.65438 20.7701ZM1.70929 21.5068C1.85479 21.384 2.05486 21.2612 2.3004 21.2112L2.987 21.1384H4.38748L3.99644 21.5068C3.7509 21.7023 3.50536 21.8523 3.2098 21.9478L1.88207 22.0706L1.7593 22.0478C1.65927 21.9978 1.6138 21.9251 1.63654 21.8023L1.70929 21.5068Z" fill="#0D1853"/>
<path fill-rule="evenodd" clip-rule="evenodd" d="M3.99651 21.5023L4.38755 21.1339H2.98707L2.30047 21.2067C2.05493 21.2567 1.85941 21.3795 1.70936 21.5023L1.63661 21.7978C1.61387 21.9206 1.65934 21.9933 1.75938 22.0433L1.88215 22.0661L1.93216 21.8433C2.07767 21.7205 2.27774 21.6205 2.52328 21.575L3.99651 21.5023Z" fill="#0D1853"/>
<path fill-rule="evenodd" clip-rule="evenodd" d="M79.6506 20.2018H78.814L76.3858 21.8478L75.4764 21.0384H6.45277C5.78891 21.8478 5.10231 22.4616 4.34296 22.88C3.48357 23.3483 2.60145 23.5165 1.71478 23.371L0.832662 23.0755L0.391602 22.7072L0.414337 22.7799C0.537106 23.0482 0.732628 23.271 1.05092 23.4438C1.22371 23.5438 1.542 23.6393 1.93304 23.7393C2.81516 23.8848 3.70183 23.7166 4.56121 23.271C5.32057 22.8299 6.00716 22.2161 6.67103 21.3794H75.6992L76.6314 22.2161L79.6506 20.2018Z" fill="#0D1853"/>
<path fill-rule="evenodd" clip-rule="evenodd" d="M10.3808 1.94098C10.0125 1.81821 9.6215 1.81821 9.22591 1.94098C8.8576 2.01373 8.48929 2.20925 8.14372 2.50481C7.23432 3.53698 6.575 4.71466 6.17941 6.0151C5.78837 7.29281 5.6656 8.66601 5.78837 10.112L5.8884 10.9213C5.93842 11.1896 6.0339 11.3624 6.15667 11.4852L6.10666 11.2896L6.00662 10.4803C5.88385 9.00704 6.00662 7.65658 6.39767 6.37886C6.78871 5.05568 7.45257 3.87346 8.36197 2.84584C8.70755 2.57756 9.07586 2.37749 9.41688 2.282C9.83521 2.15923 10.2263 2.15923 10.5946 2.30474L10.9629 2.55028L10.7901 2.23199L10.3718 1.93643L10.3808 1.94098Z" fill="#0D1853"/>
<path fill-rule="evenodd" clip-rule="evenodd" d="M15.214 1.8182L14.6501 1.76818L12.8086 3.36418V3.60972L13.0814 4.07806L13.0314 3.97803V3.70975L15.214 1.8182Z" fill="#0D1853"/>
<path fill-rule="evenodd" clip-rule="evenodd" d="M14.3091 16.7915L14.0863 16.4232C12.2448 17.6736 10.2304 18.2875 8.04787 18.2647L7.33398 19.788H7.72503L7.87053 19.3697L8.26158 18.6103C10.4214 18.6603 12.4357 18.0465 14.3 16.7961L14.3091 16.7915Z" fill="#0D1853"/>
<path fill-rule="evenodd" clip-rule="evenodd" d="M9.10314 14.5317L9.05312 13.4768C8.98037 13.0857 8.8576 12.7629 8.68481 12.5174C8.73483 12.6902 8.78485 12.8629 8.83032 13.0812C8.85305 13.2767 8.88034 13.5223 8.88034 13.7951V14.509L9.10314 14.5317Z" fill="#0D1853"/>
<path fill-rule="evenodd" clip-rule="evenodd" d="M6.60174 18.0192L5.6696 17.6509C5.25128 17.8965 4.78748 18.042 4.21911 18.092C3.65528 18.092 3.18694 17.9919 2.77316 17.7464L2.50488 17.4781C2.60492 17.7237 2.77316 17.9192 2.99596 18.1147C3.41429 18.3603 3.90536 18.4603 4.44191 18.433C4.98301 18.4103 5.47408 18.2602 5.88786 18.0147L6.47897 18.2375L6.60174 18.0147V18.0192Z" fill="#0D1853"/>
<path fill-rule="evenodd" clip-rule="evenodd" d="M24.8354 7.19281H24.7627L25.0583 7.5111V7.46563L24.8354 7.19281Z" fill="#0D1853"/>
<path fill-rule="evenodd" clip-rule="evenodd" d="M25.0583 7.46557V7.51559L25.1083 12.008C25.1311 13.8223 25.1083 15.3228 25.0583 16.5232L24.9128 16.746L24.7173 16.9188L24.5945 17.1143L24.7173 17.3099L24.9628 17.2871C25.3811 17.2644 25.9677 17.2644 26.7043 17.2644H28.6914C29.4053 17.2144 30.0191 17.0916 30.5329 16.8733C31.124 16.6051 31.5878 16.2095 31.9789 15.6957C32.3244 15.2546 32.5927 14.7362 32.7882 14.1497C32.961 13.5859 33.0565 12.972 33.0838 12.3582C33.1338 11.7216 33.0838 11.1305 32.961 10.5166C32.8382 10.0028 32.6927 9.51173 32.4699 9.07067L32.3472 8.89788C32.0016 8.30677 31.5105 7.84298 30.974 7.47467C30.4101 7.1291 29.819 6.91084 29.1597 6.83809C27.6137 6.78807 26.0677 6.78807 24.5718 6.83809L24.8401 7.2064L25.0629 7.47467L25.0583 7.46557ZM25.1083 7.14729V7.12455L25.1311 7.00178L28.8369 7.10181L29.3507 7.20185C29.7917 7.30188 30.1373 7.47012 30.4556 7.67019C30.9694 7.98848 31.3878 8.42954 31.6833 9.02065C31.9288 9.489 32.1244 10.0255 32.2471 10.5894C32.3699 11.1305 32.4199 11.6943 32.4199 12.3081C32.3972 12.8993 32.2972 13.4631 32.1244 13.9996C31.9288 14.5635 31.6833 15.0318 31.365 15.4729C31.0194 15.9412 30.6284 16.2822 30.1873 16.5551C29.6963 16.8506 29.2052 16.9961 28.6914 17.0234H25.1311C25.1311 16.8006 25.1811 16.5551 25.3038 16.3095L25.3766 16.164V11.8216C25.3766 10.1301 25.3539 8.67963 25.3266 7.47922L25.2766 7.35645L25.1765 7.25641L25.1038 7.15638L25.1083 7.14729Z" fill="#0D1853"/>
<path fill-rule="evenodd" clip-rule="evenodd" d="M28.7421 8.2977L27.4644 8.24768V15.6866L27.5144 15.7593L27.5644 15.8094H27.6144L28.4238 15.7593L28.5693 15.7366C28.9149 15.6366 29.1831 15.4683 29.4059 15.2455C29.6515 14.8045 29.8743 14.3634 30.0198 13.8223C30.1653 13.3085 30.2426 12.7901 30.2653 12.2263L30.1926 10.7303L30.1698 10.6303C30.0698 10.0892 29.9243 9.59814 29.7015 9.15708C29.4787 8.76604 29.1604 8.47048 28.7421 8.2977ZM29.6515 9.50266L29.6742 9.52539C29.8197 9.96645 29.9197 10.4575 30.0198 10.9759C30.0698 11.4897 30.0925 12.0081 30.0698 12.4991C30.0198 13.6541 29.6515 14.5862 29.0149 15.2956L28.6466 15.4911L28.4238 15.5638L28.201 15.5866V8.39318C28.4965 8.41592 28.7921 8.53869 29.0831 8.76149C29.3514 8.95701 29.5242 9.20255 29.6469 9.49811L29.6515 9.50266Z" fill="#0D1853"/>
<path fill-rule="evenodd" clip-rule="evenodd" d="M29.0596 8.76606C28.7913 8.54325 28.4958 8.42049 28.2002 8.39775V15.5911L28.423 15.5684V8.74332C28.7186 8.79334 29.0141 8.91611 29.3051 9.13436L29.6507 9.50268C29.5279 9.20712 29.3551 8.96158 29.0596 8.76606Z" fill="#0D1853"/>
<path fill-rule="evenodd" clip-rule="evenodd" d="M32.4707 9.06157C32.6935 9.50263 32.839 9.99371 32.9618 10.5075C33.0846 11.1214 33.1346 11.7125 33.0846 12.3491C33.0618 12.9629 32.9618 13.5768 32.789 14.1406C32.5935 14.7317 32.3207 15.2455 31.9797 15.6866C31.5886 16.2004 31.1203 16.596 30.5337 16.8642C30.0199 17.087 29.4061 17.2098 28.6922 17.2553H26.7051C25.9685 17.2553 25.3774 17.2553 24.9636 17.278L24.9409 17.3008L24.8181 17.4735L24.9636 17.6463C25.4047 17.5963 26.0685 17.5963 26.9279 17.6236H28.915C29.6289 17.5736 30.2382 17.4508 30.7565 17.2326C31.3476 16.987 31.8114 16.596 32.2025 16.0549C32.548 15.6138 32.8163 15.0955 33.0118 14.4862C33.1846 13.9223 33.2801 13.3312 33.3074 12.6946C33.3574 12.0808 33.3074 11.4669 33.1846 10.9031C33.0391 10.2893 32.839 9.74817 32.5708 9.23435L32.4707 9.06157Z" fill="#0D1853"/>
<path fill-rule="evenodd" clip-rule="evenodd" d="M28.7419 8.29771L27.4641 8.2477V15.6866L27.5142 15.7594L27.5642 15.8094H27.6142L28.4236 15.7594L28.5691 15.7366C28.9146 15.6366 29.1829 15.4684 29.4057 15.2456C29.6513 14.8045 29.8741 14.3634 30.0196 13.8223C30.1651 13.3085 30.2424 12.7902 30.2651 12.2263L30.1924 10.7304L30.1696 10.6303C30.0696 10.0892 29.9241 9.59816 29.7013 9.1571C29.4785 8.76606 29.1602 8.4705 28.7419 8.29771ZM25.1088 7.14277V7.12004L25.1315 6.99727L28.8373 7.0973L29.3512 7.19734C29.7922 7.29737 30.1378 7.46561 30.4561 7.66568C30.9699 7.98397 31.3882 8.42503 31.6838 9.01614C31.9293 9.48449 32.1248 10.021 32.2476 10.5849C32.3704 11.126 32.4204 11.6898 32.4204 12.3036C32.3977 12.8947 32.2976 13.4586 32.1248 13.9951C31.9293 14.559 31.6838 15.0273 31.3655 15.4684C31.0199 15.9367 30.6289 16.2777 30.1878 16.5505C29.6967 16.8461 29.2056 16.9916 28.6918 17.0189H25.1315C25.1315 16.7961 25.1815 16.5505 25.3043 16.305L25.3771 16.1595V11.8171C25.3771 10.1256 25.3543 8.67512 25.327 7.47471L25.277 7.35193L25.177 7.2519L25.1042 7.15186L25.1088 7.14277ZM0.65949 20.7656C1.00506 20.4201 1.49614 20.2018 2.08271 20.1018L2.89207 19.979L77.7541 19.929C77.6541 20.029 77.5313 20.1018 77.4358 20.1973L76.9675 20.5428C76.6719 20.7656 76.3764 20.9339 76.1308 21.0339L75.9353 20.8384L75.6898 20.6429L2.25094 20.7156C1.98267 20.7656 1.75987 20.8384 1.58708 20.9611C1.36428 21.0839 1.21877 21.2567 1.096 21.4295C1.02325 21.6023 1.02325 21.7478 1.11874 21.9433L1.50978 22.2616L1.90082 22.3616C2.41464 22.4344 2.933 22.3616 3.42407 22.1388L4.26073 21.6477L5.02008 21.0339L5.77943 21.0839C5.2156 21.8205 4.60175 22.3616 3.93789 22.7027C3.17854 23.0937 2.41464 23.2437 1.60527 23.0937C1.35973 23.0437 1.13693 22.9482 0.968687 22.7981C0.745883 22.6526 0.600379 22.4799 0.500344 22.257C0.40031 22.1115 0.35484 21.9388 0.377575 21.716C0.377575 21.4204 0.450327 21.1021 0.645849 20.7565L0.65949 20.7656ZM6.79796 18.0147L7.28904 18.0874C7.46182 18.1375 7.51184 18.2329 7.36179 18.433L7.11625 18.8741L6.89345 19.3651L6.59789 19.7335L6.03406 19.7835C6.0568 19.5379 6.15683 19.2424 6.32962 18.9014L6.79796 18.0192V18.0147ZM6.92073 11.7307C7.41181 11.7307 7.80285 11.8307 8.0984 12.0763C8.24391 12.1763 8.36668 12.3446 8.46671 12.5173C8.56675 12.7856 8.6395 13.0812 8.66223 13.4267V14.4089L8.22117 14.3589L7.8756 14.0906C7.94835 13.9178 7.97564 13.6996 7.94835 13.4768C7.94835 13.254 7.8756 13.0357 7.77557 12.8629C7.63006 12.6674 7.42999 12.5674 7.16172 12.5173L6.44784 12.4946C6.0568 12.6174 5.68849 12.7902 5.34291 13.0084L4.33803 13.7951C3.99245 14.0906 3.74691 14.4316 3.52866 14.7999C3.28312 15.1455 3.11033 15.5366 3.03758 15.9276C2.98756 16.2732 3.06031 16.5915 3.30585 16.8597C3.55139 17.1553 3.89696 17.2508 4.38804 17.128C4.46079 17.078 4.56083 17.028 4.63358 17.028L4.87912 17.1007L5.32018 17.419C5.07464 17.6418 4.75635 17.7646 4.33803 17.8101L3.21037 17.7373C2.94209 17.5918 2.7693 17.419 2.59652 17.1735C2.45101 16.9507 2.35098 16.7051 2.32824 16.4596V15.9185L2.69655 14.7136L3.11488 14.027L3.13761 14.0042C3.62869 13.3404 4.29255 12.7538 5.12466 12.2627C5.56572 12.0399 5.96131 11.8944 6.35235 11.8217L6.91618 11.7216L6.92073 11.7307ZM10.3583 14.5271L11.8088 13.9133L11.9315 14.036C12.2998 14.5271 12.6909 15.141 13.0865 15.8503C12.6454 16.2914 12.1043 16.687 11.4905 17.0052C10.8994 17.3008 10.2628 17.4963 9.59892 17.6418L7.61188 17.7146C6.89799 17.6418 6.28415 17.4918 5.67485 17.2462C5.32927 17.0735 4.96097 16.8279 4.61994 16.5324C4.27437 16.2368 4.00609 15.9412 3.81057 15.623C3.95607 15.1546 4.25163 14.6908 4.71997 14.2498C5.08828 13.8587 5.52934 13.5131 6.0477 13.2176L6.9571 14.077C7.39817 14.4453 7.93926 14.6681 8.57584 14.7408L9.11694 14.7908C9.53526 14.7908 9.97632 14.6908 10.3674 14.5226L10.3583 14.5271ZM71.9658 7.08821V6.9427L74.2984 7.06547L74.1529 7.41104L74.2029 14.6272C74.2529 14.85 74.3757 15.0682 74.5485 15.291L75.1396 15.7594C75.3851 15.9049 75.6534 15.9822 76.0217 15.9549L76.4901 15.8821L76.9084 15.6866L77.3767 15.1455L77.3995 15.0955L77.595 14.7272L77.645 14.5044L77.595 7.46106L77.4722 7.16551L77.4495 7.06547L77.5495 6.9427L78.7272 6.99272V7.06547C78.6544 8.12038 78.6044 9.44811 78.6044 11.0441L78.6544 15.141L78.7772 15.3638L78.8272 15.632L78.2861 16.0731C78.0179 16.2459 77.8451 16.3687 77.695 16.4914C77.2267 16.837 76.8356 17.0825 76.4673 17.2508C75.999 17.4736 75.5579 17.5964 75.1669 17.5964C74.6758 17.6191 74.2075 17.4963 73.7664 17.2508L71.9249 15.6821L72.0976 15.0182V14.9682L72.1204 14.7954L72.0704 7.4065L71.9703 7.16096V7.08821H71.9658ZM67.4006 5.68773L67.2551 5.71046L67.7461 4.82834L68.1372 4.53279L68.7283 4.63282L68.6783 4.65555L68.6555 4.77833L68.5328 4.92383C68.1872 5.31487 67.7962 5.58769 67.4051 5.68318L67.4006 5.68773ZM65.9546 7.11094V6.93816L65.9773 6.88814L68.4055 6.98817L68.3054 7.21098L68.2554 7.45652V11.999C68.2327 13.7678 68.2554 15.2637 68.3054 16.5142L68.4055 16.9052H65.9773L66.1729 15.9231L66.1956 15.7503L66.2184 15.6775L66.1683 7.552L66.0956 7.37922L65.9955 7.20643L65.9455 7.1064L65.9546 7.11094ZM55.8648 7.11094V6.98817C55.9148 6.91542 56.0376 6.88814 56.2831 6.91542L56.997 6.98817L57.5881 6.93816L61.2212 13.2721L61.2712 10.1802L61.0984 7.13822L61.0257 7.06547L61.0029 7.01546L60.9802 6.99272L62.4307 6.9427L62.3579 7.06547L62.2852 7.23826L62.2352 7.60657L62.1624 16.9598H60.7892C60.3982 16.3232 59.8071 15.3138 59.0204 13.9178L57.2789 10.8986L57.2289 10.9486C57.2137 10.9638 57.2137 10.988 57.2289 11.0214L57.2062 13.7951C57.1834 14.9 57.2062 15.8094 57.2289 16.546L57.3289 16.8916L57.0106 16.9643H56.274L56.1012 16.9416L56.0512 16.9189L56.224 16.3277L56.174 7.46561C56.0285 7.32011 55.9285 7.22007 55.8784 7.12004L55.8648 7.11094ZM50.2174 9.09799C49.9946 8.72968 49.6763 8.4614 49.2853 8.28862C48.917 8.14311 48.4986 8.0931 48.0348 8.14311C47.9848 9.39354 47.9848 10.6485 48.0348 11.8989L48.7942 11.8762L49.0625 11.8035H49.1125C49.408 11.6807 49.6763 11.4852 49.9946 11.2123C50.2174 10.9168 50.3629 10.5758 50.4129 10.1802V10.0347C50.4357 9.66637 50.3629 9.37081 50.2174 9.10253V9.09799ZM45.6022 7.16096L45.4567 6.89268H49.358L50.6857 7.11549L51.0768 7.31101C51.6179 7.60657 52.0362 8.07036 52.2817 8.68421C52.4773 9.2253 52.55 9.7664 52.4773 10.353C52.3772 10.9441 52.1817 11.4579 51.8634 11.8989L51.2496 12.4128L50.904 12.6356C50.804 12.7083 50.7085 12.7811 50.6357 12.8584L51.9362 15.4092C52.4273 16.3414 52.9183 17.178 53.4094 17.8646L52.2317 17.9374C51.7634 17.8874 51.3723 17.7419 51.0541 17.5463C50.8085 17.228 50.563 16.8597 50.3402 16.4642L49.2352 14.1315C49.0124 13.6905 48.7942 13.2949 48.5714 12.9766L48.3986 12.9993L48.2031 12.9766C48.0576 12.9766 47.9575 13.0266 47.9348 13.1221L47.9575 16.0185C48.0076 16.3368 48.0803 16.6324 48.1803 16.9007L45.7022 16.9507L45.6795 16.8052L45.7295 16.6324L45.8295 16.4869V16.4642L45.9023 16.3186L45.8523 7.60657L45.6567 7.23826L45.6067 7.16551L45.6022 7.16096ZM19.8297 6.7199L20.0525 6.84267L19.8297 6.7199ZM19.0931 7.80209C18.9203 7.70205 18.7248 7.67932 18.5293 7.67932L18.1609 7.90212L17.8154 8.19768C17.1515 9.37536 16.8105 10.6258 16.856 11.9762L16.9287 13.2267L17.1242 14.4271C17.347 15.2865 17.7608 15.9231 18.3747 16.3641H18.7657L18.9385 16.2914L19.4296 15.9231C19.9934 15.0409 20.3117 13.9587 20.4117 12.681C20.4345 12.0899 20.4117 11.5034 20.3117 10.8895L20.2617 10.5712C20.2117 10.1029 20.0889 9.66182 19.9661 9.24349L19.4523 8.21132C19.3295 8.0158 19.2068 7.89303 19.084 7.79299L19.0931 7.80209ZM17.9882 6.55166L18.7975 6.50164L19.6069 6.64715L19.6296 6.66988H19.6797L19.8252 6.7199L20.048 6.84267L20.2935 6.98817C20.5891 7.21098 20.8846 7.47925 21.1529 7.82482L21.8395 8.78424C22.135 9.37536 22.3306 10.0347 22.4306 10.7713C22.5306 11.4579 22.5534 12.1718 22.4533 12.9084C22.3806 13.6223 22.1851 14.3316 21.9395 14.9682C21.644 15.632 21.2757 16.1959 20.8346 16.687C20.3663 17.078 19.8752 17.3235 19.3386 17.4736L17.6471 17.4236C16.5922 16.9825 15.8056 16.1959 15.3418 15.0682L15.3191 15.0182C15.0008 14.1816 14.828 13.2039 14.828 12.0717V11.6534C14.8507 10.6212 15.0508 9.71638 15.4191 8.90247C15.8374 7.99306 16.4513 7.30646 17.2834 6.81539L17.9973 6.54711L17.9882 6.55166ZM40.5686 10.4803L40.4231 9.8437C40.2276 9.1571 39.9548 8.54325 39.6138 8.00216L39.2682 7.73389L38.7544 7.68387C38.0405 8.19768 37.5994 8.96158 37.3812 9.9892L37.2084 11.4124V12.8629L37.3539 13.9178C37.4039 14.3089 37.4767 14.6317 37.5994 14.9227C37.845 15.6593 38.286 16.1504 38.8771 16.4187H38.9272L39.0499 16.3959L39.2727 16.2959L39.591 16.0731H39.6138L39.6365 16.0231L39.7593 15.9231V15.9003L39.8593 15.8003C40.1549 15.2592 40.4004 14.6453 40.5459 13.9587C40.6914 13.2949 40.7414 12.6083 40.7187 11.8989V11.5079L40.5732 10.4757L40.5686 10.4803ZM41.4508 7.75662L41.9919 8.56599C42.2601 9.10708 42.4829 9.72093 42.6057 10.3802C42.7512 11.0168 42.8012 11.6807 42.7785 12.3946C42.7785 13.0812 42.6557 13.745 42.4602 14.3816C42.2647 15.0182 41.9919 15.6093 41.6235 16.1004C41.2325 16.6642 40.7414 17.0598 40.1276 17.3008C39.5137 17.5236 38.8772 17.5964 38.2133 17.4736C37.7722 17.3736 37.4039 17.178 37.0356 16.9098C36.7173 16.6415 36.4218 16.3459 36.1535 15.9776C35.9307 15.6093 35.7352 15.241 35.5897 14.7999C35.4169 14.4089 35.3214 13.9906 35.2941 13.5722L35.1713 12.8584C35.0486 11.8035 35.0986 10.844 35.3441 9.96192C35.6624 8.73423 36.3263 7.72934 37.3084 6.99272C37.554 6.81993 37.8222 6.69716 38.1178 6.60168L39.0272 6.50164L39.9366 6.64715C40.2322 6.7199 40.5004 6.86995 40.7733 7.06547L41.4599 7.75207L41.4508 7.75662ZM5.44295 11.708V11.808C4.38804 12.3491 3.50592 13.0584 2.84206 13.9178C2.59652 13.1812 2.45101 12.4673 2.32824 11.708C2.27823 11.3624 2.22821 11.0214 2.20547 10.6758V10.5758L2.22821 8.83426L2.45101 7.38376C2.67382 6.27884 3.06486 5.22393 3.60596 4.2918C4.16979 3.28691 4.83365 2.42752 5.66575 1.71364C6.37963 1.12252 7.1117 0.708746 7.8756 0.463207C8.68497 0.167651 9.54436 0.0949004 10.4265 0.194935C10.8175 0.267687 11.2358 0.440472 11.6769 0.708746L12.8046 1.51811L12.8273 1.54085L13.6867 1.6136L13.5867 1.68635L11.9679 3.35511L12.3862 3.94622C12.509 4.16903 12.5818 4.36455 12.5818 4.5828C12.5818 4.80106 12.509 5.00113 12.409 5.19665C12.2862 5.36944 12.1634 5.51494 11.9679 5.63771L11.3541 5.71046C11.1313 5.71046 10.963 5.63771 10.7902 5.53768C10.5447 5.34215 10.3992 5.09662 10.3492 4.77833L10.3264 4.65555L10.3765 3.86892C10.3765 3.74615 10.4492 3.60065 10.572 3.42786L11.1631 2.764C11.2131 2.71398 11.2358 2.64123 11.2358 2.59121C11.2859 2.41842 11.2131 2.24564 11.0631 2.10013L10.3992 1.63179L9.56254 1.50902C8.28483 1.80458 7.25721 2.61394 6.49331 3.93713C6.17502 4.47822 5.87946 5.09207 5.65666 5.8014C5.48387 6.43799 5.33837 7.07911 5.26562 7.76571C5.07009 9.36172 5.14285 10.6622 5.4384 11.6943L5.44295 11.708Z" fill="#0D1853"/>
</svg>
