<svg width="80" height="57" viewBox="0 0 80 57" fill="none" xmlns="http://www.w3.org/2000/svg">
<path d="M52.4217 0.000306269C52.4851 0.059633 52.54 0.153488 52.6138 0.172322C52.868 0.237299 53.0639 0.376356 53.2416 0.562497C53.3558 0.68272 53.4933 0.781284 53.6236 0.885499C53.783 1.01357 53.8232 1.15922 53.7447 1.35635C53.6923 1.4885 53.6716 1.63728 53.6603 1.78042C53.6433 1.99921 53.5693 2.18001 53.4095 2.33602C53.2833 2.45907 53.1825 2.60723 53.0673 2.74189C52.8847 2.95534 52.6998 3.16754 52.5143 3.37848C52.4945 3.40108 52.4653 3.42525 52.4377 3.42901C52.0503 3.48269 51.7687 3.7517 51.4467 3.93125C51.1777 4.08098 50.8967 4.1764 50.6105 4.27152C50.5125 4.30416 50.4099 4.33838 50.327 4.39676C49.9996 4.62716 49.6597 4.81581 49.2491 4.85537C49.1534 4.86447 49.0626 4.94137 48.9735 4.99348C48.8297 5.07761 48.691 5.17052 48.5466 5.25307C48.3655 5.35697 48.1737 5.3868 47.9743 5.30863C47.8158 5.24648 47.7057 5.3055 47.6429 5.44989C47.5239 5.72361 47.2536 5.81495 47.0295 5.95558C46.9774 5.98822 46.8553 5.93423 46.7768 5.89625C46.5439 5.78356 46.3211 5.64796 46.0841 5.54531C46.0153 5.51549 45.8967 5.5428 45.8263 5.58581C45.5777 5.73742 45.3351 5.90033 45.0997 6.07203C44.8859 6.22804 44.8134 6.47853 44.7211 6.71019C44.5924 7.03225 44.3846 7.16063 44.0428 7.11009C44.0013 7.10413 43.9602 7.09471 43.9204 7.08247C43.3902 6.91736 42.9231 7.09722 42.4676 7.34489C42.3302 7.4196 42.1895 7.48928 42.052 7.56399C41.8533 7.67197 41.7827 7.75955 41.6754 8.04331C41.9171 8.09134 42.144 8.05901 42.3694 7.99811C42.5602 7.94663 42.7492 7.88888 42.9401 7.83614C43.5641 7.66412 44.1909 7.50184 44.8121 7.31915C45.4384 7.13489 46.0681 7.00086 46.7254 7.06992C47.0879 7.1079 47.3017 7.33955 47.4379 7.6522C47.5562 7.92403 47.6102 8.21062 47.5817 8.50945C47.5644 8.6912 47.597 8.85035 47.7151 9.00761C47.8253 9.15451 47.9053 9.33406 47.9574 9.51141C48.0484 9.82092 47.9555 9.97849 47.6576 10.0975C47.6382 10.1053 47.6174 10.1166 47.598 10.1157C47.2235 10.0997 46.9645 10.3335 46.6758 10.5203C46.3314 10.7428 45.9579 10.9105 45.5253 10.8292C45.5153 10.8273 45.5043 10.8292 45.4939 10.8276C45.1323 10.7708 44.8624 10.9036 44.6134 11.1741C44.3498 11.4607 44.1015 11.7517 43.9116 12.0917C43.7788 12.329 43.8711 12.5302 44.1467 12.555C44.3225 12.5707 44.5089 12.5779 44.6775 12.5361C45.0485 12.4445 45.4559 12.4721 45.7837 12.236C45.9168 12.1403 46.0247 12.0097 46.1446 11.8958C46.3637 11.6877 46.5722 11.4664 46.8079 11.2796C46.9021 11.2052 47.0565 11.1873 47.1852 11.1801C47.4658 11.1644 47.7518 11.2011 48.0283 11.1638C48.4819 11.1026 49.1078 11.4745 49.2927 11.9234C49.3888 12.1573 49.3706 12.4012 49.2667 12.6259C49.1929 12.7851 49.0808 12.9269 48.9851 13.0757C48.8784 13.2421 48.7591 13.4016 48.6662 13.5751C48.5711 13.7534 48.4571 13.8664 48.2405 13.8934C47.9342 13.9317 47.7443 14.153 47.6131 14.4104C47.4282 14.7727 47.2712 15.149 47.092 15.5144C46.8575 15.9922 46.6145 16.4661 46.3716 16.9398C46.3098 17.0603 46.2526 17.1925 46.1594 17.2857C45.9174 17.5281 45.8348 17.8385 45.7447 18.1493C45.6584 18.4471 45.6016 18.7519 45.4089 19.015C45.3009 19.1622 45.2657 19.3609 45.1797 19.5266C45.041 19.7941 44.8975 20.0606 44.7356 20.3145C44.6213 20.4934 44.4634 20.6102 44.2245 20.6275C43.969 20.6457 43.8899 20.78 43.8836 21.045C43.8818 21.1216 43.8529 21.2088 43.8083 21.271C43.6749 21.4565 43.5324 21.636 43.3842 21.8099C43.2976 21.912 43.1968 22.003 43.0961 22.0915C43.001 22.175 42.9049 22.1835 42.7825 22.1147C42.5879 22.0052 42.3226 22.1285 42.2806 22.3451C42.2677 22.4117 42.311 22.5024 42.3543 22.5639C42.4937 22.7623 42.5176 22.8185 42.3355 22.913C42.0596 23.0561 41.9692 23.3571 41.7331 23.526C41.6173 23.6089 41.5115 23.7068 41.4054 23.8026C41.3527 23.85 41.2868 23.9008 41.2667 23.963C41.1668 24.2715 40.9151 24.3315 40.6464 24.3428C40.3033 24.3575 40.2456 24.4065 40.3375 24.722C40.3906 24.9047 40.3576 25.0462 40.2371 25.184C40.1552 25.2779 40.082 25.3802 40.0098 25.4822C39.9037 25.632 39.7866 25.7497 39.5823 25.7575C39.393 25.7647 39.2392 25.8482 39.177 26.0472C39.1711 26.0667 39.161 26.0924 39.1453 26.1003C38.8085 26.2711 38.6456 26.6157 38.3832 26.8599C38.365 26.8769 38.328 26.8731 38.2536 26.8885C38.3389 26.6892 38.4118 26.5187 38.5056 26.299C38.3339 26.3596 38.2244 26.3979 38.096 26.4431C38.0367 26.1876 38.1773 26.0353 38.285 25.8803C38.5179 25.5463 38.7762 25.2295 38.9997 24.8899C39.4238 24.2458 39.8356 23.5935 40.2446 22.9397C41.0036 21.7268 41.6333 20.4432 42.2771 19.1679C42.526 18.6747 42.7247 18.154 42.9984 17.6759C43.6049 16.6165 44.243 15.575 44.8712 14.5278C44.9873 14.3338 45.1169 14.148 45.207 13.9123C45.1483 13.9339 45.0742 13.9402 45.0334 13.9804C44.8037 14.2076 44.5453 14.4183 44.3664 14.6816C44.1134 15.0542 43.7901 15.3364 43.4376 15.6001C43.264 15.73 43.102 15.876 42.9416 16.0223C42.861 16.0957 42.7806 16.1205 42.6874 16.0662C42.5976 16.0138 42.5119 15.9532 42.4271 15.8926C42.2335 15.7548 42.1418 15.7505 41.9481 15.8892C41.7359 16.0411 41.5363 16.2125 41.3153 16.3494C41.1314 16.4633 40.9327 16.5763 40.7255 16.625C40.3564 16.7116 40.1627 17.0073 39.9116 17.2349C39.8802 17.2634 39.8927 17.3749 39.9222 17.4264C39.948 17.4712 40.0268 17.4854 40.1109 17.5277C39.9822 17.6411 39.9301 17.7111 39.8604 17.7437C39.6152 17.8583 39.4683 18.0805 39.2841 18.2594C39.1981 18.3429 39.1479 18.4682 39.0973 18.5815C39.0248 18.7432 38.9215 18.8445 38.7461 18.9092C38.6095 18.9594 38.4359 19.0677 38.3958 19.1889C38.301 19.4745 38.08 19.6023 37.8527 19.7197C37.7017 19.7975 37.5937 19.8955 37.53 20.0421C37.4107 20.3164 37.2026 20.474 36.9129 20.5091C36.6627 20.5393 36.4634 20.6517 36.271 20.8067C35.9948 21.029 35.7063 21.2361 35.4156 21.4392C35.2756 21.5372 35.2059 21.6662 35.1711 21.8244C35.1397 21.9675 35.0942 22.1081 35.075 22.2528C35.0327 22.5718 34.8691 22.811 34.6353 23.0235C34.2919 23.3355 33.8681 23.279 33.5997 22.8998C33.3106 22.4914 33.2858 22.0218 33.2522 21.5576C33.2293 21.2402 33.2795 20.9266 33.3483 20.6052C33.4396 20.1783 33.4886 19.7461 33.6807 19.3465C33.6939 19.3192 33.6992 19.2856 33.7002 19.2548C33.7171 18.7199 34.0429 18.417 34.4755 18.1722C34.672 18.0611 34.8512 17.9044 35.0082 17.7396C35.802 16.904 36.6674 16.1513 37.5671 15.4318C38.2121 14.9161 38.8101 14.3486 39.2389 13.6213C39.4178 13.3181 39.6689 13.0575 39.8887 12.7788C39.9273 12.7295 39.985 12.6909 40.0098 12.6363C40.0371 12.5763 40.0362 12.5038 40.0478 12.4366C39.9809 12.4269 39.9065 12.3933 39.8491 12.4118C39.6906 12.4633 39.5412 12.5415 39.3845 12.5999C39.1227 12.6981 38.8619 12.8026 38.5932 12.8777C38.4457 12.9188 38.2824 12.9181 38.1271 12.9125C37.8806 12.9034 37.6512 12.9451 37.4296 13.0547C37.2626 13.1372 37.0846 13.1969 36.9167 13.2776C36.8429 13.313 36.7826 13.3758 36.7155 13.4251C36.5569 13.5409 36.411 13.6844 36.2361 13.766C35.8676 13.938 35.5157 14.1276 35.1814 14.3633C34.9868 14.5005 34.7282 14.551 34.494 14.627C34.3446 14.6757 34.2084 14.6254 34.085 14.5275C33.8888 14.3715 33.6838 14.2262 33.4902 14.067C33.4195 14.0089 33.3549 13.9317 33.3159 13.8495C33.0893 13.3702 32.8737 12.9003 32.831 12.345C32.7873 11.7762 32.8831 11.2225 32.8831 10.6612C32.8831 10.5576 32.9575 10.4478 33.0152 10.3514C33.138 10.1458 33.2645 9.94145 33.4057 9.74872C33.4713 9.65957 33.5686 9.58738 33.6637 9.52711C34.2561 9.15043 34.8873 8.85662 35.5544 8.63501C35.9784 8.49407 36.39 8.31484 36.815 8.17703C37.1216 8.07753 37.4384 8.00219 37.756 7.94601C38.0326 7.89704 38.317 7.89547 38.597 7.86282C38.8333 7.8352 39.0314 7.71529 39.2034 7.55834C39.3381 7.43529 39.479 7.34395 39.6648 7.31287C39.775 7.29435 39.8849 7.24162 39.9825 7.18355C40.4292 6.91642 40.8768 6.65023 41.3138 6.3671C41.5755 6.19759 41.8267 6.01616 42.1236 5.90787C42.2084 5.8771 42.2897 5.81495 42.3521 5.74809C42.591 5.49289 42.881 5.31083 43.1736 5.12657C43.3845 4.99379 43.5729 4.82492 43.7735 4.6755C43.9816 4.52075 44.2 4.37918 44.4003 4.21501C44.7459 3.93156 45.0727 3.6252 45.4224 3.34709C45.773 3.06835 46.1343 2.80153 46.5037 2.54822C47.1924 2.07611 47.8808 1.60213 48.589 1.16047C48.9035 0.964287 49.266 0.845633 49.606 0.68994C49.7482 0.624963 49.8979 0.569403 50.0266 0.483709C50.2661 0.323935 50.5197 0.222546 50.806 0.183309C50.9388 0.165103 51.1143 0.192726 51.1661 -7.62939e-06C51.5845 -7.62939e-06 52.0032 -7.62939e-06 52.4217 -7.62939e-06V0.000306269ZM45.5941 4.21815C45.3621 4.06089 45.2243 4.05398 45.0008 4.19649C44.6056 4.44824 44.2123 4.70344 43.8249 4.96711C43.5321 5.16644 43.2188 5.34975 42.9696 5.59585C42.5505 6.00894 42.0467 6.27261 41.5225 6.49737C41.2943 6.59499 41.1392 6.73122 41.0064 6.92364C40.9267 7.03915 40.8906 7.14494 40.998 7.26108C41.1078 7.37942 41.0758 7.48269 40.9691 7.58628C40.8869 7.66601 40.8225 7.76457 40.7374 7.84085C40.6062 7.95856 40.5001 7.9369 40.4248 7.77116C40.383 7.67919 40.3485 7.57466 40.2339 7.61986C40.1234 7.6635 40.013 7.73726 39.9361 7.82672C39.8805 7.89107 40.2443 8.38923 40.3388 8.39582C40.3491 8.39645 40.3604 8.39802 40.3699 8.39488C40.5557 8.32959 40.7917 8.31358 40.9164 8.18771C41.1894 7.91116 41.4867 7.68735 41.8113 7.47484C42.1789 7.2344 42.5518 7.02566 42.9617 6.87185C43.4577 6.68602 43.8905 6.40853 44.1975 5.96091C44.2766 5.84571 44.3768 5.76379 44.5384 5.79204C44.6025 5.80334 44.6787 5.77948 44.7418 5.7528C44.9239 5.67589 45.1213 5.61531 45.2764 5.4998C45.4468 5.37236 45.5897 5.20034 45.7168 5.02738C45.756 4.97402 45.7306 4.83842 45.6885 4.7681C45.6273 4.66609 45.5225 4.72416 45.4355 4.76088C45.3969 4.77721 45.3533 4.78631 45.3207 4.81079C45.0529 5.01263 44.7286 5.06034 44.4188 5.14823C44.3121 5.17868 44.2095 5.22357 44.1049 5.26186C44.2939 4.99756 44.5686 4.88173 44.8313 4.73922C45.0921 4.59766 45.3251 4.40524 45.5937 4.21878L45.5941 4.21815ZM39.2345 25.4562C39.1824 25.4351 39.1077 25.3852 39.0892 25.4009C38.9514 25.519 38.8198 25.6458 38.6996 25.7817C38.6801 25.8037 38.7169 25.8941 38.7498 25.9346C38.763 25.9506 38.8512 25.9308 38.881 25.9022C38.9915 25.7958 39.0932 25.6803 39.1949 25.5651C39.2135 25.5444 39.2157 25.5095 39.2342 25.4559L39.2345 25.4562Z" fill="#0D1853"/>
<path d="M0 32.6457C0.124617 32.6372 0.249863 32.6156 0.373539 32.6225C1.1768 32.6677 1.97944 32.7176 2.78396 32.6498C2.94719 32.636 2.94813 32.6469 3.13615 32.7556C3.03163 32.7898 2.961 32.8205 2.88723 32.8356C2.51746 32.9109 2.42392 32.9863 2.36397 33.356C2.31406 33.6646 2.2858 33.9785 2.27168 34.2911C2.2519 34.7297 2.2541 35.1688 2.24782 35.6079C2.245 35.8176 2.29805 35.8864 2.51244 35.9181C2.66688 35.941 2.82414 35.9554 2.98015 35.9561C3.74355 35.9598 4.50726 35.9608 5.27097 35.9561C5.52146 35.9545 5.77227 35.9366 6.02213 35.9181C6.22554 35.9027 6.29679 35.8336 6.32693 35.6315C6.33917 35.5496 6.3376 35.4645 6.33509 35.381C6.31625 34.7444 6.2993 34.1078 6.27419 33.4716C6.25787 33.0629 6.08428 32.8902 5.67779 32.8472C5.55882 32.8347 5.44111 32.8102 5.32308 32.7913C5.32088 32.7675 5.31869 32.7436 5.31618 32.7198C5.37299 32.6965 5.42949 32.6542 5.48694 32.6529C5.71671 32.6476 5.94711 32.6576 6.1772 32.6573C6.751 32.6567 7.32481 32.6501 7.89861 32.6535C8.02449 32.6542 8.16982 32.5904 8.307 32.7587C8.21502 32.7917 8.14628 32.8227 8.07408 32.8412C7.75202 32.9235 7.6475 33.0447 7.59664 33.3774C7.46544 34.2368 7.40517 35.1007 7.41961 35.9705C7.43499 36.9009 7.43216 37.8316 7.45696 38.7614C7.46355 39.0081 7.52476 39.2586 7.59413 39.4975C7.66005 39.7238 7.83081 39.8553 8.07565 39.8867C8.21314 39.9043 8.36977 39.8989 8.45453 40.0474C8.39897 40.1946 8.28314 40.1689 8.18583 40.1617C7.8735 40.1381 7.56274 40.0923 7.2501 40.0804C6.88598 40.0666 6.52092 40.0709 6.15648 40.0835C5.91792 40.0917 5.68061 40.1322 5.44205 40.1491C5.4003 40.1522 5.35573 40.1111 5.31084 40.0895C5.34757 39.9165 5.49039 39.941 5.58895 39.9109C6.03626 39.774 6.18881 39.6026 6.2224 39.1343C6.25065 38.7384 6.25818 38.3411 6.27796 37.9446C6.2946 37.6112 6.32818 37.2782 6.33289 36.9448C6.33854 36.544 6.23621 36.4417 5.83536 36.4401C4.77941 36.4354 3.72377 36.4366 2.66782 36.4407C2.31688 36.442 2.23401 36.5226 2.23684 36.8639C2.24311 37.6059 2.25787 38.348 2.27199 39.0897C2.27356 39.1729 2.28549 39.257 2.30338 39.3383C2.37589 39.6654 2.57428 39.8349 2.90607 39.882C3.02001 39.898 3.16064 39.8409 3.26831 40.0009C3.2005 40.0361 3.14526 40.0854 3.08593 40.0913C2.94091 40.1058 2.79149 40.118 2.64773 40.1001C1.90693 40.0075 1.16801 40.0339 0.428785 40.114C0.321431 40.1256 0.321118 40.1221 0.186455 40.0339C0.22067 39.8948 0.344032 39.9143 0.439457 39.9024C0.74896 39.8638 0.937613 39.709 0.977478 39.3892C1.00196 39.1927 1.05846 38.998 1.06223 38.8019C1.08828 37.4223 1.10869 36.0424 1.1203 34.6628C1.12313 34.3188 1.08766 33.9741 1.06945 33.6301C1.03429 32.9593 0.695912 32.8299 0.249549 32.8252C0.166366 32.8243 0.083183 32.8312 0 32.8343C0 32.7716 0 32.7088 0 32.646L0 32.6457Z" fill="#0D1853"/>
<path d="M13.7135 40.0524C13.5864 40.2128 13.4263 40.1585 13.2784 40.1469C12.8936 40.1161 12.5091 40.053 12.1249 40.0562C11.6785 40.0599 11.2328 40.1224 10.7867 40.1544C10.713 40.1597 10.6376 40.1387 10.5629 40.1302L10.5479 40.0646C10.5993 40.0254 10.6455 39.973 10.7032 39.9501C10.7798 39.9199 10.8652 39.9099 10.9478 39.8967C11.2234 39.8528 11.3514 39.6792 11.413 39.4174C11.541 38.8737 11.557 38.3203 11.5621 37.7678C11.573 36.6391 11.5718 35.5097 11.5611 34.3809C11.558 34.0482 11.5282 33.712 11.4717 33.3839C11.4045 32.9944 11.2582 32.8848 10.8586 32.8381C10.7655 32.8272 10.6746 32.7905 10.5858 32.7279C10.6069 32.7053 10.6273 32.6648 10.648 32.6645C11.5972 32.6563 12.5464 32.6513 13.4957 32.6491C13.5293 32.6491 13.5632 32.6827 13.6605 32.7345C13.5377 32.7844 13.4721 32.8302 13.4028 32.8362C13.0267 32.8679 12.8581 33.1074 12.7819 33.4408C12.7611 33.5318 12.7558 33.6266 12.747 33.7201C12.607 35.1694 12.6642 36.6227 12.662 38.0745C12.6613 38.4798 12.704 38.8859 12.7451 39.2899C12.7819 39.6515 12.9357 39.7969 13.2876 39.8801C13.4297 39.9136 13.6018 39.891 13.7135 40.053V40.0524Z" fill="#0D1853"/>
<path d="M35.8213 32.706C35.6913 32.7669 35.6342 32.8089 35.5721 32.8199C35.05 32.9122 34.6075 33.152 34.2477 33.5378C33.8208 33.9961 33.4043 34.4641 32.9793 34.924C32.8091 35.1079 32.6255 35.2793 32.4529 35.4614C32.2862 35.6371 32.2849 35.6833 32.4299 35.8591C33.167 36.7531 33.8949 37.6546 34.6476 38.5354C34.9314 38.8672 35.2629 39.1606 35.59 39.4523C35.875 39.7062 36.2052 39.8801 36.6045 39.8829C36.6716 39.8832 36.7388 39.9168 36.8794 39.9551C36.5599 40.1422 36.2849 40.1739 35.9911 40.1431C35.8056 40.1237 35.6129 40.0904 35.433 40.1205C34.8127 40.2238 34.3061 40.0069 33.9291 39.5458C33.2624 38.73 32.6377 37.8799 31.987 37.0509C31.8072 36.8218 31.5997 36.614 31.4004 36.4005C31.3297 36.3252 31.2453 36.2631 31.1489 36.1789C31.2123 36.0932 31.2513 36.021 31.3078 35.9674C32.1512 35.1632 32.8587 34.2491 33.4893 33.2732C33.5738 33.1426 33.6328 32.9947 33.6981 32.8526C33.7477 32.7446 33.8274 32.7 33.9442 32.695C34.4863 32.6711 35.0284 32.6407 35.5705 32.6193C35.6295 32.6171 35.6904 32.6592 35.8222 32.7063L35.8213 32.706Z" fill="#0D1853"/>
<path d="M41.2233 40.011C41.0476 40.2065 40.8985 40.1566 40.7572 40.1469C40.2886 40.1142 39.8205 40.0587 39.3516 40.0552C39 40.0527 38.6481 40.1196 38.2963 40.1503C38.2128 40.1575 38.1274 40.1447 38.0426 40.1409C38.0379 40.1186 38.0335 40.0963 38.0288 40.0741C38.0712 40.0405 38.1085 39.994 38.1566 39.9764C38.2539 39.9406 38.3559 39.9155 38.4579 39.8951C38.731 39.8402 38.8437 39.6663 38.904 39.4011C39.0185 38.8963 39.044 38.3862 39.0471 37.8746C39.0543 36.6927 39.0559 35.5106 39.0455 34.3288C39.0427 34.0064 39.0107 33.6812 38.9564 33.3632C38.8945 33.001 38.7517 32.8914 38.3907 32.84C38.2862 32.8252 38.1588 32.8588 38.0828 32.7147C38.1255 32.6915 38.1591 32.6573 38.1933 32.657C39.1224 32.6507 40.0519 32.6475 40.981 32.6469C41.0155 32.6469 41.0504 32.6774 41.1373 32.7182C41.0394 32.7718 40.9854 32.8258 40.9295 32.8277C40.4819 32.8447 40.2986 33.1846 40.2437 33.5895C40.2186 33.7757 40.2022 33.964 40.1953 34.1517C40.1712 34.809 40.1448 35.4667 40.1341 36.1243C40.1238 36.7728 40.1203 37.4216 40.1363 38.0698C40.1464 38.476 40.1869 38.8825 40.2343 39.2868C40.2785 39.6638 40.427 39.8 40.8068 39.8848C40.9321 39.9127 41.0529 39.9588 41.2224 40.011H41.2233Z" fill="#0D1853"/>
<path d="M32.0415 40.0411C32.0066 40.0577 31.9721 40.0885 31.9372 40.0888C31.0207 40.0919 30.1038 40.0926 29.1872 40.0897C29.142 40.0897 29.0968 40.0511 29.0026 40.0081C29.0962 39.9551 29.148 39.9089 29.207 39.8954C29.5491 39.817 29.7061 39.6679 29.7632 39.3194C29.8087 39.042 29.8574 38.7616 29.864 38.4816C29.8903 37.3234 29.9139 36.1648 29.912 35.0065C29.9114 34.5074 29.8489 34.008 29.81 33.5089C29.777 33.0845 29.675 32.968 29.2572 32.8707C29.1206 32.839 28.9819 32.8167 28.8444 32.7904C28.8422 32.7665 28.8403 32.743 28.8381 32.7191C28.895 32.6959 28.9515 32.6541 29.0086 32.6532C29.2384 32.6491 29.4681 32.6604 29.6979 32.6604C30.3235 32.6604 30.9488 32.6598 31.5744 32.6554C31.6981 32.6544 31.6977 32.6469 31.8905 32.7659C31.7797 32.8073 31.7003 32.8453 31.6164 32.8666C31.2347 32.9636 31.1757 33.0421 31.1205 33.4404C30.978 34.4681 30.9695 35.5006 30.9824 36.5352C30.9899 37.1517 30.9714 37.7685 30.9899 38.3843C31.0006 38.7362 31.0524 39.0881 31.1051 39.4368C31.1447 39.6989 31.3421 39.8119 31.5832 39.8662C31.7386 39.9011 31.8927 39.9428 32.0471 39.9814C32.0452 40.0015 32.0433 40.0213 32.0411 40.0414L32.0415 40.0411Z" fill="#0D1853"/>
<path d="M26.8089 40.0778C26.6743 40.2027 26.5092 40.1578 26.3472 40.1431C25.9733 40.1092 25.5992 40.0517 25.2253 40.0552C24.7786 40.0593 24.3323 40.1174 23.8856 40.1516C23.7974 40.1585 23.6951 40.2043 23.6467 40.0558C23.756 39.9334 23.9223 39.9246 24.0645 39.8964C24.3015 39.8493 24.4409 39.7171 24.4958 39.4974C24.5486 39.2858 24.5891 39.0696 24.6145 38.8527C24.6412 38.6251 24.6493 38.3944 24.6556 38.1649C24.6785 37.3306 24.7165 36.4959 24.7112 35.6616C24.7068 34.9631 24.655 34.2644 24.6148 33.5666C24.5853 33.0553 24.3634 32.8428 23.9368 32.8327C23.8643 32.8312 23.7924 32.7888 23.67 32.7492C23.7566 32.6965 23.7896 32.6588 23.8228 32.6585C24.7516 32.6525 25.6802 32.6497 26.609 32.6497C26.6545 32.6497 26.7 32.6805 26.7477 32.6974C26.7132 32.8459 26.6014 32.8264 26.5186 32.8362C26.1862 32.8757 25.9815 33.0493 25.9237 33.3827C25.8829 33.6187 25.8186 33.8548 25.8142 34.0918C25.7894 35.4396 25.7768 36.7875 25.7671 38.1354C25.7649 38.4273 25.7781 38.7208 25.8085 39.0112C25.8277 39.1945 25.8773 39.3788 25.941 39.5523C26.0104 39.7422 26.1648 39.8424 26.3689 39.876C26.5192 39.9008 26.6655 39.9507 26.8136 39.9893C26.8121 40.0185 26.8105 40.048 26.8089 40.0772V40.0778Z" fill="#0D1853"/>
<path d="M24.8528 43.5128C24.7442 43.6518 24.66 43.7272 24.6167 43.8213C24.4726 44.1334 24.3471 44.4535 24.2065 44.7671C24.1609 44.8685 24.0909 44.9589 24.0391 45.043C23.8618 45.0386 23.8235 44.9275 23.7861 44.818C23.5972 44.2664 23.4113 43.7134 23.2189 43.1628C23.1568 42.9851 23.077 42.815 22.9057 42.7083C22.8451 42.6706 22.7949 42.6169 22.7314 42.5639C22.9097 42.4709 23.4073 42.4496 23.8458 42.4998C23.8505 42.519 23.8659 42.5479 23.8587 42.5554C23.6709 42.7553 23.6722 42.9829 23.7563 43.224C23.8251 43.4205 23.8853 43.6204 23.9638 43.8132C24.0046 43.9127 24.0768 43.9996 24.1609 44.1337C24.2247 44.0247 24.2677 43.9704 24.2909 43.9086C24.4447 43.499 24.5907 43.0865 24.7489 42.6784C24.7793 42.5996 24.8446 42.4888 24.9083 42.4782C25.0367 42.4565 25.0533 42.5896 25.0923 42.6875C25.2342 43.0448 25.3836 43.3988 25.532 43.7532C25.5832 43.875 25.64 43.9943 25.7059 44.1412C25.7684 44.0838 25.8324 44.0527 25.8491 44.005C25.9615 43.6801 26.0779 43.3552 26.1649 43.0231C26.2251 42.7921 26.1806 42.7437 25.8773 42.5246C26.0581 42.4066 26.2458 42.5039 26.4223 42.487C26.6006 42.4697 26.782 42.4832 26.9615 42.4832C26.9615 42.5227 26.9694 42.5554 26.9603 42.5607C26.5839 42.7908 26.448 43.1763 26.3146 43.5617C26.1815 43.9463 26.0628 44.3358 25.9197 44.7163C25.8723 44.8418 25.8566 45.0333 25.6714 45.0405C25.4937 45.0474 25.4909 44.866 25.4354 44.7492C25.253 44.3647 25.0722 43.9795 24.8525 43.5128H24.8528Z" fill="#0D1853"/>
<path d="M30.2526 44.9555C29.9299 45.0603 29.6254 45.018 29.2544 45.018C29.5187 44.7072 29.4575 44.3927 29.4647 44.0879C29.4688 43.92 29.3991 43.8305 29.2283 43.8302C28.9574 43.8302 28.6862 43.8333 28.4153 43.833C28.2625 43.833 28.1799 43.9065 28.1771 44.0593C28.1739 44.2263 28.1786 44.3933 28.1765 44.5606C28.1739 44.7599 28.34 44.8296 28.4765 44.9241C28.3026 45.0453 27.8983 45.0694 27.5132 44.9929C27.5069 44.9737 27.49 44.9433 27.4965 44.9367C27.7191 44.7154 27.6996 44.4266 27.7094 44.1507C27.72 43.8481 27.704 43.5445 27.7141 43.2419C27.7222 42.998 27.6695 42.7877 27.4717 42.6279C27.4435 42.605 27.43 42.5642 27.3879 42.4974H28.4185C28.1962 42.7538 28.1921 43.0244 28.1786 43.2906C28.1658 43.5517 28.221 43.6079 28.4762 43.6117C28.706 43.6148 28.9358 43.6152 29.1655 43.6117C29.4129 43.6076 29.4487 43.5696 29.4634 43.317C29.4653 43.2856 29.4631 43.2542 29.465 43.2231C29.4826 42.9431 29.4867 42.6697 29.1109 42.5611C29.3131 42.3969 29.502 42.5074 29.6744 42.488C29.8473 42.4685 30.0241 42.4836 30.1942 42.4836C30.2023 42.5212 30.2168 42.5507 30.2096 42.5583C29.9842 42.7814 29.9315 43.0539 29.9475 43.3606C29.9641 43.6723 29.9632 43.9865 29.9475 44.2982C29.9333 44.5703 29.9927 44.7929 30.2535 44.9561L30.2526 44.9555Z" fill="#0D1853"/>
<path d="M6.84885 43.3506C6.83912 43.4391 6.82185 43.5276 6.8206 43.6164C6.81683 43.8566 6.82279 44.097 6.81934 44.3371C6.81589 44.5936 6.85889 44.818 7.15615 44.8915C7.1684 44.8946 7.17342 44.926 7.20104 44.9863C6.89217 45.0663 6.5993 45.0309 6.2289 44.9954C6.59208 44.6602 6.54656 44.28 6.54876 43.9109C6.55002 43.6811 6.54625 43.4513 6.55253 43.2216C6.561 42.9196 6.48881 42.6653 6.1228 42.5332C6.2154 42.4874 6.26092 42.4487 6.30957 42.4443C6.41316 42.4349 6.51926 42.4547 6.62221 42.4425C6.86737 42.4136 7.00643 42.5272 7.16526 42.7137C7.53628 43.149 7.95251 43.5461 8.35524 43.9539C8.40107 44.0003 8.47735 44.0173 8.56461 44.0606C8.58376 43.9661 8.60793 43.8993 8.60919 43.8315C8.61421 43.6017 8.61515 43.3719 8.61044 43.1421C8.60479 42.8697 8.52067 42.6487 8.2143 42.5875C8.19735 42.584 8.18291 42.5627 8.16973 42.5473C8.16345 42.5401 8.16314 42.5278 8.16031 42.5178C8.32291 42.4287 8.80004 42.4089 9.14187 42.4848C8.83049 42.843 8.88573 43.274 8.87694 43.6908C8.86972 44.0355 8.8738 44.3802 8.87255 44.7248C8.87255 44.7769 8.87663 44.8303 8.86784 44.8811C8.83896 45.0491 8.73067 45.0918 8.60668 44.9741C8.49367 44.8667 8.40327 44.7361 8.29403 44.625C7.9205 44.2452 7.54413 43.8682 7.16557 43.4934C7.09589 43.4243 7.01145 43.3703 6.93391 43.3094C6.90566 43.3229 6.87741 43.3364 6.84916 43.3499L6.84885 43.3506Z" fill="#0D1853"/>
<path d="M37.9371 44.9247C37.5234 45.1369 37.0438 45.0512 36.7776 44.7405C36.5874 44.5186 36.4075 44.2878 36.2195 44.064C36.1573 43.9903 36.0839 43.9259 35.9649 43.8066C35.9348 43.9579 35.909 44.0333 35.9075 44.1095C35.9053 44.2028 35.9254 44.2963 35.9316 44.3902C35.9467 44.6102 35.8566 44.8805 36.2659 44.8999C36.0277 45.045 35.4304 45.0685 35.1507 44.9756C35.1676 44.9392 35.1745 44.888 35.2015 44.8733C35.4206 44.7521 35.4385 44.5421 35.4417 44.3312C35.4476 43.9237 35.441 43.5163 35.4442 43.1088C35.4457 42.8966 35.399 42.7152 35.1918 42.6094C35.1698 42.5981 35.1617 42.5595 35.1252 42.4945H36.2399C36.1316 42.6527 35.9012 42.7256 35.9342 42.9588C35.9612 43.149 35.8733 43.3527 36.0086 43.5627C36.0698 43.5088 36.1272 43.4708 36.1683 43.4196C36.3513 43.1917 36.5262 42.9572 36.7101 42.7303C36.8862 42.5128 37.1066 42.4104 37.4519 42.4989C37.3596 42.5768 37.309 42.6349 37.2456 42.6697C36.9314 42.842 36.7434 43.1355 36.5281 43.4033C36.4499 43.5006 36.4603 43.5879 36.5422 43.6823C36.7748 43.9501 37.0005 44.2235 37.2312 44.4928C37.4173 44.71 37.6487 44.8573 37.9365 44.926L37.9371 44.9247Z" fill="#0D1853"/>
<path d="M4.49677 42.54C4.69296 42.4154 5.29282 42.4092 5.53421 42.5278C5.2652 42.6606 5.26708 42.8951 5.26488 43.1396C5.26206 43.473 5.22282 43.8057 5.22156 44.139C5.21905 44.8663 4.54229 45.2032 4.00113 45.1175C3.88844 45.0996 3.77795 45.0644 3.66777 45.033C3.36862 44.9483 3.18405 44.7537 3.131 44.4463C3.10275 44.2825 3.08141 44.1161 3.07513 43.9501C3.06571 43.7103 3.06571 43.4695 3.07419 43.2297C3.08517 42.9196 3.04939 42.6424 2.60522 42.5454C2.878 42.3705 3.10683 42.4547 3.31463 42.4528C3.52212 42.4509 3.74405 42.3781 3.94682 42.4955C3.9349 42.5319 3.9327 42.5648 3.9214 42.5683C3.63167 42.6587 3.59557 42.886 3.60373 43.1415C3.61566 43.5169 3.60311 43.8945 3.63858 44.2674C3.67311 44.6306 3.99705 44.8773 4.33198 44.8419C4.58812 44.8146 4.85807 44.5678 4.87722 44.274C4.9061 43.827 4.89699 43.3769 4.89228 42.9283C4.89072 42.7843 4.81507 42.6716 4.66502 42.6229C4.6104 42.6053 4.56112 42.5724 4.49646 42.54H4.49677Z" fill="#0D1853"/>
<path d="M18.3433 42.5369C18.7306 42.3099 19.2099 42.39 19.4391 42.7058C19.5555 42.8662 19.6638 43.0322 19.7781 43.1942C19.9366 43.4186 20.0088 43.4233 20.1667 43.2099C20.2907 43.0423 20.4024 42.8659 20.5261 42.6979C20.7279 42.4236 21.0127 42.3592 21.314 42.5177C21.297 42.5432 21.2842 42.5852 21.2631 42.5899C20.9395 42.6599 20.7527 42.8988 20.5713 43.1443C20.5217 43.2111 20.4866 43.2903 20.4307 43.3508C20.1811 43.6208 20.0998 43.935 20.1278 44.2988C20.1482 44.5628 20.0926 44.8444 20.5076 44.9024C20.491 44.925 20.474 44.9479 20.4574 44.9705C20.3861 44.9906 20.3155 45.0239 20.2433 45.0286C19.7574 45.0606 19.537 45.0383 19.348 44.9385C19.4011 44.8977 19.4491 44.8657 19.4909 44.8268C19.5351 44.7857 19.6086 44.7383 19.6089 44.6931C19.6105 44.4149 19.6682 44.1058 19.5678 43.8653C19.418 43.5068 19.1682 43.1848 18.9287 42.8721C18.8364 42.7516 18.6572 42.6964 18.5159 42.6147C18.4663 42.5862 18.4107 42.567 18.3433 42.5369Z" fill="#0D1853"/>
<path d="M11.4761 44.9417C11.0655 45.0634 10.6694 45.0365 10.2544 44.9639C10.6455 44.7709 10.6078 44.4174 10.6226 44.0951C10.6374 43.7714 10.6292 43.4466 10.6245 43.1223C10.6223 42.9829 10.67 42.8166 10.4823 42.7469C10.3087 42.6825 10.0187 42.7654 9.91382 42.9092C9.86673 42.9738 9.82781 43.0448 9.76566 43.1433C9.62409 42.9261 9.71261 42.7378 9.75436 42.5633C9.78637 42.4302 9.92417 42.4386 10.0441 42.4396C10.6179 42.4443 11.1917 42.4437 11.7658 42.4449C11.8559 42.4449 11.946 42.4449 12.0508 42.4449C12.0703 42.6769 12.0989 42.8765 11.9799 43.0991C11.9253 43.03 11.8788 42.9898 11.8568 42.9393C11.7934 42.793 11.6767 42.7497 11.531 42.739C11.1807 42.7133 11.1101 42.7767 11.1088 43.1364C11.1073 43.5338 11.1189 43.9318 11.1047 44.3286C11.0947 44.6102 11.1126 44.8544 11.4761 44.9413V44.9417Z" fill="#0D1853"/>
<path d="M40.5561 42.5425C40.0385 42.7915 39.7867 43.2673 39.4964 43.7115C39.3655 43.9118 39.3828 44.1258 39.3884 44.3462C39.3944 44.5713 39.4154 44.7831 39.6169 44.9294C39.6304 44.9391 39.6301 44.9674 39.6408 45.001C39.4892 45.1733 39.3124 45.0107 39.1517 45.0195C38.9872 45.0286 38.8121 45.13 38.652 45.0339C38.652 44.985 38.6432 44.957 38.6533 44.9457C38.7468 44.8412 38.9016 44.7872 38.905 44.6099C38.9107 44.3393 38.9612 44.0631 38.8225 43.8104C38.566 43.343 38.3142 42.8702 37.812 42.6078C37.7888 42.5956 37.7781 42.5598 37.7615 42.5347C38.0653 42.3611 38.4577 42.411 38.6564 42.6596C38.7867 42.8222 38.8918 43.0043 39.0152 43.1725C39.0864 43.2695 39.1715 43.3565 39.2807 43.4833C39.4575 43.2271 39.6072 43.0062 39.7613 42.7883C39.9713 42.4911 40.1741 42.4214 40.5558 42.5432L40.5561 42.5425Z" fill="#0D1853"/>
<path d="M0.639764 44.3223C0.690929 44.4551 0.702857 44.544 0.752139 44.5998C0.830614 44.6893 0.922272 44.7894 1.029 44.8274C1.23994 44.9021 1.47473 44.8152 1.56168 44.6695C1.64769 44.5257 1.61222 44.3616 1.41823 44.1698C1.27823 44.0314 1.10684 43.9253 0.961195 43.7922C0.855098 43.6949 0.747117 43.5891 0.675862 43.466C0.433533 43.047 0.664248 42.5542 1.13886 42.4452C1.41101 42.3828 1.67374 42.4286 1.95248 42.4848C1.96944 42.7086 1.9867 42.9176 1.8693 43.16C1.81751 43.0824 1.76917 43.0435 1.76948 43.0055C1.77231 42.7871 1.61504 42.723 1.45276 42.6737C1.20478 42.5984 0.974065 42.8112 1.04877 43.0583C1.08236 43.1691 1.17057 43.2746 1.2594 43.3543C1.4063 43.4858 1.58428 43.5828 1.73025 43.7153C2.09186 44.0436 2.1471 44.3522 1.93679 44.7452C1.74029 45.1127 0.965904 45.2672 0.651692 44.9988C0.530213 44.8949 0.512321 44.635 0.63945 44.3227L0.639764 44.3223Z" fill="#0D1853"/>
<path d="M32.9435 44.3227C32.9774 44.4012 33.0066 44.4614 33.0304 44.5239C33.1406 44.8143 33.4856 44.9483 33.7521 44.8026C33.93 44.7053 33.9709 44.4391 33.8196 44.2549C33.7348 44.1516 33.6212 44.0709 33.5192 43.9824C33.3854 43.8663 33.2404 43.7614 33.1167 43.6356C32.9105 43.4253 32.8361 43.1631 32.9347 42.885C33.0339 42.605 33.2561 42.4493 33.5546 42.433C33.7411 42.423 33.9291 42.438 34.1159 42.4512C34.254 42.461 34.3265 42.5375 34.297 42.6829C34.2706 42.8125 34.2396 42.9412 34.1959 43.1349C34.1313 43.0341 34.1033 42.9896 34.0744 42.9456C34.0305 42.8784 34.0004 42.7906 33.9391 42.7485C33.737 42.6101 33.5151 42.632 33.403 42.7833C33.2925 42.9324 33.3314 43.1434 33.5204 43.3079C33.7166 43.4783 33.9253 43.6349 34.1306 43.795C34.426 44.0257 34.4197 44.5798 34.1893 44.8497C33.9527 45.1269 33.2975 45.2214 32.9993 45.0114C32.8339 44.8949 32.7962 44.5572 32.9435 44.3227Z" fill="#0D1853"/>
<path d="M44.0158 39.1813C44.0199 39.7451 43.5902 40.1566 43.0098 40.1588C42.5631 40.1604 42.0502 39.7746 42.0565 39.1895C42.0624 38.6373 42.521 38.1414 43.0496 38.1954C43.5704 38.2484 44.0193 38.5495 44.0158 39.1813ZM43.3623 39.7733C43.1444 39.5042 42.9907 39.3609 42.9012 39.3433C42.7809 39.4268 42.9275 39.6503 42.7225 39.6964C42.6212 39.45 42.6208 38.9516 42.7263 38.6716C42.8707 38.6653 43.0261 38.6474 43.1802 38.6537C43.4681 38.6656 43.5807 38.8819 43.436 39.1283C43.2756 39.402 43.2907 39.4601 43.5757 39.6647C43.5946 39.6581 43.6215 39.6572 43.6319 39.6437C43.8708 39.3238 43.8623 38.9252 43.5817 38.6465C43.2822 38.3486 43.0032 38.3169 42.6271 38.5419C42.182 38.8081 42.2162 39.4406 42.4699 39.6895C42.5612 39.779 42.6959 39.8242 42.8095 39.8914C43.0433 40.0292 43.173 40.0022 43.362 39.774L43.3623 39.7733ZM42.989 39.1016C43.0666 39.0297 43.1143 38.9855 43.162 38.9415C43.1162 38.8982 43.0722 38.8232 43.0242 38.8207C42.9749 38.8178 42.8949 38.8772 42.8789 38.9258C42.8673 38.9616 42.9372 39.0241 42.989 39.1019V39.1016Z" fill="#0D1853"/>
<path d="M31.0929 45.06C31.0929 44.9919 31.08 44.9473 31.0948 44.9338C31.2859 44.7628 31.3001 44.5367 31.3026 44.3042C31.3057 43.9802 31.3198 43.6559 31.3173 43.332C31.3151 43.0388 31.3195 42.7375 30.9946 42.5636C31.1736 42.4735 31.7922 42.4518 32.0914 42.509C32.0845 42.5372 32.0867 42.5793 32.0694 42.5903C31.818 42.7516 31.7634 42.9889 31.7737 43.2692C31.7869 43.6242 31.7787 43.9805 31.7769 44.3362C31.7753 44.5882 31.7998 44.8224 32.0933 44.9125C32.1058 44.9163 32.1096 44.9483 32.1256 44.9869C31.9652 45.1379 31.7765 44.9925 31.6067 45.0233C31.4407 45.0531 31.2683 45.049 31.0932 45.0603L31.0929 45.06Z" fill="#0D1853"/>
<path d="M36.9561 27.7837C36.9796 27.7297 36.9928 27.6672 37.0286 27.623C37.2627 27.3335 37.5016 27.0479 37.7395 26.7616C37.7593 26.7378 37.7791 26.7042 37.8048 26.6973C37.8497 26.685 37.9172 26.6703 37.9423 26.6932C37.9696 26.718 37.9828 26.8009 37.9621 26.8291C37.8645 26.9622 37.8196 27.1201 37.7471 27.2582C37.5955 27.5457 37.3202 27.7306 37.0257 27.86C37.0028 27.8345 36.9796 27.8094 36.9567 27.784L36.9561 27.7837Z" fill="#0D1853"/>
<path d="M56.4863 37.992C56.4276 38.153 56.2399 38.2651 56.0427 38.2566C56.1846 38.0751 56.3001 38.0061 56.4863 37.992Z" fill="#0D1853"/>
<path d="M53.3381 26.3401C53.2313 26.4183 53.1874 26.4763 53.145 26.4757C53.0838 26.4745 53.0232 26.4302 52.9626 26.4045C52.9953 26.3614 53.0239 26.2871 53.0615 26.2827C53.1281 26.2745 53.2 26.3081 53.3384 26.3404L53.3381 26.3401Z" fill="#0D1853"/>
<path d="M40.8699 16.8933C40.9066 17.2013 40.9013 17.2053 40.6401 17.1074C40.712 17.0406 40.7701 16.9862 40.8699 16.8933Z" fill="#0D1853"/>
<path d="M47.9023 21.323C47.9481 21.3739 47.9971 21.4091 47.9918 21.4254C47.9773 21.4678 47.9387 21.502 47.9095 21.5393C47.8825 21.5161 47.8317 21.4907 47.8335 21.4696C47.837 21.4282 47.8693 21.389 47.9026 21.323H47.9023Z" fill="#0D1853"/>
<path fill-rule="evenodd" clip-rule="evenodd" d="M54.3986 56.3457C54.4723 56.3972 54.546 56.4488 54.6183 56.5019L54.6174 56.5047H55.3707C55.3807 56.3778 55.4692 56.3306 55.5575 56.2835C55.5968 56.2626 55.636 56.2416 55.6683 56.2137C55.6986 56.1875 55.7335 56.1644 55.7682 56.1414C55.8312 56.0996 55.8936 56.0582 55.927 55.9997C56.0362 55.8079 56.1536 55.6305 56.314 55.4761C56.3515 55.4401 56.3683 55.3836 56.3854 55.3263C56.396 55.2905 56.4067 55.2545 56.4226 55.2228C56.4432 55.1818 56.4574 55.1368 56.4714 55.092C56.5032 54.9912 56.5344 54.8919 56.637 54.8445C56.7747 54.9376 56.9107 55.0302 57.0456 55.122C57.357 55.3339 57.6629 55.5421 57.9723 55.7451C58.3434 55.9887 58.7464 56.1532 59.195 56.1867C59.2029 56.1873 59.211 56.188 59.2192 56.1887C59.3197 56.197 59.4375 56.2068 59.4637 56.091C59.4805 56.0165 59.5051 55.9436 59.5297 55.8708C59.5987 55.666 59.6679 55.4611 59.5669 55.2168C59.4863 55.0212 59.4913 54.7557 59.5503 54.5479C59.5552 54.5308 59.56 54.5138 59.5649 54.4969C59.6114 54.3348 59.6553 54.1822 59.6511 54.0074C59.6491 53.9273 59.6744 53.8471 59.6997 53.7664C59.7156 53.7162 59.7314 53.6657 59.7408 53.615C59.7438 53.5988 59.7471 53.5825 59.7503 53.566C59.7691 53.4706 59.7886 53.3713 59.771 53.2816C59.6633 52.7345 59.5983 52.1767 59.6828 51.6315C59.7745 51.037 59.7738 50.4444 59.773 49.8505C59.7729 49.7456 59.7728 49.6408 59.7732 49.5359C59.7732 49.5233 59.7733 49.5107 59.7733 49.4981C59.7741 49.3431 59.775 49.1853 59.743 49.0362C59.6329 48.5187 59.6086 47.9943 59.5843 47.4698C59.5745 47.2572 59.5646 47.0445 59.549 46.8323C59.5277 46.543 59.516 46.2531 59.5043 45.9632C59.4979 45.8044 59.4914 45.6456 59.4834 45.4869C59.4753 45.3243 59.4671 45.1618 59.459 44.9993C59.4148 44.1188 59.3707 43.2385 59.323 42.3583C59.3096 42.1098 59.2932 41.8613 59.2769 41.6129C59.2521 41.236 59.2273 40.8591 59.2125 40.4818C59.2019 40.2131 59.2223 39.9397 59.2618 39.6735C59.3246 39.2529 59.5867 38.9286 59.8538 38.6213C60.2343 38.1834 60.417 37.7019 60.2789 37.1225C60.2669 37.0719 60.2588 37.0189 60.2588 36.9671C60.2581 36.8142 60.3137 36.7533 60.465 36.759C60.5352 36.7615 60.6051 36.7699 60.6751 36.7782C60.7503 36.7872 60.8255 36.7961 60.901 36.7979C60.9899 36.8001 61.0789 36.8032 61.168 36.8064C61.4532 36.8165 61.7389 36.8267 62.0216 36.8042C62.0837 36.7992 62.1458 36.7938 62.208 36.7885C62.6154 36.7532 63.0245 36.7178 63.4216 36.8035C63.9276 36.9128 64.4311 36.9627 64.9453 36.9636C65.0839 36.9639 65.2225 36.9815 65.361 36.9992C65.419 37.0066 65.477 37.014 65.5351 37.0201C65.6627 37.0336 65.7898 37.0532 65.9169 37.0728C66.2103 37.118 66.5037 37.1631 66.8045 37.1331C66.8442 37.1292 66.8851 37.1415 66.9263 37.154C66.9568 37.1632 66.9874 37.1724 67.0179 37.1752C67.0349 37.1768 67.0518 37.1783 67.0687 37.1799C67.2684 37.1982 67.4684 37.2165 67.6686 37.2226C67.7612 37.2254 67.8544 37.2216 67.9475 37.2178C68.0939 37.2119 68.2401 37.206 68.3831 37.2257C68.507 37.2428 68.6308 37.2605 68.7546 37.2782C69.2381 37.3472 69.7214 37.4161 70.21 37.4499C70.393 37.4625 70.5749 37.4891 70.7569 37.5157C70.9366 37.542 71.1163 37.5683 71.297 37.5811C71.7656 37.6143 72.2368 37.6307 72.7067 37.6297C72.9205 37.6292 73.1347 37.6008 73.3483 37.5724C73.4026 37.5652 73.4568 37.558 73.5109 37.5513C73.5797 37.5428 73.648 37.5285 73.7162 37.5143C73.8117 37.4944 73.907 37.4746 74.0031 37.4706C74.0913 37.467 74.1856 37.5115 74.2716 37.552C74.2773 37.5547 74.2831 37.5574 74.2887 37.56C74.3297 37.5792 74.3685 37.6066 74.4069 37.6338C74.4655 37.6752 74.5232 37.716 74.5866 37.7264C75.0192 37.797 75.4555 37.8517 75.8902 37.7333C76.0937 37.6777 76.2936 37.6266 76.5027 37.7214C76.5654 37.7499 76.6458 37.7521 76.7171 37.7474L76.7278 37.7467C76.9321 37.7332 77.1371 37.7195 77.3383 37.6853C77.4189 37.6718 77.5043 37.6153 77.5624 37.5544C77.6974 37.4125 77.7787 37.3927 77.9306 37.5029C77.9583 37.5231 77.985 37.5451 78.0117 37.567C78.0577 37.605 78.1037 37.6429 78.155 37.6712C78.408 37.8105 78.607 37.7154 78.6039 37.4285C78.6014 37.194 78.704 37.1215 78.9037 37.0757C79.1642 37.0157 79.4028 36.9065 79.5023 36.6256C79.5644 36.4501 79.6793 36.3242 79.83 36.2178C79.8737 36.1869 79.9044 36.1379 79.9403 36.081C79.9582 36.0524 79.9774 36.0219 80.0001 35.9906C79.9648 35.9784 79.9361 35.9673 79.9117 35.9578C79.8681 35.9409 79.8379 35.9292 79.8068 35.9256C79.5797 35.8996 79.3524 35.875 79.1251 35.8504C78.9272 35.829 78.7292 35.8076 78.5314 35.7853C78.4404 35.775 78.3494 35.7647 78.2583 35.7545C77.7798 35.7006 77.301 35.6467 76.8232 35.5869C76.6856 35.5697 76.5487 35.5464 76.4118 35.5231C76.229 35.492 76.0462 35.4609 75.862 35.4444C75.3872 35.4021 74.9118 35.3664 74.4364 35.3307C74.0897 35.3047 73.7429 35.2787 73.3963 35.2501C73.1438 35.2293 72.8916 35.2046 72.6394 35.18C72.3515 35.1518 72.0637 35.1237 71.7754 35.1013C71.429 35.0745 71.0823 35.0533 70.7357 35.0321C70.4886 35.017 70.2415 35.0019 69.9946 34.9848C69.7094 34.9651 69.4242 34.943 69.1391 34.9209C68.6223 34.8808 68.1054 34.8408 67.588 34.8147C66.8953 34.7799 66.2018 34.7604 65.5083 34.741C65.2825 34.7347 65.0567 34.7283 64.831 34.7215C64.7275 34.7183 64.6232 34.7206 64.5191 34.7228C64.3292 34.7269 64.1395 34.731 63.9546 34.7026C63.3748 34.6135 62.8792 34.3153 62.4137 33.9744C62.2812 33.8774 62.2357 33.7264 62.3157 33.5528C62.4207 33.3254 62.5173 33.0941 62.6139 32.8629C62.634 32.8148 62.6541 32.7668 62.6742 32.7188C62.7142 32.6235 62.7551 32.5286 62.7961 32.4336C62.9077 32.175 63.0192 31.9163 63.1108 31.6509C63.1389 31.5697 63.165 31.4878 63.191 31.4059C63.2783 31.1317 63.3654 30.8584 63.5261 30.6135C63.5315 30.605 63.5349 30.5946 63.5377 30.5846C63.6175 30.3003 63.7901 30.0714 63.9623 29.8429C64.0224 29.7632 64.0825 29.6835 64.1385 29.6015C64.2104 29.4963 64.3407 29.4232 64.4571 29.3585C64.5503 29.3068 64.6485 29.2639 64.7466 29.2211C64.9528 29.1311 65.1589 29.0412 65.3175 28.8692C65.3853 28.7957 65.4541 28.7153 65.4927 28.6253C65.5774 28.4278 65.5837 28.2194 65.5269 28.0103C65.3813 27.4754 65.1455 26.9964 64.7042 26.637C64.6578 26.5994 64.6229 26.5475 64.5778 26.4805C64.5533 26.4441 64.5259 26.4033 64.492 26.358C64.5566 26.3485 64.6141 26.3412 64.6668 26.3345C64.7761 26.3206 64.8642 26.3095 64.9493 26.287C65.0445 26.2619 65.1578 26.228 65.2171 26.1586C65.3926 25.9537 65.5627 25.7396 65.7002 25.5082C65.7749 25.3827 65.8169 25.2116 65.805 25.0669C65.7865 24.8406 65.8791 24.7172 66.0574 24.6105C66.1899 24.5311 66.3186 24.4369 66.4262 24.3274C66.5436 24.2078 66.5292 24.1205 66.4011 24.0084C66.3474 23.9614 66.2828 23.9118 66.2159 23.8976C66.0078 23.8537 65.806 23.7792 65.6041 23.7048C65.193 23.5531 64.782 23.4015 64.3184 23.5078C64.1141 23.437 63.9208 23.4856 63.7273 23.5343C63.6093 23.564 63.4913 23.5937 63.3707 23.5963C63.2645 23.5986 63.1584 23.6061 63.0523 23.6135C62.9307 23.6221 62.8092 23.6306 62.6877 23.6314C62.5956 23.6321 62.5036 23.6226 62.4114 23.6131C62.3373 23.6054 62.2632 23.5977 62.1889 23.5954C61.8524 23.5844 61.7193 23.4789 61.7291 23.1458C61.7387 22.8239 61.645 22.5263 61.5522 22.2311C61.5236 22.1404 61.4952 22.0499 61.4698 21.959C61.358 21.5582 61.2138 21.1664 61.0695 20.7746C60.9941 20.5699 60.9187 20.3652 60.8479 20.1591C60.7798 19.9607 60.6577 19.8157 60.4857 19.7043C60.2971 19.5822 60.2519 19.5947 60.0732 19.7344C59.8485 19.9102 59.7581 20.1685 59.6727 20.4126L59.6677 20.4269C59.5305 20.8186 59.4379 21.2279 59.35 21.6347C59.2857 21.9322 59.2363 22.233 59.1868 22.5337C59.1685 22.6456 59.1501 22.7574 59.1309 22.869C59.1008 23.0443 59.0716 23.2197 59.0425 23.3951C59.0186 23.5391 58.9947 23.6831 58.9702 23.827L58.97 23.8284C58.9631 23.8688 58.9559 23.9119 58.9363 23.9469C58.8669 24.0718 58.7527 24.118 58.618 24.0919C58.4921 24.0678 58.4564 23.9651 58.4661 23.8524C58.4699 23.8089 58.4723 23.7645 58.4747 23.72C58.482 23.5857 58.4894 23.4501 58.5361 23.3307C58.6956 22.9233 58.6186 22.5165 58.3631 22.2368C58.1752 22.031 58.0759 21.7833 57.9773 21.5375C57.8788 21.2918 57.781 21.048 57.5963 20.85C57.5851 20.838 57.5826 20.8163 57.5805 20.7974C57.5802 20.795 57.5799 20.7926 57.5796 20.7904C57.5542 20.5681 57.4409 20.4052 57.2623 20.2731C57.203 20.2291 57.1355 20.1346 57.143 20.0718C57.1767 19.7856 57.0427 19.568 56.9068 19.3474C56.8895 19.3194 56.8722 19.2912 56.8552 19.2629C56.8093 19.1867 56.7688 19.0906 56.7717 19.0052C56.7854 18.5996 56.6093 18.2544 56.4348 17.9125C56.4301 17.9033 56.4254 17.8941 56.4207 17.8849C56.4075 17.8588 56.3939 17.8331 56.3805 17.8075C56.2878 17.6309 56.199 17.4615 56.2173 17.243C56.2249 17.1529 56.1877 17.0578 56.1514 16.965C56.1409 16.9381 56.1305 16.9115 56.1213 16.8852C56.1154 16.8684 56.1083 16.8518 56.1011 16.8352C56.0674 16.7568 56.0333 16.6777 56.131 16.5722C56.227 16.624 56.3262 16.6727 56.4258 16.7217C56.6475 16.8307 56.8715 16.9409 57.0677 17.0879C57.665 17.5359 58.3474 17.5425 59.0374 17.549C59.1925 17.5506 59.3042 17.4781 59.3042 17.3073C59.3039 16.9523 59.2973 16.5973 59.2876 16.2426C59.2865 16.2021 59.2648 16.1607 59.2442 16.1214C59.24 16.1135 59.2359 16.1056 59.232 16.0979C59.1737 15.9816 59.1131 15.8662 59.0525 15.7509C58.9237 15.5058 58.7949 15.2608 58.6886 15.0062C58.5248 14.6141 58.3603 14.212 58.4692 13.7647C58.5128 13.5861 58.5539 13.4068 58.595 13.2275C58.6683 12.908 58.7416 12.5884 58.8286 12.2727C58.8638 12.145 58.9721 12.0131 59.0835 11.9353C59.3736 11.7325 59.447 11.5646 59.3572 11.2055C59.335 11.1167 59.3171 11.0121 59.3428 10.9286C59.4037 10.7306 59.474 10.5309 59.5732 10.3501C59.6506 10.2094 59.7428 10.0771 59.835 9.94481C59.8863 9.87105 59.9377 9.79727 59.9866 9.722C60.0723 9.59016 60.0808 9.47245 59.9041 9.39963C59.7948 9.45778 59.7196 9.5521 59.6417 9.64994C59.5522 9.7623 59.4589 9.87931 59.3061 9.95146C59.2992 9.90556 59.2907 9.8648 59.283 9.82763C59.2683 9.75652 59.2563 9.69856 59.2631 9.6429C59.307 9.27909 59.2094 8.96237 58.9821 8.67892C58.8914 8.56592 58.8042 8.44852 58.7279 8.32547C58.6751 8.2404 58.6183 8.14498 58.6077 8.04924C58.5943 7.92949 58.5905 7.80871 58.5868 7.68797C58.5831 7.56818 58.5794 7.44844 58.5662 7.32979C58.4896 6.63482 58.4134 5.94079 58.4375 5.23923C58.4407 5.14811 58.4247 5.05661 58.4086 4.96498C58.3993 4.91235 58.3901 4.85967 58.3845 4.80699C58.3731 4.70122 58.3589 4.59537 58.3447 4.48951C58.3103 4.23311 58.276 3.97661 58.2815 3.7209C58.2888 3.39766 58.3242 3.07511 58.3595 2.75243C58.3777 2.5869 58.3959 2.42133 58.4102 2.25563C58.4269 2.06321 58.4786 1.89213 58.5998 1.7355C58.6877 1.62218 58.7677 1.4916 58.8092 1.35599C58.8908 1.08887 58.7448 0.886717 58.4648 0.896448C58.4173 0.898151 58.3691 0.898019 58.3207 0.897886C58.1106 0.897308 57.8962 0.896718 57.713 1.04649C57.6678 1.08384 57.5978 1.09734 57.5366 1.10707C57.2249 1.15698 56.9318 1.25084 56.6483 1.39649C56.4084 1.51976 56.1599 1.62662 55.9114 1.73349C55.8062 1.77873 55.701 1.82398 55.5964 1.87047C55.5743 1.88043 55.5517 1.88907 55.529 1.8977C55.5224 1.90023 55.5158 1.90276 55.5092 1.90532C54.7433 2.19818 54.0342 2.59432 53.407 3.12136C53.1104 3.37059 52.8043 3.56301 52.4163 3.61857C52.3291 3.63113 52.2217 3.66785 52.169 3.73126C51.8962 4.06023 51.6263 4.39296 51.3786 4.74076C51.2818 4.8767 51.1965 5.02077 51.1112 5.16484C51.0208 5.3175 50.9304 5.47015 50.8264 5.61308C50.6908 5.79922 50.6161 5.99415 50.5888 6.21482C50.5806 6.28128 50.5784 6.3509 50.5763 6.42045C50.5717 6.56773 50.5672 6.7147 50.5047 6.83069C50.3653 7.08916 50.3707 7.34472 50.3762 7.60823C50.3777 7.67945 50.3792 7.75126 50.3779 7.82386C50.3622 8.67955 50.2344 9.52299 49.9014 10.3231C49.8853 10.3623 49.8794 10.4057 49.8736 10.449C49.871 10.4682 49.8684 10.4873 49.865 10.5061C49.8579 10.5448 49.8504 10.5834 49.8429 10.6219C49.8245 10.7165 49.8062 10.8109 49.7937 10.9063C49.7816 10.998 49.771 11.0899 49.7604 11.1817C49.7189 11.5406 49.6775 11.8993 49.5483 12.242C49.545 12.2508 49.5454 12.2612 49.5457 12.271L49.5457 12.2731C49.5572 12.6448 49.4776 13.0023 49.3979 13.3601C49.3483 13.5827 49.2988 13.8053 49.2711 14.0315C49.2377 14.3036 49.1832 14.5731 49.1288 14.8426C49.0963 15.0036 49.0637 15.1647 49.0357 15.3263C49.0047 15.505 48.9777 15.6844 48.9506 15.8639C48.9045 16.1702 48.8584 16.4764 48.7927 16.7784C48.6766 17.3111 48.5896 17.8416 48.5852 18.3897C48.5831 18.66 48.5598 18.9302 48.5364 19.2005C48.5211 19.3779 48.5057 19.5555 48.4964 19.7332C48.4832 19.9821 48.3592 20.1641 48.1492 20.2514C47.8845 20.3614 47.6697 20.5363 47.4548 20.7112C47.3876 20.7659 47.3205 20.8205 47.2518 20.8732C47.1105 20.9815 46.9015 21.3472 46.8786 21.4969C47.0223 21.5371 47.1146 21.4502 47.2047 21.3651C47.3994 21.1812 47.6381 21.0767 47.8766 20.9722C47.963 20.9344 48.0493 20.8966 48.1335 20.855C48.2531 20.796 48.3501 20.8745 48.3244 21.0035C48.3126 21.0637 48.2856 21.1208 48.2567 21.182C48.2432 21.2105 48.2294 21.2399 48.2164 21.2709C48.2813 21.3347 48.3388 21.4046 48.396 21.4742C48.5286 21.6354 48.66 21.7951 48.88 21.8742C49.0557 21.9377 49.0583 22.0933 48.9054 22.212C48.7582 22.3259 48.599 22.4314 48.4317 22.5127C48.306 22.5738 48.1763 22.6272 48.0466 22.6807C47.8577 22.7585 47.6689 22.8363 47.4932 22.9374C47.0934 23.1675 46.6578 23.2549 46.219 23.343L46.1864 23.3496C46.1161 23.3634 46.0395 23.3593 45.9676 23.3496C45.6958 23.3122 45.5759 23.1672 45.5721 22.8875C45.5717 22.8533 45.564 22.8191 45.5569 22.7872C45.5538 22.7734 45.5508 22.76 45.5486 22.7472C45.1948 22.6728 44.6414 23.0219 44.5566 23.3954C44.5425 23.4579 44.5257 23.5204 44.509 23.5831C44.4451 23.8215 44.3805 24.0628 44.4531 24.3198C44.4671 24.3693 44.4559 24.4259 44.4447 24.4828C44.4392 24.511 44.4336 24.5394 44.4311 24.5669C44.4291 24.5881 44.4268 24.6095 44.4244 24.6308C44.4176 24.6924 44.4108 24.7542 44.4138 24.8155C44.4185 24.9105 44.4271 25.0054 44.4356 25.1004C44.4505 25.2652 44.4653 25.4299 44.46 25.5943C44.4399 26.2107 44.5406 26.7984 44.8053 27.3571C44.8129 27.3733 44.8204 27.3898 44.8279 27.4062C44.8908 27.5445 44.9541 27.6833 45.1336 27.6971C45.3149 27.7109 45.4051 27.5844 45.4934 27.4607C45.5088 27.439 45.5243 27.4174 45.5401 27.3967C45.5532 27.3795 45.559 27.3572 45.5648 27.3348C45.5698 27.3157 45.5748 27.2965 45.5843 27.2802C45.8107 26.8944 46.1399 26.6072 46.4899 26.3404C46.5093 26.3257 46.5341 26.3183 46.559 26.3108C46.575 26.3061 46.5911 26.3013 46.6058 26.2946L46.606 26.2945C46.7748 26.2176 46.9436 26.1407 47.1108 26.061C47.1363 26.0489 47.1606 26.0332 47.1848 26.0176C47.2227 25.9931 47.2603 25.9688 47.3017 25.9587C47.7581 25.846 48.1495 25.6093 48.5152 25.3271C48.6081 25.2555 48.6954 25.1762 48.7827 25.097C48.9043 24.9867 49.0258 24.8765 49.1615 24.7875C49.6034 24.4977 50.0614 24.2315 50.5187 23.9657L50.5775 23.9315C50.6525 23.8879 50.7596 23.8741 50.8484 23.8826C51.3827 23.9331 51.8127 23.7768 52.1062 23.3025C52.2129 23.1302 52.3696 23.0256 52.5789 22.9716C52.8906 22.8913 53.1957 22.7789 53.4949 22.6584C53.7291 22.5639 53.907 22.4091 53.881 22.1153C53.8747 22.0444 53.8838 21.965 53.9108 21.9C53.9893 21.7107 53.9752 21.5453 53.8653 21.3654C53.7517 21.179 53.7991 21.0854 53.9861 20.9536C54.0583 20.9027 54.1629 20.8261 54.1644 20.759C54.1658 20.7014 54.1698 20.6429 54.1739 20.5842C54.1908 20.3398 54.208 20.0909 54.0313 19.8841C53.9061 19.7379 53.7696 19.6013 53.633 19.4647C53.5638 19.3954 53.4945 19.3262 53.4268 19.2557C53.3304 19.1553 53.234 19.0843 53.0761 19.0878C52.8938 19.0915 52.8263 19.0171 52.8263 18.8392C52.8263 18.3708 52.9421 17.927 53.1666 17.5167C53.2491 17.3654 53.3813 17.3626 53.4911 17.5032C53.5069 17.5235 53.523 17.5439 53.539 17.5643C53.6463 17.7005 53.7558 17.8394 53.8232 17.9948C54.037 18.4861 54.2396 18.9822 54.4422 19.4783C54.5157 19.6582 54.5892 19.8381 54.6632 20.0179C54.735 20.1919 54.8068 20.366 54.8785 20.5401C55.1245 21.1365 55.3704 21.7329 55.6156 22.3297C55.6424 22.395 55.6719 22.4597 55.7014 22.5245C55.7718 22.679 55.8423 22.8337 55.8761 22.9958C55.9894 23.5388 56.1329 24.0715 56.3325 24.5885C56.4681 24.9398 56.3806 25.1435 56.0221 25.2675C55.97 25.2856 55.9169 25.3008 55.8638 25.316C55.7859 25.3383 55.7082 25.3606 55.6341 25.3918C55.5907 25.4098 55.5548 25.4451 55.5145 25.4848C55.4949 25.504 55.4744 25.5243 55.4514 25.544C55.6117 25.6556 55.7047 25.5969 55.8063 25.5329C55.8133 25.5284 55.8203 25.524 55.8275 25.5195C55.8843 25.4844 56.0089 25.4715 56.0456 25.5073C56.1264 25.5859 56.1933 25.6786 56.2674 25.7814C56.2975 25.8231 56.3288 25.8665 56.3627 25.9113C56.3249 25.9223 56.291 25.9347 56.2596 25.9462C56.1979 25.9689 56.1463 25.9878 56.0962 25.9844C55.8957 25.9707 55.7154 26.0353 55.5358 26.0998C55.4821 26.1191 55.4284 26.1384 55.3742 26.1555C55.102 26.2415 54.9335 26.131 54.9137 25.8278L55.324 25.7716C55.2389 25.5965 55.13 25.5983 55.0176 25.6322C54.8679 25.6771 54.7191 25.7267 54.5747 25.7864C54.5245 25.8071 54.4586 25.8611 54.4548 25.9047C54.4504 25.9537 54.4965 26.0249 54.5417 26.056C54.5966 26.0938 54.6587 26.1208 54.7378 26.1552C54.775 26.1715 54.8161 26.1893 54.8619 26.2107C54.8245 26.2406 54.7929 26.2695 54.7642 26.2957C54.7092 26.346 54.6654 26.386 54.6139 26.4025C54.5399 26.4263 54.468 26.4583 54.396 26.4903C54.2135 26.5714 54.0304 26.6528 53.81 26.6022C53.7533 26.5892 53.6824 26.6278 53.6152 26.6643C53.5947 26.6755 53.5745 26.6865 53.5552 26.6957C53.2541 26.8404 52.9493 26.9729 52.6091 26.9867C52.4396 26.9936 52.3796 26.9035 52.449 26.7488C52.47 26.7017 52.4971 26.6572 52.5288 26.605C52.5453 26.5778 52.5632 26.5484 52.5821 26.5155C52.4177 26.4505 52.2682 26.4719 52.125 26.4924C52.0629 26.5013 52.0019 26.51 51.9414 26.5115C51.7593 26.5159 51.7214 26.5827 51.7223 26.7754C51.7225 26.8221 51.7146 26.8687 51.7066 26.9153C51.703 26.9365 51.6994 26.9577 51.6966 26.9789C51.6728 26.974 51.6477 26.9712 51.6226 26.9683C51.5677 26.9621 51.5129 26.9559 51.4715 26.9289C51.3601 26.8568 51.2499 26.7871 51.1256 26.8646C50.9406 26.9799 50.7464 26.9649 50.5488 26.9496C50.528 26.948 50.5073 26.9464 50.4865 26.945C50.4783 26.9444 50.4699 26.9438 50.4613 26.9431C50.3754 26.9367 50.2739 26.9291 50.2165 26.971C49.9679 27.1528 49.698 27.2764 49.4054 27.3671C49.2592 27.4127 49.116 27.4886 48.9911 27.5778C48.8586 27.6726 48.723 27.7821 48.6348 27.9155C48.4822 28.1465 48.3505 28.3915 48.219 28.6361C48.1993 28.6727 48.1796 28.7093 48.1599 28.7458C48.1182 28.8229 48.0827 28.9049 48.0472 28.9868C47.9817 29.1379 47.9166 29.2883 47.8133 29.4062C47.5435 29.7141 47.4149 30.0781 47.2852 30.4454C47.2704 30.4874 47.2555 30.5294 47.2405 30.5714C47.2258 30.6124 47.2086 30.6532 47.1915 30.694C47.1516 30.7889 47.1116 30.8841 47.1017 30.982C47.0496 31.4933 47.1115 31.9862 47.4379 32.4093C47.5311 32.5305 47.6325 32.6595 47.7593 32.7373C47.9445 32.8509 48.1527 32.931 48.358 33.006C48.4509 33.0402 48.5617 33.0405 48.6631 33.0346C48.9456 33.0179 49.2111 32.9451 49.4723 32.8252C49.5947 32.7691 49.724 32.7264 49.8533 32.6837C50.1685 32.5797 50.4834 32.4757 50.6971 32.177C50.7193 32.1462 50.7624 32.1272 50.7996 32.1107L50.8016 32.1098C50.9429 32.0477 50.9664 31.9328 50.9473 31.7975C50.9436 31.7716 50.9388 31.7457 50.9341 31.7199C50.9256 31.6735 50.9171 31.6272 50.9146 31.5806C50.9099 31.4867 50.9052 31.3684 51.0258 31.3577C51.0738 31.3536 51.1298 31.4037 51.1802 31.4487C51.1916 31.459 51.2028 31.4689 51.2135 31.478C51.2429 31.5028 51.2663 31.5346 51.2904 31.5674C51.3014 31.5822 51.3124 31.5973 51.3243 31.612C51.5497 31.3586 51.7193 31.2209 51.8331 31.1989C51.8472 31.2227 51.8613 31.2466 51.8753 31.2704C51.9092 31.3277 51.9429 31.3849 51.9769 31.4422C52.0572 31.3631 52.0795 31.299 52.0908 31.2334C52.1351 30.9748 52.1916 30.9371 52.4408 31.0451C52.5727 31.1022 52.6452 31.0624 52.739 30.9685C52.8304 30.8772 52.949 30.794 53.0708 30.7566C53.3266 30.6785 53.4453 30.7714 53.4717 31.0363C53.477 31.0897 53.4776 31.1447 53.4781 31.1996C53.479 31.305 53.48 31.4099 53.5153 31.5021C53.6092 31.7478 53.6173 32.0004 53.6254 32.2528C53.6297 32.3852 53.634 32.5176 53.6506 32.6488C53.6854 32.9238 53.5969 33.1598 53.4334 33.3795L53.4256 33.3899C53.3224 33.5281 53.2144 33.6726 53.1587 33.8319C53.0774 34.0638 52.9142 34.1489 52.7004 34.2045C52.4088 34.2804 52.1188 34.3646 51.8322 34.4575C51.3795 34.6041 50.9228 34.6778 50.4447 34.6204L50.4434 34.6202C50.2068 34.5917 49.9584 34.5618 49.7281 34.6028C49.1286 34.7092 48.5902 34.5221 48.061 34.3002C47.7402 34.1659 47.2734 34.2531 47.0521 34.5262C46.9783 34.6174 46.9209 34.7207 46.8635 34.824C46.764 35.0032 46.6644 35.1824 46.4793 35.2981C46.4671 35.3058 46.46 35.3231 46.4534 35.3393C46.4517 35.3436 46.45 35.3478 46.4482 35.3518C46.4077 35.4416 46.368 35.532 46.3284 35.6223C46.2311 35.8441 46.1338 36.0659 46.0232 36.2809C45.9751 36.374 45.8886 36.4495 45.8046 36.5227C45.7867 36.5383 45.7689 36.5538 45.7517 36.5694C45.6832 36.6309 45.6035 36.6839 45.5209 36.7244C45.1744 36.8936 45.0457 37.1714 45.0196 37.5513C45.0008 37.8262 45.0143 38.0717 45.1713 38.2971C45.1881 38.3212 45.205 38.3454 45.2218 38.3696C45.3658 38.5765 45.5104 38.7841 45.6722 38.9767C45.7765 39.1007 45.9124 39.2052 46.0514 39.2902C46.2468 39.4098 46.4543 39.5102 46.6609 39.6101L46.6855 39.622C46.6932 39.6257 46.7009 39.6295 46.7085 39.6332C46.8691 39.7112 47.0306 39.7895 47.2226 39.7215C47.4913 39.6261 47.7628 39.5819 48.05 39.6578C48.1244 39.6776 48.2299 39.6327 48.3036 39.5888C48.3784 39.5442 48.4438 39.4837 48.509 39.4235C48.5287 39.4053 48.5484 39.3871 48.5683 39.3693C48.7792 39.181 48.9496 38.9713 49.0849 38.7124C49.2137 38.4659 49.4202 38.2801 49.6271 38.094C49.7315 38.0001 49.836 37.9061 49.9306 37.8043C49.9492 37.7841 49.9819 37.7783 50.0154 37.7723C50.0368 37.7685 50.0586 37.7646 50.0772 37.7569C50.096 37.7491 50.1148 37.7412 50.1337 37.7334C50.4892 37.5858 50.8447 37.4382 51.2367 37.4138C51.2485 37.413 51.2599 37.4077 51.2713 37.4024C51.2793 37.3987 51.2874 37.3949 51.2957 37.3927C51.3474 37.3787 51.3988 37.3635 51.4502 37.3484C51.5689 37.3134 51.6875 37.2784 51.8086 37.2571C51.9395 37.2342 52.0728 37.2192 52.2059 37.2042C52.4489 37.1768 52.6915 37.1495 52.9186 37.0744C53.3232 36.9408 53.7267 36.9336 54.1363 36.9262C54.1636 36.9257 54.191 36.9252 54.2184 36.9247C54.311 36.9228 54.4108 36.9137 54.4937 36.8773C54.7851 36.749 55.0841 36.772 55.3841 36.7951C55.4267 36.7984 55.4694 36.8016 55.512 36.8045C55.631 36.8124 55.7505 36.8123 55.8698 36.8123H55.883C56.0348 36.8122 56.1867 36.8106 56.3385 36.8089C56.6771 36.8052 57.0158 36.8015 57.3536 36.8152C57.59 36.8249 57.6355 36.9435 57.483 37.1168C57.3188 37.3033 57.1292 37.469 56.9399 37.631C56.8382 37.7182 56.7855 37.7948 56.8655 37.9226C56.8821 37.9494 56.8883 37.9827 56.895 38.0184C56.8982 38.0355 56.9015 38.053 56.906 38.0708C56.8859 38.0832 56.8675 38.0947 56.8502 38.1056C56.8189 38.1254 56.7911 38.1429 56.7626 38.1593C56.6411 38.2295 56.5185 38.298 56.3958 38.3664C56.1198 38.5206 55.8437 38.6747 55.5807 38.8486C55.2138 39.0912 54.8757 39.3775 54.7134 39.8113C54.6897 39.8747 54.6659 39.9382 54.6421 40.0016C54.4897 40.4074 54.3374 40.8133 54.1968 41.2229C54.1469 41.3686 54.075 41.4273 53.9252 41.415C53.6948 41.3965 53.6126 41.3183 53.6355 41.0666C53.6584 40.8133 53.655 40.5697 53.5809 40.3227L53.5805 40.3213C53.5213 40.1227 53.4591 39.9141 53.461 39.7109C53.4644 39.3597 53.3301 39.0567 53.1959 38.754C53.1326 38.6113 53.0694 38.4686 53.0206 38.3209C53.0109 38.2917 52.9917 38.2651 52.9732 38.2399C52.9126 38.1574 52.8253 38.1379 52.7579 38.2079C52.5965 38.3749 52.4706 38.5529 52.4998 38.8159C52.5479 39.2488 52.5887 39.6851 52.5906 40.1202C52.592 40.4503 52.58 40.7804 52.568 41.1105C52.556 41.4386 52.5441 41.7666 52.5453 42.0946C52.5477 42.7097 52.5575 43.3247 52.5674 43.9396C52.5776 44.5791 52.5878 45.2185 52.5896 45.8579C52.5918 46.6311 52.5723 47.4048 52.5359 48.177C52.513 48.6657 52.4767 49.1535 52.4405 49.6414C52.4171 49.9555 52.3938 50.2696 52.374 50.584C52.3496 50.9719 52.3304 51.3601 52.3111 51.7483C52.2999 51.9754 52.2886 52.2026 52.2763 52.4297C52.2575 52.7775 52.2826 53.1193 52.4129 53.4461C52.4372 53.507 52.4659 53.5665 52.4946 53.6259C52.5385 53.7169 52.5824 53.8077 52.6103 53.9035C52.6631 54.0846 52.7532 54.2258 52.9095 54.3275C53.03 54.406 53.0928 54.5093 53.1116 54.6599C53.1819 55.2203 53.5175 55.6299 53.9218 55.9852C54.071 56.1164 54.2348 56.231 54.3986 56.3457ZM61.689 27.5222C61.8017 27.4982 61.9189 27.4732 62.0408 27.4422H62.0414C62.0224 27.4889 62.0079 27.5288 61.9952 27.5636C61.9719 27.6274 61.9548 27.6741 61.9284 27.7149C61.7193 28.0392 61.5053 28.3603 61.2909 28.6811C61.1226 28.9322 60.9528 29.1827 60.7814 29.4317C60.7332 29.5019 60.683 29.5708 60.6328 29.6396C60.585 29.7052 60.5371 29.7708 60.491 29.8375C60.4714 29.866 60.4516 29.8944 60.4318 29.9228C60.3443 30.0482 60.2567 30.1738 60.1812 30.3062C59.8422 30.9007 59.4037 31.4177 58.9247 31.8989C58.8459 31.9781 58.7417 32.0311 58.637 32.0844C58.5719 32.1175 58.5065 32.1508 58.4469 32.1905C57.9393 32.5293 57.3706 32.7254 56.8018 32.9216C56.7308 32.9461 56.6599 32.9706 56.589 32.9953C56.3234 33.0883 56.0585 33.1824 55.7939 33.2782C55.7848 33.2815 55.7757 33.2849 55.7666 33.2884C55.6794 33.3215 55.5914 33.3549 55.4834 33.2505C55.5328 33.1626 55.5824 33.0745 55.6322 32.9862C55.7376 32.7991 55.8435 32.6112 55.948 32.4225C55.9571 32.4061 55.9674 32.3893 55.9778 32.3724C56.0127 32.3157 56.0489 32.2568 56.0481 32.1999C56.0454 31.98 56.1582 31.8112 56.2687 31.6458L56.2798 31.6293C56.554 31.2192 56.8343 30.8133 57.1145 30.4072C57.2074 30.2727 57.3002 30.1382 57.3929 30.0036C57.4451 29.9276 57.4935 29.8486 57.542 29.7695C57.6738 29.5543 57.8058 29.339 58.0144 29.1859C58.1746 29.0685 58.341 28.9598 58.5076 28.851C58.6011 28.7899 58.6947 28.7287 58.7872 28.6661C58.8222 28.6423 58.8578 28.619 58.8934 28.5957C59.005 28.5228 59.117 28.4496 59.2129 28.3597C59.4473 28.1397 59.6937 27.9802 60.0312 27.9535C60.3714 27.9265 60.7039 27.864 61.0275 27.7134C61.2268 27.6207 61.4474 27.5737 61.689 27.5222ZM57.2268 13.8275L57.1411 13.8793L57.1414 13.8799C57.0497 13.8316 56.9583 13.7825 56.8668 13.7334C56.6575 13.621 56.4482 13.5086 56.2343 13.4059C56.0781 13.331 55.926 13.2481 55.7737 13.1653C55.4437 12.9855 55.1135 12.8058 54.7429 12.7072C54.4024 12.6165 54.0747 12.483 53.7777 12.2803C53.666 12.204 53.5331 12.1556 53.404 12.1085C53.396 12.1056 53.388 12.1027 53.38 12.0998C53.2365 12.0474 53.0914 11.9993 52.9464 11.9513C52.8447 11.9176 52.7429 11.8839 52.6417 11.8487C52.2591 11.7156 52.1809 11.5279 52.319 11.1506C52.3755 10.9964 52.4032 10.8282 52.421 10.664C52.4571 10.3354 52.642 10.0525 53.0579 10.0937C53.0678 10.0946 53.0779 10.0957 53.0881 10.0968C53.1633 10.105 53.2465 10.114 53.3056 10.0839C53.5844 9.94236 53.8386 10.0249 54.0797 10.1583C54.5195 10.4019 55.0022 10.4788 55.4872 10.5548C55.576 10.5687 55.6649 10.5823 55.7538 10.5959C55.9225 10.6216 56.0913 10.6474 56.2597 10.6759C56.5312 10.7218 56.6995 10.8702 56.7039 11.1226C56.7102 11.4668 56.7903 11.795 56.8704 12.1233C56.8941 12.2205 56.9178 12.3176 56.9396 12.4152C56.9853 12.6199 57.0394 12.8228 57.0935 13.0256C57.1385 13.1945 57.1835 13.3634 57.2237 13.5334C57.2387 13.5971 57.2346 13.6653 57.2306 13.7335C57.2287 13.765 57.2268 13.7965 57.2268 13.8275ZM50.9384 21.1272L50.9372 21.1281C50.8653 20.8387 50.8956 20.6106 50.9247 20.3916C50.9295 20.3555 50.9342 20.3196 50.9385 20.2837C50.9419 20.2544 50.9504 20.2251 50.9587 20.196C50.9709 20.1534 50.983 20.1112 50.9793 20.07C50.9376 19.6018 51.0207 19.1479 51.1037 18.694C51.1314 18.5429 51.159 18.3919 51.1821 18.2403C51.1928 18.1692 51.1967 18.0972 51.2006 18.0252C51.2041 17.9617 51.2076 17.8982 51.2157 17.8353C51.2374 17.6659 51.2625 17.4971 51.2875 17.3282C51.3006 17.2405 51.3136 17.1528 51.3262 17.065C51.3332 17.0157 51.3415 16.9665 51.3498 16.9172C51.3692 16.8017 51.3886 16.6863 51.3921 16.5703C51.396 16.4352 51.3935 16.2998 51.391 16.1645C51.3875 15.9754 51.384 15.7864 51.3981 15.5985C51.4116 15.4161 51.4612 15.2355 51.5105 15.0561C51.5218 15.0148 51.5331 14.9736 51.544 14.9324C51.5826 14.7871 51.6978 14.7384 51.8378 14.7632C51.9291 14.7795 52.021 14.7942 52.1128 14.8089C52.5669 14.8816 53.0215 14.9544 53.417 15.2231C53.4583 15.2512 53.5071 15.2677 53.5571 15.2847C53.6671 15.322 53.7823 15.361 53.8326 15.5294C53.81 15.5393 53.7871 15.5494 53.764 15.5596C53.7015 15.5872 53.6374 15.6155 53.5727 15.6427C53.3323 15.7441 53.1188 15.8669 53.1323 16.1776C53.1324 16.1797 53.1325 16.1818 53.1327 16.184C53.1337 16.2035 53.135 16.227 53.1248 16.2388C52.9817 16.4093 52.9768 16.6078 52.9719 16.8053C52.9692 16.9188 52.9664 17.032 52.9374 17.1394C52.8684 17.3949 52.7728 17.643 52.6772 17.891C52.6415 17.9838 52.6057 18.0765 52.5714 18.1696C52.5381 18.2598 52.505 18.3502 52.472 18.4405C52.3545 18.7616 52.2369 19.0827 52.109 19.3995L52.1064 19.406C51.9748 19.7319 51.842 20.0607 51.6708 20.3663C51.5094 20.6544 51.2518 20.8677 50.9384 21.1272ZM56.7813 7.32868C56.7943 7.39182 56.8076 7.45621 56.8194 7.52252H56.8193C56.8193 7.52262 56.8193 7.52271 56.8193 7.52281H56.819C56.7006 7.60009 56.6274 7.54006 56.554 7.47994C56.5466 7.47389 56.5392 7.46783 56.5318 7.46191C56.3814 7.34263 56.2113 7.28331 56.0198 7.25035C55.6102 7.17972 55.2005 7.10093 54.7991 6.99483C54.321 6.86865 54.0959 6.47125 53.8897 6.06695C53.8812 6.05025 53.878 6.03091 53.8749 6.01145C53.8729 5.99945 53.871 5.98741 53.8677 5.97592C53.7998 5.74119 53.7678 5.60564 53.7967 5.49808C53.8298 5.3742 53.9436 5.2875 54.1764 5.12936C54.2696 5.06595 54.37 4.98936 54.4215 4.89394C54.493 4.7615 54.6017 4.68271 54.7138 4.60135C54.7346 4.58629 54.7554 4.57115 54.7762 4.55556C55.0285 4.36599 55.2762 4.17046 55.5239 3.97493C55.6355 3.88683 55.7471 3.79873 55.8592 3.71117C55.8837 3.69192 55.9081 3.67243 55.9325 3.65294C56.006 3.59429 56.0794 3.53567 56.1574 3.48359C56.3708 3.34108 56.5701 3.40543 56.643 3.64996C56.6637 3.71998 56.6795 3.7926 56.6905 3.86596C56.6983 3.91784 56.7036 3.97009 56.7066 4.02205C56.7077 4.04121 56.7084 4.06033 56.7089 4.07937C56.7214 4.61682 56.7284 5.15445 56.7354 5.69198C56.7375 5.8533 56.7396 6.01461 56.7419 6.1759C56.7423 6.20446 56.7408 6.23302 56.7393 6.26158C56.7386 6.27477 56.738 6.28795 56.7375 6.30114C56.735 6.36488 56.7309 6.42873 56.7268 6.49259C56.7176 6.63726 56.7084 6.78197 56.7174 6.92549C56.7258 7.05859 56.7529 7.19065 56.7813 7.32868ZM55.2252 52.1927C55.2396 52.2295 55.2541 52.2664 55.2675 52.3038V52.3045C55.2481 52.3205 55.231 52.3349 55.2153 52.3482C55.1835 52.3749 55.1574 52.3969 55.1303 52.4175C55.1098 52.433 55.0899 52.451 55.0698 52.469C54.9879 52.5426 54.9044 52.6176 54.7797 52.5393C54.6224 52.4404 54.4884 52.3377 54.4796 52.1051C54.4657 51.7414 54.4381 51.3784 54.4105 51.0153C54.3899 50.7442 54.3692 50.4731 54.3543 50.2017C54.3357 49.8632 54.3291 49.5242 54.3225 49.1852C54.3199 49.0552 54.3174 48.9251 54.3142 48.7951L54.3116 48.6939C54.3005 48.2476 54.2894 47.8011 54.2818 47.3549C54.2774 47.0887 54.2758 46.8227 54.2742 46.5494C54.2734 46.4189 54.2726 46.2867 54.2715 46.1521C54.3807 46.1621 54.4334 46.2632 54.4871 46.3734C54.7869 46.9898 55.189 47.5304 55.716 47.9705C55.8052 48.0452 55.9345 48.0847 56.0519 48.1108C56.3184 48.1698 56.3699 48.1958 56.389 48.4752C56.4085 48.754 56.4145 49.0383 56.3815 49.3149C56.3344 49.7123 56.0221 49.8749 55.6862 49.9948C55.6572 50.0051 55.626 50.0086 55.5946 50.0121C55.5736 50.0144 55.5526 50.0168 55.5321 50.0212C55.1127 50.1106 54.9288 50.3746 55.0101 50.7974C55.0433 50.9707 55.0546 51.1308 55.0339 51.3119C55.0159 51.4702 55.0608 51.6368 55.1051 51.8015C55.1188 51.8523 55.1324 51.903 55.1441 51.9532C55.1632 52.0345 55.1941 52.1132 55.2252 52.1927ZM57.9088 43.9837C57.9491 44.1097 57.9901 44.238 57.8408 44.3845H57.8405C57.8127 44.3368 57.7864 44.2914 57.7609 44.2473C57.7113 44.1615 57.6648 44.0812 57.6173 44.0015C57.5957 43.9655 57.5751 43.9287 57.5545 43.8918C57.5034 43.8006 57.4523 43.7093 57.3866 43.6302C56.8636 43.0005 56.2817 42.4314 55.6121 41.9578C55.5216 41.894 55.4189 41.8468 55.3166 41.7998C55.2856 41.7855 55.2545 41.7713 55.2238 41.7565C54.9749 41.6373 54.9253 41.4386 55.1137 41.2314C55.232 41.1011 55.3714 40.9875 55.512 40.8808C55.6834 40.7502 55.8093 40.6023 55.8695 40.3857C55.9031 40.2649 55.9844 40.1199 56.0871 40.0628C56.4138 39.8807 56.7544 39.7203 57.1013 39.5797C57.3135 39.4937 57.4789 39.6013 57.5125 39.8283C57.5442 40.0418 57.5614 40.2576 57.5786 40.4732C57.5838 40.539 57.5891 40.6048 57.5947 40.6705C57.603 40.7645 57.6078 40.8589 57.6126 40.9532C57.6147 40.9943 57.6168 41.0353 57.6192 41.0763C57.6309 41.2768 57.6421 41.4774 57.6533 41.6779C57.6821 42.1954 57.7109 42.713 57.7498 43.23C57.7636 43.4141 57.809 43.5966 57.8541 43.7779C57.8642 43.8182 57.8742 43.8584 57.8838 43.8986C57.8906 43.927 57.8997 43.9553 57.9088 43.9837ZM59.0572 34.4138C59.0559 34.4383 59.0543 34.4631 59.0528 34.4876V34.4879C59.0296 34.4944 59.0065 34.5023 58.9833 34.5103C58.9335 34.5274 58.8836 34.5446 58.833 34.5469C58.478 34.5633 58.123 34.578 57.768 34.5805C57.1847 34.5845 56.6015 34.5847 56.0182 34.585C55.7753 34.5851 55.5324 34.5852 55.2894 34.5855C55.2792 34.5856 55.2688 34.5857 55.2585 34.5859C55.1448 34.5874 55.0299 34.5889 54.9614 34.4399C55.2816 34.2173 55.6184 34.0773 56.0108 34.1354C56.1699 34.159 56.3102 34.1621 56.4637 34.0833C56.5777 34.0246 56.7255 34.0158 56.8586 34.0142C57.0263 34.0123 57.1941 34.0189 57.3618 34.0254C57.4657 34.0295 57.5696 34.0336 57.6735 34.0356C57.6854 34.0358 57.6974 34.0362 57.7094 34.0365C57.7924 34.0387 57.8779 34.041 57.9541 34.0174C58.3292 33.9018 58.5824 34.0831 58.8359 34.2645C58.9087 34.3166 58.9815 34.3687 59.0572 34.4138ZM56.9459 48.5684L57.0344 48.5515H57.0347C57.0814 48.617 57.1284 48.6823 57.1755 48.7475C57.3035 48.9251 57.4315 49.1025 57.5511 49.2857C57.5918 49.3478 57.5946 49.4412 57.597 49.5217L57.5972 49.528C57.6132 50.0391 57.627 50.5504 57.6346 51.0617C57.6348 51.0788 57.636 51.0964 57.6372 51.1143C57.6436 51.2083 57.6504 51.3098 57.5244 51.3794L57.4974 51.3571C57.0892 51.0202 56.6785 50.6813 56.669 50.0821C56.6663 49.9094 56.694 49.7356 56.7216 49.5628C56.7286 49.5188 56.7357 49.4749 56.7422 49.431C56.7758 49.2047 56.8169 48.9793 56.863 48.7552C56.8722 48.7107 56.8943 48.6689 56.9163 48.6272C56.9266 48.6077 56.9369 48.5882 56.9459 48.5684Z" fill="#0D1853"/>
<path d="M39.2338 25.4558C39.2153 25.5095 39.2128 25.5443 39.1946 25.565C39.0929 25.6802 38.9912 25.7958 38.8807 25.9022C38.8509 25.9307 38.7624 25.9505 38.7495 25.9345C38.7165 25.894 38.6798 25.8039 38.6993 25.7816C38.8192 25.6457 38.951 25.5189 39.0888 25.4009C39.1073 25.3852 39.182 25.4351 39.2342 25.4561L39.2338 25.4558Z" fill="#0D1853"/>
<path fill-rule="evenodd" clip-rule="evenodd" d="M71.3738 12.8091C71.3916 12.7675 71.4109 12.7223 71.4342 12.6733L71.4332 12.6742C71.2499 12.6051 71.1112 12.5336 71.1523 12.349C71.1857 12.1987 71.2905 12.2036 71.3941 12.2084C71.426 12.2099 71.4577 12.2114 71.4872 12.2084C71.6024 12.1968 71.6539 12.1277 71.658 12.0213C71.6601 11.9682 71.6632 11.915 71.6663 11.8617C71.6753 11.7058 71.6844 11.5496 71.668 11.3963C71.6501 11.2287 71.6778 11.0837 71.7603 10.9471C71.9223 10.6788 71.9929 10.3887 71.9788 10.0783L71.9787 10.0757C71.9753 9.99694 71.9707 9.89352 71.9226 9.84787C71.797 9.72859 71.797 9.59612 71.814 9.44514C71.8218 9.37514 71.8225 9.28411 71.7851 9.23326C71.6459 9.04386 71.6251 8.82647 71.6043 8.6083C71.5907 8.46634 71.5771 8.32404 71.5309 8.18892C71.5197 8.15632 71.5088 8.12375 71.498 8.09128C71.4366 7.90745 71.3763 7.72689 71.2706 7.56175C71.2485 7.52712 71.2248 7.4932 71.2011 7.45927C71.1527 7.38989 71.1042 7.3205 71.0688 7.24503C70.9034 6.89216 70.6495 6.60674 70.3959 6.3216C70.3454 6.26483 70.2949 6.20806 70.2451 6.15078C70.0725 5.95208 70.0615 5.9163 70.2276 5.6972C70.2718 5.63913 70.318 5.582 70.3682 5.52895C70.4461 5.44651 70.5254 5.36526 70.6047 5.28403C70.7588 5.12618 70.9128 4.96838 71.0569 4.80196C71.3714 4.43847 71.5798 3.91991 71.1288 3.45565C71.0854 3.41076 71.0465 3.36023 71.0136 3.30718C70.9458 3.19826 70.9125 3.08996 70.9552 2.95247C71.0271 2.72144 70.9862 2.67028 70.7524 2.59589C70.4146 2.48853 70.0678 2.5014 69.7266 2.54346C69.7175 2.54457 69.7084 2.54567 69.6994 2.54678C69.464 2.57537 69.2301 2.60379 68.998 2.70292C68.5642 2.88807 68.1154 3.03932 67.6673 3.19036C67.5821 3.21908 67.497 3.24779 67.4119 3.27673C67.2169 3.34308 67.02 3.40404 66.8232 3.46499C66.5619 3.54591 66.3007 3.62681 66.0439 3.72027C65.8189 3.80214 65.5978 3.89471 65.3767 3.98727C65.1265 4.09203 64.8764 4.19675 64.6207 4.28591C63.9245 4.52855 63.3271 4.92344 62.8164 5.43949C62.3151 5.94612 61.9337 6.55037 61.5706 7.1609C61.5006 7.27799 61.4786 7.44121 61.4842 7.58121C61.4927 7.78995 61.6494 7.84489 61.8104 7.71022C61.8356 7.68908 61.8546 7.66063 61.8738 7.63205C61.8898 7.60801 61.906 7.58388 61.9259 7.56395C61.9626 7.52727 61.9986 7.4895 62.0346 7.45171C62.1357 7.34558 62.2371 7.23921 62.3547 7.15588C62.5524 7.01588 62.6742 7.07113 62.7612 7.29305C62.9385 7.74601 63.0261 8.21686 63.017 8.70183C63.0136 8.88956 63.0015 9.07712 62.9894 9.2647C62.9779 9.44156 62.9665 9.61843 62.9624 9.79545C62.9572 10.0163 62.9587 10.2373 62.9601 10.4583C62.9614 10.6557 62.9627 10.8531 62.9593 11.0504C62.9555 11.2669 62.9474 11.4835 62.9393 11.7C62.9287 11.9848 62.9181 12.2695 62.9172 12.5543C62.9167 12.7197 62.9167 12.885 62.9167 13.0504C62.9167 14.0446 62.9168 15.0384 62.7976 16.0288C62.7813 16.1626 62.7668 16.3088 62.8039 16.4338C62.8902 16.726 62.8045 16.988 62.7175 17.2544C62.7136 17.2662 62.7098 17.278 62.7059 17.2898C62.6977 17.3149 62.6884 17.3404 62.679 17.366C62.6484 17.4499 62.6172 17.5353 62.6215 17.6178C62.6432 18.023 62.6793 18.4283 62.7235 18.8319C62.7348 18.9349 62.7558 19.0374 62.7768 19.1397C62.8064 19.284 62.8359 19.428 62.8381 19.5727C62.8476 20.2195 62.9506 20.8535 63.0535 21.4877C63.0793 21.6464 63.1051 21.8051 63.1294 21.964C63.1818 22.3046 63.3102 22.6 63.5525 22.8533C63.765 23.0755 63.8928 23.0771 64.0535 22.8119C64.0852 22.7597 64.1037 22.6973 64.1175 22.637C64.1494 22.4983 64.1799 22.3593 64.2104 22.2203C64.247 22.0535 64.2836 21.8867 64.3225 21.7204C64.3508 21.5996 64.3817 21.4794 64.4127 21.3591C64.4622 21.167 64.5117 20.9749 64.5501 20.7806C64.5524 20.7688 64.5548 20.7569 64.5571 20.7451C64.6294 20.3785 64.6994 20.0241 64.9481 19.7112C65.1057 19.5131 65.1581 19.2362 65.1333 18.9641C65.0674 18.2377 65.1302 17.5286 65.3913 16.8393C65.4397 16.7119 65.4525 16.5352 65.4029 16.4134C65.2637 16.0703 65.2711 15.7164 65.2784 15.3652C65.2804 15.27 65.2824 15.1751 65.2815 15.0805C65.2808 15.0164 65.2802 14.9523 65.2796 14.8881C65.2715 14.0128 65.2634 13.1394 65.1364 12.2699C65.1132 12.1111 65.1098 11.9105 65.1867 11.784C65.3554 11.5066 65.5645 11.2528 65.7723 11.0005C65.7899 10.9793 65.8074 10.958 65.8248 10.9368C65.8624 10.8911 65.9144 10.8571 65.9663 10.8232C66.0211 10.7874 66.0757 10.7518 66.113 10.7026C66.6042 10.0541 67.0883 9.39962 67.5688 8.74295C67.5978 8.70344 67.6263 8.66375 67.6548 8.62412C67.8144 8.40205 67.9728 8.18155 68.191 8.00309C68.3058 7.90933 68.4011 7.79202 68.4965 7.67453C68.5465 7.61306 68.5964 7.55154 68.6493 7.49332C68.6805 7.45895 68.709 7.42144 68.7376 7.3838C68.815 7.28188 68.8932 7.17892 69.0291 7.13422C69.1556 7.25978 69.1148 7.39633 69.0671 7.52032C68.9855 7.73188 69.0476 7.8995 69.1735 8.07309C69.2757 8.21421 69.3687 8.36196 69.4617 8.50977C69.5187 8.60033 69.5758 8.69091 69.6349 8.77999C69.8738 9.13972 69.8794 9.53554 69.7746 9.9276C69.6953 10.2242 69.5963 10.5155 69.4973 10.807C69.4486 10.9502 69.4 11.0933 69.3537 11.2372C69.3053 11.3875 69.2481 11.5352 69.1909 11.6828C69.0561 12.0306 68.9214 12.3784 68.902 12.7618C68.8976 12.8487 68.8524 12.9492 68.794 13.0148C68.5934 13.2402 68.4854 13.5038 68.4066 13.7904C68.3752 13.9037 68.3049 14.0246 68.2164 14.0999C68.0698 14.2249 68.0105 14.3724 67.9681 14.5532C67.9132 14.7872 67.8434 15.0177 67.7735 15.2481C67.7447 15.3432 67.7159 15.4382 67.6881 15.5335C67.6853 15.5432 67.6803 15.5539 67.6727 15.5605C67.5078 15.7077 67.4449 15.9042 67.382 16.1008C67.3594 16.1716 67.3367 16.2425 67.3093 16.311C67.2813 16.3806 67.2491 16.4495 67.2169 16.5184C67.1469 16.6682 67.0769 16.818 67.0503 16.9749C67.0268 17.113 66.987 17.2482 66.9471 17.3834C66.8719 17.6389 66.7965 17.8946 66.8312 18.1709C66.8366 18.214 66.8115 18.2611 66.7865 18.3082C66.775 18.3299 66.7634 18.3517 66.7549 18.373C66.6604 18.6084 66.6133 18.8423 66.6526 19.1053C66.6733 19.2436 66.6524 19.388 66.6316 19.5324C66.6224 19.5955 66.6133 19.6587 66.6077 19.7212C66.6044 19.7573 66.5982 19.794 66.592 19.8307C66.5788 19.9087 66.5656 19.9868 66.5804 20.059C66.6563 20.43 66.6924 20.802 66.6755 21.1799C66.6736 21.2213 66.6761 21.2643 66.6843 21.3048C66.7154 21.4577 66.8375 21.5177 66.9589 21.4247C67.0487 21.3563 67.1253 21.265 67.1903 21.1714C67.7562 20.3578 68.3191 19.542 68.8797 18.7246C68.9443 18.6304 69.0052 18.5284 69.042 18.4211C69.1459 18.1175 69.3618 17.911 69.6114 17.7336C69.6171 17.7296 69.6226 17.7256 69.628 17.7218C69.8275 17.5803 69.8349 17.5751 69.7203 17.3422C69.6484 17.1965 69.6902 17.1017 69.8123 17.0261C69.8524 17.0014 69.8983 16.9854 69.944 16.9696C69.9581 16.9648 69.9721 16.9599 69.9859 16.9548C70.2062 16.8734 70.262 16.7326 70.1532 16.5323C70.0524 16.3468 70.1048 16.2125 70.3007 16.1541C70.5229 16.0878 70.5719 15.945 70.388 15.8144C70.2379 15.708 70.2382 15.5966 70.2856 15.4654C70.2918 15.4483 70.298 15.4307 70.3042 15.4128C70.3439 15.299 70.3877 15.1737 70.4715 15.1135C70.737 14.923 70.8732 14.6854 70.8732 14.363C70.8732 14.351 70.8783 14.3389 70.8835 14.3269C70.8868 14.3191 70.8901 14.3112 70.8921 14.3033C70.8942 14.2947 70.8964 14.286 70.8985 14.2774C70.9376 14.1214 70.9758 13.9686 70.7653 13.8808C70.7326 13.8673 70.7034 13.7487 70.7232 13.7283C70.7643 13.6865 70.8419 13.6561 70.9006 13.6614C70.9492 13.6659 70.9959 13.6894 71.051 13.7172C71.0775 13.7305 71.1058 13.7448 71.1372 13.7584C71.141 13.725 71.1467 13.696 71.1517 13.6708C71.1607 13.6253 71.1672 13.5922 71.1554 13.5682C71.05 13.3538 71.141 13.1903 71.265 13.0211C71.3085 12.9617 71.3382 12.8923 71.3738 12.8091ZM67.1993 5.40865C67.1993 5.40867 67.1993 5.4087 67.1994 5.40872L67.1991 5.40935C67.1767 5.43766 67.1548 5.46541 67.1334 5.4927C67.0794 5.56134 67.0276 5.62709 66.9746 5.69155C66.8946 5.78879 66.8127 5.88475 66.7308 5.98072C66.5433 6.20042 66.3558 6.42014 66.1902 6.65521C66.1816 6.66751 66.1729 6.6798 66.1644 6.69207C66.0393 6.87076 65.9185 7.04341 65.7194 7.13799C65.5346 7.22551 65.3456 7.30401 65.1452 7.3872C65.0538 7.42514 64.9601 7.46405 64.8634 7.50525C64.8557 7.46262 64.8487 7.42553 64.8424 7.39204C64.8304 7.32787 64.8208 7.27692 64.8138 7.22557C64.8026 7.14362 64.7927 7.06144 64.7828 6.97928C64.7642 6.82414 64.7455 6.66903 64.718 6.51553C64.7104 6.47279 64.7065 6.43291 64.7065 6.3959C64.7065 6.20193 64.8128 6.08642 65.0369 6.04845C65.1287 6.03288 65.2202 6.01527 65.3117 5.99767C65.4859 5.96414 65.66 5.93062 65.8358 5.91127C66.236 5.86733 66.5584 5.66173 66.8833 5.45298C66.8954 5.44521 66.9073 5.43659 66.9194 5.42784C66.9895 5.37724 67.065 5.32276 67.1994 5.40841L67.1993 5.40865Z" fill="#0D1853"/>
<path fill-rule="evenodd" clip-rule="evenodd" d="M19.7361 36.0527C19.7059 36.0426 19.6717 36.0313 19.6313 36.0188C19.6633 35.9863 19.6905 35.9554 19.7154 35.9272C19.7636 35.8725 19.8033 35.8276 19.8523 35.7991C20.164 35.6186 20.3552 35.3354 20.5341 35.0379C21.1091 34.0817 20.6367 32.8585 19.3667 32.6664C19.1099 32.6277 18.8458 32.6338 18.5822 32.6399C18.4887 32.6421 18.3953 32.6442 18.3023 32.6444C18.013 32.6448 17.7236 32.6481 17.4343 32.6515C17.2125 32.6541 16.9906 32.6567 16.7689 32.6579C16.6684 32.6584 16.5679 32.6567 16.4674 32.655C16.3378 32.6528 16.2082 32.6505 16.0786 32.6532C16.0373 32.6541 15.9965 32.6721 15.9557 32.6902C15.9369 32.6985 15.9182 32.7068 15.8994 32.7135C15.8993 32.722 15.8991 32.7306 15.899 32.7392C15.8987 32.7564 15.8984 32.7735 15.8984 32.7907C15.9475 32.802 15.9965 32.8138 16.0455 32.8256C16.1514 32.8511 16.2574 32.8766 16.3643 32.8974C16.514 32.9266 16.6584 32.969 16.7108 33.1275C16.7195 33.1539 16.7285 33.1804 16.7374 33.207C16.7921 33.3691 16.8479 33.5343 16.859 33.7007C16.8969 34.2635 16.9239 34.8282 16.9243 35.3923C16.9249 36.354 16.9161 37.3168 16.8822 38.2779C16.869 38.6508 16.7927 39.0241 16.7158 39.391C16.6593 39.6619 16.5093 39.8675 16.1907 39.8885C16.1393 39.892 16.0894 39.9176 16.025 39.9506C15.9903 39.9684 15.9513 39.9883 15.9057 40.0081C16.1778 40.15 16.4054 40.1287 16.6085 40.0866C16.9673 40.0124 17.318 40.0573 17.6672 40.102C17.7402 40.1114 17.8131 40.1207 17.886 40.129C18.6479 40.215 19.4003 40.285 20.1505 40.0361C21.1201 39.7146 21.5671 39.0586 21.6434 38.1574C21.6716 37.825 21.5976 37.5039 21.4475 37.2166C21.117 36.5838 20.5708 36.2301 19.8765 36.0935C19.8333 36.085 19.7912 36.071 19.7361 36.0527ZM17.9267 37.5675C17.928 37.5088 17.9294 37.4501 17.9294 37.3915V37.3912C17.9293 37.3224 17.9289 37.2537 17.9285 37.185C17.9275 37.0134 17.9265 36.8419 17.9303 36.6705C17.9363 36.42 18.0028 36.3553 18.2379 36.3258C19.3234 36.1905 20.2343 37.0066 20.4427 37.8761C20.5903 38.4923 20.3109 39.2309 19.7763 39.5819C19.3375 39.87 18.8635 39.8571 18.3977 39.6657C18.2106 39.5888 18.0932 39.4051 18.0662 39.1976C18.0122 38.7849 17.968 38.3702 17.9322 37.9552C17.9209 37.8269 17.9238 37.6972 17.9267 37.5675ZM17.9768 34.1216L17.9908 34.1225C17.9843 34.2503 17.9767 34.378 17.9692 34.5058C17.9528 34.7847 17.9363 35.0635 17.9305 35.3427C17.9235 35.675 17.9221 35.8264 18.0189 35.8967C18.0998 35.9558 18.2496 35.9578 18.5227 35.9615C18.5337 35.9617 18.5448 35.9618 18.5562 35.962C18.9071 35.967 19.1551 35.822 19.3475 35.5461C19.6545 35.1057 19.7503 34.632 19.68 34.0921C19.6453 33.8258 19.5057 33.5725 19.3063 33.3749C19.0562 33.1265 18.7119 32.9657 18.3631 32.9765C18.0567 32.9863 17.9892 33.0355 17.9782 33.3369C17.9717 33.5179 17.9733 33.6991 17.9749 33.8802C17.9756 33.9606 17.9764 34.041 17.9764 34.1213L17.976 34.1213L17.9764 34.1216C17.9764 34.1215 17.9764 34.1214 17.9764 34.1213L17.9768 34.1214C17.9768 34.1214 17.9768 34.1215 17.9768 34.1216Z" fill="#0D1853"/>
<path fill-rule="evenodd" clip-rule="evenodd" d="M16.9939 44.9394C16.994 44.9393 16.9941 44.9393 16.9942 44.9392V44.9395C16.9941 44.9395 16.994 44.9394 16.9939 44.9394ZM15.9347 44.9612C16.1779 45.061 16.7567 45.0551 16.9939 44.9394C16.9776 44.9285 16.9629 44.9171 16.949 44.9062C16.9207 44.8843 16.8956 44.8647 16.867 44.857C16.7484 44.8243 16.6909 44.7408 16.6818 44.6307C16.668 44.4649 16.6567 44.297 16.6686 44.1316C16.6793 43.9856 16.8046 43.9131 16.9402 43.9683C17.0133 43.9978 17.0827 44.0565 17.1332 44.1187C17.1627 44.155 17.1928 44.1911 17.2228 44.2272C17.3467 44.3762 17.4712 44.526 17.5654 44.6922C17.7478 45.0136 18.2328 45.164 18.7824 44.9314C18.7623 44.9212 18.7444 44.9107 18.7277 44.901C18.6958 44.8823 18.6684 44.8663 18.639 44.8601C18.3351 44.7958 18.1198 44.6027 17.9308 44.3742C17.8621 44.2909 17.798 44.2039 17.7338 44.1168C17.7052 44.0779 17.6765 44.039 17.6474 44.0004C17.487 43.7878 17.4867 43.7665 17.6358 43.5348C17.9961 42.9752 17.7343 42.4532 17.0736 42.4155C17.0166 42.4122 16.9592 42.4139 16.9018 42.4156C16.8756 42.4163 16.8495 42.4171 16.8234 42.4174C16.7569 42.4181 16.6905 42.4186 16.624 42.4191C16.4616 42.4203 16.2993 42.4215 16.1369 42.4262C16.0776 42.4279 16.0184 42.4372 15.9592 42.4466C15.9327 42.4508 15.9061 42.455 15.8795 42.4585L15.8296 42.52C16.1947 42.6508 16.1883 42.9239 16.1818 43.1996C16.1813 43.2189 16.1809 43.2383 16.1805 43.2577C16.1758 43.5292 16.1714 43.8007 16.1815 44.0719C16.1931 44.3893 16.1887 44.6966 15.9297 44.9326C15.9272 44.935 15.9295 44.9429 15.9319 44.9507C15.933 44.9544 15.9341 44.9581 15.9347 44.9612ZM16.9876 42.6622C17.2415 42.774 17.3087 42.9968 17.3344 43.3145C17.3263 43.3349 17.3173 43.3598 17.3072 43.3879C17.2797 43.464 17.244 43.5629 17.196 43.6554C17.1717 43.7022 17.1386 43.7355 17.1 43.758C17.0346 43.7962 16.9533 43.8031 16.8719 43.7913C16.7388 43.7721 16.677 43.6654 16.6716 43.5455C16.6609 43.3072 16.6562 43.0671 16.6726 42.8295C16.6793 42.7307 16.7237 42.6675 16.7904 42.6433C16.8442 42.6235 16.9126 42.6292 16.9876 42.6622Z" fill="#0D1853"/>
<path fill-rule="evenodd" clip-rule="evenodd" d="M14.5508 44.9234C14.9871 44.6557 15.1403 44.2153 15.1557 43.8107L15.1553 43.811C15.1535 43.246 15.0386 42.814 14.601 42.5661C14.4095 42.4575 14.1697 42.3991 13.9478 42.3853C13.2286 42.3401 12.6137 42.7092 12.5283 43.4826C12.4885 43.8421 12.5139 44.198 12.7032 44.5157C13.0789 45.1463 13.9286 45.3051 14.5508 44.9234ZM14.6239 43.5802C14.6398 43.6542 14.6557 43.7278 14.6741 43.7997V43.8C14.6561 43.8722 14.6394 43.942 14.6232 44.0099C14.5886 44.1546 14.556 44.2909 14.5162 44.4253C14.4356 44.6974 14.2303 44.8268 13.9619 44.8638C13.8586 44.878 13.7607 44.8733 13.6708 44.8498C13.5234 44.8115 13.3974 44.7226 13.304 44.5841C12.9939 44.1249 12.9258 43.6205 13.1116 43.095C13.2136 42.8065 13.4983 42.61 13.7783 42.606C13.8559 42.6048 13.9276 42.6137 13.9935 42.6314C14.2235 42.6929 14.3839 42.8619 14.4833 43.0884C14.5514 43.2436 14.5879 43.4128 14.6239 43.5802Z" fill="#0D1853"/>
<path d="M43.3622 39.7733C43.1732 40.0015 43.0436 40.0285 42.8098 39.8907C42.6958 39.8235 42.5615 39.7783 42.4701 39.6889C42.2165 39.44 42.1823 38.8075 42.6274 38.5413C43.0034 38.3165 43.2825 38.3479 43.5819 38.6458C43.8623 38.9249 43.871 39.3235 43.6322 39.6431C43.6221 39.6566 43.5948 39.6575 43.576 39.6641C43.291 39.4597 43.2759 39.4013 43.4363 39.1276C43.5807 38.8812 43.468 38.6649 43.1805 38.653C43.026 38.6467 42.871 38.6643 42.7266 38.6709C42.6211 38.9506 42.6214 39.4494 42.7228 39.6958C42.9281 39.6496 42.7815 39.4261 42.9014 39.3427C42.9912 39.3602 43.1449 39.5036 43.3625 39.7727L43.3622 39.7733Z" fill="#0D1853"/>
<path d="M42.9891 39.1016C42.9373 39.0238 42.8673 38.9613 42.879 38.9255C42.895 38.8769 42.975 38.8178 43.0243 38.8204C43.0723 38.8232 43.1163 38.8982 43.1621 38.9412C43.1144 38.9855 43.0667 39.0294 42.9891 39.1013V39.1016Z" fill="#0D1853"/>
</svg>
