<svg width="80" height="62" viewBox="0 0 80 62" fill="none" xmlns="http://www.w3.org/2000/svg">
<g clip-path="url(#clip0_1311_45610)">
<path fill-rule="evenodd" clip-rule="evenodd" d="M76.5922 28.613C75.0509 21.7752 69.8833 16.472 64.0111 12.9945C59.2802 10.1948 53.9084 8.41591 48.4228 7.534C48.5065 7.79004 48.5784 8.05277 48.6403 8.31885C53.9184 9.20411 59.0828 10.9362 63.6362 13.6304C69.3294 16.9991 74.3782 22.1417 75.8743 28.7753C76.1638 30.0572 76.3094 31.3641 76.3094 32.6778C76.3094 33.9915 76.1621 35.2985 75.8743 36.5803C74.3782 43.2123 69.3294 48.3548 63.6362 51.7252C56.606 55.8871 48.1232 57.753 40.0036 57.753C31.8839 57.753 23.4011 55.8871 16.3709 51.7252C10.6778 48.3565 5.62893 43.2139 4.13285 36.5803C3.84334 35.2985 3.69775 33.9915 3.69775 32.6778C3.69775 31.3641 3.84502 30.0572 4.13285 28.7753C5.62893 22.1417 10.6778 17.0008 16.3709 13.6304C20.9244 10.9345 26.087 9.20411 31.3668 8.31885C31.4271 8.05277 31.499 7.79004 31.5844 7.534C26.0988 8.41759 20.7253 10.1948 15.996 12.9945C10.1222 16.4703 4.9562 21.7735 3.41493 28.613C3.11371 29.9467 2.96143 31.3089 2.96143 32.6778C2.96143 34.0467 3.11371 35.4072 3.41493 36.7427C4.9562 43.5804 10.1239 48.8837 15.996 52.3611C23.1417 56.59 31.7517 58.491 40.0052 58.491C48.2588 58.491 56.8688 56.59 64.0145 52.3611C69.8883 48.8853 75.0543 43.5821 76.5956 36.7427C76.8968 35.4089 77.0491 34.0467 77.0491 32.6778C77.0491 31.3089 76.8968 29.9484 76.5956 28.613H76.5922Z" fill="#0D1853"/>
<path fill-rule="evenodd" clip-rule="evenodd" d="M80.0012 32.6779C80.0012 34.2626 79.8238 35.8457 79.4758 37.392C77.7487 45.0481 72.1092 51.0006 65.5157 54.9031C57.9098 59.4048 48.7928 61.4447 40.0021 61.4447C31.2113 61.4447 22.0926 59.4048 14.4884 54.9031C7.89328 51.0006 2.2537 45.0481 0.526689 37.392C0.178608 35.8457 0.0012207 34.2626 0.0012207 32.6779C0.0012207 31.0931 0.178608 29.51 0.526689 27.9637C2.2537 20.3076 7.89328 14.3551 14.4867 10.4526C19.6427 7.40183 25.4931 5.48237 31.4657 4.56029C33.3149 1.81414 36.4526 9.91821e-05 40.0021 9.91821e-05C43.5515 9.91821e-05 46.6876 1.81414 48.5367 4.56029C54.5093 5.4807 60.3598 7.40016 65.5157 10.4526C72.1092 14.3551 77.7487 20.3076 79.4758 27.9637C79.8238 29.51 80.0012 31.0931 80.0012 32.6779ZM78.0332 28.2884C76.3983 21.0406 70.9963 15.4144 64.7626 11.7244C59.6 8.66865 53.7061 6.78767 47.7134 5.93421C46.1889 3.24662 43.3021 1.42422 40.0021 1.42422C36.702 1.42422 33.8153 3.24662 32.2907 5.93421C26.2964 6.78935 20.4024 8.67032 15.2398 11.7244C9.00614 15.4127 3.60252 21.0406 1.96922 28.2884C1.64456 29.7292 1.47889 31.2002 1.47889 32.6779C1.47889 34.1555 1.64456 35.6265 1.96922 37.0674C3.60419 44.3151 9.00614 49.9413 15.2398 53.6313C22.6148 57.9974 31.4808 59.967 40.0021 59.967C48.5233 59.967 57.3894 57.9957 64.7643 53.6313C70.998 49.9413 76.3999 44.3151 78.0349 37.0674C78.3596 35.6265 78.5252 34.1555 78.5252 32.6779C78.5252 31.2002 78.3596 29.7292 78.0349 28.2884H78.0332Z" fill="#0D1853"/>
<path fill-rule="evenodd" clip-rule="evenodd" d="M40.0023 57.0117C49.3988 57.0117 57.9452 54.5166 64.3043 50.4417H15.7002C22.0594 54.5149 30.6041 57.0117 40.0023 57.0117Z" fill="#0D1853"/>
<path fill-rule="evenodd" clip-rule="evenodd" d="M58.4468 38.3173C59.4325 37.5258 60.701 37.1258 61.5679 36.1753C62.4548 36.7861 63.3969 37.3149 64.3759 37.7651C64.3642 39.7599 64.3759 41.7546 64.3692 43.7494C64.3743 44.0372 64.3809 44.3786 64.6203 44.5828C64.893 44.7485 65.1909 44.5426 65.452 44.4523C65.4503 44.5426 65.4436 44.7234 65.4403 44.8121C64.719 45.284 64.0329 45.8195 63.4505 46.4571C63.0957 46.1759 62.7276 45.8931 62.4648 45.5183C62.2272 45.1819 62.1452 44.7702 62.0649 44.3736C61.0976 44.9242 60.1538 45.5618 59.4492 46.4353C58.7179 46.0538 58.0368 45.4731 57.7641 44.6715C57.3892 43.6021 57.3926 42.4491 57.3976 41.3296C57.4495 40.2686 57.5917 39.057 58.4452 38.314L58.4468 38.3173ZM60.0065 37.7835C59.7354 38.6955 59.8224 39.6611 59.8057 40.6016C59.8258 41.6844 59.7203 42.7922 60.0032 43.8515C60.0935 44.2213 60.4148 44.5828 60.8299 44.5142C61.275 44.4305 61.7636 44.2381 62.0515 43.8866C62.0799 42.2349 62.0615 40.5815 62.0582 38.9298C61.3252 38.632 60.7395 38.063 60.0048 37.7835H60.0065Z" fill="#0D1853"/>
<path fill-rule="evenodd" clip-rule="evenodd" d="M49.8053 36.1569C50.1467 36.5719 50.4847 37.094 51.0537 37.2028C51.3566 37.2446 51.5056 36.9401 51.6729 36.751C51.7147 36.7978 51.7984 36.8898 51.8403 36.9334C51.6629 37.6513 51.457 38.4478 50.8512 38.9315C50.4931 39.1758 49.9492 39.2996 49.5878 39.0018C49.233 38.7256 49.0372 38.3089 48.8263 37.924C48.6841 39.0871 48.7259 40.2602 48.7243 41.43C48.7561 42.1495 48.8096 42.9093 49.1811 43.5452C49.4087 43.8933 49.7551 44.2497 50.2053 44.238C50.7324 44.2196 51.1608 43.8749 51.5541 43.5603C51.6227 43.6222 51.7566 43.7477 51.8252 43.8096C50.796 44.6631 49.8036 45.5617 48.8113 46.4587C48.249 46.1039 47.6315 45.7877 47.2315 45.2404C46.6659 44.4071 46.4166 43.3996 46.3597 42.4039C46.3161 41.5103 46.3295 40.6066 46.4935 39.7264C46.614 39.1122 46.8433 38.4796 47.3303 38.0613C48.1319 37.3969 49.0556 36.8832 49.807 36.1552L49.8053 36.1569Z" fill="#0D1853"/>
<path fill-rule="evenodd" clip-rule="evenodd" d="M31.3037 36.177C32.1957 36.7694 33.1178 37.3267 34.1034 37.7484C34.1034 39.7465 34.1034 41.7429 34.1034 43.7411C34.1151 44.0506 34.1235 44.4272 34.408 44.623C34.6791 44.705 34.9351 44.546 35.1828 44.4623C35.1811 44.551 35.1761 44.7284 35.1761 44.8171C34.4549 45.2857 33.7771 45.8245 33.1931 46.4588C32.8282 46.1709 32.4467 45.8831 32.1856 45.4898C31.9614 45.1568 31.8878 44.7552 31.8091 44.3703C30.8402 44.9242 29.8963 45.5651 29.1868 46.4387C28.5525 46.0789 27.9233 45.6204 27.6187 44.9326C27.1619 43.9184 27.1519 42.7771 27.1401 41.6844C27.1468 40.7556 27.2188 39.7783 27.6723 38.9483C27.9919 38.3391 28.6078 37.986 29.1834 37.6563C29.9265 37.2196 30.7197 36.8246 31.3054 36.1736L31.3037 36.177ZM29.7876 37.7584C29.6855 37.9994 29.6085 38.2521 29.5968 38.5165C29.5114 39.6109 29.5466 40.7104 29.5399 41.8082C29.5533 42.4809 29.565 43.1671 29.7374 43.8231C29.8194 44.1477 30.0453 44.4824 30.4101 44.5159C30.9272 44.5326 31.369 44.2213 31.7907 43.9636C31.8007 42.2818 31.8058 40.6 31.789 38.9181C31.0761 38.6119 30.4737 38.1149 29.7892 37.7584H29.7876Z" fill="#0D1853"/>
<path fill-rule="evenodd" clip-rule="evenodd" d="M35.997 33.6283C37.0513 34.045 38.2328 33.7639 39.2017 33.2518C39.1967 36.6723 39.2017 40.0946 39.1984 43.5151C39.1933 43.8281 39.2285 44.233 39.5581 44.3786C39.8694 44.4975 40.1422 44.2515 40.4099 44.1343C40.4652 44.1862 40.5756 44.2899 40.6325 44.3435C39.8326 45.0028 39.0879 45.7241 38.3583 46.4588C37.7608 45.9366 37.13 45.4329 36.4104 45.0848C36.2229 44.9861 36.0104 44.9091 35.9033 44.7117C36.1711 44.5895 36.5024 44.5159 36.6564 44.2347C36.8555 43.8632 36.8522 43.4248 36.8622 43.0164C36.8605 41.0786 36.8622 39.139 36.8622 37.2011C36.8873 36.2088 36.8773 35.1177 36.2597 34.2843C36.1208 34.0701 35.7058 33.9027 35.992 33.625L35.997 33.6283Z" fill="#0D1853"/>
<path fill-rule="evenodd" clip-rule="evenodd" d="M53.09 33.1497C53.5201 32.8117 54.0957 32.7246 54.6296 32.738C55.1048 32.7665 55.6403 32.8619 55.9717 33.2384C56.1457 33.4392 56.0487 33.722 55.9248 33.9228C55.5399 34.547 54.9977 35.0508 54.5074 35.5879C53.992 35.0825 53.4615 34.5755 53.0733 33.963C52.9143 33.7203 52.8239 33.3539 53.09 33.1497ZM52.0039 38.483C52.8775 37.73 53.761 36.9803 54.5124 36.1C54.8856 36.5569 55.2939 36.987 55.7541 37.3585C55.7592 39.3382 55.7508 41.3195 55.7374 43.2993C55.7441 43.654 55.7474 44.1142 56.0989 44.3167C56.4854 44.4422 56.7699 44.0691 57.0226 43.8381C57.0896 43.9117 57.2234 44.059 57.2904 44.1326C56.5055 44.9041 55.7424 45.6957 54.9492 46.4588C54.2848 46.032 53.5033 45.5116 53.4515 44.6414C53.4046 42.8608 53.4615 41.0802 53.4247 39.3014C53.3895 38.9767 53.3661 38.56 53.0465 38.3809C52.7101 38.3006 52.4708 38.6119 52.2248 38.7826C52.1696 38.7073 52.0591 38.5567 52.0056 38.483H52.0039Z" fill="#0D1853"/>
<path fill-rule="evenodd" clip-rule="evenodd" d="M41.821 32.9707C42.5473 32.651 43.4292 32.641 44.1421 33.0008C44.4199 33.133 44.6341 33.4694 44.4584 33.7689C44.0868 34.4734 43.4827 35.014 42.9506 35.5947C42.4033 34.9922 41.7306 34.455 41.4043 33.6903C41.262 33.3723 41.5465 33.0811 41.821 32.9707ZM40.4604 38.4797C41.3273 37.7401 42.1891 36.987 42.9455 36.1319C43.3773 36.5234 43.7237 37.0104 44.2073 37.3518C44.2191 39.4169 44.1772 41.4836 44.2006 43.5487C44.2157 43.8499 44.296 44.2532 44.6391 44.3385C44.9939 44.3804 45.2315 44.0574 45.4641 43.8432C45.5361 43.9101 45.6783 44.0423 45.7503 44.1093C44.9922 44.9108 44.194 45.674 43.4191 46.4605C42.7414 46.0471 41.9582 45.51 41.9046 44.6364C41.8712 42.8993 41.9113 41.1623 41.8879 39.4252C41.8528 39.0771 41.8595 38.6337 41.5465 38.4078C41.1984 38.2588 40.9257 38.6203 40.6613 38.7843C40.6111 38.709 40.5123 38.5567 40.4621 38.4831L40.4604 38.4797Z" fill="#0D1853"/>
<path fill-rule="evenodd" clip-rule="evenodd" d="M18.8761 32.8401C20.0877 32.4167 21.5102 32.5908 22.5444 33.3689C23.2874 33.8141 23.8915 34.6374 24.8353 34.619C25.4478 34.6408 25.8829 34.1488 26.1256 33.64C26.1724 33.6919 26.2611 33.794 26.308 33.8459C25.9783 35.4809 24.3902 36.915 22.6632 36.6757C21.5001 36.5485 20.7203 35.5779 19.7028 35.1194C18.9029 34.7362 17.8737 34.6943 17.1391 35.2432C16.3291 35.854 15.9108 36.8548 15.7735 37.8354C15.633 38.9918 15.8271 40.2285 16.5015 41.1991C17.1843 42.2634 18.272 42.9696 19.3447 43.5938C20.2869 44.1076 21.3495 44.5661 22.4473 44.4105C22.4322 43.5302 22.3954 42.6483 22.382 41.7681C21.8281 41.7748 21.229 41.7814 20.7504 41.4601C20.1111 40.9932 19.7731 40.2552 19.4033 39.5808C19.7078 39.6846 20.0358 39.7415 20.3571 39.6628C21.378 39.4369 22.3101 38.8228 23.3828 38.8295C23.9886 38.8412 24.6496 38.9633 25.0964 39.4051C25.6302 39.959 25.9884 40.6552 26.298 41.353C26.1239 41.1522 25.9649 40.9062 25.6972 40.8259C25.3123 40.697 24.9157 40.856 24.5525 40.9765C24.5659 41.7497 24.5057 42.5245 24.5458 43.2993C24.5525 43.567 24.6713 43.8783 24.9609 43.9503C25.2771 44.0239 25.5482 43.8114 25.8009 43.6607C25.8461 43.7277 25.9365 43.8599 25.9833 43.9268C24.8655 45.3593 23.1435 46.3216 21.3227 46.4387C19.8568 46.5676 18.339 46.1559 17.1843 45.2321C15.6196 44.0975 14.8046 42.1563 14.7443 40.2603C14.6004 38.4379 15.064 36.5653 16.1199 35.0658C16.8061 34.0935 17.7315 33.2351 18.8745 32.8401H18.8761Z" fill="#0D1853"/>
<path fill-rule="evenodd" clip-rule="evenodd" d="M62.8645 22.3241C63.492 21.9643 64.1196 21.5828 64.6199 21.0489C65.527 21.6748 66.4875 22.2304 67.4983 22.6755C67.5033 24.7557 67.4816 26.8358 67.5117 28.9159C67.515 29.2121 67.5318 29.5836 67.8179 29.756C68.1041 29.8581 68.3836 29.6639 68.653 29.5903C68.6379 29.679 68.6061 29.8547 68.5894 29.9434C67.8849 30.4789 67.1485 30.9876 66.5578 31.657C66.1679 31.3441 65.7529 31.0395 65.4868 30.6078C65.2776 30.2764 65.209 29.8848 65.127 29.5083C64.1212 30.0756 63.1573 30.75 62.4093 31.6403C61.8269 31.2855 61.2362 30.8822 60.9015 30.2714C60.4647 29.4681 60.376 28.536 60.3292 27.639C60.2857 26.4325 60.2656 25.1556 60.791 24.0394C61.1877 23.1776 62.0963 22.781 62.8645 22.3208V22.3241ZM63.0218 22.6973C62.744 23.4755 62.821 24.3155 62.7858 25.1272C62.8059 26.3672 62.7055 27.6273 62.9665 28.8506C63.0452 29.2372 63.3146 29.674 63.7631 29.6589C64.2233 29.6305 64.645 29.4012 65.0132 29.1385C65.1839 29.0464 65.0985 28.8155 65.127 28.6649C65.1203 27.0751 65.127 25.487 65.1236 23.8972C64.3773 23.5742 63.7564 23.0303 63.0218 22.699V22.6973Z" fill="#0D1853"/>
<path fill-rule="evenodd" clip-rule="evenodd" d="M43.7238 22.535C44.6676 21.8706 45.7687 21.4774 46.7845 20.9419C47.5878 22.2622 48.4061 23.5742 49.1977 24.9013C47.7451 25.733 46.3042 26.5865 44.85 27.4132C45.0709 28.3085 45.7035 29.2105 46.6824 29.3293C47.6062 29.4514 48.3559 28.8139 49.0638 28.3235C49.1491 28.444 49.2395 28.5662 49.3265 28.6883C48.0932 29.6021 46.8799 30.5559 45.8089 31.6587C44.8718 31.232 43.8811 30.7668 43.2753 29.8966C42.3599 28.6816 42.2645 27.0785 42.3314 25.6142C42.3783 24.4679 42.7414 23.2245 43.7238 22.535ZM44.9521 22.2656C44.7412 22.8513 44.7345 23.4788 44.7295 24.093C44.7295 24.9481 44.7295 25.8016 44.7295 26.6584C45.4156 26.2618 46.1018 25.8652 46.7862 25.4669C46.1637 24.4043 45.6198 23.2981 44.9521 22.2639V22.2656Z" fill="#0D1853"/>
<path fill-rule="evenodd" clip-rule="evenodd" d="M36.8591 20.9703C37.7126 21.4054 38.4489 22.1015 38.7351 23.037C39.0882 22.1333 39.6839 21.2481 40.6261 20.8933C41.1281 21.5861 41.6419 22.2706 42.1406 22.9667C41.5649 23.5006 40.9959 24.0394 40.4169 24.5682C40.0019 24.0562 39.5935 23.5407 39.1735 23.0353C38.479 24.7038 38.7769 26.5463 38.7049 28.3017C38.5911 28.9125 39.2187 29.2941 39.7157 29.4531C40.3232 29.2958 40.765 28.8054 41.2352 28.4189C41.2352 28.6431 41.2386 28.869 41.2419 29.0966C40.2646 29.8848 39.3626 30.7617 38.4824 31.6587C37.5687 30.8956 36.5713 30.2095 35.445 29.8028C35.4116 29.5886 35.6709 29.5685 35.7965 29.4648C36.2516 29.2238 36.3085 28.6398 36.3236 28.1812C36.3236 26.8759 36.3253 25.569 36.3236 24.2637C36.3119 23.8369 36.2483 23.273 35.7965 23.0872C35.4266 22.9768 35.1471 23.3115 34.8794 23.5089C34.8827 23.3081 34.8878 23.1073 34.8961 22.9065C35.5571 22.2672 36.1947 21.6029 36.8608 20.9669L36.8591 20.9703Z" fill="#0D1853"/>
<path fill-rule="evenodd" clip-rule="evenodd" d="M22.3269 23.3299C23.0682 22.3559 24.2731 21.9191 25.1166 21.0573C25.6152 21.5141 26.1658 22.0011 26.8703 22.0664C27.364 22.145 27.856 22.0011 28.3045 21.8037C28.0284 22.8479 27.0963 23.7348 25.9918 23.7867C25.073 23.7566 24.3702 23.0839 23.7159 22.5182C23.5853 23.4286 23.587 24.4912 24.2179 25.2259C25.0747 26.0492 26.6377 25.7246 27.1665 24.6753C28.0535 25.2443 28.758 26.1881 28.8233 27.2658C28.8434 28.0222 28.6308 28.8121 28.1121 29.3811C27.3406 30.3132 26.2077 30.822 25.3492 31.6604C24.7099 31.1249 23.9468 30.6195 23.0783 30.6513C22.5545 30.6513 22.0993 30.9374 21.6475 31.1633C21.7311 30.6814 22.0658 30.3032 22.3403 29.9183C22.7904 29.3209 23.413 28.7318 24.2112 28.7335C25.1818 28.7301 25.9114 29.4681 26.5122 30.1425C26.9574 29.1887 26.7733 27.962 26.0437 27.2039C25.5583 26.6785 24.6915 26.6199 24.1125 27.0182C23.7795 27.2274 23.5602 27.562 23.3644 27.8951C22.7218 27.4533 22.1411 26.8642 21.865 26.1245C21.532 25.1974 21.6793 24.0913 22.3252 23.3332L22.3269 23.3299Z" fill="#0D1853"/>
<path fill-rule="evenodd" clip-rule="evenodd" d="M55.0278 18.4317C56.1138 18.8483 57.3187 18.5555 58.3145 18.035C58.3145 21.5794 58.3145 25.1255 58.3145 28.6699C58.3094 28.9845 58.363 29.4146 58.7211 29.52C59.0491 29.6188 59.3286 29.3811 59.5846 29.2188C59.6281 29.2908 59.7185 29.433 59.7637 29.5066C58.9437 30.171 58.1923 30.9124 57.4493 31.6604C56.6845 30.9559 55.8043 30.4003 54.8788 29.9317C55.1784 29.7275 55.6085 29.6305 55.749 29.2573C55.9231 28.7837 55.9047 28.2716 55.9147 27.7763C55.9097 25.6326 55.9197 23.4872 55.9114 21.3401C55.8913 20.3846 55.6804 19.2952 54.8638 18.6927C54.9056 18.6274 54.9893 18.4969 55.0311 18.4317H55.0278Z" fill="#0D1853"/>
<path fill-rule="evenodd" clip-rule="evenodd" d="M49.9304 18.5053C50.9579 18.8132 52.049 18.5103 52.9778 18.0417C52.9661 21.541 52.9778 25.0419 52.9711 28.5411C52.9745 28.8791 52.9711 29.3159 53.3175 29.4949C53.6472 29.6506 53.9685 29.4079 54.2296 29.2289C54.2948 29.3192 54.3651 29.4096 54.4371 29.5C53.6137 30.166 52.8556 30.909 52.111 31.6587C51.4801 31.1182 50.8257 30.5877 50.0727 30.2279C49.8886 30.1325 49.671 30.0639 49.579 29.8631C49.8702 29.7309 50.2367 29.6389 50.3806 29.3209C50.5597 28.9243 50.5597 28.4758 50.5714 28.0507C50.568 25.7681 50.5747 23.4855 50.568 21.2029C50.5329 20.2808 50.2986 19.2466 49.5054 18.676C49.5907 18.502 49.7447 18.4099 49.9304 18.507V18.5053Z" fill="#0D1853"/>
<path fill-rule="evenodd" clip-rule="evenodd" d="M32.0594 17.7907C32.3205 17.7907 32.5849 17.7907 32.8476 17.7907C32.8476 19.2165 32.8509 20.644 32.8476 22.0698C33.4701 22.0765 34.091 22.0731 34.7152 22.0731C34.7135 22.5049 34.7152 22.9366 34.7152 23.37C34.0927 23.3667 33.4718 23.3667 32.8493 23.37C32.8543 25.0469 32.8409 26.7237 32.8543 28.4005C32.861 28.8088 33.0049 29.3192 33.4534 29.4347C33.9119 29.587 34.2901 29.2205 34.6483 28.9979C34.6483 29.182 34.9009 29.4581 34.6566 29.5853C33.7965 30.2497 32.9463 30.9324 32.1347 31.6604C31.5021 31.0847 30.8645 30.4706 30.0596 30.1476C29.8705 30.0522 29.6245 30.0154 29.5408 29.7945C29.7902 29.679 30.1065 29.6204 30.2537 29.3594C30.4428 29.0314 30.4495 28.6381 30.4629 28.2716C30.4629 26.65 30.4629 25.0268 30.4629 23.4052C29.9994 23.4052 29.5341 23.4052 29.0723 23.4052C29.0723 23.109 29.0723 22.8145 29.0723 22.5199C30.0061 22.1183 30.7608 21.3602 31.1842 20.4381C31.5942 19.6014 31.8485 18.6994 32.0611 17.7957L32.0594 17.7907Z" fill="#0D1853"/>
<path fill-rule="evenodd" clip-rule="evenodd" d="M14.4379 19.2767C15.2161 18.5454 16.0695 17.9028 16.9063 17.2435C17.2728 17.6886 17.6543 18.1706 18.2183 18.368C19.0701 18.6743 20.0256 18.3965 20.7268 17.866C20.782 17.9195 20.8941 18.0283 20.951 18.0835C20.4892 18.9236 19.8198 19.7302 18.8776 20.0382C18.0727 20.2842 17.1791 20.3712 16.3775 20.0716C15.8938 19.8942 15.5441 19.4976 15.124 19.2215C14.9216 20.1419 15.5357 20.9335 15.852 21.7451C16.2921 22.6471 16.5632 23.621 16.6603 24.6184C16.9766 23.611 17.4133 22.4446 18.5095 22.0714C19.2776 21.7719 20.0591 22.207 20.5795 22.7575C20.0256 23.4604 19.4868 24.1766 19.045 24.9565C18.6969 24.677 18.3639 24.3272 17.9104 24.2319C17.6275 24.1632 17.3163 24.2754 17.1422 24.508C16.7138 25.0636 16.3942 25.6945 16.0311 26.2936C15.6679 26.886 15.109 27.3244 14.5099 27.6625C15.2596 27.6139 16.0193 27.7629 16.6854 28.1143C17.3447 28.4155 17.9472 28.8406 18.64 29.0632C19.2977 29.264 20.0909 29.2037 20.6113 28.7167C20.9895 28.3419 21.0849 27.7913 21.1887 27.291C21.2841 27.291 21.4765 27.291 21.5736 27.291C21.525 28.3385 21.341 29.4481 20.6599 30.2848C19.8666 31.3525 18.4375 31.8076 17.1506 31.6085C16.0896 31.4863 15.2178 30.8153 14.2538 30.4187C13.6196 30.1877 12.8565 30.1258 12.2607 30.4956C11.9645 30.673 11.8123 30.996 11.66 31.2922C11.583 31.2889 11.429 31.2855 11.3521 31.2838C11.5194 30.0438 12.1285 28.8272 13.1945 28.1277C13.7618 27.8081 13.9058 27.1236 13.9694 26.5279C14.1116 25.1723 13.1728 24.0344 12.9803 22.7324C12.8933 22.0948 12.905 21.4121 13.1945 20.8247C13.4824 20.2172 13.961 19.7302 14.4413 19.27L14.4379 19.2767Z" fill="#0D1853"/>
<path fill-rule="evenodd" clip-rule="evenodd" d="M40.0004 6.02293L38.7336 8.19844H36.2603L37.4869 10.3187L36.2603 12.4373H38.7336L40.0004 14.6145L41.2689 12.4373H43.7423L42.5157 10.3187L43.7423 8.19844H41.2689L40.0004 6.02293Z" fill="#0D1853"/>
<path fill-rule="evenodd" clip-rule="evenodd" d="M40.0003 6.44128L38.854 8.41263L40.0003 10.3187V6.44128Z" fill="white"/>
<path fill-rule="evenodd" clip-rule="evenodd" d="M40.0005 10.3187L43.3742 8.41265H41.1485L40.0005 10.3187Z" fill="white"/>
<path fill-rule="evenodd" clip-rule="evenodd" d="M40.0005 10.3186L43.3742 12.2231L42.2714 10.3186H40.0005Z" fill="white"/>
<path fill-rule="evenodd" clip-rule="evenodd" d="M40.0005 10.3186L36.6284 12.2231H38.8541L40.0005 10.3186Z" fill="white"/>
<path fill-rule="evenodd" clip-rule="evenodd" d="M40.0005 10.3187L36.6284 8.41265L37.7296 10.3187H40.0005Z" fill="white"/>
<path fill-rule="evenodd" clip-rule="evenodd" d="M40.0005 14.1944L41.1485 12.2231L40.0005 10.3186V14.1944Z" fill="white"/>
<path d="M40.0003 3.00393C35.9824 3.00393 32.7258 6.26049 32.7258 10.2802C32.7258 14.2998 35.9824 17.5547 40.0003 17.5547C44.0183 17.5547 47.2766 14.2981 47.2766 10.2802C47.2766 6.26217 44.02 3.00393 40.0003 3.00393ZM40.0003 15.8461C36.9262 15.8461 34.4344 13.3543 34.4344 10.2802C34.4344 7.206 36.9262 4.71421 40.0003 4.71421C43.0745 4.71421 45.5663 7.206 45.5663 10.2802C45.5663 13.3543 43.0745 15.8461 40.0003 15.8461ZM40.0003 2.26593C35.574 2.26593 31.9878 5.85384 31.9878 10.2802C31.9878 14.7065 35.5757 18.2927 40.0003 18.2927C44.425 18.2927 48.0146 14.7048 48.0146 10.2802C48.0146 5.85551 44.4267 2.26593 40.0003 2.26593ZM40.0003 17.8526C35.8184 17.8526 32.4279 14.4621 32.4279 10.2802C32.4279 6.09817 35.8184 2.70605 40.0003 2.70605C44.1823 2.70605 47.5744 6.09649 47.5744 10.2802C47.5744 14.4638 44.184 17.8526 40.0003 17.8526Z" fill="#0D1853"/>
<path d="M34.2787 8.74227L33.9457 8.64521L34.0177 8.39419L34.3524 8.49125L34.4494 8.15823L33.4855 7.87709L33.3885 8.21011L33.7114 8.3055L33.6395 8.55484L33.3165 8.46113L33.2178 8.79582L34.1817 9.07697L34.2787 8.74227Z" fill="white"/>
<path d="M33.7202 7.35419L33.5811 7.67323L34.5014 8.07473L34.6406 7.75569L33.7202 7.35419Z" fill="white"/>
<path d="M34.4947 7.43025C34.4997 7.47544 34.4813 7.51225 34.4461 7.53903L34.667 7.67291C34.6871 7.65282 34.744 7.58756 34.7775 7.52564C34.8796 7.33989 34.8528 7.18593 34.6603 7.08217L34.0428 6.74413L33.8755 7.0487L34.3876 7.32817C34.4378 7.35662 34.4913 7.37503 34.4963 7.43025H34.4947Z" fill="white"/>
<path d="M34.5329 6.86292C34.7688 7.0403 35.1035 6.97002 35.2809 6.73238C35.4583 6.49643 35.4282 6.15002 35.1905 5.97096C34.9562 5.79524 34.6349 5.86553 34.4509 6.10986C34.2735 6.34581 34.2969 6.68385 34.5345 6.86292H34.5329ZM34.6902 6.29226C34.7621 6.19688 34.8927 6.18349 34.9847 6.2521C35.0767 6.32239 35.0985 6.45459 35.0282 6.54663C34.9596 6.63532 34.8291 6.65206 34.7387 6.58345C34.6467 6.51483 34.6199 6.3843 34.6902 6.29226Z" fill="white"/>
<path d="M35.5491 5.83378C35.6461 5.77186 35.7181 5.68818 35.7716 5.74508C35.8151 5.79194 35.785 5.84047 35.7432 5.88063C35.6947 5.92749 35.6194 5.92247 35.5725 5.89904L35.4604 6.135C35.6294 6.20026 35.7649 6.16178 35.9105 6.02288C36.0678 5.87227 36.1214 5.63296 35.9624 5.46729C35.8018 5.29827 35.6461 5.37525 35.5323 5.45725C35.4503 5.51414 35.3884 5.57272 35.3416 5.52418C35.3047 5.48569 35.3315 5.44219 35.365 5.40872C35.4118 5.36353 35.4654 5.35182 35.5273 5.38529L35.6344 5.16272C35.4821 5.06733 35.3265 5.14431 35.2027 5.26312C35.0454 5.41206 35.0203 5.643 35.1709 5.80031C35.293 5.92916 35.4453 5.90071 35.5507 5.83378H35.5491Z" fill="white"/>
<path d="M36.975 5.18782C37.298 4.99704 37.3097 4.72259 37.1641 4.47659C37.0252 4.24231 36.7776 4.14023 36.483 4.31427L36.0864 4.54855L36.5968 5.41206L36.9767 5.18782H36.975ZM36.5834 4.55692C36.7006 4.48831 36.7993 4.56864 36.8579 4.66737C36.9198 4.7728 36.9533 4.91002 36.8294 4.98365L36.7692 5.0188L36.5182 4.59374L36.5834 4.55525V4.55692Z" fill="white"/>
<path d="M38.1932 4.62556L38.1045 4.40299L37.7196 4.55527L37.6678 4.42474L38.0543 4.27246L37.9656 4.04821L37.5807 4.2005L37.5289 4.06829L37.9138 3.91601L37.8267 3.69176L37.1172 3.97123L37.482 4.90503L38.1932 4.62556Z" fill="white"/>
<path d="M39.0416 4.43309L39.0048 4.15362L39.152 4.13354L39.3612 4.38958L39.7863 4.33268L39.4332 3.94444C39.5236 3.86578 39.5554 3.74529 39.5436 3.65827C39.5185 3.47252 39.3244 3.38382 39.1269 3.4106L38.563 3.48591L38.6969 4.47994L39.0416 4.43309ZM39.0583 3.65827C39.1554 3.64489 39.1889 3.69007 39.1972 3.75868C39.2089 3.84235 39.1621 3.88252 39.0868 3.89423L38.9713 3.90929L38.9395 3.67333L39.0567 3.65827H39.0583Z" fill="white"/>
<path d="M40.1449 3.35422L39.7969 3.35987L39.8131 4.36214L40.1612 4.35649L40.1449 3.35422Z" fill="white"/>
<path d="M41.4947 3.48926L41.0981 3.43738L40.8638 3.80722L40.7316 3.38885L40.335 3.33698L40.7851 4.4264L41.4947 3.48926Z" fill="white"/>
<path d="M42.1173 4.73435L42.1876 4.50509L41.7927 4.38292L41.8328 4.24737L42.2294 4.36954L42.3014 4.14027L41.9048 4.01811L41.9466 3.88256L42.3432 4.00472L42.4135 3.77378L41.6839 3.54954L41.3877 4.50843L42.1173 4.73435Z" fill="white"/>
<path d="M42.5124 4.91172L42.6396 4.6607L42.7718 4.72764L42.8003 5.05731L43.1718 5.24474L43.4228 5.43886L43.5483 5.37694L43.8479 5.60956L43.8194 5.74678L44.0939 5.95931L44.2445 4.78621L43.1785 5.21629L43.1115 4.73266C43.2304 4.71927 43.3257 4.63727 43.3642 4.55862C43.4479 4.39127 43.3375 4.20719 43.1601 4.1185L42.653 3.86246L42.2012 4.75776L42.5124 4.91507V4.91172ZM43.9566 5.15772L43.9048 5.38364L43.7508 5.26482L43.9566 5.15772ZM42.8572 4.22895L42.9626 4.2825C43.0513 4.32601 43.0513 4.3829 43.0195 4.44482C42.9827 4.52013 42.9191 4.52682 42.8521 4.49335L42.7484 4.44148L42.8555 4.22895H42.8572Z" fill="white"/>
<path d="M44.0184 6.16677L44.5154 6.05967L44.5656 6.01114L44.3313 5.77351L43.9766 6.12326L44.0184 6.16677Z" fill="white"/>
<path d="M45.4122 7.08555C45.6046 6.95334 45.5544 6.78935 45.4925 6.66216C45.449 6.5718 45.4022 6.50151 45.4591 6.46302C45.5026 6.4329 45.5427 6.46637 45.5695 6.50653C45.6063 6.56008 45.608 6.6153 45.5645 6.67053L45.767 6.81277C45.8858 6.67722 45.8356 6.51155 45.7385 6.37098C45.618 6.19192 45.3938 6.12833 45.2131 6.25216C45.0675 6.3509 45.0691 6.50653 45.1177 6.62033C45.1629 6.72575 45.2331 6.80943 45.1679 6.85461C45.1143 6.88975 45.0708 6.85126 45.039 6.80441C45.0005 6.74751 45.0173 6.67555 45.0491 6.63371L44.8349 6.48477C44.7428 6.64041 44.7596 6.7793 44.8717 6.94665C44.9938 7.12571 45.2214 7.21775 45.4105 7.0889L45.4122 7.08555Z" fill="white"/>
<path d="M45.4362 7.19259L45.1499 7.3456L45.3069 7.63931L45.5932 7.4863L45.4362 7.19259Z" fill="white"/>
<path d="M45.4677 7.98416L45.6066 7.99754L45.7388 8.35399L45.6417 8.4544L45.7622 8.77905L46.5119 7.86367L45.3472 7.65783L45.4677 7.98248V7.98416ZM46.0684 8.02934L45.9061 8.19334L45.8375 8.01093L46.0684 8.02934Z" fill="white"/>
<path d="M46.013 8.75607L45.7422 8.81795L45.8059 9.09692L46.0767 9.03504L46.013 8.75607Z" fill="white"/>
<path d="M33.6011 11.5804C33.5476 11.5687 33.4656 11.5135 33.4488 11.4114C33.4287 11.2976 33.5158 11.1939 33.6296 11.1755C33.7383 11.157 33.8454 11.2307 33.8638 11.3395C33.8789 11.4265 33.8454 11.5035 33.7785 11.5503L33.9408 11.8348C34.1282 11.7143 34.2036 11.5252 34.1634 11.2826C34.1082 10.9562 33.8438 10.7855 33.5676 10.8324C33.2514 10.8859 33.089 11.1504 33.1359 11.4348C33.1811 11.7009 33.3501 11.8817 33.571 11.9034L33.6028 11.5804H33.6011Z" fill="white"/>
<path d="M33.6295 12.3703L33.7617 12.3251L33.894 12.7184L34.1215 12.6431L33.991 12.2498L34.1249 12.2046L34.2571 12.5979L34.4847 12.5209L34.2437 11.798L33.2915 12.1159L33.5325 12.8389L33.7601 12.7636L33.6295 12.3703Z" fill="white"/>
<path d="M34.6621 13.5434C34.8277 13.4564 34.8461 13.2438 34.7541 13.0665L34.4914 12.5627L33.6011 13.0263L33.7617 13.3359L34.0111 13.2054L34.0797 13.3359L33.9107 13.6204L34.1081 14.0019L34.3541 13.5367C34.4579 13.5953 34.5834 13.5836 34.6621 13.5434ZM34.4478 13.2522C34.3725 13.2907 34.3173 13.2606 34.2838 13.1936L34.2303 13.0899L34.4412 12.9794L34.4964 13.0849C34.5416 13.1719 34.5098 13.2187 34.4478 13.2505V13.2522Z" fill="white"/>
<path d="M35.6631 15.2203L35.8321 15.0496L35.5376 14.7584L35.6363 14.6563L35.9325 14.9475L36.1015 14.7768L35.5577 14.2413L35.5493 14.2497L35.3368 13.9618L34.9084 14.0522L35.1175 13.6656L34.8782 13.3443L34.4097 14.4254L35.5075 14.2915L34.8531 14.9559L35.397 15.4914L35.5644 15.3207L35.2698 15.0295L35.3686 14.9291L35.6631 15.2203Z" fill="white"/>
<path d="M36.3337 15.6838C36.2868 15.7123 36.1898 15.7307 36.1078 15.6687C36.0141 15.6001 36.004 15.4663 36.0726 15.3725C36.1379 15.2838 36.2651 15.2621 36.3538 15.3257C36.4257 15.3776 36.4559 15.4562 36.4408 15.5365L36.7554 15.6269C36.8039 15.4094 36.727 15.2219 36.5278 15.0763C36.2601 14.8822 35.9522 14.9441 35.7865 15.1717C35.5974 15.4311 35.666 15.734 35.8986 15.9047C36.1162 16.0637 36.3638 16.0754 36.5362 15.9348L36.332 15.6821L36.3337 15.6838Z" fill="white"/>
<path d="M37.281 16.2679L37.3931 16.0553L37.0266 15.8612L37.0936 15.7357L37.4601 15.9298L37.5722 15.7156L36.8978 15.3609L36.4292 16.2495L37.1036 16.6042L37.2157 16.3934L36.8492 16.1993L36.9145 16.0754L37.281 16.2679Z" fill="white"/>
<path d="M38.4073 16.3331C38.4675 16.1557 38.332 15.9884 38.1445 15.9248L37.6057 15.7424L37.2827 16.6929L37.6124 16.805L37.7028 16.5389L37.8433 16.5858L37.917 16.9088L38.3236 17.046L38.1797 16.5406C38.2952 16.5105 38.3788 16.4168 38.4073 16.3331ZM38.0508 16.2712C38.0241 16.3515 37.9638 16.3666 37.8919 16.3431L37.7814 16.3063L37.8584 16.0804L37.9705 16.1189C38.0642 16.1507 38.0726 16.2059 38.0508 16.2712Z" fill="white"/>
<path d="M39.0183 16.1222C38.7255 16.0737 38.4376 16.2527 38.3891 16.5439C38.3406 16.8351 38.5581 17.0978 38.851 17.1464C39.1422 17.1949 39.4367 17.0091 39.4852 16.7129C39.5338 16.4234 39.3212 16.1707 39.0183 16.1205V16.1222ZM39.1405 16.6627C39.1221 16.7765 39.015 16.8585 38.8995 16.8368C38.7874 16.8167 38.7154 16.7096 38.7338 16.5975C38.7523 16.4837 38.856 16.4 38.9698 16.4184C39.087 16.4385 39.1606 16.5473 39.1405 16.6611V16.6627Z" fill="white"/>
<path d="M40.0369 16.5724C39.9382 16.5573 39.8528 16.5557 39.8528 16.4871C39.8528 16.4352 39.903 16.4201 39.9499 16.4218C40.0152 16.4218 40.0603 16.4519 40.0821 16.5188L40.313 16.4335C40.2695 16.2595 40.1038 16.2059 39.9332 16.2042C39.7173 16.2026 39.5365 16.3498 39.5349 16.5674C39.5349 16.7448 39.6621 16.8301 39.7825 16.8552C39.8947 16.877 40.0034 16.8686 40.0034 16.9473C40.0034 17.0108 39.9465 17.0259 39.8896 17.0242C39.821 17.0242 39.7708 16.9673 39.7541 16.9188L39.5098 17.0092C39.5851 17.1732 39.7089 17.2401 39.9114 17.2418C40.1289 17.2435 40.3331 17.1096 40.3348 16.8803C40.3365 16.6477 40.1725 16.5942 40.0336 16.5741L40.0369 16.5724Z" fill="white"/>
<path d="M41.2101 16.0989L40.7583 16.1926L40.9625 17.1749L41.3942 17.0845C41.7624 17.0075 41.8611 16.7515 41.8025 16.472C41.7473 16.2043 41.5448 16.0286 41.2101 16.0972V16.0989ZM41.3206 16.8452L41.252 16.8586L41.1516 16.3766L41.2252 16.3616C41.3591 16.3348 41.426 16.4419 41.4494 16.5557C41.4745 16.6745 41.4628 16.8168 41.3206 16.8469V16.8452Z" fill="white"/>
<path d="M42.3033 16.5808L42.2548 16.4486L42.6431 16.303L42.5594 16.0788L42.1711 16.2227L42.1209 16.0888L42.5092 15.9449L42.4255 15.719L41.7109 15.985L42.0607 16.9255L42.7753 16.6594L42.6933 16.4352L42.3033 16.5808Z" fill="white"/>
<path d="M43.0448 15.7892C42.951 15.8227 42.8757 15.8612 42.8423 15.8009C42.8172 15.7541 42.854 15.7189 42.8958 15.6972C42.9527 15.6671 43.0079 15.6704 43.0581 15.7189L43.2205 15.5332C43.0983 15.401 42.9293 15.4328 42.777 15.5131C42.5862 15.6152 42.4992 15.8311 42.6013 16.0218C42.685 16.1775 42.8389 16.1925 42.9577 16.1557C43.0682 16.1222 43.1586 16.062 43.1954 16.1306C43.2255 16.1875 43.182 16.226 43.1318 16.2528C43.0715 16.2846 43.0012 16.2595 42.9628 16.2243L42.7921 16.4201C42.9377 16.5289 43.0782 16.5272 43.2556 16.4318C43.4481 16.3297 43.5619 16.1139 43.4548 15.9114C43.3443 15.7055 43.1753 15.739 43.0431 15.7859L43.0448 15.7892Z" fill="white"/>
<path d="M43.5334 15.0579L43.1636 15.3323L43.761 16.1389L44.1158 15.8762C44.417 15.652 44.4003 15.3775 44.2296 15.1483C44.0672 14.929 43.8095 14.8537 43.5334 15.0579ZM43.9484 15.6888L43.8932 15.7306L43.5987 15.334L43.6589 15.2888C43.7694 15.2085 43.8748 15.2771 43.9434 15.3708C44.0154 15.4679 44.0639 15.6018 43.9484 15.6888Z" fill="white"/>
<path d="M44.7265 15.0379L44.6277 14.9391L44.9206 14.6446L44.7499 14.4756L44.457 14.7684L44.3566 14.668L44.6495 14.3752L44.4788 14.2045L43.9399 14.745L44.6512 15.4529L45.1883 14.9124L45.0193 14.7433L44.7265 15.0379Z" fill="white"/>
<path d="M44.8599 13.9033L45.5861 14.417L45.7769 14.1459L44.9435 13.5585L44.8599 13.9033Z" fill="white"/>
<path d="M45.8844 12.9461C45.6451 12.8155 45.359 12.8323 45.205 13.1151C45.0912 13.3259 45.1146 13.5602 45.3054 13.664C45.4594 13.7477 45.6518 13.6774 45.7338 13.5234C45.7807 13.4364 45.7974 13.3611 45.8024 13.2774C45.8861 13.3226 45.953 13.4197 45.9062 13.505C45.8777 13.5569 45.8141 13.5803 45.774 13.5853L45.7522 13.8514C45.8978 13.8581 46.0283 13.7744 46.1103 13.6238C46.2425 13.3795 46.1287 13.0799 45.8844 12.9461ZM45.6334 13.3293C45.5966 13.3962 45.523 13.4029 45.4627 13.3711C45.4075 13.341 45.3857 13.2674 45.4159 13.2105C45.4476 13.1502 45.5146 13.1285 45.5748 13.1619C45.6351 13.1937 45.6685 13.2607 45.6317 13.3293H45.6334Z" fill="white"/>
<path d="M46.2288 11.9955C45.9075 11.8817 45.6749 12.0089 45.5828 12.27C45.4925 12.5243 45.6197 12.7888 45.9125 12.8925C46.2204 13.0013 46.4698 12.8775 46.5618 12.6181C46.6539 12.3587 46.5601 12.1127 46.2288 11.9955ZM46.3074 12.5294C46.269 12.6365 46.1284 12.6197 46.0213 12.5812C45.9159 12.5444 45.7937 12.4641 45.8305 12.3587C45.869 12.2516 46.0079 12.2683 46.115 12.3068C46.2221 12.3453 46.3443 12.4223 46.3058 12.5277L46.3074 12.5294Z" fill="white"/>
<path d="M46.5854 11.0768C46.403 11.0417 46.2523 11.1404 46.2088 11.363C46.1921 11.4517 46.2038 11.547 46.2189 11.5905C46.1285 11.5738 46.0331 11.5069 46.0515 11.4132C46.0666 11.3345 46.1168 11.3061 46.157 11.281L46.095 11.0199C45.9478 11.0651 45.8507 11.1956 45.8189 11.3646C45.7654 11.6474 45.9746 11.8868 46.2774 11.9453C46.5787 12.0022 46.7962 11.8349 46.8448 11.5772C46.8866 11.3613 46.8012 11.1186 46.5854 11.0785V11.0768ZM46.4732 11.6391C46.408 11.6274 46.3594 11.5654 46.3712 11.5019C46.3862 11.4249 46.4532 11.3864 46.5201 11.3998C46.587 11.4132 46.6322 11.4751 46.6188 11.5437C46.6054 11.6106 46.5385 11.6525 46.4716 11.6391H46.4732Z" fill="white"/>
<path d="M33.3101 9.93712C33.3101 10.0961 33.4389 10.225 33.5979 10.225C33.7569 10.225 33.8841 10.0961 33.8841 9.93712C33.8841 9.77814 33.7552 9.65096 33.5979 9.65096C33.4406 9.65096 33.3101 9.77981 33.3101 9.93712Z" fill="white"/>
<path d="M46.1187 9.93712C46.1187 10.0961 46.2475 10.225 46.4048 10.225C46.5621 10.225 46.6927 10.0961 46.6927 9.93712C46.6927 9.77814 46.5638 9.65096 46.4048 9.65096C46.2458 9.65096 46.1187 9.77981 46.1187 9.93712Z" fill="white"/>
</g>
<defs>
<clipPath id="clip0_1311_45610">
<rect width="80" height="61.4446" fill="white"/>
</clipPath>
</defs>
</svg>
