<svg width="80" height="18" viewBox="0 0 80 18" fill="none" xmlns="http://www.w3.org/2000/svg">
<g clip-path="url(#clip0_1311_43683)">
<path d="M65.3039 2.51979C63.6085 4.18229 62.769 6.22084 62.769 8.58354C62.769 13.3621 66.6245 17.1315 71.3828 17.1315C76.1412 17.1315 80.0005 13.3811 80.0005 8.58354C80.0005 6.23604 79.1407 4.23167 77.4795 2.53498C75.8006 0.839564 73.7683 8.39233e-05 71.3828 8.39233e-05C68.9974 8.39233e-05 66.9841 0.839563 65.3039 2.51979ZM55.3264 9.13053H61.1344V6.52853H55.3264V2.89458H61.6548V0.27358H52.6053V16.8745H61.6712V14.2548H55.3264V9.13053ZM15.4163 0.27358V16.8745H18.1424V0.27358H15.4163ZM3.51161 16.8745C6.55932 16.8745 8.90556 16.1882 10.4794 14.7676C12.2812 13.157 13.1916 11.0994 13.1916 8.58228C13.1916 6.0651 12.2635 3.85308 10.4161 2.27795C8.85491 0.944657 6.54286 0.27358 3.54454 0.27358H0.000488281V16.8745H3.51161ZM30.3927 13.2444L31.9108 16.8745H34.9282L27.8553 0.222932H26.4802L19.2224 16.8745H22.2157L23.8073 13.1735C23.8478 13.0722 23.8642 13.0013 23.8807 12.9341C23.9503 12.9683 24.0453 13.0025 24.1681 13.0532C25.0633 13.3963 26.1282 13.585 27.1665 13.585C28.2047 13.585 29.2075 13.3811 29.8077 13.1747C30.1116 13.0734 30.2142 13.0202 30.3041 12.9696C30.3193 13.038 30.375 13.1937 30.3927 13.2456V13.2444ZM47.9509 5.34718L50.0236 3.56566C48.2395 1.18143 45.8528 8.39233e-05 43.0469 8.39233e-05C38.2709 8.39233e-05 34.4141 3.82143 34.4141 8.59874C34.4141 13.376 38.2544 17.1303 42.9266 17.1303C44.1118 17.1303 45.24 16.8732 46.3339 16.3756C47.4001 15.8958 48.3269 15.2297 49.0778 14.3561C49.7995 13.5495 50.2629 12.6265 50.5339 11.6135C50.758 10.7753 50.896 9.74716 50.8226 8.5139L50.7922 8.01756H43.3179V10.6386H47.9103C47.7913 11.6654 47.2633 12.5581 46.3327 13.295C45.3261 14.1155 44.1726 14.5118 42.8925 14.5118C41.4072 14.5118 40.0701 13.8952 38.8293 12.6771C37.7176 11.5464 37.1579 10.1941 37.1579 8.61773C37.1579 6.95396 37.734 5.51811 38.9344 4.31777C40.0701 3.17187 41.4363 2.62235 43.014 2.62235C45.0374 2.62235 46.6302 3.54666 47.9496 5.34718H47.9509ZM75.5435 4.35322C76.7109 5.48392 77.2706 6.90458 77.2706 8.56455C77.2706 10.2245 76.6945 11.6135 75.5435 12.7809C74.3976 13.9268 73.0074 14.5118 71.3828 14.5118C68.1123 14.5118 65.5027 11.8212 65.5027 8.56455C65.5027 6.92104 66.0877 5.49912 67.2374 4.33423C68.3681 3.18707 69.7773 2.62108 71.3828 2.62108C72.9884 2.62108 74.3837 3.20353 75.5435 4.35196V4.35322ZM3.60025 2.89458C5.92749 2.89458 7.5672 3.37446 8.59914 4.28358C9.83114 5.36237 10.4478 6.78556 10.4478 8.56455C10.4478 10.3435 9.8476 11.6667 8.67131 12.7645C7.63937 13.7394 5.95915 14.2548 3.60025 14.2548H2.83927V2.89458H3.60025ZM24.8544 10.6234C24.9013 10.5195 24.9899 10.3473 25.0228 10.2612L27.1183 5.19144L29.1734 10.3106C29.2063 10.3992 29.2784 10.5347 29.3253 10.655L29.0708 10.7057C28.4858 10.8614 27.8388 10.964 27.1652 10.964C26.4916 10.964 25.8863 10.8766 25.2305 10.7057C25.1089 10.6715 24.943 10.6221 24.8544 10.6221V10.6234Z" fill="#0D1853"/>
</g>
<defs>
<clipPath id="clip0_1311_43683">
<rect width="80" height="17.1315" fill="white"/>
</clipPath>
</defs>
</svg>
