<svg width="80" height="23" viewBox="0 0 80 23" fill="none" xmlns="http://www.w3.org/2000/svg">
<path d="M77.6942 15.884C76.9186 13.4102 76.3946 11.9099 75.6102 9.73864C77.4974 8.50467 78.0233 6.48036 78.0409 5.13083C77.9685 0.475023 74.3243 0.0176697 71.7976 0.0176697H67.9468C68.1231 0.160654 68.505 0.739447 68.505 1.80889V16.0172C68.505 16.5921 68.1162 17.7086 67.9331 17.8839C68.2974 17.9583 68.1672 17.9201 68.505 17.9877V17.9837C69.6068 18.1708 72.3284 18.7545 72.3284 18.7545C71.9514 18.255 71.7956 17.7242 71.7956 16.7096V10.5221C72.0836 10.5035 72.4195 10.6289 72.7172 10.6103C72.7172 10.6103 74.6269 16.6626 75.5367 19.4861C76.5925 19.7662 79.3297 20.5839 79.556 20.625C78.9948 20.0276 77.799 16.219 77.6933 15.8831L77.6942 15.884ZM71.7976 2.29954C72.0542 2.3015 72.4577 2.3015 72.7162 2.30248C74.1461 2.30248 74.6387 3.97226 74.67 5.34824C74.6446 6.66154 74.1461 8.57127 71.7956 8.20695C71.7956 6.20517 71.7956 4.02613 71.7976 2.29954Z" fill="#0D1853"/>
<path d="M7.73584 8.58495C9.03641 7.72607 9.79051 6.42746 9.80618 4.55789C9.77582 1.68547 7.94738 -0.127296 3.90171 0.0176465H0C0.211538 0.189032 0.523949 0.854007 0.523949 1.80789V18.3804C0.523949 19.5066 0.19489 20.198 0.000979345 20.4859C0.359419 20.4213 3.17895 19.6937 4.56864 19.3479C10.1734 18.1247 10.2723 13.8548 10.2723 12.6943C10.2723 11.8041 9.80226 9.37235 7.73584 8.58593V8.58495ZM3.98887 2.26035C4.24644 2.25839 4.49323 2.25839 4.7508 2.25643C6.07389 2.16535 6.56455 3.29258 6.56455 4.85365C6.54594 5.96325 6.09348 7.5302 4.97801 7.57819C4.64405 7.587 4.32479 7.69865 3.98887 7.70746V2.26035ZM4.88105 16.3012C4.56864 16.3717 4.28953 16.4403 3.98887 16.4746V9.94037C4.22685 9.92959 4.45406 9.81599 4.694 9.80522C6.05333 9.76702 6.7614 11.0431 6.79371 12.5327C6.79371 14.1672 6.25899 15.9095 4.88105 16.3022V16.3012Z" fill="#0D1853"/>
<path d="M42.218 14.7901L45.7055 14.8978C45.4567 14.4405 45.4606 13.8186 45.5458 13.3122C45.6526 12.6287 45.7652 11.9941 45.9013 11.1969C46.8611 11.2135 47.7464 11.2419 48.713 11.2625C48.8443 12.0685 48.9804 12.7344 49.1204 13.5541C49.2213 14.1466 48.9804 14.9047 48.8041 15.0486C49.1626 15.0623 49.001 15.0712 49.3623 15.0878C50.4426 15.1838 51.6021 15.2504 52.6951 15.3131C52.6951 15.3131 50.708 4.72535 49.6973 0.015686H45.1903C44.8309 0.015686 45.0581 0.0303762 44.6977 0.0303762C44.8828 0.180216 44.9954 1.0773 44.8956 1.61594C44.2022 5.33157 43.2924 9.39095 42.5549 13.2143C42.3434 14.1604 42.2161 14.7881 42.2161 14.7881L42.218 14.7901ZM46.2764 8.95514C46.6368 6.81136 46.9541 4.6284 47.3184 2.57765C47.6671 4.61665 48.002 6.77904 48.3556 8.95612L48.3752 8.99823C47.6632 8.98844 46.9913 8.96298 46.2754 8.95416L46.2764 8.95514Z" fill="#0D1853"/>
<path d="M17.383 9.08934C17.383 9.08934 17.6719 7.78191 17.9246 6.67623C16.9315 6.69386 15.7289 6.79669 14.729 6.81628V2.41511C15.1501 2.41511 15.9022 2.41119 16.5603 2.41119C17.0069 2.41119 17.5769 2.56886 17.8756 2.87148C18.093 1.7374 18.236 1.03521 18.4544 0.0176697H10.7969C11.0075 0.190034 11.3757 0.795269 11.3757 1.58168V15.2837C11.3757 16.3051 10.9849 17.638 10.7891 17.879C13.2962 17.3824 15.5124 16.9349 18.0578 16.5431C18.2771 15.2945 18.4319 14.4708 18.6532 13.2094C18.4632 13.3808 17.6934 13.6697 16.9393 13.7696C16.1657 13.8617 15.4028 13.9655 14.7299 14.0478V9.2382C15.012 9.22743 17.384 9.08836 17.384 9.08836L17.383 9.08934Z" fill="#0D1853"/>
<path d="M24.8917 12.8304C24.1885 12.8833 23.452 12.9587 22.7714 13.0146C22.7714 11.6249 22.7714 10.1147 22.7714 8.7074C23.3746 8.69271 24.9338 8.51251 25.4822 8.49782C25.4822 8.49782 25.776 7.2472 25.9689 6.20909C24.9759 6.21986 23.7713 6.38831 22.7714 6.40104C22.7714 5.02996 22.7714 3.67552 22.7714 2.39356C23.6087 2.39356 24.0935 2.38377 24.4392 2.38965C25.0787 2.38965 25.3353 2.47485 25.916 2.84112C26.1335 1.73055 26.2774 1.03521 26.4968 0.0166931H18.8589C19.0616 0.181223 19.4171 0.882434 19.4171 1.67668V14.3445C19.4171 15.2426 19.0567 16.0926 18.8589 16.3052C19.2173 16.2709 19.4171 16.217 19.4171 16.217C21.5736 15.935 23.785 15.6167 25.9777 15.3924C25.9777 15.3924 26.3411 13.5953 26.5605 12.4201C26.3607 12.5856 25.4724 12.7746 24.8907 12.8324L24.8917 12.8304Z" fill="#0D1853"/>
<path d="M40.5458 12.328C39.8622 12.3251 39.1904 12.3251 38.4931 12.328V8.42727C38.783 8.42727 41.2715 8.44881 41.2715 8.44881C41.4605 7.44303 41.4987 7.22659 41.6897 6.21689C40.6966 6.21493 39.491 6.21493 38.4931 6.21493V2.37688C38.9064 2.37688 39.9788 2.3661 40.6143 2.38079C41.0707 2.38471 41.6241 2.4944 41.9081 2.82836C42.1255 1.73149 42.2714 1.03518 42.4908 0.0186157H34.5659C34.7373 0.157683 35.1388 0.755083 35.1388 1.51995V13.1418C35.1388 14.082 34.7667 14.6843 34.5816 14.8439C34.94 14.8361 34.7775 14.8439 35.1388 14.8371C37.3091 14.7979 39.3902 14.7558 41.5712 14.7764C41.7915 13.7363 41.96 12.8745 42.1784 11.759C41.9717 11.9118 41.3312 12.329 40.5458 12.329V12.328Z" fill="#0D1853"/>
<path d="M65.9098 14.1565C65.2125 14.035 64.7277 14.0047 63.8766 13.7931V9.14711C64.1577 9.1569 66.6511 9.27834 66.6511 9.27834C66.8382 8.14328 66.8803 7.89649 67.0722 6.7957C66.0802 6.77514 64.8765 6.75653 63.8766 6.73792V2.41607C64.3027 2.41803 65.0372 2.42293 65.6728 2.42293C66.135 2.42489 66.8166 2.72457 67.0096 2.98214C67.226 1.83238 67.3856 1.03912 67.604 0.0215759H59.9485C60.16 0.193941 60.5234 0.699283 60.5234 1.60616V14.603C60.5743 15.3904 60.162 16.1191 59.9661 16.2905C62.5251 16.6704 64.3849 17.0984 66.9557 17.5528C67.1741 16.2581 67.3327 15.2494 67.5531 13.9283C67.1251 14.272 66.135 14.1741 65.9088 14.1565H65.9098Z" fill="#0D1853"/>
<path d="M27.3341 1.51898V13.5698C27.3341 14.5638 26.9512 15.1142 26.7632 15.2925C28.2469 15.1622 29.2047 15.0947 30.6943 14.9742V14.9801C30.944 14.9615 31.037 14.9556 31.2476 14.937C30.8265 14.4943 30.6913 13.7432 30.6913 13.3524C30.6913 12.1458 30.6884 9.69357 30.6884 8.48212C31.0018 8.4782 32.9644 8.47135 33.4668 8.47135C33.4668 8.47135 33.694 7.24325 33.885 6.22963C32.8919 6.23355 31.6883 6.2404 30.6884 6.24628V2.3808C31.1252 2.3808 31.9733 2.37591 32.6138 2.3808C32.9791 2.38472 33.3698 2.49049 33.8292 2.84697C34.0466 1.74717 34.1954 1.03323 34.4148 0.015686H26.7808C26.9816 0.178257 27.3341 0.808955 27.3341 1.51702V1.51898Z" fill="#0D1853"/>
<path d="M51.2925 2.86753C51.5295 2.71867 52.2346 2.40724 52.7977 2.40724C53.3197 2.40724 53.7869 2.40234 54.0102 2.40234V13.7226C54.0102 14.4444 53.6321 15.2543 53.4353 15.4188C53.7927 15.4404 53.6507 15.4394 54.0102 15.4629C55.1325 15.5853 56.1775 15.6793 57.3106 15.835V15.8311C57.5329 15.8595 57.576 15.8722 57.7983 15.8938C57.7042 15.7959 57.3008 15.1906 57.3008 14.0967C57.3008 11.1479 57.3086 5.19837 57.3086 2.39548C57.527 2.39548 57.8962 2.39842 58.3624 2.39842C58.996 2.39842 59.5141 2.70202 59.754 2.88026C59.6982 1.76185 59.6776 1.18893 59.6394 0.0186157H51.4315C51.3503 1.3613 51.3718 1.72953 51.2925 2.86851V2.86753Z" fill="#0D1853"/>
<path d="M77.3818 1.30938C77.3818 2.03116 77.9665 2.61877 78.6902 2.61877C79.414 2.61877 80.0006 2.03018 80.0006 1.30938C80.0006 0.588586 79.412 0 78.6902 0C77.9685 0 77.3818 0.587607 77.3818 1.30938ZM77.5278 1.30938C77.5278 0.667913 78.0488 0.145922 78.6893 0.145922C79.3298 0.145922 79.8527 0.667913 79.8527 1.30938C79.8527 1.95085 79.3307 2.47187 78.6893 2.47187C78.0478 2.47187 77.5278 1.94988 77.5278 1.30938Z" fill="#0D1853"/>
<path d="M78.3819 0.729616H78.7981C78.9714 0.729616 79.0919 0.786418 79.0919 0.970534C79.0919 1.15465 78.9714 1.21047 78.7981 1.21047H78.3819V0.729616ZM78.1958 1.96261H78.3819V1.37109H78.7364L79.1134 1.96261H79.3377L78.9528 1.36031C79.1967 1.32114 79.275 1.14878 79.275 0.970534C79.275 0.652247 79.0478 0.568024 78.8285 0.568024H78.1958V1.96261Z" fill="#0D1853"/>
<path d="M18.6529 13.2094C18.1329 13.9655 17.793 14.414 17.3141 15.1152L17.3063 15.1182C15.8334 15.362 14.7424 15.5393 12.9992 15.8184C12.9992 15.8184 11.725 17.2071 10.8035 17.8799C13.3312 17.3491 15.5552 16.9358 18.0731 16.5441C18.2925 15.2954 18.4326 14.4718 18.6539 13.2104L18.6529 13.2094Z" fill="#0D1853"/>
<path d="M17.3835 9.09421C17.6068 8.04533 17.6636 7.82694 17.9251 6.67621C17.5931 7.08362 17.2748 7.48221 16.9399 7.90333C15.7039 7.93467 14.2682 8.05317 13.0235 8.08744C13.0235 9.97464 13.0431 13.8068 13.0431 15.7871H13.0107C13.7178 15.1142 14.1203 14.4875 14.7295 14.0605V9.23817C15.1398 9.22348 17.3835 9.09421 17.3835 9.09421Z" fill="#0D1853"/>
<path d="M18.4551 0.0176697C18.0272 0.392759 17.6178 0.760992 17.1888 1.15763C15.7845 1.15763 14.4369 1.16056 13.0227 1.16154C13.0227 2.81566 13.0423 6.16893 13.0423 8.10314C13.7161 7.5312 14.0863 7.2276 14.7287 6.81726V2.41511C15.3457 2.41315 15.9441 2.41119 16.5542 2.41021C17.038 2.41021 17.6501 2.60412 17.8763 2.87148C18.0938 1.7374 18.2367 1.03521 18.4551 0.0176697Z" fill="#0D1853"/>
<path d="M26.5614 12.4191C26.1335 13.1497 25.8299 13.4748 25.4332 14.0918C25.4332 14.0918 22.5549 14.4865 21.0614 14.5913L20.9645 14.6403C20.1036 15.2768 19.707 15.5902 18.8599 16.3051C21.4257 15.9418 23.736 15.6539 25.9787 15.3924C25.9787 15.3924 26.3421 13.5953 26.5614 12.4201V12.4191Z" fill="#0D1853"/>
<path d="M25.9531 6.20908C25.6191 6.60081 25.3008 6.98178 24.9659 7.38233C23.7299 7.40192 22.3236 7.57918 21.0798 7.60366C21.0798 9.3939 21.0945 12.7384 21.0945 14.5492C21.6851 14.0595 22.1924 13.5424 22.7565 13.0273V8.70738C23.1854 8.69661 25.481 8.51152 25.481 8.51152C25.6984 7.47243 25.7121 7.32749 25.9531 6.20908Z" fill="#0D1853"/>
<path d="M26.4978 0.0176447C26.0688 0.392734 25.6604 0.760967 25.2315 1.15368C23.8271 1.15368 22.5079 1.15564 21.0947 1.15662V7.58798C21.8312 7.05326 22.2053 6.73987 22.7704 6.40003C22.7704 5.02895 22.7704 3.67452 22.7704 2.39256C23.4119 2.39256 23.9466 2.3906 24.5832 2.38962C24.7536 2.38962 25.1404 2.33673 25.916 2.84012C26.1335 1.72954 26.2774 1.0342 26.4968 0.015686L26.4978 0.0176447Z" fill="#0D1853"/>
<path d="M34.4154 0.0176725C33.9874 0.392761 33.5781 0.760995 33.1491 1.15175C31.7447 1.15175 30.4549 1.15175 29.0417 1.15175C29.0417 2.78138 29.0662 5.6254 29.0662 7.4225C29.7929 6.82706 30.0769 6.61943 30.689 6.24533V2.38083C31.3393 2.38083 31.968 2.38083 32.6124 2.37887C33.0649 2.36418 33.678 2.68247 33.8307 2.84798C34.0482 1.74817 34.197 1.03423 34.4164 0.0166931L34.4154 0.0176725Z" fill="#0D1853"/>
<path d="M42.1786 11.758C41.8191 12.4465 40.9505 13.512 40.9505 13.512C39.4668 13.5022 36.7168 13.4973 36.7168 13.4973C35.8128 13.9116 35.4896 14.4248 34.5808 14.843C37.1085 14.7871 39.028 14.7509 41.5704 14.7754C41.7075 14.129 41.8671 13.3446 42.1776 11.758H42.1786Z" fill="#0D1853"/>
<path d="M41.6901 6.21689C41.3571 6.59492 40.9517 6.95923 40.6168 7.34118C39.3798 7.33922 38.0303 7.34118 36.7865 7.34411C36.7865 9.04719 36.7317 13.4826 36.7317 13.4826C37.3124 13.1888 37.9588 12.7031 38.4945 12.3378V8.42629C38.899 8.42629 41.2729 8.46057 41.2729 8.46057C41.4619 7.45478 41.5001 7.22561 41.6911 6.21689H41.6901Z" fill="#0D1853"/>
<path d="M42.4908 0.0176697C42.0628 0.392759 41.6545 0.760013 41.2255 1.15077C39.8192 1.15077 38.2003 1.15077 36.7871 1.15077C36.7871 2.7755 36.8018 5.56957 36.8018 7.34513C37.5255 6.83587 37.8869 6.60474 38.4941 6.21496V2.37691H40.5586C40.964 2.38475 41.5604 2.46113 41.9091 2.82741C42.1265 1.73054 42.2724 1.03423 42.4918 0.0176697H42.4908Z" fill="#0D1853"/>
<path d="M67.0742 6.80548C66.7422 7.21289 66.4249 7.60756 66.09 8.01889C64.8531 7.98461 63.4164 7.95425 62.1726 7.92389C62.1726 9.75918 62.1785 13.1937 62.1785 15.0858V15.1113C62.9218 14.5443 63.2146 14.2926 63.8776 13.8166V9.15787C64.2831 9.17158 66.6639 9.26364 66.6639 9.26364C66.8519 8.12955 66.8813 7.90626 67.0732 6.80548H67.0742Z" fill="#0D1853"/>
<path d="M67.605 0.0215759C67.1771 0.396665 66.7687 0.766857 66.3378 1.16545C64.9344 1.16545 63.5858 1.16349 62.1726 1.16153C62.1726 2.80879 62.2049 6.02202 62.2049 7.91314C62.8278 7.41955 63.2675 7.13456 63.8786 6.73694V2.41607C64.479 2.41803 65.0636 2.41999 65.6561 2.42195C66.1497 2.42195 66.8098 2.71673 67.0106 2.98213C67.227 1.83238 67.3866 1.03912 67.605 0.0215759Z" fill="#0D1853"/>
<path d="M5.4563 8.61819C7.46885 7.80631 8.22099 6.13457 8.2445 4.69592C8.24156 4.17197 8.09857 2.65007 7.43947 2.09967L8.5383 1.26038C9.55094 2.16431 9.78011 3.7293 9.7899 4.56958C9.77913 6.4274 9.02699 7.70936 7.71957 8.57706C7.59911 8.58587 5.45532 8.61721 5.45532 8.61721L5.4563 8.61819Z" fill="#0D1853"/>
<path d="M8.97029 9.39285C9.77041 10.2096 10.2532 11.4034 10.2787 12.6981C10.263 14.8419 9.73222 18.1041 4.57499 19.3508C3.16865 19.7308 0.368702 20.4242 0.00732422 20.4898C0.902445 19.6652 1.27851 19.3117 2.18637 18.5164C3.28029 18.2647 3.96486 18.0728 4.81493 17.8515C7.51694 17.1169 8.48551 14.9164 8.5335 12.8548C8.52468 11.7707 8.27985 10.9245 7.8127 10.2067L8.96931 9.39285H8.97029Z" fill="#0D1853"/>
<path d="M5.10886 2.25444C5.21561 2.25444 5.21757 2.26522 3.98947 2.26816V7.70939C3.39795 8.04041 2.99348 8.34303 2.32067 8.8141L2.28052 7.75542V1.16639C3.52037 1.16639 4.10895 1.16443 5.35566 1.16248C6.48876 1.16248 7.236 1.86956 7.43383 2.086C7.19585 2.23584 6.2831 2.9253 6.22924 2.96937C6.01966 2.62758 5.57405 2.25444 5.10886 2.25444Z" fill="#0D1853"/>
<path d="M4.70314 9.80132C4.46222 9.81209 4.23012 9.92667 3.98822 9.93647V16.4618C3.41139 17.1836 2.98733 17.6694 2.20483 18.5106L2.27828 17.0808V8.85625C3.38886 8.81708 4.20172 8.65647 5.31817 8.62317C6.559 8.58595 7.66468 9.92374 7.82431 10.2068C7.61571 10.3174 6.59621 11.0794 6.54627 11.1166C6.24267 10.4379 5.76279 9.80132 4.70216 9.80132H4.70314Z" fill="#0D1853"/>
<path d="M48.3381 1.46414C48.0394 1.86568 47.7084 2.07721 47.3186 2.57766C46.9563 4.62449 46.6389 6.81626 46.2766 8.98257C45.6939 9.33514 45.3668 9.59466 44.6528 9.98542C44.6528 9.98542 45.8525 3.81751 46.3422 1.46708L48.3381 1.46317V1.46414Z" fill="#0D1853"/>
<path d="M43.9341 13.6158C44.0937 12.7971 44.4472 10.951 44.6098 10.0941L44.6353 10.05C45.5284 10.0608 49.3969 10.2185 50.0481 10.2293L48.7133 11.2654L45.9006 11.1978C45.7635 12.0019 45.6607 12.5758 45.5451 13.3279C45.4648 13.7745 45.4481 14.4248 45.7008 14.8949L42.2202 14.8018C42.8754 14.3327 43.2926 14.034 43.9331 13.6168L43.9341 13.6158Z" fill="#0D1853"/>
<path d="M52.6961 15.317C52.0938 12.2086 51.0958 6.54304 49.6983 0.0176697C49.2106 0.440747 48.8747 0.987221 48.384 1.42988C49.2243 5.44226 49.9755 9.84637 50.7991 14.0252C49.9735 14.5257 49.6249 14.6128 48.8052 15.0496C50.2536 15.1613 51.2643 15.2132 52.6961 15.317Z" fill="#0D1853"/>
<path d="M73.9012 9.27148C72.5096 9.60152 71.7046 9.48302 70.2022 9.39684C70.2022 11.2821 70.2091 14.9164 70.2091 16.8918C70.2091 16.8918 68.8429 17.4745 67.9341 17.8848C69.741 18.2198 70.3609 18.3324 72.3392 18.7564C71.9944 18.2775 71.7966 18.0063 71.7966 16.4951V10.5926C72.063 10.577 72.3167 10.6357 72.7182 10.6142L73.9012 9.27148Z" fill="#0D1853"/>
<path d="M79.5577 20.626C78.9965 20.0874 77.8027 16.1739 77.7106 15.886C76.885 13.3985 76.3777 11.9755 75.6109 9.73963C77.22 8.63003 78.0328 6.83979 78.0593 4.99275C78.0455 3.4209 77.3894 1.83436 76.3033 1.13217C76.3033 1.13217 75.7186 1.66298 75.2603 1.96657C76.0614 2.55516 76.3826 4.06433 76.3826 5.12888C76.3826 7.04252 75.1829 8.73189 73.9587 9.2431C73.9587 9.2431 76.0565 15.4404 76.98 18.4636H76.8938C76.4365 18.8152 75.9987 19.1472 75.5384 19.487C76.7744 19.8151 78.0113 20.1873 79.5577 20.626Z" fill="#0D1853"/>
<path d="M72.7067 2.29953C72.312 2.29757 72.3384 2.29953 71.7968 2.29953V8.18735C71.2465 8.59182 70.8841 8.90227 70.1839 9.4223L70.175 8.18245V1.18307C71.4139 1.18307 71.7195 1.18503 72.9652 1.18699C74.2139 1.18699 74.8994 1.67471 75.2481 1.95872C75.1922 2.02531 73.9896 2.87342 73.9416 2.90868C73.7105 2.66776 73.2874 2.30051 72.7057 2.30051L72.7067 2.29953Z" fill="#0D1853"/>
<path d="M32.8988 7.36761C31.6619 7.37643 30.2859 7.38818 29.0402 7.40091C29.0402 9.59758 29.0402 11.8383 29.0402 13.9576C28.1264 14.3934 27.6808 14.839 26.7622 15.2915C28.9824 15.1172 29.7737 15.0241 31.2456 14.936C30.7491 14.4502 30.6864 13.4533 30.6864 13.2074V8.48211C31.1174 8.47721 33.4648 8.47133 33.4648 8.47133C33.6519 7.45575 33.692 7.24324 33.883 6.22961C33.5491 6.61156 33.2318 6.97979 32.8978 7.36761H32.8988Z" fill="#0D1853"/>
<path d="M58.344 2.39552C58.9591 2.39552 59.5535 2.70206 59.7543 2.87834C59.7004 1.69725 59.6779 1.2918 59.6397 0.0166931C59.2617 0.385906 59.0452 0.776664 58.6652 1.16351C57.5664 1.16351 56.8016 1.16351 55.6978 1.16155V14.2877C54.788 14.748 54.3826 14.9821 53.4355 15.4179C55.2787 15.5902 56.0338 15.6784 57.7956 15.8899V15.8782C57.5459 15.6245 57.3098 14.9801 57.3098 14.0957V2.39356C57.6614 2.39356 57.9474 2.39552 58.344 2.39552Z" fill="#0D1853"/>
<path d="M67.5523 13.9283C67.1106 14.65 66.6435 15.2288 66.1852 15.8781C64.627 15.5736 63.728 15.4129 62.1375 15.1162C61.2404 15.598 60.8663 15.8027 59.9653 16.2914C62.7555 16.7047 64.4282 17.0994 66.9559 17.5538C67.1723 16.2591 67.332 15.2504 67.5523 13.9292V13.9283Z" fill="#0D1853"/>
<path d="M54.0102 2.40138C53.6478 2.40138 53.2247 2.40138 52.8232 2.40138C52.3237 2.40726 51.4893 2.73534 51.2925 2.86755C51.6734 2.19572 52.0192 1.81573 52.4031 1.17133H55.6427C54.9719 1.63456 54.6027 1.96655 54.0102 2.40236V2.40138Z" fill="#0D1853"/>
<path d="M25.5149 17.8808H26.4688V21.3487H28.6302V22.2154H25.5159V17.8808H25.5149Z" fill="#0D1853"/>
<path d="M29.2185 20.0608V20.0481C29.2185 18.8161 30.191 17.8064 31.5278 17.8064C32.8646 17.8064 33.8253 18.8034 33.8253 20.0354V20.0481C33.8253 21.2801 32.8529 22.2898 31.5161 22.2898C30.1792 22.2898 29.2185 21.2929 29.2185 20.0608ZM32.8284 20.0608V20.0481C32.8284 19.3048 32.2839 18.6858 31.5161 18.6858C30.7482 18.6858 30.2155 19.293 30.2155 20.0354V20.0481C30.2155 20.7914 30.76 21.4104 31.5278 21.4104C32.2956 21.4104 32.8284 20.8032 32.8284 20.0608Z" fill="#0D1853"/>
<path d="M34.9819 17.8808H35.8614L37.8925 20.5495V17.8808H38.8337V22.2154H38.0228L35.9241 19.4595V22.2154H34.9829V17.8808H34.9819Z" fill="#0D1853"/>
<path d="M40.1836 17.8808H41.8739C43.2362 17.8808 44.1774 18.8161 44.1774 20.0354V20.0481C44.1774 21.2684 43.2362 22.2154 41.8739 22.2154H40.1836V17.8808ZM41.8739 21.3545C42.6545 21.3545 43.1804 20.8286 43.1804 20.0608V20.0481C43.1804 19.2803 42.6545 18.7416 41.8739 18.7416H41.1375V21.3545H41.8739Z" fill="#0D1853"/>
<path d="M45.1431 20.0608V20.0481C45.1431 18.8161 46.1156 17.8064 47.4524 17.8064C48.7892 17.8064 49.7499 18.8034 49.7499 20.0354V20.0481C49.7499 21.2801 48.7774 22.2898 47.4406 22.2898C46.1038 22.2898 45.1431 21.2929 45.1431 20.0608ZM48.7529 20.0608V20.0481C48.7529 19.3048 48.2084 18.6858 47.4396 18.6858C46.6708 18.6858 46.1391 19.293 46.1391 20.0354V20.0481C46.1391 20.7914 46.6836 21.4104 47.4514 21.4104C48.2192 21.4104 48.7519 20.8032 48.7519 20.0608H48.7529Z" fill="#0D1853"/>
<path d="M50.9094 17.8808H51.7889L53.82 20.5495V17.8808H54.7612V22.2154H53.9503L51.8516 19.4595V22.2154H50.9104V17.8808H50.9094Z" fill="#0D1853"/>
</svg>
