<svg width="80" height="25" viewBox="0 0 80 25" fill="none" xmlns="http://www.w3.org/2000/svg">
<path d="M37.6705 13.1941C37.6705 13.2779 37.6705 13.342 37.6705 13.4061C37.6607 13.6945 37.6483 13.9854 37.636 14.2738C37.636 14.3255 37.6335 14.3798 37.6237 14.4315C37.6212 14.4488 37.5916 14.4685 37.5744 14.471C37.5571 14.471 37.5275 14.4537 37.5201 14.4365C37.5078 14.4044 37.5054 14.3674 37.5004 14.3329C37.4561 14.0248 37.2909 13.8005 37.0247 13.6427C36.7831 13.4998 36.5243 13.4061 36.2482 13.3568C35.8883 13.2927 35.5284 13.2878 35.1735 13.3691C34.535 13.5195 34.1061 13.904 33.9138 14.5375C33.7906 14.9467 33.7807 15.3658 33.8251 15.7848C33.8596 16.1053 33.9459 16.4109 34.0963 16.6969C34.4931 17.4561 35.1217 17.8677 35.9746 17.9294C36.1397 17.9417 36.3049 17.9318 36.4701 17.9244C36.5391 17.922 36.6106 17.9023 36.6771 17.885C36.8004 17.8505 36.8595 17.7642 36.8669 17.636C36.8669 17.6114 36.8669 17.5892 36.8669 17.5645C36.8669 17.1332 36.8669 16.7018 36.8645 16.2704C36.8645 16.1989 36.8571 16.1299 36.8472 16.0584C36.8275 15.9031 36.7313 15.8169 36.5834 15.7873C36.4972 15.77 36.4084 15.7676 36.3197 15.7552C36.2901 15.7528 36.263 15.7454 36.2359 15.7355C36.2285 15.7331 36.2211 15.7158 36.2211 15.7059C36.2211 15.6961 36.226 15.6813 36.2359 15.6764C36.2556 15.6665 36.2778 15.6542 36.3 15.6542C36.3591 15.6517 36.4183 15.6517 36.4775 15.6542C36.9926 15.664 37.5054 15.6788 38.0205 15.6542C38.0797 15.6517 38.1364 15.6591 38.1956 15.669C38.2079 15.669 38.2227 15.6936 38.2227 15.7084C38.2227 15.7207 38.2079 15.7429 38.1956 15.7454C38.1315 15.7577 38.0674 15.7651 38.0033 15.7774C37.8233 15.8095 37.7469 15.8883 37.7223 16.0683C37.7124 16.1447 37.7124 16.2211 37.7124 16.2975C37.7124 16.7659 37.7124 17.2318 37.71 17.7001C37.71 17.9294 37.7026 17.9417 37.493 18.028C37.2293 18.1389 36.9507 18.1931 36.6697 18.2301C36.3641 18.2695 36.0559 18.2794 35.7503 18.2646C35.2918 18.2424 34.8456 18.1635 34.4216 17.9811C34.2762 17.9195 34.1308 17.8456 33.9977 17.7617C33.4554 17.424 33.1078 16.9409 32.9648 16.3148C32.8539 15.8341 32.8514 15.351 32.9845 14.8752C33.2212 14.0273 33.7709 13.4652 34.5967 13.167C34.9097 13.0536 35.2376 13.0043 35.5703 12.9895C36.1151 12.9673 36.6574 13.0166 37.1923 13.1152C37.3082 13.1374 37.4265 13.1473 37.5423 13.1645C37.5818 13.1694 37.6212 13.1793 37.6754 13.1892L37.6705 13.1941Z" fill="#0D1853"/>
<path d="M39.7709 10.3939C39.7758 10.3101 39.7808 10.2706 39.7783 10.2312C39.761 9.43254 39.7438 8.63635 39.7241 7.83768C39.7241 7.74894 39.7142 7.6602 39.7019 7.57393C39.6748 7.40138 39.5983 7.32743 39.4258 7.30031C39.3444 7.28799 39.2606 7.28552 39.1793 7.2732C39.162 7.27073 39.1374 7.24362 39.1374 7.22883C39.1374 7.21157 39.1596 7.19185 39.1793 7.17953C39.1916 7.16967 39.2138 7.17213 39.2311 7.17213C39.2606 7.17213 39.2902 7.17213 39.3198 7.17213C39.7265 7.17213 40.1357 7.17213 40.5424 7.17213C40.5942 7.17213 40.646 7.18199 40.6977 7.19185C40.7076 7.19185 40.715 7.21897 40.7175 7.23376C40.7175 7.24115 40.7076 7.25841 40.7002 7.26087C40.6608 7.27073 40.6213 7.28059 40.5794 7.28552C40.2861 7.3151 40.2688 7.43342 40.2392 7.63309C40.2269 7.71936 40.2319 7.81057 40.2294 7.89931C40.2097 8.96912 40.1875 10.0389 40.1678 11.1087C40.1678 11.1975 40.1678 11.2862 40.1628 11.375C40.1628 11.4169 40.1628 11.4588 40.153 11.4982C40.1357 11.5722 40.0766 11.6067 40.0051 11.5746C39.9459 11.55 39.8892 11.5155 39.8399 11.476C39.7413 11.3922 39.6476 11.301 39.554 11.2098C38.8786 10.5566 38.2007 9.90336 37.5302 9.24767C37.2936 9.01596 37.0717 8.77192 36.8425 8.53281C36.803 8.49091 36.7587 8.45394 36.7217 8.41696C36.6724 8.43915 36.6822 8.47119 36.6822 8.4983C36.6847 8.67578 36.6921 8.85327 36.697 9.03075C36.7094 9.4498 36.7217 9.86885 36.734 10.2904C36.7389 10.4728 36.7439 10.6576 36.7537 10.8401C36.7587 10.9337 36.771 11.0299 36.7907 11.1211C36.8301 11.3059 36.9016 11.3676 37.0914 11.3898C37.1383 11.3947 37.1851 11.3947 37.2319 11.3971C37.2615 11.3996 37.2911 11.4045 37.3182 11.4144C37.3305 11.4193 37.3453 11.4391 37.3478 11.4538C37.3478 11.4662 37.3379 11.4908 37.3256 11.4957C37.2936 11.5081 37.2591 11.5204 37.2245 11.5204C37.1309 11.5204 37.0347 11.5204 36.9411 11.5155C36.6329 11.4957 36.3273 11.4933 36.0192 11.5155C35.9477 11.5204 35.8762 11.5204 35.8072 11.5179C35.7776 11.5179 35.748 11.5081 35.7234 11.4957C35.711 11.4908 35.7012 11.4686 35.7012 11.4538C35.7012 11.4391 35.716 11.4193 35.7283 11.4144C35.7554 11.4045 35.785 11.3971 35.8121 11.3947C35.8639 11.3898 35.9181 11.3922 35.9723 11.3848C36.1153 11.3626 36.1695 11.3158 36.1966 11.1728C36.2114 11.0915 36.2213 11.0101 36.2262 10.9263C36.2336 10.7735 36.2311 10.6182 36.2336 10.4654C36.2459 9.57798 36.2583 8.69304 36.2731 7.80564C36.2755 7.63309 36.2804 7.463 36.2878 7.29045C36.2878 7.24855 36.2928 7.20664 36.3026 7.1672C36.3224 7.08093 36.3889 7.05135 36.4629 7.10065C36.5171 7.13762 36.5639 7.18199 36.6108 7.22636C36.803 7.41863 36.9928 7.61337 37.1851 7.80564C37.5154 8.13595 37.8457 8.46626 38.176 8.79657C38.6518 9.27232 39.1275 9.75053 39.6033 10.2263C39.6476 10.2706 39.6945 10.315 39.7734 10.3914L39.7709 10.3939Z" fill="#0D1853"/>
<path d="M13.871 8.38483C13.866 8.46617 13.8587 8.50561 13.8611 8.54505C13.8833 9.31906 13.9055 10.0931 13.9326 10.8671C13.9351 10.9657 13.9548 11.0667 13.977 11.1653C14.0041 11.2861 14.083 11.3601 14.2087 11.3798C14.2728 11.3897 14.3369 11.3897 14.4034 11.3971C14.4379 11.402 14.4724 11.4094 14.5045 11.4217C14.5168 11.4266 14.5242 11.4488 14.5267 11.4636C14.5267 11.471 14.5193 11.4883 14.5094 11.4907C14.47 11.5031 14.4305 11.5203 14.3911 11.5203C14.3024 11.5228 14.2136 11.5203 14.1249 11.5154C13.8167 11.4957 13.5111 11.4932 13.203 11.5154C13.1265 11.5203 13.0501 11.5203 12.9737 11.5178C12.9466 11.5178 12.917 11.5031 12.8924 11.4932C12.885 11.4907 12.8751 11.4735 12.8776 11.4636C12.88 11.4488 12.8874 11.4242 12.8973 11.4192C12.9293 11.4069 12.9639 11.3995 12.9984 11.3946C13.0625 11.3872 13.129 11.3847 13.1906 11.3749C13.2818 11.3601 13.3385 11.3034 13.3607 11.2147C13.3706 11.1752 13.3804 11.1333 13.3804 11.0939C13.3903 10.8745 13.4051 10.6576 13.4076 10.4382C13.4248 9.41027 13.4371 8.3799 13.4519 7.35199C13.4519 7.2879 13.4593 7.22135 13.4766 7.15972C13.4988 7.07345 13.5629 7.05126 13.6393 7.10549C13.691 7.14246 13.7403 7.1893 13.7847 7.23367C13.9844 7.43334 14.184 7.63793 14.3837 7.8376C14.7781 8.22953 15.1725 8.62147 15.5644 9.0134C15.9736 9.42259 16.3804 9.83425 16.7895 10.2459C16.829 10.2853 16.8635 10.3396 16.9227 10.3544C16.9621 10.3396 16.9547 10.3051 16.9547 10.2779C16.9498 10.0709 16.9448 9.86383 16.9399 9.65677C16.9251 9.03559 16.9079 8.41687 16.8906 7.79569C16.8881 7.70202 16.8758 7.60835 16.8586 7.51468C16.8339 7.39143 16.7501 7.31994 16.6269 7.30269C16.5504 7.29036 16.474 7.29036 16.3976 7.2805C16.368 7.27804 16.3409 7.26818 16.3138 7.25832C16.2941 7.25092 16.2941 7.20902 16.3138 7.19916C16.3286 7.1893 16.3434 7.17698 16.3606 7.17698C16.4075 7.17205 16.4543 7.17205 16.5011 7.17205C16.9029 7.17205 17.3047 7.17205 17.7065 7.17205C17.7583 7.17205 17.8125 7.17944 17.8643 7.18684C17.8766 7.18684 17.8939 7.21148 17.8939 7.22381C17.8939 7.2386 17.8791 7.25832 17.8667 7.26325C17.847 7.27311 17.8224 7.27557 17.7977 7.2805C17.7558 7.28543 17.7164 7.29037 17.6745 7.2953C17.5315 7.31255 17.4526 7.39636 17.428 7.5344C17.4181 7.59356 17.4132 7.65272 17.4107 7.70942C17.4009 8.10628 17.391 8.50068 17.3836 8.89755C17.3688 9.71839 17.3565 10.5417 17.3392 11.3625C17.3392 11.4192 17.3244 11.4784 17.3072 11.5351C17.2949 11.577 17.248 11.5967 17.2061 11.5819C17.1568 11.5647 17.1075 11.5425 17.0632 11.5154C17.0336 11.4981 17.0089 11.471 16.9818 11.4464C16.2201 10.7118 15.456 9.97968 14.6992 9.24018C14.4749 9.0208 14.2654 8.78909 14.0485 8.56231C13.9992 8.51054 13.9499 8.46371 13.8685 8.38236L13.871 8.38483Z" fill="#0D1853"/>
<path d="M5.59131 7.25596C5.61842 7.21898 5.63075 7.18694 5.65047 7.17954C5.68991 7.16722 5.73181 7.16722 5.77372 7.16968C5.93394 7.16968 6.0917 7.17461 6.25193 7.17461C6.60689 7.17461 6.96185 7.16968 7.31435 7.16968C7.36611 7.16968 7.41788 7.18201 7.46964 7.1894C7.4795 7.1894 7.49183 7.20666 7.49183 7.21405C7.49183 7.22884 7.48197 7.25596 7.47211 7.25842C7.42034 7.27321 7.36858 7.28307 7.31681 7.29047C7.09249 7.32498 7.03334 7.38414 7.01855 7.61092C7.01115 7.71198 7.01115 7.81058 7.01115 7.91165C7.01115 8.52544 7.01115 9.14169 7.01115 9.75547C7.01115 9.99211 7.02841 10.2288 7.09003 10.458C7.20096 10.8623 7.45732 11.1285 7.86651 11.2271C8.13519 11.2912 8.40634 11.2838 8.66763 11.1778C8.96343 11.057 9.16803 10.845 9.25677 10.5369C9.29128 10.4136 9.31593 10.283 9.32825 10.1548C9.34551 9.98472 9.35044 9.81217 9.35044 9.64208C9.35044 8.99132 9.34304 8.34056 9.33565 7.69226C9.33565 7.65775 9.33565 7.62078 9.33072 7.58627C9.31593 7.42604 9.2543 7.34963 9.10147 7.31019C9.03985 7.2954 8.97329 7.29047 8.9092 7.28307C8.87962 7.27814 8.84758 7.28061 8.82293 7.26828C8.80567 7.26089 8.78102 7.23377 8.78349 7.21898C8.78595 7.20173 8.81307 7.18694 8.83032 7.17461C8.84018 7.16968 8.85251 7.16968 8.86483 7.16968C8.88948 7.16968 8.91167 7.16968 8.93632 7.16968C9.37262 7.16968 9.81139 7.16968 10.2477 7.16968C10.2822 7.16968 10.3192 7.16968 10.3537 7.17708C10.3734 7.18201 10.3981 7.20419 10.4005 7.22145C10.4005 7.23624 10.3783 7.26335 10.3611 7.27075C10.329 7.28307 10.2921 7.28307 10.2576 7.288C10.2157 7.29293 10.1762 7.30033 10.1343 7.30526C10.0209 7.32251 9.95436 7.39153 9.93711 7.50246C9.92478 7.57887 9.92232 7.65529 9.92232 7.7317C9.91739 8.29373 9.91246 8.85575 9.90753 9.4153C9.90753 9.67659 9.90753 9.93542 9.85576 10.1918C9.83358 10.3076 9.80893 10.4235 9.77195 10.5344C9.59447 11.0619 9.21486 11.37 8.69475 11.5204C8.38416 11.6092 8.06371 11.6092 7.74572 11.582C7.58057 11.5672 7.41788 11.5401 7.26012 11.4908C6.78683 11.3405 6.47131 11.0323 6.31355 10.5591C6.21988 10.2805 6.19523 9.99211 6.19277 9.70371C6.19277 9.09485 6.19277 8.486 6.19277 7.87714C6.19277 7.77114 6.18291 7.66515 6.17798 7.55915C6.17058 7.43837 6.10649 7.35949 5.9931 7.32744C5.91422 7.30526 5.83041 7.29786 5.74907 7.28307C5.7047 7.27568 5.66033 7.26828 5.59377 7.25596H5.59131Z" fill="#0D1853"/>
<path d="M52.5247 13.8843C52.4803 13.9114 52.4581 13.9311 52.4335 13.936C52.3595 13.9508 52.2807 13.9557 52.2067 13.9705C52.118 13.9878 52.0588 14.047 52.044 14.1357C52.0292 14.2343 52.0144 14.3354 52.0144 14.434C52.0095 14.9664 52.012 15.4988 52.0071 16.0313C52.0071 16.2507 51.9972 16.4676 51.975 16.687C51.9602 16.8398 51.9306 16.9926 51.8887 17.1381C51.7359 17.6631 51.376 17.9885 50.8682 18.1586C50.676 18.2227 50.4763 18.2449 50.2742 18.2498C49.9833 18.2572 49.6949 18.2399 49.4139 18.161C48.8938 18.0131 48.556 17.6804 48.4032 17.1627C48.3268 16.9064 48.2997 16.6426 48.2997 16.3739C48.2997 15.7527 48.2997 15.1316 48.2997 14.5104C48.2997 14.4216 48.2997 14.3329 48.2923 14.2442C48.2824 14.0963 48.206 14.0026 48.0606 13.9681C47.9916 13.9533 47.9201 13.9459 47.8511 13.936C47.8165 13.9311 47.7796 13.9311 47.7475 13.9212C47.7377 13.9188 47.7278 13.8941 47.7253 13.8793C47.7253 13.8719 47.7352 13.8571 47.7451 13.8522C47.7599 13.8448 47.7771 13.8399 47.7944 13.8374C47.8412 13.8374 47.888 13.8374 47.9373 13.8374C48.4229 13.8374 48.9061 13.8374 49.3917 13.8374C49.4508 13.8374 49.5075 13.8473 49.5667 13.8522C49.5741 13.8522 49.5889 13.8695 49.5864 13.8769C49.584 13.8917 49.5741 13.9163 49.5642 13.9188C49.5248 13.9286 49.4829 13.9336 49.4434 13.9385C49.2043 13.9705 49.1501 14.0223 49.1205 14.2589C49.1107 14.3477 49.1082 14.4364 49.1057 14.5252C49.1057 15.1636 49.1057 15.802 49.1057 16.4405C49.1057 16.6549 49.1304 16.8644 49.1772 17.074C49.2389 17.3427 49.3695 17.567 49.5987 17.7297C49.6998 17.8012 49.8107 17.8578 49.934 17.8874C50.1435 17.9417 50.358 17.9491 50.5675 17.9071C50.9865 17.8209 51.3292 17.5546 51.4179 17.0025C51.4426 16.8521 51.4574 16.6968 51.4574 16.544C51.4598 15.8218 51.4574 15.102 51.4549 14.3797C51.4549 14.3082 51.445 14.2392 51.4327 14.1677C51.4179 14.079 51.3637 14.0149 51.2799 13.9878C51.2084 13.9631 51.132 13.9508 51.0556 13.936C51.0161 13.9286 50.9718 13.9311 50.9323 13.9237C50.92 13.9212 50.9027 13.9015 50.9003 13.8867C50.9003 13.8744 50.9126 13.8547 50.9274 13.8473C50.9471 13.8374 50.9718 13.835 50.9964 13.835C51.4697 13.835 51.943 13.835 52.4138 13.835C52.4434 13.835 52.4754 13.8571 52.5272 13.8769L52.5247 13.8843Z" fill="#0D1853"/>
<path d="M54.6424 18.1537C54.5931 18.1611 54.5585 18.1709 54.524 18.1709C54.4476 18.1709 54.3712 18.1709 54.2923 18.1709C53.856 18.1709 53.4172 18.1709 52.9809 18.1709C52.9095 18.1709 52.8404 18.166 52.769 18.1586C52.7566 18.1586 52.7394 18.134 52.7394 18.1216C52.7394 18.1068 52.7542 18.0896 52.769 18.0822C52.7837 18.0723 52.8035 18.0723 52.8207 18.0699C52.8503 18.0674 52.8799 18.0699 52.9095 18.0649C53.0943 18.0477 53.1634 17.9885 53.1905 17.8086C53.2077 17.6853 53.22 17.5621 53.2225 17.4388C53.2299 17.2071 53.2299 16.9779 53.2299 16.7462C53.2299 16.0017 53.2299 15.2548 53.2299 14.5104C53.2299 14.4217 53.2299 14.3329 53.2225 14.2442C53.2127 14.1061 53.1387 14.01 53.0031 13.978C52.9292 13.9607 52.8528 13.9533 52.7763 13.9434C52.7418 13.9385 52.7073 13.9361 52.6728 13.9262C52.663 13.9237 52.6531 13.8991 52.6506 13.8843C52.6506 13.8769 52.663 13.8621 52.6704 13.8596C52.6851 13.8522 52.7024 13.8473 52.7197 13.8448C52.7542 13.8424 52.7911 13.8448 52.8256 13.8448C53.4222 13.8448 54.0187 13.8448 54.6177 13.8448C54.8198 13.8448 55.0195 13.8621 55.2142 13.9163C55.3054 13.941 55.3966 13.973 55.478 14.0149C55.8083 14.1826 55.9833 14.4586 55.9932 14.8235C56.008 15.3929 55.7491 15.8095 55.2487 16.0732C54.9875 16.2112 54.7015 16.2532 54.4057 16.2408C54.3761 16.2408 54.3466 16.2334 54.3194 16.2211C54.3071 16.2162 54.2923 16.1965 54.2923 16.1817C54.2923 16.1669 54.3022 16.1447 54.3145 16.1398C54.3466 16.1274 54.3811 16.1176 54.4156 16.1126C54.8346 16.0732 55.1501 15.8095 55.2364 15.4003C55.2882 15.1538 55.2734 14.9048 55.1748 14.6682C55.0195 14.2959 54.667 14.0716 54.2627 14.084C54.2381 14.084 54.2159 14.084 54.1913 14.0889C54.0212 14.1086 53.999 14.1308 53.999 14.2959C53.999 15.3017 53.999 16.3074 54.0039 17.3106C54.0039 17.4511 54.0187 17.5941 54.031 17.7346C54.036 17.7815 54.0458 17.8283 54.0581 17.8727C54.0853 17.9589 54.142 18.0156 54.2332 18.0304C54.3096 18.0427 54.386 18.0501 54.4624 18.0575C54.5092 18.0625 54.5585 18.06 54.6029 18.0723C54.6202 18.0773 54.6276 18.1142 54.6448 18.1438L54.6424 18.1537Z" fill="#0D1853"/>
<path d="M22.2938 7.25835C22.279 7.21152 22.3012 7.18933 22.3307 7.1844C22.3702 7.17701 22.4121 7.17454 22.454 7.17701C22.6487 7.17947 22.8435 7.18687 23.0382 7.18687C23.6002 7.1918 24.1622 7.19426 24.7218 7.19426C24.8746 7.19426 25.0275 7.17947 25.1778 7.13757C25.1951 7.13264 25.2123 7.13757 25.237 7.13757C25.2419 7.15975 25.2542 7.18194 25.2542 7.20412C25.2321 7.43337 25.2099 7.66261 25.1852 7.89186C25.1828 7.92144 25.1754 7.95102 25.163 7.97567C25.1532 7.99292 25.131 8.00278 25.1039 8.0225C25.0891 7.99046 25.0768 7.9732 25.0718 7.95102C25.062 7.91158 25.0595 7.86967 25.0521 7.82777C25.025 7.67987 24.9387 7.58373 24.7884 7.55415C24.7193 7.53936 24.6478 7.52457 24.5788 7.52457C24.3077 7.51718 24.0341 7.51471 23.7629 7.50978C23.7407 7.50978 23.7161 7.51718 23.6865 7.52211C23.6791 7.54922 23.6643 7.57634 23.6643 7.60345C23.6643 8.04715 23.6643 8.49085 23.6643 8.93455C23.6643 8.96167 23.6742 8.99125 23.6791 9.02576C23.7136 9.03315 23.7407 9.04301 23.7678 9.04301C24.0513 9.04301 24.3348 9.04055 24.6183 9.03562C24.6824 9.03562 24.7464 9.02329 24.813 9.01836C24.9042 9.01097 24.9856 8.97892 25.0521 8.9173C25.0718 8.90004 25.0989 8.88772 25.1359 8.86553C25.1458 8.90744 25.1581 8.93455 25.1581 8.9592C25.1581 8.99371 25.1532 9.03069 25.1507 9.0652C25.131 9.28212 25.1113 9.50151 25.0891 9.71843C25.0842 9.75787 25.0694 9.79731 25.057 9.83428C25.0521 9.85154 25.0028 9.84907 24.9954 9.82935C24.9856 9.80223 24.9782 9.77512 24.9732 9.74554C24.9436 9.47686 24.8796 9.40783 24.6158 9.37332C24.5468 9.36346 24.4753 9.36346 24.4038 9.361C24.2091 9.35607 24.0143 9.3536 23.8196 9.3536C23.7752 9.3536 23.7284 9.361 23.6766 9.36593C23.6717 9.41523 23.6643 9.45467 23.6643 9.49411C23.6643 9.86632 23.6594 10.2385 23.6643 10.6108C23.6643 10.6995 23.6742 10.7882 23.689 10.8745C23.7111 11.0101 23.7925 11.0964 23.9231 11.1383C23.9724 11.1555 24.0267 11.1678 24.0784 11.1752C24.3323 11.2122 24.5838 11.2122 24.8377 11.1752C24.8672 11.1703 24.8968 11.1654 24.9239 11.1605C25.0965 11.121 25.2049 11.0175 25.2518 10.8474C25.269 10.7858 25.2814 10.7217 25.3035 10.6601C25.3085 10.6453 25.338 10.6305 25.3578 10.628C25.3676 10.628 25.3873 10.6477 25.3923 10.6625C25.3997 10.6847 25.4021 10.7094 25.4021 10.7315C25.4021 10.946 25.375 11.1555 25.3257 11.365C25.2961 11.4908 25.2567 11.5228 25.1285 11.5253C24.8105 11.5253 24.4901 11.5253 24.1721 11.5203C23.9182 11.5154 23.6643 11.4982 23.4104 11.4957C23.1812 11.4957 22.9495 11.508 22.7202 11.5129C22.6438 11.5129 22.5674 11.5179 22.491 11.5154C22.4614 11.5154 22.4318 11.5056 22.4072 11.4957C22.3948 11.4908 22.3776 11.4661 22.38 11.4563C22.385 11.4365 22.3998 11.4094 22.4146 11.402C22.4466 11.3897 22.4836 11.3897 22.5181 11.3872C22.7547 11.3724 22.8188 11.3207 22.841 11.0791C22.8607 10.8671 22.8681 10.6551 22.8681 10.4407C22.8706 9.65434 22.8681 8.868 22.8681 8.08166C22.8681 7.92144 22.8681 7.76121 22.8558 7.60345C22.8435 7.40625 22.7695 7.32984 22.5797 7.29533C22.5156 7.283 22.4515 7.283 22.385 7.27561C22.3505 7.27068 22.3184 7.25835 22.2913 7.25096L22.2938 7.25835Z" fill="#0D1853"/>
<path d="M35.2282 8.85568C35.2306 8.92963 35.238 8.96907 35.2356 9.00851C35.2158 9.25008 35.1937 9.49165 35.169 9.73322C35.169 9.7554 35.1665 9.78252 35.1542 9.80224C35.1444 9.82196 35.1246 9.84414 35.1074 9.84661C35.0926 9.84661 35.0655 9.82196 35.0606 9.8047C35.0507 9.77266 35.0507 9.73568 35.0482 9.69871C35.0359 9.49165 34.9176 9.40537 34.75 9.38565C34.7154 9.38072 34.6809 9.37086 34.644 9.37086C34.3728 9.36593 34.0992 9.361 33.828 9.35607C33.8059 9.35607 33.7837 9.36593 33.7541 9.37086C33.7492 9.40784 33.7393 9.43988 33.7393 9.47439C33.7393 9.87126 33.7368 10.2657 33.7393 10.6625C33.7393 10.7389 33.7516 10.8154 33.7664 10.8893C33.7911 11.0175 33.8724 11.0964 33.9932 11.1383C34.0326 11.1531 34.0721 11.1654 34.1115 11.1703C34.3876 11.2122 34.6637 11.2147 34.9422 11.1703C35.1591 11.1358 35.2923 11.015 35.3391 10.7981C35.3514 10.7463 35.3662 10.6946 35.3835 10.6453C35.3884 10.6329 35.413 10.6206 35.4278 10.6231C35.4426 10.6231 35.4599 10.6428 35.4648 10.6576C35.4722 10.6847 35.4771 10.7143 35.4771 10.7439C35.4771 10.9509 35.4476 11.1555 35.4032 11.3577C35.3736 11.4858 35.3366 11.5129 35.2084 11.5203C35.1616 11.5228 35.1148 11.5228 35.0655 11.5203C34.6218 11.5105 34.1781 11.5056 33.7368 11.4932C33.4238 11.4834 33.1107 11.4834 32.7977 11.5056C32.7163 11.5105 32.6325 11.5105 32.5487 11.508C32.5216 11.508 32.492 11.4932 32.4674 11.4809C32.4427 11.4686 32.4476 11.4193 32.4698 11.407C32.4846 11.3996 32.5019 11.3897 32.5167 11.3872C32.5512 11.3823 32.5882 11.3823 32.6227 11.3798C32.8149 11.3675 32.8667 11.3207 32.9061 11.1284C32.9185 11.0717 32.9234 11.0101 32.9234 10.9534C32.9308 10.6576 32.9431 10.3618 32.9431 10.066C32.9431 9.33882 32.9431 8.61164 32.9431 7.88447C32.9431 7.77108 32.9357 7.66015 32.9283 7.54676C32.9209 7.42598 32.8568 7.3471 32.7434 7.31505C32.6695 7.29287 32.5931 7.28301 32.5191 7.27315C32.4674 7.26575 32.4107 7.27808 32.3663 7.23864C32.354 7.17948 32.3934 7.16469 32.4378 7.16469C32.6029 7.16469 32.7681 7.16469 32.9333 7.16469C33.5544 7.16962 34.1756 7.17701 34.7943 7.18194C34.9472 7.18194 35.1025 7.16961 35.2504 7.12771C35.2676 7.12278 35.2849 7.12771 35.312 7.12771C35.3169 7.15482 35.3292 7.18194 35.3268 7.20659C35.3071 7.41858 35.2849 7.63057 35.2627 7.8401C35.2627 7.86475 35.2577 7.88693 35.2553 7.91158C35.2454 7.96828 35.2134 8.00772 35.1838 7.99786C35.1419 7.98307 35.1468 7.94363 35.1419 7.90912C35.0901 7.62318 35.0334 7.56648 34.745 7.52458C34.6859 7.51718 34.6267 7.51225 34.5676 7.50979C34.3482 7.50486 34.1312 7.50239 33.9119 7.49993C33.865 7.49993 33.8182 7.50486 33.764 7.50732C33.7541 7.5369 33.7393 7.56402 33.7393 7.59113C33.7393 8.03976 33.7393 8.49086 33.7393 8.93949C33.7393 8.96167 33.7492 8.98386 33.7541 9.01344C33.7837 9.02083 33.8108 9.03316 33.8379 9.03316C34.1337 9.03316 34.4295 9.02823 34.7253 9.0233C34.7771 9.0233 34.8313 9.01344 34.8831 9.00851C34.9743 9.00111 35.0556 8.97153 35.1246 8.90991C35.1444 8.89265 35.1715 8.88033 35.2232 8.84582L35.2282 8.85568Z" fill="#0D1853"/>
<path d="M20.4997 7.54681C20.4997 7.61337 20.4997 7.67253 20.4997 7.73169C20.4997 8.57718 20.4997 9.42268 20.4997 10.2682C20.4997 10.527 20.5194 10.7883 20.5293 11.0471C20.5293 11.0644 20.5293 11.0816 20.5342 11.1013C20.5589 11.2985 20.6279 11.3676 20.83 11.3898C20.8818 11.3947 20.936 11.3947 20.9903 11.3971C21.0248 11.3971 21.0617 11.3971 21.0963 11.407C21.1135 11.4119 21.1382 11.4366 21.1406 11.4538C21.1406 11.4711 21.1234 11.5007 21.1061 11.5056C21.0667 11.5179 21.0248 11.5229 20.9853 11.5229C20.8325 11.5229 20.6772 11.5179 20.5244 11.5105C20.1817 11.4933 19.8391 11.5007 19.4965 11.5204C19.4373 11.5229 19.3781 11.5278 19.319 11.5204C19.2795 11.5179 19.2426 11.4982 19.2105 11.4884C19.2007 11.4292 19.2302 11.4095 19.2672 11.4045C19.319 11.3971 19.3732 11.3996 19.425 11.3922C19.563 11.375 19.6271 11.3232 19.6542 11.1876C19.6739 11.0767 19.6887 10.9658 19.6912 10.8524C19.6986 10.5097 19.6986 10.1671 19.6986 9.82448C19.6986 9.13181 19.6986 8.44161 19.6986 7.74894C19.6986 7.68485 19.6986 7.62076 19.6986 7.54928C19.6542 7.53942 19.6222 7.52709 19.5877 7.52709C19.2697 7.53449 18.9492 7.54435 18.6312 7.55667C18.6017 7.55667 18.5721 7.5616 18.5425 7.56653C18.3626 7.58625 18.2368 7.68239 18.1654 7.85001C18.1481 7.88698 18.1333 7.92642 18.1136 7.9634C18.1062 7.97572 18.0816 7.98312 18.0668 7.98065C18.052 7.98065 18.0323 7.9634 18.0298 7.95107C18.0249 7.91163 18.0175 7.86726 18.0249 7.82782C18.0643 7.61337 18.1087 7.39891 18.153 7.18446C18.158 7.15734 18.1777 7.13269 18.1925 7.10065C18.2319 7.10804 18.2664 7.10804 18.2985 7.12037C18.4045 7.15981 18.5154 7.1746 18.6288 7.17706C18.8358 7.18199 19.0429 7.19185 19.25 7.19185C19.9697 7.19185 20.692 7.19432 21.4118 7.19185C21.5991 7.19185 21.7889 7.1672 21.9763 7.14995C22.0576 7.14255 22.0896 7.15981 22.0896 7.24115C22.0872 7.47779 22.0798 7.71443 22.0724 7.95107C22.0724 7.97326 22.0625 7.99791 22.0527 8.01763C22.0477 8.02749 22.0354 8.03735 22.0256 8.03735C22.0108 8.03735 21.9861 8.02995 21.9812 8.01763C21.9689 7.98558 21.959 7.95107 21.9565 7.91656C21.9442 7.76866 21.8604 7.67746 21.7298 7.62816C21.6484 7.59858 21.5597 7.56653 21.4734 7.5616C21.1727 7.54435 20.8719 7.53942 20.5712 7.53202C20.554 7.53202 20.5392 7.54188 20.4997 7.55174V7.54681Z" fill="#0D1853"/>
<path d="M31.8533 7.21401C31.8607 7.24606 31.8681 7.26824 31.8681 7.29043C31.8631 7.52214 31.8607 7.75138 31.8533 7.98309C31.8533 8.02253 31.8335 8.06197 31.8188 8.09895C31.8138 8.11127 31.7892 8.12113 31.7744 8.11867C31.7596 8.11867 31.7399 8.10141 31.7349 8.08662C31.7251 8.05951 31.7251 8.02993 31.7202 8.00035C31.6709 7.71934 31.5131 7.52707 31.2419 7.43586C30.9733 7.34466 30.707 7.36191 30.4482 7.48023C30.3028 7.54679 30.1869 7.64539 30.1302 7.79822C30.0489 8.01514 30.0859 8.21727 30.2313 8.39721C30.3102 8.49335 30.4088 8.56976 30.5148 8.63632C30.6553 8.72259 30.8032 8.79901 30.9437 8.88528C31.0891 8.97402 31.2345 9.06523 31.3751 9.16383C31.5106 9.25997 31.6265 9.37829 31.73 9.50893C32.0899 9.96496 32.1096 10.771 31.555 11.2394C31.3356 11.4242 31.0916 11.5376 30.8081 11.5746C30.4285 11.6239 30.0538 11.6091 29.6791 11.5327C29.6052 11.5179 29.5337 11.4883 29.4597 11.4661C29.3538 11.4341 29.3118 11.3577 29.3143 11.2517C29.3143 11.2172 29.3143 11.1802 29.3143 11.1457C29.3242 10.9386 29.334 10.7316 29.3488 10.5245C29.3513 10.4777 29.3636 10.4308 29.3809 10.3889C29.3858 10.3741 29.4178 10.3643 29.4376 10.3618C29.4499 10.3618 29.4671 10.3815 29.4745 10.3939C29.4819 10.4087 29.4819 10.4284 29.4844 10.4456C29.4869 10.4752 29.4893 10.5048 29.4943 10.5344C29.5633 10.9559 29.7753 11.1851 30.1943 11.2763C30.3989 11.3207 30.606 11.3232 30.8081 11.2591C31.3972 11.0693 31.4342 10.3766 31.1212 10.066C31.0152 9.96002 30.8993 9.87128 30.7736 9.7924C30.6331 9.70613 30.4877 9.62478 30.3471 9.53851C30.1647 9.42758 29.9897 9.3068 29.8369 9.15644C29.6471 8.96909 29.514 8.74971 29.4696 8.48349C29.3981 8.03979 29.5337 7.67743 29.8961 7.40875C30.145 7.22387 30.431 7.13267 30.7366 7.10802C31.0669 7.0809 31.3972 7.10309 31.7226 7.17457C31.767 7.18443 31.8089 7.20415 31.8533 7.21894V7.21401Z" fill="#0D1853"/>
<path d="M26.0136 10.9115C26.0136 10.8178 26.0111 10.7217 26.0136 10.628C26.0136 10.5639 26.0234 10.4974 26.0333 10.4333C26.0431 10.3741 26.0727 10.3421 26.1072 10.352C26.1516 10.3643 26.1491 10.4037 26.1565 10.4358C26.1763 10.5344 26.1886 10.6354 26.2157 10.7316C26.2675 10.9164 26.3833 11.0569 26.5509 11.1482C26.8443 11.3108 27.1573 11.3454 27.4778 11.2492C28.0472 11.0767 28.1236 10.3963 27.7958 10.0586C27.6947 9.95509 27.5862 9.86882 27.463 9.79487C27.3225 9.70859 27.1771 9.62725 27.0365 9.54097C26.9207 9.46949 26.8073 9.39307 26.6988 9.31419C26.5707 9.22052 26.4548 9.1096 26.3587 8.97895C26.1393 8.68069 26.0727 8.34545 26.1565 7.98802C26.2083 7.76864 26.334 7.59116 26.509 7.44819C26.7112 7.28303 26.9429 7.1869 27.1943 7.13513C27.4753 7.07597 27.7588 7.0883 28.0423 7.11295C28.1606 7.12281 28.2764 7.14992 28.3923 7.16964C28.4219 7.17457 28.449 7.18197 28.4786 7.19183C28.5205 7.20662 28.5476 7.2362 28.5501 7.28303C28.5501 7.29536 28.5501 7.30768 28.5501 7.31754C28.5427 7.53693 28.5353 7.75385 28.5254 7.97323C28.5254 8.01267 28.5106 8.05458 28.4983 8.09155C28.4934 8.10388 28.4712 8.11374 28.4564 8.11374C28.4416 8.11374 28.4219 8.10141 28.4145 8.08909C28.4022 8.06197 28.3972 8.03239 28.3923 8.00528C28.3479 7.70455 28.1729 7.51228 27.8894 7.42354C27.6503 7.34959 27.4112 7.36191 27.1771 7.45312C27.1179 7.4753 27.0587 7.50981 27.007 7.54679C26.7457 7.73166 26.684 8.08909 26.8739 8.34545C26.9256 8.41693 26.9897 8.48102 27.0587 8.53279C27.1672 8.61413 27.283 8.68562 27.3989 8.7571C27.5246 8.83352 27.6577 8.90007 27.7834 8.97649C27.9732 9.08988 28.1483 9.21806 28.2986 9.37828C28.6413 9.74064 28.73 10.1671 28.6166 10.6428C28.587 10.7636 28.5328 10.877 28.4589 10.9781C28.2222 11.3035 27.9141 11.5105 27.5074 11.5672C27.1228 11.619 26.7407 11.6066 26.3611 11.5278C26.2699 11.508 26.1812 11.4735 26.0924 11.439C26.0308 11.4168 25.9988 11.3675 25.9988 11.301C25.9988 11.1703 25.9988 11.0422 25.9988 10.9115H26.016H26.0136Z" fill="#0D1853"/>
<path d="M28.8709 17.5522C28.8758 17.4388 28.8807 17.3279 28.8856 17.2145C28.8856 17.1726 28.8881 17.1307 28.898 17.0913C28.9054 17.0567 28.9202 17.0222 28.9596 17.0124C28.9892 17.005 29.0114 17.042 29.0212 17.1036C29.0385 17.2022 29.0533 17.3008 29.0804 17.3969C29.1321 17.5818 29.2505 17.7223 29.4156 17.8135C29.709 17.9762 30.0245 18.0132 30.3425 17.9121C30.9439 17.7223 30.9636 17.0222 30.6555 16.719C30.5446 16.6106 30.4238 16.5169 30.2932 16.4356C30.1477 16.3468 29.9974 16.2605 29.8519 16.1718C29.6597 16.056 29.4772 15.9228 29.322 15.7577C29.1001 15.5235 28.9892 15.2474 28.9867 14.9221C28.9867 14.6065 29.105 14.3477 29.3367 14.1382C29.5315 13.9632 29.7607 13.8596 30.0122 13.8029C30.128 13.7783 30.2463 13.7635 30.3622 13.7561C30.6407 13.7388 30.9168 13.761 31.1929 13.8103C31.2397 13.8177 31.2866 13.8301 31.3309 13.8424C31.3827 13.8572 31.4073 13.8941 31.4073 13.9484C31.4073 13.9533 31.4073 13.9607 31.4073 13.9656C31.4024 14.185 31.3975 14.4044 31.3926 14.6213C31.3926 14.6386 31.3926 14.6558 31.3876 14.6756C31.3778 14.7396 31.3433 14.7865 31.3087 14.7766C31.2594 14.7594 31.2619 14.715 31.257 14.6731C31.2101 14.3502 31.0228 14.1505 30.7122 14.0716C30.4509 14.0051 30.1946 14.0248 29.953 14.1505C29.8125 14.2245 29.704 14.3304 29.6547 14.4857C29.5906 14.6928 29.6251 14.8875 29.7706 15.0502C29.8495 15.1365 29.9431 15.2129 30.0393 15.2795C30.1773 15.3707 30.3252 15.4471 30.4657 15.5334C30.621 15.6295 30.7788 15.7256 30.9267 15.8316C31.0228 15.9007 31.1091 15.982 31.188 16.0707C31.5059 16.4232 31.5898 16.8374 31.4813 17.2934C31.4468 17.4388 31.3802 17.5719 31.2866 17.6878C31.0376 18.0033 30.7171 18.1931 30.3104 18.2375C29.9604 18.2745 29.6128 18.2621 29.2677 18.198C29.1814 18.1808 29.0976 18.1512 29.0114 18.1266C28.9004 18.0945 28.8462 18.0206 28.8511 17.9022C28.8561 17.7839 28.8585 17.6656 28.8635 17.5473H28.8684L28.8709 17.5522Z" fill="#0D1853"/>
<path d="M42.5095 7.53445C42.3419 7.53445 42.1891 7.53445 42.0363 7.53445C41.8662 7.53692 41.6936 7.54431 41.5235 7.54924C41.4693 7.54924 41.4175 7.55417 41.3658 7.56157C41.1932 7.58375 41.07 7.67249 41.001 7.83272C40.9837 7.86969 40.9714 7.9116 40.9492 7.94364C40.9393 7.95843 40.9073 7.97569 40.8925 7.97076C40.8752 7.96583 40.858 7.94118 40.8531 7.92146C40.8457 7.89434 40.8481 7.8623 40.8531 7.83272C40.8925 7.62319 40.9344 7.41613 40.9763 7.20661C40.9788 7.18935 40.9837 7.1721 40.9886 7.15484C41.0059 7.10554 41.0379 7.08336 41.0823 7.09815C41.3806 7.20168 41.6887 7.18196 41.9943 7.18442C42.7437 7.18689 43.4955 7.18442 44.2449 7.18442C44.4396 7.18442 44.6344 7.17703 44.8266 7.13759C44.8439 7.13512 44.8611 7.13759 44.8883 7.14005C44.8981 7.1721 44.9129 7.20168 44.9129 7.23372C44.9129 7.45804 44.9104 7.68235 44.908 7.90667C44.908 7.91899 44.908 7.93132 44.9055 7.94118C44.8981 7.97569 44.8932 8.01266 44.8538 8.02499C44.8242 8.03485 44.7971 7.99787 44.7872 7.93871C44.7847 7.92146 44.7823 7.9042 44.7823 7.88695C44.7749 7.76863 44.7059 7.69221 44.6073 7.63798C44.5136 7.58622 44.4101 7.55417 44.3041 7.54924C44.0033 7.53692 43.7026 7.52952 43.4019 7.51966C43.3846 7.51966 43.3698 7.52706 43.3526 7.53199C43.3131 7.58622 43.3279 7.64784 43.3279 7.70454C43.3279 8.14084 43.3279 8.57961 43.3279 9.01592C43.3279 9.56069 43.3328 10.103 43.3378 10.6478C43.3378 10.7784 43.3476 10.9066 43.36 11.0372C43.3797 11.2936 43.4561 11.3675 43.7125 11.3848C43.7889 11.3897 43.8653 11.3922 43.9417 11.402C43.9565 11.402 43.9713 11.4341 43.9762 11.4538C43.9762 11.4637 43.959 11.4859 43.9466 11.4908C43.9072 11.5006 43.8678 11.513 43.8258 11.5105C43.6656 11.5105 43.5079 11.5056 43.3476 11.4982C43.0099 11.4809 42.6747 11.4883 42.337 11.508C42.2778 11.5105 42.2187 11.513 42.1595 11.513C42.1373 11.513 42.1127 11.508 42.0905 11.5031C42.0609 11.4932 42.0338 11.476 42.0412 11.4415C42.0461 11.4242 42.0708 11.402 42.0905 11.3971C42.125 11.3873 42.1595 11.3897 42.1965 11.3873C42.231 11.3848 42.268 11.3848 42.3025 11.3774C42.3912 11.3601 42.4553 11.3108 42.475 11.2196C42.4947 11.1408 42.512 11.0569 42.5145 10.9756C42.5243 10.6749 42.5342 10.3741 42.5367 10.0709C42.5391 9.29693 42.5367 8.52292 42.5367 7.74891C42.5367 7.67989 42.544 7.6084 42.5169 7.52706L42.5095 7.53445Z" fill="#0D1853"/>
<path d="M11.6035 11.4908C11.3669 11.5007 11.1302 11.5105 10.8961 11.5179C10.827 11.5179 10.7556 11.513 10.6865 11.5031C10.6717 11.5031 10.6496 11.4711 10.6496 11.4538C10.6496 11.4366 10.6717 11.4095 10.689 11.4045C10.7408 11.3947 10.795 11.3947 10.8468 11.3897C11.0119 11.3725 11.0834 11.3133 11.1007 11.1482C11.1204 10.9732 11.1327 10.7957 11.1352 10.6182C11.1376 9.6667 11.1352 8.71521 11.1352 7.76372C11.1352 7.68731 11.1253 7.61089 11.1154 7.53448C11.0982 7.3989 11.0144 7.32495 10.8837 7.30277C10.8246 7.29291 10.7654 7.29044 10.7087 7.28058C10.6865 7.27812 10.6644 7.26826 10.6446 7.2584C10.6249 7.24854 10.6224 7.2091 10.6446 7.19924C10.6644 7.18938 10.6865 7.17705 10.7087 7.17459C10.7679 7.16966 10.827 7.16966 10.8862 7.17212C11.3225 7.18198 11.7613 7.18445 12.1976 7.17212C12.2617 7.17212 12.3282 7.17459 12.3923 7.18198C12.4071 7.18198 12.4219 7.21403 12.4268 7.23375C12.4268 7.24361 12.4096 7.26826 12.3948 7.27072C12.3307 7.28305 12.2666 7.29537 12.2025 7.30277C12.0324 7.32002 11.9609 7.41862 11.9536 7.57145C11.9462 7.71935 11.9363 7.86725 11.9363 8.01515C11.9363 8.81874 11.9363 9.62233 11.9363 10.4284C11.9363 10.6281 11.9462 10.8302 11.956 11.0299C11.9708 11.3059 12.0472 11.3799 12.3258 11.3947C12.38 11.3971 12.4318 11.3947 12.486 11.3996C12.5082 11.3996 12.5328 11.407 12.5525 11.4169C12.5649 11.4243 12.5797 11.4415 12.5821 11.4563C12.5821 11.4711 12.5698 11.4957 12.5599 11.4982C12.5156 11.5105 12.4687 11.5253 12.4244 11.5229C12.2469 11.5229 12.0694 11.513 11.8919 11.5081C11.7983 11.5081 11.7021 11.5081 11.6085 11.5081V11.4933L11.6035 11.4908Z" fill="#0D1853"/>
<path fill-rule="evenodd" clip-rule="evenodd" d="M79.6383 22.5093C79.754 22.492 79.8697 22.4748 79.9976 22.4551L80.0001 22.4502C79.9956 22.447 79.9919 22.4443 79.9889 22.442C79.9803 22.4356 79.9766 22.4329 79.973 22.4329C79.9619 22.4317 79.9502 22.4299 79.9385 22.428C79.9268 22.4262 79.915 22.4243 79.9039 22.4231C79.3469 22.3614 78.8144 22.2135 78.2968 22.0016C78.0823 21.9153 77.8679 21.829 77.6559 21.7403C76.6033 21.299 75.5508 20.8578 74.4809 20.4609C73.3372 20.0369 72.1836 19.6573 70.9905 19.396C70.3274 19.2506 69.6569 19.1397 68.9741 19.12C68.7312 19.1128 68.4906 19.1008 68.2478 19.0888L68.2297 19.0879C68.2245 19.0879 68.2193 19.0881 68.2139 19.0882C68.1808 19.0891 68.1432 19.0902 68.0966 19.0583C68.1157 19.0532 68.133 19.0483 68.1491 19.0437C68.1871 19.0329 68.2182 19.0241 68.2494 19.0189C69.1146 18.8981 69.9503 18.6689 70.7563 18.3336C72.3339 17.6755 73.6675 16.6944 74.7151 15.3387C75.8441 13.8794 76.448 12.218 76.5959 10.3865C76.6329 9.93783 76.6378 9.4892 76.6107 9.03811C76.5737 8.40953 76.4875 7.79081 76.3322 7.18196C75.8145 5.15573 74.7299 3.49431 73.0931 2.20265C71.3036 0.790206 69.2477 0.0901453 66.975 0.00633521C66.2577 -0.0207798 65.5453 0.0408452 64.8379 0.16656C63.6497 0.376086 62.5306 0.775416 61.4854 1.37688C60.1223 2.15828 59.0032 3.20098 58.1602 4.53208C57.2851 5.91248 56.8315 7.42846 56.7453 9.05289C56.7009 9.86388 56.7526 10.6699 56.9079 11.4711C57.2161 13.0536 57.8865 14.4636 58.9342 15.6911C60.0015 16.9409 61.3129 17.8431 62.8387 18.4421C63.6892 18.7773 64.5716 18.9967 65.4812 19.0904C65.6225 19.1052 65.7639 19.1178 65.9052 19.1304C65.9759 19.1367 66.0465 19.143 66.1172 19.1495C66.1208 19.1499 66.1248 19.1501 66.1289 19.1502C66.1499 19.151 66.1751 19.1519 66.1813 19.189C66.1542 19.1939 66.132 19.1988 66.1098 19.2038C65.6686 19.2901 65.2372 19.4108 64.8231 19.5908C64.5281 19.7183 64.2605 19.891 63.9916 20.0645C63.928 20.1056 63.8643 20.1467 63.8001 20.1873C63.7853 20.1972 63.7631 20.2243 63.8001 20.2514C63.8117 20.2464 63.8233 20.2412 63.8349 20.2361C63.8802 20.216 63.9261 20.1956 63.9751 20.1799C63.989 20.1756 64.003 20.1711 64.0169 20.1665C64.0819 20.1455 64.1472 20.1244 64.2142 20.1183C64.4262 20.0986 64.6382 20.0813 64.8502 20.0789C65.3358 20.0715 65.8189 20.0936 66.2971 20.1898C66.7384 20.2785 67.1673 20.4116 67.5913 20.562C68.3948 20.8479 69.1738 21.1881 69.9429 21.5554C70.765 21.947 71.5837 22.3445 72.4028 22.7422C72.7798 22.9251 73.1568 23.1082 73.5344 23.2908C73.7688 23.4043 74.0028 23.5183 74.2365 23.6321C74.5508 23.7853 74.8647 23.9381 75.1785 24.0894C75.19 24.0949 75.2012 24.1013 75.2125 24.1077C75.2521 24.1304 75.2924 24.1535 75.3462 24.1362C75.3609 23.9914 75.3732 23.8514 75.3855 23.7114L75.3856 23.7098C75.3972 23.5779 75.4066 23.4439 75.4158 23.3118L75.4176 23.2858C75.4205 23.2452 75.4229 23.2043 75.4254 23.1634C75.4314 23.0628 75.4374 22.9617 75.4497 22.8618C75.4559 22.8122 75.4576 22.7617 75.4594 22.7109C75.4625 22.6205 75.4656 22.5296 75.4941 22.4428C75.5033 22.4407 75.5112 22.4379 75.5186 22.4352C75.5289 22.4314 75.5382 22.428 75.5483 22.428C75.6074 22.428 75.6666 22.428 75.7258 22.4329C75.8061 22.438 75.8858 22.4438 75.9652 22.4495C76.0392 22.4549 76.113 22.4602 76.1867 22.465C76.411 22.4798 76.6354 22.4946 76.8597 22.5069C76.9492 22.5118 77.0387 22.5168 77.1283 22.5218C77.5761 22.5468 78.024 22.5718 78.4718 22.5882C78.8613 22.603 79.2507 22.5636 79.6377 22.5093L79.6383 22.5093ZM60.5537 11.8137C60.4452 11.0742 60.3984 10.3322 60.391 9.62971L60.3885 9.63217C60.3959 8.82365 60.4452 8.06196 60.5611 7.30767C60.6281 6.8768 60.7135 6.45143 60.8224 6.03296C60.883 5.79957 60.9511 5.56834 61.0275 5.33948C61.1313 5.02793 61.2503 4.72079 61.3869 4.41869C61.4758 4.22326 61.5712 4.03198 61.6741 3.84547C61.888 3.45798 62.1343 3.09101 62.4221 2.74988C62.5292 2.62319 62.6398 2.50259 62.7542 2.38814C63.4858 1.65497 64.3683 1.17369 65.4097 0.960293C66.0383 0.832113 66.6743 0.807462 67.3152 0.866622C67.8353 0.913457 68.3431 1.02685 68.8311 1.21419C69.6668 1.5371 70.3619 2.05229 70.9387 2.73263C71.4367 3.3193 71.8113 3.98239 72.1047 4.68984C72.4005 5.40223 72.6026 6.14173 72.7431 6.90095C72.8787 7.63552 72.9502 8.37502 72.9724 9.12192C72.9945 9.82691 72.965 10.5294 72.8935 11.2295C72.8072 12.0725 72.647 12.9008 72.3906 13.7093C72.186 14.36 71.9198 14.9837 71.5673 15.5704C71.2432 16.1124 70.8573 16.6001 70.3906 17.0145C70.2601 17.1307 70.1234 17.241 69.9798 17.3452C69.3439 17.8086 68.634 18.1019 67.8599 18.2449C67.3867 18.3336 66.9109 18.3657 66.4302 18.346C65.4418 18.3065 64.5149 18.0649 63.6719 17.535C63.0754 17.1578 62.5774 16.6747 62.1609 16.1053C61.6999 15.4767 61.3597 14.784 61.0984 14.0495C60.8396 13.3223 60.6671 12.5754 60.5537 11.8137Z" fill="#0D1853"/>
<path fill-rule="evenodd" clip-rule="evenodd" d="M11.1473 16.5391C11.1464 16.4941 11.1455 16.4476 11.1772 16.4011L11.1797 16.3986C11.1818 16.398 11.1839 16.3974 11.1862 16.3967C11.2023 16.392 11.2218 16.3863 11.2413 16.3863C11.3152 16.3863 11.3892 16.3875 11.4631 16.3888C11.5371 16.39 11.611 16.3912 11.685 16.3912C11.7762 16.3912 11.8403 16.4257 11.892 16.5022C11.9709 16.618 12.0523 16.7363 12.1361 16.8497C12.1758 16.9029 12.2155 16.9562 12.2552 17.0094C12.4197 17.2304 12.5845 17.4516 12.7573 17.6681C12.9052 17.853 13.0777 18.0157 13.307 18.1044C13.3837 18.1765 13.4779 18.1762 13.5731 18.1759C13.5789 18.1759 13.5847 18.1759 13.5904 18.1759H14.7441C14.786 18.1759 14.8279 18.171 14.8673 18.1636C14.8796 18.1611 14.8969 18.1365 14.8969 18.1266C14.8944 18.1069 14.8821 18.0822 14.8648 18.0724C14.8476 18.0625 14.8205 18.0625 14.7958 18.0625C14.7841 18.0619 14.7724 18.0614 14.7607 18.061C14.7256 18.0596 14.6904 18.0582 14.6553 18.0526C14.5444 18.0329 14.4951 17.9787 14.5099 17.8678C14.5222 17.7618 14.5493 17.6582 14.5863 17.5596C14.6526 17.387 14.7238 17.2168 14.7947 17.0474C14.824 16.9773 14.8533 16.9073 14.8821 16.8374C14.893 16.8137 14.9053 16.7914 14.9179 16.7685C14.9224 16.7603 14.9269 16.7521 14.9314 16.7437C14.9426 16.7421 14.9531 16.7403 14.9631 16.7385C14.9838 16.7348 15.0027 16.7314 15.0226 16.7314H16.3364C16.3515 16.7314 16.3665 16.7359 16.3838 16.7412C16.3921 16.7436 16.4009 16.7463 16.4104 16.7487C16.424 16.7807 16.4381 16.8128 16.4523 16.8448C16.4665 16.8768 16.4806 16.9089 16.4942 16.9409C16.546 17.0728 16.5984 17.2047 16.6507 17.3366C16.7031 17.4684 16.7555 17.6003 16.8073 17.7322C16.827 17.7815 16.8467 17.8308 16.864 17.8801C16.8835 17.9362 16.8933 17.9645 16.8861 17.9875C16.8787 18.011 16.8534 18.0288 16.8023 18.065C16.7894 18.0742 16.7806 18.0876 16.7718 18.101C16.7689 18.1055 16.766 18.11 16.7629 18.1143C16.8015 18.1619 16.8463 18.1615 16.8897 18.1612C16.8934 18.1611 16.8972 18.1611 16.9009 18.1611C17.0124 18.1623 17.124 18.1637 17.2356 18.1651C17.5735 18.1693 17.9121 18.1734 18.2493 18.1734C18.4212 18.1748 18.5939 18.173 18.7665 18.1712C18.8959 18.1699 19.0251 18.1685 19.1539 18.1685C19.1937 18.1685 19.2328 18.1704 19.2716 18.1722C19.3098 18.1741 19.3478 18.1759 19.3857 18.1759C19.435 18.1784 19.4818 18.1784 19.5286 18.1759C19.5319 18.1757 19.5352 18.1755 19.5386 18.1753C19.5756 18.1734 19.6159 18.1714 19.6272 18.1217C19.6346 18.0921 19.5952 18.0674 19.536 18.0625C19.5126 18.06 19.4892 18.0588 19.4658 18.0576C19.4424 18.0563 19.4189 18.0551 19.3955 18.0526C19.1712 18.0231 19.0997 17.954 19.0578 17.7322C19.0553 17.7223 19.0529 17.71 19.0529 17.6977C19.0496 17.6612 19.0456 17.6244 19.0415 17.5875C19.0333 17.5124 19.025 17.4369 19.0233 17.3624L18.9641 15.1809C18.9641 15.1759 18.9639 15.1707 18.9637 15.1654C18.9623 15.1368 18.9608 15.1052 18.9962 15.0823C19.0396 15.0981 19.0703 15.1328 19.1011 15.1675C19.1088 15.1762 19.1165 15.1849 19.1244 15.1932C19.2008 15.2721 19.276 15.3516 19.3511 15.4311C19.4263 15.5106 19.5015 15.5901 19.5779 15.669C20.2893 16.4062 21.0327 17.1095 21.7768 17.8135C21.8836 17.9145 21.9904 18.0156 22.0972 18.1167C22.1267 18.1463 22.1588 18.1734 22.1933 18.1956C22.2278 18.2178 22.2672 18.2326 22.3067 18.2425C22.3708 18.2572 22.4151 18.2351 22.4299 18.1734C22.4447 18.1167 22.4521 18.0576 22.4521 17.9984L22.4965 15.425C22.5039 15.0651 22.5137 14.7027 22.5236 14.3428C22.5261 14.296 22.5285 14.2491 22.5359 14.2023C22.5581 14.0741 22.6296 13.9854 22.7627 13.9632C22.7861 13.9595 22.8095 13.957 22.833 13.9546C22.8564 13.9521 22.8798 13.9496 22.9032 13.946C22.908 13.9455 22.9128 13.9451 22.9175 13.9447C22.9372 13.9431 22.9563 13.9416 22.9722 13.9336C22.9846 13.9262 22.9993 13.9065 22.9993 13.8917C22.9993 13.8794 22.9846 13.8523 22.9722 13.8523C22.9254 13.8424 22.8786 13.8375 22.8317 13.8375H21.5894H21.5893C21.5474 13.8375 21.508 13.8375 21.4661 13.8424C21.4365 13.8474 21.407 13.8597 21.4094 13.8967C21.4119 13.9312 21.4439 13.9435 21.4735 13.9435C21.4932 13.946 21.5136 13.946 21.5342 13.946C21.5549 13.946 21.5758 13.946 21.5968 13.9484C21.6559 13.9558 21.7151 13.9632 21.7718 13.978C21.8704 14.0026 21.9394 14.0667 21.9616 14.1678C21.9813 14.2615 21.9936 14.3551 21.9986 14.4488C22.0047 14.566 22.0061 14.6841 22.0074 14.8027C22.0082 14.8736 22.009 14.9447 22.0109 15.0158L22.0626 16.9483C22.0627 16.9493 22.0628 16.9503 22.0629 16.9513C22.0654 16.9778 22.0682 17.0082 22.0207 17.0272C21.9813 16.9927 21.9394 16.9557 21.8975 16.9138C21.7863 16.8016 21.6754 16.689 21.5645 16.5763C21.3976 16.4068 21.2306 16.2371 21.0619 16.0683C20.6974 15.7039 20.3319 15.3405 19.966 14.9768C19.7824 14.7944 19.5988 14.6119 19.4152 14.4291C19.3137 14.329 19.2137 14.2272 19.114 14.1257C19.0395 14.0498 18.9651 13.974 18.8902 13.8991C18.8384 13.8498 18.7842 13.803 18.7275 13.7635C18.6659 13.7241 18.6092 13.7414 18.587 13.8128C18.5673 13.872 18.5599 13.9386 18.5599 14.0026C18.5549 14.3378 18.5503 14.673 18.5456 15.0082C18.5363 15.6788 18.527 16.3493 18.5155 17.0198C18.513 17.2515 18.5032 17.4832 18.4909 17.7125C18.4884 17.7815 18.4711 17.8505 18.4514 17.9195C18.4366 17.9738 18.3972 18.0132 18.343 18.0305C18.163 18.0921 17.9239 18.0674 17.7933 17.8998C17.7867 17.8909 17.7801 17.882 17.7734 17.8731C17.7304 17.8154 17.6869 17.7572 17.6528 17.6952C17.5936 17.5868 17.5394 17.4734 17.4901 17.36C17.145 16.5639 16.8024 15.7653 16.4598 14.9667L16.4597 14.9665C16.3192 14.6411 16.1787 14.3157 16.0357 13.9903L16.0357 13.9903C16.0061 13.9262 15.9766 13.8621 15.9371 13.803C15.8829 13.7241 15.7991 13.7241 15.7473 13.8005C15.7079 13.8572 15.6758 13.9238 15.6487 13.9879C15.294 14.8008 14.9417 15.6137 14.5894 16.4266L14.5888 16.4282C14.528 16.5684 14.4676 16.7083 14.4073 16.848C14.3011 17.0938 14.1953 17.3391 14.0884 17.5843C14.0835 17.5954 14.0787 17.6066 14.074 17.6178C14.0373 17.7035 14.0001 17.7906 13.9281 17.8604C13.9212 17.8569 13.9144 17.8538 13.9079 17.8508C13.8913 17.8433 13.8764 17.8365 13.864 17.8259C13.8474 17.8111 13.8306 17.7964 13.8138 17.7818C13.7634 17.7379 13.7131 17.694 13.6668 17.6459C13.2858 17.2543 12.9434 16.8295 12.5999 16.4034C12.5456 16.3361 12.4913 16.2687 12.4368 16.2014C12.4273 16.1904 12.4229 16.1762 12.4183 16.1617C12.4158 16.1535 12.4132 16.1453 12.4097 16.1373L12.5601 16.0042C12.6981 15.8834 12.8287 15.7528 12.9397 15.6074C13.0407 15.4743 13.1221 15.3337 13.1689 15.1711C13.3341 14.5942 12.9791 14.121 12.6069 13.9879C12.4836 13.946 12.3579 13.9114 12.2322 13.8843C12.0234 13.8409 11.8093 13.8426 11.5959 13.8442C11.5549 13.8446 11.5139 13.8449 11.473 13.8449C11.1476 13.8474 10.8222 13.8498 10.4969 13.8498C10.3995 13.8498 10.3021 13.8486 10.2048 13.8474C10.1074 13.8461 10.01 13.8449 9.91265 13.8449C9.91075 13.8449 9.90884 13.8449 9.90693 13.8449C9.86677 13.8448 9.82548 13.8447 9.80665 13.8917C9.79433 13.9213 9.84116 13.9435 9.91265 13.9533C9.93319 13.956 9.95373 13.9585 9.97425 13.961C10.0473 13.9697 10.12 13.9785 10.1912 13.9977C10.2972 14.0248 10.3637 14.1012 10.3761 14.2122C10.3859 14.3108 10.3909 14.4118 10.3909 14.5129V16.4997V16.4997C10.3909 16.8054 10.3909 17.1135 10.3835 17.4216C10.381 17.5572 10.3687 17.6952 10.349 17.8283C10.3268 17.9836 10.2602 18.0403 10.1049 18.0625C10.0819 18.0658 10.0583 18.0671 10.0348 18.0685C10.0054 18.0701 9.97588 18.0718 9.94716 18.0773C9.90525 18.0847 9.89046 18.1143 9.90772 18.1586C9.96772 18.1917 10.0312 18.1884 10.0952 18.185C10.1075 18.1843 10.1198 18.1837 10.132 18.1833C10.5757 18.1636 11.0194 18.1685 11.4631 18.1833C11.5322 18.1858 11.6036 18.1858 11.6751 18.1808C11.7392 18.1759 11.7713 18.1512 11.7614 18.1167C11.7491 18.0725 11.7124 18.0699 11.678 18.0675L11.6776 18.0674C11.6464 18.0641 11.6151 18.0611 11.5839 18.0581C11.5215 18.0521 11.459 18.0461 11.3966 18.0379C11.2906 18.0231 11.224 17.959 11.2043 17.8554C11.1871 17.7741 11.1723 17.6903 11.1698 17.6089C11.1632 17.3748 11.1588 17.1419 11.1544 16.9085C11.1522 16.7929 11.1501 16.6773 11.1476 16.5613C11.1476 16.554 11.1475 16.5466 11.1473 16.5391ZM11.1472 14.3255C11.1459 14.2751 11.1445 14.2234 11.1821 14.1629L11.1797 14.1604C11.4114 14.1111 11.6382 14.1062 11.8625 14.1826C12.1065 14.2639 12.2815 14.4266 12.3727 14.6657C12.491 14.9739 12.4935 15.2918 12.3801 15.6024C12.3505 15.6862 12.3037 15.7627 12.2519 15.8341C12.1262 16.0067 11.9586 16.1102 11.7392 16.1028C11.5864 16.0979 11.4336 16.088 11.2807 16.0683C11.1747 16.056 11.155 16.019 11.1476 15.9155V15.844V14.3527C11.1476 14.3436 11.1474 14.3346 11.1472 14.3255ZM15.1947 16.4184C15.2868 16.4185 15.379 16.4187 15.4712 16.4189C15.7014 16.4194 15.9316 16.42 16.1618 16.4184H16.1712C16.1842 16.4184 16.1972 16.415 16.2137 16.4107C16.2253 16.4077 16.2387 16.4042 16.255 16.4011H16.2574C16.2564 16.3965 16.2553 16.3921 16.2543 16.3879C16.2465 16.3543 16.2418 16.3346 16.2353 16.3149C16.1976 16.2179 16.1598 16.1208 16.1221 16.0237C15.9872 15.6763 15.8519 15.328 15.7151 14.9813C15.7087 14.9668 15.6981 14.9534 15.6839 14.9355C15.6764 14.926 15.6679 14.9152 15.6584 14.9024C15.6579 14.9037 15.6574 14.9051 15.6568 14.9064C15.6558 14.9051 15.6547 14.9037 15.6536 14.9024C15.5822 15.0823 15.5156 15.2475 15.449 15.4102C15.4296 15.4585 15.4099 15.5066 15.3903 15.5546C15.3427 15.6707 15.2954 15.7863 15.2518 15.9032C15.2319 15.9559 15.2095 16.0079 15.1872 16.06C15.1405 16.1687 15.0936 16.2779 15.067 16.3962C15.0781 16.4002 15.0871 16.4046 15.0949 16.4085C15.1062 16.414 15.1149 16.4183 15.1237 16.4183C15.1248 16.4183 15.126 16.4183 15.1272 16.4183C15.1276 16.4184 15.128 16.4184 15.1285 16.4184H15.1947Z" fill="#0D1853"/>
<path fill-rule="evenodd" clip-rule="evenodd" d="M50.2176 11.418C50.2046 11.4273 50.1917 11.4365 50.1781 11.4464L50.1732 11.4587C50.2029 11.5112 50.2431 11.5109 50.2803 11.5105C50.2832 11.5105 50.2861 11.5105 50.289 11.5105C50.3428 11.5121 50.3963 11.5143 50.4497 11.5165C50.5554 11.5209 50.6608 11.5253 50.7672 11.5253C51.1517 11.5302 51.5363 11.5302 51.9208 11.5302H51.9209C52.0544 11.5292 52.1875 11.5266 52.3203 11.5241C52.5187 11.5202 52.7165 11.5164 52.9143 11.5179C53.229 11.5196 53.5449 11.5276 53.8613 11.5357C53.9884 11.5389 54.1157 11.5422 54.2429 11.545H54.2429C54.307 11.545 54.3736 11.545 54.4376 11.54C54.588 11.5302 54.6373 11.4932 54.6644 11.3428C54.6912 11.1923 54.7094 11.04 54.7276 10.8875C54.7312 10.8577 54.7347 10.8279 54.7384 10.7981C54.7458 10.7512 54.7408 10.7044 54.731 10.6576C54.7285 10.6403 54.7014 10.6255 54.6817 10.6206C54.6718 10.6181 54.6472 10.6354 54.6422 10.6477C54.6315 10.6782 54.6237 10.7097 54.6158 10.7415C54.6109 10.7611 54.606 10.7808 54.6003 10.8005C54.5412 11.0051 54.4105 11.1358 54.1936 11.1703C54.1835 11.1716 54.1734 11.173 54.1632 11.1744C54.1159 11.1809 54.0672 11.1876 54.0186 11.1876L54.0168 11.1876C53.8276 11.19 53.6408 11.1925 53.4516 11.1851C53.353 11.1826 53.252 11.1654 53.1534 11.1456C53.0104 11.1185 52.9241 11.0298 52.9019 10.8844C52.9001 10.8727 52.8982 10.861 52.8963 10.8493C52.8831 10.7673 52.8699 10.6853 52.8699 10.6033V7.7119C52.8699 7.64288 52.8822 7.57139 52.8945 7.50237C52.9118 7.39638 52.9808 7.33722 53.0843 7.31996C53.1253 7.3129 53.1655 7.30907 53.2058 7.30523C53.2358 7.30238 53.2658 7.29952 53.2963 7.29531C53.3308 7.29038 53.3654 7.28299 53.3999 7.27313C53.4097 7.27066 53.4196 7.25587 53.4196 7.24848C53.4196 7.23122 53.4122 7.20904 53.4023 7.20411C53.3752 7.19178 53.3456 7.18192 53.3185 7.18192H53.0868L53.0868 7.18192C52.7737 7.18439 52.4607 7.18685 52.1476 7.18685C52.0691 7.18685 51.9899 7.18563 51.9104 7.1844C51.8303 7.18317 51.7499 7.18192 51.6694 7.18192C51.63 7.18192 51.5881 7.18932 51.5487 7.19918C51.5363 7.20164 51.524 7.22629 51.524 7.23862C51.524 7.25341 51.5388 7.27313 51.5511 7.27806C51.5749 7.28539 51.6015 7.28863 51.6277 7.29183C51.6367 7.29294 51.6458 7.29405 51.6546 7.29531C51.676 7.29942 51.6976 7.30298 51.7193 7.30654C51.7626 7.31366 51.8058 7.32079 51.8469 7.33229C51.9751 7.36926 52.0466 7.45307 52.054 7.58865C52.0614 7.67739 52.0614 7.76613 52.0614 7.85487V10.2681C52.0614 10.4752 52.0614 10.6822 52.054 10.8893C52.049 10.9953 52.0367 11.1013 52.017 11.2048C51.9923 11.3355 51.9307 11.3897 51.8001 11.3995C51.6941 11.4069 51.5881 11.402 51.4821 11.3946C51.3786 11.3848 51.2898 11.3379 51.2233 11.2566C51.174 11.1974 51.1247 11.1358 51.0877 11.0692C51.0236 10.9558 50.9644 10.84 50.9127 10.7217C50.7032 10.2406 50.4957 9.75859 50.2882 9.27681C50.1662 8.99329 50.0441 8.70985 49.9217 8.42675C49.7689 8.06932 49.6136 7.70943 49.4583 7.35201C49.4337 7.29285 49.4066 7.23369 49.3745 7.17699C49.3006 7.05128 49.2069 7.05374 49.1329 7.18192C49.1009 7.23615 49.0738 7.29778 49.0491 7.35694C48.7928 7.94726 48.5365 8.53819 48.2801 9.12912C48.0237 9.72016 47.7674 10.3112 47.511 10.9016L47.5109 10.9018C47.4813 10.9658 47.4518 11.0298 47.4198 11.0939C47.3039 11.3182 47.124 11.4193 46.8701 11.3995C46.6063 11.3798 46.5274 11.3083 46.5126 11.0397L46.5126 11.0396C46.5028 10.8326 46.4929 10.6255 46.4929 10.4185V8.39471C46.4954 8.14081 46.5003 7.88691 46.5102 7.63302C46.52 7.38898 46.5743 7.33475 46.8109 7.30024C46.8627 7.29285 46.9144 7.28545 46.9662 7.27066C46.9761 7.2682 46.9859 7.24355 46.9884 7.22629C46.9909 7.2189 46.9785 7.19918 46.9687 7.19918C46.96 7.19754 46.9514 7.19582 46.9428 7.19411C46.8997 7.18555 46.8565 7.17699 46.8134 7.17699C46.6359 7.17699 46.4584 7.17823 46.2809 7.17946C46.1035 7.18069 45.926 7.18192 45.7485 7.18192C45.6847 7.18192 45.6203 7.1807 45.5556 7.17948C45.4903 7.17824 45.4247 7.17699 45.359 7.17699C45.3171 7.17699 45.2752 7.17699 45.2358 7.18685C45.2185 7.18932 45.1914 7.21397 45.1914 7.23122C45.1914 7.24601 45.2161 7.27313 45.2333 7.27806C45.2654 7.28422 45.2974 7.28792 45.3294 7.29162C45.3615 7.29531 45.3935 7.29901 45.4256 7.30517C45.5883 7.33475 45.6524 7.39391 45.6795 7.55414C45.6918 7.61823 45.6967 7.68478 45.6967 7.74887C45.6967 8.0717 45.697 8.3948 45.6973 8.71799C45.6978 9.36464 45.6984 10.0117 45.6967 10.6576C45.6967 10.8227 45.6844 10.9879 45.6647 11.153C45.645 11.3182 45.5759 11.3774 45.4108 11.3946C45.3901 11.3976 45.3685 11.3979 45.3471 11.3982C45.3328 11.3984 45.3186 11.3986 45.3048 11.3995C45.2826 11.402 45.258 11.4069 45.2382 11.4168C45.2235 11.4217 45.2111 11.4414 45.2111 11.4562C45.2111 11.471 45.221 11.4932 45.2333 11.4981C45.258 11.5105 45.2875 11.5203 45.3171 11.5203C45.3763 11.5228 45.4354 11.5203 45.4946 11.5179L45.4946 11.5179C45.8372 11.4981 46.1799 11.4907 46.5225 11.508C46.5548 11.5093 46.587 11.5109 46.6193 11.5124C46.7645 11.5191 46.9097 11.5259 47.0549 11.5179C47.4173 11.4981 47.7772 11.4858 48.1371 11.5179C48.1839 11.5203 48.2308 11.5179 48.2776 11.508C48.2948 11.5055 48.3121 11.4809 48.322 11.4612C48.3318 11.4365 48.3047 11.402 48.2727 11.3995C48.2459 11.3971 48.219 11.3959 48.1925 11.3947C48.1654 11.3934 48.1386 11.3922 48.1124 11.3897C47.9621 11.3774 47.9128 11.3231 47.9325 11.1703C47.9473 11.0717 47.9744 10.9756 48.0114 10.8819C48.0724 10.7224 48.1382 10.5641 48.2038 10.4062C48.2335 10.3346 48.2632 10.2632 48.2924 10.1917C48.3011 10.173 48.3105 10.1549 48.3195 10.1375C48.3283 10.1204 48.3368 10.104 48.3441 10.0882C48.3488 10.0862 48.353 10.0842 48.357 10.0824C48.3678 10.0773 48.3764 10.0734 48.3836 10.0734L48.3904 10.0733C48.8441 10.0709 49.2954 10.0684 49.7492 10.0684C49.801 10.0684 49.8355 10.0956 49.8552 10.1449C49.9279 10.3285 50.0006 10.5127 50.0733 10.6969C50.146 10.8812 50.2188 11.0655 50.2915 11.2492C50.2926 11.2524 50.2941 11.2552 50.2955 11.2577C50.2973 11.2609 50.2989 11.2637 50.2989 11.2664C50.3137 11.3256 50.3063 11.3502 50.257 11.3897C50.2434 11.3995 50.2305 11.4088 50.2176 11.418ZM49.0885 8.24443C49.0885 8.2444 49.0886 8.24437 49.0886 8.24434H49.091C49.1896 8.43908 49.6333 9.5927 49.6629 9.72581C49.6583 9.73853 49.6499 9.74528 49.6399 9.74886C49.6296 9.75311 49.6174 9.75302 49.606 9.75293C49.6055 9.75293 49.6051 9.75293 49.6047 9.75292C49.6044 9.75292 49.6041 9.75292 49.6038 9.75292H48.5413C48.541 9.75292 48.5407 9.75292 48.5404 9.75291H48.5388C48.5327 9.75291 48.5256 9.75008 48.5159 9.74618C48.5099 9.74377 48.5029 9.74094 48.4944 9.73812C48.4944 9.7321 48.4941 9.72579 48.4938 9.71933C48.4929 9.69932 48.4919 9.67787 48.4993 9.65924C48.6817 9.20336 48.864 8.74995 49.0464 8.29655L49.0466 8.29609C49.0518 8.28562 49.0595 8.27639 49.0705 8.26316C49.0751 8.25769 49.0802 8.25153 49.086 8.24432H49.0885C49.0885 8.24436 49.0885 8.24439 49.0885 8.24443Z" fill="#0D1853"/>
<path fill-rule="evenodd" clip-rule="evenodd" d="M8.18693 15.2721C8.22873 15.2911 8.26468 15.3068 8.29778 15.3213L8.29778 15.3213C8.32908 15.3351 8.35784 15.3477 8.38659 15.3608C8.62077 15.4668 8.82783 15.6098 9.00777 15.7947C9.61417 16.4159 9.48106 17.3723 8.83522 17.8505C8.60598 18.0181 8.34962 18.1142 8.07354 18.1685C7.79253 18.2227 7.50659 18.2153 7.22558 18.1931C6.78188 18.1561 6.33818 18.166 5.89694 18.1783C5.88032 18.1783 5.8636 18.1791 5.84675 18.1798H5.84674C5.78114 18.1826 5.71365 18.1855 5.64305 18.1463C5.64715 18.1381 5.65043 18.1285 5.65362 18.1192C5.66001 18.1006 5.66604 18.083 5.67756 18.0797C5.71432 18.071 5.75234 18.0684 5.78982 18.0659C5.80512 18.0649 5.82032 18.0639 5.83532 18.0625C6.0621 18.0403 6.12619 17.9885 6.16316 17.7642C6.18781 17.6138 6.20014 17.4586 6.2026 17.3057C6.21 16.9335 6.21 16.5613 6.21 16.1866V13.8794C6.21 13.7487 6.19767 13.6205 6.18288 13.4899C6.16809 13.342 6.07442 13.2557 5.93145 13.2311C5.86152 13.2188 5.79035 13.2128 5.7197 13.2068H5.7197L5.71969 13.2068C5.69073 13.2043 5.66185 13.2019 5.63319 13.199C5.57156 13.1941 5.53705 13.1694 5.54445 13.1374C5.55423 13.0934 5.59312 13.0906 5.62743 13.0882L5.62826 13.0881C5.70467 13.0832 5.78109 13.0807 5.8575 13.0832C6.34804 13.1004 6.83857 13.1029 7.32911 13.0832C7.583 13.0733 7.83936 13.0856 8.0834 13.1645C8.17953 13.1941 8.2732 13.2286 8.36194 13.2754C8.73662 13.4751 8.91903 13.8523 8.85248 14.2713C8.8155 14.5055 8.7243 14.715 8.569 14.8925C8.50393 14.9674 8.43254 15.036 8.36116 15.1047L8.30771 15.1562C8.28462 15.1793 8.26026 15.2024 8.22907 15.232L8.18939 15.2696L8.18693 15.2721ZM7.97007 15.733C8.13687 15.864 8.26527 16.0173 8.35993 16.1894C8.4409 16.3355 8.49722 16.4955 8.53117 16.6678C8.53702 16.6969 8.54225 16.7263 8.54688 16.756C8.57055 16.9075 8.57831 17.059 8.55488 17.2127L8.55175 17.2342C8.49505 17.5966 8.24855 17.8456 7.8862 17.8924C7.689 17.9195 7.49673 17.9047 7.30692 17.8456C7.13437 17.7938 7.03824 17.6829 7.02591 17.5005C7.02098 17.4413 7.01605 17.3821 7.01605 17.323V15.6566L7.01613 15.6503C7.01644 15.6209 7.02018 15.5914 7.02432 15.5588L7.02597 15.5457L7.02844 15.5482C7.03607 15.5451 7.04346 15.5416 7.05062 15.5382L7.05063 15.5382C7.06659 15.5305 7.08138 15.5235 7.09499 15.5235C7.13601 15.5259 7.17702 15.5281 7.21799 15.5302L7.21802 15.5302L7.21803 15.5302C7.34205 15.5367 7.46572 15.5432 7.58799 15.558C7.73096 15.5753 7.85668 15.6443 7.97007 15.733ZM7.02591 15.208C7.23051 15.2573 7.41785 15.2524 7.60519 15.2302C7.68494 15.2206 7.75473 15.1948 7.81711 15.1556C7.86835 15.1241 7.91434 15.0836 7.95574 15.0354C8.02969 14.9492 8.07899 14.8481 8.10857 14.7396C8.20224 14.3921 8.15541 14.0593 7.973 13.7512C7.80291 13.4652 7.54655 13.337 7.21624 13.3568C7.14692 13.3615 7.10181 13.3661 7.07251 13.3804C7.02197 13.4033 7.01605 13.4527 7.01605 13.5712V15.0404C7.01605 15.0688 7.01828 15.0972 7.02069 15.128V15.128C7.02268 15.1534 7.0248 15.1804 7.02591 15.2105V15.208Z" fill="#0D1853"/>
<path fill-rule="evenodd" clip-rule="evenodd" d="M2.19631 11.484C2.23329 11.4914 2.27335 11.4994 2.32018 11.5081L2.32511 11.513C2.28743 11.5318 2.25298 11.5482 2.22096 11.5633C2.16918 11.5879 2.12372 11.6094 2.08108 11.6338C2.06894 11.6411 2.0566 11.648 2.0442 11.655C1.98102 11.6906 1.91607 11.7272 1.86662 11.8137C1.88819 11.8046 1.90557 11.7982 1.92046 11.7926C1.9379 11.7861 1.95192 11.7809 1.96522 11.7743C2.25116 11.6436 2.54696 11.619 2.84523 11.7176C3.07447 11.794 3.30372 11.8753 3.52557 11.9715C3.80407 12.0889 4.07914 12.2132 4.35389 12.3374C4.48283 12.3956 4.6117 12.4538 4.74082 12.5113C4.75472 12.5174 4.76848 12.5244 4.78242 12.5316C4.8253 12.5537 4.86988 12.5767 4.92569 12.5729C4.94313 12.5286 4.94222 12.4832 4.94131 12.438C4.94081 12.413 4.94031 12.3881 4.94295 12.3634C4.94509 12.3291 4.95282 12.2948 4.96128 12.2573C4.96255 12.2517 4.96384 12.246 4.96513 12.2402C5.00675 12.2393 5.04756 12.2391 5.08783 12.2388C5.16919 12.2383 5.24834 12.2377 5.32749 12.2328C5.45567 12.2254 5.58631 12.213 5.71449 12.1983C5.73685 12.1964 5.75781 12.1847 5.77735 12.1737C5.78366 12.1702 5.78982 12.1668 5.79584 12.1637C5.74764 12.149 5.69969 12.1349 5.65214 12.121C5.54891 12.0908 5.44756 12.0612 5.34967 12.0257C5.24554 11.9881 5.14188 11.9492 5.03828 11.9102C4.90399 11.8597 4.7698 11.8093 4.63482 11.762C4.24535 11.6239 3.84848 11.5081 3.43683 11.4514C3.43226 11.4498 3.42957 11.4436 3.42586 11.435C3.42356 11.4297 3.42088 11.4234 3.41711 11.4169C3.44341 11.4074 3.46972 11.3984 3.49583 11.3894C3.53089 11.3774 3.56561 11.3655 3.59952 11.3528C4.25521 11.1235 4.74575 10.7045 5.0588 10.0833C5.31023 9.57796 5.39651 9.04306 5.32009 8.48104C5.22396 7.76372 4.87639 7.20663 4.26261 6.81962C4.08759 6.7087 3.89778 6.62489 3.70058 6.5608C3.26181 6.41536 2.81072 6.37839 2.35223 6.42029C1.88881 6.4622 1.46483 6.6101 1.08275 6.87878C0.32846 7.40876 -0.2237 8.4909 0.0893553 9.62233C0.370366 10.6502 1.03592 11.2714 2.09094 11.4637C2.12545 11.4699 2.15934 11.4766 2.19631 11.484ZM4.60964 8.46747C4.56498 8.15578 4.46163 7.86125 4.29958 7.59117C4.03583 7.1524 3.66114 6.85413 3.16321 6.71609C2.82551 6.62242 2.48534 6.62489 2.14517 6.69637C1.54124 6.82455 1.1148 7.17458 0.878156 7.74647C0.833786 7.85493 0.799276 7.96832 0.772161 8.08417C0.673765 8.49936 0.673503 8.91688 0.741803 9.33446C0.743779 9.34659 0.745815 9.35872 0.747906 9.37085C0.811996 9.7406 0.937711 10.0931 1.16449 10.3963C1.67721 11.084 2.36741 11.3502 3.20305 11.1999C3.85628 11.084 4.28272 10.6724 4.50211 10.0487C4.6155 9.72581 4.6574 9.39304 4.6648 9.05287L4.66726 9.05533C4.66675 9.05033 4.66625 9.04533 4.66576 9.04032C4.66154 8.99179 4.65773 8.94325 4.65394 8.89476C4.64294 8.7544 4.63198 8.61438 4.61085 8.47564C4.61076 8.47496 4.61066 8.47427 4.61057 8.47359C4.61026 8.47155 4.60995 8.46951 4.60964 8.46747Z" fill="#0D1853"/>
<path fill-rule="evenodd" clip-rule="evenodd" d="M25.1658 13.8413C25.0437 13.8418 24.9214 13.8424 24.7989 13.8424V13.8375H23.665C23.6058 13.8375 23.5467 13.8375 23.4875 13.8424C23.4579 13.8449 23.4283 13.8572 23.4308 13.8942C23.4333 13.9287 23.4629 13.941 23.4949 13.9435C23.5122 13.9459 23.53 13.9459 23.5479 13.9459C23.5658 13.9459 23.5836 13.9459 23.6009 13.9484C23.6144 13.9505 23.628 13.9524 23.6417 13.9544C23.6928 13.9618 23.7445 13.9693 23.7932 13.9829C23.9115 14.0174 23.9904 14.0914 24.0002 14.2195C24.0101 14.3132 24.0175 14.4093 24.0175 14.503V17.1282C24.0175 17.2466 24.0126 17.3649 24.0076 17.4832L24.0076 17.4832C24.0061 17.5044 24.0048 17.5256 24.0034 17.5468C23.9979 17.6316 23.9923 17.7164 23.9805 17.8012C23.9534 17.9885 23.8893 18.0452 23.7044 18.0625C23.6888 18.0641 23.6729 18.0652 23.657 18.0663C23.6253 18.0685 23.5935 18.0707 23.5639 18.0773C23.5491 18.0797 23.5343 18.1093 23.5294 18.129C23.5269 18.1389 23.5467 18.166 23.559 18.166L23.559 18.166C23.6231 18.1734 23.6872 18.1808 23.7513 18.1783C24.2418 18.1512 24.7323 18.1709 25.2204 18.2153C25.5507 18.2449 25.881 18.2474 26.2113 18.203C26.5244 18.1611 26.8251 18.0797 27.1111 17.9466C27.6188 17.71 27.9639 17.323 28.1685 16.8053C28.3214 16.4159 28.3534 16.0116 28.2992 15.6024C28.2524 15.2622 28.1291 14.9516 27.922 14.6756C27.6583 14.3255 27.3058 14.1111 26.8941 13.9878C26.5712 13.8892 26.236 13.8473 25.8983 13.8424C25.6535 13.8391 25.4098 13.8402 25.1658 13.8413ZM26.9058 14.6655C26.802 14.5714 26.6834 14.4883 26.549 14.4167C26.4455 14.3625 26.337 14.3107 26.2261 14.2738C25.881 14.153 25.5236 14.1209 25.1612 14.1308C25.0921 14.1308 25.0252 14.1423 24.9562 14.1543C24.9539 14.1547 24.9516 14.1551 24.9493 14.1554C24.8556 14.1727 24.8285 14.2023 24.8211 14.296C24.8137 14.3896 24.8112 14.4858 24.8112 14.5794C24.8112 14.771 24.8107 14.9622 24.8101 15.1534C24.809 15.5355 24.8079 15.9172 24.8112 16.3C24.8112 16.5562 24.8175 16.8124 24.8237 17.0694C24.8263 17.1735 24.8288 17.2777 24.8309 17.3821C24.8309 17.4294 24.8374 17.4757 24.8439 17.5222C24.8473 17.546 24.8506 17.5699 24.8531 17.5941C24.8563 17.6208 24.8626 17.6453 24.8716 17.6677C24.8966 17.7338 24.9471 17.782 25.0157 17.8136C25.0847 17.8456 25.1562 17.8777 25.2302 17.8925C25.6123 17.9713 25.9943 17.9615 26.369 17.8579C26.9606 17.6928 27.3156 17.3033 27.4265 16.6969C27.4585 16.5145 27.4684 16.3321 27.4684 16.1324L27.4733 16.1349C27.4783 15.9722 27.4659 15.7972 27.429 15.6222C27.3502 15.2339 27.1793 14.9119 26.9058 14.6655Z" fill="#0D1853"/>
<path fill-rule="evenodd" clip-rule="evenodd" d="M44.1017 18.1019C44.4098 18.2153 44.7327 18.2498 45.068 18.2572V18.2548C45.3194 18.2474 45.5782 18.2277 45.8297 18.1586C46.5371 17.9639 47.0622 17.5498 47.358 16.8694C47.5601 16.406 47.5946 15.9204 47.5034 15.4274C47.3974 14.8629 47.0992 14.4266 46.6062 14.1259C46.4607 14.0372 46.3054 13.9657 46.1403 13.9139C45.5092 13.7192 44.8733 13.7044 44.2373 13.8843C43.6605 14.047 43.2143 14.3897 42.9234 14.9196C42.6597 15.3978 42.5783 15.9106 42.6868 16.4455C42.8519 17.2564 43.3203 17.816 44.1017 18.1019ZM43.9859 14.4C43.8899 14.4904 43.8074 14.5992 43.7394 14.7274C43.6827 14.8358 43.6334 14.9517 43.6013 15.07C43.4855 15.4866 43.4731 15.9081 43.5471 16.3345C43.6013 16.6525 43.7073 16.9508 43.8922 17.217C44.2545 17.7396 44.7623 17.9861 45.3934 17.954C45.5245 17.9473 45.6473 17.924 45.7612 17.8843C46.0252 17.7936 46.2412 17.6141 46.4017 17.3501C46.488 17.2096 46.5447 17.0543 46.589 16.8941C46.6556 16.6525 46.6728 16.406 46.6827 16.1571H46.6852C46.6831 16.12 46.6814 16.0829 46.6797 16.0459C46.6754 15.9524 46.6711 15.8594 46.6605 15.7676C46.626 15.4718 46.5447 15.1883 46.4017 14.927C45.9999 14.1974 45.2653 13.9583 44.6441 14.0791C44.3832 14.1287 44.1617 14.2334 43.9859 14.4Z" fill="#0D1853"/>
<path fill-rule="evenodd" clip-rule="evenodd" d="M41.0277 16.1801C41.0207 16.1685 41.013 16.1558 41.0036 16.1422L41.0012 16.1398C41.0455 16.1003 41.0825 16.0658 41.1195 16.0288C41.1527 15.9956 41.1863 15.9625 41.2198 15.9294C41.3208 15.8299 41.422 15.73 41.5164 15.6246C41.6297 15.4964 41.7111 15.3436 41.7653 15.1784C41.9403 14.6337 41.6076 14.1308 41.2082 13.9804C41.0801 13.9336 40.9519 13.8966 40.8163 13.8744C40.6084 13.838 40.3967 13.8388 40.1861 13.8397C40.1546 13.8398 40.1231 13.8399 40.0916 13.8399H38.7605H38.5115C38.4893 13.8399 38.4672 13.8473 38.445 13.8572C38.4376 13.8621 38.4302 13.8769 38.4302 13.8868C38.4302 13.8966 38.4376 13.9163 38.445 13.9163C38.477 13.9262 38.5115 13.9336 38.546 13.9385C38.5705 13.9422 38.5953 13.9453 38.62 13.9483C38.6774 13.9554 38.7349 13.9625 38.7901 13.978C38.9182 14.0149 38.9873 14.1037 38.9947 14.2368C38.9996 14.3428 39.0021 14.4488 39.0021 14.5548V16.6673C39.0021 16.9384 38.9996 17.212 38.9922 17.4832C38.9897 17.5966 38.9774 17.7075 38.9626 17.8184C38.9355 18.0082 38.8369 18.0501 38.689 18.0625C38.6712 18.0646 38.6533 18.0653 38.6356 18.0661C38.6118 18.0671 38.5884 18.0681 38.5658 18.0723C38.546 18.0773 38.5189 18.097 38.5164 18.1142C38.5115 18.1512 38.5436 18.166 38.5731 18.166C38.6372 18.1685 38.7038 18.1685 38.7679 18.1685H40.0102H40.2765C40.2986 18.1685 40.3208 18.1611 40.343 18.1512C40.3529 18.1463 40.3603 18.1315 40.3603 18.1216C40.3603 18.1118 40.3553 18.0945 40.3479 18.092C40.3208 18.0797 40.2913 18.0699 40.2641 18.0674C40.229 18.0635 40.1942 18.0604 40.1595 18.0572C40.1066 18.0525 40.054 18.0477 40.0004 18.0403C39.887 18.023 39.8229 17.9515 39.8007 17.8431C39.798 17.8261 39.795 17.8091 39.792 17.7921C39.7816 17.7327 39.7711 17.6733 39.7711 17.6138C39.7637 17.2416 39.7588 16.8694 39.7539 16.4972C39.7539 16.4732 39.7598 16.4504 39.7668 16.4238C39.7698 16.4122 39.7731 16.3998 39.7761 16.3863C39.9782 16.3789 40.1729 16.3813 40.3652 16.3961C40.4046 16.4011 40.449 16.438 40.4786 16.4725C40.5087 16.5074 40.5347 16.5453 40.5606 16.5829C40.575 16.6039 40.5893 16.6248 40.6043 16.6451C40.8336 16.9606 41.0628 17.2761 41.2994 17.5867C41.3882 17.7026 41.4942 17.8086 41.6026 17.9096C41.7776 18.0723 41.9896 18.1611 42.2287 18.166C42.495 18.1709 42.7612 18.1709 43.0274 18.1709C43.0525 18.1709 43.0776 18.1638 43.1011 18.1572C43.1054 18.156 43.1096 18.1548 43.1137 18.1537C43.1211 18.1512 43.1285 18.134 43.1285 18.1241C43.1285 18.1142 43.1235 18.0994 43.1161 18.0945C43.0964 18.0822 43.0742 18.0699 43.0521 18.0699C42.7982 18.0551 42.5862 17.9417 42.4038 17.7741C42.3002 17.6779 42.1967 17.5793 42.1055 17.4709C41.8705 17.1948 41.6377 16.9165 41.4048 16.6382C41.2884 16.4991 41.1721 16.3599 41.0554 16.2211C41.0455 16.2098 41.0372 16.1959 41.0277 16.1801ZM39.7636 14.1623C39.7627 14.1782 39.7618 14.1934 39.7609 14.208C39.7571 14.2696 39.7539 14.321 39.7539 14.3724V15.6862V15.9179C39.7588 16.0264 39.781 16.0535 39.8845 16.0757C40.0349 16.1053 40.1877 16.1151 40.343 16.1151C40.4952 16.1151 40.622 16.0694 40.7306 15.9843C40.7753 15.9503 40.8168 15.91 40.8558 15.8638C40.9322 15.7701 40.9889 15.6666 41.0235 15.5532C41.1097 15.2722 41.1048 14.9912 41.0136 14.7151C40.9396 14.4908 40.7967 14.3232 40.5822 14.2196C40.3265 14.0992 40.0611 14.0988 39.7687 14.16C39.7687 14.1593 39.7687 14.1587 39.7688 14.158L39.7663 14.1605C39.7671 14.1603 39.7679 14.1601 39.7687 14.16C39.7686 14.1604 39.7686 14.1609 39.7686 14.1613C39.7669 14.1617 39.7653 14.162 39.7636 14.1623Z" fill="#0D1853"/>
</svg>
