<svg width="80" height="65" viewBox="0 0 80 65" fill="none" xmlns="http://www.w3.org/2000/svg">
<g clip-path="url(#clip0_1311_46023)">
<path fill-rule="evenodd" clip-rule="evenodd" d="M72.7029 14.3753C74.7808 14.1077 75.6522 9.6844 72.6353 9.7506C71.4964 9.7506 70.6912 10.8895 70.625 11.9623C70.4912 12.9675 70.8263 14.6428 72.7029 14.3753Z" fill="#0D1853"/>
<path fill-rule="evenodd" clip-rule="evenodd" d="M77.1629 25.2674L76.8953 25.1337L76.7616 25.4012C75.8902 27.6129 74.5499 28.9531 73.8122 28.9531C73.6785 28.9531 73.5447 28.8855 73.4772 28.8193C73.2759 28.618 73.0084 28.1492 73.0746 26.809V26.2064C73.1421 24.6649 73.2759 21.448 73.946 16.4207L74.0135 16.0181L69.724 17.6934L69.5902 17.761V17.8947C69.5902 18.096 69.5902 18.2973 69.5226 18.4311C69.3889 19.57 68.785 23.7259 66.5733 28.5518C64.8304 32.3051 63.424 33.1089 62.5525 33.1089C61.3461 33.1089 60.5422 31.7011 60.4084 31.1648C60.3409 30.9635 60.2747 30.7622 60.2747 30.4947C61.95 28.7518 62.9552 27.0765 63.6928 25.6687C64.6305 23.8596 69.4564 14.409 69.5902 6.16621C69.5902 3.88698 69.0538 2.07792 68.0486 1.07274C67.4461 0.335062 66.6408 0 65.7694 0C63.8252 0 61.7487 1.60911 60.4084 4.22205C57.5266 9.78434 55.5825 21.2453 56.0526 30.2258C56.0526 30.3595 56.0526 30.4933 56.1202 30.6946V30.8284C54.7124 31.9673 53.5734 32.6374 52.8358 32.9725C52.8358 30.6933 52.1656 28.8166 51.0267 27.6777C49.8878 26.4712 48.2787 26.1362 46.2683 26.605C44.928 26.94 41.7774 28.3478 40.6384 34.0439C40.5709 34.3789 40.5047 34.6464 40.5047 34.9815C40.5047 35.0491 40.4371 35.1153 40.4371 35.1828C40.2358 37.8633 39.6995 39.4049 38.6943 41.6165C37.8904 43.2918 36.7501 44.1633 36.08 44.1633C35.8787 44.1633 35.7449 44.0957 35.6112 43.962C35.3437 43.6269 35.2086 42.9568 35.2761 42.0854C35.4099 40.6776 35.8125 35.7854 36.5502 27.14L42.3813 24.8608L42.7164 21.1751L36.8852 23.6543C37.0865 21.04 37.2878 19.1634 37.2878 19.1634L37.3554 18.7607L32.8645 20.7049V20.8387C32.8645 20.8387 32.7307 22.7828 32.4619 25.5295L27.5697 27.6074L27.3684 30.8243L32.2606 28.8801C32.1268 30.8905 31.9255 33.1022 31.7242 35.1126C28.8424 37.1229 25.9606 39.1333 23.2801 41.2112C21.5372 40.2736 19.3931 39.2671 16.5775 38.1957C6.85938 34.4424 5.65288 31.3593 5.31782 28.7464C4.98276 26.1997 6.39056 17.9555 16.6437 13.1971C19.1229 12.0582 21.5359 11.4542 23.6814 11.4542C26.4956 11.4542 28.9086 12.4594 30.5177 14.2023L30.719 14.4036L33.8683 11.6555L33.7346 11.4542C32.4605 9.51007 29.1099 7.2984 23.9489 7.2984C20.9995 7.2984 17.9164 8.03607 14.7671 9.51007C9.94113 11.7893 5.98795 15.0062 3.37365 18.8256C1.02687 22.5194 -0.179619 26.5401 0.0216881 30.2258C0.490504 37.6647 6.92423 40.1452 14.3645 43.0932C15.2359 43.4283 16.1735 43.7634 17.045 44.166C17.5813 44.3673 18.1839 44.6348 18.7203 44.9036C13.9619 48.7906 10.1411 52.4777 7.99696 55.1582C5.51778 58.1737 4.71255 60.4529 5.45023 61.9945C6.0528 63.3347 7.86321 64.1386 10.8126 64.2737H11.7502C19.3904 64.2737 28.7735 58.9114 29.5112 52.0089C29.9138 48.0543 28.9086 45.3063 26.0254 43.0284C28.5722 41.1518 30.5825 39.8115 31.3878 39.2752C31.3202 40.4141 31.1865 41.3531 31.1865 41.8894C30.9852 44.3686 31.3878 46.3804 32.3254 47.3855C33.1293 48.257 34.4033 48.4583 35.8773 47.9881C38.6916 47.0505 40.502 43.6323 41.3734 41.4206C42.2448 42.8946 43.7188 43.7661 45.5293 43.7661C49.2825 43.7661 51.6279 41.018 52.5669 35.5895C54.0409 34.9194 55.3811 34.1817 56.5876 33.3778C57.5928 36.796 59.8045 37.3323 61.011 37.3323C62.5525 37.3323 64.2279 36.5285 65.4343 35.2544C66.9759 33.5791 68.1824 31.0986 68.9201 29.3571C69.2551 31.6363 70.3941 32.909 72.2045 32.909C72.6733 32.909 73.2097 32.8414 73.746 32.6415C75.8902 31.9714 77.8343 28.9558 78.8395 26.5428L78.9071 26.3415L78.7733 26.2078C78.1032 25.8051 77.5668 25.4701 77.1642 25.2701L77.1629 25.2674ZM23.8138 54.6893C21.1333 58.6439 17.2463 60.5867 12.0853 60.5867H11.5489C10.8112 60.5867 10.3424 60.3854 10.2086 60.0503C9.87358 59.2464 10.745 56.9672 16.7761 51.0023C18.2501 49.5283 19.9254 48.053 21.7358 46.5114C25.154 48.8568 25.8241 51.6049 23.8138 54.688V54.6893ZM49.0136 34.7167C48.611 38.2024 47.4721 40.2128 45.9981 40.0115C44.9253 39.8777 43.9877 38.3362 44.5241 34.5829C44.9929 31.5674 45.7981 29.9583 47.0708 29.6908C47.2046 29.6908 47.3383 29.6232 47.4734 29.6232C47.876 29.6232 48.2111 29.757 48.4111 30.0258C48.8799 30.6284 49.3487 31.8349 49.0136 34.7167ZM62.6863 7.57401C63.4902 5.22858 64.2954 4.4247 64.7642 4.4247C64.898 4.4247 65.0317 4.49226 65.1668 4.62601C65.6357 5.09483 65.837 6.36887 65.7694 7.97663C65.5019 12.8688 64.6305 17.4259 61.4136 23.9947C61.011 24.7324 60.6097 25.4687 60.1396 26.2064C60.3409 20.1077 61.4798 11.1935 62.6863 7.57401Z" fill="#0D1853"/>
<path fill-rule="evenodd" clip-rule="evenodd" d="M78.6316 25.2675C78.0074 25.2675 77.4886 24.7487 77.4886 24.1245C77.4886 23.5003 78.0088 23.0126 78.6316 23.0126C79.2923 23.0126 79.8111 23.499 79.8111 24.1245C79.8111 24.7501 79.2923 25.2675 78.6316 25.2675ZM78.6316 22.8397C77.9385 22.8397 77.313 23.4287 77.313 24.1245C77.313 24.8203 77.9034 25.408 78.6316 25.408C79.3963 25.408 79.9854 24.8176 79.9854 24.1245C79.9854 23.4314 79.3963 22.8397 78.6316 22.8397Z" fill="#0D1853" stroke="#0D1853" stroke-width="0.0297232" stroke-miterlimit="22.93"/>
<path fill-rule="evenodd" clip-rule="evenodd" d="M78.533 24.0448H78.333V23.4855H78.533C78.6937 23.4855 78.9734 23.4855 78.9734 23.7651C78.9734 23.9245 78.8532 24.0448 78.6937 24.0448H78.533ZM79.2153 24.6068L78.8951 24.1259C79.095 24.0448 79.2153 23.9637 79.2153 23.7232C79.2153 23.4044 78.8545 23.3639 78.7356 23.3639H77.9736V23.4436C78.0538 23.4715 78.0939 23.5246 78.0939 23.603V24.565C78.0939 24.6852 78.0939 24.7244 77.9736 24.7663V24.8473H78.4546V24.7663C78.3344 24.7244 78.3344 24.646 78.3344 24.6068V24.165H78.6559L79.095 24.8473H79.4166V24.7663C79.2558 24.6852 79.2963 24.7244 79.2153 24.6068Z" fill="#0D1853" stroke="#0D1853" stroke-width="0.0297232" stroke-miterlimit="22.93"/>
</g>
<defs>
<clipPath id="clip0_1311_46023">
<rect width="80" height="64.2724" fill="white"/>
</clipPath>
</defs>
</svg>
