<svg width="80" height="36" viewBox="0 0 80 36" fill="none" xmlns="http://www.w3.org/2000/svg">
<path d="M79.9999 34.4591H0V35.3307H79.9999V34.4591Z" fill="#0D1853"/>
<path d="M79.9999 34.4591H0V35.3307H79.9999V34.4591Z" fill="#0D1853"/>
<path d="M79.9999 16.9027H50.7704C50.926 16.6226 51.0505 16.3113 51.175 16.0311H79.9999V16.9027ZM29.2295 16.9027H0V16.0311H28.8249C28.9494 16.3113 29.0739 16.6226 29.2295 16.9027Z" fill="#0D1853"/>
<path d="M79.9999 16.9027H50.7704C50.926 16.6226 51.0505 16.3113 51.175 16.0311H79.9999V16.9027ZM29.2295 16.9027H0V16.0311H28.8249C28.9494 16.3113 29.0739 16.6226 29.2295 16.9027Z" fill="#0D1853"/>
<path d="M50.7702 16.9027H48.2799L48.6846 16.249C49.5873 14.7237 50.0854 12.9494 50.0854 11.0506C50.0854 5.44747 45.5718 0.902727 39.9998 0.871598C34.4278 0.871598 29.9142 5.41634 29.9142 11.0506C29.9142 12.9494 30.4434 14.7237 31.315 16.249L31.7196 16.9027H29.2294C29.0737 16.6226 28.9492 16.3113 28.8247 16.0311H30.1944C29.4473 14.537 29.0115 12.856 29.0115 11.0506C29.0115 4.94941 33.9298 3.8147e-06 39.9687 3.8147e-06C46.0387 3.8147e-06 50.9258 4.94941 50.9258 11.0506C50.9258 12.8249 50.4901 14.537 49.743 16.0311H51.1126C51.0504 16.3113 50.9258 16.6226 50.7702 16.9027Z" fill="#0D1853"/>
<path d="M50.7702 16.9027H48.2799L48.6846 16.249C49.5873 14.7237 50.0854 12.9494 50.0854 11.0506C50.0854 5.44747 45.5718 0.902727 39.9998 0.871598C34.4278 0.871598 29.9142 5.41634 29.9142 11.0506C29.9142 12.9494 30.4434 14.7237 31.315 16.249L31.7196 16.9027H29.2294C29.0737 16.6226 28.9492 16.3113 28.8247 16.0311H30.1944C29.4473 14.537 29.0115 12.856 29.0115 11.0506C29.0115 4.94941 33.9298 3.8147e-06 39.9687 3.8147e-06C46.0387 3.8147e-06 50.9258 4.94941 50.9258 11.0506C50.9258 12.8249 50.4901 14.537 49.743 16.0311H51.1126C51.0504 16.3113 50.9258 16.6226 50.7702 16.9027Z" fill="#0D1853"/>
<path d="M39.9997 19.2373C35.5173 19.2373 31.8752 15.5642 31.8752 11.0506C31.8752 6.53697 35.5173 2.86382 39.9997 2.86382C43.2371 2.86382 46.0387 4.79378 47.346 7.53308H46.3811C45.1359 5.2607 42.7702 3.73542 39.9997 3.73542C35.9842 3.73542 32.7468 7.00389 32.7468 11.0506C32.7468 15.0973 36.0153 18.3657 39.9997 18.3657C42.739 18.3657 45.1359 16.8405 46.3811 14.5681H47.346C46.0387 17.3385 43.2371 19.2373 39.9997 19.2373Z" fill="#0D1853"/>
<path d="M39.9997 19.2373C35.5173 19.2373 31.8752 15.5642 31.8752 11.0506C31.8752 6.53697 35.5173 2.86382 39.9997 2.86382C43.2371 2.86382 46.0387 4.79378 47.346 7.53308H46.3811C45.1359 5.2607 42.7702 3.73542 39.9997 3.73542C35.9842 3.73542 32.7468 7.00389 32.7468 11.0506C32.7468 15.0973 36.0153 18.3657 39.9997 18.3657C42.739 18.3657 45.1359 16.8405 46.3811 14.5681H47.346C46.0387 17.3385 43.2371 19.2373 39.9997 19.2373Z" fill="#0D1853"/>
<path d="M46.6304 13.2296C46.2568 13.2296 45.9456 13.1051 45.6965 12.8872C45.4475 12.6381 45.323 12.358 45.323 12.0156C45.323 11.6109 45.5098 11.2685 45.9144 10.9883L46.1946 10.8016H46.2257L46.2568 10.7704C45.9767 10.4903 45.8522 10.179 45.8522 9.89884C45.8522 9.61869 45.9456 9.40079 46.1323 9.21402C46.3191 9.02725 46.5681 8.96499 46.8483 8.96499C47.1284 8.96499 47.3775 9.05837 47.5331 9.21402C47.7199 9.36966 47.8133 9.58756 47.8133 9.86771C47.8133 10.0545 47.751 10.2101 47.6576 10.3658C47.5642 10.5214 47.3775 10.677 47.1284 10.8949L47.8755 11.7977L47.9066 11.7665C48 11.6732 48.0623 11.5798 48.1246 11.5175C48.1868 11.4241 48.2491 11.3619 48.3424 11.2685L48.7471 11.6732C48.6849 11.7354 48.6226 11.8288 48.5603 11.9222C48.467 12.0156 48.3736 12.1401 48.2802 12.2335L49.0273 13.1673H48.2491L47.8444 12.6693C47.4397 13.0428 47.0351 13.2296 46.6304 13.2296ZM46.5993 11.2062L46.5681 11.2374C46.3191 11.4241 46.1323 11.5486 46.0389 11.6732C45.9456 11.7665 45.9144 11.8911 45.9144 12.0156C45.9144 12.2023 45.9767 12.358 46.1323 12.4825C46.288 12.607 46.4436 12.7004 46.5993 12.7004C46.8483 12.7004 47.1284 12.5448 47.4397 12.2335L46.5993 11.2062ZM46.8172 9.46304C46.6926 9.46304 46.5993 9.49417 46.537 9.55643C46.4747 9.61868 46.4125 9.71207 46.4125 9.80545C46.4125 9.92997 46.4747 10.0545 46.5681 10.179L46.7238 10.3658L46.7549 10.3969L46.8172 10.3658C46.9105 10.3035 46.9728 10.2413 47.0351 10.179C47.0973 10.1167 47.1284 10.0856 47.1596 10.0545C47.2218 9.99223 47.253 9.89884 47.253 9.80545C47.253 9.71207 47.2218 9.61868 47.1284 9.5253C47.0351 9.49417 46.9417 9.46304 46.8172 9.46304Z" fill="#0D1853"/>
<path d="M46.6304 13.2296C46.2568 13.2296 45.9456 13.1051 45.6965 12.8872C45.4475 12.6381 45.323 12.358 45.323 12.0156C45.323 11.6109 45.5098 11.2685 45.9144 10.9883L46.1946 10.8016H46.2257L46.2568 10.7704C45.9767 10.4903 45.8522 10.179 45.8522 9.89884C45.8522 9.61869 45.9456 9.40079 46.1323 9.21402C46.3191 9.02725 46.5681 8.96499 46.8483 8.96499C47.1284 8.96499 47.3775 9.05837 47.5331 9.21402C47.7199 9.36966 47.8133 9.58756 47.8133 9.86771C47.8133 10.0545 47.751 10.2101 47.6576 10.3658C47.5642 10.5214 47.3775 10.677 47.1284 10.8949L47.8755 11.7977L47.9066 11.7665C48 11.6732 48.0623 11.5798 48.1246 11.5175C48.1868 11.4241 48.2491 11.3619 48.3424 11.2685L48.7471 11.6732C48.6849 11.7354 48.6226 11.8288 48.5603 11.9222C48.467 12.0156 48.3736 12.1401 48.2802 12.2335L49.0273 13.1673H48.2491L47.8444 12.6693C47.4397 13.0428 47.0351 13.2296 46.6304 13.2296ZM46.5993 11.2062L46.5681 11.2374C46.3191 11.4241 46.1323 11.5486 46.0389 11.6732C45.9456 11.7665 45.9144 11.8911 45.9144 12.0156C45.9144 12.2023 45.9767 12.358 46.1323 12.4825C46.288 12.607 46.4436 12.7004 46.5993 12.7004C46.8483 12.7004 47.1284 12.5448 47.4397 12.2335L46.5993 11.2062ZM46.8172 9.46304C46.6926 9.46304 46.5993 9.49417 46.537 9.55643C46.4747 9.61868 46.4125 9.71207 46.4125 9.80545C46.4125 9.92997 46.4747 10.0545 46.5681 10.179L46.7238 10.3658L46.7549 10.3969L46.8172 10.3658C46.9105 10.3035 46.9728 10.2413 47.0351 10.179C47.0973 10.1167 47.1284 10.0856 47.1596 10.0545C47.2218 9.99223 47.253 9.89884 47.253 9.80545C47.253 9.71207 47.2218 9.61868 47.1284 9.5253C47.0351 9.49417 46.9417 9.46304 46.8172 9.46304Z" fill="#0D1853"/>
<path d="M44.2646 15.9066L36.9806 9.05835V15.7509H35.8911V6.47469L37.9456 8.40465V8.43578L39.7199 10.1167H39.751L43.1751 13.3229V6.78598H44.2646V15.9066Z" fill="#0D1853"/>
<path d="M44.2646 15.9066L36.9806 9.05835V15.7509H35.8911V6.47469L37.9456 8.40465V8.43578L39.7199 10.1167H39.751L43.1751 13.3229V6.78598H44.2646V15.9066Z" fill="#0D1853"/>
<path d="M38.9108 15.7509H37.9458V10.5214L38.9108 11.4241V15.7509ZM39.7824 10.1167L37.9458 8.40465V5.10505H39.3777C40.0625 5.10505 40.5917 5.1673 40.9653 5.26069C41.3388 5.35407 41.6501 5.54084 41.9302 5.821C42.3972 6.28793 42.6462 6.87936 42.6462 7.59532C42.6462 8.37353 42.3972 8.96496 41.868 9.43189C41.3388 9.86769 40.654 10.1167 39.7824 10.1167ZM38.9108 6.28793V8.93384H39.689C40.8407 8.93384 41.7435 8.65368 41.7435 7.59532C41.7435 6.56808 40.8407 6.28793 39.6579 6.28793H38.9108Z" fill="#0D1853"/>
<path d="M38.9108 15.7509H37.9458V10.5214L38.9108 11.4241V15.7509ZM39.7824 10.1167L37.9458 8.40465V5.10505H39.3777C40.0625 5.10505 40.5917 5.1673 40.9653 5.26069C41.3388 5.35407 41.6501 5.54084 41.9302 5.821C42.3972 6.28793 42.6462 6.87936 42.6462 7.59532C42.6462 8.37353 42.3972 8.96496 41.868 9.43189C41.3388 9.86769 40.654 10.1167 39.7824 10.1167ZM38.9108 6.28793V8.93384H39.689C40.8407 8.93384 41.7435 8.65368 41.7435 7.59532C41.7435 6.56808 40.8407 6.28793 39.6579 6.28793H38.9108Z" fill="#0D1853"/>
<path d="M39.7508 10.1167H39.7196L37.9453 8.43579V8.40466L39.7508 10.1167Z" fill="#0D1853"/>
<path d="M39.7508 10.1167H39.7196L37.9453 8.43579V8.40466L39.7508 10.1167Z" fill="#0D1853"/>
<path d="M7.59546 21.105H10.1791L12.0779 27.8288H12.1091V21.105H14.3814V32.5292H11.8289L9.89896 25.463H9.86783V32.5292H7.59546V21.105Z" fill="#0D1853"/>
<path d="M17.8052 29.6342C17.8052 29.9455 17.8052 30.6925 18.49 30.6925C19.1749 30.6925 19.1749 29.9455 19.1749 29.6342V23.9999C19.1749 23.6264 19.1749 22.9416 18.49 22.9416C17.8052 22.9416 17.8052 23.5953 17.8052 23.9999V29.6342ZM15.4395 24.2178C15.4395 21.9766 16.7157 20.9182 18.49 20.9182C20.2644 20.9182 21.5406 21.9766 21.5406 24.2178V29.4163C21.5406 31.4396 20.3577 32.7159 18.49 32.7159C16.6223 32.7159 15.4395 31.4396 15.4395 29.4163V24.2178Z" fill="#0D1853"/>
<path d="M25.0271 21.105H22.6614V32.5292H25.0271V21.105Z" fill="#0D1853"/>
<path d="M26.1792 21.105H28.545V30.319H31.0975V32.5292H26.1792V21.105Z" fill="#0D1853"/>
<path d="M31.8752 21.105H34.241V30.319H36.8247V32.5292H31.8752V21.105Z" fill="#0D1853"/>
<path d="M36.0779 21.105H38.537L39.1907 24.965H39.2218L39.9067 21.105H42.3036L40.3736 27.8288V32.5292H38.0078V28.0155L36.0779 21.105Z" fill="#0D1853"/>
<path d="M48 25.9611H48.5915C49.3386 25.9611 49.4631 25.5564 49.4631 24.5292C49.4631 23.1284 49.0584 23.1284 48.2802 23.1284H48V25.9611ZM45.6343 21.105H48.1557C50.7393 21.105 51.8288 21.6031 51.8288 24.5914C51.8288 26.2724 51.4553 28.0155 49.3386 28.0155H48V32.5603H45.6343V21.105Z" fill="#0D1853"/>
<path d="M55.1598 25.6498H55.7513C56.5606 25.6498 56.5606 25.0584 56.5606 24.3113C56.5606 23.5019 56.5606 23.0661 55.6267 23.0661H55.1598V25.6498ZM52.7941 21.1051H55.9069C58.0236 21.1051 58.8952 21.821 58.8952 23.8755C58.8952 25.214 58.7396 26.0856 57.4633 26.5214V26.5525C58.3038 26.7393 58.833 27.4241 58.833 28.358V30.3813C58.833 31.1284 58.8018 32.1556 59.082 32.5292H56.7474C56.4672 32.1556 56.4672 31.1284 56.4672 30.3813V28.5447C56.4672 27.891 56.2493 27.6109 55.5645 27.6109H55.1287V32.5603H52.7629V21.1051H52.7941Z" fill="#0D1853"/>
<path d="M62.6304 28.4825H63.8133L63.253 22.8794H63.2219L62.6304 28.4825ZM61.6654 21.105H64.8094L66.7394 32.5292H64.2491L64.0312 30.5058H62.3814L62.1324 32.5292H59.7666L61.6654 21.105Z" fill="#0D1853"/>
<path d="M66.7393 21.105H72.1556V23.3152H70.6303V32.5292H68.2646V23.3152H66.7393V21.105Z" fill="#0D1853"/>
<path d="M14.3811 32.5291H11.8286L9.89859 25.463H9.86746V32.5291H7.56396V21.105H10.1476L12.0776 27.8287H12.1087V21.105H14.4122V32.5291H14.3811ZM9.86746 25.3073C9.96085 25.3073 10.0231 25.3696 10.0542 25.4318L11.9531 32.3735H14.2254V21.2606H12.2643V27.8287C12.2643 27.8598 12.2332 27.9221 12.2021 27.9532C12.171 27.9844 12.1398 28.0155 12.0776 28.0155H12.0464C11.9842 28.0155 11.9219 27.9532 11.8908 27.891L10.0231 21.2606H7.71961V32.3735H9.68069V25.463C9.68069 25.4318 9.71182 25.3696 9.74295 25.3384C9.80521 25.3073 9.83634 25.3073 9.86746 25.3073Z" fill="#0D1853"/>
<path d="M18.49 32.7159C16.6223 32.7159 15.4395 31.4396 15.4395 29.4163V24.2178C15.4395 21.9766 16.7157 20.9182 18.49 20.9182C20.2644 20.9182 21.5406 21.9766 21.5406 24.2178V29.4163C21.5406 31.4396 20.3889 32.7159 18.49 32.7159ZM18.49 21.0739C16.8091 21.105 15.6262 22.0389 15.5951 24.2178V29.4163C15.5951 31.3774 16.6846 32.5291 18.49 32.5603C20.2955 32.5603 21.3538 31.3774 21.385 29.4163V24.2178C21.3538 22.07 20.2021 21.105 18.49 21.0739Z" fill="#0D1853"/>
<path d="M18.5214 30.8482H18.4902C18.0856 30.8482 17.8365 30.5992 17.7743 30.319C17.6809 30.07 17.6809 29.7898 17.6809 29.6342V24C17.6809 23.8132 17.6809 23.533 17.7743 23.284C17.8677 23.035 18.1167 22.8171 18.4902 22.8171H18.5214H18.5525C18.926 22.8171 19.1751 23.035 19.2685 23.284C19.3618 23.533 19.3618 23.8132 19.3618 24V29.6653C19.3618 29.821 19.3618 30.1011 19.2685 30.3501C19.1439 30.5992 18.8949 30.8482 18.5214 30.8482ZM18.4902 22.9416C17.8054 22.9416 17.8054 23.5953 17.8054 24V29.6653C17.8054 29.9766 17.8054 30.7237 18.4902 30.7237C19.1751 30.7237 19.1751 29.9766 19.1751 29.6653V24C19.1751 23.5953 19.1751 22.9416 18.4902 22.9416Z" fill="#0D1853"/>
<path d="M25.0271 32.5292H22.6614V21.105H25.0271V32.5292ZM22.8481 32.3735H24.8715V21.2607H22.8481V32.3735Z" fill="#0D1853"/>
<path d="M31.097 32.5291H26.1787V21.105H28.5445V30.319H31.1281V32.5291H31.097ZM26.3344 21.2606V32.3735H30.9414V30.5058H28.5445C28.5133 30.5058 28.4511 30.4746 28.42 30.4435C28.3888 30.4124 28.3577 30.3813 28.3577 30.319V21.2606H26.3344Z" fill="#0D1853"/>
<path d="M36.8247 32.5291H31.8752V21.105H34.241V30.319H36.8247V32.5291ZM32.0309 21.2607V32.3735H36.6379V30.5058H34.241C34.2099 30.5058 34.1476 30.4747 34.1165 30.4435C34.0854 30.4124 34.0542 30.3813 34.0542 30.319V21.2607H32.0309Z" fill="#0D1853"/>
<path d="M40.3731 32.5291H38.0074V28.0155L36.0774 21.105H38.5054L39.1591 24.9649H39.1902L39.8751 21.105H42.2719L40.3731 27.8287V32.5291ZM36.2953 21.2607L38.163 27.9533V27.9844V32.3424H40.2175V27.8287V27.7976L42.0852 21.2918H40.0307L39.3459 25.0272C39.3459 25.0894 39.2525 25.1517 39.1902 25.1517H39.1591C39.0657 25.1517 39.0035 25.0894 39.0035 25.0272L38.3809 21.2918H36.2953V21.2607Z" fill="#0D1853"/>
<path d="M47.9995 32.5291H45.6338V21.105H48.1552C50.7388 21.105 51.8283 21.6031 51.8283 24.5914C51.8283 26.2723 51.4548 28.0155 49.3381 28.0155H47.9995V32.5291ZM45.8206 21.2607V32.3735H47.875V28.0155C47.875 27.9844 47.9062 27.9221 47.9373 27.891C47.9684 27.8599 47.9995 27.8287 48.0618 27.8287H49.4003C51.3925 27.8287 51.7038 26.2412 51.7349 24.5603C51.7349 23.0661 51.4548 22.2568 50.9256 21.821C50.3964 21.3852 49.5248 21.2295 48.2486 21.2295H48.2174H45.8206V21.2607Z" fill="#0D1853"/>
<path d="M48.6226 26.1167H48.5914H48C47.9689 26.1167 47.9066 26.0856 47.8755 26.0544C47.8444 26.0233 47.8132 25.9922 47.8132 25.9299V23.0972C47.8132 23.0661 47.8444 23.0038 47.8755 22.9727C47.9066 22.9416 47.9377 22.9105 48 22.9105H48.2802C48.6848 22.9105 48.9961 22.9105 49.2763 23.1284C49.5253 23.3774 49.6187 23.7509 49.6187 24.4669C49.6187 24.9961 49.5875 25.3696 49.4319 25.6498C49.3074 25.9922 49.0272 26.1167 48.6226 26.1167ZM48 23.1284V25.961H48.5914C49.3385 25.961 49.463 25.5564 49.463 24.5291C49.463 23.1284 49.0584 23.1284 48.2802 23.1284H48Z" fill="#0D1853"/>
<path d="M59.1125 32.5291H56.7779C56.4977 32.1556 56.4977 31.1284 56.4977 30.3813V28.5447C56.4977 27.891 56.2798 27.6108 55.595 27.6108H55.1592V32.5603H52.7935V21.105H55.9063C58.023 21.105 58.8946 21.821 58.8946 23.8754C58.8946 25.214 58.739 26.0856 57.4627 26.5214V26.5525C58.3032 26.7393 58.8324 27.4241 58.8324 28.3579V30.3813C58.8635 31.1284 58.8324 32.1556 59.1125 32.5291ZM55.595 27.4241C55.9374 27.4241 56.2176 27.4863 56.4043 27.7042C56.5911 27.9221 56.6534 28.2023 56.6534 28.5447V30.3813C56.6534 31.0661 56.6845 32.0311 56.8401 32.3735H58.8324C58.6767 31.9377 58.6767 31.3151 58.6767 30.7548C58.6767 30.6303 58.6767 30.5058 58.6767 30.3813V28.3579C58.6767 27.4552 58.2098 26.8638 57.4316 26.7081C57.3693 26.677 57.3071 26.6147 57.3071 26.5525V26.5214C57.3071 26.4591 57.3382 26.3968 57.4316 26.3657C58.6145 25.961 58.739 25.214 58.739 23.8754C58.7078 21.8832 57.9919 21.3229 55.9063 21.2918H52.9491V32.4046H55.0036V27.6108C55.0036 27.5797 55.0347 27.5175 55.0658 27.4863C55.097 27.4552 55.1281 27.4241 55.1903 27.4241H55.595Z" fill="#0D1853"/>
<path d="M55.782 25.8054H55.1594C55.1283 25.8054 55.066 25.7743 55.0349 25.7431C55.0038 25.712 54.9727 25.6809 54.9727 25.6186V23.0038C54.9727 22.9727 55.0038 22.9104 55.0349 22.8793C55.066 22.8482 55.0972 22.8171 55.1594 22.8171H55.6263H55.6575C56.1244 22.8171 56.4357 22.9416 56.5913 23.2217C56.747 23.5019 56.7158 23.8443 56.7158 24.2178C56.7158 24.5914 56.7158 24.9338 56.5913 25.2451C56.4668 25.6186 56.1867 25.8054 55.782 25.8054ZM55.1594 23.035V25.6497H55.7509C56.5602 25.6497 56.5602 25.0583 56.5602 24.3112C56.5602 23.5019 56.5602 23.0661 55.6263 23.0661H55.1594V23.035Z" fill="#0D1853"/>
<path d="M66.7389 32.5291H64.2486L64.0307 30.5058H62.3809L62.1319 32.5291H59.7661L61.6649 21.105H64.8089L66.7389 32.5291ZM62.3809 30.3501H64.0307C64.1241 30.3501 64.1863 30.4124 64.1863 30.5058L64.3731 32.4046H66.521L64.6533 21.2918H61.7895L59.9529 32.4046H61.9762L62.1941 30.5058C62.2253 30.4124 62.2875 30.3501 62.3809 30.3501Z" fill="#0D1853"/>
<path d="M63.8131 28.6381H62.6302C62.5991 28.6381 62.5368 28.6069 62.5057 28.5758C62.4746 28.5447 62.4434 28.4824 62.4746 28.4513L63.066 22.8482C63.066 22.7548 63.1594 22.6925 63.2216 22.6925H63.2528C63.3462 22.6925 63.4084 22.7548 63.4084 22.8482L63.9687 28.4513C63.9687 28.4824 63.9687 28.5447 63.9376 28.5758C63.8753 28.6069 63.8442 28.6381 63.8131 28.6381ZM63.2216 22.8793L62.6302 28.4824H63.8131L63.2216 22.8793Z" fill="#0D1853"/>
<path d="M70.6298 32.5291H68.2641V23.3151H66.7388V21.105H72.1551V23.3151H70.6298V32.5291ZM66.8944 21.2607V23.1284H68.2641C68.2952 23.1284 68.3574 23.1595 68.3886 23.1906C68.4197 23.2217 68.4508 23.2529 68.4508 23.3151V32.3735H70.4742V23.3151C70.4742 23.284 70.5053 23.2217 70.5364 23.1906C70.5676 23.1595 70.5987 23.1284 70.6609 23.1284H72.0306V21.2607H66.8944Z" fill="#0D1853"/>
</svg>
