<svg width="80" height="39" viewBox="0 0 80 39" fill="none" xmlns="http://www.w3.org/2000/svg">
<path fill-rule="evenodd" clip-rule="evenodd" d="M17.8592 14.5955C17.8592 14.5955 14.9728 1.11714 14.9087 0.779329C14.8445 0.441514 14.96 0.317505 14.96 0.317505H10.2477C10.4102 0.441513 10.299 0.766499 10.299 0.766499C10.299 0.766499 7.25012 14.0952 7.1475 14.5186C7.04914 14.9419 6.82251 15.0317 6.82251 15.0317H11.2611C11.15 14.9334 11.1756 14.6212 11.1756 14.6212L11.4621 12.6713H13.6643C13.6643 12.6713 13.891 14.2577 13.9252 14.6084C13.9637 14.959 13.8397 15.0317 13.8397 15.0317H18.1414C17.979 14.9676 17.8678 14.5955 17.8678 14.5955H17.8592ZM11.8684 9.98158L12.5825 5.23079L13.2709 9.98158H11.8726H11.8684Z" fill="#0D1853"/>
<path fill-rule="evenodd" clip-rule="evenodd" d="M25.2101 7.43302C25.2101 7.43302 27.81 7.14652 27.7245 3.80685C27.6005 0.155029 23.1106 0.343179 23.1106 0.343179H18.1973C18.3084 0.467188 18.3469 0.8948 18.3469 0.8948V14.51C18.3469 14.7837 18.2101 15.0617 18.2101 15.0617H23.675C25.0733 15.0617 28.3403 14.463 28.2505 11.025C28.1649 7.58696 25.2101 7.43729 25.2101 7.43729V7.43302ZM23.8974 4.67063C23.9743 6.26991 22.5076 6.15873 22.4093 6.15873C22.4093 4.69629 22.3836 3.31937 22.3836 3.31937C22.3836 3.31937 23.8204 3.07136 23.8974 4.67063ZM22.3708 11.8588V8.83132C22.3708 8.83132 24.0342 8.55764 24.0342 10.3579C24.0342 12.1582 22.3708 11.8588 22.3708 11.8588Z" fill="#0D1853"/>
<path fill-rule="evenodd" clip-rule="evenodd" d="M33.6637 5.32913C32.8897 4.70909 32.4878 3.58019 33.9374 3.45191C35.4768 3.46474 36.4774 4.45252 36.4774 4.45252V0.565513C36.3662 0.663864 36.1781 0.676692 35.9386 0.578341C35.6991 0.47999 35.1646 0.279012 34.5873 0.167832C32.7358 -0.182812 31.2733 0.231974 30.4224 0.856291C29.5714 1.48061 28.9728 2.14341 28.8701 4.20878C28.7718 6.26988 29.6398 7.15077 30.8329 8.34809C32.2312 9.4214 32.6331 9.81053 32.9966 10.2595C33.42 10.6829 33.4456 11.6706 32.0473 11.8118C30.5977 11.8631 28.883 10.3621 28.883 10.3621V14.5528C29.0326 14.4544 29.2935 14.5528 29.8708 14.8649C31.2605 15.6389 33.8476 15.6389 35.4853 14.5271C37.1231 13.4153 37.6362 10.6743 37.1487 9.04937C36.6613 7.42444 34.9979 6.40672 33.6594 5.33768L33.6637 5.32913Z" fill="#0D1853"/>
<path fill-rule="evenodd" clip-rule="evenodd" d="M43.0672 0.0181942C43.0672 0.0181942 37.6108 -0.747233 37.6108 7.65538C37.6108 16.058 43.0672 15.3781 43.0672 15.3781C43.0672 15.3781 48.5364 15.8527 48.5364 7.65538C48.5364 -0.541978 43.0672 0.0181942 43.0672 0.0181942ZM43.0672 11.9315C43.0672 11.9315 41.7587 12.4361 41.7587 7.65966C41.7587 2.88321 43.0672 3.25951 43.0672 3.25951C43.0672 3.25951 44.3116 2.88748 44.3116 7.65966C44.3116 12.4318 43.0672 11.9315 43.0672 11.9315Z" fill="#0D1853"/>
<path fill-rule="evenodd" clip-rule="evenodd" d="M53.531 11.5937V0.839233C53.531 0.475761 53.6422 0.326096 53.6422 0.326096H49.2805C49.4687 0.58694 49.4174 0.877718 49.4174 0.877718V14.4203C49.4174 14.9462 49.2805 15.0189 49.2805 15.0189H56.4944V11.4441C56.3704 11.5681 55.9684 11.5937 55.9684 11.5937H53.531Z" fill="#0D1853"/>
<path fill-rule="evenodd" clip-rule="evenodd" d="M63.0581 0.9162V10.9694C63.0581 10.9694 63.0752 12.0342 62.0147 12.0342C60.9542 12.0342 60.843 10.9694 60.843 10.9694V0.856335C60.843 0.445825 60.9799 0.330368 60.9799 0.330368H56.7336C56.8448 0.39451 56.8961 0.856335 56.8961 0.856335V10.9694C56.8961 10.9694 56.9988 15.3824 61.9377 15.3824C66.8766 15.3824 66.9493 10.9437 66.9493 10.9437V0.830677C66.9493 0.544176 67.0734 0.356025 67.0734 0.356025H62.8956C63.0324 0.50569 63.0581 0.920476 63.0581 0.920476V0.9162Z" fill="#0D1853"/>
<path fill-rule="evenodd" clip-rule="evenodd" d="M67.5481 3.90519C67.7619 3.76836 68.0869 3.78119 68.0869 3.78119H69.9513V14.4972C69.9513 14.9077 69.8273 15.036 69.8273 15.036H74.2018C74.0649 14.8991 74.0649 14.4715 74.0649 14.4715V3.78119H75.9635C76.2757 3.78119 76.4382 3.90519 76.4382 3.90519V0.34317H67.5481V3.90519Z" fill="#0D1853"/>
<path fill-rule="evenodd" clip-rule="evenodd" d="M78.5633 0.069519C77.7807 0.069519 77.1179 0.672455 77.1179 1.4892C77.1179 2.30594 77.7807 2.91743 78.5633 2.91743C79.3458 2.91743 80 2.31449 80 1.4892C80 0.663902 79.3372 0.069519 78.5633 0.069519ZM78.5633 2.67796C77.9133 2.67796 77.4044 2.17338 77.4044 1.4892C77.4044 0.805015 77.9133 0.304706 78.5633 0.304706C79.2132 0.304706 79.7178 0.813567 79.7178 1.4892C79.7178 2.16483 79.209 2.67796 78.5633 2.67796Z" fill="#0D1853"/>
<path fill-rule="evenodd" clip-rule="evenodd" d="M79.2176 1.13852C79.2176 0.813537 79.0252 0.672424 78.636 0.672424H78.0117V2.31446H78.2597V1.60462H78.5462L78.9781 2.31446H79.2561L78.79 1.59179C79.0294 1.56186 79.2176 1.43358 79.2176 1.13852ZM78.2597 1.39082V0.881954H78.5975C78.7729 0.881954 78.9567 0.92044 78.9567 1.12142C78.9567 1.37371 78.7686 1.39082 78.5591 1.39082H78.2597Z" fill="#0D1853"/>
<path fill-rule="evenodd" clip-rule="evenodd" d="M65.5125 37.9561H69.8143C69.6518 37.892 69.5406 37.5199 69.5406 37.5199C69.5406 37.5199 66.6542 24.0416 66.5901 23.7037C66.5259 23.3659 66.6414 23.2419 66.6414 23.2419H61.9291C62.0916 23.3659 61.9804 23.6909 61.9804 23.6909C61.9804 23.6909 58.9315 37.0196 58.8289 37.443C58.7305 37.8663 58.5039 37.9561 58.5039 37.9561H62.9425C62.8314 37.8578 62.857 37.5456 62.857 37.5456L63.1435 35.5957H65.3457C65.3457 35.5957 65.5724 37.1821 65.6066 37.5328C65.6451 37.8834 65.5211 37.9561 65.5211 37.9561H65.5125ZM63.5498 32.906L64.2639 28.1552L64.9523 32.906H63.5498Z" fill="#0D1853"/>
<path fill-rule="evenodd" clip-rule="evenodd" d="M30.4224 22.9383C30.4224 22.9383 24.9661 22.1729 24.9661 30.5755C24.9661 38.9781 30.4224 38.2982 30.4224 38.2982C30.4224 38.2982 35.8916 38.7729 35.8916 30.5755C35.8916 22.3781 30.4224 22.9383 30.4224 22.9383ZM30.4224 34.8516C30.4224 34.8516 29.1139 35.3562 29.1139 30.5798C29.1139 25.8033 30.4224 26.1796 30.4224 26.1796C30.4224 26.1796 31.6668 25.8076 31.6668 30.5798C31.6668 35.3519 30.4224 34.8516 30.4224 34.8516Z" fill="#0D1853"/>
<path fill-rule="evenodd" clip-rule="evenodd" d="M41.0146 23.2462H36.6401C36.777 23.4343 36.7898 23.6823 36.7898 23.6823V37.4729C36.7898 37.7337 36.6786 37.9988 36.6786 37.9988H41.1686C45.1967 37.9988 46.3213 34.4368 46.3213 34.4368C46.3213 34.4368 47.6213 31.1998 46.4325 27.1246C45.2437 23.0495 41.0189 23.2504 41.0189 23.2504L41.0146 23.2462ZM40.6896 34.9499V26.1967C40.6896 26.1967 42.7037 25.9102 42.7037 30.5498C42.7037 35.1894 40.6896 34.9499 40.6896 34.9499Z" fill="#0D1853"/>
<path fill-rule="evenodd" clip-rule="evenodd" d="M58.1703 37.614L55.3181 30.0752C55.3181 30.0752 58.0933 24.0373 58.2302 23.7593C58.367 23.4857 58.5808 23.259 58.5808 23.259H53.9412C54.0182 23.336 53.9925 23.6482 53.9925 23.6482L51.8929 29.3012V23.7123C51.8929 23.3873 52.0298 23.2761 52.0298 23.2761H47.6553C47.7665 23.3403 47.8178 23.6995 47.8178 23.6995V37.4515C47.8178 37.8407 47.6681 38.0032 47.6681 38.0032H52.0682C51.9314 37.8663 51.9186 37.4173 51.9186 37.4173V31.2896C51.9186 31.2896 53.783 37.165 53.8813 37.4644C53.9797 37.7637 53.8044 37.9903 53.8044 37.9903H58.4055C58.2858 37.9134 58.166 37.614 58.166 37.614H58.1703Z" fill="#0D1853"/>
<path fill-rule="evenodd" clip-rule="evenodd" d="M22.2721 37.4943C22.3362 37.1565 25.2226 23.6781 25.2226 23.6781C25.2226 23.6781 25.3338 23.3018 25.4963 23.2419H21.1945C21.1945 23.2419 21.3185 23.3189 21.28 23.6652C21.2415 24.0159 21.0192 25.6023 21.0192 25.6023L19.9459 33.0428L18.8213 25.6023L18.5348 23.6524C18.5348 23.6524 18.5091 23.3403 18.6203 23.2419H14.1816C14.1816 23.2419 14.4083 23.3274 14.5066 23.755C14.605 24.1784 17.6581 37.5071 17.6581 37.5071C17.6581 37.5071 17.7693 37.8321 17.6068 37.9561H22.3191C22.3191 37.9561 22.208 37.8321 22.2678 37.4943H22.2721Z" fill="#0D1853"/>
<path fill-rule="evenodd" clip-rule="evenodd" d="M36.7896 19.3079C34.891 20.7575 34.1127 21.3219 34.1127 21.3219L36.3877 17.157H35.464C34.489 18.97 34.0657 19.6072 33.7749 19.9963C33.4884 20.3854 33.3003 20.7703 32.723 21.0825C32.1457 21.3946 32.1842 21.0055 32.1842 20.9071C32.1842 20.8088 32.398 20.4197 32.7957 19.8552C33.1977 19.2908 33.42 19.0427 33.698 18.303C33.9716 17.5675 33.6851 17.127 33.4585 17.0757C33.2319 17.0244 32.77 17.0757 32.3339 17.4991C31.8977 17.9224 30.0077 20.3512 29.7211 20.6249C29.4346 20.8986 29.332 20.9114 28.9942 21.0483C28.6564 21.1851 28.6564 20.9841 28.6692 20.8216C28.682 20.6591 29.0712 19.9193 29.5073 19.3463C29.9435 18.7733 30.4823 18.3072 30.7218 17.6958C30.9612 17.0843 30.6234 16.832 30.1231 16.9346C29.6228 17.033 29.486 16.9089 29.486 16.9089C29.486 16.9089 29.8366 16.383 30.0119 16.1478C30.1872 15.9083 30.3113 15.4978 30.1103 15.4123C29.9093 15.3268 29.6356 15.5235 29.362 15.887C29.0883 16.2504 29.0498 16.6738 29.037 16.9987C28.4255 17.9865 27.2624 19.4233 26.6381 20.1759C26.0137 20.9242 25.5263 21.1124 25.274 21.0397C25.0259 20.9627 25.1115 20.2657 25.3253 19.7782C25.5391 19.2908 27.0144 16.9645 27.0144 16.9645H27.891L28.015 16.6652H27.164L28.3784 14.5143H27.5275L26.1891 16.7293H25.2269L25.1286 16.9774C25.1286 16.9774 25.5519 16.9902 26.0308 16.9774C24.4187 19.9407 23.6533 20.5137 23.3198 20.8173C22.982 21.1167 22.7553 21.2065 22.5586 21.1167C22.3576 21.0311 22.4603 20.7147 22.6228 20.4667C22.7853 20.2144 23.7346 18.8546 23.897 18.0036C24.0595 17.1527 23.773 17.0287 23.2214 17.0415C22.6698 17.0543 21.8702 17.9181 21.635 18.1063C21.759 16.6053 20.7968 16.8662 20.1212 17.5675C19.4456 18.2688 18.1585 20.069 17.8335 20.441C17.5085 20.8173 17.0937 21.0525 16.9825 21.0183C16.8713 20.9798 16.897 20.8558 17.0467 20.3812C17.1963 19.9065 18.7101 17.1912 18.7101 17.1912H17.8848C16.572 19.4447 15.6612 20.4154 15.3362 20.7275C15.0112 21.0397 14.7247 21.1637 14.5494 21.1038C14.3741 21.0397 14.5622 20.7532 14.6991 20.5394C14.8359 20.3256 15.6612 19.0641 15.9263 18.6622C16.1872 18.2602 16.5036 17.4135 16.076 17.2126C15.6526 17.0116 15.1395 17.3366 14.6264 17.6615C14.1132 17.9865 13.5616 18.7135 13.3008 18.7349C13.9379 17.5076 13.5402 16.9859 13.2623 16.9089C12.9886 16.832 12.514 16.9474 11.7742 17.4819C11.0344 18.0207 9.11016 20.0091 8.60985 20.4068C8.10954 20.8088 5.63365 22.3054 4.38502 21.1338C3.13639 19.9578 4.48337 17.2596 4.84684 16.584C8.86214 15.9468 10.9489 13.5222 11.1627 12.6585C11.3765 11.7947 10.6881 11.4954 10.2647 11.5338C6.48888 12.0726 4.23963 15.3482 3.64952 16.2461C2.67457 16.2333 0.0233585 15.5449 0.68616 12.9578C1.34896 10.3707 4.31233 10.3579 4.31233 10.3579C4.31233 10.3579 4.2995 10.3194 4.31233 10.2467C1.7723 9.79773 -0.301628 11.8588 0.036187 13.8985C0.374002 15.9383 2.25123 16.2846 3.4742 16.6011C2.24695 20.0391 3.22619 21.741 5.2488 21.865C7.27569 21.989 8.98615 20.6035 9.70026 20.1289C9.62329 20.3427 9.5506 21.6041 10.44 21.6041C11.3295 21.6041 12.6551 19.6157 12.9031 19.2523C13.1511 19.2394 13.2024 19.1411 13.4547 18.9914C13.7027 18.8418 14.7418 17.9267 14.9428 17.7898C15.1438 17.653 15.4559 17.4648 15.6313 17.529C15.8066 17.5931 15.7553 17.7556 15.2421 18.3928C14.729 19.0299 14.2415 19.7184 14.0277 20.193C13.8139 20.6677 13.7412 21.3433 14.404 21.5186C15.0668 21.6939 16.2299 20.3042 16.2299 20.3042C16.2299 20.3042 16.1059 21.4032 16.6319 21.4801C17.1579 21.5571 17.6068 21.2663 18.5561 20.0177C19.5055 18.7691 20.2324 17.8925 20.5446 17.5803C20.8567 17.2681 21.2715 17.4178 20.9465 18.0165C20.6215 18.6151 19.0693 21.4032 19.0693 21.4032H20.0186C21.2672 19.2523 22.2336 17.901 22.8836 17.576C23.5336 17.251 23.2941 17.653 23.0718 18.0635C22.2593 19.3378 22.084 19.7868 21.9728 20.1374C21.8616 20.4881 21.7248 21.3732 22.4988 21.4759C23.2727 21.5742 23.8628 20.7275 24.4358 20.1631C24.7352 21.912 25.7101 21.3989 26.3002 20.9756C26.8861 20.5522 28.6778 18.025 29.3277 17.1612C30.2386 17.1356 30.0162 17.4734 29.8152 17.7984C29.6142 18.1234 28.789 19.0727 28.5666 19.372C28.34 19.6713 27.6772 20.7489 28.4426 21.3219C29.2037 21.8992 30.2942 20.4325 31.0168 19.5602C31.7438 18.6835 32.3039 17.6958 32.8427 17.5204C33.3815 17.3451 33.3174 17.606 33.1934 17.9096C33.0694 18.2089 32.1414 19.4105 31.7566 19.9835C31.3675 20.5608 31.3461 21.3219 31.8421 21.5229C32.3424 21.7239 33.2532 21.2236 33.2532 21.2236C33.2532 21.2236 33.2276 21.3091 32.7786 21.9976C28.6265 24.3109 28.6136 25.8375 28.6136 25.8375C28.6136 25.8375 28.387 27.1375 29.8409 26.5987C32.1799 25.4869 33.3901 22.7245 33.8647 21.8351C35.2032 20.8344 36.9264 19.4233 36.9264 19.4233C36.9264 19.4233 36.9264 19.3848 36.8153 19.2993L36.7896 19.3079ZM9.50784 11.9957C9.83282 11.8845 10.5341 11.6963 10.7565 12.0341C10.9831 12.372 10.7308 12.9108 10.5683 13.1716C10.4058 13.4324 8.14375 15.9083 5.03072 16.1606C5.03072 16.1606 6.61717 13.2742 9.50784 11.9957ZM12.8218 18.799C12.5824 18.6878 12.36 18.5253 12.2232 18.6622C12.0863 18.799 12.1719 19.1368 12.4712 19.2865C12.1334 19.9365 11.2568 21.3134 10.5085 21.2877C10.5085 21.2877 10.0979 21.2236 10.2946 20.7874C10.4956 20.3512 11.4706 18.5253 12.6722 17.3109C12.8218 17.1869 13.1853 16.9731 13.2837 17.4991C13.382 18.025 12.933 18.6365 12.8218 18.799ZM29.2508 26.4618C28.2758 26.3849 29.3149 24.9481 29.3149 24.9481C29.3149 24.9481 30.5764 23.4343 32.5177 22.5235C32.5177 22.5235 30.5037 26.5559 29.2551 26.4618H29.2508Z" fill="#0D1853"/>
<path fill-rule="evenodd" clip-rule="evenodd" d="M48.2283 13.9284C46.5905 14.7366 45.6669 16.3145 44.6278 17.9053C44.2643 18.1447 43.5887 18.5039 43.2637 18.6921C42.9387 18.8802 42.8746 18.769 42.8147 18.7305C43.4775 17.5161 43.516 16.9688 43.1012 16.7678C42.6907 16.5668 42.0621 16.9175 41.3523 17.3451C40.6381 17.7684 38.5514 20.2186 38.2777 20.4838C38.004 20.7446 37.2771 21.3604 37.2771 21.3604L37.3754 21.51C38.0639 21.0097 39.1372 20.0476 39.1372 20.0476C39.1372 20.0476 38.9876 21.3989 39.7872 21.5998C40.8862 21.8607 42.1733 19.8252 42.6265 19.1368C42.8532 19.2351 43.4005 18.9486 44.2515 18.474C43.7768 19.3378 42.9387 21.138 42.2887 22.5235C41.6388 23.9132 41.3523 24.7 41.3266 25.6493C41.3009 26.5986 42.4769 27.2101 43.6913 25.2859C44.9057 23.3616 45.1024 21.1594 45.1794 20.6976C46.6162 20.2871 46.9925 19.2993 46.9925 19.2993C46.9925 19.2993 46.9155 19.2993 46.7915 19.3121C46.2655 19.9749 45.4916 20.2614 45.2393 20.2999C45.2264 20.0134 45.2521 19.8338 44.9399 19.4746C44.8715 19.3933 44.786 19.2993 44.786 19.2993C44.786 19.2993 44.9399 18.8631 45.1623 18.4355C45.5514 17.7 45.5514 17.9865 47.0609 16.849C48.5747 15.7116 48.8996 14.309 48.8996 14.309C48.8996 14.309 49.2118 13.4452 48.224 13.9327L48.2283 13.9284ZM42.541 18.5552C42.293 18.4056 42.1049 18.2944 41.9295 18.4911C41.7542 18.6921 42.0407 18.9529 42.2802 19.0769C41.9552 19.6157 40.8177 21.5528 39.9796 21.1893C39.9796 21.1893 39.7059 21.1252 39.8556 20.7147C40.0053 20.3042 40.9546 17.901 42.4427 17.0757C42.6565 16.9645 43.6186 16.6395 42.541 18.5509V18.5552ZM43.1269 25.5424C42.1391 26.6671 42.0407 26.0427 42.0535 25.8418C42.0664 25.6408 42.1177 25.0678 42.6522 23.7807C43.191 22.4936 43.7897 21.2193 44.0633 20.6548L44.7988 20.7532C44.7988 20.7532 44.5508 23.5797 43.1226 25.5424H43.1269ZM44.8886 20.3555C44.5893 20.3683 44.337 20.3042 44.2643 20.27L44.5636 19.6841C44.5636 19.6841 44.9399 19.9236 44.8886 20.3598V20.3555ZM48.5533 14.4288C48.3908 14.8393 47.4671 16.5925 45.8294 17.2553C45.8294 17.2553 46.7188 15.2797 48.2069 14.3047C48.3951 14.1807 48.72 14.0182 48.5576 14.4288H48.5533Z" fill="#0D1853"/>
<path fill-rule="evenodd" clip-rule="evenodd" d="M56.1305 15.5063C56.1433 15.207 57.0327 14.3304 57.2551 14.0696C57.4817 13.8087 57.8922 13.0176 57.3534 12.8936C56.4041 12.7953 55.8782 15.0958 55.8782 15.0958L53.8898 17.1954C53.8898 17.1954 53.1029 16.0323 51.4395 16.2333C49.1475 16.507 48.2752 18.0079 48.087 19.5473C47.8989 21.0867 49.263 22.2113 49.263 22.2113L47.8005 23.9132L48.1255 23.9389L49.5024 22.3653C49.5024 22.3653 51.1274 23.4386 53.3296 22.4038C55.8055 21.2278 56.0407 18.8546 56.1176 17.9138C56.1946 16.9773 56.1176 15.8142 56.1305 15.5149V15.5063ZM57.1824 13.2699C57.6186 13.3811 56.5709 14.5057 56.2929 14.7195C56.2929 14.7195 56.7419 13.1587 57.1824 13.2699ZM49.4811 21.9719C49.4811 21.9719 47.6038 20.6719 48.8439 18.2602C50.0797 15.8484 53.4066 16.3958 53.6845 17.4349C52.4487 18.6707 49.682 21.7752 49.4853 21.9719H49.4811ZM54.7322 19.6713C54.0437 21.0354 52.6796 23.4856 49.7205 22.1344C49.7205 22.1344 52.6582 18.6964 53.8342 17.6572C53.9111 17.8967 54.0736 18.2687 53.646 19.171C53.5947 19.3335 53.7102 19.5601 53.8855 19.295C54.0608 19.0342 54.373 18.4569 54.0736 17.4434C55.2624 16.1435 55.4848 15.9169 55.7499 15.6304C55.6259 16.8063 55.4548 18.2474 54.7364 19.667L54.7322 19.6713Z" fill="#0D1853"/>
<path fill-rule="evenodd" clip-rule="evenodd" d="M78.0116 21.1808C77.661 21.3176 77.6096 21.1551 77.6353 21.0183C77.661 20.8815 78.7001 19.3549 78.8711 19.0812C79.0464 18.8075 79.5852 17.8198 79.3586 17.281C78.9823 16.43 77.3445 17.9181 76.9084 18.3072C77.3189 16.4215 76.0574 17.0928 75.4844 17.7556C74.9071 18.4184 73.047 20.4068 73.047 20.4068C73.047 20.4068 72.1362 21.4331 71.7342 21.2706C71.0458 21.0098 71.7599 19.744 71.9609 19.3592C73.5131 18.97 74.5094 18.1234 74.4496 17.4477C74.3854 16.7721 73.4874 17.0586 73.1496 17.2339C71.1484 18.397 70.8491 19.7098 70.6737 20.4239C70.4984 20.6848 69.9981 21.2107 69.5748 21.1979C69.1514 21.1851 69.2626 20.5993 69.4123 20.2956C69.5619 19.9963 73.0384 13.5308 73.0384 13.5308H72.2003C72.2003 13.5308 70.6139 16.3958 70.0879 17.2681C70.0751 17.157 69.9126 16.9175 69.6389 16.9175C68.4502 16.9816 67.689 17.9053 66.9621 18.7947C66.2351 19.6842 65.8973 20.0434 65.6621 20.2956C65.4226 20.5479 64.4006 21.5828 63.9132 21.2065C63.4257 20.8302 64.2766 19.3934 64.2766 19.3934C64.2766 19.3934 65.1148 19.2309 66.0042 18.6322C67.0433 17.9181 66.9065 16.956 66.2308 17.0073C64.6786 17.281 64.0799 18.3329 63.5283 19.0598C63.0665 18.8973 62.827 18.7092 62.6517 18.5724C62.7287 18.4227 63.6652 16.5113 62.9767 16.6481C62.2882 16.7849 62.1771 18.0464 62.1514 18.7477C61.3175 20.595 60.5265 21.0996 60.1502 21.2963C59.7739 21.4972 59.6114 21.2449 59.637 21.0696C59.8508 20.0562 61.5271 17.1954 61.5271 17.1954H60.6505C59.0897 20.3598 57.8111 21.2449 57.6358 21.3347C57.5203 21.3946 57.0585 21.4716 57.2852 20.9456C57.5118 20.4197 58.5723 18.7819 58.7861 18.2345C58.8246 18.149 59.2736 16.8961 58.1618 17.1484C57.05 17.3964 56.2974 18.8503 56.2974 18.8503L56.4855 18.876C57.2125 17.901 57.4348 17.8027 57.8239 17.5632C58.2131 17.3237 58.3114 17.4777 58.3114 17.7257C58.3114 17.9737 57.5118 19.0128 57.0756 19.6884C56.6395 20.3641 56.5368 21.5272 57.2509 21.5999C57.9651 21.6768 58.4867 20.9499 59.0255 20.5009C59.0768 21.1124 59.4617 21.9633 60.3896 21.4502C61.3133 20.9371 62.2027 19.2865 62.502 18.799C62.7287 18.9358 62.8399 19.0598 63.3658 19.325C62.7158 20.4624 62.9767 21.4887 63.879 21.5614C64.7812 21.6384 65.7904 20.5608 66.2565 20.1503C66.2437 20.2486 66.2821 21.5999 67.0305 21.5999C67.7788 21.5999 68.1808 20.8858 68.6682 20.3854C68.8179 22.3354 70.3701 21.3219 70.7293 20.8729C71.6402 22.7844 73.6157 20.2101 74.0433 19.774C74.4667 19.3378 75.5314 18.1105 75.7709 17.8882C76.0104 17.6615 76.2199 17.4392 76.4722 17.5119C76.7202 17.5888 76.3867 18.149 75.9719 18.7862C75.5614 19.4233 74.2828 21.4759 74.2828 21.4759H75.2578C75.4844 21.1252 76.7459 19.2523 77.4471 18.3757C78.5461 17.2639 78.7728 17.4007 78.8711 17.4648C78.9695 17.529 78.9224 17.8283 78.4691 18.3671C78.0202 18.9059 77.3317 19.8937 77.1692 20.2058C77.0067 20.518 76.8442 21.6041 77.5797 21.617C78.3195 21.6298 79.0806 20.3683 79.0806 20.3683C79.0806 20.3683 79.0037 20.3299 78.9053 20.3042C78.8412 20.4154 78.3665 21.0525 78.0159 21.1936L78.0116 21.1808ZM73.7483 17.5033C73.9621 17.405 74.2614 17.2767 74.1246 17.653C73.9877 18.0293 73.3848 18.7904 72.1362 19.0042C72.1362 19.0042 72.598 18.102 73.7483 17.5033ZM65.3072 18.0036C65.9443 17.5418 66.295 17.3537 66.4575 17.4648C66.62 17.576 66.0085 18.7391 64.4306 19.0171C64.4306 19.0171 64.67 18.4655 65.3072 18.0036ZM68.9847 19.3292C68.4459 20.116 67.5222 21.369 67.0348 21.2407C67.0348 21.2407 66.7226 21.1038 66.8851 20.6292C67.0476 20.1545 67.9584 18.3799 69.1472 17.4392C69.3738 17.2895 69.7715 17.0757 69.7116 17.6402C69.6475 18.2046 69.5235 18.5424 68.9847 19.3292Z" fill="#0D1853"/>
</svg>
