<svg width="80" height="27" viewBox="0 0 80 27" fill="none" xmlns="http://www.w3.org/2000/svg">
<path d="M15.8208 13.1407C16.1399 13.202 16.4577 13.2582 16.773 13.3232C17.6791 13.5096 18.228 14.0597 18.4245 14.962C18.4896 15.2607 18.5419 15.5632 18.6019 15.8631C18.7908 16.8114 19.1482 17.128 20.1067 17.1982C20.1552 17.202 20.205 17.2097 20.2714 17.2173V17.8376C19.3218 17.8376 18.3837 17.8746 17.4494 17.8236C16.8725 17.7929 16.5215 17.359 16.3441 16.8408C16.1795 16.3609 16.0952 15.8542 15.965 15.3615C15.8693 14.9965 15.7774 14.6289 15.646 14.2767C15.4583 13.7751 15.101 13.4726 14.5394 13.4624C14.4794 13.4624 14.4194 13.4458 14.3365 13.4343V12.8025C14.4577 12.7897 14.5853 12.7783 14.713 12.7629C15.4903 12.6723 15.9753 12.2894 16.1042 11.5211C16.191 11.008 16.182 10.4643 16.1233 9.94482C16.0608 9.40366 15.6804 9.07309 15.138 9.00034C14.7283 8.94546 14.3109 8.94929 13.8757 8.92632V17.1356C14.1246 17.1356 14.3747 17.1356 14.6249 17.1356C14.8887 17.1356 15.0193 17.2718 15.0167 17.544C15.0167 17.6347 15.0078 17.7253 15.0027 17.8414H10.0276V17.1369H11.1903C11.1967 17.0067 11.2056 16.9084 11.2056 16.8102C11.2056 14.3086 11.2005 11.807 11.2133 9.30538C11.2146 9.00034 11.115 8.91483 10.8304 8.94163C10.5994 8.96333 10.3645 8.94546 10.1067 8.94546V8.24476C10.2994 8.24476 10.4986 8.24731 10.6977 8.24476C12.0646 8.22051 13.4315 8.19754 14.7972 8.16946C15.5668 8.15286 16.3288 8.19243 17.0614 8.45791C18.0467 8.81528 18.5777 9.50066 18.6096 10.4464C18.6466 11.5402 18.1399 12.3877 17.1597 12.777C16.7385 12.9442 16.2803 13.0208 15.8208 13.1433V13.1407Z" fill="#0D1853"/>
<path d="M75.1803 8.07752C78.0393 8.07624 80.0865 10.2307 79.9972 13.1535C79.9525 14.6429 79.5275 15.9894 78.3265 16.9505C76.8204 18.1566 75.1063 18.3621 73.3309 17.6882C71.5862 17.0258 70.6787 15.6589 70.4362 13.8325C70.2844 12.6914 70.4184 11.5874 70.9506 10.5574C71.7802 8.95307 73.285 8.07879 75.1791 8.07752H75.1803ZM77.2569 12.9135C77.2569 12.7603 77.2595 12.6072 77.2569 12.454C77.239 11.5517 77.1637 10.6595 76.7681 9.82736C76.4171 9.08836 75.8338 8.75397 75.0157 8.81013C74.2512 8.86373 73.7802 9.28747 73.5186 9.97668C73.4394 10.186 73.3718 10.4017 73.3284 10.6212C73.054 12.006 73.0399 13.3998 73.2212 14.7948C73.3131 15.4981 73.5058 16.1771 73.9844 16.7335C74.6902 17.5529 76.0087 17.4776 76.5919 16.5727C76.7438 16.3366 76.8549 16.0635 76.9366 15.7942C77.2225 14.8561 77.2607 13.8873 77.2556 12.9148L77.2569 12.9135Z" fill="#0D1853"/>
<path d="M50.6897 10.6787C50.6897 10.7897 50.6897 10.9008 50.6897 11.0118C50.6897 12.8191 50.6897 14.6264 50.6897 16.4336C50.6897 16.9888 50.8403 17.1407 51.3929 17.1573C51.4235 17.1573 51.4542 17.1573 51.4848 17.1573C51.912 17.1573 52.1 17.3862 52.0489 17.844H48.5378C48.5276 17.7789 48.5123 17.7214 48.5097 17.6627C48.4952 17.3351 48.6527 17.1667 48.9819 17.1573C49.6061 17.1407 49.7848 16.9607 49.7848 16.3456C49.7848 14.0482 49.7848 11.7508 49.7848 9.45469C49.7848 9.02712 49.7094 8.95182 49.2908 8.94671C49.2193 8.94671 49.1479 8.94671 49.0764 8.94671C48.6663 8.94671 48.4935 8.72506 48.5582 8.28175C48.6501 8.27665 48.7471 8.26516 48.8454 8.26516C49.846 8.26516 50.8467 8.26899 51.846 8.26005C52.0489 8.25878 52.1804 8.31876 52.3068 8.48213C53.7184 10.306 55.1389 12.1248 56.5569 13.9435C56.6437 14.0546 56.7343 14.1643 56.876 14.3392C56.89 14.1847 56.9041 14.1031 56.9041 14.0214C56.9054 12.5511 56.9066 11.0807 56.9041 9.6104C56.9041 9.11136 56.742 8.94544 56.2493 8.93523C56.026 8.93012 55.8013 8.93523 55.5473 8.93523V8.22687H59.0585V8.93523C58.8607 8.93523 58.6807 8.9314 58.4995 8.93523C57.9711 8.94799 57.809 9.11136 57.809 9.64359C57.809 12.2677 57.809 14.8918 57.809 17.5147C57.809 17.6346 57.809 17.7546 57.809 17.9129C57.4108 17.9129 57.0458 17.9282 56.6846 17.9027C56.5888 17.8963 56.4854 17.7776 56.414 17.6883C54.6105 15.4445 52.8096 13.1994 51.0087 10.9531C50.9271 10.8523 50.8441 10.7527 50.7624 10.6532L50.6884 10.6787H50.6897Z" fill="#0D1853"/>
<path d="M40.1642 8.93013H38.9798V8.26133C40.251 8.26133 41.5222 8.26772 42.7934 8.26006C44.057 8.2524 45.3193 8.2307 46.6301 8.21411C46.6722 9.12796 46.7143 10.0788 46.759 11.0527H46.2663C46.2076 10.8331 46.1553 10.6161 46.0889 10.4043C45.8336 9.58233 45.2887 9.08329 44.4246 8.99139C43.9102 8.93651 43.3908 8.94034 42.8573 8.91609V12.7157C43.849 12.8906 44.3876 12.5102 44.5127 11.5657C44.5484 11.2977 44.7109 11.1854 45.0002 11.2288V15.0054H44.5318C44.5063 14.7987 44.4846 14.5881 44.4539 14.3788C44.3608 13.7406 44.08 13.4458 43.4712 13.4049C42.6875 13.3526 42.8445 13.3092 42.8381 13.9678C42.8292 14.9071 42.8356 15.8465 42.8356 16.7859C42.8356 16.8957 42.8356 17.0054 42.8356 17.1548C43.683 17.1369 44.4986 17.239 45.2963 17.0029C45.7315 16.874 46.0557 16.5983 46.2319 16.1809C46.3455 15.9103 46.4271 15.6244 46.4986 15.3385C46.5982 14.9429 46.588 14.9403 47.0755 14.9978C47.0398 15.9346 47.0053 16.8765 46.9683 17.844H38.9785V17.1611H40.1629V8.9314L40.1642 8.93013Z" fill="#0D1853"/>
<path d="M66.1865 17.1343H67.4348V17.8465H62.2121C62.1942 17.8158 62.1853 17.8082 62.184 17.7992C62.1329 17.3559 62.3257 17.1343 62.7622 17.1343C62.9855 17.1343 63.2089 17.1343 63.4552 17.1343V8.94666C62.7303 8.75649 61.7232 9.18406 61.3684 9.88093C61.191 10.2306 61.0749 10.6212 60.9919 11.0066C60.9243 11.3193 60.8005 11.4342 60.4495 11.3155C60.4852 10.297 60.5209 9.26319 60.5567 8.22937H69.0429C69.0876 9.25426 69.1323 10.2868 69.177 11.3142C68.846 11.3755 68.6494 11.2636 68.5873 10.9786C68.5592 10.8497 68.5299 10.7195 68.4954 10.5918C68.1993 9.46102 67.5637 8.95305 66.3946 8.90199C66.2376 8.89561 66.1419 8.91348 66.1419 9.10493C66.147 11.7393 66.147 14.3736 66.1495 17.0079C66.1495 17.036 66.1648 17.0654 66.1853 17.1317L66.1865 17.1343Z" fill="#0D1853"/>
<path d="M0.108487 8.26137C0.738991 8.26137 1.32993 8.2652 1.91959 8.26137C4.05233 8.24605 6.18634 8.23074 8.31907 8.20266C8.55009 8.2001 8.61263 8.25754 8.61901 8.48855C8.64071 9.33476 8.68793 10.181 8.72367 11.0272C8.7275 11.1254 8.72367 11.225 8.72367 11.3194C8.23866 11.4164 8.23101 11.4062 8.13145 10.9633C8.07274 10.7055 8.01403 10.4439 7.91958 10.1988C7.57115 9.29774 6.72622 8.81019 5.72431 8.93271V17.128H6.98915V17.8453H1.72431V17.1382H3.02744V8.94292C2.12891 8.77317 1.18315 9.24797 0.819399 10.0725C0.689214 10.3673 0.613911 10.6902 0.537332 11.0067C0.445437 11.3909 0.432674 11.4101 0 11.3143L0.109764 8.26264L0.108487 8.26137Z" fill="#0D1853"/>
<path d="M32.6315 8.93139H31.4011C32.1784 10.902 32.9391 12.8293 33.724 14.814C33.821 14.5536 33.9027 14.3468 33.9755 14.1375C34.4987 12.6468 35.0208 11.156 35.5415 9.664C35.7355 9.1088 35.613 8.93778 35.022 8.93139C34.9225 8.93139 34.8217 8.92246 34.6966 8.91735C34.6902 8.80249 34.6813 8.70421 34.6787 8.60593C34.6762 8.5051 34.6787 8.403 34.6787 8.27154H38.0265V8.91608C37.7866 8.92629 37.5645 8.93139 37.3424 8.94799C36.9263 8.97989 36.6545 9.179 36.5064 9.58998C35.5211 12.3124 34.5204 15.0284 33.5338 17.7495C33.4496 17.9818 33.3501 18.0852 33.0846 18.0788C32.3392 18.0609 32.3405 18.0737 32.0546 17.3743C30.9404 14.6455 29.8236 11.918 28.7144 9.18793C28.6379 8.99904 28.546 8.91735 28.3354 8.92884C27.992 8.94799 27.6474 8.93395 27.2837 8.93395V8.26898H32.6353V8.93139H32.6315Z" fill="#0D1853"/>
<path d="M21.2034 17.8401C21.1549 17.3832 21.3447 17.1547 21.7727 17.1547C22.2007 17.1547 22.416 16.942 22.4185 16.5165C22.4185 14.1285 22.4185 11.7405 22.4185 9.35255C22.4185 9.2313 22.4185 9.11004 22.4185 8.9454H21.2047V8.27533H26.2998V8.9237H25.0592C25.0592 9.0692 25.0592 9.16748 25.0592 9.26703C25.0592 11.7776 25.0631 14.2881 25.0541 16.7986C25.0541 17.0705 25.1128 17.1917 25.4051 17.1598C25.617 17.1356 25.8339 17.1687 26.0471 17.1509C26.2819 17.1317 26.3611 17.2249 26.3368 17.4495C26.3241 17.5695 26.3343 17.6908 26.3343 17.8401H21.2034Z" fill="#0D1853"/>
<path d="M49.0232 22.6774C49.1726 22.6774 49.2964 22.6902 49.4151 22.6749C49.6563 22.6442 49.8031 22.7361 49.9307 22.948C50.306 23.567 50.7042 24.172 51.0947 24.7808C51.1317 24.8382 51.1739 24.8931 51.2721 25.0297V22.6966H51.8694V26.0329C51.3679 26.1797 51.2338 26.1299 50.9582 25.71C50.5395 25.0731 50.1183 24.44 49.6423 23.8172V26.0265H49.022V22.6762L49.0232 22.6774Z" fill="#0D1853"/>
<path d="M41.0783 26.0533C40.6443 26.1592 40.3559 26.0674 40.1249 25.6666C39.7484 25.0157 39.3042 24.4043 38.846 23.7125V26.0329H38.2283V22.6787C38.3916 22.6787 38.5422 22.6902 38.6903 22.6762C38.8869 22.657 39.0043 22.731 39.1089 22.9021C39.5416 23.6028 39.9896 24.292 40.4797 25.0591V22.6966H41.0783V26.0546V26.0533Z" fill="#0D1853"/>
<path d="M35.9185 3.40488V0.0315552C36.5732 0.0672922 37.219 0.0443193 37.8406 0.154083C38.5579 0.279163 39.0225 1.03219 38.9816 1.82607C38.9382 2.67354 38.4315 3.29001 37.593 3.39339C37.0531 3.45976 36.4979 3.40615 35.9185 3.40615V3.40488ZM36.5987 0.60973C36.5987 1.16748 36.5987 1.65376 36.5987 2.14004C36.5987 2.94412 36.6562 2.99007 37.4628 2.81905C37.9491 2.71566 38.2452 2.36212 38.2771 1.84393C38.3116 1.30277 38.0806 0.84202 37.6594 0.733533C37.3326 0.650572 36.9842 0.650572 36.5987 0.608454V0.60973Z" fill="#0D1853"/>
<path d="M32.6033 3.50065C31.5363 3.50448 30.8062 2.8025 30.7998 1.76357C30.7935 0.708052 31.4954 0.00990346 32.5701 0.00224553C33.6512 -0.00541241 34.3646 0.679973 34.3723 1.73039C34.3799 2.77697 33.6614 3.49554 32.6033 3.49937V3.50065ZM33.6767 1.76357C33.6805 1.09095 33.207 0.570209 32.5905 0.56638C31.9907 0.563827 31.4993 1.07819 31.4852 1.72401C31.4712 2.3928 31.9702 2.93651 32.5969 2.93396C33.2032 2.93141 33.6716 2.42343 33.6754 1.76357H33.6767Z" fill="#0D1853"/>
<path d="M28.4915 26.0112C27.8597 26.1286 27.8355 26.1184 27.547 25.6142C27.4104 25.3756 27.2854 25.1279 27.1309 24.902C27.062 24.7999 26.9318 24.7387 26.8297 24.6595L26.734 24.7272V26.038H26.0984V22.7106C26.6357 22.7106 27.1641 22.6749 27.6861 22.7221C28.0856 22.7578 28.332 23.0846 28.3702 23.4751C28.4251 24.0354 28.2771 24.3519 27.8687 24.5485C27.824 24.5702 27.7793 24.5932 27.7053 24.6302C27.9695 25.0935 28.2273 25.5479 28.4915 26.0112ZM26.748 24.1439C27.0722 24.1197 27.4245 24.2613 27.6287 23.9346C27.7066 23.8095 27.7053 23.5453 27.6223 23.4279C27.4066 23.1228 27.0633 23.2569 26.7493 23.2479V24.1439H26.748Z" fill="#0D1853"/>
<path d="M46.9787 1.95882C46.9787 2.36724 46.9825 2.76418 46.9749 3.16112C46.9749 3.21727 46.9264 3.29641 46.8779 3.32449C46.2397 3.68696 44.9506 3.51976 44.4209 3.00923C43.8951 2.50253 43.7815 1.87714 43.9768 1.20707C44.1746 0.528062 44.6647 0.133678 45.3654 0.0328484C45.9193 -0.0462836 46.4579 0.0111512 46.98 0.27535L46.8345 0.7578C46.4669 0.702918 46.1287 0.613575 45.7879 0.611023C45.0119 0.605917 44.4988 1.16622 44.5881 1.87075C44.6736 2.53699 45.3973 3.03221 46.084 2.90458C46.255 2.87267 46.3443 2.8114 46.3227 2.62889C46.3163 2.5689 46.3227 2.50636 46.3227 2.4451C46.3227 2.05965 46.5413 1.89756 46.9787 1.95882Z" fill="#0D1853"/>
<path d="M32.776 22.8905C32.7211 23.0743 32.6726 23.2377 32.6279 23.3858C32.305 23.3245 32.0076 23.2339 31.7064 23.2186C30.9176 23.1764 30.3624 23.6704 30.3829 24.3672C30.4084 25.216 31.284 25.6614 31.9821 25.4904C32.0434 25.4751 32.0995 25.373 32.125 25.3002C32.1493 25.2262 32.1314 25.1381 32.1314 25.0565C32.1314 24.6668 32.3471 24.5051 32.7785 24.5715C32.7785 24.9786 32.7824 25.3934 32.7734 25.8082C32.7734 25.8567 32.7019 25.9307 32.6496 25.9473C32.0638 26.1209 31.4728 26.2039 30.8743 26.006C30.037 25.7291 29.6005 25.008 29.709 24.089C29.8009 23.3105 30.4658 22.6876 31.2865 22.6314C31.7881 22.597 32.2846 22.6251 32.776 22.8905Z" fill="#0D1853"/>
<path d="M48.3088 3.39982C48.4939 2.89057 48.6764 2.38514 48.8589 1.88099C49.0568 1.336 49.2635 0.793566 49.4473 0.243471C49.5099 0.0558515 49.6311 0.0532989 49.7766 0.0660621C49.9259 0.0788254 50.0931 0.00224593 50.1748 0.234537C50.5347 1.26198 50.9125 2.28431 51.2827 3.3092C51.2929 3.336 51.2891 3.36791 51.2942 3.43938C51.118 3.43938 50.9457 3.45853 50.7823 3.43045C50.707 3.41769 50.6164 3.32707 50.5858 3.25049C50.3344 2.62254 50.3369 2.63402 49.6349 2.61488C49.3605 2.60722 49.2201 2.67487 49.1397 2.95821C48.9815 3.51341 48.9508 3.51341 48.3101 3.39982H48.3088ZM49.4588 2.0099H50.1838C50.0612 1.63339 49.954 1.30027 49.8162 0.87908C49.6796 1.31048 49.5711 1.65381 49.4588 2.0099Z" fill="#0D1853"/>
<path d="M56.2974 26.0162C56.2323 26.0366 56.2132 26.0468 56.194 26.0481C55.6363 26.0826 55.6261 26.0851 55.4678 25.5529C55.3951 25.3104 55.2827 25.179 55.0185 25.2287C54.9994 25.2326 54.9777 25.2287 54.9573 25.2287C54.2719 25.2287 54.277 25.23 54.023 25.8567C53.9886 25.9409 53.8673 26.0226 53.7716 26.043C53.6274 26.0749 53.4716 26.0507 53.2764 26.0507C53.5061 25.4176 53.7231 24.8254 53.9375 24.2332C54.1047 23.7724 54.2604 23.3079 54.4442 22.8535C54.4774 22.7718 54.6191 22.685 54.7084 22.6863C54.8514 22.6876 55.0875 22.7259 55.1207 22.8114C55.5278 23.8669 55.9056 24.9326 56.2974 26.0162ZM54.4353 24.6301H55.1653C55.0466 24.2638 54.9381 23.9307 54.8297 23.5963L54.7633 23.6014C54.6561 23.9371 54.5489 24.2715 54.4353 24.6301Z" fill="#0D1853"/>
<path d="M40.5398 0.0788116H42.5552V0.614867H41.1857V1.42789H42.3063V1.99713H41.1895V2.86885H42.61V3.41767H40.5386V0.0788116H40.5398Z" fill="#0D1853"/>
<path d="M36.5495 22.7016V23.2313H35.1787V24.0405H36.2866V24.6174H35.1736V25.4827H36.6057V26.029H34.5112V22.7029H36.5495V22.7016Z" fill="#0D1853"/>
<path d="M24.6969 26.0328C24.6114 26.043 24.5719 26.0507 24.531 26.052C24.0205 26.0686 24.0052 26.0724 23.8699 25.5836C23.7959 25.3142 23.6797 25.1675 23.3849 25.2287C23.3555 25.2351 23.3236 25.2287 23.293 25.2287C22.6485 25.2287 22.6408 25.2262 22.4391 25.8261C22.3791 26.0035 22.2949 26.0737 22.1111 26.0545C21.9822 26.0405 21.8495 26.052 21.6733 26.052C21.8099 25.6716 21.9324 25.327 22.0562 24.9837C22.3026 24.3021 22.5553 23.6218 22.7901 22.9365C22.8565 22.7425 22.9471 22.6557 23.1615 22.6697C23.3555 22.6812 23.4959 22.685 23.5763 22.9199C23.9312 23.9511 24.3115 24.9735 24.6944 26.0328H24.6969ZM22.8259 24.6352H23.5585C23.441 24.2715 23.3313 23.9294 23.2215 23.5887L23.1564 23.595C23.0492 23.932 22.942 24.2677 22.8259 24.6352Z" fill="#0D1853"/>
<path d="M44.1799 26.0392H43.515V23.2543H42.5271V22.7004H45.1589V23.2249H44.1812V26.0405L44.1799 26.0392Z" fill="#0D1853"/>
<path d="M47.1925 26.0431H46.5747V22.7004H47.1925V26.0431Z" fill="#0D1853"/>
<path d="M27.084 3.42403V0.0826179C27.6251 0.0826179 28.1523 0.0570921 28.6768 0.0902765C29.0674 0.114527 29.3239 0.365962 29.3865 0.704188C29.4605 1.10751 29.3227 1.42531 29.0125 1.60399C29.1708 1.85671 29.3967 2.08772 29.4656 2.35703C29.6098 2.92116 29.2844 3.3666 28.7062 3.41255C28.1803 3.45466 27.6494 3.42148 27.084 3.42148V3.42403ZM27.7515 2.02646C27.7515 2.15026 27.7515 2.24981 27.7515 2.35064C27.7502 2.94413 27.8064 2.99008 28.3884 2.89181C28.6245 2.85224 28.7611 2.7144 28.7738 2.48593C28.7879 2.24216 28.6577 2.06602 28.4114 2.03156C28.2123 2.00348 28.0068 2.02646 27.7515 2.02646ZM27.7515 0.568898C27.7515 0.840754 27.7438 1.06156 27.7566 1.28109C27.7592 1.33214 27.8294 1.42276 27.8676 1.42276C28.0578 1.42276 28.2684 1.4419 28.4318 1.36788C28.5454 1.31555 28.659 1.12027 28.6539 0.992637C28.6488 0.867557 28.5186 0.686319 28.3999 0.640371C28.2135 0.568897 27.9927 0.590594 27.7515 0.570173V0.568898Z" fill="#0D1853"/>
</svg>
