<svg width="80" height="37" viewBox="0 0 80 37" fill="none" xmlns="http://www.w3.org/2000/svg">
<path fill-rule="evenodd" clip-rule="evenodd" d="M12.4107 8.24255C13.2663 8.24255 14.1717 8.95167 14.1717 10.7624C14.1717 12.2304 13.2899 13.3058 12.4107 13.3058C12.0679 13.3058 12.0182 13.2797 12.0182 12.9866V8.24255H12.4107ZM12.4368 1.73748C13.3422 1.73748 14.0749 2.6664 14.0749 4.20763V4.21024C14.0749 5.70175 13.4155 6.48414 12.3636 6.48414H12.0208V2.10381C12.0208 1.83429 12.0705 1.73748 12.4368 1.73748ZM11.9711 15.0171C15.2733 15.0171 17.1312 13.4759 17.1312 10.8095L17.1285 10.8148C17.1285 8.73449 15.8568 7.65903 14.5354 7.24298C15.9537 6.90281 16.859 5.77764 16.859 3.96689C16.859 1.59618 15.3204 0.201484 12.3845 0.201484H8.73946C7.86026 0.201484 7.05432 0.324468 6.58855 0.52072C5.61252 0.986489 5.14675 1.71916 5.14675 2.478C5.14675 3.38337 5.87943 4.18931 7.0046 4.18931C7.81054 4.18931 8.51966 3.57701 8.51966 3.08769C8.51966 2.89144 8.47256 2.64808 8.27631 2.64808C8.15612 2.64808 8.1093 2.68191 8.05742 2.71939C7.99296 2.76596 7.92069 2.81817 7.69017 2.81817C7.42065 2.81817 7.15113 2.5722 7.15113 2.20586C7.15113 1.76626 7.6169 1.49674 8.20304 1.49674C9.03515 1.49674 9.2314 1.91018 9.2314 2.37595V6.60713C9.2314 6.80338 9.18168 6.82693 9.0116 6.82693C8.78891 6.82693 8.62939 6.73901 8.49258 6.6636C8.38985 6.60698 8.29992 6.55741 8.20566 6.55741C8.08267 6.55741 7.93614 6.70394 7.93614 6.92375C7.93614 7.85267 8.98543 8.26872 9.2314 8.29227V13.2797C9.2314 13.5989 9.10841 13.6957 8.81534 13.8423C8.42546 14.0385 8.30247 14.2348 8.30247 14.6011V15.0171H11.9711ZM74.2115 3.94073C75.287 3.94073 75.9961 3.0118 75.9961 2.10643L75.9987 2.10381C75.9987 1.39469 75.6062 0.808555 75.0201 0.489319C74.6537 0.319235 74.2612 0.172701 73.3323 0.172701H69.7867V0.588753C69.7867 0.955089 69.9594 1.12779 70.1295 1.22461C70.2996 1.29787 70.3728 1.46796 70.3728 1.66421C70.3728 1.8343 70.3231 2.10381 70.1766 2.39688L68.8081 5.23337L67.5363 2.39688C67.3898 2.10381 67.3401 1.8343 67.3401 1.66421C67.3401 1.46796 67.4134 1.29787 67.5835 1.22461C67.7561 1.12779 67.9262 0.955089 67.9262 0.588753V0.172701H62.9127V0.570437C62.9127 0.936772 63.0357 1.13302 63.4255 1.32928C63.6951 1.47581 63.9881 1.74533 64.1111 1.96513L66.2149 6.07332L66.2291 6.10207L66.2292 6.1022L66.2293 6.10239C66.3166 6.27932 66.3615 6.3701 66.3615 6.43966C66.3615 6.58619 66.3117 6.63591 66.1417 6.63591C66.0463 6.63591 65.9744 6.61306 65.9005 6.58956C65.8223 6.56469 65.7418 6.53909 65.6288 6.53909C65.5084 6.53909 65.3854 6.68563 65.3854 6.90543C65.3854 7.88145 66.6336 8.4702 67.0496 8.56702V13.2614C67.0496 13.5806 66.9031 13.6774 66.6336 13.8239C66.2437 14.0202 66.1207 14.2164 66.1207 14.5828V14.9988H70.7182V14.5828C70.7182 14.2164 70.5979 14.0202 70.2054 13.8239C69.9123 13.6774 69.7893 13.578 69.7893 13.2614V7.6852L72.4793 2.25558C72.7488 1.71654 73.1151 1.22722 73.5312 1.22722C73.9472 1.22722 74.2638 1.44703 74.2638 1.88663C74.2638 2.22941 73.9943 2.3995 73.5783 2.3995C73.3477 2.3995 73.2674 2.33925 73.1958 2.28552C73.1382 2.24227 73.0862 2.20325 72.966 2.20325C72.7697 2.20325 72.6964 2.3995 72.6964 2.59575C72.6964 3.37814 73.4056 3.94073 74.2115 3.94073ZM49.1201 8.219C49.9756 8.219 50.8807 8.92775 50.8812 10.7374C50.8807 12.2048 50.0017 13.2797 49.1201 13.2797C48.7773 13.2797 48.7276 13.2561 48.7276 12.9631V8.219H49.1201ZM49.1463 1.71393C50.0517 1.71393 50.7843 2.64285 50.7843 4.18408C50.7843 5.67559 50.1249 6.45798 49.073 6.45798H48.7302V2.08026C48.7302 1.81074 48.78 1.71393 49.1463 1.71393ZM48.6805 14.9936C51.9828 14.9936 53.8406 13.4524 53.8406 10.786H53.838C53.838 8.70832 52.5663 7.63287 51.2449 7.24036C52.6631 6.87403 53.5685 5.74885 53.5685 3.93811C53.5685 1.56739 52.0273 0.172701 49.094 0.172701H45.0826V0.711738C45.0826 1.02836 45.2317 1.22461 45.5484 1.37114C45.9173 1.54384 45.9409 1.76364 45.9409 1.98345V6.58358C45.9409 6.77983 45.8911 6.80338 45.7211 6.80338C45.4984 6.80338 45.3388 6.71546 45.202 6.64005C45.0993 6.58343 45.0094 6.53386 44.9151 6.53386C44.7921 6.53386 44.6456 6.68039 44.6456 6.9002C44.6456 7.82912 45.6975 8.24517 45.9409 8.26872V13.2561C45.9409 13.5754 45.7943 13.6722 45.5248 13.8187C45.1349 14.015 45.0119 14.2112 45.0119 14.5775V14.9936H48.6805ZM59.197 5.7253L60.0526 9.8335H58.3152L59.197 5.7253ZM60.3483 14.9936H64.9694H64.9799V14.6011C64.9799 14.2348 64.8595 14.0385 64.467 13.8423C64.1006 13.646 63.8547 13.4498 63.7814 13.2064L60.4792 0.51287C60.4294 0.269518 60.2829 0 60.0134 0C59.8904 0 59.6941 0.0470999 59.5476 0.0968169L58.5454 0.413436C58.2759 0.51287 57.9828 0.635854 57.9828 0.952473C57.9828 1.05793 58.0379 1.15897 58.1002 1.27347C58.1818 1.42319 58.2759 1.59593 58.2759 1.83168C58.2759 2.00176 58.2288 2.22418 58.1791 2.39427L57.0775 6.64899C57.0277 6.84524 56.978 6.91851 56.8079 6.91851C56.5368 6.91851 56.4078 6.82127 56.2929 6.73456C56.2004 6.66482 56.117 6.60189 55.9758 6.60189C55.8529 6.60189 55.6095 6.72226 55.6095 7.11476C55.6095 7.87098 56.4154 8.45974 56.6352 8.55655L55.4133 13.2038C55.3635 13.4471 55.0207 13.6931 54.7277 13.8396C54.3378 14.0359 54.2148 14.2321 54.2148 14.5985V14.991H57.9802V14.5749C57.9802 14.2086 57.8337 14.0359 57.6374 13.9391C57.4674 13.8423 57.4176 13.646 57.4176 13.4995C57.4176 13.4027 57.4647 13.1567 57.5145 12.9369L57.8572 11.5919H60.5707L60.8874 12.9866L60.8974 13.033L60.911 13.095C60.9497 13.2708 60.9842 13.4272 60.9842 13.5492C60.9842 13.6957 60.9345 13.892 60.6911 13.9888C60.5184 14.0621 60.3483 14.2086 60.3483 14.6011V14.9936ZM38.5592 14.9936H43.107V14.5802C43.107 14.2138 42.9866 14.0176 42.5941 13.8213C42.3246 13.6748 42.1781 13.5754 42.1781 13.2587V1.98345C42.1781 1.76364 42.2042 1.54384 42.5706 1.39731C42.8898 1.25077 43.0363 1.03097 43.0363 0.711738V0.172701H38.4885V0.612304C38.4885 1.00481 38.6612 1.15134 38.8313 1.22461C39.0747 1.32142 39.1479 1.49413 39.1479 1.64066C39.1479 1.78719 39.0511 2.05671 38.9779 2.25296L36.6045 9.05111L34.4274 2.25296C34.3542 2.05671 34.2574 1.78719 34.2574 1.64066C34.2574 1.49413 34.3306 1.32142 34.574 1.22461C34.7702 1.15134 34.9168 1.00481 34.9168 0.612304V0.172701H30.0733V0.711738C30.0733 1.02836 30.2224 1.24816 30.5391 1.37114C30.908 1.54384 30.9316 1.76364 30.9316 1.98345V6.58358C30.9316 6.77983 30.8818 6.80338 30.7118 6.80338C30.4891 6.80338 30.3296 6.71546 30.1927 6.64005C30.09 6.58343 30.0001 6.53386 29.9058 6.53386C29.7828 6.53386 29.6363 6.68039 29.6363 6.9002C29.6363 7.82912 30.6882 8.24517 30.9316 8.26872V13.2561C30.9316 13.5754 30.785 13.6722 30.5155 13.8187C30.1256 14.015 30.0026 14.2112 30.0026 14.5775V14.9936H33.9643V14.5775C33.9643 14.2112 33.8439 14.015 33.4514 13.8187C33.1819 13.6722 33.0354 13.5727 33.0354 13.2561V6.62806L35.8954 14.6508C35.9687 14.8209 36.089 15.0904 36.212 15.0904C36.335 15.0904 36.4318 14.8471 36.5051 14.6508L39.4881 6.65423V13.2561C39.4881 13.5754 39.3416 13.6722 39.0721 13.8187C38.6822 14.015 38.5592 14.2112 38.5592 14.5775V14.9936ZM25.2534 8.36554V8.83131H25.2507C25.2507 10.0036 25.0074 13.6486 23.6624 13.6486C22.5634 13.6486 22.0244 11.2779 22.0244 7.60932C22.0244 3.94073 22.587 1.47058 23.6153 1.47058C23.8613 1.47058 24.0314 1.52029 24.2276 1.74009C24.8635 2.47277 25.2298 4.96647 25.2298 6.28789C25.2298 6.75366 25.1565 6.82693 24.9865 6.82693C24.8448 6.82693 24.6967 6.75251 24.5561 6.68188C24.4292 6.6181 24.3084 6.55741 24.2041 6.55741C24.0078 6.55741 23.9345 6.65423 23.9345 6.92375C23.9345 7.38951 24.2512 7.80557 24.6672 8.04892C24.7231 8.08134 24.7754 8.11205 24.8242 8.14069L24.8245 8.14083L24.8245 8.14085C25.0316 8.26235 25.175 8.34649 25.2534 8.36554ZM23.5159 15.1663C26.1823 15.1663 28.2861 12.1336 28.2861 7.70613H28.2835C28.2835 2.88882 26.3995 0.0523333 23.563 0.0523333C21.3388 0.0523333 19.528 2.22941 19.0884 6.21462C19.0387 6.67778 18.9655 6.80076 18.7457 6.80076C18.6358 6.80076 18.5134 6.73338 18.3911 6.666C18.2688 6.59862 18.1464 6.53124 18.0365 6.53124C17.8638 6.53124 17.767 6.68039 17.767 6.92375C17.767 7.38951 18.1098 7.82912 18.5991 8.12219C18.6942 8.16908 18.8003 8.23316 18.8984 8.29243L18.8985 8.29251L18.8986 8.29252C19.003 8.35559 19.0983 8.41318 19.1617 8.4388V8.83131C19.1617 12.0367 21.0693 15.1663 23.5159 15.1663ZM75.9597 36.9293C77.0352 36.9293 77.9405 36.1469 77.9405 35.0453L77.9379 35.0426C77.9379 33.5276 76.4961 33.0618 75.9571 32.9885C75.9571 32.8138 76.335 31.5783 76.5935 30.7329C76.695 30.4011 76.7781 30.1294 76.8127 30.0055C76.6165 29.8825 76.347 29.736 76.1036 29.736C75.6833 29.736 75.3816 30.1878 75.0254 30.721C74.5126 31.489 73.8868 32.426 72.6313 32.426H72.019V27.4124H73.4137C73.7303 27.4124 73.9763 27.8782 74.1228 28.1712C74.319 28.5611 74.5153 28.6841 74.8816 28.6841H75.2977V24.2331H74.8816C74.5153 24.2331 74.319 24.3535 74.1228 24.746C73.78 25.4054 73.5838 25.6252 73.2671 25.6252H72.019V21.0512C72.019 20.7582 72.2152 20.6352 72.4848 20.6352C74.0861 20.6352 74.5879 21.5515 74.9773 22.2626C75.2242 22.7134 75.4259 23.0818 75.8341 23.0818C76.0801 23.0818 76.2999 23.0085 76.5197 22.9352L76.0304 19.1698H68.4237V19.7089C68.4237 20.0255 68.5728 20.2217 68.8894 20.3683C69.2584 20.541 69.2819 20.7608 69.2819 20.9806V25.5781C69.2819 25.7743 69.2322 25.7979 69.0621 25.7979C68.8394 25.7979 68.6799 25.71 68.5431 25.6346C68.4404 25.5779 68.3505 25.5284 68.2562 25.5284C68.1332 25.5284 67.9867 25.6749 67.9867 25.8947C67.9867 26.8236 69.036 27.2397 69.2819 27.2632V32.2533C69.2819 32.5725 69.1354 32.6693 68.8659 32.8158C68.476 33.0121 68.353 33.2083 68.353 33.5747V33.9907H74.5415C75.1276 33.9907 75.8367 34.1634 75.8367 34.8961C75.8367 35.3122 75.5672 35.6549 75.1276 35.6549C75.0311 35.6549 74.934 35.6309 74.8365 35.6068C74.7384 35.5825 74.6399 35.5581 74.5415 35.5581C74.4682 35.5581 74.4682 35.6078 74.4682 35.6811C74.4682 36.4897 75.3003 36.9293 75.9597 36.9293ZM61.9212 20.8628C62.9967 20.8628 63.8288 21.8153 63.8288 23.3565V23.3591C63.8288 24.7774 63.2426 26.0491 61.8479 26.0491H61.4554V21.2056C61.4554 20.9361 61.5051 20.8628 61.9212 20.8628ZM67.7381 33.996H67.7407L67.7381 33.9986V33.996ZM67.7381 33.5328V33.996H62.9967V33.5799C62.9967 33.2371 63.1667 33.0906 63.486 32.9938C63.7555 32.9205 63.7555 32.8472 63.7555 32.7007C63.7555 32.5777 63.7058 32.4076 63.609 32.1381L61.9709 27.7107C61.9245 27.7107 61.8731 27.7131 61.8192 27.7155H61.8191C61.7027 27.7209 61.5743 27.7268 61.458 27.7107V32.2585C61.458 32.5777 61.6046 32.6981 61.8741 32.8211C62.2666 33.0173 62.387 33.2136 62.387 33.5799V33.996H57.813V33.5799C57.813 33.2136 57.936 33.0173 58.3259 32.8211C58.5954 32.6981 58.7419 32.5777 58.7419 32.2585V27.2685C58.4986 27.2449 57.4467 26.8289 57.4467 25.8999C57.4467 25.6801 57.5932 25.5336 57.7162 25.5336C57.8105 25.5336 57.9004 25.5832 58.0031 25.6398C58.1399 25.7152 58.2994 25.8031 58.5221 25.8031C58.6922 25.8031 58.7419 25.7796 58.7419 25.5833V20.9858C58.7419 20.766 58.7184 20.5698 58.3494 20.3997C58.0302 20.2531 57.8837 20.0333 57.8837 19.7141V19.1751H61.8689C64.8283 19.1751 66.6862 20.5436 66.6862 23.333C66.6862 25.1673 65.7075 26.4625 64.5091 27.0748L66.6365 32.2847C66.8065 32.7243 66.9531 32.7975 67.2488 32.9205C67.5418 33.0435 67.7381 33.1639 67.7381 33.5328ZM56.0467 33.996H56.052L56.0467 33.9986V33.996ZM56.0467 33.5825V33.996H51.478V33.5799C51.478 33.2136 51.601 33.0173 51.9909 32.8211C52.284 32.6981 52.4069 32.5777 52.4069 32.2585V27.2685C52.1636 27.2449 51.1117 26.8289 51.1117 25.8999C51.1117 25.6801 51.2582 25.5336 51.3812 25.5336C51.4755 25.5336 51.5654 25.5832 51.6681 25.6398C51.8049 25.7152 51.9645 25.8031 52.1871 25.8031C52.3572 25.8031 52.4069 25.7796 52.4069 25.5833V20.9858C52.4069 20.766 52.3834 20.5698 52.0144 20.3997C51.6978 20.2531 51.5487 20.0333 51.5487 19.7141V19.1751H55.9761V19.7141C55.9761 20.0307 55.8296 20.2531 55.5103 20.3997C55.144 20.5698 55.1178 20.766 55.1178 20.9858V32.2611C55.1178 32.5803 55.2644 32.7007 55.5339 32.8237C55.9264 33.0199 56.0467 33.2162 56.0467 33.5825ZM49.6934 33.996L49.717 33.5799L49.7144 33.5825C49.7144 33.2162 49.594 33.0199 49.2015 32.8237C48.9084 32.7007 48.7854 32.5803 48.7854 32.2611V20.9858C48.7854 20.766 48.809 20.5698 49.1753 20.3997C49.4946 20.2531 49.6411 20.0307 49.6411 19.7141V19.1751H45.1169V19.7141C45.1169 20.0333 45.3131 20.2531 45.6297 20.3997C45.9987 20.5698 46.0222 20.766 46.0222 20.9858V25.8293H43.6018V20.9858C43.6018 20.766 43.628 20.5698 43.9943 20.3997C44.3109 20.2531 44.5072 20.0307 44.5072 19.7141V19.1751H40.0065V19.7141C40.0065 20.0333 40.1556 20.2531 40.4722 20.3997C40.8412 20.5698 40.8647 20.766 40.8647 20.9858V25.5833C40.8647 25.7796 40.815 25.8031 40.6449 25.8031C40.4223 25.8031 40.2627 25.7152 40.1259 25.6398C40.0232 25.5832 39.9333 25.5336 39.839 25.5336C39.716 25.5336 39.5695 25.6801 39.5695 25.8999C39.5695 26.8289 40.6214 27.2449 40.8647 27.2685V32.2585C40.8647 32.5777 40.7182 32.6981 40.4487 32.8211C40.0588 33.0173 39.9358 33.2136 39.9358 33.5799V33.996H44.5333V33.5799C44.5333 33.2136 44.413 33.0173 44.0205 32.8211C43.7509 32.6981 43.6044 32.5777 43.6044 32.2585V27.4412H46.0248V32.2585C46.0248 32.5777 45.8783 32.6981 45.6088 32.8211C45.2189 33.0173 45.0959 33.2136 45.0959 33.5799V33.996H49.6934ZM24.5523 20.7896C25.6042 20.7896 26.4599 21.5955 26.4599 23.3565H26.4573C26.4573 24.9946 25.8214 25.9497 24.5262 25.9497H24.0866V21.1324C24.0866 20.8628 24.1363 20.7896 24.5523 20.7896ZM27.7787 26.7556C28.6605 26.0726 29.3199 24.848 29.3199 23.333H29.3173C29.3173 20.6901 27.2868 19.1751 24.1808 19.1751H20.5122V19.7141C20.5122 20.0333 20.6613 20.2531 20.978 20.3997C21.3469 20.5698 21.3705 20.766 21.3705 20.9858V25.5833C21.3705 25.7796 21.3207 25.8031 21.1507 25.8031C20.928 25.8031 20.7684 25.7152 20.6316 25.6398C20.5289 25.5832 20.439 25.5336 20.3447 25.5336C20.2217 25.5336 20.0752 25.6801 20.0752 25.8999C20.0752 26.8289 21.1271 27.2449 21.3705 27.2685V32.2585C21.3705 32.5777 21.2239 32.6981 20.9544 32.8211C20.5645 33.0173 20.4415 33.2136 20.4415 33.5799V33.996H25.0155V33.5799C25.0155 33.2136 24.8951 33.0173 24.5026 32.8211C24.2096 32.6981 24.0866 32.5777 24.0866 32.2585V27.7107C25.6749 27.7107 26.9466 27.415 27.7787 26.7556ZM34.2105 20.7896C35.2624 20.7896 36.1181 21.5955 36.1181 23.3565H36.1155C36.1155 24.9946 35.4796 25.9497 34.1844 25.9497H33.7448V21.1324C33.7448 20.8628 33.818 20.7896 34.2105 20.7896ZM37.4395 26.7556C38.3449 26.0726 38.9807 24.848 38.9807 23.333H38.9781C38.9781 20.6901 36.9476 19.1751 33.8416 19.1751H30.173V19.7141C30.173 20.0333 30.3221 20.2531 30.6387 20.3997C31.0077 20.5698 31.0312 20.766 31.0312 20.9858V25.5833C31.0312 25.7796 30.9815 25.8031 30.8114 25.8031C30.5888 25.8031 30.4292 25.7152 30.2924 25.6398C30.1897 25.5832 30.0998 25.5336 30.0055 25.5336C29.8825 25.5336 29.736 25.6801 29.736 25.8999C29.736 26.8289 30.7879 27.2449 31.0312 27.2685V32.2585C31.0312 32.5777 30.9083 32.6981 30.6152 32.8211C30.2253 33.0173 30.1023 33.2136 30.1023 33.5799V33.996H34.6763V33.5799C34.6763 33.2136 34.5559 33.0173 34.1634 32.8211C33.8939 32.6981 33.7474 32.5777 33.7474 32.2585V27.7107C35.3357 27.7107 36.6074 27.415 37.4395 26.7556ZM14.2321 24.7277L15.0878 28.8594H13.3529L14.2321 24.7277ZM15.3835 34.0195H20.0045H20.0098V33.627C20.0098 33.2607 19.8894 33.0644 19.4969 32.8682C19.128 32.6719 18.8846 32.4757 18.8113 32.2323L15.5091 19.5388C15.4594 19.2954 15.2867 19.0259 15.0433 19.0259C14.8942 19.0259 14.7241 19.073 14.5775 19.1227L13.5754 19.4394C13.3058 19.5388 13.0128 19.6618 13.0128 19.9784C13.0128 20.0694 13.063 20.1605 13.122 20.2671C13.2053 20.418 13.3058 20.6001 13.3058 20.8576C13.3058 21.0303 13.2587 21.2266 13.209 21.3966L12.1074 25.6749C12.0577 25.845 12.008 25.9444 11.8379 25.9444C11.5672 25.9444 11.439 25.8395 11.3245 25.7458C11.232 25.6701 11.1484 25.6016 11.0058 25.6016C10.8828 25.6016 10.6394 25.7482 10.6394 26.1407C10.6394 26.8995 11.448 27.4857 11.6678 27.5589L10.4458 32.2297C10.3961 32.4731 10.0533 32.719 9.76023 32.8656C9.37034 33.0618 9.24736 33.2581 9.24736 33.6244V34.0169H13.0128V33.6008C13.0128 33.2345 12.8662 33.0383 12.67 32.965C12.4999 32.8682 12.4502 32.6719 12.4502 32.5254C12.4502 32.4286 12.4973 32.1591 12.547 31.9628L12.8898 30.6178H15.6033L15.9225 32.0125C15.9696 32.2088 16.0193 32.4286 16.0193 32.5751C16.0193 32.7216 15.9696 32.9179 15.7263 33.0147C15.5536 33.088 15.3835 33.2345 15.3835 33.627V34.0195ZM5.20982 34.3361C7.53343 34.3361 9.09821 32.5516 9.09821 30.3012C9.09821 28.4648 7.63102 26.7198 6.32851 25.1706C5.28888 23.9341 4.35416 22.8224 4.35416 21.8886C4.35416 21.1297 4.79638 20.5436 5.60232 20.5436C6.81876 20.5436 7.03024 21.5367 7.20859 22.3743C7.29573 22.7835 7.37495 23.1556 7.5596 23.3565C7.71316 23.5314 7.92859 23.5291 8.13076 23.5271C8.15251 23.5268 8.1741 23.5266 8.19545 23.5266H8.56179V18.9788H8.07247C7.87622 18.9788 7.70352 19.0285 7.6067 19.1254C7.3398 19.3687 7.1671 19.4184 6.94729 19.4184C6.72749 19.4184 6.55741 19.3687 6.06809 19.2222C5.87184 19.1489 5.38252 19.0756 5.0659 19.0756C3.06152 19.0756 1.86308 20.7869 1.86308 22.671C1.86308 23.9796 2.46666 24.7665 2.77968 25.1747L2.77971 25.1747C2.81155 25.2162 2.84038 25.2538 2.86527 25.2876C2.94701 25.3915 2.94295 25.4767 2.93971 25.5448C2.93911 25.5573 2.93854 25.5693 2.93854 25.5807C2.93854 25.661 2.83599 25.6585 2.70399 25.6553C2.6768 25.6547 2.64836 25.654 2.6193 25.654C2.54791 25.654 2.48212 25.6366 2.42493 25.6215C2.36474 25.6056 2.31409 25.5922 2.27651 25.6043C2.15353 25.6043 2.05671 25.7508 2.05671 25.9706C2.05671 26.876 3.2787 27.3156 4.28089 27.3156C4.57396 27.6348 5.30925 28.5637 5.74885 29.1263C6.13874 29.6392 6.53124 30.4713 6.53124 31.1072C6.53124 32.0125 5.99221 32.7714 5.06328 32.7714C3.89804 32.7714 3.64473 31.8249 3.40636 30.9344C3.19456 30.1431 2.99456 29.3958 2.17708 29.3958H1.88401V33.0644C0.928923 33.3313 0 33.8939 0 35.0688C0 36.0736 0.685571 36.8796 1.8343 36.8796C2.4937 36.8796 3.3258 36.4138 3.3258 35.6811C3.3258 35.6314 3.3258 35.5581 3.25254 35.5581C3.21391 35.5581 3.16322 35.5814 3.10227 35.6095C3.01044 35.6517 2.89534 35.7047 2.76322 35.7047C2.24773 35.7047 1.80813 35.388 1.80813 34.849C1.80813 34.2393 2.34717 33.8965 2.90975 33.8965C3.10665 33.8965 3.35523 33.9747 3.57998 34.0455L3.58007 34.0455L3.58102 34.0458C3.66353 34.0717 3.74281 34.0967 3.81512 34.1163C4.28089 34.2629 4.74405 34.3361 5.20982 34.3361ZM78.8274 32.965V32.8577H78.0241V32.965H78.3643V33.9907H78.4899V32.965H78.8274ZM79.8874 32.9571V33.9933H79.9999V32.8603H79.801L79.5158 33.7762H79.5132L79.2253 32.8603H79.0317V33.9933H79.1442V32.9571H79.1495L79.4687 33.9933H79.5655L79.8821 32.9571H79.8874Z" fill="#0D1853"/>
</svg>
