<svg width="80" height="47" viewBox="0 0 80 47" fill="none" xmlns="http://www.w3.org/2000/svg">
<path fill-rule="evenodd" clip-rule="evenodd" d="M44.1176 1.16262C45.8416 1.91413 47.4109 2.97508 48.7769 4.30568C50.1429 5.67165 51.2038 7.24097 51.9199 8.98269C52.7068 10.8084 53.0826 12.6872 53.0826 14.703C53.0826 16.7188 52.7068 18.6329 51.9199 20.4233C51.1994 22.1959 50.1429 23.7873 48.7769 25.1003C47.4109 26.4662 45.8416 27.5228 44.1176 28.2743C42.3051 29.0611 40.3954 29.4369 38.3796 29.4369C36.3638 29.4369 34.4674 29.0611 32.6593 28.2743C30.9176 27.5228 29.3483 26.4662 27.9823 25.1003C26.6163 23.7873 25.5775 22.2003 24.8083 20.4233C24.0745 18.6285 23.6987 16.6834 23.6987 14.703C23.6987 12.7225 24.0745 10.8084 24.8083 8.98269C25.5731 7.24097 26.6163 5.67165 27.9823 4.30568C29.3483 2.97066 30.9176 1.91413 32.6593 1.16262C34.4718 0.375753 36.3638 0 38.3796 0C40.3954 0 42.3095 0.375753 44.1176 1.16262ZM47.3405 5.74242C48.5341 6.93599 49.4226 8.26659 50.0725 9.78729C50.7223 11.3566 51.0627 12.9613 51.0627 14.703C51.0627 16.4447 50.7223 18.0848 50.0725 19.6541C49.4226 21.1704 48.5341 22.5054 47.3405 23.699C46.1779 24.8572 44.865 25.7457 43.3266 26.3955C41.7573 27.0807 40.1172 27.4211 38.3755 27.4211C36.6338 27.4211 35.0114 27.0763 33.4421 26.3955C31.9082 25.7457 30.5775 24.8616 29.4149 23.699C28.2214 22.5054 27.3328 21.1748 26.683 19.6541C26.0508 18.0848 25.7104 16.4094 25.7104 14.703C25.7104 12.9967 26.0508 11.3566 26.683 9.78729C27.3328 8.27102 28.2214 6.93599 29.4149 5.74242C30.5731 4.58422 31.9037 3.69568 33.4421 3.04585C35.0114 2.36065 36.6338 2.02026 38.3755 2.02026C40.1172 2.02026 41.7573 2.36507 43.3266 3.04585C44.865 3.69568 46.1779 4.5798 47.3405 5.74242Z" fill="#0D1853"/>
<path fill-rule="evenodd" clip-rule="evenodd" d="M46.5581 7.03764L45.979 6.28613L45.842 5.94574L45.7757 5.7424L45.1612 5.64072C44.8031 5.7424 44.2903 6.21982 43.6759 7.10837C42.8227 8.3373 42.1065 9.22584 41.4567 9.78726C41.0146 10.163 40.5019 10.4017 39.9891 10.468C39.852 10.468 39.7503 10.4327 39.6487 10.3664C39.4763 10.2647 39.3746 9.95524 39.3746 9.47782L40.2941 8.43455L40.5328 7.58137C40.5328 7.40897 40.3604 7.34266 40.0554 7.37802L39.3039 7.51506L38.7911 7.68747L38.6187 7.48412L38.2076 7.10837C37.8981 6.86965 37.6594 6.90502 37.5577 7.2454L37.4914 7.92618C36.5012 8.40361 36.0238 8.77936 36.0238 9.05344C36.0238 9.25678 36.1254 9.42919 36.2978 9.51318L37.3234 9.85357L37.2571 10.4017L36.846 10.4371C36.2669 10.3708 35.7541 10.163 35.3607 9.78726C34.7816 9.29215 34.0301 8.40361 33.1415 7.10837C32.6995 6.45854 32.1867 5.94574 31.6385 5.64072L31.3998 5.53905L31.0904 5.57441L30.918 5.77776V6.05184L30.7146 6.36128L30.2018 7.04206L29.0746 8.54507L28.1197 10.3708C27.6776 11.3256 27.4036 12.4529 27.3019 13.7172C27.2002 14.9461 27.2665 16.1087 27.5052 17.236C27.9164 19.0131 28.6679 20.547 29.7598 21.8644L30.2725 22.4435L30.445 22.6159L30.6483 22.5982C30.7146 22.4788 30.6483 22.3772 30.4759 22.2048L30.1355 21.7627C29.7244 21.1836 29.384 20.5515 29.1099 19.8839C28.4601 18.2262 28.3938 17.3067 28.8358 17.1343C29.1453 16.9973 29.5166 17.3067 29.9631 18.0229L30.2725 18.571C30.3742 18.8805 30.5113 18.9821 30.6129 18.9114C30.7146 18.876 30.7146 18.7744 30.6792 18.6727L30.4759 18.3633L30.2018 17.6825L29.8261 16.3828C29.6227 15.2909 29.7244 14.6411 30.1001 14.4024C30.4759 14.1637 30.9533 14.367 31.5015 15.0522L31.9435 15.733L32.2839 16.6215C32.3193 16.8602 32.3856 16.9619 32.4873 16.9619C32.6597 16.9266 32.6597 16.7895 32.5536 16.5508L32.4873 15.87L32.5536 15.2202C32.6553 14.9815 32.7923 14.8091 32.9647 14.7428C33.3405 14.6411 33.6808 14.8135 33.9903 15.2556C34.366 15.7684 34.5384 16.4491 34.5031 17.3023L34.2644 17.6427C33.7869 17.846 33.5482 18.0848 33.5836 18.3588C33.619 18.6992 33.7206 18.9733 33.924 19.1457C34.9142 18.6683 35.648 18.5975 36.1608 18.907C36.5719 19.1457 36.9786 19.9149 37.3897 21.1792C37.8009 22.4435 38.0749 23.7387 38.1766 25.1047L38.212 25.5468L38.2473 25.9888C38.212 26.1612 38.2827 26.2275 38.3844 26.2275C38.5214 26.2275 38.5877 26.1612 38.5568 25.9888L38.6275 25.1003C38.7292 23.6989 39.0033 22.4214 39.379 21.2234C39.7548 19.9768 40.1659 19.243 40.5726 18.9379C41.05 18.5975 41.8015 18.6639 42.7917 19.1103C43.0658 18.9733 43.2029 18.7346 43.2338 18.3588C43.2338 18.0494 42.9951 17.8107 42.5177 17.6427C42.3806 17.5764 42.3143 17.4393 42.2789 17.2669C42.2789 16.4138 42.4513 15.7639 42.7917 15.2511C43.0968 14.7737 43.4416 14.6013 43.8173 14.703C43.9897 14.7693 44.1268 14.9417 44.2108 15.1804L44.3301 15.8656L44.2108 16.5464C44.1268 16.7851 44.1577 16.8868 44.2947 16.9221C44.3787 16.9575 44.4671 16.8558 44.4981 16.6127L44.8738 15.6888L45.3026 15.039C45.8508 14.3582 46.2929 14.115 46.6686 14.3582C47.0444 14.5969 47.146 15.2821 46.9781 16.374L46.6023 17.6736L46.2973 18.3235L46.1249 18.6329C46.0895 18.77 46.0895 18.8363 46.1602 18.8716C46.2619 18.9379 46.399 18.8363 46.5006 18.5622L46.841 18.014C47.2831 17.2625 47.6588 16.9575 47.9683 17.0901C48.4103 17.2935 48.3087 18.2174 47.6588 19.8397C47.4201 20.5382 47.0797 21.1703 46.6686 21.7539L46.2929 22.1959C46.1205 22.333 46.0895 22.4346 46.1558 22.5363L46.3282 22.5894L46.5006 22.417L47.0134 21.8202C48.1407 20.4896 48.8922 18.9689 49.2679 17.2272C49.5067 16.0999 49.6083 14.9417 49.5067 13.7083C49.405 12.444 49.0955 11.3168 48.6535 10.3619L47.6986 8.53622L46.5714 7.03321L46.5581 7.03764Z" fill="#0D1853"/>
<path fill-rule="evenodd" clip-rule="evenodd" d="M46.2483 7.37801L45.5675 6.48947L45.4659 6.25075L45.4305 6.11372C45.3951 6.01204 45.2935 6.01204 45.1918 6.11372L44.763 6.52483C44.2502 7.07299 43.7728 7.92617 43.397 9.05343L42.9196 10.4371L42.5085 11.1179C42.3714 11.2903 42.199 11.3919 41.9603 11.4273L40.9701 11.2239L39.8782 10.8482C39.5378 10.7819 39.4361 10.7819 39.6041 10.8836C40.559 11.4627 40.7977 12.5899 40.3203 14.2653L39.7721 15.9363L39.1223 17.4747C38.6448 18.7036 38.4061 19.9502 38.3708 21.2809C38.3708 20.631 38.2691 19.8795 38.0967 19.044C37.858 17.9521 37.5485 17.2669 37.2081 16.9619C36.8987 16.7232 36.5274 16.6525 36.1516 16.7586C35.7759 16.8602 35.4841 17.0989 35.3161 17.5101C35.4178 16.6569 35.5372 16.1441 35.7759 16.0071H36.324L37.2479 16.4182L36.8368 15.3616L36.4257 14.1681C36.2533 13.2795 36.2533 12.528 36.492 11.9136C36.629 11.6041 36.8678 11.3345 37.1728 11.1621L37.7209 10.9587L37.8933 10.8217L37.827 10.3442L37.7254 10.1718L37.69 10.6493L37.5176 10.7509L37.2435 10.7863C36.7307 10.8217 36.2533 10.9897 35.8112 11.2284C35.4885 11.4317 35.1437 11.5024 34.8387 11.4671C34.6 11.4317 34.3966 11.2947 34.2596 11.1267L33.8838 10.4769L33.4727 9.16394C33.097 8.03668 32.5842 7.14814 32.0051 6.53367L31.594 6.12256H31.3199V6.2596L31.1828 6.49831L30.5684 7.28518L29.5782 8.78819C28.862 10.1718 28.5216 11.5378 28.4863 12.8684C28.4509 14.4068 28.6587 15.565 29.1361 16.4182L29.1715 16.3828C28.862 15.3572 28.7603 14.23 28.862 12.9701C28.9283 12.0815 29.1361 11.1621 29.5119 10.1718L30.5374 8.07205C30.365 8.88986 30.365 9.86682 30.4711 11.0604C30.6435 12.528 30.9839 13.7216 31.563 14.6455H31.5984C31.2226 13.5536 30.9839 12.2893 30.9176 10.888C30.8822 9.69441 30.953 8.68651 31.1563 7.83334L31.4304 7.01552L31.7045 6.77681L32.0449 7.1172L32.3853 7.79797C32.6947 8.51411 32.8627 9.30098 32.9644 10.0702L33.3755 12.086C33.5479 12.7004 33.8175 13.0762 34.127 13.2132C34.4364 13.3503 34.7414 13.2795 35.1172 13.0408C35.4576 12.8021 35.6786 12.4927 35.8157 12.1169C35.714 12.6297 35.6433 13.0408 35.6786 13.4166C35.714 13.7923 35.851 14.2344 36.0544 14.7118L36.6688 15.8391L36.0544 15.5296L35.7449 15.4633C35.4885 15.428 35.2852 15.6004 35.1835 15.9761C35.0111 16.4182 34.9448 17.0017 34.9448 17.7178C34.9094 17.8549 34.8431 17.9565 34.7414 17.9919C34.1933 18.0936 33.9546 18.2969 34.0562 18.6064L35.3205 18.2969C35.2852 18.0229 35.4222 17.7488 35.6432 17.4791C35.9173 17.1697 36.2223 17.1034 36.5981 17.2404C37.0755 17.4438 37.4866 18.0936 37.7917 19.2208C38.0657 20.1271 38.2337 21.1836 38.3045 22.3772L38.3708 24.1852L38.4724 22.3772C38.5078 21.1836 38.6758 20.1226 38.9499 19.2208C39.2593 18.0936 39.666 17.4438 40.1434 17.2404C40.5192 17.1034 40.8242 17.1741 41.1337 17.4791C41.3724 17.7532 41.474 18.0273 41.4431 18.2969L42.7074 18.571C42.8444 18.3323 42.6411 18.129 42.0576 17.9919C41.9205 17.9565 41.8542 17.8549 41.8542 17.7178L41.6155 15.9761C41.4785 15.6004 41.2751 15.428 41.0364 15.4633L40.6606 15.6004L40.2186 15.8037L40.6297 14.9859C40.9347 14.3361 41.1071 13.6553 41.1071 13.0055L40.9701 12.0815C41.1734 12.559 41.3812 12.8684 41.5492 13.0364C41.7216 13.2088 41.8896 13.2751 42.0974 13.3105C42.3007 13.3458 42.5085 13.2751 42.6764 13.1071C42.9505 12.8684 43.1892 12.4573 43.3926 11.8782L43.8037 10.0702C43.9761 9.16394 44.1441 8.38149 44.3651 7.79797L44.7586 7.1172L45.0503 6.77681L45.3244 7.01552L45.6338 7.83334C45.8062 8.68651 45.8726 9.69441 45.8372 10.888C45.8018 12.2893 45.5631 13.5492 45.1564 14.6455H45.1918C45.7709 13.7216 46.1157 12.528 46.2837 11.0604C46.3853 9.86682 46.3853 8.89428 46.2174 8.07205L47.2429 10.1718C47.6187 11.1621 47.822 12.086 47.9237 12.9701C48.0254 14.2344 47.8884 15.3616 47.5833 16.3828L47.6187 16.4182C48.0961 15.6004 48.3348 14.4024 48.2995 12.8684C48.2641 11.6041 47.8884 10.2735 47.2076 8.88986L46.2527 7.38685L46.2483 7.37801Z" fill="#0D1853"/>
<path fill-rule="evenodd" clip-rule="evenodd" d="M38.1056 8.43456L37.9023 8.744C37.8669 8.81031 37.9377 8.84567 38.0393 8.88104L38.4504 8.9164C38.6229 8.9164 38.6892 8.88104 38.7245 8.81473L38.6229 8.54065L38.1101 8.43897L38.1056 8.43456Z" fill="#0D1853"/>
<path fill-rule="evenodd" clip-rule="evenodd" d="M39.1978 8.33287L39.2685 8.67326L39.4718 8.43455L39.5381 8.19583L39.3348 8.2312L39.1978 8.33287Z" fill="#0D1853"/>
<path fill-rule="evenodd" clip-rule="evenodd" d="M79.7263 44.9356C79.5539 44.7632 79.3152 44.6615 79.0764 44.6615C78.8024 44.6615 78.5636 44.7632 78.3957 44.9356C78.2233 45.1212 78.1216 45.3467 78.1216 45.6164C78.1216 45.8551 78.2233 46.0938 78.3957 46.2662C78.599 46.4386 78.8377 46.5403 79.0764 46.5403C79.3152 46.5403 79.5539 46.4386 79.7263 46.2662C79.8987 46.0938 80.0003 45.8551 80.0003 45.6164C80.0003 45.3423 79.8987 45.1212 79.7263 44.9356ZM79.0764 44.7985C79.2798 44.7985 79.4522 44.8693 79.6246 45.0373C79.797 45.2097 79.8633 45.3776 79.8633 45.6164C79.8633 45.8551 79.7926 46.0275 79.6246 46.1645C79.4522 46.3369 79.2842 46.4032 79.0764 46.4032C78.8377 46.4032 78.6653 46.3369 78.4973 46.1645C78.3249 45.9921 78.2586 45.8241 78.2586 45.6164C78.2586 45.3776 78.3249 45.2052 78.4973 45.0373C78.6697 44.8649 78.8377 44.7985 79.0764 44.7985Z" fill="#0D1853"/>
<path fill-rule="evenodd" clip-rule="evenodd" d="M79.4873 45.3821L79.3149 45.1434L79.0408 45.0726H78.665V46.1336H78.8684V45.7225H79.0054L79.2088 45.7578L79.3105 45.9965V46.1336H79.4829V45.8949L79.4165 45.7225L79.2441 45.6517L79.3812 45.5854L79.4829 45.3821H79.4873ZM79.0098 45.2097L79.2486 45.245L79.3149 45.4174L79.2132 45.5545L79.0408 45.5898H78.8684V45.2141H79.0054L79.0098 45.2097Z" fill="#0D1853"/>
<path fill-rule="evenodd" clip-rule="evenodd" d="M33.3448 37.7477C33.3094 35.8026 33.3094 34.5914 33.3801 33.9901L33.2784 33.9548L32.8364 34.2465L32.0849 34.1626C30.8559 33.6851 29.5917 33.5127 28.3274 33.6144C27.5405 33.6498 26.789 33.8177 26.0905 34.1626C25.3744 34.472 24.7246 34.9317 24.1278 35.4932C22.9165 36.7575 22.3374 38.3975 22.3684 40.3912C22.4037 42.3363 23.0182 43.8746 24.2825 44.9665C25.4761 46.0231 26.9614 46.5049 28.7738 46.4342C30.0381 46.3988 31.13 46.0584 32.0495 45.444C32.7657 45.0019 33.2784 44.4184 33.6188 43.7686L33.8929 43.2204L33.7205 43.1187C33.1414 43.9719 32.4208 44.6571 31.5677 45.1168C30.7808 45.5103 29.8967 45.6783 28.9374 45.612C27.8101 45.5766 26.8553 45.0638 26.1038 44.1443C25.3169 43.1541 24.8925 41.8588 24.8572 40.3028C24.8041 38.5964 25.1312 37.1951 25.8297 36.0678C26.5812 34.8743 27.6377 34.2598 28.9728 34.2421C30.0293 34.1891 30.9178 34.4985 31.7047 35.1483C32.4916 35.8291 32.969 36.6867 33.137 37.7433H33.3403L33.3448 37.7477Z" fill="#0D1853"/>
<path fill-rule="evenodd" clip-rule="evenodd" d="M9.20372 36.5187C9.06668 35.7009 8.65999 35.0511 7.93943 34.5913C7.20561 34.0299 6.16234 33.7868 4.91573 33.8221L0.0353649 33.8575V34.0785L0.340388 34.1316L0.751505 34.2686L1.29966 34.609C1.47207 34.7814 1.53837 34.9494 1.53837 35.1881V44.7322C1.53837 45.0726 1.2643 45.3821 0.751505 45.6871L0 45.8904V46.0938L3.05465 46.0584L6.24633 46.1247C7.49295 46.0894 8.48316 45.7843 9.23467 45.2892C10.0215 44.6924 10.4636 43.9409 10.499 42.9861C10.5343 41.9959 10.1939 41.1427 9.40707 40.4929C8.69093 39.8961 7.8687 39.5866 6.93153 39.5557C7.59904 39.454 8.14278 39.1799 8.58926 38.7379C9.13741 38.1588 9.34076 37.4382 9.20372 36.5187ZM6.14908 35.0511C6.66187 35.4931 6.93595 36.1076 6.93595 36.8591C6.93595 37.7123 6.7326 38.3621 6.32148 38.7379C5.80869 39.1799 4.99088 39.317 3.79289 39.2153V34.6046C3.99624 34.5029 4.23495 34.4676 4.50903 34.4322C5.15886 34.4322 5.7026 34.6355 6.14908 35.0467V35.0511ZM8.04552 42.7518C8.08089 43.2646 8.01016 43.6757 7.84218 44.0515C7.43106 44.9754 6.59556 45.4837 5.26496 45.5191C4.27474 45.5191 3.79731 45.1433 3.79731 44.3565V40.0022L4.85384 39.9005C6.11813 40.0022 7.03762 40.4619 7.60346 41.3505C7.84218 41.7262 8.01458 42.2036 8.04552 42.7518Z" fill="#0D1853"/>
<path fill-rule="evenodd" clip-rule="evenodd" d="M76.6887 34.0255V33.8531H71.5166V34.0255L72.2681 34.2642C72.7455 34.5029 72.9842 34.8433 72.9842 35.2898V44.7323C72.9842 45.1257 72.7455 45.413 72.2681 45.6871L71.5166 45.9258V46.0982H76.6887V45.9258L75.9726 45.6871L75.4952 45.3467C75.3228 45.1743 75.2211 44.971 75.2211 44.7323V35.2589C75.2211 34.8831 75.4598 34.5427 75.9726 34.2687C76.2467 34.167 76.4854 34.0786 76.6887 34.0299V34.0255Z" fill="#0D1853"/>
<path fill-rule="evenodd" clip-rule="evenodd" d="M51.9511 33.9062L50.3464 33.8531L46.2485 33.9062V34.0255L46.9647 34.2642L47.4421 34.6046C47.6145 34.777 47.7162 34.945 47.7162 35.1837V44.7632C47.7162 45.0019 47.6145 45.1743 47.4421 45.3423L46.9647 45.6517L46.2485 45.9258V46.0982H51.235V45.9258L50.5852 45.6871L50.1431 45.3777C50.0061 45.2053 49.9221 45.0373 49.9221 44.7986V40.1039C49.9221 40.0022 50.0061 39.9315 50.0945 39.9315C50.4172 39.9315 50.8283 40.2409 51.3411 40.8023L52.3667 42.3053L53.3215 44.0117L54.3471 45.444C54.7405 45.8551 55.1472 46.0584 55.5584 46.0938C56.4469 46.1955 57.3664 46.1955 58.2903 46.1292V45.9258C57.8129 45.8595 57.4018 45.6871 57.0967 45.4484L56.416 44.6306L55.492 43.1629L54.4665 41.5229C53.799 40.4664 53.0828 39.8652 52.3313 39.6972C53.2508 39.6618 54.0023 39.3922 54.5681 38.8794C55.218 38.3312 55.523 37.6504 55.4213 36.8326C55.3196 35.9794 54.9085 35.2942 54.2101 34.7682C53.5602 34.2554 52.8087 33.9636 51.9556 33.915L51.9511 33.9062ZM50.7222 34.4366C51.372 34.472 51.9158 34.6754 52.3622 35.1042C52.8043 35.533 53.0474 36.1121 53.0784 36.8636C53.1138 37.5443 53.043 38.0571 52.8397 38.4329C52.6363 38.7733 52.2606 39.012 51.7124 39.1844L50.7576 39.2861L49.9707 39.2197V34.5914L50.7222 34.4366Z" fill="#0D1853"/>
<path fill-rule="evenodd" clip-rule="evenodd" d="M69.2271 35.6655C67.9982 34.5383 66.3582 33.9592 64.3468 33.8575L61.0844 33.9106L58.4541 33.8575V34.0299L59.1702 34.2686L59.6477 34.5913C59.8201 34.7637 59.8864 34.9494 59.8864 35.1881V44.7676L59.6477 45.3821L59.1702 45.6915L58.4541 45.8949V46.0982L64.2761 46.1645C66.4598 46.1999 68.2016 45.5854 69.4659 44.2548C69.9787 43.6757 70.3898 43.0259 70.6948 42.2744C70.9335 41.5936 71.0705 40.8907 71.0705 40.1392C71.0705 38.2958 70.4561 36.7928 69.2271 35.6655ZM64.5148 34.5913C65.7083 34.8124 66.6322 35.4268 67.3484 36.3507C68.0645 37.3056 68.4049 38.4682 68.4403 39.8696C68.4756 41.2886 68.2369 42.4821 67.7241 43.4016C67.176 44.4582 66.3228 45.1433 65.1292 45.4174L64.2053 45.5191L63.2991 45.4837C62.9233 45.3821 62.6493 45.2981 62.5476 45.1787C62.3089 44.9754 62.1718 44.6306 62.1365 44.1222V34.6134C62.7863 34.4278 63.6041 34.4278 64.5104 34.5958L64.5148 34.5913Z" fill="#0D1853"/>
<path fill-rule="evenodd" clip-rule="evenodd" d="M17.5498 33.6851L15.6887 33.7382L11.9003 44.5289C11.7279 45.0417 11.4229 45.3821 11.0117 45.6208L10.0569 45.9258V46.0982H14.1548V45.9258L13.337 45.6208C13.0983 45.4484 12.9612 45.245 12.9612 44.94L13.1999 43.9144L14.2565 40.8067H17.6869L18.7434 43.7774L19.0175 44.803C19.0528 45.1434 18.9512 45.4174 18.6771 45.5898L17.8902 45.8993V46.1026H23.2171V45.8993L22.3992 45.6606C22.0235 45.4882 21.7317 45.1831 21.5461 44.7057L17.5498 33.694V33.6851ZM17.4482 39.9315H14.5305L15.9982 35.7319L17.4482 39.9315Z" fill="#0D1853"/>
<path fill-rule="evenodd" clip-rule="evenodd" d="M40.3248 33.7382H38.4814L34.6752 44.5289C34.5028 45.0417 34.2332 45.3821 33.7867 45.6208L32.8672 45.8949V46.0982H36.912V45.9258L36.1252 45.6208C35.8511 45.4484 35.7141 45.245 35.7494 44.94L35.9528 43.9144L37.0093 40.8067H40.4928L41.8234 44.803C41.8587 45.1434 41.7217 45.4174 41.483 45.5898C41.3106 45.7269 41.0409 45.8285 40.6961 45.8993V46.1026H45.9699V45.8993L45.183 45.6606C44.825 45.4882 44.5332 45.1831 44.3475 44.7057L40.3203 33.747L40.3248 33.7382ZM40.254 39.9359H37.3187L38.7864 35.7363L40.254 39.9359Z" fill="#0D1853"/>
</svg>
