<svg width="80" height="41" viewBox="0 0 80 41" fill="none" xmlns="http://www.w3.org/2000/svg">
<g clip-path="url(#clip0_1311_46062)">
<path d="M67.7172 9.06285C62.2142 9.06285 58.5541 10.8223 56.7509 10.8223C55.4943 10.8223 53.8349 10.2714 53.7239 8.59695C55.4367 8.2489 57.0263 8.20916 58.2828 9.04777C58.4185 9.13821 58.5679 9.23413 58.6912 9.29305L58.772 9.18891C58.6761 9.11903 58.5541 9.02859 58.3911 8.91348C57.0975 8.01732 55.4765 8.02691 53.7157 8.35715C53.7554 6.5977 55.3477 5.97833 56.5755 5.97833C57.6141 5.97833 58.2636 6.58674 58.2636 6.58674C58.2636 6.58674 58.3144 6.52508 58.3253 6.46341C58.1883 6.36064 57.5717 5.83719 56.5741 5.83719C54.2967 5.83719 53.5595 7.30751 53.5416 8.39278C53.1182 8.47636 52.6866 8.57776 52.2495 8.68602C52.1864 7.21707 51.034 6.19621 50.094 5.7769L50.046 5.87419C50.7545 6.21539 52.0741 7.31162 52.0741 8.72576V8.7285C49.9529 9.27113 47.7179 10.0001 45.657 10.0001C41.2735 10.0001 40.2622 6.36749 40.0005 5.50558C39.7401 6.36749 38.7289 10.0001 34.3426 10.0001C32.2803 10.0001 30.0454 9.27113 27.9255 8.7285V8.72576C27.9255 7.31025 29.2451 6.21402 29.9536 5.87419L29.9056 5.7769C28.9683 6.19621 27.8118 7.21707 27.7488 8.68602C27.3116 8.57639 26.8814 8.47636 26.458 8.39415C26.4401 7.30751 25.7029 5.83719 23.4255 5.83719C22.4279 5.83719 21.8113 6.36064 21.6729 6.46341C21.6839 6.52645 21.7346 6.58674 21.7346 6.58674C21.7346 6.58674 22.3841 5.97833 23.4241 5.97833C24.6506 5.97833 26.2456 6.5977 26.2853 8.35715C24.5231 8.02691 22.9034 8.01732 21.6099 8.91348C21.4482 9.02859 21.3235 9.1204 21.2289 9.18891L21.3084 9.29305C21.4345 9.23276 21.5825 9.13821 21.7223 9.04777C22.9788 8.21053 24.5656 8.2489 26.2785 8.59695C26.1675 10.2728 24.5053 10.8223 23.2487 10.8223C21.4441 10.8223 17.7909 9.06285 12.2837 9.06285C6.77655 9.06285 0.000488281 10.5304 0.000488281 18.0944C0.000488281 25.6584 6.78066 27.1232 12.2837 27.1232C17.7868 27.1232 21.4427 25.3651 23.2487 25.3651C24.5053 25.3651 26.1688 25.916 26.2785 27.5905C24.567 27.9399 22.9788 27.9769 21.7223 27.1397C21.5825 27.0478 21.4331 26.956 21.3084 26.8916L21.2289 26.9985C21.3235 27.0698 21.4482 27.1602 21.6099 27.2726C22.9034 28.1687 24.5231 28.1591 26.2853 27.8303C26.2456 29.5897 24.6506 30.2091 23.4241 30.2091C22.3841 30.2091 21.7346 29.5979 21.7346 29.5979C21.7346 29.5979 21.6839 29.661 21.6729 29.7254C21.8113 29.8254 22.4279 30.3502 23.4255 30.3502C25.7043 30.3502 26.4401 28.8772 26.458 27.7946C26.8814 27.7111 27.3116 27.611 27.7488 27.5014C27.8145 28.9703 28.9683 29.9898 29.9056 30.4078L29.9536 30.3132C29.2451 29.9693 27.9255 28.8731 27.9255 27.4589C27.9255 27.4589 27.9255 27.4576 27.9255 27.4562C30.0454 26.9149 32.2817 26.1846 34.3426 26.1846C38.7275 26.1846 39.7388 29.8172 40.0005 30.6777C40.2622 29.8172 41.2735 26.1846 45.657 26.1846C47.7179 26.1846 49.9529 26.9136 52.0741 27.4562V27.4589C52.0741 28.8731 50.7545 29.9679 50.046 30.3132L50.094 30.4078C51.034 29.9885 52.1864 28.969 52.2495 27.5014C52.6866 27.611 53.1182 27.7111 53.5416 27.7946C53.5595 28.8772 54.2967 30.3502 56.5741 30.3502C57.573 30.3502 58.1883 29.8254 58.3253 29.7254C58.3144 29.661 58.2636 29.5979 58.2636 29.5979C58.2636 29.5979 57.6128 30.2091 56.5755 30.2091C55.3463 30.2091 53.7554 29.5897 53.7157 27.8303C55.4792 28.1591 57.0989 28.1687 58.3911 27.2726C58.5528 27.1602 58.6761 27.0698 58.772 26.9985L58.6912 26.8916C58.5679 26.956 58.4185 27.0478 58.2828 27.1397C57.0249 27.9769 55.4367 27.9399 53.7239 27.5905C53.8349 25.916 55.4943 25.3651 56.7509 25.3651C58.5541 25.3651 62.2128 27.1232 67.7172 27.1232C73.2217 27.1232 80.0005 25.657 80.0005 18.0944C80.0005 10.5318 73.2231 9.06147 67.7172 9.06147V9.06285ZM34.2316 10.3756C38.3164 10.3756 39.8114 6.92931 40.0019 5.91804C40.1896 6.92931 41.6832 10.3756 45.7721 10.3756C47.7166 10.3756 49.9296 9.59452 52.0563 9.00529C51.8809 10.6674 50.1269 11.9076 46.5573 11.9076C42.7876 11.9076 40.7569 9.91927 40.0005 9.04092C39.2441 9.92064 37.2133 11.9076 33.4423 11.9076C29.87 11.9076 28.1174 10.6661 27.9433 9.00392C30.0714 9.59315 32.2858 10.3742 34.2302 10.3742L34.2316 10.3756ZM45.7721 25.8146C41.6832 25.8146 40.1896 29.2609 40.0019 30.2708C39.8114 29.2609 38.3164 25.8146 34.2316 25.8146C32.2858 25.8146 30.0714 26.5956 27.9447 27.1849C28.1201 25.5227 29.8713 24.2812 33.4437 24.2812C37.2147 24.2812 39.2455 26.2681 40.0019 27.1479C40.7569 26.2681 42.7876 24.2812 46.5587 24.2812C50.1296 24.2812 51.8822 25.5213 52.0576 27.1835C49.9309 26.5943 47.7179 25.8146 45.7735 25.8146H45.7721ZM67.7241 26.4614C62.0223 26.4614 59.675 24.954 56.9934 24.954C54.4693 24.954 53.6403 26.4709 53.5485 27.5576C53.1196 27.4658 52.6838 27.3562 52.244 27.2356C52.1385 25.4076 50.0282 23.7359 46.5559 23.7359C43.0836 23.7359 40.6294 26.1859 39.9991 26.8546C39.3674 26.1859 37.005 23.7359 33.4409 23.7359C29.8768 23.7359 27.8584 25.4076 27.7515 27.2356C27.313 27.3562 26.8773 27.4658 26.4497 27.5576C26.3593 26.4696 25.5289 24.954 23.0048 24.954C20.3218 24.954 17.9773 26.4614 12.2755 26.4614C7.91937 26.4614 0.290989 25.372 0.290989 18.0958C0.290989 10.8196 7.91937 9.72743 12.2755 9.72743C17.9759 9.72743 20.3218 11.2347 23.0048 11.2347C25.5289 11.2347 26.3593 9.71647 26.4497 8.63121C26.8773 8.72301 27.313 8.83264 27.7515 8.95322C27.8598 10.7812 29.9727 12.4516 33.4409 12.4516C36.9091 12.4516 39.3688 10.0056 39.9991 9.33416C40.6294 10.0056 42.9918 12.4516 46.5559 12.4516C50.12 12.4516 52.1357 10.7826 52.244 8.95459C52.6838 8.83538 53.1196 8.72438 53.5485 8.63258C53.6389 9.71784 54.468 11.2361 56.9934 11.2361C59.6737 11.2361 62.021 9.7288 67.7241 9.7288C72.0816 9.7288 79.7086 10.8196 79.7086 18.0971C79.7086 25.3747 72.0816 26.4627 67.7241 26.4627V26.4614Z" fill="#0D1853"/>
<path d="M22.6337 33.8144H22.6283V35.2162H22.3076V33.3663H22.7927L23.371 34.7379L23.9602 33.3663H24.4357V35.2162H24.115V33.8144H24.1109L23.5176 35.2162H23.2298L22.6337 33.8144ZM26.339 33.3663H26.7528L27.649 35.2162H27.2681L27.0762 34.7914H26.0074L25.8114 35.2162H25.4278L26.339 33.3663ZM26.9323 34.4803L26.5459 33.654L26.1581 34.4803H26.931H26.9323ZM28.674 33.3663H29.0371V35.2162H28.674V33.3663ZM31.6996 33.9295C31.642 33.7623 31.4899 33.6212 31.0514 33.6212C30.8048 33.6212 30.5595 33.6828 30.5595 33.8514C30.5595 33.9308 30.6061 34.0158 30.9747 34.061L31.4132 34.1295C31.8284 34.1912 32.0736 34.3515 32.0736 34.6612C32.0736 35.0997 31.6557 35.2628 31.1624 35.2628C30.3676 35.2628 30.1744 34.8709 30.1306 34.7311L30.4786 34.6215C30.5458 34.7558 30.6814 34.9517 31.172 34.9517C31.4666 34.9517 31.7105 34.8544 31.7105 34.6955C31.7105 34.5749 31.5735 34.4968 31.3077 34.4639L30.8651 34.4022C30.4389 34.3447 30.1991 34.1583 30.1991 33.876C30.1991 33.3224 30.9199 33.3224 31.0624 33.3224C31.8585 33.3224 31.9955 33.691 32.0421 33.8171L31.6996 33.9308V33.9295ZM34.1263 33.3224C34.9416 33.3224 35.228 33.7993 35.228 34.3077C35.228 34.6927 35.0019 35.2628 34.1263 35.2628C33.2507 35.2628 33.0246 34.6913 33.0246 34.3077C33.0246 33.7993 33.3124 33.3224 34.1263 33.3224ZM34.8677 34.2857C34.8677 33.8404 34.5497 33.6321 34.1263 33.6321C33.7029 33.6321 33.3864 33.8404 33.3864 34.2857C33.3864 34.8106 33.781 34.9531 34.1263 34.9531C34.4716 34.9531 34.8677 34.8119 34.8677 34.2857ZM36.3106 33.3677H36.6915L37.9289 34.7037V33.3677H38.2742V35.2175H37.9426L36.6545 33.8335V35.2175H36.3092V33.3677H36.3106ZM41.1573 33.3677H42.8619V33.6787H41.519V34.1076H42.6728V34.4187H41.519V35.2175H41.1573V33.3677ZM44.8844 33.3224C45.6998 33.3224 45.9862 33.7993 45.9862 34.3077C45.9862 34.6927 45.7587 35.2628 44.8844 35.2628C44.0102 35.2628 43.7814 34.6913 43.7814 34.3077C43.7814 33.7993 44.0677 33.3224 44.8844 33.3224ZM45.6258 34.2857C45.6258 33.8404 45.3065 33.6321 44.8844 33.6321C44.4624 33.6321 44.1445 33.8404 44.1445 34.2857C44.1445 34.8106 44.5378 34.9531 44.8844 34.9531C45.2311 34.9531 45.6258 34.8119 45.6258 34.2857ZM47.0687 33.3677H47.451L48.6884 34.7037V33.3677H49.0337V35.2175H48.7021L47.414 33.8335V35.2175H47.0687V33.3677ZM50.234 33.3677H51.1247C51.7098 33.3677 52.1798 33.6157 52.1798 34.2816C52.1798 34.9092 51.7509 35.2175 51.1412 35.2175H50.2354V33.3677H50.234ZM50.9603 34.9079C51.5769 34.9079 51.8181 34.7188 51.8181 34.2857C51.8181 33.8527 51.5673 33.6787 50.9603 33.6787H50.5944V34.9079H50.9603ZM53.261 33.3677H54.919V33.6787H53.6214V34.1076H54.7395V34.4187H53.6214V34.9079H54.9506V35.2175H53.2624V33.3677H53.261ZM54.0845 32.8702H54.4422L54.0338 33.2334H53.8105L54.0845 32.8702ZM56.0043 33.3677H57.6624V33.6787H56.3661V34.1076H57.4815V34.4187H56.3661V34.9079H57.6939V35.2175H56.0057V33.3677H56.0043ZM34.0482 39.9053C34.0482 40.0519 34.103 40.1355 34.2743 40.1355H34.6621V40.3081H32.7355V40.1355H33.0986C33.2507 40.1355 33.3124 40.0519 33.3124 39.9258V37.7019C33.1288 37.8019 32.8328 37.9156 32.5971 37.9718L32.5176 37.8183C32.9917 37.6251 33.3919 37.3744 33.7125 37.0661H34.051V39.9053H34.0482ZM38.2714 38.5309C38.8168 38.7707 39.0703 39.0653 39.0703 39.438C39.0703 39.9574 38.5071 40.3835 37.8234 40.3835C37.1396 40.3835 36.6065 40.0176 36.6065 39.5339C36.6065 39.1968 36.8409 38.9598 37.3383 38.7858C36.8957 38.5213 36.6723 38.2705 36.6723 37.9252C36.6723 37.436 37.1752 37.0661 37.8288 37.0661C38.4825 37.0661 38.9867 37.4114 38.9867 37.8279C38.9867 38.128 38.7702 38.3459 38.2728 38.5295L38.2714 38.5309ZM37.563 38.8981C37.3259 39.0612 37.2424 39.2243 37.2424 39.5189C37.2424 39.9409 37.4726 40.1958 37.8535 40.1958C38.2112 40.1958 38.4701 39.982 38.4701 39.686C38.4701 39.3202 38.1796 39.1777 37.563 38.8981ZM37.8069 37.2538C37.4835 37.2538 37.267 37.4319 37.267 37.6909C37.267 37.9704 37.4972 38.1732 38.0919 38.424C38.3043 38.276 38.3948 38.0979 38.3948 37.8334C38.3948 37.4675 38.181 37.2538 37.8083 37.2538H37.8069ZM42.5303 39.9053C42.5303 40.0519 42.5837 40.1355 42.755 40.1355H43.1414V40.3081H41.2148V40.1355H41.5793C41.73 40.1355 41.7903 40.0519 41.7903 39.9258V37.7019C41.6081 37.8019 41.3121 37.9156 41.075 37.9718L40.9983 37.8183C41.4711 37.6251 41.8698 37.3744 42.1905 37.0661H42.5303V39.9053ZM45.0009 40.1286C46.226 38.9927 46.6014 38.7035 46.6014 38.1431C46.6014 37.7361 46.3643 37.4895 45.9889 37.4895C45.6559 37.4895 45.3709 37.7224 45.2983 38.0527H45.0612C45.1516 37.4675 45.6422 37.0661 46.2671 37.0661C46.8919 37.0661 47.3318 37.4511 47.3318 37.9718C47.3318 38.6981 46.5699 38.9433 45.7039 39.7778H46.8481C47.1687 39.7778 47.2413 39.6394 47.2852 39.3859H47.4839L47.3619 40.3068H44.9995V40.1286H45.0009Z" fill="#0D1853"/>
<path d="M4.53467 21.0749H5.24037V15.2443H4.53467V15.0909H7.38075V15.2443H6.59969V21.0749H7.60137C9.1402 21.0749 9.49236 20.3254 9.49236 19.3127V19.1373H9.64446V21.2298H4.53467V21.0749ZM14.5117 18.5276V20.5391C14.5117 20.8104 14.5569 20.9763 14.709 20.9763C14.9173 20.9763 15.0132 20.7159 15.0132 20.4857L15.1667 20.483C15.1667 20.9982 14.805 21.338 14.2377 21.338C13.8458 21.338 13.5224 21.1585 13.3662 20.7899C13.1401 21.2092 12.5371 21.338 12.1987 21.338C11.53 21.338 10.8544 21.0352 10.8544 20.2747C10.8544 19.3648 11.7122 19.1551 12.5056 19.0935L13.362 19.025V18.2891C13.362 17.7657 13.273 17.4437 12.6194 17.4437C12.322 17.4437 11.8136 17.5108 11.826 17.7068C11.8369 17.8547 12.2699 17.8273 12.2699 18.2453C12.2699 18.5522 12.0699 18.7701 11.7355 18.7701C11.3464 18.7701 11.171 18.507 11.171 18.2028C11.171 17.7136 11.8068 17.2902 12.681 17.2902C13.5553 17.2902 14.5131 17.5314 14.5131 18.5276H14.5117ZM13.362 19.1812L12.6714 19.2497C12.1055 19.31 12.0521 19.6169 12.0521 20.0801C12.0521 20.5432 12.0781 21.0763 12.6714 21.0763C13.0798 21.0763 13.3442 20.657 13.362 20.1993V19.1826V19.1812ZM18.3759 17.3957L18.3718 17.5519H18.9761V19.8184C18.9761 20.3665 18.5308 21.0228 18.0416 21.0228C17.6168 21.0228 17.5291 20.7159 17.5291 20.2034V17.171C17.3482 17.3971 16.7028 17.3971 16.3493 17.3971H15.7313V17.5533H16.3315V19.9842C16.3315 20.9256 16.7302 21.3366 17.5579 21.3366C18.143 21.3366 18.7199 21.0297 18.9569 20.498H18.9747V21.2298H20.7739V21.0749H20.1724V17.1696C19.9887 17.3957 19.3475 17.3957 18.9912 17.3957H18.3732H18.3759ZM21.6824 21.0749V21.2298H24.2887V21.0749H23.4871V18.8496C23.4871 18.1836 23.6967 17.7136 24.2476 17.4697H24.2805C24.138 17.6232 24.0749 17.7629 24.0749 17.9808C24.0749 18.322 24.3312 18.5481 24.6683 18.5481C25.0848 18.5481 25.3315 18.2439 25.3315 17.9109C25.3315 17.4834 25.0492 17.2326 24.6409 17.2326C24.0859 17.2326 23.6529 17.6163 23.4857 18.0534H23.4693V17.1696C23.2857 17.3957 22.6444 17.3957 22.2867 17.3957H21.6824V17.5519H22.2867V21.0749H21.6824ZM29.9082 19.1209H27.502V19.854C27.502 20.4528 27.587 21.1311 28.4023 21.1311C29.0806 21.1311 29.5849 20.6241 29.7808 19.8129H29.9356C29.7452 20.6762 29.2108 21.3366 28.1406 21.3366C27.0704 21.3366 26.1948 20.4939 26.1948 19.3579C26.1948 18.222 27.0855 17.2888 28.1118 17.2888C29.0299 17.271 29.9014 18.1781 29.9096 19.1209H29.9082ZM28.6037 18.9688V18.2151C28.6037 17.7314 28.4708 17.4437 28.0515 17.4437C27.7569 17.4437 27.5034 17.6273 27.5034 18.2151V18.9688H28.6051H28.6037ZM30.9373 21.0749V21.2298H33.2545V21.0749H32.7393V18.6865C32.7393 18.2398 33.175 17.604 33.6642 17.604C33.9218 17.604 34.1822 17.7081 34.1822 18.3179V21.0735H33.6834V21.2284H35.9841V21.0735H35.3812V18.6413C35.3812 17.6999 34.9824 17.2874 34.1575 17.2874C33.5696 17.2874 32.9914 17.5944 32.7543 18.0987H32.7393V17.1682C32.5556 17.3943 31.9116 17.3943 31.5581 17.3943H30.9373V17.5505H31.5403V21.0735H30.9373V21.0749ZM36.9378 17.5505H37.401V20.3459C37.401 21.1736 38.1149 21.3353 38.3588 21.3353C38.8891 21.3353 39.244 21.1201 39.5153 20.6679L39.4002 20.609C39.3002 20.7639 39.159 20.9735 38.9412 20.9735C38.7233 20.9735 38.6013 20.8091 38.6013 20.5199V17.5505H39.4002V17.3943H38.6013V15.5198H38.4437C38.4437 16.4447 37.8189 17.3943 36.9392 17.3943V17.5505H36.9378ZM44.2606 21.2284V21.0735H44.9636V15.243H44.2606V15.0895H47.3712C48.8894 15.0895 49.6034 15.6554 49.6034 16.727C49.6034 17.7986 48.5798 18.4659 47.2643 18.4659C46.9011 18.4659 46.5887 18.459 46.327 18.433V21.0749H47.1848V21.2298H44.2606V21.2284ZM46.327 18.2686C46.4284 18.296 46.5709 18.3124 46.6901 18.3124C47.7274 18.3124 48.144 17.8068 48.144 16.7791C48.144 15.6705 47.97 15.243 47.0286 15.243H46.327V18.2672V18.2686ZM53.6525 19.1209H51.2477V19.854C51.2477 20.4528 51.334 21.1311 52.1452 21.1311C52.8235 21.1311 53.3305 20.6241 53.521 19.8129H53.6786C53.4881 20.6762 52.9537 21.3366 51.8821 21.3366C50.8106 21.3366 49.935 20.4939 49.935 19.3579C49.935 18.222 50.827 17.2888 51.8575 17.2888C52.7715 17.271 53.6471 18.1781 53.6512 19.1209H53.6525ZM52.3439 18.9688V18.2151C52.3439 17.7314 52.2124 17.4437 51.7931 17.4437C51.4985 17.4437 51.245 17.6273 51.245 18.2151V18.9688H52.3426H52.3439ZM54.4816 21.0749V21.2298H57.0837V21.0749H56.2862V18.8496C56.2862 18.1836 56.4945 17.7136 57.0426 17.4697H57.0742C56.9385 17.6232 56.8755 17.7629 56.8755 17.9808C56.8755 18.322 57.1262 18.5481 57.4674 18.5481C57.8854 18.5481 58.1265 18.2439 58.1265 17.9109C58.1265 17.4834 57.8497 17.2326 57.4386 17.2326C56.8837 17.2326 56.4534 17.6163 56.2876 18.0534H56.267V17.1696C56.0848 17.3957 55.4435 17.3957 55.0872 17.3957H54.4843V17.5519H55.0872V21.0749H54.4843H54.4816ZM59.0816 21.0749V21.2298H61.6838V21.0749H60.8835V18.8496C60.8835 18.1836 61.0918 17.7136 61.6413 17.4697H61.6769C61.5317 17.6232 61.4714 17.7629 61.4714 17.9808C61.4714 18.322 61.7263 18.5481 62.0675 18.5481C62.4827 18.5481 62.7266 18.2439 62.7266 17.9109C62.7266 17.4834 62.447 17.2326 62.0387 17.2326C61.4837 17.2326 61.0507 17.6163 60.8849 18.0534H60.863V17.1696C60.6807 17.3957 60.0381 17.3957 59.6845 17.3957H59.083V17.5519H59.6845V21.0749H59.083H59.0816ZM64.8916 15.1279C64.5025 15.1279 64.1846 15.4403 64.1846 15.8336C64.1846 16.2268 64.5011 16.542 64.8916 16.542C65.2822 16.542 65.6001 16.2296 65.6001 15.8336C65.6001 15.4376 65.2849 15.1279 64.8916 15.1279ZM63.6913 21.2298H66.092V21.0749H65.4904V17.1696C65.3096 17.3957 64.6669 17.3957 64.3106 17.3957H63.6899V17.5519H64.2887V21.0749H63.6899V21.2298H63.6913ZM70.803 19.1209H68.3913V19.854C68.3913 20.4528 68.479 21.1311 69.2902 21.1311C69.9713 21.1311 70.4783 20.6241 70.666 19.8129H70.8263C70.6345 20.6762 70.1014 21.3366 69.0299 21.3366C67.9583 21.3366 67.0841 20.4939 67.0841 19.3579C67.0841 18.222 67.9734 17.2888 69.0039 17.2888C69.9178 17.271 70.7893 18.1781 70.803 19.1209ZM69.4917 18.9688V18.2151C69.4917 17.7314 69.3615 17.4437 68.9422 17.4437C68.6462 17.4437 68.3913 17.6273 68.3913 18.2151V18.9688H69.4903H69.4917ZM71.8239 21.0749V21.2298H74.4274V21.0749H73.6272V18.8496C73.6272 18.1836 73.8355 17.7136 74.3836 17.4697H74.4179C74.2753 17.6232 74.215 17.7629 74.215 17.9808C74.215 18.322 74.4685 18.5481 74.8084 18.5481C75.2277 18.5481 75.4716 18.2439 75.4716 17.9109C75.4716 17.4834 75.1907 17.2326 74.7782 17.2326C74.2233 17.2326 73.793 17.6163 73.6272 18.0534H73.6053V17.1696C73.4258 17.3957 72.7831 17.3957 72.4255 17.3957H71.8239V17.5519H72.4255V21.0749H71.8239ZM41.0048 18.7345L40.7568 19.4963H42.9602L43.2069 18.7345H41.0062" fill="#0D1853"/>
<path d="M22.372 3.14756C22.3145 3.1229 22.2816 3.11331 22.209 3.11331C21.9938 3.11331 21.6636 3.22704 21.2553 3.22704C20.1398 3.22704 19.5342 2.55697 19.5342 1.67314C19.5342 0.789303 20.0823 0.00138855 21.2936 0.00138855C21.8171 0.00138855 22.1857 0.164453 22.3241 0.164453C22.3638 0.164453 22.3871 0.154861 22.4118 0.130195H22.531L22.5543 0.944145H22.4104C22.2336 0.435769 21.8445 0.158971 21.3128 0.158971C20.5934 0.158971 20.1138 0.711196 20.1138 1.5457C20.1138 2.3802 20.666 3.05027 21.3991 3.05027C21.8691 3.05027 22.2857 2.79403 22.5543 2.32539H22.6982L22.372 3.14893V3.14756Z" fill="#0D1853"/>
<path d="M25.2536 2.58577C25.2536 2.87215 25.2975 3.00507 25.6798 3.01466V3.14758H24.2944V3.01466C24.6836 2.99 24.7206 2.88175 24.7206 2.55151V0.711215C24.7206 0.341238 24.6685 0.217912 24.2944 0.212431V0.0795135H25.6798V0.212431C25.3208 0.227504 25.2536 0.305611 25.2536 0.73588V1.47035H26.9843V0.730399C26.9843 0.331646 26.9363 0.227504 26.5431 0.212431V0.0795135H27.9531V0.212431C27.5735 0.231615 27.516 0.316573 27.516 0.696142V2.55562C27.516 2.90641 27.568 2.98863 27.9531 3.01329V3.14621H26.5431V3.01329C26.9185 2.99959 26.9843 2.89545 26.9843 2.54466V1.69097H25.2536V2.58439V2.58577Z" fill="#0D1853"/>
<path d="M29.455 3.01454C29.7756 3.01043 29.8387 2.95561 29.9716 2.57056L30.8403 0.123234L30.802 -9.15527e-05H31.3378L32.2737 2.57056C32.4121 2.95561 32.46 3.01454 32.7615 3.01454V3.14745H31.3378V3.01454C31.7173 3.01454 31.8228 2.9748 31.8228 2.83229C31.8228 2.78296 31.8037 2.69937 31.7557 2.57056L31.5255 1.95805H30.4279L30.1922 2.61441C30.1579 2.70759 30.1442 2.772 30.1442 2.82133C30.1442 2.96521 30.2402 3.02961 30.6238 3.01317V3.14608H29.4536V3.01317L29.455 3.01454ZM31.435 1.71277L30.9746 0.464435L30.5183 1.71277H31.4337H31.435Z" fill="#0D1853"/>
<path d="M34.2456 3.01466C34.543 3.01466 34.6293 2.95985 34.6581 2.53095L34.7732 0.715326C34.8019 0.275464 34.7485 0.212431 34.4703 0.212431V0.0795135H35.3569L36.3928 2.36378L37.3712 0.0795135H38.2592V0.212431C37.9892 0.212431 37.933 0.271354 37.9522 0.498821L38.1249 2.74335C38.1441 2.99411 38.2345 3.01466 38.5182 3.01466V3.14758H37.1561V3.01466C37.5494 3.01466 37.6165 2.916 37.5781 2.39393L37.448 0.574187H37.4384L36.3298 3.14895H36.1681L35.0417 0.63859H35.0321L34.917 2.46381C34.8842 2.99137 34.9938 2.99137 35.3117 3.01604V3.14895H34.247V3.01604L34.2456 3.01466Z" fill="#0D1853"/>
<path d="M40.0951 3.01459C40.4253 3.00089 40.4965 2.93101 40.4965 2.49114V0.735808C40.4965 0.257579 40.4157 0.212359 40.0361 0.212359V0.0794416C40.1759 0.0794416 40.4143 0.0698496 40.5294 0.0643685C40.7596 0.0534062 41.0762 0.0397034 41.168 0.0397034C42.0737 0.0397034 42.5616 0.252098 42.5616 0.927648C42.5616 1.50454 42.097 1.90466 41.4201 1.90466C41.2913 1.90466 41.1625 1.89507 41.0282 1.8704V2.54595C41.0282 2.92689 41.1241 3.01048 41.5695 3.01459V3.14751H40.0937V3.01459H40.0951ZM41.0296 1.72241C41.0926 1.73338 41.1639 1.74708 41.2351 1.74708C41.6764 1.74708 41.9833 1.40177 41.9833 0.919427C41.9833 0.589188 41.8381 0.179472 41.2639 0.179472C41.1721 0.179472 41.1008 0.183583 41.0282 0.194546V1.72104L41.0296 1.72241Z" fill="#0D1853"/>
<path d="M43.539 3.01454C43.8596 3.01043 43.9213 2.95561 44.0569 2.57056L44.9243 0.123234L44.8846 -9.15527e-05H45.4217L46.3563 2.57056C46.496 2.95561 46.5426 3.01454 46.8455 3.01454V3.14745H45.4217V3.01454C45.7999 3.01454 45.9068 2.9748 45.9068 2.83229C45.9068 2.78296 45.8876 2.69937 45.8397 2.57056L45.6081 1.95805H44.5105L44.2762 2.61441C44.2419 2.70759 44.2282 2.772 44.2282 2.82133C44.2282 2.96521 44.3241 3.02961 44.7078 3.01317V3.14608H43.5376V3.01317L43.539 3.01454ZM45.519 1.71277L45.06 0.464435L44.6037 1.71277H45.519Z" fill="#0D1853"/>
<path d="M50.9084 2.92548C50.3658 3.14747 50.0205 3.22557 49.6231 3.22557C48.6488 3.22557 48.0034 2.60894 48.0034 1.68126C48.0034 1.02489 48.372 -0.00144958 49.6902 -0.00144958C50.1602 -0.00144958 50.448 0.132838 50.607 0.132838C50.6686 0.132838 50.7015 0.117765 50.7317 0.078027H50.8714V0.986526H50.7289C50.6179 0.453485 50.2767 0.157504 49.7779 0.157504C49.0585 0.157504 48.5844 0.739875 48.5844 1.62782C48.5844 2.61443 49.1832 3.04469 49.7629 3.04469C49.978 3.04469 50.1753 2.98988 50.3768 2.88163V2.29515C50.3768 1.95532 50.2808 1.91147 49.8067 1.91147V1.77718H51.24V1.91147C50.9125 1.91147 50.9098 2.1129 50.9098 2.30063V2.92685L50.9084 2.92548Z" fill="#0D1853"/>
<path d="M53.1474 0.635849V2.53095C53.1474 2.916 53.1967 3.03933 53.627 3.01466V3.14758H52.4814V3.01466C52.8268 3.02426 52.8843 2.91189 52.8843 2.59125V0.370014C52.7692 0.265872 52.6637 0.226134 52.4814 0.212431V0.0795135H53.3488L55.4879 2.40215V0.635849C55.4879 0.265872 55.4303 0.20695 55.0137 0.211061V0.0795135H56.173V0.212431C55.8523 0.212431 55.7509 0.271353 55.7509 0.646812V3.17773H55.492L53.146 0.63722L53.1474 0.635849Z" fill="#0D1853"/>
<path d="M57.6845 3.14758V3.01466C58.0736 3.01466 58.1696 2.95026 58.1696 2.67483V0.546781C58.1696 0.222023 58.012 0.211061 57.6845 0.211061V0.0795135H60.1345L60.177 0.819468H60.0482L60.0249 0.715326C59.929 0.311092 59.8523 0.300129 59.5453 0.300129H58.7012V1.4498H59.4439C59.7221 1.4498 59.7742 1.41554 59.8043 1.07434H59.9331V2.06643H59.8043C59.77 1.71563 59.7084 1.67178 59.4439 1.67178H58.7012V2.56932C58.7012 2.8749 58.7396 2.92423 58.9835 2.92423H59.5152C60.0003 2.92423 60.0948 2.85571 60.225 2.372H60.3538L60.2812 3.14621H57.6831L57.6845 3.14758Z" fill="#0D1853"/>
</g>
<defs>
<clipPath id="clip0_1311_46062">
<rect width="80" height="40.3837" fill="white"/>
</clipPath>
</defs>
</svg>
