<svg width="80" height="61" viewBox="0 0 80 61" fill="none" xmlns="http://www.w3.org/2000/svg">
<path d="M18.397 0.720383L17.004 0.756409C16.4637 0.780425 16.2355 0.816451 16.0914 1.0326C15.9953 1.1767 15.9473 1.28478 15.9353 1.35683C15.9233 1.42888 15.8873 1.4649 15.8272 1.4649C15.7672 1.4649 15.7432 1.41687 15.7432 1.3088C15.7432 1.16469 15.9233 0.300089 15.9353 0.228039C15.9593 0.107955 15.9953 0.0479126 16.0434 0.0479126C16.1154 0.0479126 16.2115 0.14398 16.4517 0.155988C16.7279 0.180005 17.0761 0.204022 17.3883 0.204022H21.0989C21.3991 0.204022 21.6033 0.180005 21.7474 0.155988C21.8915 0.131971 21.9635 0.107955 21.9995 0.107955C22.0596 0.107955 22.0716 0.167997 22.0716 0.300089C22.0716 0.492224 22.0476 1.14068 22.0476 1.39285C22.0356 1.48892 22.0236 1.53695 21.9635 1.53695C21.8915 1.53695 21.8675 1.48892 21.8554 1.34482L21.8434 1.23674C21.8194 0.996577 21.5672 0.732392 20.7387 0.708375L19.5618 0.684358V4.52705C19.5618 5.39165 19.5618 6.12417 19.6099 6.53245C19.6339 6.79664 19.6939 7.00078 19.9701 7.0368C20.1022 7.06082 20.3064 7.07283 20.4505 7.07283C20.5585 7.07283 20.5946 7.09685 20.5946 7.14488C20.5946 7.20492 20.5225 7.24095 20.4144 7.24095C19.79 7.24095 19.2016 7.21693 18.9374 7.21693C18.7212 7.21693 18.1328 7.24095 17.7606 7.24095C17.6405 7.24095 17.5684 7.21693 17.5684 7.14488C17.5684 7.09685 17.6045 7.07283 17.7125 7.07283C17.8566 7.07283 17.9647 7.04881 18.0488 7.0368C18.2409 7.00078 18.2889 6.79664 18.325 6.52044C18.373 6.12417 18.373 5.39165 18.373 4.52705V0.720383" fill="#0D1853"/>
<path d="M23.6083 2.91797C23.6083 1.48897 23.6083 1.22478 23.5843 0.936582C23.5603 0.612355 23.4882 0.468254 23.176 0.396204C23.104 0.372187 22.9359 0.372187 22.8158 0.372187C22.7077 0.372187 22.6597 0.34817 22.6597 0.288128C22.6597 0.228086 22.7197 0.204069 22.8638 0.204069C23.116 0.204069 23.3922 0.216078 23.6203 0.216078C23.8605 0.228086 24.0767 0.240095 24.2088 0.240095C24.509 0.240095 26.3703 0.240095 26.5504 0.228086C26.7305 0.204069 26.8746 0.192061 26.9587 0.168044C27.0067 0.156036 27.0668 0.132019 27.1148 0.132019C27.1628 0.132019 27.1748 0.168044 27.1748 0.216078C27.1748 0.27612 27.1268 0.396204 27.1028 0.828507C27.0908 0.924574 27.0788 1.33286 27.0547 1.45294C27.0427 1.50098 27.0307 1.56102 26.9587 1.56102C26.8986 1.56102 26.8746 1.51299 26.8746 1.42893C26.8746 1.36888 26.8626 1.20077 26.8146 1.09269C26.7545 0.924574 26.6585 0.816498 26.1901 0.756456C26.034 0.732439 25.0493 0.720431 24.8572 0.720431C24.8092 0.720431 24.7972 0.744448 24.7972 0.816498V3.19416C24.7972 3.2542 24.8092 3.30224 24.8572 3.30224C25.0613 3.30224 26.1421 3.30224 26.3583 3.27822C26.5864 3.2542 26.7185 3.23019 26.8026 3.13412C26.8626 3.06207 26.9106 3.01404 26.9467 3.01404C26.9827 3.01404 27.0067 3.03805 27.0067 3.08609C27.0067 3.14613 26.9707 3.29023 26.9347 3.77057C26.9227 3.9627 26.8986 4.33496 26.8986 4.395C26.8986 4.46705 26.8986 4.57513 26.8146 4.57513C26.7545 4.57513 26.7305 4.5391 26.7305 4.49107C26.7185 4.395 26.7185 4.27492 26.6945 4.15484C26.6465 3.9627 26.5144 3.83061 26.1661 3.79458C25.986 3.77057 25.0613 3.77057 24.8332 3.77057C24.7852 3.77057 24.7731 3.80659 24.7731 3.86663V4.61116C24.7731 4.93538 24.7611 5.78798 24.7731 6.06417C24.7972 6.71263 24.9413 6.85673 25.9019 6.85673C26.1421 6.85673 26.5384 6.85673 26.7786 6.74865C27.0187 6.64058 27.1388 6.43643 27.1988 6.05216C27.2229 5.94409 27.2349 5.90806 27.3069 5.90806C27.379 5.90806 27.379 5.98011 27.379 6.07618C27.379 6.29233 27.3069 6.92878 27.2589 7.12091C27.1988 7.36108 27.1148 7.36108 26.7545 7.36108C26.046 7.36108 25.5417 7.33706 25.1334 7.33706C24.7251 7.31305 24.4369 7.31305 24.1607 7.31305C24.0526 7.31305 23.8485 7.31305 23.6203 7.32505C23.4042 7.32505 23.164 7.34907 22.9719 7.34907C22.8518 7.34907 22.7798 7.32505 22.7798 7.253C22.7798 7.20497 22.8158 7.18095 22.9239 7.18095C23.068 7.18095 23.176 7.15694 23.2601 7.14493C23.4522 7.1089 23.5003 6.90476 23.5363 6.62857C23.5843 6.23229 23.5843 5.49978 23.5843 4.63517V2.91797" fill="#0D1853"/>
<path d="M33.6116 7.16891C33.2394 7.31301 32.6389 7.40908 32.1346 7.40908C29.3847 7.40908 28.3159 5.37966 28.3159 3.68648C28.3159 2.16141 29.4087 0.0599365 32.1586 0.0599365C34.4042 0.0599365 35.9533 1.41689 35.9533 3.61442C35.9533 5.25958 34.9085 6.30431 34.3201 6.70058L36.2054 7.66126C38.1868 8.66996 39.4357 8.77804 40.0721 8.77804C40.5645 8.77804 41.249 8.70599 41.8974 8.45381C41.9575 8.4298 42.0055 8.40578 42.0415 8.40578C42.0896 8.40578 42.1256 8.4418 42.1256 8.48984C42.1256 8.54988 42.0775 8.5739 42.0175 8.59791C41.4531 8.87411 40.3964 9.30641 39.0514 9.30641C37.6344 9.30641 36.6377 8.94616 35.0887 8.03352L33.6116 7.16891ZM34.6564 3.8666C34.6564 1.59701 33.2514 0.516256 31.9545 0.516256C30.7296 0.516256 29.6248 1.30881 29.6248 3.48233C29.6248 5.65585 30.9698 6.95276 32.4828 6.95276C33.2394 6.94075 34.6564 6.61653 34.6564 3.8666Z" fill="#0D1853"/>
<path d="M37.4784 2.91802C37.4784 1.48902 37.4784 1.22483 37.4544 0.936629C37.4304 0.612402 37.3584 0.468302 37.0461 0.396251C36.9741 0.372234 36.806 0.372234 36.6859 0.372234C36.5778 0.372234 36.5298 0.348217 36.5298 0.288175C36.5298 0.228133 36.5898 0.204117 36.7339 0.204117C37.2263 0.204117 37.8267 0.228133 38.1029 0.228133C38.331 0.228133 38.9195 0.204117 39.2557 0.204117C39.3998 0.204117 39.4598 0.228133 39.4598 0.288175C39.4598 0.348217 39.3998 0.372234 39.3157 0.372234C39.2077 0.372234 39.1596 0.384243 39.0395 0.396251C38.7874 0.444285 38.7153 0.600394 38.6913 0.936629C38.6673 1.23684 38.6673 1.50102 38.6673 2.91802V4.22693C38.6673 5.58388 38.9435 6.16029 39.3998 6.53255C39.8201 6.88079 40.2524 6.91682 40.5766 6.91682C40.9849 6.91682 41.4893 6.78472 41.8735 6.41246C42.3899 5.8961 42.4139 5.05551 42.4139 4.08283V2.90601C42.4139 1.47701 42.4139 1.21282 42.3899 0.924621C42.3659 0.600394 42.2938 0.456293 41.9816 0.384243C41.9096 0.360226 41.7414 0.360226 41.6454 0.360226C41.5373 0.360226 41.4893 0.336209 41.4893 0.276167C41.4893 0.216125 41.5493 0.192108 41.6814 0.192108C42.1617 0.192108 42.7501 0.216125 42.7621 0.216125C42.8702 0.216125 43.4706 0.192108 43.8309 0.192108C43.963 0.192108 44.023 0.216125 44.023 0.276167C44.023 0.336209 43.963 0.360226 43.8549 0.360226C43.7468 0.360226 43.6988 0.372234 43.5787 0.384243C43.3265 0.432276 43.2545 0.588386 43.2305 0.924621C43.2065 1.22483 43.2065 1.48902 43.2065 2.90601V3.91471C43.2065 4.95944 43.0984 6.06422 42.3178 6.73669C41.6574 7.31309 40.9729 7.40916 40.3725 7.40916C39.8801 7.40916 38.9795 7.38514 38.295 6.76071C37.8147 6.3284 37.4664 5.63192 37.4664 4.27497V2.91802" fill="#0D1853"/>
<path d="M45.6801 2.91797C45.6801 1.48897 45.6801 1.22479 45.6561 0.936584C45.6321 0.612357 45.548 0.456248 45.3319 0.408214C45.2238 0.384197 45.1037 0.372189 44.9957 0.372189C44.8996 0.372189 44.8516 0.348172 44.8516 0.276121C44.8516 0.216079 44.9236 0.204071 45.0797 0.204071C45.44 0.204071 46.0284 0.228088 46.3046 0.228088C46.5447 0.228088 47.0971 0.204071 47.4454 0.204071C47.5655 0.204071 47.6375 0.228088 47.6375 0.276121C47.6375 0.348172 47.5775 0.372189 47.4814 0.372189C47.3853 0.372189 47.3133 0.384197 47.2052 0.396206C46.953 0.444239 46.881 0.600349 46.857 0.936584C46.833 1.23679 46.8329 1.50098 46.8329 2.91797V4.56312C46.8329 5.47576 46.8329 6.20827 46.869 6.61656C46.893 6.86874 46.965 7.03685 47.2412 7.07288C47.3733 7.0969 47.5775 7.1089 47.7216 7.1089C47.8296 7.1089 47.8777 7.13292 47.8777 7.18095C47.8777 7.241 47.8056 7.27702 47.6976 7.27702C47.0731 7.27702 46.4847 7.25301 46.2325 7.25301C46.0164 7.25301 45.428 7.27702 45.0557 7.27702C44.9356 7.27702 44.8636 7.25301 44.8636 7.18095C44.8636 7.13292 44.8996 7.1089 45.0077 7.1089C45.1518 7.1089 45.2598 7.08489 45.3439 7.07288C45.536 7.03685 45.5841 6.88074 45.6201 6.60455C45.6681 6.20827 45.6681 5.47576 45.6681 4.56312V2.91797" fill="#0D1853"/>
<path d="M50.9033 4.56317C50.9033 5.76401 50.9033 6.41246 51.0955 6.58058C51.2516 6.72468 51.5038 6.78472 52.2243 6.78472C52.7166 6.78472 53.0889 6.77272 53.317 6.52054C53.4251 6.40045 53.5452 6.13627 53.5572 5.95614C53.5692 5.87209 53.5812 5.81204 53.6653 5.81204C53.7253 5.81204 53.7373 5.86008 53.7373 5.96815C53.7373 6.07623 53.6773 6.77272 53.5932 7.04891C53.5332 7.25305 53.4851 7.30109 53.0048 7.30109C52.3323 7.30109 51.84 7.27707 51.4197 7.27707C50.9994 7.25305 50.6632 7.25305 50.2789 7.25305C50.1708 7.25305 49.9667 7.25305 49.7505 7.26506C49.5344 7.26506 49.2942 7.28908 49.1021 7.28908C48.982 7.28908 48.9099 7.26506 48.9099 7.19301C48.9099 7.14498 48.946 7.12096 49.054 7.12096C49.1981 7.12096 49.3062 7.09694 49.3903 7.08493C49.5824 7.04891 49.6304 6.84477 49.6665 6.56857C49.7145 6.1723 49.7145 5.43978 49.7145 4.57518V2.91802C49.7145 1.48902 49.7145 1.22483 49.6905 0.936629C49.6665 0.612402 49.5944 0.468302 49.2822 0.396251C49.2342 0.372234 49.1141 0.360226 48.994 0.360226C48.8859 0.360226 48.8379 0.336209 48.8379 0.276167C48.8379 0.216125 48.8979 0.192108 49.042 0.192108C49.4863 0.192108 50.0748 0.216125 50.3269 0.216125C50.5551 0.216125 51.2396 0.192108 51.5998 0.192108C51.7319 0.192108 51.792 0.216125 51.792 0.276167C51.792 0.336209 51.7319 0.360226 51.6238 0.360226C51.5158 0.360226 51.3717 0.372234 51.2636 0.384243C51.0114 0.432276 50.9394 0.588386 50.9153 0.924621C50.8913 1.22483 50.8913 1.48902 50.8913 2.90601V4.56317" fill="#0D1853"/>
<path d="M56.1514 4.83939C56.1033 4.83939 56.0913 4.8634 56.0673 4.91144L55.5629 6.25638C55.4669 6.49655 55.4188 6.7127 55.4188 6.83278C55.4188 7.0009 55.5029 7.12099 55.7911 7.12099H55.9352C56.0433 7.12099 56.0793 7.145 56.0793 7.19304C56.0793 7.26509 56.0193 7.2891 55.9232 7.2891C55.623 7.2891 55.2147 7.26509 54.9265 7.26509C54.8184 7.26509 54.3021 7.2891 53.8217 7.2891C53.7016 7.2891 53.6416 7.26509 53.6416 7.19304C53.6416 7.13299 53.6776 7.12099 53.7497 7.12099C53.8337 7.12099 53.9658 7.10898 54.0379 7.09697C54.4702 7.03693 54.6503 6.72471 54.8304 6.25638L57.1841 0.372261C57.2922 0.0960672 57.3522 0 57.4483 0C57.5323 0 57.5924 0.0840589 57.6884 0.30021C57.9166 0.816572 59.4176 4.63524 60.0181 6.06425C60.3783 6.90483 60.6425 7.03693 60.8466 7.08496C60.9907 7.10898 61.1228 7.12099 61.2429 7.12099C61.315 7.12099 61.363 7.13299 61.363 7.19304C61.363 7.26509 61.2789 7.2891 60.9307 7.2891C60.5825 7.2891 59.91 7.2891 59.1535 7.26509C58.9853 7.25308 58.8773 7.25308 58.8773 7.19304C58.8773 7.13299 58.9133 7.12099 59.0094 7.10898C59.0694 7.08496 59.1415 7.0009 59.0934 6.89283L58.3489 4.89943C58.3249 4.8514 58.3009 4.83939 58.2528 4.83939H56.1514ZM58.0607 4.37106C58.1087 4.37106 58.1207 4.34704 58.1087 4.31102L57.2681 1.9934C57.2561 1.95737 57.2441 1.90934 57.2201 1.90934C57.1961 1.90934 57.1721 1.95737 57.1601 1.9934L56.2955 4.29901C56.2834 4.33503 56.2955 4.35905 56.3315 4.35905H58.0607V4.37106Z" fill="#0D1853"/>
<path d="M19.5977 50.1712C21.3509 47.8656 23.8487 46.2204 26.4185 45.2478C28.7 44.4672 31.0777 43.8908 33.6715 43.7947C34.0198 43.7827 34.308 43.8908 34.5601 44.107C35.0405 44.107 35.4248 43.7587 35.8931 43.6386C37.8865 42.8221 40.4082 43.0983 42.2335 44.0709C42.3656 44.0709 42.4737 44.203 42.6058 44.191C43.0741 43.5065 43.9627 43.9388 44.6592 43.8908C48.4178 44.3711 52.1164 45.3198 55.1065 47.6975C56.7637 49.0064 58.1927 50.6756 58.9252 52.5729C59.2614 53.2574 59.4536 54.0019 59.5857 54.7824C59.5977 55.5149 59.6577 56.3435 59.2734 56.9439C58.9252 57.7605 58.2167 58.457 57.3161 58.6011C56.8357 58.6131 56.3194 58.5891 55.8991 58.397C55.2386 58.6491 54.5541 59.0094 53.7256 58.8893C52.897 58.8053 52.1525 58.1568 51.8763 57.3883L51.7802 56.98C51.3719 56.8599 50.9756 56.7038 50.6154 56.4516C50.2431 57.4603 49.3785 58.6011 48.2257 58.7332C47.6253 58.7812 47.0969 58.457 46.7967 57.9647C46.6406 57.7005 46.5806 57.3883 46.5085 57.076C45.9801 56.8599 45.5118 56.3195 45.5238 55.7311C45.5118 54.9746 45.9681 54.3621 46.1122 53.6536C46.7487 51.6963 46.4365 49.3426 45.4518 47.6374C45.0195 46.8689 44.383 46.1724 43.6385 45.656C43.2542 45.5119 42.7139 45.3678 42.5818 44.9235C40.2161 43.7587 37.0819 43.7347 34.6682 44.8395C34.5121 45.4999 33.7796 45.4639 33.3593 45.7641C32.1705 46.6648 31.474 47.9617 31.0417 49.2946C30.7895 50.3513 30.6214 51.3961 30.8616 52.5008C31.0177 53.4735 31.3299 54.3741 31.6661 55.2628C31.7382 55.7791 31.6901 56.3315 31.2939 56.6678C31.1137 56.8599 30.8856 56.956 30.6934 57.1001C30.5974 57.7485 30.2131 58.505 29.5166 58.6732C28.5319 58.9013 27.7034 58.2769 27.151 57.5324C26.9228 57.1961 26.7907 56.8119 26.5986 56.4516C26.4064 56.4876 26.2383 56.6678 26.0462 56.7398C25.842 56.8479 25.5779 56.8479 25.4097 56.992C25.3137 57.7605 24.6772 58.493 23.9567 58.7332C23.4884 58.9013 22.912 58.9373 22.4197 58.7932C22.0234 58.7452 21.6991 58.493 21.3269 58.3729C20.6664 58.5531 19.7178 58.7092 19.1293 58.2769C18.3368 57.8566 17.8805 57.016 17.6643 56.1994C17.6283 55.7311 17.5683 55.3348 17.6283 54.8545C17.6163 54.2661 17.8685 53.7377 17.9886 53.1853C18.3968 52.1406 18.9012 51.1199 19.5977 50.1712ZM18.4929 53.2814C18.0606 54.5062 17.7244 56.4636 18.8411 57.4963C19.3095 58.1808 20.2581 58.1568 20.9786 58.0127C21.447 57.5804 21.8432 58.2288 22.2756 58.3129C22.6118 58.397 22.96 58.469 23.3203 58.409C24.0168 58.3609 24.7253 57.8326 24.9174 57.1601C25.0375 56.956 24.7853 56.6437 25.0615 56.5116C25.3137 56.4876 25.5178 56.4996 25.746 56.4276C26.5385 56.0673 27.139 55.2147 27.259 54.3982C27.8354 50.7716 29.5526 46.7488 33.2032 45.3198C33.5154 45.1157 34.0798 45.2237 34.1519 44.7434C34.1759 44.5152 33.9477 44.3591 33.7676 44.2751C31.7862 44.3231 29.9129 44.6473 28.0876 45.1877C27.8354 45.2958 27.5472 45.3078 27.3071 45.4279C24.4971 46.2685 21.8432 48.0217 19.9579 50.4354C19.3095 51.312 18.8411 52.2727 18.4929 53.2814ZM19.2014 53.8218C18.9612 54.194 18.8171 54.6143 18.7451 55.0586C18.649 55.9112 18.8532 56.7518 19.5256 57.2322C19.8499 57.4723 20.3302 57.4363 20.6784 57.2922C20.9786 57.088 21.2548 56.8239 21.1948 56.4276C20.3302 55.8031 19.7778 54.8785 19.5617 53.8698C19.5496 53.7497 19.4055 53.7137 19.2975 53.7257C19.2374 53.7257 19.2374 53.7977 19.2014 53.8218ZM19.3455 54.6143C19.4776 54.7704 19.4896 55.0106 19.5857 55.1907C19.8258 55.6951 20.2101 56.2114 20.6784 56.5477C20.7505 56.7158 20.5103 56.7998 20.4142 56.8959C20.2341 56.98 19.9699 56.956 19.8138 56.8599C19.2014 56.4996 19.1414 55.7551 19.1774 55.1067C19.2134 54.9265 19.2134 54.7224 19.3455 54.6143ZM21.2188 49.871C20.102 51.0118 19.7418 52.693 20.2581 54.23C20.4503 54.6023 20.5944 55.0226 20.9306 55.2868C21.3629 55.6831 21.8793 55.9833 22.4797 55.8032C23.0441 55.623 23.4404 55.1067 23.5725 54.5423C23.8727 53.2694 23.3563 52.0205 22.3956 51.2159C22.0234 50.9277 21.5911 50.8077 21.1468 50.7236C21.6391 49.9551 22.4197 49.2946 23.3683 49.4027C23.7886 49.4027 24.1489 49.7629 24.317 50.1352C24.353 50.4354 24.1369 50.6515 23.9327 50.8437C23.7526 50.9397 23.5484 50.9878 23.3323 50.9518C23.2242 50.9277 23.1281 50.8437 23.0201 50.8797C22.96 50.9277 22.9 50.9998 22.948 51.0838C23.1882 51.3961 23.5604 51.372 23.9207 51.312C24.317 51.2279 24.5091 50.7836 24.6532 50.4594C24.8093 49.9791 24.5331 49.5708 24.1849 49.2466C23.6925 48.8743 22.924 48.8022 22.3596 49.0784C21.9153 49.2466 21.5671 49.5468 21.2188 49.871ZM20.8345 51.24C21.6271 51.2039 22.3236 51.6362 22.7559 52.2967C23.2002 53.0172 23.3443 54.0259 22.984 54.8185C22.8279 55.1667 22.4437 55.3829 22.0714 55.4189C21.3869 55.3468 20.8586 54.6263 20.6424 54.0019C20.4623 53.3174 20.4142 52.6209 20.5824 51.9364C20.6664 51.7083 20.6904 51.4441 20.8345 51.24ZM21.6871 56.8599C21.8192 57.3402 22.3476 57.5924 22.7679 57.7365C23.2722 57.8686 23.8366 57.7725 24.1609 57.3762C24.293 57.1841 24.317 56.8839 24.2329 56.6557C24.1369 56.3315 23.8366 56.0433 23.4884 55.9953C22.9961 56.3315 22.4437 56.5116 21.8312 56.5957C21.7352 56.6557 21.6391 56.7158 21.6871 56.8599ZM22.4917 56.9439C22.912 56.9079 23.2362 56.6918 23.6085 56.5717C23.7046 56.7158 23.8487 56.8479 23.7766 57.052C23.6205 57.3282 23.2362 57.2802 22.948 57.2682C22.7439 57.2442 22.5517 57.1001 22.4076 56.98L22.4917 56.9439ZM23.5725 48.3579C24.0768 48.3219 24.5211 48.5261 24.9174 48.8263C25.0375 48.8623 25.0975 48.9944 25.2656 48.9584C26.6226 47.6254 28.1597 46.5807 29.7928 45.8482C29.9249 45.8122 29.9849 45.656 29.9249 45.536C29.8408 45.4039 29.6727 45.3799 29.5286 45.4159C27.2951 45.8242 25.2416 46.6527 23.3803 47.9136C23.3203 48.0817 23.4043 48.2979 23.5725 48.3579ZM23.8487 52.1286C24.293 52.9211 24.2449 54.0619 24.0528 54.9385C23.9807 55.0466 23.9687 55.1907 23.9807 55.3228C24.2209 55.623 24.6532 55.4669 24.9774 55.4429C25.6259 55.2868 26.2503 54.6744 26.3944 54.0259C26.5505 53.3174 26.3344 52.6089 25.818 52.1286C25.3497 51.6963 24.6292 51.5402 24.0048 51.6963C23.8366 51.7923 23.8006 51.9485 23.8487 52.1286ZM25.2777 47.3252C26.0702 46.9049 26.9348 46.6167 27.7754 46.3766C26.8868 46.977 25.9621 47.6494 25.1456 48.406C24.8453 48.3099 24.5692 48.0577 24.2329 47.9857C24.4971 47.6615 24.9414 47.5654 25.2777 47.3252ZM24.5451 52.0325C25.1095 52.0445 25.6379 52.4288 25.8781 52.9091C26.1302 53.3534 26.0702 54.0019 25.77 54.3862C25.5058 54.8064 25.0135 55.0466 24.5331 55.0106C24.6052 54.2661 24.8213 53.3774 24.5451 52.6329C24.4971 52.4408 24.4251 52.2607 24.413 52.0565L24.5451 52.0325ZM25.5298 50.0391C25.6019 50.2553 25.4578 50.5195 25.6139 50.6876C26.0582 50.9157 26.3344 51.36 26.6346 51.7443C26.8027 51.8884 26.6946 52.1406 26.8628 52.2847C26.9588 52.3447 27.0909 52.3327 27.175 52.2607C27.7394 50.2673 28.64 48.3339 30.2011 46.8329C30.3332 46.6047 30.7535 46.5567 30.6454 46.2324C30.5854 46.0883 30.4293 46.0763 30.2972 46.1124C28.5079 46.953 26.8748 48.1178 25.4097 49.5588C25.3377 49.7389 25.4938 49.883 25.5298 50.0391ZM25.9501 49.7389C26.8628 48.8143 27.8835 47.9977 28.9882 47.3732H29.0723C28.0996 48.5981 27.4632 49.943 26.9588 51.348C26.6706 51.0838 26.4064 50.7116 26.0582 50.5074C26.0222 50.3633 26.0702 50.1952 26.0102 50.0271C25.9982 49.919 25.9261 49.847 25.9501 49.7389ZM26.9949 56.1154C27.0669 56.4996 27.223 56.8599 27.4512 57.1721C27.8715 57.7845 28.5199 58.3609 29.3005 58.2529C29.7568 58.1688 30.081 57.7485 30.1531 57.3162C30.1771 57.1241 30.093 56.8599 30.2491 56.7038C30.5493 56.6557 30.8255 56.5237 31.0177 56.2595C31.2098 55.9953 31.2819 55.611 31.1738 55.2748C30.3572 53.4135 29.9489 50.9758 30.6934 48.9584C31.0057 48.0817 31.3779 47.2412 31.9663 46.5086L31.7982 46.5927C30.2852 47.6975 29.2765 49.3306 28.652 50.9878C28.1236 52.2126 27.8955 53.5696 27.5953 54.9025C27.5112 55.3588 27.199 55.6951 26.9949 56.1154ZM28.5079 53.4615C28.3638 54.4822 28.2798 55.5149 28.4719 56.5477C28.616 56.7278 28.7601 56.8839 28.9642 56.956C29.2164 57.052 29.4566 56.9199 29.6487 56.7758C29.8048 56.4996 29.9129 56.2114 29.9009 55.8872C29.9369 55.7911 30.045 55.7671 30.129 55.7551C30.4293 55.599 30.4653 55.2628 30.4293 54.9746C29.997 53.8458 29.8649 52.5489 29.8408 51.288C29.8288 51.0838 29.9249 50.8797 29.8529 50.6996C29.8168 50.6155 29.7328 50.5675 29.6367 50.5675C29.5046 50.6155 29.3365 50.6395 29.3005 50.8077C28.9282 51.6482 28.676 52.5369 28.5079 53.4615ZM29.3485 52.1166C29.4686 52.729 29.4806 53.3294 29.6127 53.9418C29.6607 54.3862 29.9249 54.7584 29.8889 55.2267C29.7448 55.4189 29.4926 55.5149 29.4566 55.7671C29.4326 55.9593 29.5166 56.1754 29.3965 56.3555C29.3245 56.4636 29.1684 56.4996 29.0603 56.4396C28.7601 56.2355 28.8682 55.8392 28.8081 55.551C28.8321 54.3862 28.9162 53.1493 29.3485 52.1166ZM30.9216 42.9902C30.9696 43.1463 31.1017 43.3384 31.2698 43.3865C31.474 43.4825 31.7382 43.4105 31.8943 43.2544C32.0504 43.0862 32.1104 42.8101 32.0024 42.5939C31.6541 42.3057 32.0264 41.8974 32.0864 41.5732C32.6508 40.0962 33.1311 38.5591 34.284 37.3342C34.7163 36.962 35.1966 36.4336 35.809 36.6858C36.8417 37.3222 37.0339 38.5351 37.0819 39.6999C36.9258 39.7839 36.8658 39.9641 36.6616 40.0241C36.6016 39.832 36.5295 39.6518 36.4335 39.4837C36.0252 38.9433 35.4488 38.5471 34.7163 38.6912C34.0918 38.7872 33.5274 39.3276 33.3833 39.94C33.2753 40.4204 33.3833 40.9247 33.6355 41.297C34.0078 41.8734 34.6682 42.1736 35.3767 42.0415C35.8691 41.9334 36.3134 41.5492 36.5535 41.0929C37.7424 40.5645 39.4236 40.5164 40.5884 41.1049L40.9726 41.6092C41.3089 41.9334 41.7652 42.1256 42.2215 42.0535C42.846 42.0535 43.4464 41.5732 43.6505 41.0208C43.7826 40.6245 43.8306 40.1202 43.6385 39.7239C43.3383 39.0754 42.7259 38.6792 42.0174 38.7032C41.501 38.7392 41.0087 39.0274 40.7325 39.4357C40.6124 39.6518 40.5283 39.832 40.4683 40.0601C40.2882 40.0001 40.2281 39.7959 40.048 39.7359L40.096 38.9073C40.2161 38.0307 40.5283 37.046 41.3929 36.6617C41.8973 36.4936 42.2695 36.8899 42.6178 37.1421C44.0828 38.5471 44.6232 40.5164 45.2116 42.3898C45.0195 42.5819 44.9354 42.8821 45.0435 43.1343C45.1396 43.2664 45.2716 43.4225 45.4398 43.4465C45.6199 43.4825 45.8 43.4345 45.9321 43.3264C46.0882 43.1943 46.1363 43.0142 46.1242 42.8101C46.0882 42.5699 45.8721 42.3657 45.6439 42.2817C45.4157 41.4411 45.0555 40.6605 44.7673 39.844C44.2029 38.5231 43.5064 37.022 42.1134 36.2895C41.5851 36.0253 40.9606 36.2415 40.5644 36.6137C39.9039 37.4063 39.6637 38.427 39.5797 39.4717C39.1354 39.3156 38.631 39.2075 38.1387 39.2916C37.9105 39.3156 37.6943 39.4237 37.4782 39.4357C37.4542 39.1115 37.3821 38.7992 37.3341 38.475C37.142 37.5864 36.7937 36.5056 35.797 36.2174C34.9204 36.0133 34.284 36.6978 33.7076 37.2862C32.5547 38.7272 32.0144 40.3964 31.426 42.0535C31.462 42.3657 31.1017 42.2817 30.9816 42.4978C30.9576 42.6299 30.8856 42.786 30.9216 42.9902ZM31.8222 48.6461C31.2578 49.919 31.45 51.5161 31.8102 52.8251C32.879 55.9232 35.6169 58.6491 38.619 60.0301C39.0993 59.814 39.5797 59.5858 40.036 59.2856C42.93 57.4723 45.4758 54.4342 45.752 51.0118C45.8601 49.0664 45.0435 47.2532 43.3743 46.2084C40.8405 44.4912 36.8417 44.3952 34.2359 46.0043C33.2272 46.5807 32.2065 47.5534 31.8222 48.6461ZM32.0264 49.859C32.1224 49.9791 32.5668 49.9671 32.3146 50.2192L31.9543 50.9518L31.9183 50.9397C31.8823 50.5435 31.9423 50.1952 32.0264 49.859ZM32.0384 51.8404C32.3026 51.312 32.5067 50.7596 32.8069 50.2673C32.975 50.2793 33.1071 50.3994 33.2392 50.4594C32.927 51.24 32.6148 52.0205 32.2786 52.801C32.1585 52.5128 32.0744 52.1886 32.0384 51.8404ZM33.6715 50.6395C33.8517 50.6756 34.0078 50.7356 34.1759 50.7956V50.8917L33.3833 53.2694C33.1552 53.2213 32.927 53.1493 32.7229 53.0412C33.0111 52.2367 33.3353 51.4321 33.6715 50.6395ZM33.8877 46.7728C34.0438 46.5207 34.2599 46.7128 34.4281 46.7968L33.3593 49.1985C33.1432 49.1385 32.951 49.0184 32.7709 48.9103C33.1432 48.1898 33.4674 47.4453 33.8877 46.7728ZM33.2632 54.4702L33.8036 54.6143C33.8036 54.8665 33.6955 55.1067 33.6235 55.3468C33.4434 55.1787 33.3353 54.9265 33.1792 54.7104C33.1792 54.6263 33.2152 54.5423 33.2632 54.4702ZM34.7883 46.965C34.9444 47.013 35.1366 47.037 35.2686 47.1331C35.0405 47.9737 34.7403 48.7902 34.4401 49.6068C34.1999 49.5588 33.9717 49.4627 33.7796 49.3546C34.1278 48.5621 34.404 47.7455 34.7883 46.965ZM34.5722 50.9998C34.7403 50.9638 34.9564 51.0118 35.0885 51.1079C34.9204 51.9485 34.6802 52.753 34.4761 53.5816C34.2599 53.6056 34.0438 53.5095 33.8517 53.4375C34.0558 52.5969 34.332 51.8044 34.5722 50.9998ZM34.2359 54.7704C34.4281 54.7584 34.6442 54.8185 34.8243 54.8785C34.7523 55.4189 34.6202 55.9352 34.5241 56.4636H34.4761L33.9717 55.8632C34.0318 55.4909 34.1278 55.1307 34.2359 54.7704ZM34.2119 39.4117C34.5601 39.1835 35.0525 39.0274 35.4488 39.2195C35.785 39.3636 36.0732 39.6518 36.1813 39.9881C36.3134 40.4084 36.1933 40.8407 35.9531 41.1649C35.6649 41.5492 35.1726 41.6332 34.7043 41.5372C34.296 41.3931 33.8997 40.9968 33.8156 40.5525C33.7316 40.0962 33.9357 39.7359 34.2119 39.4117ZM35.3287 54.9986L35.8571 55.0706V55.3228C35.725 56.0313 35.6769 56.7758 35.5208 57.4723C35.3167 57.3042 35.0765 57.1121 34.9204 56.9079L35.2807 55.0586L35.3287 54.9986ZM34.8844 43.1943C37.0219 42.0775 40.036 42.0535 42.1855 43.1463C42.2816 43.1823 42.4136 43.2904 42.4977 43.1583L42.2215 42.726C40.6964 41.249 38.1747 40.9127 36.2653 41.8134C35.713 42.1256 35.0525 42.3657 34.7283 42.9902C34.6802 43.0983 34.7283 43.2544 34.8844 43.1943ZM35.5208 51.2159L35.5689 51.1799C35.737 51.288 36.1693 51.1439 36.0612 51.4681L35.6289 53.8218C35.4007 53.8218 35.1606 53.7497 34.9444 53.7017C35.1245 52.8731 35.3047 52.0325 35.5208 51.2159ZM35.6529 47.2892C35.785 47.3012 35.9651 47.3132 36.0972 47.3973C35.9171 48.2379 35.6889 49.0784 35.4968 49.919C35.2927 49.931 35.0885 49.847 34.9084 49.7869C35.1366 48.9343 35.3887 48.1058 35.6529 47.2892ZM36.2653 55.1667C36.4575 55.2027 36.6616 55.1427 36.8538 55.2027C36.8057 56.0433 36.7697 56.9199 36.6496 57.7365C36.3974 57.7365 36.1453 57.7005 35.9171 57.6524C36.0012 56.8119 36.0972 55.9713 36.2653 55.1667ZM36.5055 47.5294C36.6376 47.4573 36.7817 47.5654 36.9378 47.5534L36.9979 47.6014C36.9138 48.478 36.7217 49.2946 36.6136 50.1592C36.3734 50.1712 36.1693 50.1112 35.9531 50.0511C36.0972 49.1865 36.3254 48.3699 36.5055 47.5294ZM36.4575 51.3841C36.6376 51.324 36.8297 51.4081 37.0219 51.4201C36.9858 52.2727 36.8538 53.1253 36.7697 53.9779C36.5415 54.0019 36.3014 53.9539 36.0852 53.9058C36.1693 53.0652 36.3014 52.2246 36.4575 51.3841ZM37.3101 55.2508C37.4902 55.2388 37.6943 55.2508 37.8745 55.2868L37.7904 57.7965C37.5623 57.8326 37.3221 57.8206 37.1179 57.7605L37.3101 55.2508ZM37.4061 51.4921C37.5623 51.4201 37.7424 51.4801 37.8985 51.4801L37.9345 51.5282L37.8625 53.0652H37.8384C37.8505 53.3654 37.8384 53.7497 37.8144 54.0739C37.6343 54.0739 37.3941 54.0859 37.19 54.0499C37.238 53.1973 37.3581 52.3567 37.4061 51.4921ZM37.4542 47.6494C37.6343 47.6014 37.8024 47.6615 37.9585 47.6975C37.9705 48.5981 37.8264 49.3787 37.8264 50.2793L37.7904 50.3153L37.1299 50.2433C37.238 49.3666 37.3101 48.502 37.4542 47.6494ZM38.3068 55.2988C38.4869 55.2267 38.667 55.3108 38.8712 55.2748L38.8952 55.3228L38.9552 57.7965L38.9192 57.8446C38.7031 57.8326 38.4509 57.8806 38.2467 57.8206L38.3068 55.2988ZM38.3548 51.5161C38.5349 51.5402 38.7511 51.4561 38.9312 51.5161L39.0033 54.0739C38.7751 54.134 38.5469 54.11 38.3068 54.098L38.2828 54.0499L38.3548 51.5161ZM38.3308 47.7095C38.4869 47.6134 38.643 47.7095 38.8472 47.6735L38.8952 47.7935C38.9192 48.5861 38.9792 49.4627 38.9552 50.2913C38.7271 50.3033 38.4869 50.3513 38.2707 50.2673L38.3308 47.7095ZM39.8559 55.2267L39.8919 55.2748L40.084 57.7605C39.8679 57.8086 39.6517 57.8206 39.4115 57.8206C39.3275 56.968 39.3155 56.1034 39.3035 55.2508L39.8559 55.2267ZM39.3515 47.6374C39.4956 47.6494 39.6397 47.5894 39.7598 47.6374C39.9159 48.478 40 49.3306 40.096 50.2072L40.048 50.2553C39.8318 50.2673 39.6037 50.3153 39.4115 50.2793C39.3395 49.4267 39.3155 48.5381 39.2434 47.6975L39.3515 47.6374ZM39.8799 51.4441L39.9519 51.5161L40.1921 53.9659C40.012 54.11 39.6877 54.0259 39.4836 54.0499C39.4236 53.1853 39.3515 52.2847 39.3635 51.4681L39.8799 51.4441ZM40.3362 47.5053L40.6604 47.4693C40.8405 48.3219 41.0927 49.1625 41.2128 50.0271C41.0207 50.1112 40.8045 50.1352 40.5764 50.1472C40.3842 49.3066 40.3242 48.418 40.1561 47.5654L40.3362 47.5053ZM40.3122 55.2147C40.4803 55.1427 40.6964 55.1427 40.8886 55.1427L41.2488 57.6284L41.2128 57.6765C41.0087 57.7245 40.7805 57.7245 40.5644 57.7485C40.4803 56.8959 40.3722 56.0553 40.3122 55.2147ZM40.5764 51.324L40.8886 51.288C41.0687 52.1286 41.2368 52.9692 41.3569 53.8338C41.1408 53.8938 40.9126 53.9058 40.6964 53.9539C40.5283 53.1133 40.4563 52.2487 40.3482 51.3841L40.5764 51.324ZM41.3209 39.4717C41.6331 39.1835 42.1134 39.0995 42.5337 39.2195C42.978 39.3036 43.2662 39.7599 43.3623 40.1682C43.4224 40.5285 43.2903 40.8527 43.0981 41.1169C42.7739 41.4771 42.3056 41.6933 41.8372 41.5492C41.3929 41.4771 41.0447 41.0208 40.9366 40.6125C40.8646 40.1682 41.0207 39.7839 41.3209 39.4717ZM41.2008 47.3012L41.5851 47.2171C41.8973 48.0097 42.1254 48.8383 42.4016 49.6669L42.3656 49.7269C42.1495 49.7749 41.9573 49.883 41.7172 49.907C41.501 49.0544 41.2488 48.2258 41.0807 47.3612L41.2008 47.3012ZM41.3689 55.0346L41.8853 54.9506L41.9333 55.0106L42.3296 56.956L41.7292 57.5324L41.6811 57.4603C41.5611 56.6678 41.441 55.8752 41.3089 55.0947L41.3689 55.0346ZM41.8252 51.1079C42.0654 51.9244 42.2816 52.765 42.4737 53.6056C42.2816 53.6777 42.0774 53.7257 41.8613 53.7617C41.6331 52.9692 41.513 52.1406 41.3209 51.336L41.3329 51.2279L41.8252 51.1079ZM42.4257 46.9049C42.7979 47.6855 43.1101 48.502 43.4464 49.2946C43.2662 49.4267 43.0621 49.4867 42.858 49.5468C42.5457 48.7422 42.2575 47.9256 41.9693 47.0971C42.0774 46.977 42.2695 46.953 42.4257 46.9049ZM42.858 54.7464C43.0021 55.1187 43.1101 55.539 43.2062 55.9472C43.0621 56.1754 42.882 56.3916 42.6778 56.5837C42.5097 56.0313 42.4016 55.4549 42.3056 54.8785L42.858 54.7464ZM42.2816 50.9518C42.4377 50.9157 42.5938 50.8437 42.7619 50.8197C43.0861 51.6242 43.3623 52.4408 43.5905 53.2814C43.3863 53.3654 43.1702 53.4255 42.942 53.4735C42.6898 52.681 42.4617 51.8764 42.2455 51.0598L42.2816 50.9518ZM43.0621 46.5687C43.1942 46.5327 43.2783 46.6648 43.3863 46.7368C43.7706 47.4213 44.1789 48.0938 44.4911 48.8143L43.9147 49.1145C43.5184 48.3459 43.1822 47.5414 42.7979 46.7728C42.8099 46.6287 42.978 46.6287 43.0621 46.5687ZM43.0381 44.8395C43.1702 45.1637 43.5184 45.1757 43.7946 45.2838C47.133 46.4366 48.8982 49.859 49.6427 52.9812C49.9669 54.098 49.9189 55.4069 50.9756 56.1634C51.3119 56.4756 51.7682 56.4996 52.1645 56.6437C52.3086 56.7758 52.2365 56.992 52.3086 57.1361C52.4407 57.7245 53.0411 58.2529 53.6175 58.397C54.338 58.5411 55.1546 58.421 55.6949 57.9046C56.0912 57.8926 56.4395 58.1688 56.8357 58.1568C57.136 58.1448 57.4242 58.1688 57.7003 58.0607C58.649 57.5924 59.2254 56.5597 59.1414 55.4549C58.9732 51.0478 55.1185 47.5894 51.3599 45.9683C49.0423 45.1037 46.7127 44.4192 44.0948 44.2991C43.7586 44.3111 43.3023 44.119 43.0981 44.5032C43.0741 44.6233 43.0021 44.7194 43.0381 44.8395ZM43.3623 50.5915C43.4704 50.5435 43.5785 50.4954 43.6985 50.4954C44.0468 51.276 44.359 52.0805 44.6832 52.8611C44.5151 53.0052 44.2629 53.0652 44.0468 53.1373C43.7226 52.3327 43.4344 51.5161 43.1702 50.6876L43.3623 50.5915ZM43.8426 54.4702C43.9267 54.5783 43.9867 54.7224 43.9867 54.8905L43.5665 55.5149H43.5184C43.4464 55.2147 43.3383 54.9385 43.2783 54.6263L43.8426 54.4702ZM44.0588 50.3273C44.2029 50.2553 44.359 50.1712 44.5271 50.1352L45.2596 51.6122C45.2596 51.9484 45.1756 52.2847 45.0555 52.5849C44.6832 51.8524 44.359 51.0838 44.0588 50.3273ZM45.1996 49.7629C45.3557 50.0511 45.3437 50.3874 45.3197 50.7356C45.1636 50.4834 45.0195 50.2072 44.8994 49.919L45.1996 49.7629ZM45.1756 46.5206L45.4037 46.8209C46.1122 47.7455 46.4845 48.8143 46.7367 49.931C47.133 51.4081 46.7847 53.0052 46.4004 54.3621C46.2683 54.7704 46.0642 55.1547 45.9801 55.587C45.9201 56.0193 46.1843 56.3555 46.4965 56.5837C46.6886 56.7398 47.181 56.7038 47.0609 57.1001C47.0129 57.5444 47.3011 57.9406 47.6253 58.1808C47.9495 58.3489 48.4058 58.3249 48.7301 58.1808C49.5346 57.7485 50.051 56.956 50.2311 56.1154C49.8709 55.6711 49.6307 55.1307 49.5226 54.5543C49.4506 54.3381 49.4506 54.146 49.3785 53.9178C48.9702 51.9244 48.3338 50.0271 47.1089 48.3699C46.5205 47.6614 45.9801 46.9289 45.1756 46.5206ZM46.4845 46.3766C46.4965 46.4846 46.6286 46.5327 46.7006 46.5927C48.0456 47.8056 48.9822 49.3907 49.6067 51.0238C49.7868 51.4201 49.8348 51.9004 50.015 52.2607C50.075 52.3087 50.1831 52.3327 50.2671 52.2967C50.3992 52.2246 50.3992 52.0565 50.4353 51.9124C50.7715 51.4441 51.0357 50.9277 51.5761 50.6515C51.7202 50.4354 51.552 50.2192 51.6481 49.9791C51.6961 49.847 51.8162 49.7269 51.7682 49.5708C50.3392 48.1178 48.634 46.9169 46.8447 46.1124H46.6286C46.4965 46.1604 46.5085 46.2805 46.4845 46.3766ZM46.7607 55.4069C46.8087 55.6951 47.1209 55.8031 47.3131 55.9472C47.3011 56.2595 47.3851 56.5597 47.5773 56.7998C47.7334 56.8839 47.8775 57.016 48.0816 56.992C48.4419 56.98 48.682 56.6197 48.7901 56.3075L48.8502 54.9506C48.8021 53.5576 48.5019 52.2727 48.0096 51.0718C47.9255 50.9157 47.8535 50.6876 47.6613 50.6275C47.5653 50.5675 47.4212 50.5915 47.3491 50.6876C47.3011 50.8077 47.3131 50.9758 47.3611 51.0959C47.3371 52.2847 47.2891 53.4975 46.9408 54.5783C46.8808 54.8665 46.6766 55.0706 46.7607 55.4069ZM47.4091 54.7944C47.6373 53.9058 47.8054 53.0172 47.8294 52.0805H47.8655C48.3218 53.3414 48.4899 54.7944 48.3458 56.1994C48.3218 56.3315 48.1897 56.4276 48.0936 56.4756C47.9375 56.5237 47.8294 56.4036 47.7694 56.2955C47.6253 55.9953 47.9255 55.7431 47.6133 55.5149C47.5172 55.4069 47.3131 55.4429 47.3011 55.2628C47.253 55.0586 47.3971 54.9506 47.4091 54.7944ZM47.265 45.8001C48.9222 46.5447 50.5433 47.6014 51.8643 48.9223L52.0324 48.9343C52.4166 48.7662 52.7169 48.394 53.1492 48.3579C53.3653 48.2859 53.6175 48.442 53.7616 48.2018C53.8096 48.1058 53.7976 47.9737 53.7496 47.8776C52.5247 47.049 51.1918 46.4486 49.8228 45.9683C49.0063 45.7401 48.1897 45.4639 47.3251 45.4039C47.169 45.4639 47.133 45.7041 47.265 45.8001ZM48.0576 47.3252C49.2224 47.9016 50.2912 48.7902 51.2038 49.6909C51.2038 49.9671 51.0957 50.1952 51.1197 50.4714C50.8075 50.6756 50.4953 51.0838 50.2191 51.336C49.6787 49.931 49.0183 48.5621 48.0576 47.3252ZM49.4386 46.3525C50.6634 46.7248 51.8402 47.2171 52.933 47.9496V47.9857C52.5848 48.0217 52.3206 48.2979 52.0204 48.418C51.1918 47.6374 50.2311 46.953 49.2945 46.3525H49.4386ZM50.9036 52.9091C50.6874 53.4495 50.7835 54.17 51.0957 54.6503C51.54 55.2868 52.2605 55.587 53.0531 55.539C53.1612 55.5149 53.2572 55.4189 53.2452 55.2988C53.0411 54.6503 52.945 53.8698 53.0411 53.1493C53.0891 52.729 53.2813 52.3567 53.3773 51.9605C53.3413 51.8404 53.2813 51.7443 53.1492 51.7083C52.5127 51.5882 51.8643 51.7083 51.3959 52.1286C51.1918 52.3447 51.0117 52.6209 50.9036 52.9091ZM51.9843 52.2487C52.2365 52.1526 52.5007 52.0445 52.8009 52.0805C52.6688 52.777 52.4287 53.4375 52.5728 54.206C52.5728 54.5062 52.6808 54.7584 52.7048 55.0466C52.3206 55.1307 51.9603 54.9385 51.6721 54.6984C51.3239 54.3501 51.0957 53.8818 51.1798 53.3775C51.2398 52.9091 51.5761 52.5128 51.9843 52.2487ZM52.5728 50.6636C52.8009 51.1079 53.2212 51.4561 53.7376 51.4081C53.9417 51.36 54.2059 51.288 54.2659 51.0598C54.1218 50.8077 53.8456 51.0959 53.5935 51.0118C53.2212 50.9758 53.0051 50.6275 52.909 50.3033C52.861 50.0871 53.0291 49.907 53.1612 49.7389C53.2092 49.6428 53.3293 49.7269 53.3533 49.6068C54.0138 49.2466 54.8424 49.5107 55.3827 49.9791C55.6949 50.1832 55.8751 50.4954 56.0792 50.7836C55.6709 50.9157 55.2506 51.0118 54.9024 51.264C53.8216 52.0325 53.3653 53.3414 53.6655 54.6624C53.7976 55.1907 54.2179 55.6951 54.7583 55.8632C55.4308 56.0193 56.0672 55.635 56.4995 55.1067C57.22 54.206 57.268 52.8491 57.0279 51.7203C56.9919 51.6002 56.9318 51.4921 56.9078 51.36C56.6436 50.6035 56.0672 49.919 55.3827 49.4627C54.7703 48.9944 53.8697 48.8143 53.1492 49.1625C52.6688 49.4747 52.3566 50.0631 52.5728 50.6636ZM52.933 57.1121C52.993 57.4483 53.3413 57.6885 53.6415 57.7725C54.2659 57.9166 54.8303 57.6645 55.2867 57.2922C55.3827 57.1121 55.6109 56.9439 55.6229 56.7158C55.5869 56.6557 55.5388 56.5717 55.4668 56.5477C54.8784 56.5837 54.326 56.4396 53.8697 56.1034C53.6535 55.8992 53.4494 56.1514 53.2572 56.2355C53.0411 56.4636 52.897 56.7638 52.933 57.1121ZM53.6655 56.5717C54.0138 56.7878 54.398 56.956 54.8303 56.992V57.04C54.4941 57.3162 53.9537 57.4123 53.5574 57.2201C53.4854 57.1721 53.4614 57.1001 53.4254 57.016C53.4254 56.8359 53.5214 56.6557 53.6655 56.5717ZM55.1426 51.6362C55.5148 51.4201 55.9351 51.324 56.3674 51.276C56.5355 51.5041 56.5595 51.8043 56.6556 52.0565C56.8718 53.2934 56.6556 54.6864 55.5508 55.3588C55.2146 55.563 54.7823 55.4189 54.4941 55.2027C53.9417 54.6263 53.9057 53.6056 54.1819 52.8971C54.386 52.3928 54.6742 51.9244 55.1426 51.6362ZM56.1753 56.992C56.4395 57.2922 56.7877 57.4603 57.208 57.4483C57.7484 57.4123 58.2047 56.8959 58.3608 56.4156C58.625 55.551 58.5409 54.4942 57.9765 53.7977C57.8805 53.7377 57.7604 53.7857 57.7003 53.8698C57.4842 54.8545 56.8838 55.8752 56.0192 56.4156C55.9471 56.6317 56.1152 56.7998 56.1753 56.992ZM56.5475 56.5717C57.208 56.1634 57.6163 55.4429 57.8565 54.7344C57.8805 54.7104 57.9165 54.6143 57.9645 54.6503C58.2407 55.3228 58.1567 56.1994 57.6643 56.7278C57.4722 56.9079 57.184 57.028 56.9078 56.9439C56.7397 56.9079 56.5475 56.7518 56.5475 56.5717Z" fill="#0D1853"/>
<path d="M75.4487 17.9885V28.4719H73.3352L73.4913 28.724H75.7009V17.8684C75.7009 16.2473 76.0491 15.6229 77.1058 15.3947L77.298 15.1305C75.857 15.3707 75.4487 15.9951 75.4487 17.9885Z" fill="#0D1853"/>
<path d="M74.2362 24.6051L74.2122 23.9927L69.8772 15.6228L71.2101 14.6982L71.03 14.506L69.5649 15.5027L74.2362 24.6051Z" fill="#0D1853"/>
<path d="M69.4322 27.9194H69.18L69.6003 28.4718H64.4487L64.7009 28.724H70.0446L69.4322 27.9194Z" fill="#0D1853"/>
<path d="M57.1001 12.7887L57.3403 13.0409H58.4931L61.1469 10.9034L60.9908 10.6993L58.397 12.7887H57.1001Z" fill="#0D1853"/>
<path d="M60.7264 14.7221V14.8542C62.5997 15.971 63.7045 18.3967 63.7045 21.3507C63.7045 25.6017 61.2188 28.5558 57.6643 28.5558C56.4514 28.5558 55.2026 28.1835 54.386 27.6071V27.6552C55.4667 28.4957 56.5475 28.868 57.8204 28.82C59.6337 28.7479 60.8105 28.1475 61.9633 26.9947C63.3683 25.5897 63.9687 23.5363 63.9687 21.2907C63.9567 18.2286 62.7318 15.6948 60.7264 14.7221Z" fill="#0D1853"/>
<path d="M47.1211 21.651C49.1265 20.8344 50.2073 19.5616 50.2073 17.9885C50.2073 17.0398 49.823 16.1392 49.1265 15.5267C49.751 16.4274 49.9671 16.9918 49.9671 17.7723C49.9671 18.9371 49.3907 20.0179 48.346 20.7264C47.9617 21.0026 47.5294 21.1947 46.7249 21.5069C47.8056 24.437 49.2706 26.8867 51.204 28.0515C49.823 28.4238 48.2619 29.2163 47.0971 29.9969L47.3133 30.165C48.9344 29.1563 49.9791 28.5919 51.7444 28.1356C49.5949 26.8627 48.0218 24.413 47.1211 21.651Z" fill="#0D1853"/>
<path d="M38.5588 23.0921L38.6669 23.3323C39.3754 23.0801 39.8678 22.96 40.252 22.8759V22.6118C40.252 22.6118 39.1713 22.8399 38.5588 23.0921Z" fill="#0D1853"/>
<path d="M45.4398 21.7951C45.4398 21.7951 43.7587 22.2394 42.7019 22.3475V26.8267L43.9268 28.4838H39.0874L39.3396 28.736H44.4191L42.9661 26.7426V22.6237C43.9268 22.4556 45.5239 22.0713 45.5239 22.0713L45.4398 21.7951Z" fill="#0D1853"/>
<path d="M20.5221 15.839L21.5668 14.6021L21.3267 14.506L20.2339 15.7789L22.0712 20.4262L22.3113 20.3421L20.5221 15.839Z" fill="#0D1853"/>
<path d="M22.9238 21.9152H23.152C23.4162 21.9152 24.3889 22.0593 25.0133 22.1193C24.4369 21.1586 23.9686 20.0899 23.8365 19.5135L23.5363 19.3214C23.7044 20.1019 23.9686 20.7383 24.545 21.7951C24.0526 21.735 23.8005 21.675 23.3682 21.651C22.8638 21.615 22.6957 21.687 22.5756 21.723L24.3889 26.8386L25.974 28.4597H20.6663L20.9184 28.7119H26.5624L24.605 26.6825L22.9238 21.9152Z" fill="#0D1853"/>
<path d="M30.1049 15.8629H28.9761C28.0034 15.8629 27.2949 16.1391 26.9707 16.6915C26.7785 16.9917 26.7185 17.376 26.6584 18.0725H26.9106C27.1388 16.4754 27.2108 16.0311 30.2009 16.1151V15.8629H30.1049Z" fill="#0D1853"/>
<path d="M35.0163 16.6435C34.7161 16.0191 34.2598 15.851 32.9269 15.851C32.8228 15.851 32.6707 15.859 32.4705 15.875V26.8747L34.0917 28.4838H28.7119L28.9641 28.736H34.7041L32.7227 26.7426V16.1392C34.584 16.1271 34.7041 16.3313 35.0163 16.6435Z" fill="#0D1853"/>
<path d="M5.99207 22.4436C7.82936 22.4436 8.68195 22.3595 9.61861 22.0954C11.4079 21.603 12.4286 20.2821 12.4286 18.4088C12.4286 17.0758 11.8402 15.911 10.9756 15.5027C11.8762 16.5595 12.1644 17.232 12.1644 18.3728C12.1644 20.9666 10.4352 22.1914 6.83266 22.1914C6.14818 22.1914 5.47571 22.1674 4.91131 22.1194V27.0428L6.16019 28.4718H1.3208L1.57298 28.724H6.78463L5.16349 26.9107V22.4196C5.51173 22.4436 5.69186 22.4436 5.99207 22.4436Z" fill="#0D1853"/>
<path d="M2.19743 22.1194L2.11337 22.1314C1.4409 22.1314 1.03261 22.2155 0.480225 22.5397L0.564283 22.7318C0.996586 22.5157 1.64504 22.3836 2.19743 22.4076H2.52165V22.1194H2.19743Z" fill="#0D1853"/>
<path d="M6.03992 16.0192H4.91113V21.2789H5.16331V16.2714H6.25607C7.68507 16.2714 8.36955 16.5356 8.88592 17.2441C8.36955 16.2594 7.82918 16.0192 6.03992 16.0192Z" fill="#0D1853"/>
<path d="M15.4422 25.7698C15.4422 25.0373 15.7064 24.0646 16.2587 22.8398L16.4629 22.6596L16.1867 22.2033C16.1867 22.2033 15.9705 22.7077 15.9345 22.8157C15.9345 22.8237 15.9305 22.8317 15.9225 22.8398C15.3701 24.2087 15.1299 25.0973 15.1299 25.8178C15.1299 26.7065 15.3821 27.0787 16.5229 28.4837H11.1191L11.3713 28.7359H17.0993C15.6943 26.9827 15.4422 26.6945 15.4422 25.7698Z" fill="#0D1853"/>
<path d="M20.5099 23.0201C20.5099 23.0201 18.9488 24.5331 18.2883 25.7219L18.5285 25.806C19.6573 24.1368 20.642 23.4043 20.642 23.4043L20.5099 23.0201Z" fill="#0D1853"/>
<path d="M57.4482 15.9831C58.1327 15.9831 58.9612 16.2713 59.5016 16.7637C59.1894 16.1632 58.1086 15.7309 57.4482 15.7309C56.3554 15.7309 55.6829 16.3434 55.1786 17.316C54.6502 18.3848 54.374 19.9819 54.374 21.7952C54.374 23.4763 54.5421 25.6979 56.4275 26.9828L56.4875 26.8987C56.4875 26.8987 55.8631 26.5145 55.2867 25.5778C54.8424 24.6772 54.6262 23.4403 54.6262 21.8072C54.6262 20.0419 54.9024 18.4809 55.4067 17.4481C55.8511 16.5475 56.4515 15.9831 57.4482 15.9831Z" fill="#0D1853"/>
<path d="M45.1031 15.5868C44.7669 15.5148 44.3706 15.4788 43.9263 15.4788C43.3619 15.4788 43.0857 15.5268 42.6895 15.6349V21.2908H42.9416V15.851C43.0737 15.827 43.1698 15.791 43.2779 15.779C43.47 15.7429 43.6381 15.7189 43.9383 15.7189C44.2025 15.7189 44.4547 15.7309 44.6828 15.767C44.875 15.791 45.0551 15.827 45.2232 15.863C45.9677 16.0432 46.4121 16.3914 46.6762 16.7517C46.376 16.0792 45.6795 15.7189 45.1031 15.5868Z" fill="#0D1853"/>
<path d="M69.2165 27.6793C68.604 27.295 68.2318 26.5265 68.1837 25.758C68.0997 25.2056 68.0757 24.389 68.0757 22.8639V17.6403H67.8235V22.8639C67.8235 25.2776 67.8835 25.9861 68.1597 26.6106C68.1837 26.6586 68.2078 26.7066 68.2318 26.7547C68.2438 26.7667 68.2438 26.7787 68.2558 26.8027C68.2678 26.8267 68.2798 26.8387 68.2918 26.8627C68.3038 26.8748 68.3038 26.8868 68.3158 26.8988C68.52 27.259 68.8082 27.5232 69.2045 27.7274L69.2165 27.6793Z" fill="#0D1853"/>
<path d="M15.6951 19.7898C15.4309 19.5377 14.6984 18.8412 14.5422 18.7091C14.5062 18.8051 14.4582 18.9012 14.4102 18.9733C14.6143 19.1054 15.1547 19.6337 15.563 20.054L15.6951 19.7898Z" fill="#0D1853"/>
<path d="M16.8959 20.7985L18.3489 16.9438L18.1088 16.8237L17.8806 17.4361L16.5957 20.8585C16.9439 21.1587 17.4003 21.6751 17.7845 22.1915C17.9046 22.3596 18.0247 22.5157 18.1328 22.6718C18.1568 22.7078 18.1808 22.7318 18.2048 22.7679C18.3129 22.924 18.469 23.1521 18.5531 23.2602L18.7572 23.0801C18.6371 22.936 17.3642 21.0987 16.8959 20.7985Z" fill="#0D1853"/>
<path d="M37.5743 14.9624L37.4663 15.1425C36.9139 16.0912 36.3975 16.9918 36.0613 18.0606L36.2414 18.1807C36.5776 17.0999 37.106 16.1993 37.6584 15.2386L37.7545 15.0825L37.5743 14.9624Z" fill="#0D1853"/>
<path d="M60.8224 10.3031L58.1445 12.3685H56.9917L58.5888 10.3031H60.8224Z" fill="#0D1853"/>
<path d="M29.7566 15.4906C27.9073 15.2745 26.1901 15.5867 26.082 17.8443H25.9499C25.6017 16.7275 25.1093 15.4666 24.4729 14.4819H37.2018C36.5774 15.5747 36.025 16.5234 35.7008 17.7122L35.6287 17.6522C35.4966 17.0277 35.3165 16.2592 34.8001 15.8389C34.4159 15.5267 33.7554 15.3946 32.9749 15.3946C32.6506 15.3946 31.8941 15.5026 31.8941 15.5026L31.8821 26.8146L33.119 28.0634H28.1835L29.7446 26.7305L29.7566 15.4906Z" fill="#0D1853"/>
<path d="M47.7809 25.0854C46.9643 23.8245 46.3159 22.5396 45.8355 21.2067C46.9163 20.9305 47.7689 20.4742 48.3813 19.8497C49.0057 19.2253 49.318 18.5048 49.318 17.7002C49.318 16.7035 48.8496 15.887 47.889 15.2505C45.3432 13.5213 41.4524 14.2778 38.9787 15.7189L39.0628 15.7549C39.399 15.887 39.7232 16.0551 40.0475 16.2472V21.3988C39.6392 21.4469 39.0628 21.4228 38.6665 21.3988C38.5584 21.8191 38.3423 22.2154 38.2822 22.6477C38.7626 22.4676 39.5191 22.3475 40.0475 22.3355V26.7186L38.6665 28.0515H43.2417L42.1129 26.8026V21.9752C42.9535 21.8191 43.8181 21.7831 44.6467 21.5429C44.6707 21.603 44.6947 21.651 44.6947 21.663L45.103 22.6117C45.8956 24.497 46.4479 26.5744 46.8442 29.2883L46.8923 29.6246L47.0484 29.5165C48.0331 28.8681 49.0538 28.3637 50.0745 28.0034L50.2306 27.9554C49.414 27.295 48.5974 26.3343 47.7809 25.0854ZM43.71 20.8825C43.0376 21.0386 42.269 21.0866 42.1009 21.0866V15.4427C42.6053 15.1665 43.2057 15.0344 43.9382 15.0344C44.8388 15.0344 45.5953 15.2865 46.1958 15.7909C46.7842 16.2953 47.0844 16.9437 47.0844 17.7122C47.0844 18.5769 46.7482 19.2853 46.0997 19.8257C45.3432 20.4502 44.5986 20.6903 43.71 20.8825Z" fill="#0D1853"/>
<path d="M9.95497 15.3588C7.75743 14.0258 3.45842 14.5662 0.912639 14.4581L2.23356 15.8151V21.0027C1.26088 21.0027 0.492345 21.2909 0 22.1916L0.108076 22.3477C0.696488 21.8673 1.50105 21.7472 2.23356 21.8313V26.8148L0.912639 28.0517H5.29571L4.33503 26.9469V21.8193L5.67998 21.8313C7.30111 21.8313 8.47793 21.7112 9.22246 21.459C9.96698 21.2189 10.5434 20.8106 10.9517 20.2582C11.36 19.6938 11.5761 19.0454 11.5761 18.2888C11.5641 17.0279 11.0477 16.0312 9.95497 15.3588ZM8.27379 20.3062C7.64935 20.6905 6.97688 20.9067 5.716 20.9187H4.32303V15.611C4.80336 15.5869 5.24767 15.5629 5.58391 15.5629C6.86881 15.5629 7.80546 15.7911 8.38187 16.2354C8.95827 16.6797 9.24647 17.3882 9.24647 18.3729C9.24647 19.2615 8.92225 19.898 8.27379 20.3062Z" fill="#0D1853"/>
<path d="M25.0976 28.0515L23.7647 26.8026L21.8914 21.615C22.2036 21.3988 22.6959 21.3028 23.3684 21.3028C23.4645 21.3028 23.6086 21.3148 23.8127 21.3268C23.4284 20.6903 23.1523 19.9818 22.9601 19.1773C22.78 19.4174 22.5158 19.5976 22.2636 19.7777L21.8193 20.1019L21.399 20.3301L19.6578 15.7309L20.7866 14.482H15.8511L17.004 15.6948L15.2267 20.4021C14.7824 20.0899 14.3861 19.6936 13.9898 19.3094C13.7737 19.9338 13.4735 20.5342 13.0892 21.1106C13.7977 21.1827 14.3381 21.3748 14.7103 21.687C14.2901 23.104 13.7497 24.6651 12.9211 25.902C12.3327 26.7786 11.6242 27.5111 10.6155 28.0275H15.647C15.5629 27.9434 14.9265 27.1148 14.7824 26.7306C14.6743 26.4544 14.5783 26.1422 14.5783 25.7459C14.5783 25.3496 14.6743 24.8813 14.8665 24.3049L15.2147 23.2241C15.3588 22.7918 15.4669 22.4556 15.5629 22.2394L16.0553 22.7438L16.4996 23.3322C16.9919 23.9206 17.3402 24.437 17.7605 25.0974L17.9286 25.3616C18.481 24.437 19.2375 23.5123 20.0901 22.8158L21.5071 26.7786L20.0661 28.0395H25.0976V28.0515ZM17.9286 23.5483C17.7004 23.2842 17.5203 22.9839 17.3402 22.7078C16.9679 22.1674 16.4876 21.615 15.9472 21.0746L17.7365 16.2352L19.6938 21.7351C19.2855 22.1073 18.0487 23.4163 17.9286 23.5483Z" fill="#0D1853"/>
<path d="M74.8604 28.0395V18.769C74.8724 17.2199 74.9205 16.8237 75.1366 16.1992C75.4008 15.4067 75.701 15.1065 76.9499 14.458H72.1225C73.0231 14.9143 73.5155 15.3346 73.7556 15.9591C73.8837 16.3033 73.9478 17.1999 73.9478 18.6489V25.4457L68.8322 15.5027L70.3332 14.47H64.9895L66.4065 15.6468V24.0767C66.4065 26.6225 65.9742 27.4391 64.281 28.0395H69.5287L69.4206 27.8954C68.4719 27.6192 67.9556 27.2109 67.6314 26.5144C67.3311 25.866 67.2591 25.1575 67.2591 22.8039V16.7276L73.0832 28.0395H74.8604Z" fill="#0D1853"/>
<path d="M62.996 21.543C62.996 17.1479 60.8225 14.362 57.3521 14.362C55.815 14.362 54.3139 14.9864 53.3172 16.0431C52.1524 17.256 51.552 19.0452 51.552 21.2668C51.552 23.4884 52.2005 25.3256 53.5094 26.5985C54.5421 27.6072 55.9951 28.1957 57.4601 28.1957C60.7745 28.1836 62.996 25.5418 62.996 21.543ZM54.5661 25.6379C54.0738 24.6412 53.8336 23.2842 53.8336 21.519C53.8336 19.5736 54.1338 17.9765 54.6982 16.8597C55.2146 15.863 56.2113 15.2626 57.328 15.2626C58.4448 15.2626 59.5256 15.9111 60.0059 16.9198C60.4863 17.9165 60.6784 19.2254 60.6784 21.3389C60.6784 25.2416 59.5136 27.295 57.292 27.295C56.1392 27.307 55.0585 26.6346 54.5661 25.6379Z" fill="#0D1853"/>
<path d="M76.8298 27.3311C76.8298 26.4545 77.5383 25.746 78.4149 25.746C79.2916 25.746 80.0001 26.4545 80.0001 27.3311C80.0001 28.2077 79.2916 28.9162 78.4149 28.9162C77.5383 28.9162 76.8298 28.2077 76.8298 27.3311ZM79.6998 27.3311C79.6998 26.6226 79.1354 26.0462 78.4149 26.0462C77.6944 26.0462 77.13 26.6226 77.13 27.3311C77.13 28.0396 77.7064 28.616 78.4149 28.616C79.1234 28.616 79.6998 28.0516 79.6998 27.3311ZM79.2075 28.1957H78.8112L78.439 27.4752H78.1027V28.1957H77.7665V26.4785H78.5951C78.7392 26.4785 78.9313 26.4785 79.0634 26.5625C79.2195 26.6586 79.2675 26.8267 79.2675 27.0069C79.2675 27.3191 79.0994 27.4392 78.7992 27.4632L79.2075 28.1957ZM78.5951 27.223C78.7872 27.223 78.9193 27.187 78.9193 26.9708C78.9193 26.7427 78.6791 26.7427 78.511 26.7427H78.0907V27.223H78.5951Z" fill="#0D1853"/>
</svg>
