<svg width="80" height="21" viewBox="0 0 80 21" fill="none" xmlns="http://www.w3.org/2000/svg">
<g clip-path="url(#clip0_1311_45410)">
<path d="M4.54889 4.46159C5.13309 4.46159 5.71729 4.46018 6.30149 4.463C6.39744 4.463 6.43695 4.44889 6.43554 4.33741C6.42849 3.64879 6.43131 2.95876 6.42708 2.26872C6.42708 2.177 6.41296 2.08528 6.3918 1.99497C6.31419 1.66054 6.10675 1.48274 5.7568 1.44464C5.70035 1.43899 5.6425 1.43476 5.58605 1.43052C5.4139 1.41924 5.41249 1.42065 5.4139 1.24002C5.4139 1.1356 5.37862 0.995903 5.43083 0.935225C5.49433 0.863259 5.63685 0.912647 5.74551 0.912647C6.81654 0.911236 7.88898 0.912647 8.96002 0.908414C9.06867 0.908414 9.10677 0.932403 9.09548 1.04388C9.08278 1.16524 9.13217 1.31905 9.07432 1.4023C9.01787 1.48415 8.85559 1.42629 8.73847 1.43617C8.31091 1.47568 8.0809 1.69581 8.03715 2.12902C8.02727 2.22498 8.02304 2.32093 8.02304 2.4183C8.02304 4.15255 8.02304 5.88681 8.02304 7.62247C8.02304 7.72266 8.02727 7.82426 8.03997 7.92445C8.09924 8.36189 8.32361 8.56932 8.77093 8.60601C8.77516 8.60601 8.77939 8.60601 8.78363 8.60601C8.88523 8.62577 9.05456 8.56368 9.07855 8.63565C9.12512 8.77394 9.09266 8.93904 9.09266 9.09285C9.09266 9.12671 9.06867 9.13518 9.03904 9.13377C9.01223 9.13377 8.98683 9.13377 8.96002 9.13377C7.82266 9.13377 6.68531 9.13236 5.54795 9.13659C5.43789 9.13659 5.40261 9.10696 5.41108 8.9983C5.41954 8.89811 5.41813 8.79651 5.41108 8.69491C5.40684 8.62295 5.43507 8.60037 5.50139 8.61025C5.52255 8.61307 5.54513 8.61025 5.56771 8.61025C6.12086 8.60601 6.41014 8.3506 6.42284 7.79745C6.44119 6.97195 6.4299 6.14645 6.43413 5.32095C6.43413 5.2123 6.36358 5.24334 6.30995 5.24334C5.40967 5.24334 4.50938 5.24334 3.60909 5.24334C3.31981 5.24334 3.02912 5.24475 2.73985 5.24334C2.67494 5.24334 2.6453 5.25604 2.64671 5.32942C2.65236 6.15068 2.63966 6.97195 2.66083 7.7918C2.67635 8.37177 2.9374 8.6046 3.51031 8.61307C3.70081 8.61589 3.70505 8.61589 3.6994 8.80498C3.69658 8.91222 3.7502 9.05475 3.67259 9.11683C3.60627 9.16905 3.4708 9.13518 3.36638 9.13518C2.2897 9.13518 1.21444 9.13518 0.137762 9.138C0.0305178 9.138 -0.0104043 9.11401 -0.000526573 9.00253C0.00935119 8.89811 0.00511786 8.79228 -0.000526573 8.68645C-0.00334879 8.62859 0.0178178 8.61025 0.0742622 8.61166C0.184329 8.61307 0.292984 8.61589 0.403051 8.59614C0.761472 8.53264 0.954794 8.34637 1.02112 7.99077C1.04087 7.88353 1.05216 7.77346 1.05216 7.66339C1.05216 5.90233 1.05216 4.14126 1.05216 2.3802C1.05216 2.27013 1.04228 2.16148 1.02253 2.05282C0.94915 1.64501 0.696561 1.45028 0.222429 1.43194C0.0766141 1.42629 0.00370675 1.34821 0.00370675 1.19769C0.00370675 1.00766 0.0987214 0.912647 0.288751 0.912647C1.38236 0.912647 2.47597 0.914059 3.56958 0.909825C3.68106 0.909825 3.71492 0.939459 3.70363 1.0467C3.69093 1.16806 3.7502 1.32187 3.68106 1.40371C3.61473 1.48274 3.4581 1.43052 3.34239 1.4404C2.93599 1.47709 2.6961 1.71557 2.66365 2.14172C2.64813 2.35198 2.64954 2.56223 2.64813 2.77249C2.64671 3.2946 2.65095 3.81812 2.6453 4.34023C2.6453 4.44183 2.67494 4.463 2.77089 4.46159C3.36356 4.45735 3.95622 4.45876 4.5503 4.45876L4.54889 4.46159Z" fill="#0D1853"/>
<path d="M43.9104 5.25894C44.1361 5.48613 44.3337 5.72037 44.503 5.97437C44.805 6.42593 45.0985 6.88312 45.3991 7.33468C45.5938 7.62678 45.8154 7.89912 46.0581 8.15453C46.3671 8.4805 46.7467 8.65971 47.1884 8.71616C47.3314 8.73403 47.4029 8.81587 47.4029 8.96169C47.4029 9.26084 47.4029 9.2679 47.1079 9.27072C46.5026 9.27637 45.8972 9.28907 45.3017 9.14654C44.8191 9.03083 44.4268 8.77683 44.1107 8.39866C43.7199 7.92876 43.4221 7.39536 43.0877 6.88595C42.821 6.47814 42.5529 6.07315 42.217 5.71614C42.1705 5.66675 42.1253 5.64558 42.059 5.64699C41.8219 5.64982 41.5849 5.65123 41.3478 5.64699C41.2688 5.64558 41.242 5.66675 41.2434 5.75C41.2462 6.41746 41.2434 7.08491 41.2462 7.75237C41.2462 7.86667 41.2659 7.97956 41.297 8.08962C41.3873 8.41277 41.6215 8.58069 42.0209 8.6075C42.1521 8.61597 42.2848 8.61597 42.416 8.61173C42.4866 8.60891 42.5077 8.63149 42.5035 8.70063C42.4978 8.8107 42.4964 8.92077 42.5035 9.02942C42.5105 9.11973 42.4739 9.13808 42.392 9.13667C41.86 9.13384 41.3294 9.13525 40.7975 9.13525C40.0594 9.13525 39.3214 9.13384 38.5848 9.13808C38.4931 9.13808 38.4621 9.1155 38.4691 9.02237C38.4776 8.89537 38.4268 8.73732 38.4846 8.64842C38.5481 8.55247 38.7175 8.62867 38.8388 8.60891C38.908 8.59762 38.9785 8.5948 39.0477 8.5821C39.399 8.51578 39.5924 8.30693 39.6319 7.95133C39.646 7.81587 39.6545 7.6804 39.6559 7.54494C39.6573 5.85443 39.6559 4.16392 39.6559 2.47341C39.6559 2.32383 39.6488 2.17567 39.6178 2.02891C39.5416 1.66343 39.3313 1.47858 38.9574 1.44753C38.8346 1.43766 38.7118 1.43201 38.5891 1.43624C38.5115 1.43766 38.4917 1.41084 38.4945 1.33747C38.5002 1.23305 38.503 1.1258 38.4945 1.02138C38.4875 0.929657 38.5242 0.902846 38.6088 0.897201C38.9771 0.874623 39.344 0.849223 39.7109 0.822412C40.4757 0.765968 41.242 0.702468 42.0096 0.709524C42.7039 0.716579 43.3953 0.750446 44.0613 0.974812C45.6728 1.51527 45.9635 3.35394 45.2128 4.37417C44.9151 4.77916 44.5129 5.04163 44.0458 5.21237C44.0063 5.22648 43.9668 5.24059 43.9104 5.26035V5.25894ZM41.2448 3.17332C41.2448 3.77445 41.2448 4.37558 41.2448 4.97672C41.2448 5.03316 41.2321 5.08678 41.3252 5.08678C41.7372 5.08396 42.1493 5.09384 42.5557 5.00212C43.2048 4.85677 43.6507 4.49694 43.8158 3.8309C43.885 3.5515 43.8892 3.26645 43.8765 2.98141C43.8384 2.14039 43.3558 1.56324 42.5388 1.36287C42.1493 1.26691 41.7542 1.29654 41.3605 1.28526C41.2547 1.28243 41.242 1.31912 41.242 1.41084C41.2462 1.99928 41.2434 2.5863 41.2434 3.17473L41.2448 3.17332Z" fill="#0D1853"/>
<path d="M31.3062 9.13391C30.5993 9.13391 29.8923 9.13109 29.1853 9.13673C29.0781 9.13673 29.0513 9.10569 29.0583 9.0055C29.0682 8.87991 29.0188 8.71763 29.0809 8.6372C29.1317 8.57088 29.3081 8.60192 29.4295 8.58922C29.8852 8.53842 30.104 8.31123 30.1167 7.8498C30.128 7.41518 30.1237 6.98056 30.1223 6.54594C30.1223 5.14612 30.1209 3.74488 30.1167 2.34506C30.1167 2.24064 30.104 2.13481 30.0842 2.0318C30.0137 1.65644 29.8105 1.48711 29.3984 1.44901C29.2898 1.43913 29.143 1.47159 29.0823 1.41232C29.0118 1.34459 29.0626 1.19642 29.0597 1.08353C29.0569 0.905733 29.0597 0.907144 29.2404 0.895855C30.1421 0.843644 31.0424 0.775911 31.9455 0.744867C32.8754 0.712411 33.8053 0.729344 34.7239 0.915611C36.1096 1.19783 37.0283 2.02898 37.4502 3.35401C37.9526 4.93304 37.6957 6.41329 36.66 7.72845C36.1209 8.41283 35.3801 8.77125 34.5447 8.95611C33.9817 9.0817 33.4088 9.12403 32.8345 9.13391C32.3251 9.14238 31.8156 9.13532 31.3062 9.13532V9.13391ZM31.7211 4.73407C31.7211 5.74019 31.7211 6.7449 31.7211 7.75102C31.7211 7.87379 31.7267 7.99656 31.7479 8.11791C31.7973 8.39167 31.9172 8.52149 32.1896 8.56241C32.5424 8.61603 32.898 8.60615 33.2507 8.56241C34.3472 8.42553 35.1642 7.88367 35.5946 6.85497C36.1294 5.57509 36.1012 4.28252 35.5494 3.01111C35.2136 2.23923 34.6308 1.72841 33.8124 1.50828C33.1774 1.33753 32.5297 1.33753 31.8791 1.40668C31.7366 1.4222 31.7169 1.47582 31.7183 1.60141C31.7225 2.64563 31.7211 3.69126 31.7211 4.73689V4.73407Z" fill="#0D1853"/>
<path d="M62.7543 5.02751C62.7543 4.14557 62.7543 3.26221 62.7543 2.38027C62.7543 2.2575 62.7445 2.13474 62.7191 2.01479C62.6443 1.66484 62.434 1.47575 62.0756 1.4447C61.967 1.43483 61.8569 1.432 61.7468 1.432C61.6861 1.432 61.6551 1.41507 61.6636 1.35016C61.6636 1.34593 61.6636 1.34169 61.6636 1.33746C61.6664 1.20199 61.6184 1.02561 61.6847 0.94235C61.7553 0.85345 61.9387 0.915539 62.0728 0.914128C63.1438 0.911306 64.2163 0.914128 65.2873 0.909894C65.3931 0.909894 65.4369 0.92965 65.4256 1.04395C65.4143 1.16531 65.4651 1.32335 65.4058 1.40237C65.3423 1.48704 65.1758 1.42636 65.0559 1.43765C64.6184 1.47434 64.4152 1.66907 64.3715 2.10228C64.3574 2.23775 64.3517 2.37321 64.3517 2.51009C64.3517 3.2481 64.356 3.9847 64.3489 4.72271C64.3489 4.86241 64.3941 4.85959 64.4999 4.82996C64.8851 4.71989 65.2069 4.50117 65.4919 4.23023C66.0888 3.66156 66.5545 2.99834 66.8889 2.24339C66.9256 2.16014 66.9496 2.06983 66.9693 1.98093C67.0258 1.7241 66.9101 1.54066 66.6561 1.47434C66.5234 1.43906 66.388 1.43059 66.2511 1.43342C66.1848 1.43483 66.1565 1.41789 66.1608 1.34593C66.1664 1.22739 66.1664 1.10886 66.1608 0.990328C66.1579 0.922594 66.1862 0.912717 66.2454 0.912717C67.212 0.914128 68.1772 0.914128 69.1439 0.912717C69.2201 0.912717 69.2426 0.936705 69.2384 1.01008C69.2313 1.14555 69.2779 1.31206 69.2144 1.40802C69.1523 1.50115 68.9717 1.4574 68.8433 1.47152C68.4552 1.51385 68.1462 1.68318 67.9105 1.99645C67.6255 2.37604 67.3955 2.78949 67.1415 3.18884C66.8536 3.64039 66.5545 4.08348 66.1579 4.45178C66.1325 4.47577 66.0846 4.49411 66.1424 4.54068C66.6575 4.95837 67.0187 5.50588 67.3913 6.04069C67.785 6.60513 68.1533 7.18651 68.5625 7.73966C68.7163 7.94851 68.8913 8.13759 69.0987 8.29705C69.3499 8.49037 69.6349 8.59338 69.9496 8.60467C70.0455 8.60749 70.0695 8.63713 70.0625 8.72603C70.0554 8.82622 70.0554 8.92782 70.0625 9.028C70.0695 9.11832 70.0343 9.13807 69.951 9.13525C69.7266 9.1296 69.5037 9.13384 69.2793 9.13384C68.269 9.13384 67.26 9.13384 66.2497 9.13666C66.1537 9.13666 66.1142 9.11832 66.1241 9.0153C66.134 8.91088 66.1297 8.80505 66.1241 8.69922C66.1213 8.63148 66.141 8.6089 66.2116 8.6089C66.3569 8.6089 66.5008 8.59479 66.642 8.55811C66.9143 8.48473 66.9919 8.31539 66.8621 8.06422C66.6899 7.73261 66.467 7.43345 66.244 7.1343C65.8574 6.61783 65.4566 6.11265 65.022 5.6357C64.8696 5.46919 64.7003 5.32525 64.4576 5.30268C64.3814 5.29562 64.3489 5.29844 64.3503 5.39017C64.3545 6.17615 64.3503 6.96214 64.3531 7.74813C64.3531 7.86666 64.3729 7.98378 64.4039 8.09949C64.4914 8.41417 64.7158 8.57504 65.1067 8.60608C65.1419 8.60891 65.1772 8.61032 65.2125 8.61032C65.3546 8.61408 65.4256 8.68934 65.4256 8.83609C65.4256 9.03459 65.3254 9.13384 65.125 9.13384C64.0145 9.13384 62.9025 9.13243 61.792 9.13666C61.6861 9.13666 61.6551 9.10844 61.6636 9.00543C61.6734 8.88266 61.6226 8.73026 61.6791 8.64418C61.7412 8.55105 61.9049 8.61878 62.0248 8.60749C62.5272 8.5581 62.7529 8.28576 62.7543 7.70156C62.7572 6.80974 62.7543 5.91933 62.7543 5.02751Z" fill="#0D1853"/>
<path d="M20.6101 2.55951V2.72179C20.6101 4.30223 20.6101 5.88267 20.6101 7.46453C20.6101 7.60846 20.6185 7.7538 20.6341 7.89774C20.6778 8.3126 20.905 8.53556 21.3326 8.58495C21.4455 8.59765 21.5598 8.60894 21.6726 8.61035C21.739 8.61035 21.7545 8.63292 21.7517 8.6936C21.7474 8.81214 21.7474 8.93067 21.7517 9.0492C21.7545 9.12117 21.7249 9.13669 21.6585 9.13669C20.7893 9.13528 19.9201 9.13528 19.0494 9.13669C18.9901 9.13669 18.9619 9.12399 18.9633 9.05767C18.9676 8.9349 18.969 8.81214 18.9633 8.68937C18.9605 8.62022 18.9901 8.61317 19.048 8.61176C19.1439 8.60893 19.2413 8.60047 19.3359 8.58636C19.6689 8.53697 19.858 8.33659 19.8904 8.00075C19.9003 7.89209 19.9045 7.78203 19.9045 7.67196C19.9045 5.73592 19.9045 3.79846 19.9088 1.86242C19.9088 1.74953 19.8721 1.68603 19.7775 1.63382C19.587 1.52658 19.3867 1.46026 19.1679 1.44332C18.9915 1.43062 18.9915 1.43062 18.9915 1.25C18.9915 1.16251 18.9944 1.07361 18.9915 0.986125C18.9887 0.926858 19.0113 0.912747 19.0677 0.912747C19.81 0.914158 20.5522 0.915569 21.2945 0.912747C21.3721 0.912747 21.4017 0.960725 21.4398 1.00588C22.1651 1.87512 22.889 2.74578 23.6143 3.61502C24.3989 4.55482 25.1835 5.49462 25.9681 6.43442C25.9864 6.45558 25.9977 6.48804 26.0457 6.49227V6.36386C26.0457 5.0854 26.0457 3.80834 26.0457 2.52988C26.0457 2.37607 26.0414 2.22226 26.0175 2.07127C25.9497 1.63665 25.7677 1.47719 25.326 1.44897C25.1905 1.4405 25.0537 1.43627 24.9182 1.43627C24.8575 1.43627 24.8265 1.41792 24.8349 1.35301C24.8349 1.34878 24.8349 1.34455 24.8349 1.34031C24.8364 1.20485 24.787 1.02705 24.8547 0.943791C24.9253 0.857714 25.1101 0.918391 25.2442 0.91698C26.057 0.914158 26.8698 0.91698 27.6812 0.914158C27.7757 0.914158 27.8279 0.925447 27.8138 1.03834C27.7983 1.16392 27.8646 1.32761 27.7898 1.40664C27.7164 1.48707 27.5499 1.43204 27.4243 1.44473C27.3284 1.45461 27.2338 1.47013 27.1407 1.49695C26.9177 1.56045 26.7922 1.70579 26.7668 1.9358C26.7569 2.02329 26.7498 2.11078 26.7498 2.19827C26.7498 4.47298 26.7484 6.74768 26.7526 9.02239C26.7526 9.15503 26.7117 9.16209 26.5946 9.17761C26.2489 9.22136 26.0273 9.09153 25.803 8.81778C24.1195 6.76462 22.4163 4.72839 20.7187 2.68792C20.6905 2.65406 20.6609 2.6216 20.6087 2.56233L20.6101 2.55951Z" fill="#0D1853"/>
<path d="M13.9368 9.13397C12.8262 9.13397 11.7143 9.13396 10.6037 9.13538C10.5049 9.13538 10.4584 9.11703 10.4711 9.00838C10.4866 8.87855 10.416 8.70358 10.4979 8.6302C10.5684 8.5667 10.7406 8.61468 10.8676 8.61044C10.9678 8.60762 11.0694 8.60762 11.1696 8.5921C11.5844 8.53142 11.7947 8.30564 11.8286 7.88513C11.837 7.77225 11.8427 7.65795 11.8427 7.54365C11.8427 5.89265 11.8427 4.24165 11.8427 2.59065C11.8427 2.45095 11.837 2.30984 11.83 2.17014C11.806 1.71718 11.5901 1.4914 11.1399 1.44624C11.0567 1.43778 10.972 1.42367 10.8902 1.43354C10.7434 1.4533 10.7096 1.38839 10.7251 1.25857C10.7392 1.14709 10.6771 0.997511 10.7505 0.931189C10.8126 0.876156 10.9593 0.911433 11.068 0.911433C13.0181 0.911433 14.9669 0.911433 16.917 0.9072C17.0454 0.9072 17.0722 0.942478 17.0765 1.06524C17.1005 1.61275 17.1372 2.15885 17.1753 2.70636C17.1823 2.81079 17.1583 2.84747 17.0525 2.83619C16.9523 2.82631 16.8295 2.86441 16.7576 2.81784C16.6828 2.76986 16.7124 2.63299 16.6927 2.53703C16.6531 2.33948 16.6179 2.14192 16.5261 1.95848C16.4316 1.76798 16.2792 1.66355 16.0704 1.65227C15.8601 1.64098 15.6498 1.64098 15.4382 1.64098C14.8102 1.64098 14.1823 1.64098 13.5544 1.63815C13.4626 1.63815 13.4274 1.65085 13.4274 1.75669C13.4316 2.66967 13.4316 3.58266 13.4274 4.49706C13.4274 4.57891 13.4429 4.60713 13.5332 4.60713C14.1386 4.60289 14.7453 4.60713 15.3507 4.60289C15.4466 4.60289 15.544 4.59019 15.6371 4.56903C15.9476 4.49565 16.1 4.28257 16.1437 3.88323C16.1522 3.80985 16.1127 3.70684 16.1649 3.67156C16.2199 3.63487 16.3159 3.65604 16.3935 3.65604C16.6165 3.65604 16.6165 3.65604 16.6165 3.88323C16.6165 4.63817 16.615 5.39312 16.6193 6.14806C16.6193 6.25248 16.5995 6.29905 16.4852 6.28776C16.3808 6.27647 16.2524 6.32021 16.1748 6.27365C16.0958 6.22567 16.1536 6.08738 16.1381 5.99001C16.0718 5.54975 15.9123 5.38465 15.4156 5.35219C14.7764 5.31127 14.1343 5.34232 13.4937 5.33526C13.4132 5.33526 13.4274 5.38324 13.4274 5.4298C13.4274 5.7981 13.4274 6.16781 13.4274 6.53611C13.4274 6.99331 13.4288 7.4491 13.433 7.9063C13.433 7.96698 13.4429 8.02907 13.4542 8.08833C13.4951 8.31129 13.5939 8.39596 13.8239 8.39596C14.5083 8.39737 15.1941 8.40019 15.8784 8.39596C16.4203 8.39313 16.7237 8.17582 16.917 7.67065C16.9819 7.50272 17.0313 7.33057 17.0638 7.15277C17.0779 7.07375 17.1047 7.03847 17.1908 7.04694C17.2994 7.05681 17.4434 7.01448 17.5083 7.06951C17.576 7.12737 17.5167 7.27412 17.5111 7.38137C17.4786 7.92464 17.4405 8.46651 17.4081 9.00838C17.4024 9.09869 17.3785 9.13255 17.2769 9.13114C16.1621 9.12691 15.0459 9.12832 13.9311 9.12832L13.9368 9.13397Z" fill="#0D1853"/>
<path d="M76.0032 0.7067C76.5267 0.7067 77.0262 0.835111 77.5187 1.00021C77.6824 1.05524 77.8292 1.08347 77.9646 0.9353C78.014 0.880267 78.0987 0.914133 78.1664 0.912722C78.2821 0.9099 78.2342 1.00586 78.2398 1.05807C78.3104 1.68601 78.3753 2.31395 78.4444 2.9419C78.4543 3.02515 78.4388 3.05902 78.3456 3.05196C78.2327 3.0435 78.1001 3.08442 78.0084 3.03785C77.9152 2.98987 77.9294 2.83889 77.8913 2.73446C77.6796 2.17002 77.3593 1.6973 76.7934 1.43483C76.3941 1.24857 75.982 1.21893 75.5686 1.38968C75.0098 1.6211 74.8207 2.21235 75.1382 2.72882C75.2892 2.97435 75.5065 3.14933 75.7393 3.3102C76.1979 3.62628 76.6932 3.88311 77.1504 4.20202C77.5992 4.51387 78.014 4.86383 78.3428 5.30409C79.3193 6.61219 78.8536 8.71051 77.0545 9.22556C76.4957 9.38502 75.9411 9.32011 75.3922 9.17476C75.1043 9.09857 74.8235 9.0012 74.537 8.91653C74.3691 8.86714 74.3042 8.89113 74.2181 9.03506C74.1405 9.16489 74.0206 9.09574 73.9232 9.09857C73.8343 9.10139 73.8682 9.00543 73.8611 8.95181C73.775 8.2519 73.6918 7.55058 73.6057 6.84926C73.586 6.68698 73.5817 6.68839 73.7497 6.68839C74.0319 6.68839 74.0305 6.68839 74.1264 6.95791C74.3 7.44475 74.5229 7.90336 74.9152 8.25754C75.4035 8.69781 76.1161 8.80082 76.6636 8.51154C77.396 8.1249 77.5596 7.15547 77.0051 6.47673C76.7751 6.1945 76.4844 5.98284 76.181 5.7881C75.7351 5.50165 75.2652 5.2547 74.8362 4.94144C74.4467 4.65639 74.0968 4.33466 73.8795 3.89298C73.3136 2.74575 73.7242 1.07359 75.45 0.753267C75.6321 0.7194 75.8141 0.702467 75.999 0.703878L76.0032 0.7067Z" fill="#0D1853"/>
<path d="M59.8403 2.29147C59.8573 2.63296 59.8714 2.97445 59.8939 3.31594C59.901 3.41613 59.8756 3.44858 59.7684 3.44576C59.4523 3.43871 59.4523 3.44294 59.3436 3.14378C59.1446 2.59345 58.861 2.09392 58.3657 1.7609C57.5995 1.24725 56.7909 1.27124 55.9936 1.66635C55.2514 2.03465 54.8154 2.67953 54.591 3.45564C54.2086 4.77644 54.2989 6.05914 55.003 7.26281C55.3756 7.90063 55.909 8.36348 56.6343 8.57232C57.584 8.84608 58.5421 8.506 59.1715 7.67909C59.3605 7.43073 59.5158 7.16121 59.6315 6.87193C59.6682 6.78162 59.7147 6.74917 59.805 6.76328C59.8135 6.76328 59.822 6.76328 59.8319 6.76328C60.1592 6.76328 60.1621 6.76328 60.1014 7.08078C59.9744 7.75388 59.7909 8.41004 59.5539 9.0521C59.5214 9.13818 59.496 9.17204 59.3888 9.14382C58.9485 9.02952 58.5096 9.08738 58.0722 9.1791C57.2904 9.34138 56.5059 9.39923 55.7298 9.16922C54.1239 8.69509 53.122 7.62406 52.765 6.00128C52.4362 4.50692 52.8031 3.16354 53.8629 2.04171C54.5416 1.32345 55.3925 0.915643 56.3662 0.75901C57.2947 0.609433 58.1696 0.788644 59.0148 1.17105C59.0783 1.19928 59.1475 1.21762 59.2124 1.2402C59.2858 1.26701 59.3634 1.25431 59.4085 1.2021C59.4805 1.11884 59.5666 1.13013 59.6569 1.12025C59.7655 1.10897 59.7952 1.14424 59.798 1.2529C59.8065 1.59862 59.8276 1.94434 59.8431 2.29006H59.8403V2.29147Z" fill="#0D1853"/>
<path d="M49.906 0.912849C50.4775 0.912849 51.0476 0.91426 51.6191 0.911438C51.6995 0.911438 51.7376 0.924138 51.7291 1.01586C51.7207 1.12452 51.7221 1.23599 51.7291 1.34465C51.7334 1.4152 51.708 1.43496 51.6402 1.43214C51.5527 1.42931 51.4652 1.43355 51.3778 1.4406C50.977 1.47165 50.7442 1.68331 50.6778 2.08125C50.6609 2.18426 50.6524 2.29009 50.651 2.39592C50.6496 4.15699 50.6496 5.91805 50.651 7.67771C50.651 7.78636 50.6595 7.89784 50.6793 8.00508C50.7512 8.38749 50.9685 8.5667 51.3989 8.6048C51.4257 8.60763 51.4511 8.60763 51.4779 8.60904C51.6435 8.61562 51.7263 8.70452 51.7263 8.87574C51.7263 9.04695 51.6398 9.13256 51.4667 9.13256C50.373 9.13256 49.2794 9.13115 48.1858 9.13538C48.0814 9.13538 48.0489 9.10998 48.056 9.00556C48.0659 8.88279 48.0179 8.73463 48.0715 8.64432C48.1266 8.55118 48.2874 8.62033 48.4003 8.60057C48.8222 8.52719 49.0198 8.30424 49.0579 7.84281C49.0621 7.78636 49.0621 7.72851 49.0621 7.67206C49.0621 5.92511 49.0621 4.17674 49.0621 2.42979C49.0621 2.27598 49.0522 2.12358 49.0156 1.97259C48.9351 1.64804 48.7404 1.47729 48.4102 1.44343C48.3622 1.43919 48.3142 1.43355 48.2663 1.43073C48.127 1.42226 48.0569 1.34606 48.056 1.20213C48.056 1.00927 48.1534 0.912849 48.3481 0.912849C48.866 0.912849 49.3839 0.912849 49.9031 0.912849H49.906Z" fill="#0D1853"/>
<path d="M49.7819 18.7661C49.7819 18.6941 49.7819 18.656 49.7819 18.6179C49.7819 17.8672 49.7819 17.1165 49.7819 16.3658C49.7819 16.3094 49.7819 16.2515 49.7763 16.1951C49.7494 15.8748 49.597 15.7238 49.2767 15.6955C49.1544 15.6843 49.0933 15.6184 49.0933 15.498C49.0933 15.3475 49.1676 15.2722 49.3162 15.2722C49.8426 15.2722 50.3703 15.2736 50.8967 15.2708C50.987 15.2708 51.0237 15.2906 51.0138 15.3851C51.0053 15.4768 51.0392 15.5869 50.9997 15.656C50.9602 15.7224 50.8402 15.6871 50.7556 15.7012C50.5284 15.7407 50.4014 15.8663 50.359 16.0977C50.3393 16.2106 50.3308 16.3235 50.3308 16.4378C50.3308 17.8249 50.3308 19.212 50.3336 20.5991C50.3336 20.7064 50.3153 20.7346 50.1968 20.7501C49.8525 20.7939 49.6394 20.657 49.4207 20.3861C48.4272 19.1471 47.407 17.9293 46.3966 16.7045C46.3741 16.6777 46.3501 16.6523 46.3261 16.6255C46.2866 16.6607 46.3063 16.7017 46.3063 16.7369C46.3063 17.6584 46.3049 18.5813 46.3063 19.5027C46.3063 19.6297 46.3134 19.7567 46.3444 19.8809C46.4065 20.1208 46.549 20.2323 46.82 20.2548C46.9573 20.2661 47.026 20.3395 47.026 20.475C47.026 20.6104 46.9569 20.6786 46.8186 20.6796C46.2781 20.6796 45.7391 20.6768 45.1986 20.6824C45.1027 20.6824 45.0617 20.6641 45.0744 20.561C45.0857 20.4707 45.0505 20.3593 45.0928 20.2915C45.1337 20.2252 45.2551 20.2647 45.3397 20.2506C45.5909 20.2069 45.7165 20.0587 45.7461 19.7595C45.7602 19.6198 45.7687 19.4801 45.7687 19.339C45.7701 18.2369 45.7687 17.1349 45.7729 16.0328C45.7729 15.9185 45.7278 15.855 45.6389 15.8014C45.5076 15.7224 45.3623 15.6955 45.2127 15.6828C45.1803 15.68 45.1323 15.6941 45.1309 15.6419C45.1266 15.5319 45.1281 15.4232 45.1309 15.3131C45.1309 15.2581 45.176 15.2694 45.2085 15.2694C45.7617 15.2694 46.3148 15.2694 46.868 15.268C46.9343 15.268 46.9583 15.3117 46.9907 15.3498C47.7852 16.3207 48.5796 17.2915 49.3741 18.2623C49.5025 18.419 49.6295 18.5742 49.7833 18.7633L49.7819 18.7661Z" fill="#0D1853"/>
<path d="M33.6599 18.0479C34.0734 18.0479 34.4854 18.0507 34.8975 18.0451C34.985 18.0451 35.0188 18.0691 35.0061 18.1552C35.0033 18.1721 35.0061 18.1904 35.0061 18.2074C35.0047 18.2864 35.0273 18.3781 34.9949 18.4402C34.9638 18.5009 34.8608 18.4741 34.7917 18.4952C34.6167 18.5503 34.532 18.6787 34.4939 18.848C34.4685 18.9595 34.4615 19.0738 34.4615 19.1881C34.4615 19.531 34.4558 19.8725 34.4643 20.2154C34.4671 20.3269 34.4262 20.3748 34.3288 20.4158C33.7587 20.6599 33.1618 20.7841 32.5438 20.8151C32.0795 20.8377 31.6223 20.8038 31.1834 20.6472C30.4285 20.3777 29.9219 19.8527 29.6637 19.1006C29.3645 18.2285 29.3857 17.3649 29.8217 16.5409C30.2408 15.7478 30.9266 15.3188 31.7987 15.1721C32.4407 15.0634 33.0645 15.1791 33.6839 15.3372C33.7813 15.3626 33.8801 15.3837 33.9789 15.4021C34.0692 15.419 34.1482 15.4162 34.2018 15.316C34.2484 15.2285 34.3443 15.2779 34.4163 15.2779C34.4939 15.2779 34.4586 15.3527 34.4586 15.3922C34.4615 15.9059 34.4586 16.4195 34.4629 16.9331C34.4629 17.0277 34.4459 17.063 34.3415 17.0601C34.1059 17.0545 34.1087 17.0601 34.0395 16.8259C33.8871 16.3165 33.619 15.9002 33.0983 15.7012C32.349 15.4148 31.5743 15.7196 31.1679 16.459C30.8561 17.0249 30.7869 17.6373 30.842 18.268C30.8843 18.7591 31.0169 19.2234 31.302 19.634C31.6914 20.1956 32.3081 20.4355 32.9022 20.2591C32.9403 20.2478 32.977 20.2337 33.0137 20.221C33.135 20.1801 33.1886 20.1081 33.1816 19.967C33.1675 19.6693 33.1816 19.3701 33.1717 19.0724C33.1604 18.6787 32.9939 18.5093 32.603 18.4712C32.5946 18.4712 32.5847 18.4712 32.5762 18.4712C32.4901 18.4571 32.3518 18.5051 32.3279 18.4501C32.2855 18.3485 32.3067 18.2201 32.3081 18.1015C32.3081 18.0211 32.3772 18.0521 32.4182 18.0507C32.8302 18.0479 33.2437 18.0507 33.6557 18.0507L33.6599 18.0479Z" fill="#0D1853"/>
<path d="M39.2635 17.9885C39.2635 17.4312 39.2635 16.8738 39.2635 16.3164C39.2635 16.2472 39.2522 16.1767 39.2395 16.1075C39.1901 15.8422 39.0574 15.7124 38.7879 15.6997C38.6468 15.6927 38.6059 15.6503 38.6143 15.5092C38.6285 15.2736 38.6186 15.2736 38.8599 15.2736C39.6148 15.2736 40.3698 15.275 41.1247 15.2722C41.2122 15.2722 41.2517 15.2863 41.2418 15.3836C41.2319 15.4754 41.2686 15.5854 41.2291 15.6546C41.1854 15.7279 41.0626 15.6884 40.9765 15.704C40.7437 15.7463 40.6195 15.8662 40.5814 16.0977C40.5659 16.188 40.5546 16.2797 40.5546 16.3714C40.5546 17.4678 40.5518 18.5657 40.5588 19.6621C40.5617 20.077 40.7127 20.228 41.1275 20.259C41.2263 20.2661 41.2475 20.2999 41.2446 20.3931C41.239 20.6823 41.2446 20.6823 40.9511 20.6823C40.2188 20.6823 39.485 20.6795 38.7526 20.6852C38.6397 20.6852 38.6059 20.6541 38.6186 20.5469C38.6285 20.465 38.596 20.3648 38.6313 20.3013C38.6708 20.2294 38.7823 20.2689 38.8613 20.252C39.1195 20.1969 39.255 20.0304 39.2635 19.7129C39.2747 19.3009 39.2691 18.8888 39.2705 18.4754C39.2705 18.3131 39.2705 18.1508 39.2705 17.9885H39.2663H39.2635Z" fill="#0D1853"/>
<path d="M54.3015 16.3262C54.2267 16.2853 54.1618 16.25 54.0983 16.2162C53.9699 16.147 53.9233 16.037 53.9417 15.8973C53.9586 15.7674 54.0263 15.687 54.1547 15.6433C54.5245 15.5191 54.8899 15.5657 55.2568 15.656C55.6519 15.7533 56.0005 15.9565 56.3631 16.1329C57.2747 16.5746 58.2427 16.7947 59.2517 16.8427C59.7597 16.8667 60.2691 16.878 60.7771 16.8879C62.7696 16.9274 64.7621 16.9471 66.7531 16.9415C66.9154 16.9415 67.0777 16.9415 67.24 16.9344C67.3599 16.9302 67.3726 17.012 67.3839 17.0967C67.3966 17.1955 67.3359 17.2152 67.2541 17.2152C66.7531 17.2195 66.2536 17.2294 65.7527 17.2265C64.8975 17.2209 64.041 17.2124 63.1858 17.1969C61.6957 17.1687 60.2042 17.1419 58.7169 17.0403C58.0748 16.9965 57.4553 16.8328 56.833 16.6903C56.3688 16.5845 55.9059 16.4391 55.4247 16.4462C54.7037 16.4561 54.0687 16.6804 53.6298 17.29C53.1599 17.942 53.1994 18.8352 53.7088 19.4222C54.0433 19.8089 54.5499 19.9147 54.9365 19.6804C55.3542 19.4279 55.5292 18.886 55.333 18.4401C55.3161 18.4006 55.2935 18.3625 55.2667 18.3272C55.2258 18.2722 55.1693 18.2228 55.1016 18.2411C55.0452 18.2552 55.0593 18.3272 55.0466 18.3766C55.0268 18.457 55.0056 18.5375 54.9859 18.6179C54.9323 18.8239 54.7912 18.9297 54.588 18.9678C54.2451 19.0342 53.9868 18.7957 53.9713 18.3978C53.9572 18.0295 54.2535 17.6555 54.6119 17.5864C54.7573 17.5581 54.8914 17.5934 55.0169 17.6597C55.4092 17.8672 55.6957 18.4443 55.6477 18.9241C55.5941 19.4716 55.2653 19.8921 54.7813 20.0318C54.262 20.1828 53.7131 19.9598 53.3843 19.4646C52.8636 18.6828 52.9849 17.52 53.658 16.8286C53.7526 16.7312 53.8485 16.6339 53.9614 16.5563C54.0687 16.4815 54.1787 16.4109 54.3015 16.3291V16.3262Z" fill="#0D1853"/>
<path d="M25.5886 16.4251C25.9823 16.6396 26.2998 16.9274 26.5256 17.3127C26.9489 18.0352 26.9207 18.9975 26.455 19.6255C26.0882 20.1208 25.511 20.2986 24.979 20.0728C24.55 19.8908 24.3426 19.5352 24.2735 19.0963C24.2015 18.6419 24.3539 18.2482 24.6686 17.9194C24.8591 17.7205 25.0891 17.6104 25.3685 17.6993C25.6606 17.7939 25.8285 18.0112 25.9005 18.3019C25.9456 18.4811 25.9188 18.6589 25.8313 18.824C25.7368 19.0004 25.5929 19.0935 25.3911 19.0681C25.1977 19.0455 25.0214 18.9905 24.9452 18.7788C24.9042 18.6673 24.8774 18.553 24.8506 18.4373C24.8407 18.3978 24.8591 18.3414 24.7984 18.3301C24.7476 18.3202 24.7024 18.3442 24.6686 18.3795C24.5867 18.4641 24.5529 18.5742 24.5246 18.6843C24.3737 19.26 24.7956 19.8654 25.3741 19.8908C25.693 19.9049 25.9513 19.7595 26.1615 19.5323C26.7528 18.8973 26.7316 17.8122 26.1009 17.1758C25.5731 16.6424 24.9127 16.4632 24.1846 16.5535C23.5538 16.6311 22.9414 16.8145 22.3233 16.9571C21.7053 17.0996 21.0759 17.1433 20.4451 17.1744C19.2316 17.2322 18.0166 17.2605 16.8016 17.2816C16.0552 17.2943 15.3101 17.2971 14.5636 17.307C13.9667 17.3155 13.3698 17.3155 12.7729 17.3028C12.6883 17.3014 12.605 17.3028 12.6205 17.1814C12.6346 17.0841 12.6629 17.0178 12.7941 17.0206C13.8821 17.046 14.9714 17.0361 16.0594 17.0163C16.4813 17.0093 16.9018 17.0121 17.3238 17.0065C18.4639 16.9895 19.6055 16.9895 20.7443 16.9274C21.8577 16.8668 22.9103 16.5845 23.8939 16.0455C24.368 15.7859 24.8746 15.6236 25.4278 15.6645C25.5421 15.673 25.6507 15.704 25.7594 15.7407C25.885 15.783 25.9386 15.8733 25.9541 15.9947C25.9696 16.1189 25.9315 16.2205 25.8215 16.2882C25.7467 16.3334 25.6705 16.3743 25.5886 16.4209V16.4251Z" fill="#0D1853"/>
<path d="M72.5927 1.51954C72.573 2.29142 72.3726 2.97439 71.6586 3.40337C71.4399 3.5346 71.1971 3.58823 70.9431 3.60375C70.8712 3.60798 70.8317 3.59669 70.826 3.5092C70.8176 3.38785 70.7992 3.26367 70.7696 3.14655C70.747 3.06047 70.7766 3.03931 70.8528 3.03084C71.056 3.00826 71.2465 2.94194 71.4187 2.83328C71.7094 2.64984 71.89 2.39302 71.9225 2.04447C71.9436 1.82293 71.8844 1.75943 71.667 1.79189C71.4963 1.81729 71.327 1.83563 71.159 1.78624C70.8401 1.69311 70.6835 1.46027 70.6313 1.14701C70.6045 0.981909 70.6101 0.813987 70.6567 0.651709C70.7893 0.195921 71.2451 -0.0312675 71.7432 0.11831C72.2315 0.263654 72.4417 0.641831 72.5448 1.10326C72.5758 1.24014 72.5814 1.38125 72.5941 1.52236L72.5927 1.51954Z" fill="#0D1853"/>
<path d="M37.48 2.61735C37.5407 2.64417 37.5718 2.69497 37.6084 2.74012C37.9302 3.1437 38.0868 3.61501 38.1517 4.11736C38.2364 4.76647 38.2759 5.42123 38.1799 6.07175C38.0036 7.26837 37.497 8.28719 36.4852 9.00121C35.9744 9.36246 35.3845 9.5332 34.7735 9.63762C34.2712 9.7237 33.7632 9.75192 33.2538 9.75051C32.0769 9.74769 30.9 9.74769 29.7246 9.75192C29.6117 9.75192 29.5821 9.72088 29.5891 9.61222C29.5933 9.54026 29.6187 9.52473 29.6837 9.52614C29.8234 9.53038 29.9645 9.52614 30.1056 9.52614C31.1202 9.52614 32.1333 9.53179 33.1479 9.52332C33.7759 9.51768 34.3996 9.46264 35.012 9.31166C36.5092 8.93912 37.3798 7.94147 37.8145 6.50919C38.0134 5.85303 38.0205 5.17993 37.981 4.50119C37.9584 4.12442 37.9189 3.75048 37.8145 3.385C37.7467 3.14793 37.6508 2.92215 37.5167 2.71472C37.4998 2.68791 37.4645 2.66533 37.4814 2.61453L37.48 2.61735Z" fill="#0D1853"/>
<path d="M26.4788 9.56291C26.6382 9.56291 26.7821 9.55586 26.9247 9.56574C27.0319 9.57279 27.0658 9.54598 27.0644 9.43168C27.0573 8.98859 27.0615 8.5455 27.0615 8.10242C27.0615 6.26797 27.0615 4.43353 27.0615 2.59909C27.0615 2.03888 27.2295 1.8639 27.7939 1.83568C27.8165 1.83568 27.8377 1.83568 27.8602 1.83286C27.9393 1.82721 28.0338 1.84697 28.0917 1.81028C28.1594 1.76654 28.1128 1.66494 28.1185 1.58874C28.1255 1.49843 28.1904 1.52806 28.2356 1.52806C28.2807 1.52806 28.3499 1.49843 28.3513 1.58874C28.3513 1.71997 28.3499 1.85261 28.3513 1.98385C28.3527 2.05017 28.3132 2.05017 28.2666 2.05017C28.0874 2.05299 27.9068 2.06005 27.7318 2.10097C27.4538 2.16588 27.3127 2.3338 27.2986 2.61885C27.2958 2.66682 27.2972 2.7148 27.2972 2.76419C27.2972 5.05865 27.2972 7.35453 27.3 9.64899C27.3 9.77035 27.2676 9.81127 27.149 9.79857C27.0573 9.78869 26.9628 9.78446 26.8725 9.79857C26.682 9.82961 26.5662 9.74354 26.4802 9.5615L26.4788 9.56291Z" fill="#0D1853"/>
<path d="M55.9304 7.89079C55.0738 7.10339 54.5983 6.16077 54.6956 4.96697C54.7521 4.27553 54.8988 3.61513 55.2756 3.02388C55.833 2.15181 56.6303 1.72707 57.6703 1.79057C58.0752 1.81456 58.3857 2.02622 58.634 2.33667L58.6157 2.35783C57.9694 1.8202 57.278 1.96555 56.5992 2.25765C56.0418 2.49612 55.6495 2.93074 55.38 3.46555C54.9426 4.3348 54.8015 5.25484 54.9962 6.21016C55.1147 6.7873 55.4407 7.26144 55.8146 7.70594C55.8598 7.75956 55.9021 7.81459 55.9459 7.86963L55.9289 7.89079H55.9304Z" fill="#0D1853"/>
<path d="M78.8171 5.50177C79.0175 5.64006 79.1332 5.84326 79.2376 6.05351C79.3237 6.22849 79.3688 6.41617 79.3801 6.6109C79.4182 7.24872 79.438 7.88372 79.136 8.4778C78.7352 9.26661 78.1214 9.78025 77.2352 9.91995C76.7371 9.99756 76.2489 9.89879 75.7705 9.75909C75.5433 9.69276 75.3204 9.61515 75.0946 9.54742C74.914 9.4938 74.8646 9.51496 74.7517 9.67019C74.6727 9.78025 74.5584 9.71393 74.461 9.71957C74.3792 9.72381 74.413 9.6335 74.3961 9.58552C74.3806 9.54036 74.3862 9.49803 74.4539 9.50226C74.4977 9.50509 74.5076 9.46558 74.5259 9.43594C74.6219 9.29201 74.6896 9.26379 74.8589 9.31318C75.1835 9.40631 75.4982 9.52766 75.8284 9.60245C76.3519 9.72099 76.8782 9.7859 77.3975 9.60104C78.3655 9.25532 78.9356 8.554 79.1247 7.55634C79.2136 7.08645 79.1967 6.60526 79.105 6.13112C79.0598 5.89829 78.9356 5.70215 78.8143 5.50459L78.8171 5.50177Z" fill="#0D1853"/>
<path d="M14.4701 9.74908C13.3595 9.74908 12.2476 9.74908 11.137 9.74908C11.0637 9.74908 11.0044 9.75896 11.0044 9.64607C11.0044 9.54447 11.0383 9.52472 11.1328 9.52472C12.0105 9.52754 12.8896 9.52613 13.7673 9.52613C15.0317 9.52613 16.2975 9.52472 17.5618 9.52895C17.6818 9.52895 17.717 9.49508 17.7241 9.37937C17.7495 8.89818 17.7848 8.417 17.8158 7.93581C17.8186 7.88783 17.8215 7.83985 17.8257 7.79187C17.8384 7.67334 17.9301 7.62254 18.0416 7.66629C18.098 7.68745 18.0741 7.73261 18.0712 7.76647C18.043 8.21239 18.012 8.6583 17.9823 9.10562C17.971 9.27636 17.9485 9.44711 17.9499 9.61785C17.9499 9.73356 17.9061 9.75049 17.8031 9.75049C16.6926 9.74626 15.5806 9.74767 14.4701 9.74767V9.74908Z" fill="#0D1853"/>
<path d="M8.69048 8.31263C8.48164 8.21244 8.38145 8.07556 8.35323 7.88788C8.33771 7.77923 8.32924 7.66916 8.32924 7.56051C8.32783 5.98006 8.32924 4.39962 8.32924 2.81918C8.32924 2.6696 8.34053 2.52144 8.37722 2.37609C8.45624 2.05436 8.6665 1.87091 8.99528 1.84128C9.09971 1.8314 9.20554 1.82435 9.30996 1.82576C9.38334 1.82576 9.41721 1.80741 9.40733 1.7298C9.40309 1.70017 9.41015 1.66771 9.40733 1.63808C9.39604 1.55483 9.42426 1.52237 9.51457 1.52519C9.59783 1.52801 9.64722 1.53648 9.63875 1.63808C9.63028 1.73827 9.63028 1.83987 9.63875 1.94006C9.64722 2.03743 9.60629 2.06 9.51881 2.05295C9.39604 2.04448 9.27327 2.05859 9.15192 2.07835C8.84288 2.13056 8.64674 2.33376 8.59453 2.66114C8.5776 2.76838 8.5649 2.87845 8.5649 2.98851C8.5649 4.62117 8.5649 6.25523 8.5649 7.88788C8.5649 8.03041 8.60582 8.16023 8.69331 8.31263H8.69048Z" fill="#0D1853"/>
<path d="M51.2832 8.28155C51.0701 8.19265 50.9882 8.01908 50.9671 7.80741C50.9614 7.75097 50.9628 7.69311 50.9614 7.63667C50.9614 6.02095 50.9614 4.40523 50.9614 2.78951C50.9614 2.6484 50.9755 2.51011 51.0122 2.37323C51.0983 2.05714 51.3128 1.87229 51.6373 1.84124C51.7375 1.83137 51.8391 1.82431 51.9393 1.82572C52.0113 1.82572 52.0466 1.80597 52.0381 1.72836C52.0339 1.69308 52.0409 1.6578 52.0381 1.62252C52.0254 1.53221 52.0762 1.52375 52.1482 1.52516C52.2159 1.52516 52.2681 1.52516 52.2625 1.6197C52.2554 1.72836 52.2568 1.83983 52.2625 1.94849C52.2667 2.02751 52.2441 2.05856 52.1609 2.05291C52.0833 2.04727 52.0028 2.05009 51.9238 2.05997C51.4567 2.11641 51.2324 2.3563 51.2013 2.82761C51.1957 2.91933 51.1928 3.01105 51.1928 3.10419C51.1928 4.64089 51.1928 6.17758 51.1928 7.71428C51.1928 7.90619 51.1801 8.10092 51.2846 8.28155H51.2832Z" fill="#0D1853"/>
<path d="M54.4399 8.8573C54.6728 8.997 54.9014 9.14093 55.1469 9.25523C56.0867 9.69267 57.066 9.8098 58.0848 9.62776C58.4687 9.55862 58.8482 9.46266 59.2434 9.47818C59.4014 9.48383 59.5609 9.48947 59.7118 9.53604C59.8036 9.56426 59.8318 9.53463 59.86 9.45561C60.0914 8.82484 60.2749 8.18138 60.3991 7.52098C60.4245 7.3841 60.5134 7.33189 60.6474 7.37704C60.7151 7.39962 60.6785 7.44901 60.6728 7.4857C60.6037 7.95419 60.4894 8.4128 60.3581 8.86859C60.2763 9.15081 60.1846 9.4288 60.0787 9.70255C60.0646 9.73924 60.0703 9.80274 59.9884 9.78016C59.5086 9.65034 59.0317 9.71243 58.5561 9.81262C57.4131 10.0539 56.3068 9.9622 55.2556 9.42597C54.9578 9.27499 54.6798 9.09436 54.4428 8.8573H54.4399Z" fill="#0D1853"/>
<path d="M69.7783 1.79759C69.7783 2.05724 69.7783 2.06147 69.5201 2.07558C69.022 2.10239 68.6353 2.31124 68.3588 2.73457C68.1316 3.08452 67.9383 3.45282 67.7238 3.80842C67.5079 4.16684 67.2694 4.50551 66.9688 4.79902C66.8954 4.86958 66.8545 4.88933 66.7727 4.81031C66.6358 4.67766 66.6287 4.6819 66.7699 4.54502C67.1565 4.16684 67.4288 3.70682 67.6941 3.24116C67.8155 3.02808 67.9439 2.81923 68.0667 2.60616C68.3588 2.09675 68.8004 1.84275 69.3832 1.84134C69.5243 1.84134 69.5639 1.79195 69.5526 1.65789C69.5413 1.53513 69.6245 1.48574 69.7417 1.52525C69.784 1.53936 69.7769 1.56899 69.7769 1.59863C69.7769 1.66495 69.7769 1.72986 69.7769 1.79618L69.7783 1.79759Z" fill="#0D1853"/>
<path d="M3.29567 8.26753C3.08824 8.21249 3.02333 8.04175 2.98241 7.86113C2.95983 7.76376 2.95418 7.66075 2.95418 7.56056C2.95136 6.96366 2.9556 6.36676 2.94995 5.76986C2.94995 5.66121 2.98523 5.64004 3.08401 5.64145C4.04497 5.64427 5.00735 5.64286 5.96831 5.64427C6.09108 5.64427 6.14329 5.7233 6.10096 5.83619C6.07979 5.89122 6.03605 5.87005 6.00077 5.87146C5.71149 5.87287 5.4208 5.87146 5.13153 5.87146C4.52193 5.87146 3.91092 5.87146 3.30132 5.87146C3.22935 5.87146 3.18137 5.86864 3.18137 5.97024C3.18702 6.57137 3.18561 7.17251 3.18278 7.77364C3.18278 7.94862 3.21947 8.1123 3.29144 8.26894H3.29426L3.29567 8.26753Z" fill="#0D1853"/>
<path d="M21.2252 8.2887C20.9614 8.14477 20.9289 7.88936 20.9275 7.63113C20.9219 6.89453 20.9261 6.15793 20.9261 5.41992C20.9261 4.80185 20.9261 4.18238 20.9261 3.56431V3.40909C21.0601 3.5502 21.1646 3.65744 21.1617 3.85641C21.1519 5.1377 21.1575 6.41757 21.1547 7.69886C21.1547 7.89359 21.166 8.08409 21.2422 8.26471L21.2252 8.2887Z" fill="#0D1853"/>
<path d="M45.7022 2.08118C45.7728 2.07271 45.794 2.12915 45.8264 2.16584C46.0748 2.45653 46.1919 2.80225 46.23 3.17479C46.278 3.63481 46.2907 4.09483 46.1002 4.53227C45.8687 5.06849 45.4285 5.37047 44.9064 5.57649C44.8937 5.58073 44.881 5.58496 44.8697 5.58919C44.6199 5.68233 44.6072 5.67809 44.4478 5.4382C44.5889 5.38035 44.73 5.32955 44.8683 5.26746C45.4835 4.98806 45.9054 4.54215 45.9986 3.85635C46.0818 3.24111 46.0437 2.63574 45.7036 2.08118H45.7022Z" fill="#0D1853"/>
<path d="M16.3104 2.31404C16.1791 2.27171 16.0451 2.26607 15.9082 2.26607C15.3113 2.26889 14.713 2.27171 14.1161 2.26324C13.9835 2.26183 13.9609 2.30134 13.9623 2.42411C13.9694 3.02948 13.9637 3.63625 13.9665 4.24162C13.9665 4.31923 13.9679 4.37144 13.8607 4.37003C13.7633 4.36862 13.7351 4.34322 13.7351 4.24444C13.7393 3.55017 13.7393 2.85732 13.7351 2.16305C13.7351 2.05722 13.7662 2.03041 13.8692 2.03182C14.5056 2.03605 15.1434 2.03323 15.7798 2.03464C15.983 2.03464 16.1763 2.06004 16.2963 2.2576C16.3076 2.27594 16.3231 2.29288 16.3104 2.31687V2.31404Z" fill="#0D1853"/>
<path d="M72.6504 0.945297C72.9073 1.14567 73.0258 1.42648 73.0794 1.73411C73.1951 2.38039 73.1119 2.99423 72.7295 3.54174C72.4261 3.97636 71.9999 4.19649 71.4722 4.22895C71.3762 4.23459 71.3621 4.18379 71.3593 4.11041C71.3565 4.05256 71.3268 3.99329 71.427 3.97636C72.2271 3.8423 72.649 3.31737 72.8282 2.57372C72.9581 2.03326 72.9425 1.49422 72.6561 0.991863C72.649 0.979163 72.6533 0.959408 72.6533 0.942474V0.945297H72.6504Z" fill="#0D1853"/>
<path d="M15.8362 6.05479C15.5935 5.96589 15.3395 5.96448 15.0855 5.96589C14.7525 5.96871 14.4181 5.96871 14.0851 5.96589C13.999 5.96589 13.9623 5.97859 13.9637 6.07737C13.9694 6.65169 13.9679 7.22601 13.9722 7.80033C13.9722 7.90899 13.9919 8.01623 14.0032 8.13194C13.8776 8.10654 13.8184 8.02187 13.7845 7.91181C13.7422 7.77211 13.7408 7.62535 13.7393 7.48142C13.7351 6.94238 13.7393 6.40192 13.7351 5.86288C13.7351 5.75422 13.769 5.73447 13.8692 5.73447C14.2897 5.74011 14.7116 5.73729 15.1321 5.73729C15.2901 5.73729 15.4496 5.74858 15.5964 5.81208C15.7064 5.85864 15.8193 5.91227 15.8348 6.0562V6.05338L15.8362 6.05479Z" fill="#0D1853"/>
<path d="M41.0092 9.74914C40.3854 9.74914 39.7631 9.74914 39.1394 9.74914C39.0646 9.74914 38.9997 9.76325 38.9969 9.6419C38.9941 9.51208 39.0632 9.5276 39.1451 9.5276C40.3121 9.5276 41.4805 9.52619 42.6475 9.53183C42.7759 9.53183 42.8252 9.49937 42.8027 9.37237C42.7829 9.25949 42.8238 9.21292 42.9452 9.22421C43.0143 9.23126 43.0355 9.25102 43.0327 9.31875C43.0284 9.41894 43.0256 9.52054 43.0327 9.62073C43.0411 9.72233 43.0115 9.75337 42.9043 9.75337C42.2721 9.74773 41.6399 9.75055 41.0077 9.75055L41.0092 9.74914Z" fill="#0D1853"/>
<path d="M64.665 3.39214C64.6791 3.11274 64.641 2.77549 64.6904 2.43823C64.744 2.06288 64.9472 1.86814 65.3225 1.83992C65.427 1.83146 65.5328 1.8244 65.6372 1.8244C65.7021 1.8244 65.7374 1.80747 65.7303 1.7355C65.7275 1.70446 65.7332 1.67341 65.7303 1.64378C65.7176 1.55206 65.7529 1.52525 65.846 1.52383C65.9406 1.52383 65.966 1.55347 65.9603 1.64378C65.9519 1.77078 66.0013 1.926 65.9434 2.01772C65.8856 2.10944 65.7176 2.0403 65.6005 2.05864C65.4439 2.08404 65.2872 2.09957 65.156 2.20117C64.9556 2.35639 64.9119 2.58217 64.9063 2.81218C64.895 3.2849 64.8978 3.75903 64.895 4.23316C64.895 4.29102 64.902 4.34323 64.8258 4.36722C64.6762 4.41379 64.6664 4.41096 64.6664 4.25292C64.6664 3.98481 64.6664 3.71811 64.6664 3.39214H64.665Z" fill="#0D1853"/>
<path d="M68.6317 9.74904C68.0178 9.74904 67.404 9.74763 66.7902 9.75045C66.6999 9.75045 66.6589 9.73916 66.6589 9.63192C66.6589 9.52467 66.7111 9.52609 66.7888 9.52609C67.9247 9.52609 69.0606 9.52609 70.1966 9.52609C70.3673 9.52609 70.3758 9.52609 70.3645 9.35957C70.356 9.23116 70.4026 9.20294 70.5197 9.21987C70.5832 9.22975 70.6002 9.25374 70.5973 9.3116C70.5917 9.4513 70.6411 9.6291 70.5734 9.71941C70.507 9.8069 70.3194 9.74481 70.1853 9.74622C69.6674 9.74904 69.151 9.74622 68.6331 9.74622L68.6317 9.74904Z" fill="#0D1853"/>
<path d="M2.95277 3.34128C2.96264 3.09151 2.93583 2.79377 2.97534 2.49602C3.02755 2.09245 3.26039 1.86808 3.6682 1.83845C3.69924 1.83563 3.73029 1.83845 3.75992 1.82998C3.83753 1.81164 3.93349 1.8582 3.98852 1.80599C4.04073 1.7566 4.00122 1.66347 4.00686 1.59009C4.01674 1.48285 4.09859 1.53929 4.14939 1.52942C4.19877 1.51954 4.24534 1.52377 4.24252 1.59856C4.23829 1.72133 4.23687 1.84409 4.24252 1.96686C4.24534 2.04024 4.2143 2.05435 4.1508 2.05294C4.00545 2.0487 3.86152 2.05999 3.72041 2.09386C3.41702 2.16441 3.26603 2.37326 3.21523 2.66536C3.1602 2.97862 3.19265 3.29612 3.1856 3.6108C3.18137 3.78578 3.17854 3.96217 3.18701 4.13714C3.19265 4.24298 3.13198 4.2331 3.06424 4.23592C2.99369 4.23874 2.94994 4.23169 2.95277 4.13997C2.95841 3.8902 2.95418 3.63902 2.95418 3.34128H2.95277Z" fill="#0D1853"/>
<path d="M64.0723 9.74902C63.4923 9.74902 62.9123 9.74902 62.3338 9.74902C62.2547 9.74902 62.2068 9.7462 62.2054 9.64178C62.2039 9.53171 62.2505 9.52466 62.338 9.52466C63.4189 9.52748 64.4984 9.52466 65.5793 9.52889C65.7007 9.52889 65.7444 9.49925 65.7303 9.37649C65.7218 9.30311 65.7021 9.21703 65.8361 9.21986C65.9363 9.22127 65.9674 9.24949 65.9575 9.34686C65.9434 9.47668 66.0111 9.65024 65.9293 9.72503C65.8573 9.78994 65.688 9.7462 65.561 9.7462C65.0643 9.7462 64.569 9.7462 64.0723 9.7462V9.74902Z" fill="#0D1853"/>
<path d="M2.38116 9.7492C1.81107 9.7492 1.24098 9.7492 0.670891 9.7492C0.591869 9.7492 0.543892 9.7492 0.54248 9.64195C0.54248 9.5333 0.586225 9.52483 0.675125 9.52483C1.73628 9.52765 2.79743 9.52483 3.86 9.52906C3.98135 9.52906 4.02369 9.49943 4.01099 9.37807C4.00252 9.30611 3.97994 9.21862 4.11541 9.22144C4.21701 9.22285 4.25652 9.24825 4.24523 9.35267C4.23253 9.47826 4.29603 9.64195 4.22265 9.72097C4.14786 9.80282 3.98276 9.74496 3.85718 9.74637C3.36611 9.7492 2.87504 9.74637 2.38398 9.74637L2.38116 9.7492Z" fill="#0D1853"/>
<path d="M7.78442 9.74906C7.21433 9.74906 6.64283 9.74906 6.07275 9.74906C5.99514 9.74906 5.94434 9.74906 5.94434 9.64323C5.94434 9.53457 5.98667 9.52611 6.07557 9.52611C7.12402 9.52893 8.17389 9.52752 9.22234 9.52752C9.40438 9.52752 9.41002 9.52752 9.40296 9.34972C9.39873 9.25376 9.42272 9.21849 9.52573 9.22272C9.61463 9.22554 9.64144 9.25517 9.6358 9.33843C9.62592 9.46825 9.68942 9.63758 9.61181 9.72084C9.53279 9.80551 9.36345 9.74624 9.23363 9.74765C8.75103 9.75188 8.26843 9.74906 7.78583 9.74906H7.78442Z" fill="#0D1853"/>
<path d="M50.4269 9.74917C49.861 9.74917 49.2952 9.74917 48.7293 9.74917C48.6517 9.74917 48.5882 9.75905 48.5896 9.64051C48.5896 9.52762 48.6432 9.52621 48.7265 9.52762C49.7792 9.52903 50.8319 9.52621 51.886 9.53186C52.0158 9.53186 52.0581 9.49658 52.0412 9.37099C52.0299 9.29197 52.0229 9.21295 52.1541 9.22282C52.2402 9.22988 52.2712 9.25246 52.2627 9.33712C52.25 9.47118 52.3192 9.64616 52.2317 9.72659C52.1626 9.7915 51.9904 9.74776 51.8634 9.74776C51.385 9.74776 50.9067 9.74776 50.4283 9.74776L50.4269 9.74917Z" fill="#0D1853"/>
<path d="M74.5104 13.195C74.5598 13.0991 74.6078 13.0934 74.6487 13.0963C74.7644 13.1047 74.7785 13.0299 74.7757 12.9467C74.7687 12.711 74.7842 12.4768 74.8054 12.2425C74.8138 12.1381 74.8152 12.0464 74.6755 12.0379C74.6431 12.0351 74.6135 12.0196 74.6205 11.9801C74.6276 11.9448 74.6614 11.9547 74.6854 11.9533C74.9578 11.9406 75.2287 11.9349 75.501 11.9561C75.7677 11.9773 76.0105 12.227 76.0415 12.5008C76.0725 12.7717 75.9074 13.0299 75.6351 13.1146C75.4517 13.1711 75.2611 13.2035 75.0664 13.1979C74.89 13.1922 74.7136 13.1979 74.509 13.1979L74.5104 13.195ZM75.0001 12.8324C75.0001 12.8634 75.0001 12.8931 75.0001 12.9241C74.9987 13.1076 75.0114 13.1188 75.1906 13.116C75.271 13.116 75.3458 13.092 75.4192 13.0638C75.6944 12.9566 75.8242 12.7223 75.7607 12.4542C75.7042 12.2157 75.501 12.0619 75.2089 12.0309C75.0932 12.0182 75.0311 12.0506 75.0199 12.1805C75.0015 12.3978 75.0142 12.6151 75.0001 12.8324Z" fill="#0D1853"/>
<path d="M22.0605 13.1949C22.0888 13.1018 22.1353 13.0933 22.1748 13.0962C22.292 13.106 22.299 13.0312 22.3018 12.948C22.3103 12.7095 22.3188 12.4696 22.3301 12.2311C22.3357 12.131 22.3329 12.0449 22.2017 12.0378C22.1706 12.0364 22.1367 12.0223 22.1438 11.9828C22.1494 11.9489 22.1833 11.9546 22.2087 11.9546C22.4839 11.9419 22.7605 11.9334 23.0356 11.9588C23.3334 11.987 23.538 12.2297 23.5733 12.574C23.5944 12.7843 23.4025 13.0425 23.157 13.1173C22.9735 13.1724 22.7844 13.2048 22.5897 13.1992C22.4133 13.1935 22.2369 13.1992 22.0605 13.1992V13.1949ZM22.529 12.8351C22.529 12.8972 22.529 12.9579 22.529 13.02C22.529 13.0708 22.553 13.1004 22.6038 13.1131C22.8268 13.1724 23.1866 12.9861 23.267 12.766C23.3898 12.4315 23.2078 12.066 22.697 12.0308C22.6052 12.0251 22.5657 12.0576 22.5516 12.1535C22.5177 12.3807 22.5446 12.6079 22.529 12.8351Z" fill="#0D1853"/>
<path d="M3.5229 13.164C3.561 13.0977 3.6118 13.0935 3.65695 13.0963C3.75996 13.1033 3.76843 13.0427 3.77125 12.9636C3.77972 12.7111 3.78677 12.4585 3.8023 12.2059C3.80794 12.1099 3.78677 12.0535 3.68658 12.0394C3.65272 12.0351 3.60756 12.0295 3.61744 11.9815C3.6245 11.942 3.66683 11.9547 3.69505 11.9533C3.95752 11.9392 4.22139 11.9378 4.48386 11.9533C4.74492 11.9688 5.00315 12.2143 5.03419 12.4726C5.06947 12.7675 4.91002 13.0314 4.63344 13.1132C4.43165 13.1725 4.22563 13.2176 4.01255 13.1894C3.85451 13.1697 3.69223 13.2021 3.52148 13.1626L3.5229 13.164ZM4.00549 12.8366C3.99138 13.1344 4.03654 13.1697 4.33287 13.0921C4.36251 13.085 4.39214 13.0765 4.42036 13.0652C4.65461 12.9707 4.78725 12.7689 4.77455 12.5558C4.75056 12.1664 4.41331 12.045 4.13814 12.0337C4.06899 12.0309 4.03936 12.0634 4.02807 12.1339C3.98856 12.3682 4.01819 12.6038 4.00549 12.8381V12.8366Z" fill="#0D1853"/>
<path d="M47.4055 13.1471C47.4323 13.0977 47.4845 13.0949 47.5296 13.0963C47.6185 13.0991 47.6425 13.054 47.6454 12.9763C47.6538 12.7153 47.6609 12.4542 47.675 12.1932C47.6792 12.1029 47.6552 12.0507 47.5607 12.0394C47.5268 12.0351 47.4831 12.0295 47.4901 11.9815C47.4972 11.9392 47.5381 11.9547 47.5663 11.9533C47.8288 11.9392 48.0927 11.9378 48.3551 11.9533C48.6162 11.9688 48.8744 12.2143 48.9069 12.4712C48.945 12.7661 48.7898 13.0243 48.5075 13.1132C48.3241 13.1711 48.1336 13.2049 47.9389 13.1965C47.7879 13.1894 47.6355 13.1866 47.4831 13.1824C47.4534 13.1824 47.421 13.1866 47.4041 13.1485L47.4055 13.1471ZM47.8754 12.608C47.8754 12.752 47.8754 12.8747 47.8754 12.9961C47.8754 13.0511 47.8796 13.0991 47.9502 13.1132C48.1788 13.1626 48.5216 12.989 48.6063 12.776C48.6811 12.5897 48.6571 12.4091 48.5358 12.2553C48.3975 12.0817 48.1985 12.0309 47.984 12.0323C47.9219 12.0323 47.9121 12.0789 47.9008 12.1297C47.8627 12.2948 47.8909 12.4627 47.8754 12.6066V12.608Z" fill="#0D1853"/>
<path d="M53.238 11.9491C53.4582 11.9632 53.6444 11.9407 53.8293 12.1396C54.0537 12.3823 54.3091 12.6095 54.5842 12.8071C54.6139 12.8282 54.6407 12.8311 54.6703 12.8155C54.7014 12.8 54.6872 12.776 54.6844 12.7492C54.6647 12.5714 54.6421 12.3936 54.6336 12.2144C54.628 12.0973 54.5715 12.0677 54.4671 12.0634C54.4064 12.0606 54.2907 12.0945 54.3006 11.9985C54.3077 11.9251 54.422 11.9548 54.484 11.9646C54.652 11.9915 54.8213 11.9731 54.9935 11.9872C54.9497 12.031 54.9102 12.0761 54.8467 12.0747C54.7437 12.0719 54.7183 12.1269 54.7268 12.2172C54.7423 12.3823 54.7479 12.5503 54.7395 12.7125C54.7338 12.8466 54.707 12.9849 54.6999 13.1232C54.6971 13.1937 54.6393 13.1726 54.604 13.1415C54.4502 13.006 54.2893 12.8762 54.1496 12.7281C54.0283 12.5996 53.8744 12.5122 53.7531 12.3837C53.7065 12.3344 53.6614 12.3456 53.6656 12.4204C53.6727 12.5996 53.6797 12.7789 53.6995 12.9567C53.7122 13.0681 53.818 13.0681 53.8998 13.0907C53.9379 13.1006 54.0043 13.0851 53.993 13.1528C53.9817 13.2163 53.9238 13.1838 53.8843 13.1853C53.7178 13.1853 53.5513 13.1853 53.3862 13.1881C53.3481 13.1881 53.3072 13.1909 53.2973 13.1542C53.2832 13.102 53.3382 13.1076 53.3679 13.0992C53.564 13.0413 53.5654 13.0427 53.5725 12.8325C53.5767 12.7125 53.5725 12.5912 53.5866 12.4712C53.6148 12.2455 53.4342 12.158 53.31 12.0338C53.2888 12.0126 53.2536 12.0084 53.238 11.9505V11.9491Z" fill="#0D1853"/>
<path d="M71.7416 11.9505C71.9772 11.959 72.1649 11.9449 72.3526 12.1467C72.5756 12.3866 72.8267 12.6123 73.0977 12.8071C73.1259 12.8268 73.1541 12.8339 73.1837 12.8184C73.2218 12.7986 73.1993 12.7662 73.1979 12.7365C73.195 12.5615 73.1428 12.3922 73.1499 12.2158C73.1541 12.1015 73.0864 12.0677 72.982 12.0634C72.9213 12.0606 72.8098 12.0973 72.8154 11.9971C72.8197 11.9294 72.9312 11.9534 72.989 11.9632C73.1626 11.9929 73.3361 11.9675 73.5351 11.983C73.4589 12.0352 73.4109 12.0775 73.3361 12.0775C73.2599 12.0775 73.2331 12.1255 73.2374 12.2017C73.2472 12.371 73.2656 12.5418 73.2543 12.7097C73.2444 12.8424 73.219 12.9736 73.219 13.1105C73.219 13.1994 73.1499 13.1711 73.1075 13.1345C72.9594 13.0046 72.8056 12.8805 72.6729 12.7365C72.5502 12.6025 72.3907 12.5136 72.2665 12.3837C72.22 12.3344 72.1734 12.3471 72.1762 12.4218C72.1833 12.6011 72.1903 12.7803 72.2115 12.9581C72.2242 13.0667 72.33 13.071 72.4133 13.0935C72.4514 13.1034 72.5163 13.0879 72.5106 13.15C72.505 13.2135 72.4457 13.1881 72.4048 13.1867C72.2425 13.1867 72.0817 13.1853 71.9194 13.1867C71.8771 13.1867 71.8192 13.2092 71.8107 13.15C71.8023 13.0949 71.8672 13.0992 71.8982 13.0964C72.045 13.0837 72.0887 13.0004 72.0859 12.8663C72.0831 12.7365 72.0831 12.6053 72.1 12.4755C72.1296 12.2497 71.9518 12.1608 71.8248 12.0366C71.8093 12.0211 71.7882 12.0126 71.7712 11.9999C71.7642 11.9943 71.7613 11.9858 71.7388 11.9519L71.7416 11.9505Z" fill="#0D1853"/>
<path d="M44.7047 9.20169C45.1562 9.49379 45.6656 9.58975 46.1892 9.63913C46.6351 9.68147 47.0824 9.66877 47.5297 9.66595C47.7174 9.66453 47.7103 9.68429 47.7005 9.48532C47.6948 9.3682 47.7245 9.32587 47.8458 9.35127C47.9093 9.36538 47.9347 9.38514 47.9333 9.45146C47.9291 9.56999 47.9319 9.68852 47.9333 9.80706C47.9333 9.85362 47.9347 9.89313 47.8684 9.89455C47.0711 9.90442 46.2696 9.93688 45.4949 9.69276C45.1929 9.5968 44.9107 9.4571 44.6877 9.22145C44.6934 9.2158 44.699 9.21016 44.7047 9.2031V9.20169Z" fill="#0D1853"/>
<path d="M45.7957 13.1077C45.8465 13.0936 45.9297 13.1119 46.0116 13.1119C46.0934 13.1119 46.1654 13.0936 46.195 12.9962C46.2105 12.9468 46.2359 12.8692 46.3051 12.8889C46.3813 12.9101 46.3432 12.9934 46.3488 13.0484C46.3559 13.1048 46.3573 13.181 46.2754 13.174C46.0722 13.1542 45.8733 13.2149 45.6672 13.1923C45.4767 13.1712 45.282 13.1895 45.0887 13.1923C45.052 13.1923 44.9984 13.2149 44.9899 13.1599C44.9814 13.1077 45.0421 13.1006 45.0746 13.0992C45.1719 13.0964 45.1818 13.0498 45.1804 12.9623C45.1762 12.7055 45.1832 12.4473 45.1903 12.1904C45.1931 12.0973 45.1734 12.0451 45.0661 12.062C45.0337 12.0663 44.997 12.0578 44.9645 12.0465C44.9335 12.0352 44.9194 12.007 44.9236 11.9731C44.9292 11.9294 44.9631 11.9308 44.9927 11.9336C45.3497 11.9562 45.7082 11.9209 46.0652 11.9576C46.1202 11.9633 46.1484 11.9872 46.1569 12.0324C46.1696 12.0973 46.171 12.1622 46.1809 12.2285C46.1851 12.2582 46.1809 12.2836 46.1527 12.292C46.1287 12.2991 46.1146 12.2765 46.1033 12.2568C45.9622 12.0126 45.7209 12.0522 45.4965 12.0437C45.4443 12.0409 45.4288 12.079 45.4274 12.1213C45.4245 12.1947 45.4104 12.2652 45.4203 12.3414C45.4415 12.5277 45.5064 12.5771 45.6898 12.5319C45.7674 12.5136 45.7745 12.4515 45.7928 12.3951C45.8084 12.3443 45.8182 12.2793 45.8902 12.3005C45.9579 12.3203 45.9227 12.3781 45.9142 12.4233C45.8916 12.5362 45.8973 12.6505 45.8973 12.7634C45.8973 12.8071 45.9043 12.8607 45.8422 12.8635C45.7844 12.8664 45.7985 12.8127 45.79 12.7761C45.7787 12.7238 45.79 12.6434 45.7279 12.6307C45.6348 12.6124 45.536 12.6166 45.4415 12.6251C45.4076 12.6279 45.4048 12.6815 45.4034 12.7154C45.4005 12.8198 45.4005 12.9256 45.4005 13.0301C45.4005 13.1048 45.4584 13.1063 45.512 13.1077C45.5953 13.1091 45.6771 13.1077 45.7928 13.1077H45.7957Z" fill="#0D1853"/>
<path d="M20.7301 13.1739C20.3929 13.229 20.0514 13.1514 19.7141 13.1923C19.6873 13.1951 19.6577 13.1965 19.6506 13.1627C19.6436 13.1217 19.6789 13.1048 19.7071 13.1048C19.8411 13.1048 19.8411 13.0244 19.8397 12.9214C19.8355 12.673 19.8411 12.4232 19.8482 12.1749C19.8496 12.093 19.8284 12.0479 19.7367 12.062C19.7113 12.0662 19.6831 12.0648 19.6577 12.0592C19.6182 12.0493 19.5815 12.0281 19.5801 11.9816C19.5801 11.9195 19.6295 11.9279 19.6662 11.9322C20.0147 11.9604 20.3647 11.9152 20.7132 11.9562C20.7767 11.9632 20.812 11.9816 20.819 12.0451C20.8261 12.11 20.8331 12.1749 20.8416 12.2398C20.8444 12.2652 20.8346 12.2864 20.8106 12.2892C20.7979 12.2892 20.7753 12.2779 20.7682 12.2652C20.6328 12.0154 20.3915 12.0521 20.1671 12.0422C20.105 12.0394 20.0909 12.0832 20.0867 12.1241C20.0796 12.1975 20.0754 12.2737 20.0824 12.347C20.0895 12.4148 20.0316 12.515 20.16 12.5347C20.3463 12.5629 20.4028 12.5347 20.4536 12.3894C20.4691 12.3456 20.4775 12.2849 20.5439 12.2991C20.6172 12.316 20.5848 12.3738 20.5763 12.4176C20.5552 12.5305 20.5537 12.6448 20.5537 12.7577C20.5537 12.7986 20.5735 12.8564 20.5086 12.8635C20.4423 12.8706 20.4536 12.8141 20.4479 12.7718C20.4409 12.7167 20.4479 12.6405 20.3816 12.6293C20.2885 12.6151 20.1911 12.6236 20.0951 12.6293C20.0853 12.6293 20.0768 12.673 20.0683 12.6984C20.033 12.8113 20.0726 12.9242 20.0613 13.0385C20.0556 13.1006 20.1163 13.1104 20.1657 13.1104C20.3364 13.1133 20.5058 13.1133 20.6765 13.1147C20.7696 13.1147 20.8303 13.0752 20.8628 12.9834C20.8783 12.9383 20.9023 12.8706 20.97 12.8903C21.0307 12.9087 21.0039 12.9722 21.0053 13.0173C21.0109 13.1796 21.0053 13.1838 20.836 13.1782C20.8007 13.1782 20.7654 13.1782 20.7301 13.1782V13.1739Z" fill="#0D1853"/>
<path d="M33.6194 12.5459C33.6476 12.5939 33.6885 12.6094 33.7294 12.6277C33.8579 12.6842 33.8833 12.7985 33.879 12.9213C33.8748 13.0454 33.7958 13.1273 33.6829 13.1569C33.4077 13.2303 33.1255 13.1837 32.8461 13.1922C32.815 13.1922 32.7699 13.1795 32.7755 13.1329C32.7798 13.0962 32.8165 13.0906 32.8489 13.0934C32.9378 13.1005 32.9646 13.0553 32.9618 12.9735C32.9505 12.7265 32.9519 12.4796 32.9505 12.2326C32.9505 12.0732 32.9025 12.0478 32.7727 12.0605C32.7374 12.0633 32.6965 12.0506 32.7007 12.004C32.7036 11.9659 32.7403 11.9603 32.7713 11.9603C33.0606 11.9575 33.3499 11.9335 33.6363 11.9871C33.7238 12.004 33.7859 12.0788 33.8 12.1734C33.8169 12.282 33.824 12.3935 33.7238 12.4739C33.6942 12.4979 33.6589 12.5177 33.618 12.5445L33.6194 12.5459ZM33.1791 12.838C33.1848 13.092 33.2003 13.1174 33.3357 13.116C33.5277 13.1132 33.6702 13.0031 33.6716 12.8563C33.6716 12.7082 33.5037 12.5826 33.2962 12.5953C33.1029 12.6066 33.213 12.7674 33.1805 12.838H33.1791ZM33.1791 12.2425C33.1833 12.4951 33.1975 12.5346 33.2765 12.529C33.4402 12.5177 33.5982 12.3695 33.5926 12.234C33.5883 12.1268 33.443 12.0224 33.2948 12.0351C33.1495 12.0464 33.2003 12.1748 33.1805 12.2439L33.1791 12.2425Z" fill="#0D1853"/>
<path d="M35.6738 13.2078C35.4495 13.1937 35.2166 13.1161 35.0812 12.8621C34.8836 12.4924 35.0981 12.0888 35.4805 11.9759C35.8728 11.8588 36.251 12.0606 36.3808 12.34C36.536 12.6758 36.3229 13.0229 36.0689 13.1274C35.9546 13.1739 35.8389 13.212 35.6724 13.2064L35.6738 13.2078ZM35.6922 12.0352C35.5468 12.0563 35.417 12.1297 35.338 12.2835C35.2434 12.4684 35.259 12.6589 35.3267 12.8423C35.386 13.0018 35.5158 13.1118 35.6879 13.133C35.8545 13.1542 35.98 13.0639 36.0718 12.927C36.2115 12.7181 36.1974 12.4105 36.0421 12.2003C35.9603 12.0902 35.8488 12.0408 35.6936 12.0337L35.6922 12.0352Z" fill="#0D1853"/>
<path d="M63.375 12.584C63.375 12.9425 63.025 13.236 62.6257 13.2063C62.3646 13.1866 62.1445 13.0977 62.0147 12.8465C61.8341 12.4965 62.0344 12.0859 62.4154 11.9787C62.7188 11.8926 62.9855 11.9462 63.2071 12.172C63.3171 12.2835 63.3764 12.4232 63.375 12.584ZM63.1168 12.584C63.0998 12.4641 63.0787 12.3441 63.0109 12.2383C62.8656 12.0097 62.5989 11.9674 62.39 12.1395C62.1375 12.3484 62.1671 12.8719 62.4423 13.0511C62.6426 13.1809 62.819 13.1555 62.9757 12.9735C63.0702 12.862 63.1027 12.7266 63.1168 12.584Z" fill="#0D1853"/>
<path d="M20.8937 9.74904C20.4676 9.74904 20.0414 9.74622 19.6153 9.75045C19.5278 9.75045 19.4953 9.73352 19.4939 9.63756C19.4939 9.53879 19.532 9.52609 19.6167 9.52609C20.3801 9.52891 21.1449 9.52468 21.9083 9.53173C22.0381 9.53173 22.0819 9.49645 22.0635 9.37086C22.0508 9.28338 22.0508 9.20859 22.1863 9.2227C22.2752 9.23116 22.2964 9.25798 22.2921 9.33982C22.2837 9.47105 22.333 9.64039 22.2681 9.72223C22.199 9.80831 22.0226 9.74763 21.8928 9.74904C21.5598 9.75327 21.2253 9.74904 20.8909 9.74904H20.8937Z" fill="#0D1853"/>
<path d="M17.1545 5.56806C17.1545 5.95894 17.1516 6.3484 17.1559 6.73928C17.1559 6.82536 17.1347 6.8564 17.0472 6.84794C16.9597 6.84088 16.8708 6.84088 16.7848 6.84794C16.7086 6.85358 16.6874 6.82113 16.6846 6.75198C16.6803 6.67155 16.734 6.67719 16.7791 6.68425C16.9047 6.704 16.9301 6.64897 16.9287 6.53185C16.923 5.82488 16.9273 5.11933 16.9245 4.41236C16.9245 4.32346 16.9259 4.26137 17.0472 4.26843C17.1333 4.27407 17.1573 4.29665 17.1559 4.38132C17.1516 4.77643 17.1545 5.17154 17.1545 5.56524V5.56806Z" fill="#0D1853"/>
<path d="M42.4641 6.26659C42.2496 6.26659 42.069 6.26941 41.8897 6.26659C41.8164 6.26518 41.7797 6.27505 41.7811 6.36395C41.7853 6.8776 41.7839 7.38983 41.7825 7.90347C41.7825 8.04741 41.8234 8.17864 41.8982 8.30705C41.6978 8.2365 41.5666 8.06434 41.561 7.81034C41.5497 7.24449 41.5553 6.67863 41.5525 6.11278C41.5525 6.0521 41.5779 6.0394 41.6315 6.0394C41.8164 6.04081 41.9998 6.03658 42.1847 6.04222C42.3173 6.04645 42.3568 6.17345 42.4627 6.26941L42.4641 6.26659Z" fill="#0D1853"/>
<path d="M75.6927 2.96455C75.2059 2.7035 75.3766 2.03887 75.7364 1.84413C76.0681 1.66492 76.4152 1.61271 76.7736 1.7637C77.0135 1.8653 77.2252 2.01347 77.4128 2.1955L77.3903 2.21384C77.0121 1.9288 76.5944 1.86671 76.1457 1.99653C75.8084 2.0939 75.6334 2.33802 75.6264 2.68657C75.625 2.78534 75.6602 2.86578 75.711 2.94339L75.6941 2.96455H75.6927Z" fill="#0D1853"/>
<path d="M64.9823 8.34782C64.7523 8.23493 64.6761 8.02468 64.6718 7.79326C64.662 7.11733 64.6676 6.44141 64.6648 5.76549C64.6648 5.69494 64.693 5.68929 64.7523 5.69494C64.9004 5.70905 64.9611 5.82335 65.05 5.93765C64.9922 5.94047 64.9414 5.90237 64.9089 5.93765C64.8779 5.97151 64.8948 6.02231 64.8948 6.06465C64.8948 6.65308 64.899 7.2401 64.892 7.82853C64.8892 8.01057 64.9428 8.17849 64.9809 8.35064V8.34782H64.9823Z" fill="#0D1853"/>
<path d="M8.56174 11.9532C8.63371 11.9461 8.71555 11.9603 8.78188 11.9955C8.85384 12.0322 8.899 12.0322 8.95262 11.9744C8.99354 11.9306 9.01753 11.949 9.03023 12.0026C9.05281 12.1056 9.02459 12.2072 8.99778 12.2989C8.97661 12.3695 8.90888 12.3271 8.8736 12.2707C8.79599 12.1465 8.69862 12.0506 8.53775 12.0548C8.48554 12.0548 8.43333 12.059 8.38676 12.0901C8.27811 12.162 8.2767 12.2524 8.38394 12.33C8.48272 12.4005 8.60125 12.4175 8.71273 12.4556C8.80022 12.4852 8.88489 12.5176 8.95968 12.5713C9.21226 12.7547 9.08668 13.0383 8.91029 13.1131C8.74801 13.1823 8.57868 13.226 8.39946 13.1625C8.3275 13.1371 8.25835 13.1258 8.18639 13.1696C8.14688 13.1936 8.09749 13.1809 8.11019 13.1244C8.13277 13.02 8.12712 12.9156 8.137 12.8112C8.13982 12.7829 8.14688 12.7547 8.1751 12.7491C8.22166 12.7378 8.21884 12.7801 8.22731 12.8069C8.30633 13.0581 8.57726 13.1343 8.73954 13.0637C8.81998 13.0299 8.89053 12.9777 8.89759 12.8874C8.90464 12.8013 8.82844 12.7646 8.76494 12.7237C8.6704 12.663 8.55892 12.6531 8.45591 12.6221C8.21743 12.5515 8.09325 12.4217 8.11724 12.2566C8.14264 12.0816 8.32891 11.9518 8.56033 11.9532H8.56174Z" fill="#0D1853"/>
<path d="M58.3288 11.9349C58.405 12.0661 58.3542 12.1903 58.326 12.3003C58.3091 12.3681 58.2371 12.3229 58.2018 12.2665C58.1242 12.1409 58.0254 12.0477 57.8646 12.052C57.8081 12.052 57.7517 12.059 57.7037 12.0957C57.6106 12.1677 57.6092 12.2509 57.7051 12.3201C57.8095 12.3963 57.938 12.4146 58.0565 12.4556C58.2103 12.5106 58.3641 12.5699 58.4191 12.7448C58.4615 12.8817 58.381 13.051 58.2385 13.1103C58.0748 13.178 57.9055 13.2232 57.7277 13.1583C57.6557 13.1329 57.588 13.1244 57.5132 13.1653C57.4652 13.1922 57.4229 13.1682 57.4398 13.1047C57.4638 13.0144 57.4554 12.9226 57.4638 12.8309C57.4667 12.7956 57.4638 12.7533 57.5062 12.7448C57.5598 12.7335 57.5499 12.79 57.5612 12.8168C57.6543 13.0327 57.8561 13.1343 58.0579 13.0609C58.1412 13.0313 58.2103 12.9805 58.2244 12.8916C58.2385 12.797 58.1581 12.7589 58.0904 12.718C57.9831 12.6531 57.8589 12.6418 57.7418 12.6094C57.557 12.5572 57.4356 12.4259 57.4441 12.2763C57.4525 12.1211 57.6049 11.9758 57.7884 11.9532C57.8801 11.9419 57.9746 11.9405 58.0607 11.9786C58.1581 12.0223 58.247 12.0407 58.3232 11.932L58.3288 11.9349Z" fill="#0D1853"/>
<path d="M69.7221 13.1909C69.6135 13.1909 69.5034 13.1909 69.3947 13.1909C69.3595 13.1909 69.3171 13.1852 69.3115 13.1443C69.3044 13.0879 69.3524 13.0864 69.3933 13.0864C69.4879 13.085 69.5415 13.0342 69.5852 12.9524C69.7151 12.7054 69.8082 12.4416 69.9705 12.2116C69.986 12.189 70.0001 12.1481 69.9916 12.1255C69.955 12.0408 70.0142 12.038 70.0678 12.0182C70.185 11.9745 70.2442 11.9999 70.2837 12.1283C70.3726 12.4148 70.4855 12.6942 70.5801 12.9792C70.6083 13.0639 70.6619 13.0949 70.7381 13.1118C70.7692 13.1189 70.803 13.1316 70.7932 13.1697C70.7861 13.2007 70.7508 13.1951 70.7268 13.1951C70.5561 13.188 70.3867 13.1824 70.2174 13.2064C70.1934 13.2092 70.1596 13.205 70.1525 13.1753C70.144 13.1429 70.1793 13.1344 70.2005 13.1231C70.3684 13.0371 70.3825 12.9905 70.288 12.824C70.2851 12.8197 70.2852 12.8141 70.2823 12.8127C70.1737 12.7379 70.0566 12.7873 69.9423 12.7901C69.8858 12.7901 69.8138 12.7816 69.8011 12.872C69.7969 12.9058 69.7743 12.9355 69.7616 12.9679C69.7306 13.0455 69.7475 13.0949 69.8407 13.1034C69.8759 13.1062 69.9352 13.0907 69.9324 13.1471C69.9281 13.2078 69.8661 13.188 69.8265 13.1909C69.7913 13.1937 69.756 13.1909 69.7221 13.1909ZM70.0622 12.6673C70.2428 12.6673 70.2485 12.6659 70.1723 12.5008C70.1412 12.4331 70.1412 12.3089 70.0707 12.3075C69.9761 12.3061 69.9931 12.4331 69.9606 12.5037C69.8872 12.6659 69.8915 12.6673 70.0608 12.6673H70.0622Z" fill="#0D1853"/>
<path d="M18.5414 12.7463C18.5922 12.8875 18.5527 13.0018 18.5358 13.1161C18.5259 13.1781 18.4751 13.1654 18.4327 13.1697C18.159 13.1908 17.8852 13.188 17.6101 13.1725C17.4676 13.164 17.3222 13.1781 17.1783 13.1866C17.1261 13.1894 17.0583 13.2007 17.0513 13.1358C17.0442 13.0695 17.1148 13.0751 17.1613 13.0794C17.294 13.0892 17.3293 13.0257 17.325 12.903C17.318 12.6673 17.3222 12.4317 17.325 12.196C17.3278 12.0916 17.3152 12.0196 17.1811 12.0605C17.1275 12.0775 17.0668 12.0605 17.0654 11.9928C17.064 11.9166 17.1289 11.9392 17.174 11.9378C17.3702 11.9307 17.5663 11.9237 17.7611 11.9208C17.7977 11.9208 17.8612 11.9011 17.8627 11.9674C17.8641 12.038 17.8006 12.014 17.7625 12.0154C17.579 12.0239 17.5734 12.0267 17.5734 12.2129C17.5734 12.4655 17.5748 12.7195 17.5734 12.9721C17.5734 13.0356 17.5875 13.0709 17.6595 13.0695C17.8203 13.0695 17.9826 13.0794 18.1435 13.0751C18.2507 13.0723 18.3424 13.0286 18.4017 12.927C18.4356 12.8677 18.485 12.8183 18.54 12.7478L18.5414 12.7463Z" fill="#0D1853"/>
<path d="M68.3889 12.7392C68.4326 12.8888 68.3945 13.0031 68.3804 13.1188C68.3733 13.1795 68.3169 13.1668 68.2746 13.1696C67.9994 13.1936 67.7256 13.1908 67.4505 13.1696C67.3023 13.1583 67.1542 13.1809 67.006 13.1866C66.9594 13.188 66.8945 13.195 66.8931 13.1329C66.8917 13.0821 66.9481 13.0723 66.9947 13.0765C67.1287 13.0906 67.1781 13.037 67.1711 12.8973C67.1598 12.6574 67.1654 12.4175 67.1697 12.1776C67.1711 12.0802 67.1556 12.0224 67.037 12.0577C66.9806 12.0746 66.91 12.069 66.9086 11.9899C66.9072 11.9166 66.9749 11.9377 67.0201 11.9363C67.2162 11.9293 67.4124 11.9222 67.6085 11.918C67.648 11.918 67.7129 11.9053 67.7101 11.9674C67.7087 12.028 67.6466 12.0125 67.6057 12.0139C67.4293 12.021 67.4194 12.028 67.418 12.203C67.4166 12.4641 67.418 12.7251 67.418 12.9862C67.418 13.0469 67.4448 13.0694 67.5069 13.0694C67.6678 13.0694 67.8301 13.0793 67.9909 13.0751C68.0939 13.0723 68.1828 13.0271 68.2435 12.9354C68.283 12.8747 68.3282 12.8183 68.386 12.7392H68.3889Z" fill="#0D1853"/>
<path d="M14.8317 11.9349C14.9558 11.9603 15.1096 11.8939 15.2677 11.9165C15.3016 11.9207 15.3453 11.9165 15.3453 11.9659C15.3453 12.0153 15.303 12.0111 15.2677 12.0139C15.0504 12.0322 15.0532 12.0322 15.0504 12.2538C15.0476 12.4965 15.0786 12.7392 15.0546 12.9819C15.049 13.0426 15.0786 13.068 15.1407 13.068C15.3016 13.068 15.4638 13.0764 15.6247 13.075C15.7842 13.0736 15.8674 12.9607 15.9478 12.8422C15.9662 12.8154 15.9718 12.7519 16.0255 12.7745C16.0607 12.79 16.041 12.8366 16.0466 12.8704C16.0593 12.9509 16.0198 13.0242 16.0184 13.1033C16.0184 13.1738 15.9591 13.1653 15.9112 13.1682C15.636 13.1907 15.3622 13.1851 15.0871 13.1696C14.9431 13.1625 14.7992 13.1766 14.6553 13.1837C14.6031 13.1865 14.5339 13.1978 14.5283 13.1329C14.524 13.0722 14.5918 13.0779 14.6397 13.075C14.8048 13.0637 14.8048 13.0595 14.8034 12.8874C14.802 12.6573 14.7837 12.4259 14.8034 12.1959C14.8119 12.0957 14.7978 12.0167 14.6609 12.059C14.6101 12.0746 14.5466 12.0661 14.5424 11.9927C14.5396 11.9165 14.6045 11.9377 14.6496 11.9349C14.6976 11.932 14.7456 11.9349 14.8274 11.9349H14.8317Z" fill="#0D1853"/>
<path d="M43.8822 12.7491C43.9316 12.8888 43.8963 13.0073 43.8752 13.1244C43.8639 13.1837 43.806 13.1654 43.7651 13.1682C43.4899 13.1936 43.2162 13.1894 42.941 13.1682C42.7971 13.1569 42.6531 13.1781 42.5092 13.1851C42.4612 13.1879 42.3977 13.195 42.3935 13.1343C42.3893 13.0666 42.4556 13.0736 42.5022 13.0765C42.6193 13.0821 42.6715 13.0412 42.6658 12.9128C42.656 12.6672 42.6616 12.4231 42.6658 12.1776C42.6673 12.0816 42.6532 12.021 42.5332 12.0576C42.4754 12.0746 42.4076 12.0661 42.4062 11.9885C42.4062 11.9179 42.4725 11.9363 42.5177 11.9349C42.7138 11.9278 42.91 11.9208 43.1061 11.9179C43.1442 11.9179 43.2091 11.9024 43.2077 11.9673C43.2077 12.0322 43.1442 12.0111 43.1033 12.0139C42.9213 12.021 42.9184 12.0238 42.9184 12.2016C42.9184 12.4598 42.9198 12.7166 42.9184 12.9749C42.9184 13.0398 42.9325 13.0708 43.0045 13.0708C43.1654 13.0708 43.3277 13.0807 43.4885 13.0765C43.5915 13.0736 43.6804 13.0285 43.7397 12.9354C43.7778 12.8747 43.8258 12.8211 43.878 12.7519L43.8822 12.7491Z" fill="#0D1853"/>
<path d="M60.4204 3.76888C60.4261 4.05816 60.4261 4.05392 60.1537 4.05957C60.0394 4.06239 59.9449 4.06239 59.928 3.91563C59.9209 3.85919 59.9237 3.83097 59.9886 3.83661C60.0154 3.83802 60.0423 3.83379 60.0677 3.83661C60.1848 3.85637 60.2031 3.79851 60.1975 3.6955C60.1664 3.08731 60.1425 2.47912 60.11 1.87094C60.1044 1.76087 60.134 1.727 60.2455 1.73265C60.3428 1.73829 60.3344 1.79756 60.3372 1.85683C60.3513 2.18985 60.364 2.52287 60.3781 2.85448C60.3922 3.16492 60.4077 3.47537 60.4218 3.76747L60.4204 3.76888Z" fill="#0D1853"/>
<path d="M60.7647 12.1946C60.7464 12.2454 60.8113 12.3442 60.7436 12.3738C60.6589 12.4105 60.6674 12.2906 60.625 12.2483C60.4783 12.0944 60.2779 12.0281 60.1043 12.0916C59.9421 12.1509 59.8221 12.3343 59.8137 12.5375C59.801 12.8452 59.9661 13.0357 60.2709 13.0582C60.4106 13.0695 60.515 13.0046 60.5912 12.8903C60.6152 12.8536 60.6363 12.8155 60.6617 12.7802C60.6773 12.7591 60.7027 12.745 60.7309 12.7577C60.7563 12.7704 60.7746 12.7944 60.7633 12.8212C60.7224 12.9143 60.7506 13.0117 60.7408 13.1076C60.7394 13.1274 60.7478 13.157 60.7168 13.1584C60.7027 13.1584 60.6801 13.1471 60.6744 13.1358C60.642 13.0611 60.5954 13.0921 60.546 13.1133C60.2934 13.2205 60.0493 13.2247 59.8052 13.0766C59.5865 12.9439 59.5583 12.7266 59.5667 12.5164C59.5752 12.2849 59.7036 12.0987 59.9294 12.0126C60.1213 11.9392 60.3188 11.9166 60.5192 11.9985C60.5573 12.014 60.6039 12.0436 60.6434 12.0168C60.7859 11.9223 60.7859 12.0055 60.7704 12.1142C60.7676 12.1354 60.7676 12.1579 60.7662 12.1946H60.7647Z" fill="#0D1853"/>
<path d="M30.0631 12.9439C29.9713 13.047 29.8881 13.126 29.7822 13.1796C29.6905 13.2262 29.5917 13.2473 29.5085 13.1838C29.4266 13.1203 29.4591 13.0244 29.4831 12.9397C29.5452 12.7309 29.8951 12.4613 30.1181 12.4501C30.2648 12.443 30.4342 12.2708 30.437 12.1241C30.437 12.0747 30.406 12.0691 30.3679 12.0662C30.3185 12.062 30.2366 12.086 30.238 12.0197C30.2394 11.9491 30.3241 11.9943 30.3707 11.983C30.437 11.966 30.509 11.9703 30.5795 11.9604C30.6755 11.9477 30.7164 11.9689 30.6684 12.0719C30.5358 12.3597 30.4045 12.649 30.2733 12.9383C30.2592 12.9693 30.2282 13.006 30.262 13.0314C30.2945 13.0568 30.3227 13.023 30.3495 12.999C30.3947 12.9581 30.4441 12.92 30.4934 12.8847C30.5118 12.872 30.5358 12.872 30.5555 12.8861C30.5753 12.8988 30.5711 12.9185 30.5584 12.9298C30.4469 13.0286 30.3721 13.174 30.1999 13.1979C30.0885 13.2135 30.0447 13.1782 30.0631 13.0667C30.0687 13.0343 30.0631 13.0004 30.0631 12.9439ZM29.706 13.0484C29.8853 13.0441 30.214 12.7365 30.2239 12.5982C30.231 12.5079 30.1647 12.5192 30.1195 12.5404C29.929 12.6321 29.7879 12.7788 29.6849 12.9609C29.6496 13.023 29.6835 13.0484 29.706 13.0484Z" fill="#0D1853"/>
<path d="M38.1982 13.1951C38.098 13.1951 37.9964 13.1951 37.8962 13.1951C37.8595 13.1951 37.8186 13.1894 37.8158 13.1457C37.8115 13.0907 37.8581 13.0907 37.899 13.085C38.1065 13.061 38.1051 13.061 38.1079 12.8494C38.1107 12.6659 38.1192 12.4825 38.1206 12.2976C38.1206 12.2285 38.1587 12.1269 38.0669 12.1029C37.9625 12.0761 37.8426 12.0337 37.7396 12.117C37.6958 12.1523 37.6606 12.1988 37.6225 12.2412C37.6069 12.2581 37.5872 12.2736 37.566 12.2638C37.5406 12.2525 37.5265 12.2271 37.5336 12.1974C37.5561 12.1128 37.5801 12.0295 37.6055 11.9463C37.6168 11.911 37.6535 11.8912 37.6775 11.9096C37.8327 12.0253 38.0119 11.966 38.1798 11.9815C38.3238 11.9956 38.4691 11.9829 38.6131 11.9815C38.6695 11.9815 38.7217 11.9773 38.7725 11.9392C38.8388 11.8912 38.891 11.9152 38.8882 12.0041C38.8854 12.0733 38.9164 12.1438 38.8812 12.2115C38.8699 12.2327 38.8769 12.2694 38.8402 12.2694C38.8092 12.2694 38.7993 12.2454 38.788 12.22C38.7429 12.1156 38.4903 12.0394 38.3957 12.1001C38.3605 12.1226 38.359 12.1593 38.3576 12.1932C38.3449 12.4599 38.3322 12.7252 38.3224 12.9919C38.3209 13.0455 38.3506 13.0836 38.4099 13.0864C38.4409 13.0864 38.4719 13.0864 38.5016 13.0864C38.5467 13.0864 38.5848 13.1048 38.5834 13.1513C38.582 13.2007 38.5326 13.1909 38.5016 13.1909C38.4014 13.1923 38.2998 13.1909 38.1996 13.1909L38.1982 13.1951Z" fill="#0D1853"/>
<path d="M11.0103 12.6307C11.0061 12.7309 11.0061 12.8325 10.9948 12.9326C10.9807 13.0441 11.0103 13.1048 11.1331 13.0921C11.1585 13.0893 11.1853 13.0921 11.2107 13.0977C11.2389 13.1048 11.2544 13.126 11.253 13.1556C11.2502 13.1909 11.222 13.1937 11.1952 13.1951C10.9807 13.1951 10.7662 13.1951 10.5517 13.1951C10.5192 13.1951 10.4882 13.1838 10.4854 13.1457C10.4825 13.0977 10.5192 13.0907 10.5559 13.0879C10.5771 13.0865 10.5997 13.085 10.6222 13.0879C10.7365 13.0963 10.7761 13.0385 10.7761 12.9298C10.7775 12.7069 10.7916 12.4839 10.793 12.261C10.793 12.2059 10.8142 12.1213 10.7323 12.1043C10.6194 12.0817 10.4981 12.0394 10.3922 12.1283C10.3555 12.1594 10.3287 12.2003 10.2977 12.2356C10.2808 12.2567 10.2596 12.2765 10.2314 12.2638C10.2046 12.2525 10.1933 12.2257 10.2017 12.1975C10.2243 12.1142 10.2483 12.0295 10.2751 11.9477C10.2892 11.9054 10.3358 11.8912 10.3598 11.9195C10.4529 12.0239 10.5743 11.9731 10.6801 11.9801C10.8847 11.9943 11.0921 11.9858 11.2982 11.9844C11.332 11.9844 11.3687 11.9816 11.3998 11.9689C11.4477 11.9505 11.4887 11.88 11.5451 11.9491C11.5804 11.9928 11.5649 12.2483 11.5296 12.2666C11.4844 12.2892 11.4717 12.2539 11.4576 12.22C11.4167 12.1198 11.1542 12.0436 11.0625 12.1043C11.023 12.1297 11.0244 12.1735 11.0216 12.2102C11.0131 12.3499 11.0089 12.4896 11.0018 12.6307H11.0089H11.0103Z" fill="#0D1853"/>
<path d="M65.2703 12.6278C65.2703 12.7167 65.2773 12.8268 65.2689 12.9354C65.259 13.0469 65.2886 13.1062 65.41 13.0906C65.4354 13.0878 65.4636 13.0906 65.4876 13.0977C65.513 13.1062 65.5341 13.1273 65.5327 13.1555C65.5299 13.1894 65.4989 13.1936 65.4735 13.1936C65.259 13.1936 65.0445 13.1951 64.83 13.1936C64.7919 13.1936 64.7552 13.1809 64.7566 13.1372C64.758 13.0935 64.7975 13.0892 64.8342 13.085C65.0487 13.0568 65.0586 13.037 65.053 12.8183C65.0487 12.6165 65.0558 12.4161 65.0628 12.2143C65.0657 12.1311 65.0332 12.1014 64.9528 12.0873C64.7975 12.0605 64.6649 12.076 64.576 12.2242C64.5605 12.251 64.5365 12.2778 64.5012 12.2609C64.4673 12.244 64.473 12.2073 64.4786 12.1791C64.4913 12.1198 64.5139 12.0619 64.5294 12.0027C64.5534 11.9067 64.5915 11.8644 64.6762 11.9561C64.7228 12.0055 64.7848 11.9646 64.8399 11.9716C65.0544 11.9956 65.2689 11.9857 65.4833 11.9843C65.5694 11.9843 65.6555 11.9942 65.7345 11.9335C65.7797 11.8982 65.8291 11.9152 65.8248 11.99C65.8206 12.0676 65.8615 12.1452 65.8248 12.2228C65.8135 12.2468 65.8121 12.2764 65.7769 12.2736C65.75 12.2722 65.7444 12.2482 65.7345 12.2284C65.6795 12.1212 65.4495 12.045 65.3465 12.0986C65.3055 12.1198 65.2999 12.1579 65.2985 12.1988C65.29 12.3343 65.2816 12.4697 65.2703 12.6264V12.6278Z" fill="#0D1853"/>
<path d="M40.7652 12.6081C40.7652 12.7209 40.7709 12.8352 40.7638 12.9481C40.7582 13.0455 40.785 13.1019 40.8936 13.0907C40.919 13.0878 40.9473 13.0878 40.9727 13.0935C41.0037 13.1005 41.0291 13.1203 41.0263 13.157C41.0235 13.1937 40.9924 13.1937 40.9684 13.1937C40.7539 13.1937 40.5409 13.1937 40.3264 13.1937C40.2883 13.1937 40.2544 13.1781 40.2572 13.133C40.2601 13.0949 40.2925 13.0907 40.325 13.085C40.555 13.0455 40.5606 13.0328 40.5522 12.7986C40.5465 12.6377 40.5578 12.4754 40.5564 12.3131C40.5564 12.2398 40.6015 12.1509 40.5112 12.1015C40.411 12.0464 40.2262 12.069 40.1514 12.1396C40.1232 12.1664 40.0992 12.1974 40.0738 12.2271C40.054 12.2496 40.0357 12.2807 39.999 12.2567C39.9651 12.2369 39.9722 12.2017 39.9792 12.1734C39.9919 12.1184 40.0117 12.0648 40.0272 12.0112C40.0526 11.9194 40.0837 11.8531 40.181 11.9561C40.2234 12.0013 40.2812 11.9646 40.332 11.9688C40.5634 11.9914 40.7963 11.9829 41.0277 11.9815C41.0968 11.9815 41.1632 11.9829 41.2267 11.9335C41.2761 11.8954 41.3311 11.9081 41.3254 11.9914C41.3198 12.0648 41.3678 12.1367 41.3254 12.2101C41.3142 12.2313 41.3212 12.2666 41.2873 12.2708C41.2563 12.2736 41.2464 12.2482 41.2337 12.2228C41.1872 12.1198 40.943 12.0422 40.8428 12.0972C40.8076 12.117 40.7991 12.1494 40.7963 12.1861C40.7963 12.1988 40.7949 12.2129 40.7935 12.2256C40.7864 12.3526 40.7808 12.4782 40.7737 12.6052H40.7666L40.7652 12.6081Z" fill="#0D1853"/>
<path d="M78.7522 3.68131C78.7169 3.68131 78.6816 3.68131 78.6463 3.68131C78.5306 3.68131 78.4572 3.59806 78.4699 3.48658C78.477 3.4259 78.5207 3.44989 78.549 3.44848C78.7522 3.43578 78.7564 3.43719 78.738 3.23681C78.6858 2.70482 78.628 2.17284 78.5743 1.64085C78.5701 1.5971 78.525 1.52796 78.6237 1.52796C78.6943 1.52796 78.7705 1.50397 78.7804 1.62391C78.8029 1.89908 78.8382 2.17284 78.8665 2.448C78.9046 2.81348 78.9328 3.18178 78.9808 3.54585C78.9977 3.67567 78.9525 3.69683 78.8453 3.68272C78.8156 3.67849 78.7846 3.68272 78.7536 3.68272L78.7522 3.68131Z" fill="#0D1853"/>
<path d="M17.7033 3.16631C17.7132 3.45277 17.7132 3.45418 17.4535 3.45135C17.3674 3.45135 17.256 3.49651 17.2517 3.33C17.2489 3.24251 17.2673 3.21993 17.3449 3.23122C17.469 3.25098 17.493 3.20582 17.4832 3.08023C17.4451 2.60469 17.4211 2.12773 17.3957 1.65078C17.3928 1.59857 17.359 1.52096 17.4705 1.52519C17.5481 1.52801 17.6087 1.51813 17.6144 1.63243C17.6398 2.15313 17.6737 2.67383 17.7033 3.16631Z" fill="#0D1853"/>
<path d="M27.9732 12.6306C27.9294 12.6518 27.8857 12.6702 27.8448 12.6927C27.8151 12.7083 27.7827 12.7478 27.7544 12.7083C27.7333 12.68 27.7714 12.6532 27.794 12.6349C27.8532 12.5841 27.9125 12.5333 27.976 12.4881C28.0423 12.4416 28.1213 12.3992 28.1947 12.4472C28.2836 12.5036 28.1679 12.5671 28.1806 12.6462C28.309 12.5629 28.4388 12.4966 28.5814 12.4627C28.635 12.45 28.6985 12.4204 28.738 12.4797C28.7719 12.5305 28.7281 12.5756 28.7069 12.6236C28.6434 12.7633 28.532 12.8705 28.4529 12.9975C28.4671 13.0102 28.4727 13.0201 28.4783 13.0201C28.5291 13.0215 28.5955 12.9453 28.6265 13.0229C28.6477 13.0751 28.5644 13.0949 28.5277 13.1288C28.4642 13.188 28.3782 13.1979 28.2977 13.2177C28.2568 13.2275 28.2201 13.2205 28.1919 13.1852C28.1566 13.1415 28.1806 13.102 28.206 13.0653C28.2977 12.927 28.3909 12.7901 28.4826 12.6518C28.4953 12.6321 28.5235 12.6109 28.4967 12.5841C28.4713 12.5573 28.4487 12.5869 28.4261 12.594C28.2836 12.6405 28.206 12.7605 28.1157 12.8663C28.0395 12.9552 27.9633 13.0455 27.8956 13.1415C27.8419 13.2177 27.77 13.2191 27.7135 13.1796C27.6543 13.1386 27.7163 13.0864 27.7432 13.0455C27.8278 12.9143 27.9167 12.7845 28.0028 12.6532V12.6208L27.9718 12.6292L27.9732 12.6306Z" fill="#0D1853"/>
<path d="M51.5643 11.9533C51.7266 11.99 51.8931 11.966 52.0596 11.9618C52.0963 11.9618 52.1499 11.9434 52.1584 11.9985C52.1668 12.0606 52.109 12.0464 52.0737 12.0507C51.9538 12.0634 51.8959 12.1212 51.9072 12.2496C51.9284 12.4867 51.8691 12.7195 51.8677 12.9566C51.8677 13.0639 51.8917 13.1147 52.0003 13.1147C52.013 13.1147 52.0271 13.1147 52.0398 13.1189C52.0723 13.1288 52.1203 13.1316 52.1189 13.1725C52.1189 13.2233 52.0667 13.2106 52.0356 13.2078C51.8437 13.1909 51.6546 13.157 51.4613 13.1951C51.4317 13.2007 51.395 13.1937 51.3936 13.1528C51.3936 13.1203 51.4246 13.1118 51.4486 13.1062C51.4825 13.0977 51.5177 13.0949 51.5516 13.0907C51.5982 13.085 51.6165 13.061 51.6222 13.0131C51.649 12.7435 51.6349 12.4698 51.6842 12.2017C51.6984 12.1226 51.6631 12.0761 51.5812 12.0662C51.5728 12.0662 51.5629 12.0662 51.5544 12.0634C51.5079 12.0521 51.4274 12.0733 51.4302 12.0013C51.4345 11.9194 51.5149 11.9759 51.5615 11.9533H51.5643Z" fill="#0D1853"/>
<path d="M12.8732 11.9574C13.0242 11.9927 13.1949 11.9645 13.3642 11.9616C13.3981 11.9616 13.4433 11.9518 13.4475 12.0012C13.4531 12.0548 13.4052 12.0477 13.3727 12.0491C13.2372 12.059 13.1921 12.1267 13.1935 12.2636C13.1935 12.495 13.1766 12.7265 13.1568 12.9565C13.1483 13.0581 13.1751 13.1075 13.2782 13.1117C13.2993 13.1117 13.3233 13.1131 13.3431 13.1202C13.3713 13.13 13.4108 13.1343 13.4094 13.1724C13.4066 13.2161 13.3642 13.2077 13.3374 13.2062C13.1413 13.1921 12.9465 13.1554 12.7504 13.1935C12.7236 13.1992 12.6925 13.1893 12.6855 13.1611C12.677 13.1202 12.7165 13.1032 12.7419 13.1046C12.9014 13.1117 12.9042 13.0157 12.9197 12.8902C12.948 12.6587 12.9197 12.4245 12.9748 12.1959C12.9917 12.1239 12.955 12.0774 12.8816 12.0661C12.8562 12.0618 12.8294 12.0618 12.8026 12.0576C12.7645 12.0505 12.7137 12.0505 12.7194 11.9969C12.725 11.9391 12.7786 11.9616 12.8139 11.9574C12.8266 11.956 12.8407 11.9574 12.8732 11.9574Z" fill="#0D1853"/>
<path d="M6.34637 11.9533C6.51571 11.9914 6.68645 11.966 6.85579 11.9618C6.89106 11.9618 6.93904 11.9533 6.94469 11.9956C6.95315 12.0521 6.89953 12.0479 6.86143 12.0507C6.73302 12.0606 6.68645 12.1212 6.68786 12.2567C6.68927 12.4924 6.66811 12.728 6.65117 12.9637C6.64412 13.0596 6.67234 13.1161 6.77817 13.1147C6.79934 13.1147 6.82333 13.1161 6.84309 13.1245C6.86849 13.1358 6.91082 13.1386 6.90235 13.181C6.8953 13.212 6.86143 13.2092 6.83603 13.2092C6.79229 13.2078 6.74854 13.2021 6.7048 13.1979C6.56086 13.1796 6.41834 13.1655 6.27441 13.1951C6.23772 13.2021 6.18269 13.205 6.17845 13.157C6.17422 13.1118 6.22925 13.0949 6.26735 13.0977C6.39012 13.1062 6.39435 13.0413 6.40846 12.9397C6.44092 12.6998 6.41552 12.4571 6.46632 12.22C6.48607 12.1255 6.44656 12.0662 6.34214 12.0648C6.33791 12.0648 6.33367 12.0648 6.32944 12.0634C6.2857 12.0535 6.21373 12.0704 6.21938 12.0027C6.22502 11.9194 6.30404 11.9773 6.34637 11.9547V11.9533Z" fill="#0D1853"/>
<path d="M78.7632 0.619255C78.7646 0.266477 79.0384 -0.0030444 79.3911 -0.00022218C79.734 0.00260004 80.0007 0.279177 79.9979 0.627721C79.9951 0.977676 79.7298 1.24438 79.3827 1.2472C79.0341 1.25002 78.7618 0.973443 78.7632 0.619255ZM79.3798 1.15971C79.6607 1.15971 79.8949 0.914176 79.8921 0.620666C79.8893 0.334211 79.6578 0.0858555 79.3883 0.080211C79.1174 0.0745666 78.8718 0.329977 78.869 0.619255C78.8662 0.912765 79.0976 1.1583 79.3798 1.15971Z" fill="#0D1853"/>
<path d="M26.6679 13.0399L26.8965 12.9397C26.8824 13.0836 26.627 13.2459 26.5085 13.1951C26.421 13.1584 26.469 13.0978 26.4944 13.0131C26.4224 13.0568 26.3716 13.0836 26.325 13.1161C26.2658 13.1584 26.2009 13.1824 26.1317 13.1909C26.0019 13.2064 25.9215 13.109 25.9624 12.9863C26.0428 12.745 26.4633 12.4684 26.7201 12.4938C26.7554 12.4966 26.7766 12.491 26.8006 12.4698C26.8302 12.4444 26.8641 12.4134 26.9036 12.4501C26.9417 12.4867 26.929 12.5305 26.9078 12.5714C26.8443 12.6914 26.7808 12.8099 26.7187 12.9298C26.7046 12.9566 26.6947 12.9849 26.6708 13.0427L26.6679 13.0399ZM26.6849 12.6208C26.6849 12.5756 26.6538 12.5573 26.603 12.5785C26.4139 12.6561 26.2883 12.8028 26.1938 12.9792C26.1811 13.0032 26.1684 13.0371 26.198 13.0639C26.2319 13.0949 26.2658 13.0766 26.2926 13.0568C26.4323 12.9595 26.5565 12.8438 26.651 12.7012C26.6679 12.6758 26.675 12.6462 26.6849 12.6208Z" fill="#0D1853"/>
<path d="M74.5554 7.32633C74.6555 7.29811 74.7078 7.31927 74.7374 7.41946C74.8235 7.70733 74.9999 7.94016 75.2144 8.14477C75.2666 8.19557 75.3301 8.23367 75.3738 8.29294C75.0366 8.173 74.6598 7.71156 74.554 7.32492L74.5554 7.32633Z" fill="#0D1853"/>
<path d="M25.7859 2.15318C25.6278 2.0544 25.4557 2.05017 25.2864 2.0544C25.1819 2.05723 25.1424 2.03606 25.1438 1.92035C25.1452 1.77924 25.2384 1.83709 25.2976 1.83709C25.5037 1.83427 25.6913 1.8766 25.7859 2.09109C25.7915 2.10238 25.7929 2.11508 25.7958 2.12778C25.7958 2.1306 25.7929 2.13484 25.7859 2.15177V2.15318Z" fill="#0D1853"/>
<path d="M39.3978 2.17994C39.2398 2.03036 39.069 2.04589 38.9053 2.05294C38.7727 2.05859 38.8164 1.96969 38.8094 1.90477C38.7995 1.81587 38.8531 1.82293 38.9166 1.82575C39.1424 1.8314 39.3174 1.90477 39.3964 2.17853L39.3978 2.17994Z" fill="#0D1853"/>
<path d="M11.5918 2.15737C11.4493 2.06988 11.2913 2.04166 11.1276 2.05295C11.0246 2.06001 11.0471 1.99227 11.0429 1.93301C11.0387 1.86386 11.0528 1.83282 11.136 1.83705C11.3971 1.84552 11.5382 1.94147 11.5904 2.16019H11.5918V2.15737Z" fill="#0D1853"/>
<path d="M71.283 2.07694C71.41 2.09529 71.5214 2.12351 71.64 2.08682C71.7148 2.06283 71.7359 2.13056 71.7317 2.19265C71.7246 2.31965 71.6301 2.38739 71.5341 2.47064C71.5087 2.38598 71.4876 2.31119 71.4382 2.25051C71.3916 2.19406 71.3408 2.14185 71.283 2.07553V2.07694Z" fill="#0D1853"/>
<path d="M62.4708 2.13617C62.3579 2.05715 62.228 2.03739 62.0968 2.05291C61.9712 2.06844 61.9839 1.99506 61.9783 1.9118C61.9712 1.80174 62.0404 1.8356 62.0968 1.8356C62.2986 1.8356 62.4242 1.9372 62.4806 2.1277C62.4778 2.13053 62.4736 2.13335 62.4708 2.13617Z" fill="#0D1853"/>
<path d="M29.6428 2.16022C29.5045 2.07979 29.362 2.0558 29.2152 2.05156C29.1122 2.04874 29.1658 1.96125 29.156 1.91045C29.1447 1.85401 29.1743 1.83849 29.2307 1.83849C29.4438 1.83708 29.5708 1.9288 29.6428 2.16022Z" fill="#0D1853"/>
<path d="M6.18017 2.17284C6.05176 2.06983 5.93464 2.04302 5.81046 2.05149C5.69334 2.05996 5.73426 1.97529 5.7258 1.91884C5.71592 1.84265 5.75825 1.83559 5.82034 1.83982C6.00943 1.85252 6.10538 1.97106 6.17876 2.17426L6.18017 2.17284Z" fill="#0D1853"/>
<path d="M0.76022 2.13343C0.658621 2.04736 0.535854 2.04312 0.414499 2.053C0.294554 2.06288 0.324188 1.98527 0.318543 1.91895C0.311488 1.83146 0.360877 1.83428 0.424376 1.83569C0.613465 1.84275 0.712243 1.95563 0.774331 2.11932C0.770098 2.12356 0.765865 2.12779 0.761632 2.13343H0.76022Z" fill="#0D1853"/>
<path d="M48.7587 2.12198C48.6712 2.04578 48.5654 2.04719 48.4609 2.05284C48.3325 2.05989 48.3833 1.96817 48.3749 1.91031C48.3636 1.82565 48.4214 1.83552 48.4751 1.83976C48.6416 1.85105 48.7361 1.94418 48.7813 2.09799L48.7587 2.12198Z" fill="#0D1853"/>
<path d="M19.7098 2.15594C19.5955 2.11502 19.4883 2.0614 19.3627 2.05152C19.2582 2.04305 19.3161 1.94569 19.3133 1.89206C19.309 1.81022 19.3711 1.85255 19.405 1.86384C19.5503 1.91464 19.6435 2.0233 19.707 2.15876V2.15594H19.7098Z" fill="#0D1853"/>
<path d="M37.3643 2.50019C37.4108 2.5016 37.4306 2.53829 37.4503 2.57216L37.4334 2.58909C37.4038 2.5651 37.3784 2.53688 37.3657 2.49878H37.3643V2.50019Z" fill="#0D1853"/>
<path d="M48.7828 2.09662C48.7984 2.1065 48.8096 2.12484 48.7969 2.13754C48.7814 2.15447 48.7715 2.12907 48.7603 2.12202C48.7673 2.11355 48.7758 2.1065 48.7828 2.09803V2.09662Z" fill="#0D1853"/>
<path d="M19.7085 2.15871H19.7395L19.7367 2.17564L19.7099 2.15588V2.15871H19.7085Z" fill="#0D1853"/>
<path d="M37.2672 2.38189L37.2568 2.37744V2.38337L37.2672 2.38189Z" fill="#0D1853"/>
<path d="M56.0485 8.00493L56.0231 7.97812L56.0203 7.98094C56.0457 7.97389 56.0555 7.98094 56.0457 8.00775V8.00493H56.0485Z" fill="#0D1853"/>
<path d="M56.0233 7.97823L55.9965 7.95283H55.9937C56.0261 7.93872 56.0247 7.95847 56.0205 7.98105L56.0233 7.97823Z" fill="#0D1853"/>
<path d="M55.9965 7.9528L55.981 7.92881C55.981 7.92881 55.9908 7.92599 55.9937 7.9274C56.0064 7.93586 56.0049 7.94574 55.9937 7.95562H55.9965V7.9528Z" fill="#0D1853"/>
<path d="M55.9471 7.87094C55.9542 7.87941 55.9669 7.8907 55.9655 7.89493C55.9542 7.91751 55.9415 7.90057 55.9302 7.89211C55.9358 7.88505 55.9415 7.878 55.9471 7.87094Z" fill="#0D1853"/>
<path d="M56.074 8.03179C56.0655 8.02332 56.0571 8.01344 56.0486 8.00497V8.0078C56.0712 8.00215 56.0726 8.01767 56.0726 8.03461V8.03179H56.074Z" fill="#0D1853"/>
<path d="M56.0995 8.05864C56.091 8.05017 56.0826 8.0403 56.0741 8.03183L56.0713 8.03465C56.0896 8.03465 56.0981 8.04312 56.0967 8.06146H56.0981L56.0995 8.05864Z" fill="#0D1853"/>
<path d="M15.835 6.05794H15.8527V6.06831L15.8364 6.0535V6.05646L15.835 6.05794Z" fill="#0D1853"/>
<path d="M65.0846 5.98899L65.0758 5.99492C65.0758 5.99492 65.0698 5.98899 65.0698 5.98603C65.0698 5.98307 65.0743 5.98158 65.0772 5.9801L65.0832 5.98899H65.0846Z" fill="#0D1853"/>
<path d="M72.6526 0.942956H72.6318C72.6437 0.916286 72.6452 0.939993 72.6511 0.945919V0.942956H72.6526Z" fill="#0D1853"/>
<path d="M78.8169 5.50167L78.7986 5.48615L78.8155 5.4791C78.8155 5.48615 78.8169 5.49321 78.8183 5.50167H78.8169Z" fill="#0D1853"/>
<path d="M78.7663 5.42128L78.7791 5.43962C78.7565 5.44245 78.7664 5.42833 78.7678 5.41846V5.42128H78.7663Z" fill="#0D1853"/>
<path d="M78.7673 5.41978C78.7447 5.42542 78.7405 5.41272 78.7405 5.39438V5.3972C78.7475 5.40567 78.756 5.41413 78.7659 5.4226V5.41978H78.7673Z" fill="#0D1853"/>
<path d="M78.7112 5.37034C78.7196 5.37881 78.7295 5.38727 78.738 5.39574L78.7408 5.39292C78.7225 5.39292 78.7168 5.38304 78.714 5.36893H78.7126L78.7112 5.37034Z" fill="#0D1853"/>
<path d="M78.6855 5.34507C78.694 5.35354 78.7025 5.362 78.7124 5.37188H78.7138C78.7053 5.36059 78.6968 5.35213 78.687 5.34366H78.6855V5.34507Z" fill="#0D1853"/>
<path d="M78.6589 5.31543C78.6674 5.32531 78.6759 5.33519 78.6857 5.34506H78.6872C78.6787 5.33519 78.6688 5.32531 78.6603 5.31684L78.6589 5.31543Z" fill="#0D1853"/>
<path d="M78.6605 5.31699L78.6545 5.31403L78.659 5.31551L78.6605 5.31699Z" fill="#0D1853"/>
<path d="M75.7364 2.97012C75.7477 2.97295 75.766 2.97577 75.7547 2.99129C75.7463 3.00399 75.7322 2.99552 75.7251 2.98282C75.7279 2.97859 75.7322 2.97436 75.735 2.97153L75.7364 2.97012Z" fill="#0D1853"/>
<path d="M75.7253 2.98137C75.714 2.97572 75.7027 2.97008 75.6929 2.96302C75.6985 2.95597 75.7042 2.94891 75.7098 2.94327L75.7352 2.97008C75.7352 2.97008 75.7282 2.97855 75.7253 2.98137Z" fill="#0D1853"/>
<path d="M37.4502 2.57077C37.4643 2.58065 37.4785 2.59053 37.4587 2.60605C37.4559 2.60746 37.4418 2.59335 37.4319 2.5877L37.4488 2.57077H37.4502Z" fill="#0D1853"/>
<path d="M56.0979 8.06147L56.1275 8.08546C56.1177 8.0784 56.1092 8.06853 56.0993 8.06006H56.0979V8.06147Z" fill="#0D1853"/>
<path d="M37.3359 2.47633C37.3571 2.47069 37.3656 2.48057 37.3642 2.50032H37.3656C37.3557 2.49044 37.3472 2.48198 37.3373 2.47351H37.3359V2.47633Z" fill="#0D1853"/>
<path d="M37.3091 2.45084C37.3274 2.44943 37.3373 2.4579 37.3359 2.47624H37.3373C37.3288 2.46637 37.319 2.4579 37.3105 2.44943L37.3091 2.45084Z" fill="#0D1853"/>
<path d="M56.1262 8.08395L56.1311 8.08885L56.1279 8.08559L56.1262 8.08395Z" fill="#0D1853"/>
<path d="M58.6861 2.39157C58.6988 2.39439 58.7073 2.40004 58.7016 2.41556C58.6931 2.41274 58.6833 2.40992 58.6748 2.40568C58.6776 2.40145 58.6819 2.3958 58.6861 2.39157Z" fill="#0D1853"/>
<path d="M58.6609 2.36331L58.6863 2.39153C58.6863 2.39153 58.6793 2.4 58.675 2.40564C58.6637 2.39718 58.6525 2.39012 58.6426 2.38166C58.6496 2.37601 58.6553 2.37037 58.6609 2.36472V2.36331Z" fill="#0D1853"/>
<path d="M44.6876 9.21997C44.6805 9.21292 44.6664 9.20163 44.6678 9.19881C44.6805 9.17905 44.6918 9.19458 44.7031 9.20163C44.6989 9.20869 44.6932 9.21433 44.6862 9.21997H44.6876Z" fill="#0D1853"/>
<path d="M58.6423 2.38164C58.6339 2.37318 58.6254 2.36612 58.6169 2.35765C58.6226 2.3506 58.6296 2.34354 58.6353 2.33649L58.6607 2.3633C58.6607 2.3633 58.648 2.376 58.6423 2.38023V2.38164Z" fill="#0D1853"/>
<path d="M16.3093 2.31559L16.3241 2.32151H16.3182C16.3153 2.31855 16.3138 2.31559 16.3123 2.31262V2.31559H16.3093Z" fill="#0D1853"/>
<path d="M77.4724 2.26187L77.4887 2.27669H77.4709L77.4739 2.25891V2.26187H77.4724Z" fill="#0D1853"/>
<path d="M77.4733 2.25889L77.4465 2.25607L77.4493 2.24478L77.4719 2.26171V2.25889H77.4733Z" fill="#0D1853"/>
<path d="M77.4115 2.19547C77.4157 2.20534 77.4256 2.22087 77.4228 2.22369C77.4073 2.23921 77.3974 2.22792 77.3889 2.21381L77.4115 2.19547Z" fill="#0D1853"/>
<path d="M21.242 8.26453L21.2547 8.29275C21.2448 8.29134 21.2349 8.28993 21.2236 8.28852C21.2293 8.28005 21.2349 8.27299 21.2406 8.26453H21.242Z" fill="#0D1853"/>
<path d="M11.5903 2.15877H11.6007C11.6007 2.15877 11.5948 2.15877 11.5918 2.15729H11.5903V2.15877Z" fill="#0D1853"/>
<path d="M62.4806 2.12766L62.4947 2.14741C62.4862 2.14318 62.4792 2.14036 62.4707 2.13612C62.4735 2.1333 62.4778 2.13048 62.4806 2.12766Z" fill="#0D1853"/>
<path d="M0.772954 2.11929C0.775776 2.12917 0.784243 2.14469 0.781421 2.1461C0.768721 2.15457 0.763076 2.14469 0.760254 2.1334C0.764487 2.12917 0.768721 2.12353 0.772954 2.11929Z" fill="#0D1853"/>
<path d="M64.9795 8.35073L64.9973 8.35517C64.9973 8.35517 64.9913 8.35813 64.9899 8.35813C64.9869 8.35517 64.9839 8.35221 64.981 8.34924V8.35221L64.9795 8.35073Z" fill="#0D1853"/>
<path d="M54.3864 8.82487C54.3737 8.82204 54.3624 8.81499 54.3709 8.80088C54.3709 8.79947 54.3892 8.80793 54.3991 8.81076C54.3948 8.81499 54.3906 8.82063 54.3864 8.82487Z" fill="#0D1853"/>
<path d="M54.3991 8.8093C54.409 8.81917 54.4288 8.82482 54.4076 8.84175C54.4062 8.84175 54.3935 8.83046 54.385 8.82341C54.3892 8.81917 54.3935 8.81353 54.3977 8.8093H54.3991Z" fill="#0D1853"/>
<path d="M3.29272 8.269L3.30606 8.2853H3.29421V8.26752H3.29272V8.269Z" fill="#0D1853"/>
<path d="M43.2541 2.22656C42.9408 1.9147 42.5471 1.88789 42.1407 1.91047C42.0278 1.91612 41.8839 1.8639 41.8105 1.93305C41.7357 2.0036 41.7865 2.14895 41.7851 2.26184C41.7823 3.07887 41.7823 3.89449 41.7851 4.71152C41.7851 4.7976 41.7795 4.84558 41.6694 4.84699C41.5579 4.84699 41.5537 4.79901 41.5537 4.71293C41.5565 3.74209 41.5565 2.77266 41.5537 1.80182C41.5537 1.70163 41.5805 1.67482 41.6779 1.68046C41.9488 1.69598 42.2212 1.66776 42.4935 1.70163C42.8378 1.74537 43.0805 1.93587 43.2739 2.2068L43.2555 2.22797L43.2541 2.22656Z" fill="#0D1853"/>
<path d="M43.3206 2.26169L43.3354 2.27947H43.322V2.26169H43.3206Z" fill="#0D1853"/>
<path d="M43.2949 2.23346L43.3189 2.26168V2.25886C43.3019 2.2772 43.2921 2.25886 43.2808 2.24898C43.285 2.24334 43.2906 2.23769 43.2949 2.23346Z" fill="#0D1853"/>
<path d="M43.2723 2.20521L43.2962 2.23343C43.2962 2.23343 43.2878 2.24472 43.2821 2.24895C43.2723 2.24049 43.2638 2.23343 43.2539 2.22496L43.2723 2.2038V2.20521Z" fill="#0D1853"/>
<path d="M34.9102 2.56526C34.8933 2.55397 34.8749 2.54268 34.8594 2.52998C34.5179 2.23365 34.1256 2.05726 33.6727 2.01634C33.2296 1.97542 32.7879 1.97824 32.3476 2.04174C32.2813 2.05162 32.2517 2.06714 32.2517 2.14475C32.2559 4.0314 32.2559 5.91947 32.2587 7.80612C32.2587 7.95852 32.2856 8.10951 32.3293 8.26614C32.1162 8.17301 32.0711 7.98956 32.0457 7.79906C32.0301 7.67771 32.0245 7.55494 32.0245 7.43218C32.0245 5.61467 32.0245 3.79857 32.0203 1.98106C32.0203 1.85829 32.0527 1.81737 32.1755 1.80326C32.754 1.74117 33.3312 1.72283 33.9013 1.86817C34.3204 1.97542 34.6421 2.23224 34.9088 2.56526H34.9102Z" fill="#0D1853"/>
<path d="M79.0879 0.28199C79.2107 0.28199 79.3236 0.279168 79.4364 0.28199C79.5155 0.284812 79.5846 0.313034 79.61 0.39629C79.634 0.473901 79.6171 0.551512 79.5479 0.593845C79.4816 0.636178 79.4985 0.668634 79.5352 0.713789C79.5931 0.784344 79.6481 0.856311 79.7088 0.933922C79.6114 0.967789 79.5437 0.942389 79.4999 0.850667C79.4929 0.835144 79.4844 0.818211 79.4731 0.805511C79.4252 0.756122 79.4266 0.657345 79.3292 0.653111C79.3094 0.653111 79.2939 0.662989 79.2967 0.684156C79.3094 0.771645 79.2445 0.8803 79.4054 0.940978H79.0893C79.2205 0.847844 79.2205 0.377945 79.0893 0.280579L79.0879 0.28199ZM79.4943 0.462612C79.4886 0.376534 79.4477 0.321501 79.3588 0.317267C79.2558 0.313034 79.3066 0.393467 79.2967 0.438623C79.2911 0.468256 79.2982 0.499301 79.2953 0.528934C79.284 0.627711 79.3433 0.623478 79.4096 0.606545C79.4858 0.586789 79.4802 0.517645 79.4957 0.462612H79.4943Z" fill="#0D1853"/>
</g>
<defs>
<clipPath id="clip0_1311_45410">
<rect width="80" height="20.8223" fill="white"/>
</clipPath>
</defs>
</svg>
