<svg width="80" height="80" viewBox="0 0 80 80" fill="none" xmlns="http://www.w3.org/2000/svg">
<g clip-path="url(#clip0_1311_43920)">
<path d="M29.055 49.3252C29.055 44.1104 33.2145 39.8037 38.4293 39.8037C42.5642 39.8037 46.1348 42.5522 47.4108 46.2454C46.3066 42.2699 42.6624 39.3497 38.3311 39.3497C33.1164 39.3497 28.8955 43.5706 28.8955 48.7853C28.8955 49.865 29.0918 50.8957 29.4231 51.865C29.19 51.0552 29.055 50.2086 29.055 49.3252Z" fill="white"/>
<path d="M47.337 43.7791C45.5088 40.7852 42.2082 38.7116 38.4536 38.7116C33.5579 38.7116 29.4843 42.1227 28.3186 46.6625C27.7665 48.8098 28.0487 50.4785 28.0487 50.4785C27.9505 49.8895 27.8892 49.2883 27.8892 48.6748C27.8892 42.9447 32.5395 38.2944 38.2695 38.2944C41.1652 38.2944 43.8033 39.4478 45.656 41.3865C46.5272 42.2944 47.337 43.7791 47.337 43.7791Z" fill="white"/>
<path d="M25.0675 47.3006C25.0675 47.3006 25.0307 45.5092 26.2945 43.9386C27.5706 42.3681 28.4172 42.1104 28.4172 42.1104C28.4172 42.1104 27.6933 42.9202 26.6135 44.2699C25.4601 45.7177 25.0675 47.3006 25.0675 47.3006Z" fill="white"/>
<path d="M29.5216 40.4172C29.5216 40.4172 29.3008 39.1166 29.9756 38.6135C30.6505 38.0982 31.6689 38.4417 33.0431 38C34.4173 37.5583 35.8529 36.3068 37.1781 36.3068C38.5032 36.3068 39.3989 37.1411 39.3989 37.1411C39.3989 37.1411 38.5032 36.773 37.2271 36.773C36.0002 36.773 35.0308 37.8528 33.2271 38.4172C31.4235 38.9816 31.0799 38.4663 30.3069 38.9816C29.6198 39.4356 29.5216 40.4172 29.5216 40.4172Z" fill="white"/>
<path d="M46.2937 39.4969C46.2937 39.4969 47.8029 40.0859 48.6127 40.7608C49.4103 41.4233 49.5698 41.7546 49.8029 42.3436C49.9747 42.773 49.9747 43.5951 49.9747 43.5951C49.9747 43.5951 49.7293 42.773 48.6618 41.5338C47.8643 40.6012 46.2937 39.4969 46.2937 39.4969Z" fill="white"/>
<path d="M28.3188 65.7668C28.3188 65.7668 29.4722 65.7546 30.8219 65.411C31.7299 65.1779 32.7728 64.7975 32.7728 64.7975C32.7728 64.7975 33.19 65.7423 33.9508 66.8834C34.8342 68.1963 35.644 68.5521 35.644 68.5521C35.644 68.5521 35.6685 67.2147 36.098 65.3006C36.2207 64.7116 36.4415 63.9509 36.6256 63.2883C35.0305 62.9202 33.5704 62.0613 32.0489 60.6625C31.7544 60.3926 31.4845 60.0981 31.2268 59.8036C31.1164 59.6809 31.006 59.5582 30.8955 59.4355C30.6133 60.3435 30.2207 61.5214 29.8158 62.6257C28.9692 64.9447 28.3188 65.7668 28.3188 65.7668Z" fill="#0D1853"/>
<path d="M34.086 35.3006C32.5645 33.9877 31.4111 34.4172 30.9939 34.7853C30.5522 35.1657 30.135 35.8773 29.0062 36.9571C27.951 37.9755 27.1534 38.5644 26.3927 39.1411C25.7792 39.6074 26.2087 40.6503 26.4786 41.0307C26.5645 41.1411 26.8222 41.4479 27.1166 41.7914L27.043 41.8528C27.7179 41.2147 28.135 40.8221 28.2087 40.3068C28.3436 39.3374 28.589 38.3558 29.4602 37.6933C30.0491 37.2393 31.0675 37.1534 31.9633 37.0675L31.8528 37.0798C31.4725 36.5031 31.1412 35.6074 31.5952 35.2884C32.2823 34.8098 33.2761 35.4969 33.7915 36.0245C33.8774 36.1104 33.9878 36.2331 34.1105 36.3681C33.9633 36.454 33.8283 36.5399 33.681 36.6258C33.8774 36.5153 34.0614 36.3926 34.2577 36.2699C34.4172 36.1718 34.5768 36.0736 34.7363 35.9755C34.5522 35.7423 34.3314 35.5092 34.086 35.3006Z" fill="#0D1853"/>
<path d="M42.6871 68.7976C42.6871 68.7976 42.7485 67.3742 43.0307 66.0245C43.2761 64.8344 43.5583 64.1227 43.5583 64.1227C43.5583 64.1227 44.8712 64.4295 46.0613 64.5153C47.2515 64.6012 48.2209 64.4172 48.2209 64.4172C48.2209 64.4172 47.3742 63.6074 46.4785 61.7423C46.1718 61.092 45.9018 60.2699 45.6687 59.546C45.4969 59.6074 45.3252 59.681 45.1656 59.7669C44.6135 60.0982 44.0368 60.5767 43.7423 60.9571C42.8957 62.0614 41.1288 63.2884 39.6196 63.4479C39.9018 64.2331 40.2454 65.1043 40.6258 65.865C41.2883 67.227 42.6871 68.7976 42.6871 68.7976Z" fill="#0D1853"/>
<path d="M50.086 39.0306C49.3252 38.454 48.5277 37.865 47.4725 36.8466C46.3436 35.7546 45.9265 35.0552 45.4848 34.6748C45.0676 34.3067 43.9142 33.8773 42.3927 35.1901C41.9265 35.5951 41.4479 36.1227 41.0308 36.6135C41.2762 36.7116 41.5338 36.7975 41.816 36.8711C42.1841 36.454 42.5277 36.0613 42.6872 35.9141C43.2025 35.3987 44.1964 34.6994 44.8835 35.1779C45.3866 35.5337 44.9449 36.5644 44.5154 37.1288C44.4418 37.227 44.3436 37.3374 44.2578 37.4478C44.4541 37.4969 44.6504 37.5582 44.859 37.6196C47.497 38.4171 49.1167 39.5828 50.1105 40.7484C50.3559 40.2822 50.6136 39.4355 50.086 39.0306Z" fill="#0D1853"/>
<path d="M38.6383 63.5092C36.2211 63.5092 34.1966 62.6258 32.0616 60.6626C31.7671 60.4049 31.5094 60.0982 31.2395 59.8037C30.8223 59.3252 30.3929 58.8344 29.8653 58.5154C29.4726 58.27 29.1659 58.1841 28.8101 58.0982C28.4665 58.0123 28.037 57.9019 27.5094 57.6074C26.3315 56.9448 25.988 56.3559 25.7794 55.5461C25.5585 54.6626 25.7548 54.0246 25.8898 53.546C25.9512 53.3252 26.0125 53.1166 25.988 53.0062C25.9143 52.6872 25.5831 52.3559 25.2395 52C24.945 51.6933 24.6015 51.3497 24.3561 50.9326C23.7548 49.9141 23.6689 48.9571 23.6689 48.2454C23.6689 45.8896 25.3377 43.5829 26.3315 42.589C26.5524 42.3681 26.7732 42.1595 26.9573 41.9755L27.0554 41.8773C27.7303 41.2393 28.1475 40.8467 28.2211 40.3313C28.3561 39.362 28.6015 38.3804 29.4726 37.7178C30.0616 37.2638 31.08 37.1779 31.9757 37.0921C32.3438 37.0553 32.7242 37.0184 32.9327 36.9694C33.4113 36.8344 33.8407 36.5645 34.2824 36.2822C34.7855 35.9632 35.3008 35.6442 35.9143 35.4847C36.2702 35.3988 36.6628 35.3497 37.08 35.3497C38.2334 35.3497 39.4726 35.7056 40.3806 36.2945C41.0923 36.7608 42.0002 36.9571 43.0432 37.1902C43.5953 37.3129 44.2211 37.4479 44.8469 37.6442C50.0248 39.2148 51.3008 42.1964 51.6076 43.8283C51.8162 44.9694 51.5831 46.4295 51.0064 47.546C50.6015 48.3313 50.5769 49.7178 50.9328 51.3497C51.6321 54.4786 51.9634 57.0062 49.2886 58.6872C48.5524 59.0921 47.7794 59.2025 47.0432 59.3129C46.3561 59.4111 45.7058 59.5092 45.1782 59.816C44.626 60.1473 44.0493 60.6258 43.7671 61.0062C42.9205 62.1227 41.1291 63.362 39.6076 63.497C39.264 63.497 38.945 63.5092 38.6383 63.5092Z" fill="#0D1853"/>
<path d="M50.5399 47.3006C51.0429 46.3436 51.3374 45.0062 51.1288 43.9019C50.6994 41.5706 48.7853 39.3252 44.7485 38.0982C42.9939 37.5583 41.3129 37.4724 40.1104 36.6871C38.8957 35.9019 37.227 35.6319 36.0613 35.9387C34.9816 36.2209 34.1963 37.1166 33.0797 37.4233C32.3558 37.6197 30.4908 37.5338 29.7669 38.0982C28.9939 38.6749 28.8098 39.6197 28.6994 40.3927C28.5767 41.2761 27.8159 41.7792 26.6626 42.9325C25.6687 43.9264 24.1472 46.1227 24.1595 48.2577C24.1595 49.043 24.2822 49.8405 24.7853 50.6871C25.2883 51.5338 26.2822 52.0491 26.4662 52.8467C26.6012 53.4356 25.9386 54.1595 26.2577 55.4233C26.4172 56.0491 26.6871 56.5767 27.8037 57.1902C28.773 57.7301 29.2393 57.5215 30.135 58.0859C31.0675 58.6749 31.7423 59.6933 32.4785 60.3804C34.4662 62.1963 36.5399 63.2638 39.6319 62.9816C40.9448 62.8589 42.5889 61.7301 43.3497 60.724C43.6932 60.27 44.2945 59.7546 44.8834 59.3988C46.1718 58.6258 47.8037 58.9203 49.1043 58.2086C51.3251 56.7976 51.2393 54.7362 50.5153 51.5092C50.0491 49.5706 50.1227 48.1227 50.5399 47.3006Z" fill="#0D1853"/>
<path d="M43.8032 48.7853H43.5578C43.5578 50.2331 42.9689 51.546 42.0241 52.4908C41.0793 53.4356 39.7664 54.0245 38.3186 54.0245C36.8707 54.0245 35.5578 53.4356 34.613 52.4908C33.6683 51.546 33.0793 50.2331 33.0793 48.7853C33.0793 47.3374 33.6683 46.0245 34.613 45.0797C35.5578 44.135 36.8707 43.546 38.3186 43.546C39.7664 43.546 41.0793 44.135 42.0241 45.0797C42.9689 46.0245 43.5578 47.3374 43.5578 48.7853H43.8032H44.0486C44.0486 45.6196 41.4842 43.0429 38.3063 43.0429C35.1407 43.0429 32.564 45.6074 32.564 48.7853C32.564 51.9509 35.1284 54.5276 38.3063 54.5276C41.4719 54.5276 44.0486 51.9632 44.0486 48.7853H43.8032Z" fill="#0D1853"/>
<path d="M48.294 46.0245C48.5517 46.9325 48.6989 47.8773 48.6989 48.8711C48.6989 54.6012 44.0486 59.2515 38.3186 59.2515C33.8768 59.2515 30.0977 56.454 28.613 52.5276C29.8523 56.8834 33.84 60.0613 38.5885 60.0613C44.3308 60.0613 48.9689 55.411 48.9689 49.6809C48.9689 48.3926 48.7235 47.1656 48.294 46.0245Z" fill="#0D1853"/>
<path d="M29.0423 49.3252C29.0423 44.1104 33.2632 39.8896 38.4779 39.8896C42.6129 39.8896 46.1098 42.5522 47.3981 46.2454C46.2816 42.2699 42.6497 39.3497 38.3184 39.3497C33.1037 39.3497 28.8828 43.5706 28.8828 48.7853C28.8828 49.865 29.0669 50.8957 29.4104 51.865C29.1773 51.0552 29.0423 50.2086 29.0423 49.3252Z" fill="#0D1853"/>
<path d="M47.3254 43.7791C45.5094 40.7852 42.2088 38.7116 38.4419 38.7116C33.5462 38.7116 29.4726 42.1227 28.2947 46.6625C27.7425 48.8098 28.0247 50.4785 28.0247 50.4785C27.9143 49.8895 27.8652 49.2883 27.8652 48.6748C27.8652 42.9447 32.5155 38.2944 38.2456 38.2944C41.1413 38.2944 43.7793 39.4478 45.6321 41.3865C46.5155 42.2944 47.3254 43.7791 47.3254 43.7791Z" fill="white"/>
<path d="M30.7366 54.2209C32.4544 56.5644 35.2274 58.0859 38.3562 58.0859C43.5709 58.0859 47.7918 53.865 47.7918 48.6503C47.7918 48.4785 47.7795 48.319 47.7672 48.1472C47.8041 48.4663 47.8163 48.7976 47.8163 49.1288C47.8163 54.3436 43.5955 58.5644 38.3807 58.5644C37.031 58.5644 35.7059 58.3436 34.5771 57.7669C31.5096 56.2209 30.7366 54.2209 30.7366 54.2209Z" fill="white"/>
<path d="M25.0548 47.2883C25.0548 47.2883 25.018 45.4969 26.2818 43.9264C27.5579 42.3558 28.4045 42.0981 28.4045 42.0981C28.4045 42.0981 27.6806 42.908 26.6008 44.2577C25.4474 45.7055 25.0548 47.2883 25.0548 47.2883Z" fill="white"/>
<path d="M29.5094 40.4172C29.5094 40.4172 29.2886 39.1166 29.9634 38.6135C30.6505 38.0982 31.6567 38.4417 33.0309 38C34.4051 37.5583 35.8407 36.3068 37.1659 36.3068C38.491 36.3068 39.3867 37.1411 39.3867 37.1411C39.3867 37.1411 38.491 36.773 37.2149 36.773C35.9879 36.773 35.0186 37.8528 33.2149 38.4172C31.4113 38.9816 31.0677 38.4663 30.2947 38.9816C29.6076 39.4233 29.5094 40.4172 29.5094 40.4172Z" fill="white"/>
<path d="M46.2937 39.4847C46.2937 39.4847 47.8029 40.0737 48.6127 40.7485C49.4103 41.4111 49.5698 41.7424 49.8029 42.3313C49.9747 42.7608 49.9747 43.5829 49.9747 43.5829C49.9747 43.5829 49.7293 42.7608 48.6618 41.5215C47.852 40.6013 46.2937 39.4847 46.2937 39.4847Z" fill="white"/>
<path d="M42.6741 35.9018C42.5146 36.0614 42.1711 36.4417 41.803 36.8589C42.1833 36.9693 42.5883 37.0552 43.03 37.1534C43.3981 37.2393 43.8152 37.3252 44.2324 37.4356C44.3306 37.3252 44.4165 37.2147 44.4901 37.1043C44.9195 36.5399 45.349 35.5092 44.8582 35.1534C44.1833 34.6994 43.1895 35.3865 42.6741 35.9018Z" fill="#0D1853"/>
<path d="M32.9196 36.9448C33.349 36.8221 33.7294 36.6012 34.1098 36.3558C33.9993 36.2331 33.8889 36.1104 33.7907 36.0123C33.2754 35.4969 32.2815 34.7975 31.5944 35.2761C31.1404 35.5951 31.4595 36.4908 31.8521 37.0675L31.9625 37.0552C32.3306 37.0429 32.711 37.0061 32.9196 36.9448Z" fill="#0D1853"/>
<path d="M41.0309 36.6135C41.4481 36.1227 41.9267 35.5951 42.3929 35.1902C43.9021 33.8773 45.0678 34.3067 45.4849 34.6748C45.9267 35.0552 46.3438 35.7668 47.4727 36.8466C48.5279 37.865 49.3254 38.454 50.0862 39.0306C50.6138 39.4356 50.3561 40.2944 50.0984 40.7484C50.2211 40.8834 50.3316 41.0184 50.4297 41.1533C50.8101 40.6012 51.2641 39.3006 50.3806 38.6257L50.2211 38.5153C49.5095 37.9754 48.7733 37.411 47.804 36.4785C47.1659 35.865 46.761 35.3742 46.442 34.9938C46.1966 34.6994 46.0125 34.4785 45.7917 34.2944C45.6199 34.1472 45.1414 33.8036 44.3806 33.8036C43.6076 33.8036 42.8346 34.1472 42.0616 34.8098C41.3868 35.3865 40.8469 36.0859 40.6138 36.4049C40.7487 36.4785 40.8837 36.5521 41.0309 36.6135Z" fill="#0D1853"/>
<path d="M46.9203 61.5337C46.6258 60.9202 46.3558 60.135 46.135 59.4233C45.9632 59.4601 45.8037 59.5092 45.6565 59.5583C45.8773 60.2822 46.1595 61.092 46.4785 61.7423C47.362 63.6196 48.2209 64.4172 48.2209 64.4172C48.2209 64.4172 47.2515 64.6012 46.0614 64.5153C44.8712 64.4294 43.5583 64.1227 43.5583 64.1227C43.5583 64.1227 43.2761 64.8466 43.0307 66.0368C42.7485 67.3865 42.6871 68.8098 42.6871 68.8098C42.6871 68.8098 41.2884 67.2393 40.6258 65.8896C40.2577 65.1288 39.9019 64.2577 39.6196 63.4724H39.5828C39.4233 63.4847 39.2638 63.4847 39.092 63.4969C39.3865 64.3313 39.7669 65.2883 40.1718 66.1104C40.8344 67.4478 42.1595 68.9693 42.3068 69.1411L43.1288 70.0613L43.1779 68.8344C43.1779 68.8221 43.2393 67.4233 43.5092 66.1472C43.6442 65.5092 43.7914 65.0061 43.8773 64.7239C44.3681 64.8221 45.2025 64.9816 46.0123 65.0429C46.2331 65.0552 46.4663 65.0675 46.6994 65.0675C47.5828 65.0675 48.2331 64.9571 48.3068 64.9325L49.2638 64.7485L48.5522 64.0859C48.5399 64.0613 47.7546 63.3006 46.9203 61.5337Z" fill="#0D1853"/>
<path d="M26.7608 42.135C26.8221 42.0736 26.8957 42.0123 26.9571 41.9509L27.0552 41.865L27.1289 41.7914C26.8344 41.4601 26.5767 41.1534 26.4908 41.0307C26.2209 40.6503 25.7914 39.6074 26.4049 39.1411C27.1657 38.5644 27.9632 37.9755 29.0184 36.9571C30.1473 35.865 30.5644 35.1657 31.0062 34.7853C31.4233 34.4172 32.5767 33.9877 34.0982 35.3006C34.3436 35.5092 34.5644 35.7423 34.773 35.9632C34.9203 35.8773 35.0675 35.7914 35.227 35.7178C34.9939 35.4601 34.7239 35.1779 34.4295 34.9203C33.6565 34.2454 32.8712 33.9141 32.1104 33.9141C31.3497 33.9141 30.8589 34.2577 30.6994 34.4049C30.4785 34.6012 30.2822 34.8344 30.0246 35.1411C29.7301 35.4969 29.3252 35.9877 28.6871 36.6012C27.7301 37.5338 26.9939 38.0859 26.2577 38.638L26.1104 38.7485C25.2025 39.4356 25.7301 40.8098 26.0982 41.3252C26.1718 41.4479 26.454 41.7792 26.7608 42.135Z" fill="#0D1853"/>
<path d="M36.6256 63.2761C36.4293 63.9509 36.2329 64.6994 36.098 65.3006C35.6808 67.2147 35.644 68.5521 35.644 68.5521C35.644 68.5521 34.8219 68.1963 33.9507 66.8834C33.19 65.7546 32.7728 64.7975 32.7728 64.7975C32.7728 64.7975 31.7299 65.1779 30.8219 65.411C29.4722 65.7669 28.3188 65.7669 28.3188 65.7669C28.3188 65.7669 28.9691 64.957 29.828 62.6258C30.2452 61.5092 30.6256 60.3436 30.9078 59.4356C30.7851 59.3006 30.6501 59.1656 30.5151 59.0307C30.2207 59.9755 29.8035 61.2515 29.3618 62.4417C28.552 64.6258 27.9385 65.4356 27.9262 65.4478L27.2759 66.2577L28.3188 66.2454C28.3679 66.2454 29.5458 66.2331 30.9446 65.865C31.3863 65.7546 31.9139 65.5951 32.5151 65.3865C32.6992 65.7546 33.055 66.4049 33.5458 67.1288C34.5029 68.5521 35.4231 68.9693 35.4599 68.9816L36.1348 69.2761L36.147 68.5276C36.147 68.3926 36.1961 67.1288 36.5888 65.3742C36.7237 64.7853 36.9201 64.0368 37.1164 63.3497C36.9569 63.3497 36.7974 63.3129 36.6256 63.2761Z" fill="#0D1853"/>
<path d="M39.6566 51.2515C39.8406 51.2515 40.0002 51.092 40.0002 50.8957V49.7914C40.0002 49.5951 39.8406 49.4356 39.6566 49.4356H37.3498V51.2515H39.6566ZM39.6566 48.3803C39.8406 48.3803 40.0002 48.2208 40.0002 48.0368V46.957C40.0002 46.773 39.8406 46.6135 39.6566 46.6135H37.3498V48.3803H39.6566ZM36.0738 46.454L35.7793 45.7914H40.7977C41.0922 45.7914 41.3253 46.0245 41.3253 46.319L41.313 48.2086C41.313 48.503 41.1167 48.7852 40.7732 48.9079C41.1167 49.0306 41.313 49.3374 41.313 49.6441L41.3253 51.6564C41.3253 51.9754 41.0922 52.2208 40.7977 52.2208H35.7793L36.0738 51.5092V46.454Z" fill="#0D1853"/>
<path d="M39.2264 50.8221C39.4105 50.8221 39.57 50.6626 39.57 50.4663V49.362C39.57 49.1656 39.4105 49.0061 39.2264 49.0061H36.9319V50.8221H39.2264ZM39.2264 47.9509C39.4105 47.9509 39.57 47.7914 39.57 47.6074V46.5276C39.57 46.3436 39.4105 46.1841 39.2264 46.1841H36.9319V47.9509H39.2264ZM35.6436 46.0245L35.3491 45.362H40.3675C40.662 45.362 40.9074 45.5951 40.9074 45.8896L40.8951 47.7791C40.8951 48.0736 40.6988 48.3558 40.3675 48.4785C40.7111 48.6012 40.8951 48.908 40.8951 49.2147L40.9074 51.227C40.9074 51.5337 40.662 51.7914 40.3675 51.7914H35.3491L35.6436 51.0798V46.0245Z" fill="white"/>
<path d="M45.0919 48.3926C45.0796 48.1227 45.2759 47.9018 45.5458 47.8773C45.8158 47.865 46.0366 48.0613 46.0612 48.3313C46.0734 48.6012 45.8771 48.8221 45.6072 48.8466C45.3373 48.8589 45.1041 48.6626 45.0919 48.3926Z" fill="white"/>
<path d="M30.5525 48.3313C30.5648 48.0613 30.7979 47.865 31.0679 47.8773C31.3378 47.8896 31.5341 48.1227 31.5218 48.3926C31.5096 48.6626 31.2764 48.8589 31.0065 48.8466C30.7488 48.8343 30.5402 48.6012 30.5525 48.3313Z" fill="white"/>
<path d="M31.6564 46.454L31.6932 46.4171L31.7423 46.4417C31.8895 46.5153 32.1104 46.1963 32.1472 46.0981C32.233 45.9141 32.1717 45.8405 32.0245 45.7546L31.0551 45.2638C31.0306 45.2515 30.9938 45.2515 30.957 45.3251L30.9202 45.3006L31.2392 44.6503L31.276 44.6748C31.2392 44.7607 31.2637 44.773 31.2883 44.7852L32.3435 45.3128C32.7852 45.5337 32.7238 45.8895 32.5275 46.2822C32.3803 46.5889 32.1717 46.7484 32.1472 46.773C32.1349 46.7975 32.1349 46.822 32.1472 46.8711L32.0981 46.9079L31.6564 46.454Z" fill="white"/>
<path d="M37.4841 42.1349L38.0853 42.0981C38.3307 42.0858 38.4289 42.0245 38.4166 41.865C38.4044 41.7055 38.3062 41.6564 38.0608 41.6686L37.4596 41.7055L37.4841 42.1349ZM37.435 41.3496L37.9136 41.3251C38.2203 41.3005 38.2939 41.276 38.2817 41.141C38.2694 41.0061 38.1958 40.9815 37.889 41.0061L37.4105 41.0306L37.435 41.3496ZM36.8706 40.7975C36.8706 40.7607 36.8584 40.7361 36.7725 40.7361V40.6993L38.1099 40.6134C38.4903 40.5889 38.7725 40.7116 38.797 41.0674C38.8093 41.276 38.6743 41.4232 38.478 41.4723V41.4846C38.7234 41.5337 38.8952 41.6564 38.9197 41.914C38.932 42.1963 38.7357 42.4417 38.2449 42.4785L36.8829 42.5644V42.5275C36.9688 42.5153 36.981 42.4907 36.981 42.4539L36.8706 40.7975Z" fill="white"/>
<path d="M33.4846 44.6871L33.4723 44.6748C33.411 44.7361 33.3864 44.7361 33.3619 44.7116L32.049 43.7055C32.0245 43.6809 32.0122 43.6687 32.0613 43.595L32.0245 43.5582L31.5828 44.1349L31.6196 44.1595C31.6809 44.0981 31.7055 44.0981 31.73 44.1226L33.0429 45.1288C33.0674 45.141 33.0797 45.1656 33.0306 45.2515L33.0552 45.2637L33.4846 44.6871Z" fill="white"/>
<path d="M43.0915 42.5644L42.8338 43.4479L42.3185 43.043L43.0915 42.5644ZM42.6129 44.1227L43.0547 44.5767L43.0792 44.5399C43.0424 44.5154 43.0424 44.4786 43.0669 44.3927C43.2264 43.8405 43.5577 42.6626 43.57 42.6381H43.6436L43.6682 42.6013L42.9442 42.0368L42.9197 42.0736L42.9565 42.1473C42.9442 42.1595 41.4841 43.0675 41.3982 43.1043C41.3491 43.1411 41.3246 43.1289 41.2755 43.1166L41.251 43.1534L41.7295 43.4356L42.0608 43.2147L42.7234 43.7301L42.6129 44.1227Z" fill="white"/>
<path d="M40.9687 42.9939L41.1037 42.454L41.0669 42.4417C41.0301 42.5276 41.0178 42.5399 40.981 42.5276L39.889 42.2209L39.9749 41.9019L40.6129 42.0736C40.6742 42.0982 40.6988 42.135 40.6865 42.1841L40.7233 42.1963L40.8706 41.6687L40.8337 41.6565C40.8092 41.6933 40.7724 41.7301 40.711 41.7055L40.0853 41.5338L40.1589 41.2516L41.2509 41.5583C41.2877 41.5706 41.3 41.5951 41.2877 41.6687L41.3245 41.681L41.4841 41.092L41.4472 41.0798C41.4104 41.1534 41.3982 41.1657 41.3614 41.1534L39.6681 40.6871L39.6558 40.7239C39.7417 40.7485 39.7417 40.7853 39.7295 40.8098L39.2877 42.3927C39.2755 42.4295 39.2632 42.4417 39.1773 42.4295L39.165 42.4908C39.7908 42.6135 40.392 42.7853 40.9687 42.9939Z" fill="white"/>
<path d="M34.0488 44.0859L33.2144 42.9694L34.515 43.681L34.2328 42.2454H34.2451L35.0549 43.362L35.5948 43.0675L35.5702 43.0307C35.4966 43.0798 35.4721 43.0675 35.4598 43.043L34.4537 41.681C34.4291 41.6565 34.4291 41.6319 34.4905 41.5706L34.4659 41.5338L33.6929 42.0982L33.7175 42.135C33.7665 42.1105 33.8034 42.0982 33.8279 42.135C33.8524 42.1718 33.877 42.5031 33.9506 42.8835C33.8647 42.8221 33.288 42.5645 33.2757 42.5399C33.2512 42.5031 33.2635 42.4786 33.3003 42.4418L33.2757 42.4049L32.5396 42.9448L32.5641 42.9816C32.6377 42.9326 32.6622 42.9448 32.6868 42.9694L33.6807 44.3068C33.6929 44.3313 33.7052 44.3559 33.6438 44.4172L33.6807 44.4663L34.0488 44.0859Z" fill="white"/>
<path d="M43.5707 45.2515L44.8222 44.5766V44.5889L43.9265 45.7668L45.3866 45.6932V45.7055L44.1719 46.3435L44.3805 46.9202L44.4173 46.8957C44.3805 46.8098 44.405 46.7975 44.4296 46.7852L45.9265 45.9999C45.951 45.9877 45.9878 45.9877 46.0247 46.0613L46.0615 46.0368L45.6197 45.1901L45.5829 45.2147C45.6075 45.2638 45.6075 45.3006 45.5707 45.3251C45.5339 45.3496 45.1903 45.3128 44.8099 45.3374C44.8835 45.2638 45.2271 44.7361 45.2516 44.7239C45.2885 44.6993 45.313 44.7239 45.3498 44.773L45.3866 44.7484L44.9572 43.9386L44.9204 43.9509C44.9572 44.0368 44.9326 44.049 44.9081 44.0736L43.4234 44.8711C43.3989 44.8834 43.3621 44.8834 43.3253 44.8098L43.2639 44.8343L43.5707 45.2515Z" fill="white"/>
<path d="M43.7421 53.092C43.9139 53.2147 44.098 53.0307 44.1838 52.9202C44.2575 52.8098 44.3679 52.5767 44.1961 52.454C44.0243 52.3313 43.8403 52.5153 43.7544 52.6257C43.6808 52.7362 43.5703 52.9693 43.7421 53.092ZM44.2084 53.6564L44.2452 53.6319L44.2697 53.6564C44.3679 53.73 44.5397 53.5705 44.6746 53.3865C44.8464 53.1411 44.871 52.8221 44.6133 52.6135C44.5765 52.8834 44.5151 53.0675 44.3802 53.2638C44.1716 53.5583 43.7912 53.6932 43.4722 53.4724C43.1041 53.2147 43.2268 52.7362 43.4476 52.4294C43.7912 51.9509 44.2575 51.8037 44.7605 52.1472C45.2636 52.503 45.2759 53.1165 44.9446 53.5951C44.8341 53.7423 44.7237 53.8527 44.6378 53.9264C44.5519 54 44.4783 54.0368 44.4783 54.0491C44.466 54.0736 44.4538 54.0981 44.466 54.1349L44.4292 54.1595L44.2084 53.6564Z" fill="white"/>
<path d="M44.8835 51.7055L45.3007 51.3374C45.2639 51.3128 45.2394 51.276 45.2271 51.2515C45.2026 51.2147 45.2026 51.1288 45.2516 50.9938C45.3375 50.7484 45.4848 50.6503 45.6075 50.6993C45.767 50.7484 45.8038 50.9325 45.7302 51.1533C45.6075 51.5214 45.3989 51.6564 45.3375 51.6441L45.2885 51.6196L45.2516 51.6441L45.6443 52.1472L45.6811 52.1104V52.049L45.7302 51.9877C45.8038 51.8895 46.0001 51.6932 46.1228 51.3251C46.2946 50.7975 46.1842 50.3312 45.8038 50.2085C45.3743 50.0736 45.1044 50.3681 44.9817 50.7361C44.9326 50.8957 44.8958 51.0429 44.8958 51.2147L44.6013 51.1165L44.9204 50.1472C44.9326 50.1227 44.9572 50.0858 45.0185 50.1104L45.0308 50.0736L44.54 49.9141L44.5277 49.9631L44.5523 50.0368L44.405 50.4908C44.3559 50.6748 44.2946 50.8588 44.2332 51.0306L44.0737 51.5092L44.1105 51.5214C44.1228 51.4846 44.1474 51.4478 44.1964 51.4601L44.8835 51.7055Z" fill="white"/>
<path d="M40.4668 54.7362L40.4791 54.7608C40.5036 54.7485 40.5527 54.7485 40.565 54.7976L40.614 54.8957L40.7735 55.2761L41.203 56.3068C41.2275 56.3558 41.1907 56.3804 41.1416 56.4049L41.1539 56.4417L41.8042 56.1718L41.792 56.135C41.7551 56.1473 41.7061 56.1595 41.6938 56.1104L41.0558 54.589C41.0435 54.5399 41.0435 54.5276 41.0926 54.5031L41.0803 54.4785L40.4668 54.7362Z" fill="white"/>
<path d="M43.4114 55.1165C43.3746 55.1411 43.3378 55.1533 43.301 55.1165C43.2887 55.092 43.2765 55.0184 43.2765 54.957L43.0802 53.5951L42.8225 53.227C42.3685 53.6319 41.9022 53.9632 41.3992 54.3067L41.7059 54.7116L41.7427 54.6871C41.7059 54.638 41.7182 54.6012 41.7427 54.5889L42.6507 53.9018L42.8225 55.4478C42.8225 55.4969 42.8225 55.5582 42.7857 55.5828L42.8102 55.6196L43.436 55.1533L43.4114 55.1165Z" fill="white"/>
<path d="M30.9689 50.2576V50.2944L30.8953 50.3067C30.7971 50.3312 30.7726 50.7484 30.883 51.092C30.9934 51.4233 31.1161 51.5582 31.2634 51.5091C31.5088 51.4233 30.7971 50.1349 31.4474 49.9263C31.7787 49.8159 32.1223 50.0736 32.2695 50.5644C32.4168 51.0306 32.38 51.3987 32.4168 51.4969C32.429 51.546 32.4658 51.5582 32.4904 51.5705V51.6073L31.9505 51.5214L31.9628 51.4723L31.9996 51.4601C32.0855 51.4355 32.0609 51.0183 31.9505 50.6993C31.8523 50.4049 31.7419 50.3312 31.6683 50.3558C31.3738 50.4539 32.1714 51.73 31.4106 51.9754C31.1161 52.0736 30.7358 51.9509 30.5027 51.2269C30.3186 50.6625 30.4045 50.368 30.38 50.2944L30.3186 50.2453V50.2085L30.9689 50.2576Z" fill="white"/>
<path d="M31.178 52.7853L31.2148 52.7607C31.2639 52.8344 31.3007 52.8221 31.3252 52.8098L32.6872 51.9141C32.7117 51.9018 32.724 51.8773 32.6872 51.7914L32.724 51.7669L33.1289 52.3681L33.0921 52.3926C33.0307 52.319 33.0062 52.3313 32.9817 52.3436L31.6074 53.2515C31.5829 53.2638 31.5706 53.2883 31.6074 53.362L31.5706 53.3865L31.178 52.7853Z" fill="white"/>
<path d="M36.2213 55.5093L36.1967 55.4725L36.2213 55.4234C36.2458 55.362 36.0372 55.1657 35.755 55.0553C35.4851 54.9448 35.1047 54.908 34.9575 55.2516C34.8225 55.5829 35.117 55.8405 35.3746 55.951C35.4851 56.0001 35.9513 56.0982 36.0004 56.0001V55.9387L36.0495 55.9264L36.1722 56.5767L36.1231 56.589L36.0863 56.5399C36.0249 56.5154 35.6446 56.5645 35.166 56.3559C34.6384 56.135 34.2213 55.6074 34.4544 55.0307C34.6998 54.454 35.3746 54.3927 35.89 54.6013C36.1476 54.7117 36.3194 54.8221 36.4421 54.908C36.5648 54.9939 36.6139 55.0553 36.6384 55.0675H36.6998L36.7366 55.0921L36.2213 55.5093Z" fill="white"/>
<path d="M38.7846 55.1288C38.8214 55.1288 38.8459 55.1165 38.8582 55.0306H38.895L38.8582 55.6441H38.8214C38.8091 55.5582 38.7969 55.546 38.76 55.546L37.6312 55.4846L37.6189 55.7791L38.2692 55.8159C38.3429 55.8159 38.3674 55.7914 38.3797 55.7423H38.4165L38.3919 56.2944H38.3551C38.3429 56.2454 38.3306 56.2086 38.257 56.2086L37.6067 56.1717L37.5944 56.503L38.7232 56.5644C38.76 56.5644 38.7723 56.5521 38.7969 56.4662H38.8337L38.7969 57.0797H38.76C38.7478 57.0184 38.7355 57.0061 38.6987 56.9938L36.9441 56.8957V56.8589C37.03 56.8589 37.0422 56.8343 37.0422 56.7975L37.1281 55.1533C37.1281 55.1288 37.1159 55.092 37.03 55.0797V55.0429L38.7846 55.1288Z" fill="white"/>
<path d="M33.7421 53.1534L33.2636 52.6135L33.239 52.6503C33.3004 52.7117 33.2881 52.7362 33.2636 52.7608L32.1347 53.9387C32.1102 53.9632 32.0856 53.9755 32.0243 53.9141L31.9998 53.9387L32.4537 54.4295L32.4783 54.3927C32.4169 54.3313 32.4292 54.3068 32.4415 54.2822L33.2145 53.5092V55.1411L33.6071 55.4724L33.6317 55.4356C33.5703 55.3743 33.5826 55.3497 33.6071 55.3252L34.736 54.0982C34.7605 54.0736 34.785 54.0614 34.8464 54.1227L34.8709 54.0859L34.4047 53.7424L33.7053 54.5154L33.7421 53.1534Z" fill="white"/>
<path d="M51.043 43.4969C51.0798 43.6319 51.1043 43.7669 51.1289 43.9018C51.1779 44.1472 51.2025 44.4049 51.2025 44.6748C51.2025 44.4172 51.1779 44.1595 51.1289 43.9018C51.1043 43.7669 51.0798 43.6319 51.043 43.4969Z" fill="#0D1853"/>
<path d="M51.0429 43.4969C50.908 43.9877 50.773 44.4172 50.6871 44.6503C50.3558 45.4724 49.5828 46.8466 49.7546 48.8834C49.9141 50.9202 50.4662 53.7178 50.1963 55.0429C49.9264 56.3558 48.9816 57.0797 47.7178 57.4601C46.454 57.8405 44.6994 58.9939 43.4846 59.8773C42.3067 60.7362 41.0675 61.8037 38.3558 61.8037C38.2945 61.8037 38.2208 61.8037 38.1472 61.8037C35.2883 61.7423 34.1349 61.0307 32.8711 60.0491C31.6073 59.0552 31.4478 58.2331 29.8527 57.4724C28.2576 56.6994 26.9938 56.5889 26.4417 55.3865C25.8895 54.1718 27.2638 53.411 27.1043 52.4785C26.9448 51.546 26.0613 51.1043 24.957 49.681C24.3681 48.9202 24.2822 47.8037 24.3313 46.9325C24.2208 47.3742 24.1472 47.8405 24.1472 48.2945C24.1472 49.0797 24.2699 49.8773 24.773 50.7239C25.276 51.5705 26.2699 52.0859 26.454 52.8834C26.4662 52.9448 26.4785 53.0061 26.4785 53.0675C26.4785 53.5092 26.1595 54.0368 26.1595 54.7853C26.1595 54.9939 26.184 55.2147 26.2454 55.4601C26.4049 56.0859 26.6871 56.6135 27.7914 57.227C28.7607 57.7669 29.227 57.5583 30.1227 58.1227C31.0552 58.7116 31.73 59.73 32.4662 60.4172C34.2454 62.0368 36.0859 63.0552 38.6503 63.0552C38.957 63.0552 39.2883 63.0429 39.6196 63.0061C40.9325 62.8834 42.5644 61.7546 43.3251 60.7607C43.6687 60.3067 44.2822 59.7914 44.8589 59.4356C46.1472 58.6626 47.7791 58.957 49.0797 58.2454C50.454 57.3742 50.9448 56.2454 50.9448 54.7485C50.9448 53.8282 50.7607 52.773 50.4785 51.546C50.2822 50.6503 50.184 49.865 50.184 49.1902C50.184 48.4049 50.3067 47.7791 50.5399 47.3374C50.9325 46.5889 51.1902 45.6196 51.1902 44.6994C51.1902 44.4417 51.1656 44.184 51.1165 43.9264C51.1043 43.7669 51.0797 43.6319 51.0429 43.4969Z" fill="#0D1853"/>
<path d="M40.1106 36.6871C41.3253 37.4846 43.0063 37.5705 44.7486 38.0981C44.7609 38.0981 44.7609 38.0981 44.7732 38.0981C44.7609 38.0981 44.7609 38.0981 44.7486 38.0981C42.994 37.5583 41.313 37.4724 40.1106 36.6871ZM44.7854 38.1104H44.7977C44.7854 38.1104 44.7854 38.1104 44.7854 38.1104ZM44.81 38.1104C44.81 38.1104 44.81 38.1227 44.81 38.1104C44.81 38.1104 44.81 38.1227 44.81 38.1104ZM44.8468 38.135C44.8591 38.135 44.8591 38.135 44.8468 38.135C44.8591 38.135 44.8591 38.135 44.8468 38.135Z" fill="#0D1853"/>
<path d="M37.2891 35.816C37.8289 35.9264 38.5283 36.1105 39.0191 36.4172C39.9026 36.9694 40.5529 37.4602 41.7185 37.7915C42.8719 38.1228 44.8473 38.2823 46.3934 39.0553C47.4608 39.5829 48.3075 39.9878 49.0069 40.3313C48.013 39.4602 46.6633 38.7117 44.8964 38.1473C44.8842 38.1473 44.8842 38.1473 44.8719 38.135C44.8596 38.135 44.8596 38.135 44.8596 38.135H44.8473C44.8473 38.135 44.8473 38.135 44.8351 38.135H44.8228C44.8228 38.135 44.8228 38.135 44.8105 38.135H44.7983H44.786H44.7737C44.7615 38.135 44.7615 38.135 44.7492 38.1228C42.9946 37.5952 41.3136 37.497 40.1111 36.7117C39.2768 36.1473 38.2461 35.8528 37.2891 35.816Z" fill="#0D1853"/>
<path d="M38.3188 37.7301C37.0305 37.7301 35.3127 38 33.7421 38.7607C31.5458 39.816 29.4599 41.681 28.3556 44.0245C27.1286 46.6503 27.9262 49.7301 27.9262 49.7301C27.8894 49.3988 27.8771 49.0675 27.8648 48.7239C27.8648 48.7117 27.8648 48.7117 27.8648 48.6994C27.8648 48.6871 27.8648 48.6749 27.8648 48.6626C27.8648 42.9325 32.5151 38.2822 38.2452 38.2822C41.1409 38.2822 43.7789 39.4356 45.6317 41.3742C46.098 41.865 46.5397 42.5153 46.8587 43.0184C47.8035 44.3313 48.1102 45.3006 48.1102 45.3006C48.1102 45.3006 47.7544 42.7485 45.8648 40.6871C44.6378 39.3497 43.0796 39.1534 42.3556 38.8466C41.6194 38.5276 40.6869 37.8896 38.9323 37.7546C38.7605 37.7423 38.5397 37.7301 38.3188 37.7301Z" fill="#0D1853"/>
<path d="M27.8774 48.6625C27.8774 48.6748 27.8774 48.6871 27.8774 48.6993C27.8774 48.6871 27.8774 48.6748 27.8774 48.6625ZM27.8774 48.6993C27.8774 48.7116 27.8774 48.7239 27.8774 48.7239C27.8774 48.7239 27.8774 48.7116 27.8774 48.6993ZM27.8774 48.7362C27.8774 49.0797 27.902 49.411 27.9388 49.7423C27.8897 49.3987 27.8774 49.0674 27.8774 48.7362Z" fill="#0D1853"/>
<path d="M45.9264 67.1534H46.0859C46.2822 67.1534 46.4295 67.092 46.4295 66.9325C46.4295 66.7975 46.3313 66.6994 46.1105 66.6994C46.0123 66.6994 45.9509 66.7116 45.9141 66.7116V67.1534H45.9264ZM45.9141 67.9877H45.5706V66.4908C45.7055 66.4785 45.9019 66.4417 46.1473 66.4417C46.4295 66.4417 46.5644 66.4908 46.6626 66.5644C46.7485 66.6258 46.8221 66.7362 46.8221 66.8834C46.8221 67.0675 46.6871 67.1902 46.5154 67.2392V67.2515C46.6626 67.3006 46.7362 67.411 46.7853 67.6196C46.8344 67.8527 46.8712 67.9264 46.8957 67.9877H46.5276C46.4786 67.9264 46.454 67.8037 46.4049 67.6196C46.3804 67.4601 46.2822 67.3865 46.0982 67.3865H45.9387V67.9877H45.9141ZM44.9939 67.2147C44.9939 67.8773 45.497 68.4172 46.1595 68.4172C46.8098 68.4294 47.3006 67.8896 47.3006 67.227C47.3006 66.5644 46.8098 66.0245 46.135 66.0245C45.497 66.0123 44.9939 66.5521 44.9939 67.2147ZM47.6933 67.2147C47.6933 68.0613 47.0184 68.7239 46.1595 68.7239C45.3006 68.7239 44.6135 68.0613 44.6135 67.2147C44.6135 66.3681 45.3006 65.7178 46.1718 65.7178C47.0184 65.7178 47.6933 66.3681 47.6933 67.2147Z" fill="#0D1853"/>
<path d="M6.7114 15.0552L5.86477 16.6381V34.8466C5.86477 39.3129 1.41079 42.6626 -0.711914 43.9509C-1.87756 44.6626 -4.71191 45.2884 -4.71191 41.9878C-4.71191 46.2454 -1.38676 45.6565 0.0242825 44.8344C2.15925 43.5828 6.5887 40.0859 6.5887 35.6319V17.1166L7.31263 16.0246L6.7114 15.0552Z" fill="#0D1853"/>
<path d="M-0.674805 34.7975V41.1902C-0.674805 41.5092 -0.282167 41.5214 -0.012228 41.3251C0.135011 41.2147 0.269981 41.1043 0.39268 41.0061V35.3006L-0.674805 34.7975Z" fill="#0D1853"/>
<path d="M13.8651 34.589C12.4664 35.2515 9.57065 36.8466 7.74243 37.9632L8.71176 38.454C10.54 37.3374 13.4357 35.7423 14.8345 35.0798L13.8651 34.589Z" fill="#0D1853"/>
<path d="M12.491 34.1718L13.4726 34.4662V20.5889L14.2946 19.4233L13.3989 18.8589L12.491 20.1104V34.1718Z" fill="#0D1853"/>
<path d="M15.7304 34.6625C16.5647 34.3067 18.9819 33.3006 19.804 32.9693L18.6261 32.5153C17.804 32.8466 15.5341 33.8404 14.6997 34.1963L15.7304 34.6625Z" fill="#0D1853"/>
<path d="M20.9202 30.2209L21.9386 30.6135L23.595 25.5337L23.5827 22L20.9202 30.2209Z" fill="#0D1853"/>
<path d="M26.7974 28.9325C26.7974 28.9325 27.6931 29.2761 28.1839 29.4847V16.2822L29.141 15.3374L28.2453 14.6503L26.7852 15.7546V28.9325H26.7974Z" fill="#0D1853"/>
<path d="M21.8403 22.0736L19.7176 17.3865L18.5151 17.1534L21.2881 23.8037L21.8403 22.0736Z" fill="#0D1853"/>
<path d="M28.4049 29.5829C27.2393 29.8037 24.1841 30.5767 22.6626 31.0798L23.6565 31.6319C25.1902 31.1289 28.2332 30.3436 29.3988 30.135C29.0062 29.9019 28.4049 29.5829 28.4049 29.5829Z" fill="#0D1853"/>
<path d="M37.6561 11.1902C37.6561 11.1902 38.969 11.0798 39.8402 11.7669C39.6071 10.6994 39.0304 10.27 37.9015 10.27C37.3371 10.27 36.7236 10.27 36.7236 10.27V16.1473C36.7236 16.1473 37.1654 16.1473 37.6561 16.0982V11.1902Z" fill="#0D1853"/>
<path d="M39.5093 18.8835C39.5461 18.8957 39.5829 18.9203 39.632 18.9325C39.3129 18.454 38.9203 18.27 38.5767 18.1227C37.9387 17.8651 36.7976 17.9141 36.7976 17.9141V27.2761C37.0921 27.227 37.4111 27.1657 37.7179 27.092L37.7301 18.6626C37.7424 18.6871 38.8835 18.6258 39.5093 18.8835Z" fill="#0D1853"/>
<path d="M41.9262 17.6319C42.8219 17.1902 44.736 16.5644 44.736 13.5828C44.736 12.0245 44.1103 10.8712 42.3434 9.68097C43.5213 10.5889 43.7667 11.9509 43.7667 12.8221C43.7667 15.8773 41.644 16.6503 40.871 17.0797C42.1225 17.8037 44.1348 18.6012 44.1348 22.2822C44.1348 26.1104 42.2084 28.5521 39.0796 28.7485C37.055 28.8834 31.5581 29.1288 31.5581 29.1288L32.5274 29.8896C32.5274 29.8896 38.0244 29.6442 40.0489 29.5092C43.1777 29.3006 45.1041 26.8712 45.1041 23.0307C45.1041 19.3497 43.5826 18.5031 41.9262 17.6319Z" fill="#0D1853"/>
<path d="M50.6013 21.9632L49.6934 21.8405V28.0614C49.6934 28.0614 50.1351 28.1473 50.6504 28.2577V22.6135L51.9756 23.7178V23.7055L50.6013 21.9632Z" fill="#0D1853"/>
<path d="M51.9876 23.7301L51.9753 23.7178V23.7301L52.9447 24.5154V19.9141L51.9876 19.2148V23.7301Z" fill="#0D1853"/>
<path d="M49.6316 15.9877V20.5399L50.5886 20.6994V16.9571L52.6991 17.2883L52.1592 16.3681L49.6316 15.9877Z" fill="#0D1853"/>
<path d="M53.9021 19.3252L54.8592 20.0982V16.1841L53.9021 15.4479V19.3252Z" fill="#0D1853"/>
<path d="M53.9881 25.8406V30.4418C51.2274 29.8038 46.5158 29.0185 44.4912 28.6872L46.2458 29.5338C48.6384 29.9265 52.8225 30.7117 54.9575 31.4111V26.8099L53.9881 25.8406Z" fill="#0D1853"/>
<path d="M58.0126 28.9816L57.5955 30.8466L58.209 31.681L58.7488 29.7546L61.436 30.6871L61.3746 30.1472L58.0126 28.9816Z" fill="#0D1853"/>
<path d="M55.828 31.5951C56.4047 31.8159 58.2451 32.6012 59.0059 32.9202L58.5151 32.0982C57.7543 31.7791 55.4353 30.8466 54.8586 30.6135L55.828 31.5951Z" fill="#0D1853"/>
<path d="M60.1718 21.2147C59.6073 23.2147 58.5276 27.4479 58.5276 27.4479L59.3865 27.7301C59.6073 26.8834 60.0736 25.092 60.4785 23.546L60.1718 21.2147Z" fill="#0D1853"/>
<path d="M66.7971 35.8037C66.4168 33.5337 64.8339 21.6687 64.5394 19.6196L63.5947 18.6748C63.5947 18.6748 64.7726 27.7791 65.5947 33.227C65.656 33.6073 65.7051 33.9632 65.7664 34.2945L66.6867 35.7791C65.018 34.773 62.5394 33.6074 60.4167 32.7116L61.5088 34C63.6437 34.908 65.7664 36.135 67.4352 37.1411L66.7971 35.8037Z" fill="#0D1853"/>
<path d="M72.9321 37.3374L73.8892 38.0736L75.5456 33.7055V30.4663L72.9321 37.3374Z" fill="#0D1853"/>
<path d="M79.9269 28.1104L81.2888 28.1718L80.5158 27.3006L78.8103 27.3129V42.7239L79.9146 44.8834C78.3072 43.2883 75.522 41.1656 74.3318 40.4662L75.3134 42.1472C76.5772 43.1043 78.9944 44.9939 80.3563 46.1595L79.9146 44.8957V28.1104H79.9269Z" fill="#0D1853"/>
<path d="M74.2332 27.5215L72.9572 22.9939L71.6934 21.8773L73.6443 28.7975L74.2332 27.5215Z" fill="#0D1853"/>
<path d="M70.283 36.8098L71.1909 38.4417C70.1848 37.8036 68.1603 36.503 67.5222 36.1226L67.9639 37.4233C68.602 37.8036 70.8596 39.4846 71.878 40.1226L71.2032 38.4417V31.1901L70.2952 27.9754V36.8098H70.283Z" fill="#0D1853"/>
<path d="M17.4233 32.0245L18.6013 32.5153H18.6381V25.3128L17.4233 22.7116V32.0245Z" fill="#0D1853"/>
<path d="M80.5274 27.3006L78.8219 27.3128V42.7239L79.9262 44.8834C78.3188 43.2883 75.5458 41.1656 74.3556 40.4662L75.558 40.2699V30.4785L72.9568 37.3374L70.282 27.9754V36.8098L71.19 38.4417C70.1838 37.8036 68.1593 36.503 67.5212 36.1226L68.7605 35.8895V21.6564L67.828 20.1595C68.6869 20.5153 71.0182 21.546 71.693 21.8772L73.6439 28.7975L75.7789 24.1472C76.6501 24.638 79.7421 26.773 80.5274 27.3006Z" fill="#0D1853"/>
<path d="M58.5276 27.4479C58.5276 27.4479 59.6074 23.2147 60.1718 21.2147L61.1043 28.3068L58.5276 27.4479ZM58.2086 16.8344L59.2883 17.8282C58.0613 21.816 55.7423 30.319 55.7423 30.319L54.8589 30.6135C55.4356 30.8467 57.7546 31.7792 58.5153 32.0982L57.5951 30.8467L58.0123 28.9816L61.3742 30.1473L61.6319 32.4663L60.4294 32.7117C62.5644 33.6197 65.0307 34.773 66.6994 35.7792L65.7791 34.2945C64.957 29.3129 63.6074 18.6749 63.6074 18.6749C62.6748 18.2086 59.4356 17.1779 58.2086 16.8344Z" fill="#0D1853"/>
<path d="M44.5039 28.6871L46.1972 28.1595L46.2094 15.1902C46.2094 15.1902 45.3383 14.5031 45.0192 14.1104C48.2217 14.4172 53.9027 15.4356 53.9027 15.4356V19.3129L52.1726 16.3681L49.645 15.9877V20.5399L50.6757 20.7116L52.0008 19.2147V23.7423L50.6021 21.9632L49.6941 21.8405V28.0613C49.6941 28.0613 51.3873 28.4172 52.099 28.5644C52.737 27.8282 53.9886 25.8405 53.9886 25.8405V30.4417C51.2401 29.8159 46.5162 29.0184 44.5039 28.6871Z" fill="#0D1853"/>
<path d="M38.5773 18.135C39.3134 18.4294 40.295 18.9325 40.295 22.3313C40.295 24.8221 39.6815 26.0368 38.884 26.638C38.3932 27.0061 37.4975 27.1656 36.7981 27.3006V17.9386C36.7981 17.9264 37.9515 17.8773 38.5773 18.135ZM36.7368 10.2576C36.7368 10.2576 37.3503 10.2576 37.9147 10.2576C39.4239 10.2576 39.9638 11.0429 39.9638 13.1043C39.9638 14.4662 39.7184 15.6196 38.4055 15.9754C37.7674 16.1472 36.7245 16.1472 36.7245 16.1472V10.2576H36.7368ZM40.884 17.0675C41.657 16.638 43.7797 15.865 43.7797 12.8098C43.7797 11.3988 43.1417 8.71164 38.9576 8.71164C37.1049 8.71164 32.5404 8.67483 31.5098 8.76072C31.792 8.89569 33.2398 9.54599 33.2398 9.54599V27.9632L31.5834 29.1165C31.5834 29.1165 37.0803 28.8711 39.1049 28.7362C42.2337 28.5276 44.1601 26.0981 44.1601 22.2699C44.1478 18.5767 42.1233 17.7914 40.884 17.0675Z" fill="#0D1853"/>
<path d="M22.6503 31.0797L23.5951 29.8773L23.5828 22L20.9202 30.2209L17.4233 22.7116V32.0245L18.6135 32.5153C17.7914 32.8466 15.5215 33.8405 14.6871 34.1963C14.9693 33.6687 15.8282 32.7239 15.8282 32.7239V18.908L14.5276 18.454L18.503 17.1534L21.2883 23.8037L23.7914 15.8159C23.7914 15.8159 26.7362 14.908 28.2454 14.6503L26.7853 15.7546V28.9325C26.7853 28.9325 28 29.3988 28.3926 29.5705C27.2392 29.8037 24.184 30.5767 22.6503 31.0797Z" fill="#0D1853"/>
<path d="M7.74244 37.9632C8.00011 37.3988 8.84673 36.2577 8.84673 36.2577V21.546L7.69336 21.3497C8.88354 20.6994 11.5707 19.5338 13.3989 18.8589L12.4909 20.1105V34.1718L13.8651 34.589C12.4664 35.2516 9.57066 36.8466 7.74244 37.9632Z" fill="#0D1853"/>
<path d="M-0.0243087 41.3251C-0.281978 41.5215 -0.686885 41.4969 -0.686885 41.1902V34.7975C-0.686885 34.7975 -3.59486 37.0307 -4.71143 37.9755V41.9877C-4.71143 45.2883 -1.87707 44.6503 -0.711425 43.9509C1.399 42.6626 5.86526 39.3129 5.86526 34.8466V16.638L6.71189 15.0552L0.19655 18.4417H1.75483V34.5276C1.75483 39.1411 1.8898 39.9264 -0.0243087 41.3251Z" fill="#0D1853"/>
</g>
<defs>
<clipPath id="clip0_1311_43920">
<rect width="80" height="80" fill="white"/>
</clipPath>
</defs>
</svg>
