<svg width="80" height="36" viewBox="0 0 80 36" fill="none" xmlns="http://www.w3.org/2000/svg">
<g clip-path="url(#clip0_1311_46129)">
<path fill-rule="evenodd" clip-rule="evenodd" d="M57.6216 18C57.6216 27.7291 49.7347 35.616 40.0056 35.616C30.2766 35.616 22.3896 27.7291 22.3896 18C22.3896 8.27099 30.2766 0.384033 40.0056 0.384033C49.7347 0.384033 57.6216 8.27099 57.6216 18ZM56.4159 18.0001C56.4159 27.0577 49.0732 34.4004 40.0156 34.4004C30.9579 34.4004 23.6152 27.0577 23.6152 18.0001C23.6152 8.94241 30.9579 1.59973 40.0156 1.59973C49.0732 1.59973 56.4159 8.94241 56.4159 18.0001Z" fill="#0D1853"/>
<path d="M25.5455 9.31029H0.146973V26.7014H25.5455M54.539 26.6891H79.8534V9.29797H54.8277L54.539 26.6891Z" stroke="#0D1853" stroke-width="0.293214"/>
<path d="M0.565674 9.73248H79.3879V26.2583H0.565674V9.73248Z" fill="#0D1853"/>
<path d="M4.9126 12.6839H7.24761L10.0472 17.1346H10.0765L12.9842 12.6839H15.6436V23.1928H13.015V18.5074L12.9857 18.3992L10.1868 22.4355H10.1529L7.57073 18.3992H7.54141V23.1928H4.9126V12.6839ZM22.0595 12.6839H25.2238L29.4833 23.1928H26.7767L26.3352 22.1244H21.3714L20.9005 23.1928H18.1887L22.0595 12.6839ZM25.1237 19.4398L23.7491 15.6608L23.7196 15.5526L22.2712 19.4398H25.1237ZM31.7192 12.6839H37.0208C40.3752 12.7773 40.8829 14.8896 40.8829 16.8766C40.8829 17.9659 39.9005 19.4737 38.9835 20.1603C39.1093 20.0659 40.7738 23.1928 40.7738 23.1928H37.7521L36.0304 20.6099H34.4164V23.1928H31.7192V12.6839ZM34.4164 18.2497H36.4334C37.0368 18.2497 38.3825 17.9277 38.2938 16.7722C38.2015 15.569 37.4932 15.1862 36.2566 15.1862H34.4162V18.2497H34.4164ZM45.2748 15.3777H42.6816V12.6839H51.0498V15.3775H48.1059V23.1928H45.2748V15.3777ZM59.6436 12.6839H62.4143L66.125 17.5017H66.0462V12.6839H68.7831V23.1928H66.1742L62.41 17.8855H62.3806V23.1928H59.6436V12.6839ZM72.4212 12.6839H75.1181V23.1928H72.4212V12.6839ZM53.4886 12.6839H56.1856V23.1928H53.4886V12.6839Z" fill="white"/>
</g>
<defs>
<clipPath id="clip0_1311_46129">
<rect width="80" height="35.232" fill="white" transform="translate(0 0.384033)"/>
</clipPath>
</defs>
</svg>
