<svg width="80" height="33" viewBox="0 0 80 33" fill="none" xmlns="http://www.w3.org/2000/svg">
<path d="M76.6364 25.8872C75.8165 25.8872 74.9975 25.8919 74.1776 25.8826C74.0476 25.8807 73.8461 25.9819 73.8071 25.7349C73.7672 25.4842 73.9687 25.5242 74.1089 25.4982C74.342 25.4545 74.4515 25.3217 74.4515 25.0803C74.4488 23.4257 74.4497 21.772 74.4515 20.1173C74.4515 19.8341 74.3123 19.6846 74.0328 19.6707C73.8898 19.6642 73.7988 19.628 73.8025 19.4581C73.8071 19.2705 73.9399 19.2761 74.0597 19.2751C75.6679 19.2724 77.2761 19.2751 78.8843 19.2714C79.0654 19.2714 79.1676 19.3429 79.2307 19.5082C79.4025 19.9548 79.5798 20.3987 79.76 20.8425C79.8027 20.9474 79.8575 21.0505 79.7284 21.1238C79.5937 21.2009 79.5018 21.1257 79.4145 21.0198C79.2576 20.8286 79.0923 20.6447 78.928 20.4609C78.4229 19.8945 77.797 19.6438 77.0338 19.6614C75.9158 19.6874 75.9149 19.6688 75.9149 20.81C75.9149 21.1963 75.9279 21.5835 75.9103 21.9697C75.8991 22.2195 75.9966 22.2817 76.2325 22.2827C76.7849 22.2845 77.3161 22.2158 77.7701 21.876C77.9995 21.7042 78.1369 21.4628 78.1787 21.1721C78.1963 21.0514 78.2557 20.9744 78.3922 20.9799C78.5287 20.9855 78.5863 21.0644 78.5863 21.1888C78.5872 22.1016 78.5872 23.0134 78.5854 23.9262C78.5854 24.0496 78.5241 24.1332 78.3894 24.1351C78.2595 24.1369 78.213 24.0571 78.174 23.9401C77.8295 22.9011 77.3049 22.5696 76.213 22.6596C75.9901 22.6782 75.9233 22.7673 75.9251 22.9763C75.9316 23.7033 75.9316 24.4303 75.9251 25.1565C75.9223 25.4099 76.0226 25.5251 76.2817 25.5167C76.6522 25.5056 77.0236 25.513 77.395 25.5047C78.3402 25.4814 78.967 24.9578 79.46 24.2056C79.5418 24.0812 79.5798 23.8073 79.851 23.928C80.1239 24.0496 79.9457 24.2446 79.9076 24.4043C79.837 24.7043 79.7052 24.9949 79.669 25.2976C79.6067 25.8064 79.3477 25.9299 78.8639 25.9011C78.1239 25.8566 77.3801 25.8891 76.6373 25.89L76.6364 25.8872Z" fill="#0D1853"/>
<path d="M42.7722 20.4469C42.7722 20.7403 42.7768 21.0347 42.7703 21.3281C42.7675 21.4395 42.8176 21.5881 42.6245 21.6094C42.4583 21.628 42.3729 21.5593 42.3181 21.4014C42.1537 20.9297 41.9114 20.5008 41.5641 20.1386C41.0655 19.6187 40.449 19.4506 39.8881 19.6827C39.5873 19.8072 39.3626 20.0003 39.3227 20.3522C39.2837 20.6985 39.4267 20.9567 39.7061 21.1387C40.214 21.4692 40.7814 21.6772 41.3404 21.8982C41.6588 22.0236 41.9578 22.1805 42.2429 22.3662C43.0479 22.8917 43.3265 23.5714 43.1268 24.5167C42.956 25.3254 42.3924 25.8073 41.4759 25.9837C40.7563 26.1221 40.0599 26.0218 39.3682 25.8454C39.097 25.7758 38.876 25.7637 38.6393 25.9624C38.3886 26.1732 38.2131 26.0905 38.214 25.7414C38.214 25.1388 38.2121 24.5352 38.2168 23.9326C38.2177 23.8026 38.1778 23.6308 38.3839 23.6095C38.5678 23.5909 38.6077 23.7488 38.6588 23.8732C38.837 24.3031 39.045 24.7154 39.3496 25.0719C39.9281 25.7488 40.9838 25.8705 41.7025 25.3449C42.1723 25.0014 42.1686 24.3635 41.6848 23.9521C41.3014 23.6271 40.8278 23.4665 40.3747 23.2724C39.9633 23.0969 39.5418 22.9437 39.1639 22.6977C38.4016 22.2018 38.071 21.4349 38.2725 20.6326C38.4666 19.8619 39.2224 19.2677 40.0794 19.2045C40.6105 19.1655 41.1296 19.2287 41.631 19.4014C41.9077 19.4961 42.1454 19.5416 42.4026 19.3169C42.6115 19.1349 42.7759 19.2157 42.7749 19.5175C42.774 19.8267 42.7749 20.1359 42.7749 20.4451L42.7722 20.4469Z" fill="#0D1853"/>
<path d="M64.6101 22.1684C64.6101 21.6113 64.6147 21.0542 64.6091 20.498C64.6026 19.8963 64.4977 19.7728 63.9062 19.6707C63.7716 19.6475 63.6063 19.6809 63.6184 19.4673C63.6314 19.2528 63.8022 19.2965 63.9322 19.2955C64.5042 19.2918 65.0771 19.2928 65.6491 19.2955C65.7819 19.2955 65.9499 19.263 65.9518 19.4785C65.9537 19.6549 65.8199 19.6632 65.6927 19.666C65.2749 19.6735 65.1365 19.9093 65.1384 20.2984C65.143 21.3346 65.13 22.3708 65.1282 23.4071C65.1254 24.9354 64.5553 25.6551 63.0538 25.9308C62.2767 26.0738 61.4865 26.0729 60.7084 25.89C59.5096 25.6086 58.8894 24.8463 58.8755 23.6123C58.8643 22.6225 58.8745 21.6327 58.8717 20.6419C58.8708 20.1851 58.9015 19.706 58.2468 19.6595C58.1261 19.6512 58.1159 19.5537 58.115 19.4543C58.115 19.3271 58.1958 19.2993 58.2942 19.2993C59.2069 19.2974 60.1197 19.2974 61.0324 19.2993C61.1513 19.2993 61.2441 19.3336 61.2414 19.4831C61.2395 19.6289 61.1466 19.6447 61.0315 19.6716C60.3175 19.8406 60.3175 19.8434 60.3175 20.5639C60.3175 21.5389 60.3165 22.5129 60.3175 23.4879C60.3193 25.149 61.1559 25.8621 62.7976 25.6021C64.0901 25.3978 64.6082 24.7887 64.6091 23.4684C64.6091 23.0357 64.6091 22.602 64.6091 22.1693L64.6101 22.1684Z" fill="#0D1853"/>
<path d="M70.6046 22.5167C70.6046 23.2902 70.6195 24.0636 70.6 24.8362C70.5888 25.2874 70.7755 25.4936 71.223 25.4936C71.3772 25.4936 71.6093 25.4286 71.6111 25.6913C71.6121 25.9615 71.3772 25.8826 71.2258 25.8835C70.314 25.89 69.4012 25.89 68.4894 25.8835C68.3566 25.8826 68.1542 25.9597 68.144 25.7034C68.1338 25.4564 68.3204 25.5066 68.4671 25.488C69.119 25.4053 69.1477 25.3738 69.1487 24.7034C69.1505 23.188 69.1505 21.6726 69.1487 20.1573C69.1487 19.6819 69.066 19.6224 68.6018 19.6949C67.819 19.8174 67.3139 20.3124 66.8951 20.9354C66.8088 21.0635 66.7679 21.2901 66.5311 21.2075C66.2693 21.1155 66.4327 20.9215 66.4587 20.7766C66.5414 20.3216 66.6611 19.8732 66.728 19.4163C66.7688 19.1387 66.9332 19.0421 67.1366 19.1368C67.5711 19.3383 68.0177 19.2613 68.4597 19.2668C69.5108 19.2789 70.5628 19.2733 71.6139 19.2696C71.9194 19.2687 72.2212 19.291 72.5211 19.148C72.7337 19.0468 72.9278 19.1025 72.9798 19.4135C73.0624 19.9159 73.1878 20.4108 73.2918 20.9085C73.3131 21.0106 73.3577 21.123 73.2175 21.1861C73.055 21.2595 72.9974 21.1406 72.9297 21.0366C72.5257 20.4136 72.0531 19.8797 71.2806 19.7097C70.6817 19.5788 70.6083 19.6308 70.6074 20.2436C70.6074 21.0013 70.6074 21.759 70.6074 22.5167H70.6046Z" fill="#0D1853"/>
<path d="M15.5017 19.2956C15.9966 19.2956 16.4915 19.2938 16.9864 19.2975C17.1052 19.2975 17.2417 19.278 17.251 19.4674C17.2594 19.6447 17.1489 19.6457 17.017 19.6726C16.4246 19.7914 16.4246 19.797 16.7821 20.2901C17.1628 20.8156 17.5528 21.3347 17.9242 21.8667C18.0811 22.0914 18.1888 22.1091 18.3569 21.8779C18.7747 21.3031 19.2028 20.7348 19.6392 20.1731C19.8769 19.8676 19.7506 19.7404 19.4331 19.681C19.2901 19.654 19.0932 19.6912 19.1285 19.4442C19.1592 19.2297 19.3384 19.3012 19.46 19.2984C19.9698 19.29 20.4805 19.2882 20.9912 19.2984C21.123 19.3012 21.3245 19.2148 21.3356 19.4767C21.3449 19.6884 21.1852 19.6782 21.0524 19.694C20.5631 19.7525 20.253 20.0728 19.9772 20.4349C19.4897 21.0738 19.0152 21.7228 18.5268 22.3616C18.3987 22.5288 18.3328 22.6978 18.3365 22.9122C18.3476 23.5613 18.356 24.2122 18.3356 24.8603C18.3216 25.3069 18.4888 25.527 18.9493 25.5186C19.1007 25.5158 19.3384 25.4462 19.343 25.7081C19.3477 25.9727 19.1127 25.9058 18.9586 25.9068C18.0459 25.9123 17.134 25.9123 16.2213 25.9068C16.0829 25.9058 15.8842 25.9606 15.8805 25.7127C15.8768 25.4601 16.0774 25.5279 16.2157 25.5131C16.8258 25.4499 16.8759 25.397 16.8935 24.7674C16.9257 23.6155 16.606 22.5724 15.9344 21.6383C15.5825 21.149 15.2148 20.6698 14.8786 20.1703C14.6725 19.8648 14.4329 19.6689 14.0485 19.6875C13.8897 19.6949 13.7226 19.6875 13.7458 19.4516C13.7681 19.2278 13.9473 19.3003 14.0671 19.2984C14.5462 19.2891 15.0263 19.2947 15.5054 19.2947L15.5017 19.2956Z" fill="#0D1853"/>
<path d="M31.5583 25.9494C30.6771 25.9494 29.7969 25.9504 28.9157 25.9485C28.7523 25.9485 28.5378 25.9903 28.5285 25.7387C28.5192 25.4731 28.7402 25.5297 28.9009 25.526C29.2927 25.5167 29.4338 25.3143 29.432 24.9327C29.4218 23.4034 29.419 21.8741 29.4357 20.3448C29.4403 19.901 29.2806 19.6763 28.8303 19.6689C28.7003 19.667 28.523 19.6995 28.5267 19.485C28.5304 19.2371 28.7291 19.2984 28.8702 19.2974C29.7356 19.2928 30.601 19.2937 31.4664 19.2965C31.5964 19.2965 31.7672 19.2538 31.7895 19.4609C31.8118 19.6716 31.6484 19.6716 31.511 19.6726C31.0161 19.6763 30.8591 19.9335 30.8656 20.4089C30.8851 21.8305 30.8656 23.2521 30.8749 24.6736C30.8796 25.436 30.9826 25.5093 31.7273 25.5474C33.0003 25.6124 34.0505 25.2725 34.6485 24.0413C34.7163 23.902 34.8165 23.811 34.979 23.8779C35.1415 23.9447 35.0802 24.0868 35.0515 24.1982C34.927 24.6755 34.7831 25.1481 34.6652 25.6272C34.6011 25.8882 34.4553 25.9587 34.2 25.955C33.3197 25.942 32.4386 25.9504 31.5574 25.9504L31.5583 25.9494Z" fill="#0D1853"/>
<path d="M54.6365 25.9503C53.7554 25.9503 52.8742 25.9531 51.993 25.9475C51.8417 25.9466 51.6207 26.0218 51.6179 25.7423C51.6151 25.4963 51.8175 25.5353 51.9549 25.538C52.3904 25.5473 52.5083 25.3031 52.5074 24.9206C52.5056 23.3904 52.5102 21.8601 52.5186 20.3299C52.5214 19.9186 52.3579 19.6855 51.9215 19.6911C51.7683 19.6929 51.5919 19.7059 51.6077 19.4655C51.6225 19.2445 51.7971 19.3002 51.9215 19.3002C52.8027 19.2955 53.6839 19.2955 54.565 19.3002C54.6774 19.3002 54.8232 19.2612 54.8455 19.4525C54.8678 19.6484 54.7554 19.6994 54.5966 19.6948C54.0144 19.6781 53.9374 20.0384 53.942 20.5119C53.9559 21.9186 53.9448 23.3254 53.9485 24.7321C53.9504 25.4016 54.0553 25.487 54.7313 25.5232C55.9922 25.5919 57.0693 25.3059 57.6821 24.0682C57.7555 23.9205 57.8586 23.7961 58.0433 23.8639C58.2708 23.9475 58.1492 24.1137 58.112 24.252C57.9913 24.6987 57.8465 25.1397 57.7518 25.5919C57.6914 25.8779 57.5605 25.9633 57.2782 25.9587C56.397 25.9429 55.5159 25.9531 54.6347 25.9531L54.6365 25.9503Z" fill="#0D1853"/>
<path d="M38.5842 32.7454C38.0977 32.8549 37.6353 32.8141 37.1125 32.8066C37.4449 32.5894 37.6789 31.5067 37.496 31.2393C37.4663 31.1966 37.3948 31.1594 37.3419 31.1585C36.9249 31.152 36.5071 31.152 36.0902 31.1585C36.0373 31.1585 35.9667 31.1956 35.9351 31.2393C35.7606 31.4826 35.9871 32.5569 36.288 32.7611H34.846C35.2202 32.6469 35.2109 32.3563 35.2053 32.0471C35.1932 31.3981 35.1932 30.749 35.2053 30.1C35.2109 29.8112 35.183 29.5707 34.8274 29.476H36.274C35.9964 29.7629 35.7856 30.7174 35.9751 30.9022C36.0818 31.0072 37.4301 30.9923 37.5164 30.8855C37.6733 30.6915 37.4412 29.6691 37.1357 29.4899C37.6353 29.4064 38.068 29.4509 38.5369 29.4899C38.2425 29.6236 38.2119 29.8428 38.2193 30.1111C38.2379 30.7899 38.2397 31.4705 38.2175 32.1502C38.2082 32.4408 38.2602 32.6506 38.5842 32.7454Z" fill="#0D1853"/>
<path d="M43.84 30.321C43.5252 31.1437 43.2634 31.8327 42.995 32.5189C42.9486 32.6368 42.9542 32.8364 42.7778 32.8234C42.6487 32.8132 42.6441 32.6377 42.6041 32.5254C42.3246 31.7408 42.0433 30.9571 41.7694 30.1706C41.6793 29.9125 41.6097 29.6469 41.3135 29.5104C41.7527 29.4436 42.1724 29.5374 42.6273 29.4687C42.3636 29.6859 42.4221 29.9106 42.5066 30.1539C42.6988 30.7036 42.8734 31.2589 43.0795 31.8875C43.3711 31.2774 43.5345 30.7185 43.7128 30.166C43.8075 29.8716 43.6116 29.6896 43.2801 29.4817H44.671C44.3033 29.711 44.4528 29.9775 44.5383 30.2412C44.7045 30.7537 44.8679 31.2672 45.0731 31.9079C45.3851 31.1734 45.5792 30.5244 45.7454 29.8651C45.8048 29.6293 45.5225 29.6655 45.4259 29.4956C45.7602 29.4259 46.0611 29.5448 46.3675 29.4668C45.8559 29.9208 45.8169 30.5783 45.5699 31.1344C45.3572 31.6136 45.1938 32.114 45.0109 32.6062C44.9737 32.7064 44.958 32.8411 44.8252 32.8355C44.6961 32.8299 44.6859 32.6897 44.6506 32.5932C44.3953 31.8828 44.1427 31.1716 43.84 30.3229V30.321Z" fill="#0D1853"/>
<path d="M47.1204 29.4722H48.5902C48.3098 29.7007 48.0991 30.5633 48.2281 30.8678C48.2736 30.9746 48.3563 30.9876 48.4519 30.9885C48.606 30.9895 48.7611 30.9904 48.9152 30.9904C49.5726 30.9904 49.8719 30.6648 49.8131 30.0136C49.7958 29.8235 49.6491 29.6375 49.373 29.4555C49.9338 29.4722 50.3749 29.5094 50.8503 29.4871C50.4677 29.6199 50.4817 29.9012 50.4863 30.1956C50.4974 30.8446 50.4891 31.4937 50.49 32.1427C50.49 32.4092 50.4473 32.7026 50.8401 32.7899H49.295C49.6961 32.6618 49.8178 32.463 49.7825 32.1427C49.7528 31.8697 49.8029 31.5893 49.7899 31.3126C49.7816 31.1334 49.6163 31.1715 49.5002 31.1696C49.1604 31.165 48.8205 31.1668 48.4807 31.1696C48.3767 31.1705 48.2615 31.1473 48.1938 31.2671C48.0601 31.502 48.268 32.5531 48.489 32.7546C48.0981 32.8456 47.5475 32.8465 47.0405 32.7314C47.4417 32.6692 47.5104 32.4696 47.502 32.1808C47.4825 31.502 47.489 30.8223 47.502 30.1427C47.5085 29.8335 47.4556 29.593 47.1204 29.4741V29.4722Z" fill="#0D1853"/>
<path d="M60.7744 32.7416C60.6212 32.7667 60.5775 32.7825 60.5348 32.7806C60.0344 32.7583 59.4429 32.9932 59.2748 32.178C59.2117 31.8706 58.9155 31.6106 58.7223 31.3302C58.6703 31.255 58.6146 31.1603 58.506 31.1863C58.3871 31.2142 58.4057 31.3284 58.4076 31.4157C58.4196 31.8716 58.3556 32.3433 58.6156 32.788C58.2766 32.8521 57.8895 32.8261 57.4855 32.7945C57.8644 32.2532 57.8495 29.7898 57.4373 29.4685C57.8718 29.371 58.2674 29.41 58.6963 29.4388C58.2079 29.8446 58.4503 30.3553 58.4243 30.8112C58.4159 30.9616 58.5691 30.9672 58.6546 30.8678C58.9656 30.5048 59.2683 30.1334 59.5664 29.7592C59.6852 29.6087 59.4206 29.5902 59.4485 29.437H60.4671C59.9155 29.6552 59.6007 30.1269 59.2358 30.541C59.1485 30.6403 59.0278 30.7304 59.155 30.8957C59.5506 31.4101 59.9304 31.9366 60.3324 32.4463C60.4178 32.554 60.5701 32.6088 60.7744 32.7425V32.7416Z" fill="#0D1853"/>
<path d="M43.7831 8.87932C43.8629 9.22009 43.6141 9.38722 43.4544 9.68528C44.3504 9.79299 45.1406 9.67321 45.85 9.10495C45.7757 9.75864 45.1517 10.2981 44.3847 10.3668C44.0635 10.3956 43.7366 10.364 43.4126 10.3585C43.2686 10.3557 43.0997 10.2257 42.9901 10.404C42.8926 10.5646 42.9483 10.7317 43.0374 10.8859C43.0885 10.975 43.1368 11.0651 43.1544 11.183C42.2361 10.651 41.5889 9.86449 41.0522 8.94153C41.9798 9.56736 42.887 9.57479 43.7831 8.87839V8.87932Z" fill="#0D1853"/>
<path d="M27.9339 32.7695C28.2998 32.6905 28.323 32.4482 28.3174 32.1548C28.3035 31.5066 28.3211 30.8585 28.3081 30.2104C28.3044 30.0238 28.4177 29.7174 28.2153 29.6747C27.9386 29.6162 27.5932 29.5902 27.361 29.8752C27.257 30.0034 27.1493 30.1287 26.9905 30.3191C26.9265 29.9328 27.0973 29.6644 27.1363 29.3794C27.1521 29.267 27.2329 29.2921 27.3406 29.3181C28.2951 29.5465 29.2497 29.4713 30.2413 29.3348C30.3676 29.6097 30.3407 29.9504 30.3583 30.2968C30.0482 30.0089 29.8569 29.6087 29.3481 29.6579C29.129 29.6793 29.0073 29.7072 29.011 29.9625C29.0222 30.7341 29.0194 31.5057 29.0129 32.2773C29.011 32.5382 29.1085 32.6942 29.3806 32.7695H27.9349H27.9339Z" fill="#0D1853"/>
<path d="M21.8845 30.6004C21.7889 30.4333 21.7044 30.2578 21.5939 30.1009C21.306 29.6932 20.8018 29.4852 20.3812 29.6134C19.9049 29.7582 19.7238 30.1408 19.6625 30.5958C19.6421 30.748 19.6374 30.905 19.6495 31.0572C19.6941 31.6376 19.8631 32.1789 20.4341 32.4305C21.021 32.6896 21.5428 32.4705 21.9811 32.0266C22.0943 32.1696 21.9681 32.2356 21.9114 32.3015C21.4239 32.8679 20.4685 33.0387 19.786 32.6896C19.111 32.3451 18.7776 31.5717 18.9503 30.7536C19.1147 29.9755 19.7312 29.4843 20.5047 29.3905C20.9522 29.3367 21.3432 29.6867 21.7889 29.4917C21.8538 29.4639 21.8836 29.5437 21.8901 29.6097C21.9216 29.93 21.9541 30.2494 21.9857 30.5698C21.9523 30.58 21.9179 30.5902 21.8845 30.6004Z" fill="#0D1853"/>
<path d="M34.1858 31.9951C33.6677 32.7945 32.8292 33.0573 32.0158 32.75C31.2999 32.4798 30.884 31.6979 31.0102 30.8604C31.1328 30.0498 31.7809 29.4778 32.5692 29.3896C33.0298 29.3376 33.4421 29.67 33.9017 29.502C33.9073 29.5001 33.9648 29.5939 33.9713 29.6468C34.0103 29.9504 34.0828 30.2532 34.0354 30.5874C33.8348 30.5234 33.8348 30.3246 33.7513 30.1974C33.4486 29.735 32.9574 29.4955 32.4922 29.6023C32.0855 29.696 31.7865 30.1055 31.7354 30.6617C31.7141 30.892 31.7187 31.1213 31.7726 31.3525C32.0558 32.5717 33.0187 32.8995 33.9797 32.1009C34.0103 32.0749 34.0521 32.0629 34.1858 31.9941V31.9951Z" fill="#0D1853"/>
<path d="M63.4385 29.4789H64.6233C63.8601 29.8568 63.679 30.5235 63.3345 31.0648C62.9483 31.6702 63.0235 32.4492 63.4784 32.8067H62.0346C62.4153 32.6099 62.4691 32.335 62.445 32.0063C62.4227 31.6981 62.4441 31.3954 62.2611 31.1159C62.0754 30.8317 61.9157 30.53 61.7625 30.2273C61.6158 29.9394 61.4422 29.6822 60.9993 29.4937C61.601 29.4167 62.0513 29.4436 62.6056 29.4659C62.3568 29.6506 62.2834 29.7992 62.4199 30.0239C62.5954 30.3127 62.7245 30.6302 62.8684 30.9376C63.0003 31.2189 63.0968 31.1001 63.1934 30.9153C63.329 30.6553 63.4617 30.3935 63.6029 30.1363C63.7487 29.8707 63.8136 29.6358 63.4376 29.4798L63.4385 29.4789Z" fill="#0D1853"/>
<path d="M56.3321 30.3795C56.1724 30.1446 56.0731 29.9738 55.9496 29.8224C55.7787 29.6107 55.5447 29.5374 55.2847 29.6172C55.0786 29.6813 54.956 29.8271 54.9328 30.0564C54.9031 30.3508 55.0526 30.5207 55.2959 30.6349C55.4073 30.6869 55.5197 30.7361 55.6348 30.7797C56.424 31.0759 56.7165 31.5671 56.4881 32.2171C56.2801 32.8086 55.58 33.0407 54.8409 32.7622C54.3283 32.569 54.2708 32.4167 54.5001 31.8503C54.6905 31.932 54.6441 32.141 54.7267 32.2802C54.9263 32.6154 55.2067 32.7473 55.5837 32.6758C55.8456 32.6266 55.9756 32.453 56.0044 32.193C56.0443 31.8262 55.8558 31.621 55.5354 31.4891C55.308 31.3954 55.0851 31.2886 54.8697 31.1688C54.4453 30.9339 54.3061 30.543 54.4203 30.1047C54.5317 29.6757 54.878 29.4844 55.3135 29.4148C55.6218 29.3656 55.9106 29.5717 56.2179 29.4482C56.2931 29.4176 56.3247 29.4872 56.3238 29.5513C56.3201 29.7909 56.4278 30.0286 56.3312 30.3786L56.3321 30.3795Z" fill="#0D1853"/>
<path d="M16.1881 31.7592C16.2977 32.0108 16.3525 32.1845 16.4425 32.3377C16.6329 32.658 16.93 32.7481 17.2819 32.6673C17.5438 32.6069 17.6691 32.4166 17.6849 32.165C17.7063 31.8298 17.5336 31.6227 17.2244 31.4973C16.9681 31.3934 16.7164 31.2708 16.4815 31.1259C16.1649 30.9309 16.0303 30.6273 16.0628 30.2568C16.0962 29.878 16.332 29.6607 16.6561 29.4954C17.0758 29.2809 17.5029 29.5679 17.9226 29.449C17.9867 29.4304 17.9941 29.5354 17.9941 29.5901C17.9941 29.8167 18.113 30.0377 18.0229 30.3005C17.8065 30.2401 17.7917 30.0238 17.6858 29.8956C17.4908 29.6598 17.2615 29.5233 16.9597 29.6115C16.7369 29.6774 16.6078 29.8473 16.5948 30.0943C16.5772 30.4193 16.8009 30.5549 17.0424 30.6747C17.138 30.723 17.2429 30.7527 17.3441 30.7907C18.0972 31.0712 18.3748 31.5568 18.1585 32.2123C17.9746 32.7685 17.2773 33.0322 16.5957 32.8029C15.9829 32.5967 15.9402 32.5057 16.1881 31.7583V31.7592Z" fill="#0D1853"/>
<path d="M53.2242 29.4955C52.928 29.6125 52.9178 29.8511 52.9225 30.1195C52.9345 30.7982 52.9382 31.477 52.9225 32.1557C52.916 32.4426 52.954 32.6664 53.3031 32.7416C52.8147 32.8531 52.3514 32.8168 51.8528 32.7695C52.2493 32.6321 52.2651 32.3405 52.2567 32.0109C52.24 31.3628 52.2446 30.7146 52.2548 30.0665C52.2595 29.788 52.2261 29.5623 51.8779 29.4955H53.2252H53.2242Z" fill="#0D1853"/>
<path d="M46.435 5.66002C45.8881 6.24221 45.4925 6.3267 44.7989 6.05186C44.4665 5.92001 44.1425 5.7863 43.6587 5.84387C44.0886 5.43346 44.4897 5.50495 44.8769 5.62009C45.356 5.76309 45.8296 5.86522 46.435 5.66002Z" fill="#0D1853"/>
<path fill-rule="evenodd" clip-rule="evenodd" d="M44.0176 12.4668C44.0598 12.5583 44.1036 12.6532 44.1513 12.7523L44.1523 12.7541C44.1795 12.7241 44.2001 12.7026 44.216 12.6862C44.2423 12.6588 44.2552 12.6453 44.2628 12.6297C44.3593 12.4217 44.5005 12.3066 44.74 12.3929C44.9099 12.4542 44.9861 12.5963 44.9684 12.7578C44.9424 12.9992 44.7707 13.0986 44.5395 13.0772C44.4099 13.0655 44.3276 13.1325 44.244 13.2005C44.2222 13.2183 44.2002 13.2362 44.1773 13.2527C43.1541 13.9974 41.9247 13.9036 41.0157 13.0095C40.9994 12.9934 40.9834 12.9772 40.9675 12.9611C40.8754 12.8678 40.7853 12.7766 40.6508 12.7346C40.466 12.677 40.3666 12.5415 40.401 12.3465C40.4307 12.1794 40.5468 12.0633 40.7185 12.0568C40.9368 12.0475 41.0797 12.184 41.0965 12.3892C41.1308 12.8043 41.2812 12.6984 41.4744 12.4951C41.5223 12.4454 41.5717 12.3968 41.621 12.3484C41.649 12.3208 41.677 12.2933 41.7046 12.2657C42.1361 11.8336 42.1287 11.4059 41.6824 10.9825C41.4874 10.7977 41.3314 10.6733 41.2775 11.0725C41.2469 11.2982 41.1401 11.4616 40.8931 11.4477C40.7074 11.4365 40.5644 11.3242 40.5616 11.1245C40.5588 10.8905 40.6907 10.7708 40.933 10.7401C41.2469 10.7011 41.2274 10.5646 41.0352 10.3539C40.2023 9.43926 40.1243 9.44018 39.3146 10.3752C39.1252 10.5934 39.179 10.7011 39.4297 10.7401C39.6619 10.7763 39.8179 10.8813 39.8067 11.1199C39.7974 11.3056 39.6721 11.4356 39.4697 11.4328C39.2199 11.43 39.1363 11.2768 39.1122 11.041C39.0862 10.7903 38.9887 10.7216 38.7631 10.9258C38.7562 10.9321 38.7494 10.9382 38.7427 10.9443C38.022 11.5971 38.022 11.5971 38.7101 12.2861C38.7322 12.3082 38.7543 12.3301 38.7763 12.352C38.8312 12.4065 38.8858 12.4607 38.9395 12.5164C39.1475 12.73 39.3035 12.7801 39.3248 12.3966C39.335 12.1942 39.4474 12.0791 39.6396 12.0596C39.8142 12.0419 39.946 12.1394 39.9906 12.3019C40.0481 12.5081 39.9646 12.6715 39.7529 12.7365C39.6163 12.7785 39.5241 12.8704 39.4296 12.9646C39.4155 12.9786 39.4014 12.9927 39.387 13.0067C38.4594 13.9111 37.2691 14.003 36.23 13.2537C36.2035 13.2346 36.1786 13.212 36.1538 13.1895C36.0867 13.1284 36.0195 13.0673 35.9171 13.0754C35.6701 13.0949 35.4816 13.0252 35.4408 12.756C35.4138 12.5833 35.4946 12.4523 35.6673 12.4003C35.9394 12.3177 36.061 12.4886 36.1576 12.7003C36.1642 12.7147 36.1829 12.7241 36.2061 12.7357C36.2187 12.742 36.2327 12.749 36.2467 12.7578C36.2909 12.6654 36.3346 12.5734 36.3781 12.4818C36.4333 12.3655 36.4883 12.2497 36.5439 12.1339C36.686 11.8362 36.756 11.6895 36.7169 11.583C36.678 11.4772 36.5313 11.411 36.2402 11.2759C35.9403 11.1366 35.7918 11.1654 35.8902 11.535C35.9385 11.7169 35.854 11.8451 35.7212 11.9296C35.5996 12.0076 35.4408 12.0057 35.3349 11.8934C35.1093 11.6547 35.1743 11.456 35.4445 11.2954C35.6023 11.2016 35.763 11.0642 35.4826 10.95C35.4246 10.9264 35.3667 10.9025 35.3086 10.8786C34.9183 10.7177 34.522 10.5543 34.0693 10.4662C34.1952 10.933 34.3206 11.3961 34.4452 11.8566C34.7911 13.1348 35.1316 14.3929 35.464 15.653C35.5299 15.9037 35.6608 15.9464 35.892 15.9464C38.7686 15.9399 41.6462 15.938 44.5227 15.9492C44.8069 15.9501 44.9276 15.8582 44.9954 15.5908C45.2215 14.6999 45.457 13.8111 45.6925 12.9221C45.7731 12.6176 45.8538 12.3131 45.9341 12.0085C45.9711 11.8677 46.0081 11.7269 46.0457 11.5839C46.142 11.2174 46.2421 10.8366 46.3557 10.4059C45.9063 10.5683 45.5497 10.6974 45.1931 10.8265C44.8799 10.9398 44.8391 11.1174 45.0706 11.3595C45.1885 11.482 45.2331 11.6194 45.1384 11.7792C45.0604 11.9119 44.9462 11.9834 44.7929 11.9621C44.6193 11.937 44.5209 11.8247 44.493 11.6538C44.4519 11.3967 44.4334 11.2712 44.3668 11.2354C44.2983 11.1985 44.1786 11.2567 43.9303 11.3641C43.6193 11.4978 43.5896 11.651 43.7465 11.9221C43.8451 12.0928 43.9277 12.272 44.0176 12.4668ZM37.7087 14.5332C38.8517 14.6409 39.5593 13.9297 40.2092 13.1358H40.2102C41.7979 14.8712 43.7618 15.0746 44.3106 13.575C43.0301 14.4413 41.6262 14.3308 40.5593 13.2296C40.2705 12.9306 40.1452 12.9965 39.8777 13.2379C39.0133 14.0179 38.0225 14.3754 36.8563 13.99C36.6683 13.9281 36.5034 13.8244 36.3383 13.7206C36.2262 13.6501 36.1141 13.5795 35.9946 13.5221C36.392 14.1562 36.9882 14.4654 37.7087 14.5332Z" fill="#0D1853"/>
<path fill-rule="evenodd" clip-rule="evenodd" d="M2.46836 19.2947C2.28868 19.2964 2.10898 19.2981 1.92958 19.2955L1.93051 19.2946C1.79157 19.2946 1.65258 19.2945 1.51354 19.2944C1.09598 19.294 0.678033 19.2937 0.260082 19.2965C0.248005 19.2966 0.235714 19.2964 0.223375 19.2962C0.115232 19.2948 0.00342699 19.2932 9.32437e-05 19.4683C-0.00362088 19.6465 0.104089 19.6688 0.239654 19.6679C0.637994 19.6651 0.778203 19.8907 0.778203 20.2575C0.778203 21.8202 0.780988 23.382 0.784702 24.9438C0.784702 25.2939 0.638923 25.5009 0.268439 25.5102C0.123588 25.5139 -0.0221914 25.5232 0.00473601 25.7331C0.0272586 25.911 0.146903 25.8995 0.255695 25.8891C0.281457 25.8866 0.306611 25.8842 0.329722 25.8844C1.14962 25.8909 1.96951 25.8909 2.7894 25.8844C2.81195 25.8843 2.83637 25.8859 2.86141 25.8875C2.98794 25.8959 3.13018 25.9054 3.12553 25.6922C3.12156 25.5089 2.99285 25.5114 2.87437 25.5137C2.85419 25.5141 2.83431 25.5145 2.8154 25.5139C2.36506 25.5 2.19514 25.2688 2.21185 24.8268C2.23321 24.2558 2.22671 23.6819 2.21185 23.11C2.20536 22.8416 2.27314 22.732 2.57027 22.7209C2.99739 22.7042 3.27874 22.8546 3.46073 23.2372C3.63344 23.5993 3.81914 23.9558 4.00949 24.3096C4.09718 24.4721 4.1682 24.6565 4.23908 24.8406C4.39259 25.2393 4.54543 25.6362 4.8656 25.8046C5.18795 25.9744 5.61636 25.943 6.04454 25.9116C6.2318 25.8978 6.41903 25.8841 6.59731 25.8872C6.60369 25.8876 6.61007 25.8881 6.61643 25.8885C6.64156 25.8905 6.66645 25.8924 6.69016 25.8872C6.7255 25.8797 6.76624 25.8819 6.80708 25.884C6.9186 25.8899 7.03082 25.8958 7.03558 25.7061C7.04011 25.5254 6.92277 25.5233 6.81035 25.5212C6.7847 25.5207 6.7593 25.5202 6.73566 25.5176C6.43574 25.4842 6.23518 25.3319 6.08105 25.0682C5.65949 24.3477 5.22587 23.6346 4.77646 22.9317C4.61397 22.6782 4.60004 22.5631 4.92781 22.4581C5.49329 22.278 5.82849 21.8769 5.87584 21.2687C5.93712 20.4701 5.39393 19.7988 4.46076 19.4952C3.80705 19.2822 3.13776 19.2884 2.46836 19.2947ZM2.21533 20.329V20.9781V21.6271C2.21533 22.4266 2.21533 22.4294 3.03151 22.356C3.18472 22.3421 3.33793 22.3124 3.48556 22.2715C4.07239 22.1072 4.35653 21.7413 4.37974 21.1313C4.41688 20.1805 3.98883 19.7469 2.93866 19.6716C2.45644 19.637 2.21533 19.8561 2.21533 20.329Z" fill="#0D1853"/>
<path fill-rule="evenodd" clip-rule="evenodd" d="M10.5129 26.0162C12.4266 25.9902 13.9624 24.4303 13.9336 22.538V22.5389C13.9057 20.68 12.3179 19.1228 10.4664 19.1377C8.56387 19.1525 6.99001 20.758 7.01694 22.6559C7.04387 24.5092 8.63723 26.0413 10.5129 26.0162ZM8.89518 20.6774C8.63333 21.2818 8.56184 21.9253 8.53955 22.5771C8.56834 23.3367 8.63055 24.0897 9.03632 24.7638C9.39473 25.359 9.90821 25.6645 10.6139 25.6172C11.2861 25.5726 11.7439 25.2067 12.002 24.6143C12.574 23.3051 12.5694 21.9671 12.0522 20.6486C11.7773 19.9475 11.2406 19.5306 10.4421 19.5483C9.66493 19.5659 9.18767 20.0014 8.89518 20.6774Z" fill="#0D1853"/>
<path fill-rule="evenodd" clip-rule="evenodd" d="M26.1185 25.8867C26.2409 25.8865 26.3633 25.8863 26.4857 25.8863V25.8891C26.6056 25.8891 26.7256 25.8892 26.8455 25.8893C27.2056 25.8897 27.5655 25.89 27.9249 25.8872C27.9365 25.8871 27.9483 25.8873 27.9602 25.8874C28.0695 25.8886 28.1857 25.8899 28.1932 25.7192C28.2016 25.5446 28.0902 25.5195 27.9537 25.5167C27.5219 25.5093 27.2879 25.2382 27.118 24.8844C27.0031 24.6457 26.8886 24.4067 26.7741 24.1676C26.6018 23.8078 26.4294 23.4479 26.2554 23.0886C26.1879 22.9497 26.1205 22.8107 26.053 22.6717C25.5337 21.6016 25.0143 20.5313 24.4884 19.4646C24.484 19.4557 24.4793 19.4462 24.4744 19.4361C24.3993 19.2825 24.2651 19.0083 24.1318 19.2287C24.0457 19.3711 23.8955 19.4744 23.745 19.5779C23.4508 19.7803 23.1555 19.9834 23.3361 20.4804C23.3528 20.5273 23.315 20.5954 23.2783 20.6615C23.2641 20.687 23.2501 20.7122 23.2395 20.7357C23.1363 20.9656 23.0332 21.1954 22.9301 21.4252C22.4707 22.4489 22.0114 23.4724 21.5496 24.4954C21.3481 24.9401 21.116 25.3561 20.5793 25.474C20.4409 25.5047 20.3768 25.605 20.401 25.7526C20.424 25.8917 20.523 25.8893 20.617 25.8869C20.629 25.8866 20.6409 25.8863 20.6526 25.8863C21.2246 25.8891 21.7975 25.8891 22.3695 25.8863C22.3763 25.8863 22.3831 25.8862 22.39 25.8862C22.505 25.886 22.6257 25.8857 22.6248 25.7052C22.6233 25.5546 22.533 25.537 22.4337 25.5177C22.4137 25.5138 22.3933 25.5098 22.3732 25.5047C21.8124 25.3608 21.7771 25.2874 21.986 24.7377C22.0075 24.6812 22.0328 24.6259 22.0582 24.5706C22.0974 24.485 22.1367 24.3994 22.1615 24.3097C22.2358 24.0432 22.3936 23.9475 22.6703 23.9577C22.7657 23.961 22.8613 23.9653 22.9571 23.9695C23.3736 23.988 23.7927 24.0066 24.1996 23.9485C24.8904 23.85 25.2377 24.137 25.4726 24.7516C25.4791 24.7685 25.4854 24.7849 25.4915 24.8008C25.6919 25.3238 25.6999 25.3447 25.1124 25.4889C25.0967 25.4928 25.0811 25.4963 25.0657 25.4998C24.9419 25.528 24.832 25.553 24.8552 25.7322C24.8753 25.8912 24.9875 25.8881 25.0927 25.8852C25.1085 25.8848 25.1241 25.8843 25.1393 25.8844C25.4661 25.8878 25.7924 25.8873 26.1185 25.8867ZM23.9992 21.7583C23.8867 21.5202 23.7704 21.2742 23.6482 21.017H23.6472C23.4002 21.5661 23.174 22.0686 22.9495 22.5674C22.8103 22.8765 22.6718 23.1842 22.5293 23.5008H24.5507C24.7327 23.5008 24.8107 23.4534 24.7132 23.2538C24.4775 22.7702 24.2474 22.2835 23.9992 21.7583Z" fill="#0D1853"/>
<path fill-rule="evenodd" clip-rule="evenodd" d="M49.1562 25.887C49.2881 25.8866 49.4201 25.8862 49.552 25.8862L49.5501 25.8844C49.7901 25.8839 50.0299 25.8839 50.2697 25.8839C50.5095 25.8839 50.7493 25.8839 50.9893 25.8834C51.1165 25.8834 51.2447 25.8834 51.2438 25.6987C51.2428 25.5557 51.162 25.5176 51.0367 25.5139C50.5864 25.5009 50.3561 25.213 50.1815 24.8398C49.9735 24.3934 49.7576 23.951 49.5418 23.5086C49.4801 23.3822 49.4185 23.2559 49.357 23.1294C49.2263 22.8606 49.0959 22.5917 48.9654 22.3228C48.5025 21.3687 48.0397 20.4149 47.5696 19.4645C47.5596 19.4445 47.549 19.4206 47.5377 19.395C47.466 19.2322 47.3634 18.9994 47.1749 19.2593C47.0875 19.3798 46.9562 19.4754 46.8242 19.5715C46.5301 19.7856 46.2324 20.0023 46.408 20.5035C46.4213 20.5421 46.3898 20.5977 46.3593 20.6518C46.3472 20.6733 46.3352 20.6945 46.3263 20.7143C46.0979 21.2221 45.8695 21.7295 45.641 22.2369C45.2925 23.0109 44.9441 23.7848 44.5964 24.5594C44.407 24.9809 44.1665 25.3467 43.6772 25.4665C43.5499 25.4972 43.4487 25.564 43.4682 25.7247C43.4884 25.8894 43.6022 25.8875 43.7131 25.8857C43.7247 25.8855 43.7363 25.8853 43.7477 25.8853C44.3048 25.8881 44.862 25.8871 45.4191 25.8853C45.4251 25.8852 45.4312 25.8852 45.4373 25.8852C45.555 25.8848 45.6727 25.8844 45.6754 25.7052C45.6777 25.5538 45.5889 25.5355 45.4883 25.5148C45.4692 25.5109 45.4497 25.5069 45.4302 25.5018C44.8601 25.3532 44.836 25.3003 45.0505 24.7386C45.0716 24.6839 45.0971 24.6304 45.1225 24.577C45.164 24.4898 45.2054 24.403 45.2278 24.3114C45.3021 24.0087 45.4952 23.9456 45.7784 23.9558C45.8535 23.9585 45.9286 23.9616 46.0039 23.9647C46.4401 23.9827 46.8795 24.0008 47.3086 23.9493C47.9456 23.8741 48.2938 24.1044 48.5222 24.6996C48.5308 24.7219 48.5391 24.7434 48.547 24.7642C48.7604 25.3191 48.7672 25.3368 48.1425 25.4916C48.1293 25.4948 48.1162 25.4978 48.1033 25.5007C47.9938 25.5255 47.8971 25.5474 47.9029 25.7052C47.9092 25.8957 48.0311 25.8906 48.1455 25.8858C48.166 25.8849 48.1863 25.8841 48.2056 25.8844C48.5228 25.889 48.8396 25.888 49.1562 25.887ZM47.1655 21.9371C47.0247 21.6421 46.88 21.339 46.7287 21.0226H46.7277C46.6475 21.2008 46.5691 21.375 46.492 21.5461C46.2208 22.1487 45.967 22.7125 45.711 23.2752C45.6096 23.4991 45.7519 23.499 45.898 23.499C45.9004 23.499 45.9027 23.499 45.9051 23.499C46.4743 23.4999 47.0444 23.4999 47.6145 23.4999C47.7733 23.4999 47.9023 23.4785 47.8011 23.2668C47.5919 22.8303 47.3833 22.3935 47.1655 21.9371Z" fill="#0D1853"/>
<path fill-rule="evenodd" clip-rule="evenodd" d="M26.3529 31.1306C26.3426 30.113 25.5961 29.411 24.5236 29.4128C23.506 29.4147 22.7437 30.178 22.7437 31.1947C22.7437 32.2161 23.4753 32.8781 24.5979 32.8716C25.624 32.8651 26.3621 32.1334 26.3529 31.1306ZM25.5266 31.8912C25.6064 31.6702 25.6306 31.4418 25.6315 31.2096L25.6306 31.2087C25.6287 30.7277 25.4969 30.322 25.2397 30.0035C24.7577 29.4064 24.0595 29.4575 23.7011 30.1353C23.3687 30.7658 23.4021 31.4158 23.7159 32.0435C23.9137 32.439 24.2229 32.7185 24.703 32.6665C25.1598 32.6173 25.3826 32.2895 25.5266 31.8912Z" fill="#0D1853"/>
<path fill-rule="evenodd" clip-rule="evenodd" d="M39.5356 6.03083L39.5286 6.04171L39.5276 6.04542C39.8043 6.12528 40.0151 6.08257 40.1823 5.98971C40.5285 5.79786 40.5413 5.96735 40.5619 6.24172L40.563 6.25527C40.6289 7.13831 40.9511 7.90342 41.6698 8.46518L41.6764 8.4704C41.9303 8.66909 42.1709 8.8575 42.3569 8.38254C42.4167 8.23035 42.5772 8.1418 42.7255 8.05997L42.7366 8.05384C43.5742 7.59329 44.4219 7.87742 44.9679 8.80502C45.655 8.12905 45.8472 7.38065 45.4935 6.67218C45.227 6.91174 44.9586 7.13459 44.5807 7.16338C43.6197 7.23673 42.8796 6.5459 42.8462 5.53102C42.8295 5.01011 42.9883 4.57277 43.4804 4.34064C43.9614 4.11408 44.3801 4.29793 44.7562 4.62013C44.7856 4.64512 44.815 4.67442 44.8445 4.70396C44.9205 4.77976 44.9979 4.85709 45.0821 4.86712C45.4517 4.91262 45.603 5.12246 45.6541 5.49388C45.7165 5.19244 45.856 4.93331 45.9941 4.6767C46.1065 4.46773 46.2181 4.26043 46.2864 4.0333C46.3026 3.98013 46.3085 3.92403 46.3144 3.86783C46.3166 3.8465 46.3189 3.82515 46.3217 3.80395C46.3579 3.53189 46.3198 3.37311 45.9633 3.4214C45.5603 3.47525 45.3412 3.26169 45.3477 2.81414C45.4191 2.83046 45.4863 2.8471 45.5508 2.86305C45.6806 2.89519 45.7993 2.92459 45.9197 2.9432C46.0803 2.96827 46.2651 2.9302 46.3208 2.77885C46.3799 2.61943 46.2442 2.55771 46.1255 2.50368C46.1025 2.49319 46.0801 2.483 46.0599 2.47244C45.4619 2.16138 44.8073 2.0416 44.1499 1.95246C43.927 1.92182 43.7961 1.85032 43.7023 1.63397C43.4683 1.09635 43.0338 0.859575 42.4507 0.851219C41.8165 0.842862 41.1832 0.813151 40.5509 0.780652C40.0402 0.754653 39.5694 0.647873 39.3131 0.122324C39.2268 -0.0559543 39.1135 -0.0290274 39.0095 0.136251C38.8545 0.382312 38.8749 0.644158 38.9584 0.919932C38.5183 0.930146 38.2361 0.718439 37.9584 0.491877C37.5657 0.171534 37.3084 0.233748 37.107 0.697085C36.7272 1.56805 37.0763 2.50772 37.9287 2.9367C37.9732 2.95937 38.0227 2.97403 38.0727 2.98881C38.1822 3.02123 38.2936 3.05418 38.3568 3.17348C37.7541 3.45111 37.0652 3.29419 36.652 2.79092C36.3846 2.46532 36.0825 2.43282 35.7457 2.69343C35.6362 2.77792 35.5275 2.86706 35.4291 2.96363C34.4514 3.92187 34.0632 5.14382 33.8775 6.45212C33.8653 6.53793 33.8557 6.62513 33.8462 6.71227C33.7808 7.30785 33.7157 7.90079 32.8125 8.02877C33.6593 8.53482 34.4319 8.61003 35.2425 8.3779C36.0624 8.14298 36.5276 7.52086 36.9194 6.70004C36.9528 8.21726 36.1218 8.80223 33.6992 9.05479C34.2944 9.5757 34.8822 10.0028 35.6445 10.0985C36.1636 10.1635 36.6251 10.0307 36.9779 9.61191C36.9934 9.59338 37.0072 9.56988 37.0213 9.54589C37.0636 9.47372 37.1085 9.39716 37.211 9.43828C37.353 9.49399 37.4013 9.63884 37.4032 9.78276C37.4078 10.0465 37.2397 10.1941 37.0345 10.3269C36.9912 10.3551 36.9392 10.3672 36.8866 10.3795C36.7906 10.4018 36.6928 10.4246 36.6418 10.5469C37.2852 10.8784 37.8479 10.6788 38.3633 10.2842C38.9601 9.82692 39.4641 9.27333 39.968 8.7198C40.0473 8.63264 40.1267 8.54547 40.2064 8.45868C40.3577 8.2934 40.3234 8.18197 40.2175 8.02134C40.0179 7.71864 39.8805 7.37601 39.9186 7.01667C39.952 6.7019 39.8396 6.66104 39.5704 6.6629C39.0708 6.66661 38.5694 6.63597 38.0652 6.37784C38.1237 6.34416 38.1818 6.31189 38.2391 6.28006C38.5942 6.08285 38.9181 5.90299 39.094 5.51523C38.4635 5.43909 38.0903 5.08625 37.8888 4.53749L37.8809 4.51667C37.8361 4.39892 37.771 4.2279 38.0169 4.26729C38.6994 4.37778 39.3057 4.18093 39.9538 3.75474C39.7254 4.30721 39.3605 4.57927 38.9018 4.85783C38.9726 4.87488 39.0331 4.88799 39.0866 4.89958L39.0867 4.89959C39.1846 4.92082 39.259 4.93693 39.3299 4.96276C39.4045 4.99007 39.4945 4.97645 39.5826 4.96312C39.7313 4.94063 39.8747 4.91893 39.9306 5.09554C40.003 5.32303 39.8406 5.57002 39.7003 5.77894C39.6527 5.85083 39.606 5.92273 39.5356 6.03083ZM42.5843 2.68233C42.7951 2.5087 43.0059 2.46134 43.2956 2.4632C43.0486 1.96551 42.744 1.82437 42.0783 1.84201C41.8415 1.84851 41.5453 1.85966 41.4599 2.06208C41.4117 2.17595 41.5521 2.27796 41.6857 2.37495C41.735 2.41082 41.7835 2.446 41.8211 2.48084L41.8272 2.48655C42.0387 2.68328 42.2946 2.92144 42.5843 2.68233ZM38.3162 2.29613L38.3161 2.29604C38.6332 2.26067 38.8771 2.15571 39.0506 1.90801C39.1964 1.70094 39.1955 1.58488 38.8993 1.55702C38.5334 1.52267 38.2391 1.32396 37.9577 1.09926C37.9328 1.07942 37.9104 1.04758 37.8876 1.01501L37.8876 1.01501C37.828 0.930188 37.7651 0.840456 37.643 0.945119C37.5315 1.03983 37.5789 1.20139 37.6281 1.33603C37.6876 1.49813 37.8099 1.60695 37.9332 1.7167L37.9447 1.72694C37.9616 1.74202 37.981 1.75721 38.001 1.77277C38.0866 1.83963 38.1815 1.91364 38.1174 2.01757C37.9619 2.26863 38.0836 2.27072 38.1966 2.27266C38.2461 2.27351 38.2939 2.27433 38.3161 2.29604L38.3152 2.29613H38.3162ZM42.7928 7.12624C42.7931 7.12625 42.7934 7.12627 42.7937 7.12629H42.7928C42.7928 7.12627 42.7928 7.12626 42.7928 7.12624ZM42.7928 7.12624C41.9878 6.04731 41.985 5.09464 42.7826 4.00085C42.1289 4.05007 41.6544 4.72604 41.6693 5.58957C41.6841 6.44246 42.1572 7.08942 42.7928 7.12624Z" fill="#0D1853"/>
</svg>
