<svg width="80" height="45" viewBox="0 0 80 45" fill="none" xmlns="http://www.w3.org/2000/svg">
<g clip-path="url(#clip0_1311_43777)">
<path d="M15.3318 41.7127H15.9063C16.3399 41.7127 16.6456 41.6584 16.8222 41.5502C16.9992 41.441 17.1213 41.2432 17.1903 40.9559C17.2553 40.6842 17.2309 40.4967 17.1158 40.3942C17.0008 40.2906 16.7336 40.2393 16.3144 40.2393H16.1624C15.9346 40.2393 15.7943 40.2552 15.7415 40.2869C15.6888 40.3186 15.6463 40.3998 15.6152 40.5294L15.6093 40.5537L15.3318 41.7127ZM15.2833 41.9152L14.9245 43.4127C14.8856 43.5752 14.8887 43.6767 14.9353 43.7168C14.9818 43.7571 15.1378 43.7765 15.4052 43.7765C15.863 43.7765 16.1956 43.7113 16.4028 43.5817C16.6102 43.451 16.7528 43.2233 16.8304 42.8995C16.9205 42.5235 16.877 42.2641 16.701 42.1213C16.5249 41.9784 16.1537 41.9066 15.5881 41.9066C15.5067 41.9066 15.4451 41.9066 15.404 41.9075C15.363 41.9086 15.3227 41.9113 15.2833 41.9152ZM13.2131 43.9735L13.2531 43.8064H13.5624C13.69 43.8064 13.7826 43.783 13.8422 43.7364C13.9015 43.6907 13.9463 43.6049 13.9758 43.4816L14.6845 40.5239C14.7143 40.3997 14.7104 40.3149 14.673 40.269C14.6355 40.2232 14.5539 40.201 14.4263 40.201H14.1171L14.1537 40.048H16.8533C17.4123 40.048 17.8002 40.1199 18.0169 40.2626C18.2348 40.4052 18.3056 40.633 18.2309 40.9447C18.1645 41.2217 18.0002 41.4299 17.738 41.5689C17.4756 41.7089 17.0931 41.7892 16.5894 41.8107C17.1106 41.8311 17.483 41.9348 17.7079 42.1214C17.9328 42.308 18.0047 42.5729 17.9227 42.9154C17.8365 43.2747 17.6199 43.5406 17.2723 43.7141C16.9239 43.8867 16.4332 43.9736 15.7994 43.9736H13.2131V43.9735ZM19.884 43.4808C19.8542 43.605 19.8581 43.6898 19.8954 43.7364C19.9327 43.783 20.0151 43.8064 20.1449 43.8064H20.4476L20.4076 43.9735H18.1955L18.2355 43.8064H18.5382C18.6659 43.8064 18.7585 43.783 18.8181 43.7364C18.8776 43.6898 18.9222 43.6049 18.9519 43.4808L19.6604 40.524C19.6901 40.3998 19.6863 40.315 19.6489 40.2691C19.6114 40.2234 19.5298 40.2012 19.4022 40.2012H19.0995L19.1362 40.0481H21.3482L21.3115 40.2012H21.0089C20.879 40.2012 20.7856 40.2235 20.7262 40.2691C20.6669 40.315 20.6223 40.3998 20.5926 40.524L19.884 43.4808ZM20.7348 43.9735L20.7748 43.8064H21.084C21.2117 43.8064 21.3043 43.783 21.3638 43.7364C21.4232 43.6907 21.468 43.6049 21.4975 43.4816L22.2065 40.5228C22.2359 40.3997 22.2321 40.3149 22.1946 40.269C22.1572 40.2232 22.0755 40.201 21.948 40.201H21.6387L21.6754 40.048H25.8287L25.662 41.2124H25.3978C25.4077 40.8588 25.2942 40.6068 25.0592 40.4576C24.8242 40.3083 24.4129 40.2336 23.8242 40.2336C23.5545 40.2336 23.381 40.2504 23.3026 40.2839C23.223 40.3175 23.1636 40.4182 23.1234 40.5863L23.1091 40.646L22.8582 41.6929H23.0837C23.4844 41.6929 23.789 41.634 23.9984 41.5175C24.208 41.4008 24.3529 41.2096 24.4342 40.9436H24.6949L24.2868 42.6475L24.0233 42.6447C24.0672 42.3788 24.0139 42.1875 23.8615 42.071C23.7078 41.9543 23.4336 41.8955 23.0351 41.8955H22.8096L22.4551 43.3744C22.4104 43.561 22.4269 43.6758 22.5043 43.7205C22.5816 43.7653 22.7523 43.7878 23.0176 43.7878C23.5182 43.7878 23.9439 43.6974 24.2951 43.5173C24.6477 43.3362 24.9091 43.0722 25.0805 42.7241H25.338L24.9066 43.9736H20.7348V43.9735ZM23.9709 38.8864L24.6677 39.6524H24.3739L23.4722 39.2035C23.3653 39.1495 23.2965 39.101 23.2658 39.0589C23.2352 39.017 23.2264 38.9665 23.2402 38.9087C23.2577 38.8359 23.2984 38.7762 23.3632 38.7304C23.4281 38.6847 23.5039 38.6624 23.5897 38.6624C23.6536 38.6624 23.7154 38.6801 23.7753 38.7147C23.8342 38.7491 23.8998 38.8061 23.9709 38.8864ZM27.6908 41.7676H28.3587C28.6977 41.7676 28.9643 41.7023 29.1573 41.5717C29.3501 41.4421 29.4801 41.2395 29.5456 40.9661C29.6106 40.6946 29.5812 40.5053 29.4565 40.396C29.3317 40.2879 29.0662 40.2337 28.658 40.2337C28.3993 40.2337 28.2316 40.2495 28.1537 40.2803C28.0749 40.3111 28.019 40.397 27.9856 40.5369L27.975 40.5808L27.6908 41.7676ZM27.6408 41.9757L27.28 43.4818C27.2508 43.604 27.256 43.688 27.2952 43.7355C27.3344 43.7831 27.4179 43.8065 27.5479 43.8065H27.8505L27.8105 43.9736H25.5918L25.6318 43.8065H25.9411C26.0687 43.8065 26.1613 43.7831 26.2208 43.7365C26.2801 43.6908 26.3247 43.6059 26.3545 43.4818L27.0632 40.524C27.093 40.3998 27.0891 40.315 27.0516 40.2691C27.0141 40.2234 26.9325 40.2012 26.8049 40.2012H26.4956L26.5324 40.0481H28.9535C29.6093 40.0481 30.0686 40.12 30.3317 40.2627C30.5957 40.4054 30.6901 40.6313 30.6164 40.9392C30.5456 41.2349 30.373 41.4542 30.099 41.5969C29.826 41.7397 29.405 41.8293 28.8377 41.8639C29.2753 41.9021 29.5752 41.987 29.7361 42.1195C29.896 42.251 29.9615 42.46 29.9314 42.7464C29.9211 42.8538 29.8957 42.9966 29.855 43.1757C29.7859 43.5013 29.8304 43.6646 29.9887 43.6646C30.0768 43.6646 30.1486 43.6311 30.202 43.5648C30.2553 43.4985 30.3013 43.3847 30.3395 43.2252L30.3506 43.1786H30.6027L30.5772 43.285C30.5126 43.5545 30.396 43.7524 30.2275 43.8765C30.0589 44.0015 29.8238 44.0641 29.5234 44.0641C29.2196 44.0641 29.013 43.9847 28.9013 43.8262C28.7897 43.6676 28.7723 43.4277 28.849 43.1077C28.8526 43.0927 28.8653 43.0443 28.8872 42.9621C28.9089 42.881 28.9282 42.8044 28.9448 42.7354C29.0163 42.4368 28.9801 42.2344 28.8369 42.1289C28.6938 42.0235 28.3841 41.9703 27.9065 41.9703C27.879 41.9703 27.8359 41.9712 27.7782 41.973C27.7214 41.9749 27.6749 41.9757 27.6408 41.9757ZM30.7326 43.9735L30.7726 43.8064H31.0819C31.2095 43.8064 31.3021 43.783 31.3617 43.7364C31.421 43.6907 31.4659 43.6049 31.4953 43.4816L32.2042 40.5228C32.2338 40.3997 32.2299 40.3149 32.1924 40.269C32.1549 40.2232 32.0733 40.201 31.9457 40.201H31.6365L31.6731 40.048H35.8265L35.6598 41.2124H35.3956C35.4056 40.8588 35.2919 40.6068 35.0571 40.4576C34.8221 40.3083 34.4108 40.2336 33.822 40.2336C33.5524 40.2336 33.3789 40.2504 33.3004 40.2839C33.2208 40.3175 33.1615 40.4182 33.1212 40.5863L33.1069 40.646L32.856 41.6929H33.0816C33.4821 41.6929 33.7867 41.634 33.9963 41.5175C34.2058 41.4008 34.3507 41.2096 34.432 40.9436H34.6929L34.2847 42.6475L34.0212 42.6447C34.0651 42.3788 34.0119 42.1875 33.8594 42.071C33.7058 41.9543 33.4315 41.8955 33.0332 41.8955H32.8076L32.4531 43.3744C32.4084 43.561 32.425 43.6758 32.5023 43.7205C32.5796 43.7653 32.7503 43.7878 33.0155 43.7878C33.5162 43.7878 33.9418 43.6974 34.2931 43.5173C34.6457 43.3362 34.9071 43.0722 35.0785 42.7241H35.336L34.9046 43.9736H30.7326V43.9735ZM41.0656 41.7127H41.64C42.0737 41.7127 42.3793 41.6584 42.556 41.5502C42.7329 41.441 42.8551 41.2432 42.9241 40.9559C42.9891 40.6842 42.9647 40.4967 42.8495 40.3942C42.7346 40.2906 42.4674 40.2393 42.0481 40.2393H41.8963C41.6684 40.2393 41.5282 40.2552 41.4754 40.2869C41.4226 40.3186 41.3801 40.3998 41.349 40.5294L41.3432 40.5537L41.0656 41.7127ZM41.0171 41.9152L40.6582 43.4127C40.6193 43.5752 40.6224 43.6767 40.669 43.7168C40.7155 43.7571 40.8715 43.7765 41.139 43.7765C41.5967 43.7765 41.9293 43.7113 42.1364 43.5817C42.3437 43.451 42.4864 43.2233 42.564 42.8995C42.654 42.5235 42.6106 42.2641 42.4346 42.1213C42.2587 41.9784 41.8873 41.9066 41.3217 41.9066C41.2402 41.9066 41.1787 41.9066 41.1376 41.9075C41.0968 41.9086 41.0564 41.9113 41.0171 41.9152ZM38.9469 43.9735L38.9869 43.8064H39.2961C39.4238 43.8064 39.5164 43.783 39.5758 43.7364C39.6352 43.6907 39.68 43.6049 39.7095 43.4816L40.4182 40.5239C40.4479 40.3997 40.4441 40.3149 40.4067 40.269C40.3692 40.2232 40.2876 40.201 40.16 40.201H39.8508L39.8875 40.048H42.587C43.1461 40.048 43.5339 40.1199 43.7505 40.2626C43.9683 40.4052 44.0392 40.633 43.9646 40.9447C43.8982 41.2217 43.7339 41.4299 43.4717 41.5689C43.2092 41.7089 42.8268 41.7892 42.3231 41.8107C42.8443 41.8311 43.2167 41.9348 43.4416 42.1214C43.6665 42.308 43.7385 42.5729 43.6564 42.9154C43.5704 43.2747 43.3536 43.5406 43.0061 43.7141C42.6577 43.8867 42.167 43.9736 41.5331 43.9736H38.9469V43.9735ZM43.9226 43.9735L43.9627 43.8064H44.2719C44.3996 43.8064 44.4921 43.783 44.5517 43.7364C44.611 43.6907 44.6558 43.6049 44.6853 43.4816L45.3943 40.5228C45.4238 40.3997 45.4199 40.3149 45.3825 40.269C45.3451 40.2232 45.2635 40.201 45.1359 40.201H44.8266L44.8634 40.048H49.0167L48.85 41.2124H48.5859C48.5957 40.8588 48.4822 40.6068 48.2473 40.4576C48.0123 40.3083 47.601 40.2336 47.0122 40.2336C46.7426 40.2336 46.5691 40.2504 46.4907 40.2839C46.4111 40.3175 46.3517 40.4182 46.3115 40.5863L46.2972 40.646L46.0463 41.6929H46.2718C46.6724 41.6929 46.977 41.634 47.1865 41.5175C47.3961 41.4008 47.541 41.2096 47.6223 40.9436H47.8831L47.4748 42.6475L47.2113 42.6447C47.2552 42.3788 47.202 42.1875 47.0494 42.071C46.8958 41.9543 46.6216 41.8955 46.2232 41.8955H45.9976L45.6432 43.3744C45.5985 43.561 45.615 43.6758 45.6924 43.7205C45.7697 43.7653 45.9404 43.7878 46.2056 43.7878C46.7063 43.7878 47.132 43.6974 47.4832 43.5173C47.8358 43.3362 48.0971 43.0722 48.2686 42.7241H48.5261L48.0947 43.9736H43.9226V43.9735ZM48.7797 43.9735L48.8197 43.8064H49.1289C49.2566 43.8064 49.3492 43.783 49.4086 43.7364C49.468 43.6907 49.5129 43.6049 49.5424 43.4816L50.2513 40.5228C50.2807 40.3997 50.2769 40.3149 50.2395 40.269C50.2021 40.2232 50.1204 40.201 49.9929 40.201H49.6836L49.7203 40.048H53.8737L53.7069 41.2124H53.4429C53.4527 40.8588 53.3392 40.6068 53.1042 40.4576C52.8694 40.3083 52.458 40.2336 51.8693 40.2336C51.5996 40.2336 51.4261 40.2504 51.3476 40.2839C51.268 40.3175 51.2087 40.4182 51.1684 40.5863L51.1541 40.646L50.9033 41.6929H51.1288C51.5294 41.6929 51.834 41.634 52.0434 41.5175C52.2531 41.4008 52.3979 41.2096 52.4793 40.9436H52.74L52.3318 42.6475L52.0684 42.6447C52.1122 42.3788 52.059 42.1875 51.9065 42.071C51.7528 41.9543 51.4786 41.8955 51.0801 41.8955H50.8546L50.5002 43.3744C50.4555 43.561 50.472 43.6758 50.5493 43.7205C50.6266 43.7653 50.7974 43.7878 51.0627 43.7878C51.5633 43.7878 51.989 43.6974 52.3402 43.5173C52.6928 43.3362 52.9541 43.0722 53.1256 42.7241H53.3832L52.9517 43.9736H48.7797V43.9735ZM55.7356 41.7676H56.4036C56.7425 41.7676 57.0091 41.7023 57.2022 41.5717C57.395 41.4421 57.525 41.2395 57.5905 40.9661C57.6556 40.6946 57.6262 40.5053 57.5014 40.396C57.3766 40.2879 57.111 40.2337 56.7029 40.2337C56.4442 40.2337 56.2764 40.2495 56.1986 40.2803C56.1198 40.3111 56.064 40.397 56.0305 40.5369L56.02 40.5808L55.7356 41.7676ZM55.6857 41.9757L55.3249 43.4818C55.2956 43.604 55.3008 43.688 55.3401 43.7355C55.3792 43.7831 55.4628 43.8065 55.5926 43.8065H55.8953L55.8553 43.9736H53.6366L53.6766 43.8065H53.9859C54.1136 43.8065 54.2061 43.7831 54.2657 43.7365C54.325 43.6908 54.3696 43.6059 54.3993 43.4818L55.108 40.524C55.1379 40.3998 55.1339 40.315 55.0965 40.2691C55.059 40.2234 54.9774 40.2012 54.8499 40.2012H54.5406L54.5774 40.0481H56.9984C57.6543 40.0481 58.1136 40.12 58.3766 40.2627C58.6406 40.4054 58.735 40.6313 58.6613 40.9392C58.5904 41.2349 58.418 41.4542 58.1439 41.5969C57.8709 41.7397 57.4499 41.8293 56.8826 41.8639C57.3203 41.9021 57.6201 41.987 57.7809 42.1195C57.9408 42.251 58.0064 42.46 57.9762 42.7464C57.966 42.8538 57.9405 42.9966 57.8999 43.1757C57.8307 43.5013 57.8752 43.6646 58.0336 43.6646C58.1217 43.6646 58.1935 43.6311 58.2468 43.5648C58.3001 43.4985 58.3461 43.3847 58.3843 43.2252L58.3954 43.1786H58.6474L58.6219 43.285C58.5573 43.5545 58.4407 43.7524 58.2722 43.8765C58.1036 44.0015 57.8686 44.0641 57.568 44.0641C57.2643 44.0641 57.0576 43.9847 56.946 43.8262C56.8344 43.6676 56.817 43.4277 56.8937 43.1077C56.8972 43.0927 56.9099 43.0443 56.9318 42.9621C56.9535 42.881 56.9729 42.8044 56.9895 42.7354C57.061 42.4368 57.0249 42.2344 56.8817 42.1289C56.7386 42.0235 56.4289 41.9703 55.9512 41.9703C55.9084 41.9706 55.8656 41.9715 55.8228 41.973C55.7663 41.9749 55.7199 41.9757 55.6857 41.9757ZM37.8755 41.4124C38.2108 41.4124 38.4294 41.6845 38.3622 42.0178C38.295 42.3512 37.9669 42.6231 37.6315 42.6231C37.2962 42.6231 37.0777 42.3511 37.1449 42.0178C37.2122 41.6845 37.5403 41.4124 37.8755 41.4124Z" fill="#0D1853"/>
<path fill-rule="evenodd" clip-rule="evenodd" d="M79.9919 43.5778L30.2546 30.8905L0.0078125 43.6697V0L30.2546 12.7792L79.9919 0.0921517V43.5778ZM54.0831 18.8419C54.8638 18.8419 55.672 18.1828 55.8822 17.3748C56.0922 16.5667 55.6267 15.9076 54.846 15.9076C54.0652 15.9076 53.2571 16.5666 53.0469 17.3748C52.8369 18.1828 53.3023 18.8419 54.0831 18.8419ZM21.3412 25.655L23.376 19.6321H19.8924L19.5017 20.7879H19.8436C20.0715 20.7933 20.3157 20.9289 20.2018 21.4716L19.1499 24.5009C18.5546 26.1382 17.8947 26.1543 17.2715 26.1598C16.658 26.1307 16.6793 25.5806 16.7981 25.177L18.6715 19.6321H15.1879L14.7972 20.7879H15.139C15.3669 20.7933 15.6111 20.9289 15.4971 21.4716L14.0924 25.5175C13.7956 26.3719 14.1498 27.8449 15.6436 27.8852C16.7743 27.9285 17.7134 27.434 18.3123 26.9128L18.2969 26.9573L18.3132 27.5434H21.6339L22.0084 26.4202L21.612 26.3803C21.1687 26.2461 21.2442 25.8887 21.3412 25.655ZM33.1341 15.536L29.6776 25.655C29.5806 25.8886 29.5052 26.246 29.9486 26.3802L30.345 26.4201L29.9705 27.5433H27.0729L27.0576 27.0602C26.3334 27.7001 25.4436 27.8912 24.624 27.8436C22.1061 27.8017 22.0642 24.9248 22.6144 23.3399C23.6491 20.3553 25.8322 19.2907 27.6564 19.3386C28.2195 19.3485 28.7592 19.4408 29.1023 19.8461L29.9599 17.3755C30.0738 16.8328 29.8296 16.6971 29.6018 16.6918H29.2599L29.6505 15.536H33.1341ZM25.7903 26.2289C26.6934 26.1152 27.3991 25.212 27.8178 24.0756C28.8227 21.3004 28.2126 20.7143 27.5487 20.7383C26.7358 20.7898 26.0359 21.5308 25.2699 23.3041C24.911 24.3567 24.5881 26.2527 25.7903 26.2289ZM14.9889 18.387C14.7738 19.5694 13.9594 20.8064 12.0944 20.9796C13.4724 21.4682 14.2472 22.4427 13.9539 23.9283C13.6997 25.619 12.2143 27.4563 9.67324 27.5933H2.45557L2.83548 26.4704H3.48683C4.15796 26.4589 4.31933 25.9415 4.39578 25.6581L7.18127 17.4781C7.34746 16.9698 7.22033 16.7255 6.8001 16.6864H6.14551L6.53234 15.5429H12.0189C13.8204 15.5233 15.4189 16.1488 14.9889 18.387ZM8.22353 26.4296C9.78393 26.498 10.5436 25.6219 10.9953 24.2941C11.6523 22.2681 10.6462 21.6796 9.7633 21.6044L8.42867 21.6249L6.80659 26.4296H8.22353ZM8.83194 20.4002H10.3126C11.3782 20.4135 12.0641 19.4179 12.3204 18.5821C12.72 17.2435 12.0707 16.6742 11.3514 16.6942H10.094L8.83194 20.4002ZM43.9484 20.7023L44.2894 19.554H41.5751L41.1751 20.7562H41.4365C41.6935 20.7442 41.8252 20.9297 41.6518 21.3124L39.1756 25.0445L39.5525 21.1508C39.642 20.8219 39.9109 20.7262 40.144 20.7561H40.3317L40.7318 19.5539H36.8561L36.456 20.7561H36.6814C36.9386 20.7441 37.0701 20.9296 36.8968 21.3123L34.4207 25.0444L34.7976 21.1507C34.8871 20.8218 35.1561 20.7261 35.3892 20.756H35.6128L36.0129 19.5538H32.0703L31.7114 20.7201H32.0703C32.2735 20.7261 32.459 20.8576 32.4113 21.2764L31.9986 27.5386H34.0789L36.9509 23.2143L36.7216 27.5386H38.853L42.9261 21.2405C43.1411 20.9057 43.3744 20.6606 43.9484 20.7023ZM76.9455 19.2468C76.1217 19.2663 75.0289 19.9098 74.3275 20.8104L74.7598 19.5308H71.2761L70.8855 20.6865H71.2274C71.4553 20.6919 71.6996 20.8276 71.5856 21.3701L70.1271 25.5711C69.9811 25.9105 69.7868 26.3306 68.9888 26.2736L68.667 27.4419H73.018L73.3925 26.3187L72.9961 26.2788C72.5527 26.1446 72.6281 25.7872 72.725 25.5536L73.336 23.745L73.328 23.7747L73.3326 23.7618L73.3326 23.7617C73.7175 22.6962 74.092 21.6594 74.9613 21.2999C75.0192 21.8744 75.462 22.4288 76.229 22.416C77.1445 22.3841 78.1412 21.4408 78.1859 20.6796C78.2383 19.8175 77.7843 19.279 76.9455 19.2468ZM68.0812 24.7188C67.5112 25.6359 66.7179 26.3671 65.59 26.3547C63.9727 26.299 64.2329 24.6815 64.5862 23.7892H69.6057C70.746 20.604 68.6885 19.2407 67.1145 19.2532C65.0076 19.2345 62.6963 20.6102 61.9649 23.7706C61.5497 25.4313 62.2314 27.8544 65.1811 27.9164C67.0092 27.9039 68.5956 26.6459 69.2153 25.2578L68.0812 24.7188ZM66.8728 20.4801C67.4739 20.4801 67.7403 21.0564 67.6165 21.8186L67.6054 21.8573C67.5093 22.19 67.3984 22.5741 66.8915 22.5622H65.051C65.3299 21.3848 66.1107 20.5049 66.8728 20.4801ZM61.7011 22.023L62.5749 19.5692H61.496L61.2549 19.9039C60.8026 19.4391 59.997 19.309 59.1727 19.2903C57.8219 19.2903 56.0247 19.941 55.7335 21.9116C55.6034 22.8907 56.1797 23.9626 57.4624 24.4398C57.5631 24.4825 57.6711 24.5252 57.7818 24.569C58.427 24.824 59.1673 25.1167 59.1357 25.6668C59.0798 26.3113 58.392 26.6398 57.7972 26.6522C56.378 26.7203 56.0372 25.6173 56.2727 24.7188H55.0271L54.0231 27.5445H55.1016L55.3803 27.1726C56.0681 27.6374 56.7559 27.8791 57.6669 27.8419C59.904 27.9597 61.1929 26.3671 61.4222 24.9604C61.6267 23.5412 60.4184 22.8843 59.3586 22.432C59.2961 22.3972 59.231 22.3621 59.1649 22.3263L59.1646 22.3262C58.5814 22.0112 57.9089 21.648 58.0758 21.0749C58.2246 20.6039 58.6708 20.4119 59.2471 20.3684C59.9783 20.3747 60.7282 20.6039 60.5485 22.023H61.7011ZM46.1594 26.3547C47.2872 26.367 48.0805 25.6359 48.6506 24.7188L49.7845 25.2577C49.1649 26.6459 47.5785 27.9039 45.7505 27.9163C42.8007 27.8543 42.1191 25.4313 42.5343 23.7705C43.2655 20.6102 45.577 19.2345 47.6839 19.2531C49.2579 19.2407 51.3153 20.604 50.175 23.7892H45.1555C44.8023 24.6815 44.542 26.299 46.1594 26.3547ZM48.1858 21.8186C48.3097 21.0564 48.0433 20.4801 47.4422 20.4801C46.6799 20.5049 45.8991 21.3848 45.6204 22.5622H47.4607C47.9679 22.5741 48.0787 22.1898 48.1747 21.857C48.1784 21.8441 48.1821 21.8313 48.1858 21.8186ZM55.2478 19.6321L53.2129 25.655C53.1159 25.8887 53.0406 26.2461 53.4841 26.3802L53.8805 26.4201L53.506 27.5433H49.155L49.4768 26.3751C50.2748 26.4319 50.469 26.0118 50.615 25.6725L52.0736 21.4716C52.1875 20.9289 51.9434 20.7933 51.7153 20.7879H51.3735L51.7641 19.6321H55.2478Z" fill="#0D1853"/>
</g>
<defs>
<clipPath id="clip0_1311_43777">
<rect width="80" height="44.064" fill="white"/>
</clipPath>
</defs>
</svg>
