<svg width="80" height="32" viewBox="0 0 80 32" fill="none" xmlns="http://www.w3.org/2000/svg">
<g clip-path="url(#clip0_1311_45381)">
<path fill-rule="evenodd" clip-rule="evenodd" d="M33.1862 9.35569C34.8838 9.99282 35.9956 11.0533 35.9956 11.0533C36.0212 10.5487 36.1538 10.0185 36.3419 9.54384C36.3419 9.54384 35.8117 8.5347 34.221 7.44859C32.4978 6.28124 30.5351 5.96481 30.5351 5.96481C30.1374 6.81146 29.8723 7.73936 29.7141 8.72284C29.7141 8.72284 31.1466 8.56463 33.1862 9.35997V9.35569Z" fill="#0D1853"/>
<path fill-rule="evenodd" clip-rule="evenodd" d="M34.4049 5.93913C36.0212 7.50415 36.607 9.0649 36.607 9.0649C36.8978 8.58599 37.2955 8.16266 37.7487 7.84623C37.7487 7.84623 37.1672 5.99044 36.1837 4.58791C35.2302 3.21103 33.6651 2.06934 33.6651 2.06934C32.8954 2.65087 32.207 3.34359 31.6511 4.109C31.6511 4.109 33.2418 4.79743 34.4092 5.93913H34.4049Z" fill="#0D1853"/>
<path fill-rule="evenodd" clip-rule="evenodd" d="M37.2442 4.00223C37.9582 5.85802 38.1464 7.60691 38.1464 7.60691C38.6253 7.36746 39.2582 7.18359 39.8183 7.128C39.8183 7.128 39.844 5.32352 39.4463 3.49766C38.9973 1.3511 38.4671 -0.00012207 38.4671 -0.00012207C37.5135 0.158091 36.6113 0.423204 35.7646 0.820873C35.7646 0.820873 36.7439 2.72798 37.2484 4.00223H37.2442Z" fill="#0D1853"/>
<path fill-rule="evenodd" clip-rule="evenodd" d="M46.8391 9.35569C45.1672 9.99282 44.0298 11.0533 44.0298 11.0533C44.0298 10.5487 43.8972 10.0185 43.7134 9.54384C43.7134 9.54384 44.2436 8.5347 45.8343 7.44859C47.5575 6.28124 49.4903 5.96481 49.4903 5.96481C49.8879 6.81146 50.1787 7.73936 50.3113 8.72284C50.3113 8.72284 48.8788 8.56463 46.8391 9.35997V9.35569Z" fill="#0D1853"/>
<path fill-rule="evenodd" clip-rule="evenodd" d="M45.6466 5.93913C44.0303 7.50415 43.4445 9.0649 43.4445 9.0649C43.1537 8.58599 42.756 8.16266 42.2771 7.84623C42.2771 7.84623 42.8886 5.99044 43.8421 4.58791C44.8213 3.21103 46.3864 2.06934 46.3864 2.06934C47.156 2.65087 47.8188 3.34359 48.4004 4.109C48.4004 4.109 46.8097 4.79743 45.6423 5.93913H45.6466Z" fill="#0D1853"/>
<path fill-rule="evenodd" clip-rule="evenodd" d="M42.8071 4.00223C42.0631 5.85802 41.8792 7.60691 41.8792 7.60691C41.4003 7.36746 40.7931 7.18359 40.2372 7.128C40.2372 7.128 40.2115 5.32352 40.5836 3.49766C41.0625 1.3511 41.5927 -0.00012207 41.5927 -0.00012207C42.5462 0.158091 43.4485 0.423204 44.2951 0.820873C44.2951 0.820873 43.3159 2.72798 42.8114 4.00223H42.8071Z" fill="#0D1853"/>
<path fill-rule="evenodd" clip-rule="evenodd" d="M34.5931 15.6671C36.6071 14.7135 38.6211 14.9231 38.6211 14.9231C37.907 14.6323 37.2956 14.179 36.8466 13.5975C36.8466 13.5975 35.0421 13.3837 33.6652 13.6488C31.57 14.0721 30.6421 14.7905 30.6421 14.7905C31.0654 15.6671 31.6213 16.4624 32.2584 17.1765C32.2584 17.1765 33.1051 16.3812 34.5889 15.6671H34.5931Z" fill="#0D1853"/>
<path fill-rule="evenodd" clip-rule="evenodd" d="M33.0282 12.644C35.0978 12.5371 36.5004 13.0674 36.5004 13.0674C36.2352 12.6184 36.077 12.1138 36.0214 11.5579C36.0214 11.5579 34.4051 10.63 32.8957 10.4462C30.8261 10.1554 29.6074 10.5531 29.6074 10.5531C29.6331 11.5323 29.7913 12.4858 30.0863 13.3881C30.0863 13.3881 31.4119 12.7253 33.0282 12.644Z" fill="#0D1853"/>
<path fill-rule="evenodd" clip-rule="evenodd" d="M40.0275 17.2278C42.9437 17.2278 44.2436 19.7721 44.2436 19.7721C45.1458 19.3744 45.9925 18.8442 46.7622 18.207C46.7622 18.207 44.2693 15.0813 40.0275 15.0813C35.7856 15.0813 33.2927 18.207 33.2927 18.207C34.0624 18.8442 34.8834 19.3744 35.8113 19.7721C35.8113 19.7721 37.0856 17.2278 40.0275 17.2278Z" fill="#0D1853"/>
<path fill-rule="evenodd" clip-rule="evenodd" d="M45.4328 15.6671C43.4444 14.7135 41.4048 14.9231 41.4048 14.9231C42.1189 14.6323 42.756 14.179 43.2093 13.5975C43.2093 13.5975 45.0095 13.3837 46.3906 13.6488C48.4859 14.0721 49.4138 14.7905 49.4138 14.7905C48.9904 15.6671 48.4346 16.4624 47.7974 17.1765C47.7974 17.1765 46.9208 16.3812 45.4371 15.6671H45.4328Z" fill="#0D1853"/>
<path fill-rule="evenodd" clip-rule="evenodd" d="M46.9982 12.644C44.9586 12.5371 43.5518 13.0674 43.5518 13.0674C43.7912 12.6184 43.9751 12.1138 44.0307 11.5579C44.0307 11.5579 45.647 10.63 47.1564 10.4462C49.2218 10.1554 50.4447 10.5531 50.4447 10.5531C50.419 11.5323 50.2309 12.4858 49.9658 13.3881C49.9658 13.3881 48.6402 12.7253 46.9982 12.644Z" fill="#0D1853"/>
<path fill-rule="evenodd" clip-rule="evenodd" d="M1.9071 26.9045V23.4323H3.39088C3.92111 23.4323 4.34443 23.4837 4.76776 23.83C5.16543 24.1464 5.43054 24.651 5.43054 25.1556C5.43054 25.7115 5.21674 26.1647 4.79342 26.5325C4.37009 26.8745 3.91683 26.9045 3.38661 26.9045H1.90283H1.9071ZM1.9071 27.6742H3.47213C4.24181 27.6742 4.87894 27.5672 5.46047 27.0114C5.9907 26.5068 6.28147 25.8697 6.28147 25.1556C6.28147 24.3859 5.90946 23.6461 5.32792 23.1929C4.74638 22.7696 4.0836 22.6627 3.39088 22.6627H0V23.4323H1.06045V30.1671H0V30.9368H2.9419V30.1671H1.9071V27.6742Z" fill="#0D1853"/>
<path fill-rule="evenodd" clip-rule="evenodd" d="M7.13248 27.5417C7.29069 26.4 8.32548 25.4464 9.49284 25.4464C10.7372 25.4464 11.8275 26.323 11.9858 27.5673L7.13675 27.5417H7.13248ZM11.6394 29.2393C11.1904 30.0089 10.4207 30.4323 9.51849 30.4323C8.27417 30.4323 7.21372 29.4231 7.13248 28.1788H12.6999V27.9393C12.6999 26.1648 11.323 24.758 9.51849 24.758C7.71401 24.758 6.36279 26.2418 6.36279 27.965C6.36279 29.6882 7.79526 31.0951 9.54415 31.0951C10.8184 31.0951 11.9302 30.381 12.4604 29.2393H11.6394Z" fill="#0D1853"/>
<path fill-rule="evenodd" clip-rule="evenodd" d="M14.8976 26.0835C15.1884 25.2368 15.9837 24.8905 16.8603 24.8648V25.5789C15.5091 25.6858 14.8976 26.4811 14.8976 27.7768V30.2141H15.9324V30.9282H13.123V30.2141H14.1578V25.5746H13.123V24.8605H14.8976V26.0792V26.0835Z" fill="#0D1853"/>
<path fill-rule="evenodd" clip-rule="evenodd" d="M19.7762 25.9253C20.1482 25.1557 20.9692 24.758 21.8158 24.758C22.4786 24.758 23.5134 25.13 23.9111 25.9253C24.0693 26.2161 24.2574 26.772 24.2574 27.516V30.2185H25.2666V30.9326H22.4572V30.2185H23.492V27.7811C23.492 27.2509 23.4664 26.7207 23.2012 26.2418C22.8549 25.6859 22.1921 25.502 21.6106 25.502C21.0803 25.502 20.5245 25.7415 20.1781 26.1391C19.7804 26.6181 19.7804 27.1184 19.7804 27.7042V30.2227H20.7896V30.9368H17.9802V30.2227H19.015V25.5833H17.9802V24.8692H19.7847V25.9296L19.7762 25.9253Z" fill="#0D1853"/>
<path fill-rule="evenodd" clip-rule="evenodd" d="M28.6538 30.3509C27.2769 30.3509 26.2165 29.2391 26.2165 27.9136C26.2165 26.588 27.3026 25.5019 28.6538 25.5019C30.005 25.5019 31.0655 26.6137 31.0655 27.9392C31.0655 29.2648 29.9794 30.3509 28.6538 30.3509ZM28.6538 31.0949C30.4283 31.0949 31.8351 29.6625 31.8351 27.8879C31.8351 26.1134 30.4027 24.7621 28.6538 24.7621C26.9049 24.7621 25.4468 26.169 25.4468 27.9435C25.4468 29.718 26.8792 31.0992 28.6538 31.0992V31.0949Z" fill="#0D1853"/>
<path fill-rule="evenodd" clip-rule="evenodd" d="M35.5721 30.3766C34.2466 30.3766 33.1092 29.2905 33.1092 27.9393C33.1092 26.588 34.1953 25.472 35.5721 25.472C36.949 25.472 38.0095 26.5581 38.0095 27.9093C38.0095 29.2606 36.949 30.3766 35.5721 30.3766ZM37.9838 30.9325H39.7584V30.2184H38.7492V22.6627H36.9448V23.3768H37.9795V26.2673C37.5006 25.3138 36.4958 24.7579 35.461 24.7579C33.7634 24.7579 32.3352 26.216 32.3352 27.9136C32.3352 28.4951 32.5747 29.1579 32.8654 29.6625C33.4213 30.5092 34.5374 31.095 35.4909 31.095C36.5514 31.095 37.4536 30.5647 37.9838 29.6625V30.9325Z" fill="#0D1853"/>
<path fill-rule="evenodd" clip-rule="evenodd" d="M50.5509 30.9325H48.9346L46.3904 27.3791H46.7068C47.3183 27.3791 47.9255 27.3791 48.4557 27.0627C49.0372 26.6907 49.3836 26.0835 49.3836 25.395C49.3836 24.8135 49.1997 24.2833 48.7721 23.9113C48.2675 23.4623 47.7373 23.4323 47.1301 23.4323H45.4881V30.1671H46.4973V30.9368H43.6067V30.1671H44.6671V23.4323H43.6067V22.6627H47.1857C47.9811 22.6627 48.6438 22.7439 49.3066 23.2741C49.9181 23.8044 50.2345 24.5441 50.2345 25.3694C50.2345 26.7762 49.1484 27.9136 47.7159 27.9136L49.4648 30.1671H50.5509V30.9368V30.9325Z" fill="#0D1853"/>
<path fill-rule="evenodd" clip-rule="evenodd" d="M52.9626 30.2184H53.9974V30.9325H51.1624V30.2184H52.2228V25.5789H51.188V24.8648H52.9626V30.2184ZM52.2185 22.6627H52.9626V23.8557H52.2185V22.6627Z" fill="#0D1853"/>
<path fill-rule="evenodd" clip-rule="evenodd" d="M59.8817 26.6907H59.1676C58.7442 25.9766 57.9233 25.5233 57.0723 25.5233C55.7468 25.5233 54.6863 26.6094 54.6863 27.935C54.6863 29.2606 55.7724 30.3467 57.1493 30.3467C58.0259 30.321 58.8725 29.8421 59.2189 29.0468L60.0912 29.0211C59.6422 30.2911 58.3936 31.0907 57.0681 31.0907C55.3448 31.0907 53.9124 29.6582 53.9124 27.9606C53.9124 27.0883 54.2587 26.293 54.8146 25.7072C55.3961 25.1214 56.1658 24.7536 57.0424 24.7536C57.919 24.7536 58.6074 25.1 59.1633 25.7072V24.8605H59.8774V26.6907H59.8817Z" fill="#0D1853"/>
<path fill-rule="evenodd" clip-rule="evenodd" d="M63.6448 25.5019C64.9704 25.5019 66.0565 26.588 66.0565 27.9136C66.0565 29.2391 64.9704 30.3509 63.5892 30.3509C62.2081 30.3509 61.1776 29.2391 61.1776 27.9392C61.1776 26.6393 62.2893 25.5019 63.6448 25.5019ZM66.0565 30.9367H67.8311V30.2226H66.8219V25.5831H67.8311V24.869H66.0565V26.1946C65.5006 25.2667 64.6497 24.7621 63.5636 24.7621C62.4775 24.7621 61.417 25.318 60.9125 26.1946C60.673 26.6436 60.4079 27.0413 60.4079 27.9435C60.3822 28.6063 60.5918 29.1878 60.8868 29.6924C61.4427 30.5647 62.4518 31.0992 63.5636 31.0992C64.6753 31.0992 65.5263 30.5946 66.0565 29.6924V30.9367Z" fill="#0D1853"/>
<path fill-rule="evenodd" clip-rule="evenodd" d="M70.4306 26.0835C70.6957 25.2368 71.5167 24.8905 72.3676 24.8648V25.5789C71.042 25.6858 70.4306 26.4811 70.4306 27.7768V30.2141H71.4397V30.9282H68.6304V30.2141H69.6652V25.5746H68.6304V24.8605H70.4349V26.0792L70.4306 26.0835Z" fill="#0D1853"/>
<path fill-rule="evenodd" clip-rule="evenodd" d="M75.8098 30.3766C74.4843 30.3766 73.3426 29.2905 73.3426 27.9393C73.3426 26.588 74.4287 25.472 75.8098 25.472C77.191 25.472 78.2472 26.5581 78.2472 27.9093C78.2472 29.2606 77.1867 30.3766 75.8098 30.3766ZM78.2215 30.9325H79.996V30.2184H78.9869V22.6627H77.1867V23.3768H78.2215V26.2673C77.7426 25.3138 76.7377 24.7579 75.7029 24.7579C74.0053 24.7579 72.5771 26.216 72.5771 27.9136C72.5771 28.4951 72.8166 29.1579 73.1074 29.6625C73.6633 30.5092 74.7793 31.095 75.7329 31.095C76.7933 31.095 77.6955 30.5647 78.2258 29.6625V30.9325H78.2215Z" fill="#0D1853"/>
</g>
<defs>
<clipPath id="clip0_1311_45381">
<rect width="80" height="31.0952" fill="white"/>
</clipPath>
</defs>
</svg>
