<svg width="80" height="36" viewBox="0 0 80 36" fill="none" xmlns="http://www.w3.org/2000/svg">
<path d="M38.1516 3.51616C38.1174 3.83053 38.0685 4.1441 38.0514 4.45929C37.9903 5.59546 37.9398 6.73162 37.8853 7.8686C37.847 8.67084 38.0718 9.30449 38.9172 9.59199C39.0573 9.63923 39.1428 9.8461 39.2535 9.97967C39.089 10.0391 38.9245 10.1515 38.7608 10.1499C37.9235 10.1401 37.0871 10.1075 36.2507 10.0644C36.1081 10.057 35.9713 9.95442 35.8312 9.8966C35.92 9.77931 35.9835 9.61317 36.1016 9.55371C36.7361 9.23444 36.9666 8.66107 37.0325 8.02661C37.171 6.708 37.2818 5.38533 37.3632 4.06184C37.4096 3.30847 37.4137 2.54777 37.3656 1.79521C37.3241 1.13632 36.9364 0.703841 36.2718 0.549909C36.1545 0.522217 36.025 0.495341 35.9322 0.426112C35.8622 0.373173 35.806 0.252633 35.8108 0.165486C35.8133 0.106845 35.9298 0.00748393 35.9982 0.00504057C36.2816 -0.00717626 36.5658 0.00503838 36.8501 0.0180697C37.3371 0.0416889 37.8242 0.101144 38.3096 0.0921854C38.6973 0.0848553 38.9001 0.242046 39.0434 0.589003C39.9214 2.71392 40.8124 4.83394 41.7018 6.95397C41.7686 7.11279 41.8549 7.26265 41.9706 7.49558C42.0976 7.30663 42.1937 7.1869 42.2646 7.05415C43.3446 5.02208 44.427 2.99165 45.4931 0.95225C45.6918 0.571899 45.941 0.378875 46.3874 0.40901C46.9013 0.443217 47.4185 0.413082 47.9332 0.436701C48.0537 0.442402 48.1702 0.552354 48.2883 0.615067C48.1963 0.709543 48.1213 0.854515 48.0106 0.891165C47.2393 1.14283 46.9119 1.52563 46.9062 2.34008C46.8907 4.35993 46.8891 6.37978 46.9029 8.39963C46.9086 9.23607 47.2572 9.67018 48.0423 9.92917C48.1189 9.95442 48.2093 9.96582 48.2679 10.0139C48.342 10.0766 48.4536 10.1898 48.4357 10.246C48.4072 10.3397 48.2916 10.4683 48.206 10.4724C47.9389 10.4863 47.6693 10.4431 47.3997 10.4341C46.4949 10.404 45.5892 10.3788 44.6843 10.3519C44.5622 10.3486 44.4318 10.3739 44.3211 10.3388C44.2201 10.3063 44.1036 10.2248 44.0645 10.1352C44.0417 10.0839 44.1419 9.92184 44.2177 9.89415C44.9653 9.61968 45.0378 9.01535 45.0378 8.34099C45.0378 6.9727 45.0679 5.60442 45.0826 4.23532C45.0842 4.07976 45.0671 3.9242 45.0582 3.76864L44.9368 3.71733C44.8203 3.88022 44.6827 4.03089 44.5915 4.20681C43.6207 6.06703 42.662 7.93295 41.6863 9.79072C41.6016 9.95198 41.4224 10.0636 41.2872 10.1988C41.1463 10.0554 40.946 9.9365 40.8743 9.76384C40.0933 7.89059 39.3334 6.00839 38.5661 4.12862C38.4814 3.92094 38.3878 3.71651 38.2982 3.51045C38.2493 3.51371 38.2013 3.51616 38.1524 3.51941L38.1516 3.51616Z" fill="#0D1853"/>
<path d="M26.8502 9.04475C26.9349 8.76377 27.0245 8.48441 27.1043 8.20261C27.365 7.27902 27.65 6.36031 27.8626 5.42532C27.9278 5.13944 27.8602 4.77049 27.7266 4.50335C27.4432 3.93568 27.0815 3.40709 26.7411 2.86874C26.4894 2.47129 26.2036 2.11618 25.6685 2.09827C25.5756 2.09501 25.486 2.00949 25.3899 1.95899C25.5145 1.54688 25.8542 1.53466 26.1474 1.47765C27.0213 1.30824 27.8976 1.14943 28.7756 1.00608C28.9295 0.980833 29.0981 1.04681 29.2594 1.07124C29.1926 1.21703 29.1576 1.39458 29.0525 1.5029C28.5777 1.9932 28.5117 2.22695 28.8513 2.82883C29.7904 4.49195 30.749 6.14285 31.7044 7.79701C31.7622 7.89719 31.8542 7.977 32.0122 8.16189C32.0904 7.86705 32.154 7.67321 32.1922 7.47448C32.4952 5.89526 32.7966 4.31603 33.0898 2.73517C33.1264 2.53726 33.1305 2.32957 33.1207 2.12759C33.0865 1.37177 32.7689 1.05332 32.0212 1.00364C31.9129 0.996308 31.7989 1.00934 31.6979 0.97839C31.6189 0.953956 31.5162 0.884727 31.5 0.817127C31.4828 0.745455 31.5333 0.606185 31.5928 0.57768C31.759 0.497863 31.9414 0.44085 32.123 0.410715C32.8552 0.287732 33.5898 0.177781 34.3237 0.0621281C34.3766 0.0539836 34.4304 0.0108175 34.4784 0.0189621C34.6641 0.0515403 34.8474 0.0987787 35.0314 0.14113C34.9402 0.289361 34.8808 0.47913 34.7513 0.579308C34.2935 0.931967 34.1486 1.43856 34.037 1.95492C33.4327 4.75583 32.8405 7.56 32.2452 10.3625C32.2313 10.4285 32.2378 10.5108 32.1996 10.558C32.0855 10.6989 31.9683 10.9115 31.8274 10.9335C31.6979 10.9538 31.482 10.795 31.3973 10.6582C30.8484 9.77206 30.3239 8.86965 29.792 7.97293C29.4467 7.3906 29.103 6.80663 28.7552 6.22511C28.6958 6.12575 28.6233 6.03371 28.4954 5.84883C28.37 6.24059 28.2666 6.53867 28.1794 6.84165C27.7339 8.37283 27.2998 9.90726 26.8405 11.4344C26.7891 11.6054 26.6091 11.7373 26.4886 11.888C26.3412 11.765 26.1457 11.6706 26.0537 11.5158C24.6048 9.06756 23.1746 6.60872 21.7265 4.16047C21.4317 3.66121 21.1303 3.14891 20.4869 3.00231C20.4038 2.98358 20.2931 2.86467 20.2874 2.78567C20.2817 2.70829 20.3778 2.5845 20.4584 2.54947C20.6416 2.46966 20.8404 2.41427 21.0383 2.37844C21.9 2.22206 22.7633 2.06976 23.6291 1.93456C23.7659 1.91338 23.9174 1.98587 24.0615 2.01519C23.9801 2.14143 23.9263 2.30595 23.8131 2.3874C23.2797 2.77182 23.1795 2.97951 23.4955 3.56917C24.2562 4.98877 25.0568 6.38637 25.8444 7.79212C26.0032 8.07555 26.1669 8.35735 26.3453 8.62857C26.452 8.79064 26.5912 8.93154 26.715 9.0814L26.8494 9.04557L26.8502 9.04475Z" fill="#0D1853"/>
<path d="M8.28789 13.6195C8.643 13.5209 8.93294 13.4224 9.23103 13.3613C10.7801 13.0436 11.9195 14.3012 12.2046 15.509C12.4416 16.5124 12.2804 17.4441 11.5433 18.1845C10.8762 18.854 10.1408 19.4583 9.42569 20.0789C8.67965 20.7272 7.92383 21.3633 7.16476 21.9969C7.08494 22.0637 6.9587 22.0735 6.85364 22.1093C6.82513 21.9872 6.73391 21.8324 6.77789 21.7485C7.09635 21.1401 6.82025 20.6759 6.44071 20.2385C5.53504 19.1944 4.62203 18.156 3.70984 17.1176C3.23583 16.5776 2.76915 16.0311 2.27966 15.5049C1.67045 14.8501 1.24774 14.7964 0.444692 15.1987C0.319266 15.2614 0.14986 15.237 0 15.2533C0.0431661 15.0977 0.0684142 14.934 0.136014 14.7898C0.17918 14.6986 0.281801 14.6326 0.363247 14.5618C1.28765 13.7701 2.22591 12.994 3.13565 12.186C3.7864 11.6086 4.41842 11.0173 5.26382 10.7257C6.04733 10.4553 6.80721 10.4594 7.51986 10.9253C8.3107 11.4416 8.59902 12.1738 8.39622 13.099C8.36445 13.244 8.33513 13.389 8.28545 13.6203L8.28789 13.6195ZM8.59657 14.8949C7.70474 14.9706 6.85852 15.5302 6.16624 16.3577C5.93901 16.6289 6.0009 16.9302 6.2094 17.1762C6.74287 17.8058 7.27797 18.4362 7.84564 19.034C8.2317 19.4396 8.74399 19.5349 9.21637 19.2245C9.68387 18.9175 10.1497 18.5657 10.504 18.1397C11.009 17.5329 10.9862 16.8138 10.618 16.1247C10.2344 15.4072 9.70912 14.8786 8.59739 14.8957L8.59657 14.8949ZM7.40828 13.6439C7.27308 13.3629 7.19327 13.0673 7.01653 12.8498C6.1076 11.734 4.94781 11.62 3.81328 12.5045C3.06805 13.0852 3.02814 13.4093 3.63573 14.148C4.01363 14.6074 4.41435 15.0488 4.8004 15.5017C5.04229 15.7851 5.35015 15.8446 5.63033 15.6361C6.12552 15.2671 6.60686 14.8713 7.04259 14.4364C7.22584 14.2539 7.27797 13.9404 7.4091 13.6439H7.40828Z" fill="#0D1853"/>
<path d="M69.9016 8.65461C69.8991 9.97565 69.1091 10.8797 67.8149 11.1574C67.1919 11.291 67.1886 11.2918 67.253 11.9434C67.3613 13.0331 67.4647 14.1237 67.5885 15.2118C67.6488 15.7404 67.8777 16.1598 68.4282 16.3504C68.5455 16.3911 68.6229 16.5459 68.719 16.6477C68.5911 16.7356 68.4681 16.8904 68.3337 16.9018C67.2693 16.9938 66.0354 16.7177 65.8057 15.268C65.677 14.4552 65.6379 13.6277 65.554 12.8067C65.5043 12.3229 65.4693 11.8359 65.3879 11.357C65.2966 10.8219 64.8886 10.5751 64.4113 10.4358C64.1768 10.3674 63.9837 10.4464 63.8828 10.6899C63.5749 11.427 63.2385 12.1527 62.9673 12.902C62.7458 13.5153 62.78 14.0984 63.3949 14.5285C63.504 14.605 63.5154 14.8208 63.5724 14.9723C63.4112 14.9805 63.2222 15.0473 63.0935 14.9862C62.5185 14.715 61.9696 14.3867 61.393 14.1196C60.9523 13.916 60.4783 13.7857 60.0312 13.5943C59.8992 13.5381 59.8088 13.3858 59.6997 13.2775C59.8308 13.2123 59.9571 13.1056 60.0939 13.0909C60.699 13.0258 61.0436 12.6251 61.27 12.1372C61.7644 11.0703 62.2164 9.98298 62.6798 8.90139C63.0154 8.11788 63.3566 7.336 63.6677 6.54273C64.0522 5.56538 63.9365 5.15897 63.1652 4.46587C63.0707 4.38035 63.0349 4.22967 62.9714 4.10995C63.1212 4.08552 63.2703 4.04724 63.4201 4.04316C63.4934 4.04072 63.5684 4.10099 63.6425 4.13357C64.8153 4.65645 65.9808 5.19562 67.1626 5.69651C67.9192 6.0174 68.6424 6.37169 69.1914 7.00371C69.6312 7.5103 69.9105 8.08367 69.904 8.65379L69.9016 8.65461ZM68.1709 8.30032C68.1684 7.39546 67.6659 6.65756 66.7749 6.24871C66.2341 6.0003 65.9335 6.0793 65.6819 6.61358C65.308 7.40686 64.9595 8.21236 64.6369 9.02681C64.571 9.19378 64.5905 9.51956 64.7029 9.61241C65.3463 10.1442 66.0924 10.4684 66.9443 10.2811C67.6903 10.1174 68.1741 9.28662 68.1709 8.30113V8.30032Z" fill="#0D1853"/>
<path d="M54.9817 1.89948C57.2329 1.95241 59.4238 3.31663 60.1772 5.18092C61.2653 7.87432 59.5761 11.3032 56.7548 12.1282C54.2153 12.871 51.1229 11.5589 50.0828 9.2988C48.8171 6.54757 50.5413 2.96804 53.5467 2.14218C54.0117 2.01431 54.5028 1.97848 54.9817 1.90029V1.89948ZM58.5556 6.63716C58.5857 5.08562 58.3381 4.09118 57.4952 3.34432C56.2246 2.21874 54.2422 2.45167 53.1142 3.91199C52.0122 5.33973 51.4755 6.98738 51.6254 8.80198C51.7337 10.1076 52.5441 10.9407 53.699 11.4367C54.7341 11.8814 55.6724 11.5646 56.4909 10.8854C57.9618 9.66449 58.4505 7.99567 58.5548 6.63716H58.5556Z" fill="#0D1853"/>
<path d="M21.9172 9.40786C21.8935 11.5507 20.5399 13.4345 18.3963 14.3443C14.7833 15.8779 11.8684 13.4549 11.3838 10.3502C10.9676 7.68447 12.5941 5.25088 15.25 4.38919C18.7408 3.25628 21.3772 5.65811 21.8235 8.6439C21.8618 8.89719 21.8862 9.15293 21.9172 9.40704V9.40786ZM15.8218 5.11731C14.2377 5.11324 12.9288 6.27628 12.8604 7.75207C12.7529 10.0692 13.8483 11.8488 15.619 13.2024C16.6941 14.025 17.941 13.9012 19.069 13.2448C20.1742 12.6022 20.4324 11.488 20.3167 10.3143C20.1473 8.5934 19.3068 7.1901 18.0232 6.05719C17.37 5.48056 16.6093 5.10509 15.8218 5.11649V5.11731Z" fill="#0D1853"/>
<path d="M74.6618 11.0425C74.5559 10.7713 74.4427 10.5033 74.3474 10.2289C74.3116 10.1254 74.3189 10.0073 74.3059 9.89658C74.4305 9.90391 74.5706 9.87784 74.6764 9.92671C74.8076 9.98698 74.9216 10.0969 75.0234 10.2044C76.3396 11.6053 77.8805 12.7415 79.3938 13.9094C79.4263 13.9346 79.4597 13.9574 79.4915 13.9827C80.13 14.4852 80.1431 14.5805 79.6642 15.2199C79.4206 15.5456 79.1934 15.8844 78.932 16.1939C78.8562 16.2835 78.6844 16.2933 78.5565 16.3389C78.5361 16.1948 78.4596 16.0286 78.5052 15.9105C78.9295 14.8167 78.8888 14.5724 78.023 13.762C77.7168 13.4753 77.3918 13.2024 77.0457 12.9687C76.5855 12.6584 76.2288 12.7301 75.8729 13.1552C75.4208 13.696 74.9762 14.2433 74.5225 14.7833C74.2741 15.079 74.2733 15.338 74.5999 15.5733C74.9501 15.8258 75.2856 16.1027 75.6521 16.3291C75.9853 16.5344 76.3436 16.5474 76.6833 16.2982C76.7802 16.2273 76.8942 16.1589 77.0082 16.1402C77.1003 16.1255 77.2412 16.1581 77.2933 16.2233C77.3364 16.277 77.3153 16.4334 77.2648 16.5034C76.7362 17.2405 76.2035 17.9743 75.6513 18.6935C75.5732 18.7953 75.3842 18.8116 75.2466 18.867C75.2327 18.731 75.1757 18.5819 75.2115 18.4598C75.5104 17.4376 75.4795 17.3211 74.6422 16.6272C74.4443 16.4627 74.2448 16.299 74.0412 16.141C73.7854 15.9415 73.5191 15.948 73.3204 16.1996C72.7169 16.966 72.1142 17.7333 71.5497 18.5282C71.2859 18.8987 71.3518 19.2367 71.7061 19.543C72.7584 20.4535 73.9076 21.0766 75.3761 20.6946C75.5243 20.6563 75.7018 20.7329 75.8664 20.7565C75.7971 20.9202 75.7719 21.1344 75.6513 21.2411C74.8377 21.9627 73.7325 22.2673 72.7274 21.5172C72.554 21.3877 72.3821 21.2501 72.238 21.0904C71.2761 20.0292 70.1782 19.1268 69.02 18.2928C68.8995 18.2056 68.7676 18.1226 68.6763 18.0094C68.6104 17.9279 68.5672 17.7927 68.5851 17.695C68.5949 17.6437 68.7733 17.5696 68.849 17.5924C69.604 17.818 70.0577 17.379 70.4722 16.8691C71.6605 15.4064 72.8455 13.9403 74.0216 12.4678C74.345 12.063 74.617 11.624 74.6618 11.0458V11.0425Z" fill="#0D1853"/>
<path d="M48.1705 22.2674H46.1694C46.1148 21.9775 46.0993 21.7323 46.0203 21.51C45.8623 21.0661 45.7841 20.4699 45.4592 20.2435C45.1334 20.0171 44.5445 20.1905 44.0754 20.1441C43.6706 20.1042 43.4434 20.2353 43.344 20.6377C43.2797 20.8975 43.1461 21.1402 43.059 21.3959C42.8668 21.962 42.8953 22.0157 43.4434 22.2487H41.3804C41.3967 22.2079 41.4056 22.1656 41.4154 22.1656C42.0686 22.1452 42.2771 21.6777 42.4783 21.1638C43.1233 19.5154 43.7879 17.875 44.4484 16.2331C44.5111 16.0767 44.6032 15.9318 44.7457 15.6597C44.898 15.9586 45.0104 16.146 45.0918 16.3455C45.7125 17.8718 46.3266 19.4005 46.9431 20.9293C46.9732 21.0042 47.0001 21.0807 47.0319 21.1549C47.2534 21.6786 47.4806 22.1965 48.234 22.1395C48.2128 22.1827 48.1917 22.225 48.1705 22.2682V22.2674ZM44.5975 17.7146L44.4606 17.7162C44.2301 18.3344 43.9988 18.9526 43.7488 19.6237H45.2987C45.0519 18.9518 44.8247 18.3328 44.5975 17.7146Z" fill="#0D1853"/>
<path d="M52.2129 15.9871H54.0438C53.2155 16.2307 52.9288 16.9677 52.5289 17.5908C52.2952 17.9549 52.0989 18.3425 51.8668 18.7074C51.5524 19.2026 51.383 19.7263 51.427 20.3209C51.453 20.6719 51.4286 21.0254 51.4351 21.378C51.4457 21.949 51.5003 22.0076 52.0565 22.1102C52.1306 22.1241 52.1999 22.1623 52.2634 22.2576H49.7093C49.7109 22.2308 49.7109 22.1843 49.7133 22.1843C50.3291 22.1501 50.2835 21.6891 50.3535 21.2583C50.5905 19.8021 49.886 18.6691 49.1326 17.5452C49.0194 17.3766 48.9144 17.2023 48.806 17.0313C48.5365 16.6029 48.2441 16.2005 47.7212 16.0026H49.7329C49.7158 16.1989 49.6254 16.4204 49.6971 16.5573C50.0872 17.2992 50.5164 18.0208 50.9367 18.7473C50.9676 18.8019 51.0303 18.8377 51.1289 18.929C51.3113 18.6146 51.4815 18.3287 51.6452 18.0388C51.8643 17.6494 52.094 17.265 52.2895 16.8635C52.4271 16.5801 52.6242 16.2616 52.2145 15.9863L52.2129 15.9871Z" fill="#0D1853"/>
<path d="M52.6424 30.2782C52.1513 30.2522 51.661 30.2261 51.2424 30.2041C51.095 29.0891 50.9532 28.0124 50.8107 26.9349C50.7749 26.9235 50.739 26.9113 50.704 26.8999C50.1681 28.0043 49.6314 29.1079 49.036 30.3336C48.7053 29.7008 48.4146 29.1649 48.1434 28.62C47.8746 28.08 47.6238 27.5311 47.3656 26.9854C47.3314 26.9903 47.2963 26.9952 47.2621 27.0001C47.1693 27.6883 47.0764 28.3757 46.9844 29.0639C46.9722 29.1575 46.9673 29.2528 46.9575 29.3465C46.8899 30.0046 46.7336 29.9459 47.3819 30.2522H45.9346C46.42 30.0893 46.4322 29.7228 46.4835 29.3815C46.6822 28.058 46.8761 26.7337 47.0756 25.4102C47.0927 25.297 47.1432 25.1895 47.2792 25.0519C47.9186 26.3623 48.5587 27.672 49.2388 29.0663C49.9067 27.6736 50.5338 26.3672 51.1601 25.06C51.2025 25.0641 51.2456 25.0682 51.288 25.0722C51.3719 25.5935 51.4623 26.1131 51.5397 26.6352C51.6846 27.6117 51.8255 28.5882 51.9607 29.5664C52.0169 29.9736 52.2507 30.1821 52.7051 30.1732C52.6848 30.2082 52.6644 30.2432 52.6441 30.2791L52.6424 30.2782Z" fill="#0D1853"/>
<path d="M30.7907 20.6564C30.8086 20.772 30.82 20.8885 30.8461 21.0025C30.9674 21.5449 31.2851 21.8951 31.8487 21.9782C32.3031 22.0458 32.7242 21.9579 33.0044 21.5612C33.2878 21.1605 33.2471 20.7158 32.971 20.3493C32.7315 20.0317 32.3911 19.7906 32.0995 19.5112C31.7689 19.1936 31.4048 18.902 31.1254 18.5437C30.7101 18.011 30.5732 17.3993 30.8974 16.7592C31.2191 16.1223 31.8047 15.9073 32.4636 15.8299C32.5972 15.8144 32.7348 15.825 32.87 15.8258C33.9361 15.8348 34.1951 16.2208 33.8099 17.3668C33.7415 17.1998 33.6959 17.1045 33.6633 17.0052C33.4434 16.3406 32.6004 16.0245 31.9977 16.3813C31.6027 16.615 31.4528 17.2242 31.7664 17.5842C32.0824 17.9475 32.4921 18.2268 32.8358 18.5681C33.1974 18.9273 33.6103 19.2693 33.8587 19.701C34.4688 20.763 33.941 21.9644 32.7706 22.3187C32.1411 22.5092 31.5139 22.471 30.8917 22.273C30.6563 22.1981 30.5244 22.0654 30.5586 21.799C30.6083 21.4138 30.4625 21.0001 30.6824 20.6401C30.719 20.645 30.7565 20.6507 30.7931 20.6555L30.7907 20.6564Z" fill="#0D1853"/>
<path d="M40.5494 21.044C40.494 21.4024 40.4582 21.7648 40.3719 22.1159C40.3482 22.212 40.1731 22.335 40.0664 22.3366C38.7991 22.3521 37.531 22.3464 36.2499 22.3464C36.2686 22.2242 36.2711 22.1786 36.276 22.1786C36.8322 22.1403 36.8795 21.7298 36.8827 21.3177C36.8933 19.7882 36.8795 18.2578 36.8958 16.7282C36.9015 16.2103 36.539 16.1402 36.1758 15.9977H38.6599L38.6696 16.0628C38.5874 16.0889 38.5068 16.1304 38.4237 16.1386C38.1174 16.1663 37.9977 16.3585 37.9969 16.6321C37.9953 18.1348 37.9879 19.6375 38.0124 21.1402C38.0205 21.6541 38.1728 21.773 38.681 21.8194C38.9099 21.8406 39.1412 21.8373 39.3717 21.8324C40.011 21.8178 40.1194 21.7347 40.3376 21.1304C40.3531 21.088 40.3971 21.0546 40.4272 21.018C40.468 21.0269 40.5079 21.0367 40.5486 21.0457L40.5494 21.044Z" fill="#0D1853"/>
<path d="M20.7068 25.0185C22.0165 26.3648 23.2577 27.6403 24.5926 29.0126C24.5926 28.6811 24.5951 28.4743 24.5926 28.2674C24.5837 27.4953 24.5763 26.7232 24.5617 25.9519C24.5543 25.5952 24.503 25.2604 24.029 25.2115H25.4624C25.0707 25.2914 25.0707 25.5862 25.0658 25.8941C25.0454 27.2615 25.0169 28.629 24.9901 29.9973C24.9884 30.0877 24.9746 30.1781 24.9045 30.3174C23.6088 29.1242 22.361 27.8919 21.1165 26.5383C21.0953 26.7167 21.0717 26.8144 21.0742 26.9113C21.0962 27.7771 21.1328 28.6428 21.1426 29.5086C21.1467 29.8987 21.2468 30.1757 21.6875 30.2416H20.1245C20.5871 30.17 20.5985 29.8336 20.6018 29.4606C20.6148 28.0931 20.6458 26.7256 20.6718 25.3582C20.6735 25.2808 20.6873 25.2042 20.7068 25.0193V25.0185Z" fill="#0D1853"/>
<path d="M31.8074 25.3101V26.4829C31.6429 25.943 31.2519 25.6351 30.7511 25.5398C30.2844 25.451 29.7859 25.4315 29.3144 25.4885C28.7361 25.5585 28.3297 25.9381 28.1424 26.4935C27.6757 27.8797 28.1798 29.6381 29.8096 29.9859C29.8625 29.9973 29.9146 30.0136 29.9684 30.0209C30.9278 30.1602 31.0589 30.0478 31.0573 29.0949C31.0573 28.919 31.0516 28.7422 31.054 28.5663C31.0606 28.1843 31.0573 27.8097 30.532 27.7755C30.5694 27.7698 30.6069 27.76 30.6444 27.76C31.1868 27.7592 31.7284 27.76 32.3246 27.7926C31.8196 27.8577 31.8986 28.212 31.8954 28.5207C31.8913 28.9133 31.9239 29.3099 31.8783 29.6976C31.8595 29.8556 31.7056 30.0812 31.5647 30.1268C30.4228 30.499 29.2907 30.4616 28.2262 29.8694C27.3173 29.3637 26.8914 28.2601 27.1243 27.154C27.3466 26.0977 28.1961 25.3183 29.2696 25.148C30.1321 25.0112 30.9669 25.1595 31.8074 25.3093V25.3101Z" fill="#0D1853"/>
<path d="M28.464 22.2682H25.9058C25.9188 22.2169 25.9245 22.1721 25.931 22.1721C26.5142 22.1574 26.528 21.7388 26.5304 21.3226C26.5378 19.8745 26.5451 18.4264 26.5419 16.9783C26.5402 16.2787 26.5288 16.2787 25.9058 16.0074H28.3263C28.1708 16.0791 28.0999 16.1296 28.0225 16.1426C27.7432 16.1931 27.6438 16.3707 27.6446 16.6329C27.6463 18.2838 27.6471 19.9356 27.6487 21.5865C27.6487 21.9033 27.7627 22.1069 28.1235 22.0996C28.2384 22.0971 28.354 22.1436 28.4697 22.1672L28.464 22.2682Z" fill="#0D1853"/>
<path d="M56.0625 24.9534C56.1912 25.2295 56.2759 25.394 56.3451 25.5642C56.8403 26.7924 57.3265 28.0255 57.8298 29.2504C58.0009 29.6666 58.1385 30.1317 58.6809 30.2424H57.3265C57.1172 29.665 56.9339 29.1356 56.7271 28.616C56.701 28.55 56.552 28.5036 56.4575 28.4987C56.1732 28.4832 55.8833 28.5256 55.6048 28.4857C55.1649 28.4221 54.9621 28.6111 54.8709 29.0175C54.8212 29.2398 54.7211 29.4508 54.638 29.665C54.5232 29.9639 54.5737 30.1716 54.932 30.2457H53.4546C53.9734 30.1683 54.1159 29.7505 54.2764 29.3465C54.7854 28.0654 55.2953 26.7851 55.8067 25.5056C55.8654 25.359 55.9395 25.2181 56.0633 24.955L56.0625 24.9534ZM55.9379 26.4707C55.9061 26.4715 55.8752 26.4731 55.8434 26.474C55.6398 27.0221 55.4353 27.5702 55.2171 28.1566H56.5479C56.3361 27.5718 56.1366 27.0213 55.9379 26.4707Z" fill="#0D1853"/>
<path d="M41.6648 26.123C41.4107 25.5318 41.0157 25.4104 40.0774 25.5643V27.4164C40.5824 27.3887 41.0833 27.3618 41.5712 27.3358V28.1559C41.2364 27.4091 40.5971 27.8261 40.0644 27.6502C40.0644 28.3481 40.0595 28.9663 40.0709 29.5845C40.0726 29.6651 40.1393 29.7661 40.2069 29.8215C40.615 30.157 41.5842 29.9257 41.8163 29.4468C41.8318 29.4151 41.8644 29.3906 41.9377 29.3092C41.9026 29.5991 41.9165 29.8394 41.8334 30.0406C41.7862 30.1538 41.5826 30.2662 41.4474 30.2694C40.5669 30.2898 39.6849 30.28 38.7743 30.2564C39.2956 30.0837 39.2174 29.6431 39.2239 29.275C39.2443 28.1633 39.2312 27.0515 39.2329 25.9398C39.2329 25.57 39.1921 25.2353 38.6953 25.2068H41.7324C41.7129 25.4731 41.6933 25.7517 41.6656 26.1247L41.6648 26.123Z" fill="#0D1853"/>
<path d="M63.6147 25.1781H67.9663V26.0748C67.5624 25.2652 66.8424 25.6749 66.2006 25.5137C66.2006 25.9852 66.2006 26.3876 66.2006 26.7891C66.2006 27.6296 66.1998 28.4701 66.203 29.3106C66.2063 30.0168 66.2087 30.0168 66.8636 30.253H65.0196C65.1198 30.0925 65.3422 29.9003 65.347 29.7032C65.378 28.3382 65.3633 26.9715 65.3633 25.5291C64.737 25.6855 64.026 25.2604 63.4697 26.0724C63.5308 25.6953 63.574 25.4306 63.6147 25.1781Z" fill="#0D1853"/>
<path d="M12.0361 28.9483C12.3049 29.8507 12.5452 30.0641 13.1992 30.0446C13.9232 30.0226 14.3028 29.3824 13.9224 28.7651C13.7571 28.4971 13.4826 28.2959 13.2513 28.0703C12.9703 27.7967 12.6404 27.5629 12.4075 27.2542C11.7364 26.364 12.1534 25.3468 13.2464 25.1391C13.2863 25.1318 13.3262 25.1212 13.3661 25.1147C14.4225 24.9428 14.6383 25.1358 14.5422 26.2997C14.3704 25.6367 14.0242 25.2987 13.4288 25.4054C13.2041 25.4453 12.906 25.6009 12.8253 25.785C12.7349 25.9894 12.7887 26.3209 12.9003 26.5334C13.0184 26.759 13.2757 26.913 13.4785 27.0922C13.7318 27.3161 14.0087 27.5165 14.2441 27.7584C14.7059 28.2332 14.8794 28.8025 14.635 29.437C14.3899 30.0731 13.8401 30.284 13.2146 30.3524C13.1479 30.3598 13.0786 30.3614 13.011 30.3557C11.8276 30.2433 11.8716 30.249 12.0369 28.9491L12.0361 28.9483Z" fill="#0D1853"/>
<path d="M59.5462 25.2027H61.3673C60.8298 25.2589 60.8583 25.6702 60.8591 26.0367C60.8616 27.1468 60.8893 28.2577 60.8909 29.3678C60.8909 29.7278 61.0595 29.8923 61.3983 29.9119C61.628 29.9257 61.8585 29.9388 62.0881 29.9347C62.4758 29.9273 62.7348 29.7303 62.8415 29.3092C62.8822 29.3882 62.9042 29.4102 62.9018 29.4305C62.7975 30.4111 62.8602 30.2751 61.9798 30.2784C61.1947 30.2808 60.4087 30.2784 59.5967 30.2523C59.9909 30.1416 60.0227 29.8532 60.021 29.5283C60.0162 28.3359 60.0162 27.1435 60.0308 25.9512C60.0357 25.5814 59.9974 25.2776 59.5454 25.2035L59.5462 25.2027Z" fill="#0D1853"/>
<path d="M34.0466 30.2775C34.4196 30.1423 34.4433 29.8515 34.4433 29.5404C34.4433 28.3472 34.4424 27.154 34.4522 25.9609C34.4555 25.6001 34.4473 25.2686 33.9692 25.205H35.7537C35.16 25.3231 35.2699 25.7996 35.2707 26.2019C35.2732 27.2591 35.2976 28.3163 35.3049 29.3726C35.3074 29.7285 35.4858 29.8931 35.8238 29.9126C36.0266 29.9248 36.2302 29.9411 36.433 29.937C36.8101 29.9289 37.1301 29.8214 37.3012 29.4101C37.2849 29.6072 37.3061 29.8181 37.2401 29.9981C37.1977 30.1146 37.0308 30.2628 36.9168 30.2653C35.9606 30.2864 35.0036 30.2775 34.0466 30.2775Z" fill="#0D1853"/>
<path d="M18.4505 30.2531H16.6221C17.0252 30.1741 17.022 29.863 17.0244 29.5616C17.0326 28.3163 17.0399 27.0718 17.0399 25.8265C17.0399 25.5415 17.0016 25.2637 16.6099 25.2198H18.286C17.8511 25.2971 17.8568 25.6465 17.8552 25.9707C17.8495 27.0946 17.8486 28.2178 17.8617 29.3417C17.8666 29.7514 17.8185 30.2262 18.4505 30.2539V30.2531Z" fill="#0D1853"/>
<path d="M43.939 35.7881C43.636 35.0787 43.3681 34.4541 43.1009 33.8294C43.0602 33.8269 43.0195 33.8237 42.9787 33.8212C42.7246 34.4467 42.4705 35.0722 42.1724 35.8044C41.8515 34.8483 41.564 33.9906 41.2773 33.133C41.5779 32.9799 41.6577 33.1526 41.7212 33.3668C41.8874 33.9312 42.0576 34.4948 42.2262 35.0584C42.2767 35.0633 42.3264 35.0682 42.3769 35.073C42.6163 34.4589 42.8558 33.8457 43.1335 33.1338C43.4332 33.8237 43.6995 34.4361 43.9659 35.0494C44.009 35.0494 44.0514 35.0511 44.0945 35.0519C44.2998 34.3889 44.5058 33.7267 44.7111 33.0638C44.7526 33.0776 44.7933 33.0923 44.8349 33.1061C44.5474 33.9662 44.2599 34.8271 43.9382 35.7881H43.939Z" fill="#0D1853"/>
<path d="M46.4799 35.6863C46.1704 35.7995 46.1085 35.6602 46.1109 35.4037C46.1182 34.647 46.1133 33.8904 46.1133 33.0979C46.2306 33.0922 46.3406 33.0865 46.4619 33.0808C46.4619 33.3683 46.4774 33.6249 46.4579 33.879C46.4359 34.169 46.5727 34.248 46.8374 34.2642C48.0249 34.3375 48.0241 34.3424 48.0843 33.0955H48.3946C48.4036 33.1403 48.4183 33.1786 48.4183 33.2177C48.4183 33.9482 48.4134 34.6788 48.4199 35.4086C48.4215 35.6366 48.3824 35.7905 48.0705 35.7009C48.0705 35.3743 48.0566 35.0412 48.0746 34.7098C48.0908 34.4043 47.9613 34.2862 47.6681 34.3172C47.6282 34.3213 47.5867 34.3172 47.546 34.3172C46.2885 34.3514 46.4701 34.068 46.4685 35.4476C46.4685 35.5258 46.4758 35.6048 46.4799 35.6863Z" fill="#0D1853"/>
<path d="M38.1223 35.7002C38.1223 35.3321 38.1175 34.9957 38.124 34.6593C38.1289 34.4264 38.0458 34.2953 37.7933 34.3173C37.7526 34.3205 37.7119 34.3156 37.6711 34.3173C37.3087 34.3336 36.842 34.2236 36.618 34.4085C36.4356 34.5584 36.5415 35.0617 36.5252 35.4086C36.5105 35.723 36.5138 35.723 36.1587 35.6847V33.1217C36.4983 32.984 36.5268 33.1754 36.5276 33.4466C36.5285 34.2635 36.5342 34.2635 37.3519 34.2635C37.8872 34.2635 38.1435 33.9926 38.1207 33.4507C38.1158 33.344 38.1077 33.2373 38.0995 33.116C38.3455 33.041 38.475 33.0394 38.4628 33.3701C38.4375 34.0461 38.4489 34.7237 38.4709 35.3997C38.4799 35.6725 38.4188 35.7922 38.1223 35.7002Z" fill="#0D1853"/>
<path d="M55.5152 34.0159C55.56 34.1625 55.564 34.345 55.6561 34.45C56.0389 34.8874 56.4477 35.3019 56.8305 35.7067C56.5121 35.7662 56.3891 35.6953 55.9721 35.2172C55.7277 34.9371 55.472 34.6667 55.1267 34.4313V35.6839C54.8033 35.7939 54.7447 35.6579 54.7471 35.4192C54.7537 34.6602 54.7496 33.9011 54.7496 33.1045C54.8636 33.0948 54.9736 33.085 55.1153 33.0728V34.2839C55.2936 34.1715 55.4093 34.0982 55.5258 34.0249L55.516 34.0159H55.5152Z" fill="#0D1853"/>
<path d="M34.7985 33.3782C34.2153 32.9637 33.4677 32.9523 33.0898 33.353C32.6939 33.7732 32.6719 34.6854 33.0458 35.2091C33.4237 35.7377 34.1168 35.868 34.7773 35.5333C34.5892 35.8411 33.826 35.9079 33.2404 35.6685C32.5807 35.3981 32.2517 34.7465 32.4235 34.0501C32.6019 33.3269 33.2518 32.9368 34.1673 33.0027C34.7162 33.0427 34.7732 33.0769 34.7977 33.379L34.7985 33.3782Z" fill="#0D1853"/>
<path d="M24.7252 35.5275C24.265 35.8997 23.3308 35.8655 22.847 35.5405C22.3429 35.2025 22.1205 34.6006 22.2818 34.011C22.4488 33.4001 22.9928 33.0206 23.7324 33.0002C24.2976 32.9848 24.5655 33.0735 24.6315 33.269C24.344 33.1998 24.0337 33.0491 23.7389 33.076C23.444 33.1028 23.0979 33.2405 22.8943 33.4474C22.4911 33.857 22.5408 34.7252 22.9138 35.2196C23.3007 35.7319 23.8928 35.8533 24.7244 35.5267L24.7252 35.5275Z" fill="#0D1853"/>
<path d="M31.5996 33.1892C31.3943 33.1802 31.1858 33.1916 30.9847 33.1566C30.7191 33.111 30.6524 33.2193 30.6556 33.4612C30.6654 34.1095 30.6515 34.7578 30.6621 35.4053C30.6662 35.6725 30.5807 35.7824 30.2981 35.6994C30.2981 35.0177 30.2736 34.3449 30.307 33.6754C30.3282 33.2544 30.1792 33.1069 29.7752 33.1688C29.6587 33.1868 29.5382 33.1713 29.4209 33.1135H31.5979V33.1892H31.5996Z" fill="#0D1853"/>
<path d="M58.8453 34.4874C59.1736 33.927 59.4334 33.4823 59.694 33.0368L59.786 33.102C59.2148 34.1146 58.9309 35.0217 58.9341 35.8231C58.7688 35.6773 58.5806 35.5787 58.5912 35.5103C58.7403 34.5403 58.1848 33.844 57.666 33.1166C57.9332 33.0197 58.0716 33.0881 58.1873 33.3292C58.3599 33.69 58.5815 34.028 58.8453 34.4874Z" fill="#0D1853"/>
<path d="M20.3357 33.0833C20.0466 33.4571 20.0702 33.6982 20.4245 34.0036C20.6289 34.1804 20.8488 34.3433 21.0288 34.542C21.2959 34.836 21.2911 35.2709 21.0516 35.543C20.8342 35.7897 20.1647 35.903 19.9195 35.7181C19.8478 35.6643 19.8218 35.5495 19.8145 35.4387C19.9057 35.5193 19.9855 35.6195 20.0889 35.6765C20.3504 35.8191 20.6199 35.8215 20.8301 35.5902C21.0427 35.3556 21.0174 35.0738 20.8244 34.8515C20.6232 34.6186 20.3512 34.4467 20.1427 34.2195C19.7338 33.7748 19.8145 33.3553 20.3357 33.0841V33.0833Z" fill="#0D1853"/>
<path d="M27.5044 35.727C26.8178 35.9029 26.207 35.7213 25.8755 35.2432C25.5049 34.7081 25.4674 34.085 25.8877 33.5988C26.106 33.3463 26.479 33.2282 26.7828 33.0499L26.7804 33.0409C25.9553 33.3504 25.9162 34.081 26.0644 34.7643C26.2233 35.494 26.7144 35.7954 27.5174 35.7359L27.5044 35.727Z" fill="#0D1853"/>
<path d="M26.7829 33.0508C27.6014 32.8847 28.3035 33.2593 28.4786 33.9557C28.683 34.7726 28.2815 35.5048 27.5053 35.728L27.5183 35.7369C28.1178 35.267 28.2929 34.6594 28.0437 33.906C27.8498 33.3196 27.4784 33.0655 26.7812 33.0419L26.7837 33.0508H26.7829Z" fill="#0D1853"/>
<path d="M52.4319 33.0866C52.1582 33.5003 52.1941 33.6877 52.5972 34.0306C52.7927 34.1967 53.0044 34.3523 53.1616 34.5502C53.5143 34.9916 53.4548 35.3174 52.8774 35.7792C53.3286 35.1635 52.9979 34.8515 52.6396 34.5469C52.5158 34.4419 52.3846 34.3417 52.2731 34.2244C51.8935 33.8261 51.9579 33.3831 52.4311 33.0858L52.4319 33.0866Z" fill="#0D1853"/>
<path d="M50.3461 35.7751C50.2679 35.6717 50.1246 35.5691 50.1213 35.4632C50.1026 34.7367 50.1042 34.0094 50.1262 33.2837C50.1287 33.1966 50.2932 33.1135 50.3828 33.0288L50.4715 33.1005V35.6741L50.3461 35.7751Z" fill="#0D1853"/>
<path d="M55.5246 34.0247C55.8349 33.6965 56.0727 33.2917 56.4506 33.0344C56.4767 33.0621 56.5027 33.0897 56.5288 33.1174C56.1908 33.4172 55.8536 33.7161 55.5156 34.0158L55.5254 34.0247H55.5246Z" fill="#0D1853"/>
</svg>
