<svg width="80" height="26" viewBox="0 0 80 26" fill="none" xmlns="http://www.w3.org/2000/svg">
<path d="M78.1294 22.3055C78.1294 22.7779 78.5104 23.1622 78.9704 23.1622C79.4304 23.1622 79.8204 22.7784 79.8204 22.3055C79.8204 21.8325 79.4377 21.4549 78.9704 21.4549C78.503 21.4549 78.1294 21.833 78.1294 22.3055ZM78.2908 22.3055C78.2908 21.925 78.5967 21.6197 78.9704 21.6197C79.344 21.6197 79.6578 21.925 79.6578 22.3055C79.6578 22.6859 79.3496 22.9935 78.9704 22.9935C78.5911 22.9935 78.2908 22.6847 78.2908 22.3055Z" fill="#0D1853"/>
<path d="M78.6196 21.8449H79.0384C79.2501 21.8449 79.3838 21.9437 79.3838 22.1017C79.3838 22.188 79.3426 22.315 79.1756 22.3489L79.4183 22.757H79.1739L78.947 22.3811H78.842V22.757H78.6202V21.8449H78.6196ZM78.842 22.0074V22.214H79.0215C79.1016 22.214 79.1519 22.1722 79.1519 22.1051C79.1519 22.0486 79.0999 22.008 79.0266 22.008H78.842V22.0074Z" fill="#0D1853"/>
<path d="M28.4695 0.28669H34.1C34.6667 0.28669 35.0014 0.00109863 35.0014 0.00109863L35.3491 2.55392C35.3491 2.55392 34.788 1.3015 33.2438 1.3015H32.6879C32.4457 1.3015 32.2696 1.44429 32.2696 1.67627V8.12521C32.2696 9.1942 32.9447 9.49165 32.9447 9.49165H29.6914C29.6914 9.49165 30.3213 9.14284 30.3213 8.12521V1.67627C30.3213 1.45558 30.1616 1.3015 29.894 1.3015H29.3409C27.8057 1.3015 27.208 2.55392 27.208 2.55392L27.6228 0.0586684C27.6228 0.0586684 27.8526 0.28669 28.47 0.28669H28.4695Z" fill="#0D1853"/>
<path d="M71.5709 10.8902H78.4736C79.165 10.8902 79.5765 10.5448 79.5765 10.5448L79.9998 13.6683C79.9998 13.6683 79.3197 12.1444 77.4199 12.1444H76.7431C76.4457 12.1444 76.2301 12.3154 76.2301 12.5982V22.2501C76.2301 23.5573 77.0564 23.9247 77.0564 23.9247H73.0688C73.0688 23.9247 73.8387 23.4946 73.8387 22.2501V12.597C73.8387 12.3261 73.6434 12.1432 73.3132 12.1432H72.6405C70.7615 12.1432 70.0244 13.6671 70.0244 13.6671L70.5279 10.6148C70.5279 10.6148 70.8191 10.8897 71.5715 10.8897L71.5709 10.8902Z" fill="#0D1853"/>
<path d="M10.1994 10.3749C10.1994 10.3749 10.1221 11.2887 10.0493 12.6122C9.99795 13.4961 9.96465 15.6296 9.96465 15.6296C9.96465 15.6296 9.72873 11.9914 6.02394 11.9914C4.10269 11.9914 2.73513 13.7219 2.73513 17.5559C2.73513 22.6074 5.26594 23.0047 6.34961 23.0047C6.86717 23.0047 7.54051 22.8805 7.54051 22.1282V18.7942C7.54051 17.732 6.41621 17.1174 6.41621 17.1174H10.9546C10.9546 17.1174 9.92966 17.7139 9.92966 18.7942V21.7433C9.92966 22.5667 10.4145 23.0487 10.4145 23.0487C9.76767 23.3744 8.12637 24.1855 6.14134 24.1855C3.83968 24.1855 2.48453 23.4433 1.49343 22.3099C0.700432 21.4114 0 19.7227 0 17.859C0 14.1982 1.3845 12.5434 2.73739 11.6578C4.1834 10.7119 6.24632 10.7328 6.99247 10.8671C8.98032 11.234 10.1994 10.3744 10.1994 10.3744V10.3749Z" fill="#0D1853"/>
<path d="M46.9665 23.0471H50.9213C50.9213 23.0471 50.1639 22.6971 50.1063 21.5096V13.2636C50.1802 12.1624 50.8632 11.7696 50.8632 11.7696H46.9146C46.9146 11.7696 47.6443 12.1116 47.7228 13.2636V21.5096C47.6686 22.6429 46.9665 23.0471 46.9665 23.0471Z" fill="#0D1853"/>
<path d="M37.5104 13.2636C37.5838 12.1624 38.2295 11.7696 38.2295 11.7696H35.2393C35.2393 11.7696 35.9741 12.1116 36.0492 13.2636V18.8524L32.4782 13.2636C31.8725 12.1624 32.3088 11.7696 32.3088 11.7696H28.4082C28.4082 11.7696 29.2966 12.2127 29.2966 13.2636L29.2994 21.5096C29.2413 22.6429 28.5414 23.0471 28.5414 23.0471H31.5757C31.5757 23.0471 30.816 22.6971 30.759 21.5096L30.7601 14.8135L34.9119 21.5096C35.6355 22.7321 35.842 23.1645 36.4465 23.1645H37.5054L37.5099 13.263L37.5104 13.2636Z" fill="#0D1853"/>
<path d="M57.4787 23.1955L60.2223 13.2631C60.6061 12.1619 61.3963 11.7691 61.3963 11.7691H58.3451C58.3451 11.7691 58.9851 12.1111 58.7374 13.2631L56.9736 19.4812L55.1364 13.2631C54.8881 12.1619 55.4519 11.7691 55.4519 11.7691H51.3628C51.3628 11.7691 52.1976 12.1111 52.6045 13.2631L55.0066 21.5091C55.2996 22.4821 55.426 23.1905 56.3268 23.1905L57.4776 23.195L57.4787 23.1955Z" fill="#0D1853"/>
<path d="M12.0068 23.0533C12.0068 23.0533 12.7372 22.7102 12.8145 21.561L12.8168 13.3116C12.762 12.18 12.0605 11.7747 12.0605 11.7747H16.0237C16.0237 11.7747 15.2708 12.1275 15.2132 13.3116V21.3353C15.2127 21.6186 15.4215 21.7947 15.7184 21.7947H16.8895C18.7854 21.7947 19.4728 20.2651 19.4728 20.2651L19.0467 23.3965C19.0467 23.3965 18.6353 23.0528 17.9399 23.0528H12.0074L12.0068 23.0533Z" fill="#0D1853"/>
<path d="M39.1133 23.0533C39.1133 23.0533 39.8476 22.7102 39.9255 21.561L39.9277 13.3116C39.8713 12.18 39.1663 11.7747 39.1663 11.7747H43.1302C43.1302 11.7747 42.3773 12.1275 42.3186 13.3116L42.3157 21.3353C42.3157 21.6186 42.5336 21.7947 42.831 21.7947H44.0016C45.8913 21.7947 46.5765 20.2651 46.5765 20.2651L46.1503 23.3965C46.1503 23.3965 45.7389 23.0528 45.0447 23.0528H39.1133V23.0533Z" fill="#0D1853"/>
<path d="M41.1206 9.49217H44.3976C44.3976 9.49217 43.7875 9.2094 43.7367 8.2358V1.50239C43.7982 0.606672 44.3502 0.286652 44.3502 0.286652H41.0755C41.0755 0.286652 41.6743 0.566034 41.7358 1.50239V4.20083H38.4447V1.50239C38.5063 0.606672 39.0577 0.286652 39.0577 0.286652H35.7954C35.7954 0.286652 36.3931 0.566034 36.4546 1.50239L36.4558 8.23523C36.4106 9.16538 35.84 9.49161 35.84 9.49161H39.1074C39.1074 9.49161 38.4939 9.20884 38.4453 8.23523V5.26418H41.7364L41.7398 8.23523C41.6912 9.16538 41.1206 9.49161 41.1206 9.49161V9.49217Z" fill="#0D1853"/>
<path d="M49.2704 8.4791H48.3154C48.0721 8.4791 47.8977 8.33517 47.8977 8.10715L47.9 5.22302H49.0779C50.2366 5.22302 50.6842 6.03577 50.6842 6.03577V3.48407C50.6842 3.48407 50.3749 4.20087 49.0593 4.20087H47.9L47.9045 1.68812C47.9045 1.45558 48.0789 1.31335 48.3182 1.31335H49.2737C50.8236 1.31335 51.379 2.56295 51.379 2.56295L51.0364 -3.05176e-05C51.0364 -3.05176e-05 50.7 0.28669 50.1288 0.28669H45.263C45.263 0.28669 45.8602 0.566072 45.9206 1.50243L45.9161 8.27704C45.854 9.22017 45.2568 9.49729 45.2568 9.49729H50.1232C50.6915 9.49729 51.0302 9.7795 51.0302 9.7795L51.3716 7.23119C51.3716 7.23119 50.8197 8.47853 49.2704 8.47853V8.4791Z" fill="#0D1853"/>
<path d="M24.6627 21.8127H23.4944C23.1969 21.8127 22.9785 21.6372 22.9785 21.3567L22.9841 17.7151H24.4302C25.8502 17.7151 26.3915 18.7141 26.3915 18.7141V15.5828C26.3915 15.5828 26.0161 16.4627 24.4036 16.4627H22.9853L22.9864 13.4668C22.9864 13.1852 23.2031 13.0085 23.4989 13.0085H24.6689C26.5591 13.0085 27.2471 14.5375 27.2471 14.5375L26.821 11.4197C26.821 11.4197 26.4095 11.7696 25.7142 11.7696H19.78C19.78 11.7696 20.5177 12.1116 20.5939 13.2636L20.5865 21.5616C20.5109 22.7107 19.7749 23.0539 19.7749 23.0539H25.7091C26.4045 23.0539 26.8137 23.3976 26.8137 23.3976L27.2398 20.2849C27.2398 20.2849 26.554 21.8133 24.661 21.8133L24.6627 21.8127Z" fill="#0D1853"/>
<path d="M66.7431 21.8127H65.5753C65.2784 21.8127 65.0612 21.6372 65.0612 21.3567L65.0662 17.7151H66.5117C67.9317 17.7151 68.4758 18.7141 68.4758 18.7141V15.5828C68.4758 15.5828 68.0988 16.4627 66.4874 16.4627H65.0662L65.0679 13.4668C65.0679 13.1852 65.2858 13.0085 65.5849 13.0085H66.7527C68.6485 13.0085 69.3309 14.5375 69.3309 14.5375L68.9093 11.4197C68.9093 11.4197 68.4984 11.7696 67.7985 11.7696H61.8711C61.8711 11.7696 62.6009 12.1116 62.6777 13.2636L62.6709 21.5616C62.5936 22.7107 61.8638 23.0539 61.8638 23.0539H67.7929C68.4922 23.0539 68.9037 23.3976 68.9037 23.3976L69.3236 20.2849C69.3236 20.2849 68.6446 21.8133 66.7442 21.8133L66.7431 21.8127Z" fill="#0D1853"/>
</svg>
