<svg width="80" height="81" viewBox="0 0 80 81" fill="none" xmlns="http://www.w3.org/2000/svg">
<path fill-rule="evenodd" clip-rule="evenodd" d="M0.0102702 39.1077C-0.498247 62.0493 17.9461 80.0593 40.0189 80.0487C61.088 80.1864 79.5933 63.1617 79.9932 40.8902C80.3958 18.3644 62.8784 0.235257 40.26 0.00218648C18.6427 -0.222938 0.502897 16.9634 0.0102702 39.1077ZM79.148 40.8743C79.6327 19.0611 61.9908 0.868312 40.159 0.884203L40.1564 0.881554C18.8648 0.669672 1.1038 18.0652 0.860137 39.37C0.608527 61.313 17.8743 78.9761 39.8544 79.1774C61.1963 79.3707 78.6766 62.1367 79.148 40.8743Z" fill="#0D1853"/>
<path d="M39.1235 1.91181C60.3038 1.46951 77.6808 18.1738 78.1178 39.3964C78.5522 60.439 61.7711 77.726 40.4955 78.155C19.8767 78.5708 2.31429 61.6838 1.91171 41.0544C1.49589 19.7761 18.0598 2.35147 39.1235 1.91446V1.91181Z" fill="#0D1853"/>
<path fill-rule="evenodd" clip-rule="evenodd" d="M76.346 40.4081C76.5234 20.1469 60.423 3.86106 40.032 3.66507H40.0346C20.3958 3.47702 3.9193 19.7443 3.67563 39.4811C3.43462 59.1888 18.8755 75.7713 38.9593 76.3566C60.2906 76.9763 76.1765 59.7318 76.346 40.4081ZM39.7887 64.433C52.9705 64.7243 64.0678 53.9157 64.4121 40.3393L64.4148 40.3366C64.5022 27.0119 54.1676 16.1794 41.1845 15.6709C27.2983 15.1279 15.9308 25.7644 15.6183 39.2772C15.3031 52.8165 25.7462 64.1231 39.7887 64.433Z" fill="white"/>
<path d="M65.4786 18.0334C65.3753 19.7761 64.4456 20.9918 62.9492 21.7757C61.4952 22.5385 60.1232 22.2684 58.9208 21.201C58.1819 20.5442 57.5171 19.8026 56.7914 19.1272C56.4895 18.8465 56.5451 18.6743 56.8046 18.4121C58.4388 16.7753 60.0597 15.1226 61.6912 13.4806C61.8607 13.311 62.009 13.0277 62.3268 13.3428C63.2617 14.2725 64.3397 15.0644 65.0151 16.2324C65.3382 16.7886 65.5262 17.3765 65.4759 18.0334H65.4786Z" fill="#0D1853"/>
<path d="M13.3803 18.3354C13.3989 17.6918 13.8624 16.982 14.4848 16.3649C15.1813 15.6736 16.0554 15.3054 16.977 15.0115C17.6524 14.7969 17.8537 15.0485 18.0365 15.6815C18.2483 16.4231 17.7663 16.3172 17.3796 16.4205C16.3679 16.6906 15.4621 17.1144 14.9483 18.1155C14.7629 18.481 14.739 18.8094 15.0092 19.1246C15.3402 19.514 15.6978 19.2835 15.9706 19.0796C16.6566 18.5658 17.271 17.9513 17.9755 17.4719C19.5011 16.4311 21.3233 17.0906 21.8609 18.8253C22.1099 19.6278 21.8318 20.3324 21.4504 20.9945C20.6214 22.4273 19.3104 23.1689 17.7266 23.5318C16.9294 23.7145 16.9982 23.108 16.834 22.6869C16.593 22.0698 17.1174 22.1651 17.4167 22.083C18.2483 21.8553 19.0561 21.5878 19.6997 20.9706C20.0652 20.6184 20.3513 20.2238 20.4519 19.7179C20.5446 19.2544 20.3725 18.881 20.0149 18.5843C19.6441 18.2771 19.2707 18.3645 18.9237 18.6082C18.5476 18.873 18.198 19.1776 17.8325 19.4557C17.3611 19.8159 16.9241 20.2423 16.405 20.5124C14.9403 21.2726 13.375 20.2714 13.3777 18.3407L13.3803 18.3354Z" fill="#0D1853"/>
<path d="M52.6868 11.0864C51.9902 12.461 51.3307 13.6793 50.756 14.9347C50.5044 15.4856 50.2475 15.3426 49.8608 15.1651C49.4317 14.9665 49.2622 14.7996 49.5324 14.2858C50.56 12.3338 51.5241 10.3474 52.5332 8.38488C52.6471 8.1624 52.6206 7.71215 53.0576 7.8075C53.4416 7.89225 53.6429 8.17829 53.7224 8.58087C54.0746 10.3898 54.4454 12.1935 54.8241 14.0819C55.232 13.8859 55.285 13.5045 55.4386 13.2211C55.9021 12.3497 56.3365 11.4598 56.7814 10.5779C56.98 10.1832 57.0674 9.72504 57.7428 10.1144C58.344 10.4613 58.2964 10.7341 58.0183 11.2585C57.0145 13.1496 56.0716 15.0751 55.0784 16.9714C54.9698 17.178 54.9804 17.6309 54.5249 17.4958C54.1832 17.3925 54.0005 17.1648 53.9263 16.7913C53.6111 15.1704 53.2721 13.5575 52.9331 11.9419C52.8801 11.6876 52.7901 11.4413 52.6868 11.0864Z" fill="#0D1853"/>
<path d="M48.5284 9.51577C48.5495 11.8067 46.8227 13.9123 44.8707 13.9732C42.6804 14.0421 40.9721 12.3153 40.9589 10.0216C40.943 7.58234 42.5877 5.57476 44.6456 5.52444C46.8227 5.46882 48.5045 7.19831 48.5284 9.51577Z" fill="#0D1853"/>
<path d="M69.5547 36.8724C71.1729 36.6341 72.5819 36.4513 73.9777 36.213C74.4968 36.1256 74.5922 36.3321 74.6266 36.7744C74.6584 37.1558 74.7564 37.4419 74.1975 37.5266C71.9463 37.8736 69.703 38.2762 67.4517 38.639C67.2372 38.6734 66.9194 38.8668 66.779 38.4695C66.6598 38.1305 66.689 37.8709 66.9644 37.5796C68.1695 36.3109 69.3454 35.0105 70.5293 33.7207C70.6141 33.628 70.6856 33.5273 70.863 33.3022C69.5547 33.3419 68.4237 33.6518 67.2769 33.816C66.9512 33.8637 66.6121 33.9511 66.297 33.9061C65.8811 33.8478 65.905 33.4558 65.8626 33.1274C65.799 32.6295 66.1725 32.5977 66.4824 32.5474C68.633 32.1898 70.7836 31.8349 72.9395 31.5171C73.2176 31.4747 73.6413 31.2072 73.8214 31.6257C73.9777 31.9885 73.7314 32.3355 73.4851 32.6057C72.4151 33.7763 71.3292 34.9364 70.2512 36.0991C70.0552 36.3109 69.8645 36.5281 69.5547 36.8724Z" fill="#0D1853"/>
<path d="M66.7951 29.8749C64.7742 29.8855 63.0845 28.2514 63.0845 26.2888C63.0845 24.1223 65.2563 22.1253 67.6638 22.0803C69.7164 22.0406 71.4141 23.7065 71.4009 25.7485C71.3876 27.9362 69.2397 29.8643 66.7951 29.8749Z" fill="#0D1853"/>
<path d="M14.071 33.3445C13.8194 35.1217 13.5811 36.6869 13.3824 38.2602C13.3136 38.8031 13.0487 38.8773 12.5799 38.8084C10.3604 38.4826 8.13833 38.1595 5.91356 37.8708C5.47656 37.8126 5.36267 37.6695 5.42623 37.2458C5.6646 35.6805 5.88708 34.1126 6.08307 32.5393C6.15193 31.9779 6.48565 32.0653 6.86174 32.0997C7.29345 32.1368 7.53976 32.2612 7.4603 32.7671C7.29345 33.8424 7.22194 34.9389 6.99946 36.001C6.78758 37.0101 7.60068 36.6075 7.96617 36.7717C8.54885 37.0312 8.60182 36.5942 8.6442 36.1652C8.68657 35.7388 8.81105 35.3176 8.8243 34.8939C8.84284 34.2635 9.22422 34.2503 9.69301 34.2741C10.2916 34.3033 10.273 34.6926 10.2227 35.1111C10.1909 35.3733 10.1512 35.6355 10.1141 35.895C9.93403 37.1239 9.94197 37.0869 11.1868 37.2484C11.9496 37.3491 12.2197 37.1504 12.2488 36.3479C12.2833 35.3627 12.5084 34.388 12.6408 33.4054C12.7017 32.9446 12.7838 32.5764 13.4195 32.7168C13.9148 32.8254 14.3041 32.9181 14.0657 33.3445H14.071Z" fill="#0D1853"/>
<path d="M17.806 24.6653C17.5332 25.7909 17.0273 26.2068 16.0579 25.9551C15.3084 25.7618 14.7972 26.0452 14.5959 26.8292C14.5483 27.0172 14.4556 27.2079 14.339 27.3615C13.5577 28.3944 13.4942 29.3241 14.5827 30.2272C15.3375 30.8549 14.5085 31.284 14.2728 31.9514C12.4109 29.7319 10.6232 27.6158 8.85658 25.4811C8.56259 25.1262 8.95987 24.3289 9.43396 24.3448C12.2017 24.4296 14.9694 24.5541 17.8033 24.6653H17.806Z" fill="#0D1853"/>
<path d="M53.0604 67.3278L52.8909 69.9922C52.1705 69.4175 51.5189 68.8983 50.87 68.3819L50.6873 68.5143C51.0846 69.4307 51.4792 70.3497 51.8765 71.2661C52.0433 71.6502 52.2817 71.9759 51.6196 72.2302C51.0554 72.4474 50.9071 72.2938 50.7058 71.8064C50.0278 70.159 49.2862 68.5408 48.6055 66.8961C48.5075 66.6577 48.0626 66.2975 48.5764 66.0777C49.0028 65.8949 49.4292 65.3996 49.9828 65.9744C50.5204 66.5359 51.1508 67.0047 51.9692 67.7145C51.9692 66.6921 52.0168 65.9452 51.9559 65.2063C51.8871 64.3747 52.5518 64.3137 53.0312 64.1654C53.5239 64.0145 53.5053 64.5892 53.6298 64.8646C54.3449 66.4591 54.9991 68.0826 55.7195 69.6744C55.9473 70.1776 55.8678 70.3789 55.3646 70.6225C54.819 70.8874 54.6998 70.6278 54.5329 70.2279C54.1224 69.2347 53.6881 68.2521 53.2643 67.2642L53.0577 67.3304L53.0604 67.3278Z" fill="#0D1853"/>
<path d="M11.2233 58.1851C11.1836 55.7856 14.1076 53.6164 16.0939 54.2574C17.699 54.7738 18.3955 56.3815 17.6566 57.8991C17.1216 58.9982 16.2105 59.6683 15.0955 60.1027C14.6637 60.2722 14.1632 60.2854 14.0149 60.929C13.9195 61.3342 13.4401 61.0694 13.1382 61.0773C12.6429 61.0906 12.868 60.786 12.9316 60.545C13.0296 60.1662 12.6535 60.153 12.4734 60.0126C11.7636 59.4644 11.2498 58.8155 11.226 58.1878L11.2233 58.1851Z" fill="#0D1853"/>
<path d="M65.8772 56.0901C66.791 56.6172 67.6888 57.1707 68.6238 57.6581C69.0978 57.9044 69.0316 58.1295 68.7986 58.4976C68.5814 58.8446 68.4331 59.0618 67.9669 58.7837C66.3858 57.8382 64.7702 56.9456 63.181 56.0107C62.9533 55.8756 62.4315 55.865 62.6699 55.3777C62.8473 55.0148 63.0036 54.6016 63.5783 54.6202C64.8205 54.6573 66.0626 54.6308 67.3048 54.6308L67.3631 54.3924C66.5606 53.921 65.7501 53.4628 64.9608 52.9728C64.6536 52.7821 64.1027 52.7212 64.5159 52.0697C64.8496 51.5452 65.08 51.5373 65.5833 51.8472C67.0426 52.7424 68.5231 53.6084 70.0381 54.403C70.7346 54.7685 70.875 55.1102 70.3559 55.6981C69.127 55.9815 67.8769 55.7273 66.6427 55.8332C66.3858 55.8544 65.9779 55.5684 65.8746 56.0928L65.8772 56.0901Z" fill="#0D1853"/>
<path d="M32.0384 73.242C31.122 73.2102 30.5631 72.8315 30.5684 71.8436C30.5684 71.5814 30.5075 71.3192 30.4572 71.0596C30.3857 70.6941 30.2771 70.326 29.8401 70.2677C29.2918 70.1936 29.5011 70.7259 29.3581 70.9643C29.1939 71.2344 29.178 71.5946 29.0694 71.9045C28.876 72.4607 28.5026 72.1429 28.1742 72.082C27.7822 72.0105 27.7345 71.8542 27.8563 71.4755C28.4549 69.6268 29.019 67.7649 29.5911 65.9083C29.6838 65.6063 29.7447 65.36 30.1897 65.5454C30.7671 65.7838 31.4001 65.8818 31.9775 66.1148C33.7652 66.8326 34.1042 69.0256 32.4939 70.1221C31.7364 70.6359 31.7523 71.0941 31.8768 71.7933C31.9616 72.27 32.184 72.7415 32.0384 73.2447V73.242Z" fill="#0D1853"/>
<path d="M21.5551 67.0895C21.7272 65.707 22.3894 64.3668 23.8566 63.5352C24.7677 63.0187 25.6921 63.0558 26.5528 63.6676C27.4057 64.2715 27.7659 65.1084 27.6228 66.1519C27.4083 67.7172 26.6959 68.962 25.2577 69.693C23.4938 70.5882 21.5233 69.3222 21.5551 67.0895Z" fill="#0D1853"/>
<path d="M47.7338 70.4027C47.7444 72.6063 46.5764 73.9041 44.884 73.8246C43.3479 73.7531 42.3282 72.4765 42.0766 70.31C41.8991 68.7818 42.7625 67.2774 44.0338 66.9013C45.0562 66.5968 46.2904 67.0391 46.9022 67.9608C47.4425 68.7739 47.7047 69.6823 47.7338 70.4027Z" fill="#0D1853"/>
<path d="M25.6237 17.5487C25.4251 17.5275 25.3748 17.2759 25.2609 17.0931C24.3233 15.5808 23.3751 14.0738 22.4693 12.5429C22.2098 12.1033 22.0006 12.0079 21.5794 12.3231C21.2113 12.5986 20.7928 12.8025 20.4035 13.0514C20.0062 13.3057 19.7043 13.552 19.3335 12.9137C18.9786 12.2993 19.1984 12.1033 19.691 11.8146C21.2855 10.885 22.856 9.91559 24.4319 8.95947C24.7868 8.74494 25.0755 8.54895 25.3404 9.12368C25.5522 9.58452 25.727 9.87851 25.1285 10.191C24.5034 10.5195 23.5446 10.7817 23.4599 11.4041C23.3857 11.9338 24.0955 12.5668 24.4557 13.16C25.1073 14.23 25.7562 15.3 26.3998 16.3754C26.6938 16.8653 26.2859 17.5434 25.6211 17.5513L25.6237 17.5487Z" fill="#0D1853"/>
<path d="M18.1049 65.7467C16.4257 65.7255 15.3213 63.7259 16.2906 62.2136C17.1487 60.8787 18.3803 59.8431 19.4371 58.6672C19.8291 58.2302 19.988 58.7016 20.2104 58.8764C20.4965 59.0963 20.658 59.2975 20.3005 59.6577C19.4424 60.5238 18.6372 61.4402 17.8029 62.3328C17.5275 62.6294 17.26 62.9552 17.2467 63.3551C17.2335 63.7656 17.4825 64.0887 17.8691 64.2874C18.3326 64.5257 18.7087 64.3536 19.0239 64.0305C19.9429 63.0849 20.8673 62.1394 21.7439 61.1542C22.0962 60.7569 22.3213 60.7807 22.6709 61.1224C22.9888 61.4296 23.153 61.6309 22.7398 62.0335C21.7969 62.9552 20.9176 63.9404 20.0065 64.8965C19.5086 65.4209 18.8915 65.699 18.1022 65.752L18.1049 65.7467Z" fill="#0D1853"/>
<path d="M63.3402 65.1163C62.2092 63.1405 61.126 61.223 60.011 59.3214C59.7911 58.9453 59.7805 58.6884 60.1037 58.3785C60.4135 58.0819 60.6466 57.9229 61.1154 58.1507C62.8608 58.9982 64.6406 59.7743 66.3992 60.598C66.627 60.7039 67.1964 60.6986 66.8707 61.1647C66.6614 61.4667 66.4813 62.1659 65.8457 61.7262C65.0458 61.1753 64.5505 61.4587 63.9838 62.142C63.5573 62.6532 63.3931 63.0134 63.8513 63.5458C64.5055 64.3085 63.7083 64.5999 63.3402 65.1163Z" fill="#0D1853"/>
<path d="M59.8192 67.7384C59.1094 68.7024 58.6486 68.4853 58.095 67.6616C57.1574 66.2711 56.1272 64.9389 55.1048 63.6093C54.795 63.2068 54.7791 62.9684 55.2373 62.6903C55.7431 62.3857 56.1854 61.9752 56.6992 61.6838C57.7242 61.1012 58.8101 61.3766 59.565 62.3592C60.3118 63.3312 60.4178 64.6317 59.5411 65.2991C58.4896 66.1016 58.8393 66.6657 59.5252 67.357C59.6391 67.4735 59.7292 67.6165 59.8219 67.7357L59.8192 67.7384Z" fill="#0D1853"/>
<path d="M34.9344 13.8408C34.4444 13.9176 34.3014 13.6501 34.2484 13.2184C33.9941 11.0546 33.7531 8.88542 33.4406 6.72952C33.3426 6.04885 33.5624 5.90583 34.1795 5.81313C34.9741 5.69395 34.7675 6.28987 34.8152 6.61564C35.0562 8.24978 35.284 9.88657 35.4323 11.5313C35.4932 12.2067 35.7157 12.3576 36.3513 12.2491C37.326 12.0795 38.3192 12.016 39.2965 11.8597C39.8315 11.775 40.0116 11.963 40.0142 12.4768C40.0169 12.8979 40.0725 13.1999 39.4528 13.2555C37.9404 13.3906 36.4387 13.6369 34.9317 13.8382L34.9344 13.8408Z" fill="#0D1853"/>
<path d="M37.2722 70.808C37.2643 71.4172 37.3596 71.9919 37.7834 72.4686C38.3104 73.0619 38.9064 72.9983 39.4546 72.5719C39.9896 72.1535 40.0903 72.609 40.3419 72.8871C40.7021 73.2844 40.4955 73.4751 40.1485 73.7134C38.6309 74.757 36.7001 74.1504 36.1678 72.3706C35.7599 71.004 35.8023 69.6162 36.6366 68.3793C37.553 67.0233 39.3434 66.8061 40.5193 67.8496C40.7762 68.0774 40.9669 68.2813 40.6173 68.5462C40.3684 68.7342 40.3101 69.3434 39.8439 69.0547C39.3036 68.721 38.8269 68.2442 38.1621 68.7104C37.4417 69.2162 37.2749 69.9843 37.2722 70.808Z" fill="#0D1853"/>
<path d="M65.4263 50.5309C65.4263 49.5801 65.8024 49.0689 66.8326 49.1219C67.3412 49.1484 67.8603 48.9895 68.6151 48.8809C68.1013 48.4359 67.757 48.0572 67.3412 47.787C66.4539 47.2123 66.3082 46.5263 66.9333 45.647C67.3517 46.0417 67.7888 46.4363 68.2046 46.8521C69.3514 48.0016 70.5088 49.1378 72.2303 49.355C72.8421 49.4318 72.7494 49.7496 72.6197 50.184C72.4952 50.5971 72.3945 50.8699 71.894 50.6157C70.1512 49.7258 68.3635 50.184 66.5863 50.4647C66.2023 50.5256 65.8209 50.6501 65.4289 50.5309H65.4263Z" fill="#0D1853"/>
<path d="M8.22518 51.7466C7.98946 51.8101 7.84909 51.728 7.79612 51.4817C7.76963 51.3546 7.70872 51.2328 7.67428 51.1056C7.41473 50.1601 6.69433 48.9577 7.03334 48.3353C7.375 47.7102 8.77078 47.6599 9.70835 47.3659C10.7466 47.0428 11.7927 46.7488 12.823 46.4045C13.2839 46.2509 13.4852 46.3833 13.5858 46.8256C13.6759 47.2229 13.795 47.5248 13.1938 47.6811C11.8245 48.036 10.4897 48.5233 9.12038 48.8835C8.56154 49.0318 8.43441 49.2411 8.65689 49.7496C8.78667 50.0489 8.86612 50.3746 8.95882 50.6898C9.17865 51.4341 8.98001 51.7174 8.22783 51.7439L8.22518 51.7466Z" fill="#0D1853"/>
<path d="M9.35962 54.7129C8.96499 54.6255 9.00736 54.2176 8.84315 53.9607C8.69219 53.7224 8.76105 53.5582 9.0259 53.4363C10.8772 52.5915 12.7285 51.7439 14.5719 50.8779C15.0778 50.6395 15.046 51.1136 15.1334 51.3069C15.2288 51.5162 15.6578 51.8234 15.1943 52.0406C13.2953 52.9358 11.3778 53.7992 9.46821 54.6732C9.43907 54.6864 9.40729 54.697 9.35697 54.7129H9.35962Z" fill="#0D1853"/>
<path d="M70.448 42.7681C70.3739 43.2819 70.1196 43.5864 69.6694 43.5812C69.1847 43.5732 68.8377 43.2713 68.8642 42.7681C68.8854 42.3416 69.1609 42.0212 69.6296 42.0132C70.162 42.0026 70.3527 42.3734 70.448 42.7681Z" fill="#0D1853"/>
<path d="M9.29068 42.0026C9.81244 42.0238 10.0376 42.376 10.0905 42.821C10.1567 43.3983 9.65617 43.5281 9.26684 43.5652C8.82718 43.6076 8.51995 43.258 8.51201 42.8369C8.50141 42.3734 8.78216 42.0529 9.29333 42.0026H9.29068Z" fill="#0D1853"/>
<path d="M65.8767 56.0901C65.89 55.7696 65.89 55.759 66.1283 55.7564C67.54 55.7325 68.949 55.7167 70.3607 55.6981C69.5688 56.1245 68.708 55.8226 67.8843 55.9365C67.2195 56.0265 66.5282 55.7802 65.8794 56.0927L65.8767 56.0901Z" fill="#0D1853"/>
<path d="M40.019 56.3522C35.0901 56.3522 30.1611 56.339 25.2349 56.3681C24.541 56.3734 24.0722 56.1589 23.614 55.6583C21.6329 53.4918 20.0861 51.0578 18.9605 48.3484C18.738 47.8107 18.6533 47.5671 19.4293 47.5671C33.1566 47.5883 46.884 47.5883 60.6086 47.5671C61.3714 47.5671 61.3105 47.7948 61.0827 48.3431C59.8962 51.177 58.262 53.7064 56.1459 55.9364C55.7698 56.3337 55.3725 56.3575 54.9037 56.3575C49.943 56.3522 44.9797 56.3549 40.019 56.3549V56.3522Z" fill="white"/>
<path d="M26.5779 58.1241H53.3201C47.0139 63.3921 35.3842 64.7958 26.5779 58.1241Z" fill="white"/>
<path d="M64.0706 18.0757C63.9382 19.2516 63.2469 20.0277 62.2166 20.5494C61.2393 21.042 60.4421 20.6527 59.6873 20.0277C58.7692 19.2667 58.7171 18.4792 59.531 17.6652C60.2276 16.9633 60.9401 16.2747 61.5995 15.5384C61.9544 15.1411 62.1928 15.1623 62.5424 15.5305C63.2363 16.2641 64.113 16.8733 64.0706 18.0757Z" fill="white"/>
<path d="M42.3719 9.94216C42.3613 8.30801 43.4446 6.97845 44.7821 6.97845C46.0216 6.97845 47.1578 8.22326 47.1366 9.55547C47.1101 11.134 45.9686 12.5033 44.6602 12.5298C43.3916 12.5563 42.3798 11.4121 42.3719 9.94216Z" fill="white"/>
<path d="M67.6329 23.5212C68.9519 23.5344 69.9768 24.4852 69.9742 25.6956C69.9715 27.1179 68.348 28.5375 66.788 28.4845C65.5352 28.4421 64.5209 27.3933 64.5553 26.1777C64.595 24.8269 66.1232 23.5079 67.6329 23.5238V23.5212Z" fill="white"/>
<path d="M10.8699 25.7565C11.8525 25.8095 12.5914 25.8492 13.3913 25.8916C13.2297 26.6041 12.843 27.1152 12.5146 27.727C12.0008 27.1099 11.5188 26.5352 10.8699 25.7565Z" fill="white"/>
<path d="M14.5422 58.9002C14.2694 58.5692 15.0877 58.0474 14.2667 57.8594C13.6152 57.711 13.5225 57.7773 13.1252 58.8843C12.3915 58.2302 12.381 57.5468 12.9663 56.8238C13.5437 56.1113 14.2482 55.6161 15.1884 55.4969C15.7923 55.4201 16.171 55.6982 16.4968 56.1722C16.8172 56.6437 16.6451 57.0383 16.3855 57.4303C15.922 58.1242 15.3261 58.6513 14.5448 58.8976L14.5422 58.9002Z" fill="white"/>
<path d="M31.1754 69.2956C30.7834 69.142 30.0657 69.3141 30.0975 68.7553C30.1292 68.1832 30.1663 67.2774 30.8364 67.1476C31.3131 67.0576 32.1368 67.3463 32.1607 68.17C32.1766 68.7818 31.8799 69.2347 31.1781 69.2956H31.1754Z" fill="white"/>
<path d="M26.3235 65.9452C26.1672 66.9199 25.7726 67.7648 24.9436 68.358C24.5146 68.6653 24.0405 68.8136 23.5584 68.5275C23.0314 68.2124 22.801 67.7144 22.9042 67.1C23.0658 66.1492 23.5319 65.3705 24.3159 64.8037C24.7052 64.523 25.1264 64.3588 25.6031 64.6421C26.0984 64.9388 26.3871 65.3387 26.3235 65.9452Z" fill="white"/>
<path d="M46.3835 70.5855C46.41 71.6687 45.912 72.5189 45.1837 72.5189C44.262 72.5189 43.8038 71.8938 43.5787 71.0622C43.4304 70.5166 43.3138 69.9683 43.4516 69.4069C43.5999 68.8109 43.8541 68.2547 44.5533 68.1726C45.2181 68.0958 45.6816 68.4587 45.9756 69.0281C46.2325 69.5287 46.402 70.061 46.3835 70.5828V70.5855Z" fill="white"/>
<path d="M62.7442 61.7023C62.3363 61.0137 62.0238 60.4814 61.6318 59.8166C62.3655 60.0576 63.0541 60.2112 63.4169 60.7065C63.6288 60.9978 63.0144 61.2706 62.7442 61.6997V61.7023Z" fill="white"/>
<path d="M57.769 62.7035C58.3755 62.8359 58.7992 63.2358 58.8072 63.8344C58.8151 64.3721 58.4258 64.7985 57.9146 65.0368C57.8113 65.0845 56.5374 63.4981 56.5983 63.3789C56.8367 62.9233 57.3214 62.8624 57.769 62.7035Z" fill="white"/>
<path fill-rule="evenodd" clip-rule="evenodd" d="M40.0578 45.7953C38.4994 45.7953 36.9409 45.7947 35.3825 45.7942C29.9276 45.7924 24.4727 45.7905 19.0179 45.8111C18.3293 45.8111 18.083 45.6496 17.9346 44.9371C15.5642 33.4505 21.7114 22.4961 32.7638 18.5869C41.7979 15.3901 52.3099 18.7035 58.1393 26.5563C62.2975 32.1606 63.3966 38.3873 62.0671 45.1517C61.9371 45.8178 61.5776 45.8098 61.1537 45.8002C61.1023 45.7991 61.05 45.7979 60.9971 45.7979H40.0552L40.0578 45.7953ZM44.6933 23.1398C44.7058 23.1693 44.7196 23.1958 44.7323 23.2203C44.7572 23.2683 44.7781 23.3086 44.7781 23.349C44.7781 23.5371 44.7973 23.7376 44.8166 23.9383C44.8617 24.4072 44.9069 24.8771 44.7066 25.1924C44.5092 25.506 44.0962 25.4129 43.6742 25.3177C43.4618 25.2699 43.2472 25.2215 43.0565 25.2241L42.9792 25.2253C41.0145 25.2556 41.0145 25.2556 41.0145 27.2741C41.0145 27.8693 41.0163 28.4646 41.0181 29.0601V29.0602C41.0228 30.648 41.0275 32.236 40.9986 33.8213C40.988 34.4437 41.1708 34.6185 41.7746 34.584C42.1051 34.5669 42.437 34.5809 42.769 34.595C43.3602 34.6199 43.9519 34.6449 44.5371 34.494C45.0058 34.3722 45.0879 34.592 45.0932 35.0105L45.0935 35.0486C45.0986 35.7986 45.1012 36.1757 44.914 36.3586C44.7246 36.5436 44.3409 36.5298 43.5692 36.5021C43.5401 36.5011 43.5105 36.5 43.4803 36.4989C42.2249 36.4539 40.9668 36.4619 39.7141 36.5016C39.1367 36.5201 38.999 36.3347 39.0281 35.7759C39.057 35.2542 39.054 34.7298 39.0511 34.2055C39.048 33.6704 39.045 33.1353 39.0758 32.6029C39.1148 31.9038 38.7192 31.9447 38.3408 31.9838C38.282 31.9898 38.2236 31.9959 38.1673 31.9991C38.0762 32.0042 37.9754 31.9938 37.8735 31.9832C37.5046 31.9449 37.122 31.9051 37.1344 32.6003C37.1662 34.3192 37.153 36.0407 37.1371 37.7596C37.1344 38.1357 37.243 38.2814 37.6403 38.2814C39.9769 38.2711 42.3119 38.272 44.6652 38.2729L44.6753 38.2729C45.3462 38.2732 46.0186 38.2734 46.693 38.2734V40.1936C45.8867 40.1936 45.0839 40.1951 44.2834 40.1966L44.2817 40.1967C42.0879 40.2008 39.9125 40.2049 37.7356 40.1777C37.1083 40.1709 37.1222 40.4905 37.1375 40.8425C37.1399 40.8977 37.1424 40.9537 37.1424 41.0094C37.1424 41.0689 37.1398 41.1294 37.1374 41.1893V41.1893C37.1212 41.5771 37.1059 41.9441 37.778 41.9258C38.6119 41.903 39.4473 41.9078 40.283 41.9125H40.2831C41.0028 41.9166 41.7227 41.9207 42.4421 41.9072C43.0911 41.8957 43.7409 41.906 44.3922 41.9164C45.8271 41.9393 47.2688 41.9623 48.7244 41.751V43.7983C47.6532 43.7983 46.5821 43.7969 45.5112 43.7955C42.4331 43.7914 39.356 43.7873 36.2789 43.8168C35.5056 43.8248 35.1586 43.7188 35.2301 42.8316C35.2452 42.6468 35.2722 42.4487 35.2997 42.2465L35.2997 42.2464C35.3976 41.5267 35.5026 40.7551 35.1056 40.3499C34.7024 39.9362 33.9112 40.047 33.1835 40.1489C32.9935 40.1756 32.8079 40.2016 32.6346 40.2175C31.5725 40.3155 31.3447 39.9341 31.3553 38.9223C31.4083 34.0279 31.3951 29.1334 31.3633 24.2389C31.358 23.5238 31.4983 23.2695 32.2744 23.2934C33.249 23.3251 34.225 23.3198 35.201 23.3146C36.177 23.3093 37.153 23.304 38.1276 23.3357C38.8904 23.3596 39.1155 23.1345 39.0467 22.4061C39.0188 22.1198 39.0265 21.8284 39.0342 21.5375V21.5375C39.0441 21.1637 39.0539 20.7907 38.9884 20.4303C38.8692 19.7655 39.0811 19.5934 39.6797 19.6755C39.7009 19.679 39.7234 19.6778 39.7455 19.6766C39.7564 19.6761 39.7672 19.6755 39.7777 19.6755C40.6164 19.6649 41.0278 20.0833 41.0119 20.9309C40.9642 23.4735 41.0648 23.5662 43.6233 23.2881C43.8602 23.2619 44.0949 23.2255 44.3279 23.1893L44.328 23.1893C44.4493 23.1704 44.5701 23.1517 44.6907 23.1345L44.6933 23.1398ZM42.1086 30.516C42.4185 32.0521 43.5732 33.0321 45.0908 33.0533H45.0882C46.0099 33.0665 47.0587 32.6401 47.6308 31.917C47.6782 31.8569 47.744 31.7962 47.8122 31.7331C48.0716 31.4936 48.3672 31.2205 47.8347 30.8179C47.7725 30.7708 47.7125 30.7219 47.6538 30.6741C47.2506 30.3452 46.9132 30.0701 46.386 30.8285C45.647 31.8932 44.193 31.6628 43.7851 30.5266C43.507 29.7506 43.6712 29.0646 44.3678 28.6143C45.1809 28.0899 45.9436 28.3627 46.4575 29.0725C46.8819 29.6615 47.1308 29.3925 47.3699 29.134C47.4696 29.0263 47.5675 28.9205 47.6758 28.8792C48.1843 28.6832 47.9777 28.3389 47.7314 28.0211C46.8971 26.9484 45.1491 26.5299 43.8646 27.102C42.5297 27.6979 41.8172 29.0831 42.1086 30.516Z" fill="white"/>
<path d="M33.8204 52.5279C33.447 52.9172 34.0827 53.7382 33.1345 53.7435C32.7875 53.7435 32.573 53.7197 32.6604 53.2668C32.8749 52.1385 33.0471 51.005 33.2484 49.8052C34.0535 50.3667 34.2151 51.238 34.7766 51.9611C35.0679 51.4314 35.3407 50.9414 35.6109 50.4488C35.7327 50.2289 35.7777 49.8873 36.1247 49.9614C36.3948 50.0197 36.3683 50.3269 36.4054 50.5388C36.5511 51.3811 36.6967 52.2259 36.7974 53.0735C36.8239 53.2933 37.0993 53.7065 36.5511 53.7329C36.1829 53.7515 35.8042 53.7727 35.828 53.2085C35.836 53.0284 35.8704 52.8086 35.6188 52.6073C35.3328 53.0205 35.0494 53.431 34.7607 53.8521C34.2919 53.5158 34.2469 52.9146 33.8231 52.5279H33.8204Z" fill="#0D1853"/>
<path d="M52.9511 53.7383C52.1672 53.9343 51.95 53.5052 52.0215 52.7106C52.0745 52.1253 52.0851 51.5267 52.0189 50.9441C51.9235 50.1151 52.2334 49.8767 53.0491 49.9111C54.5323 49.9747 55.3693 50.6395 55.3481 51.8869C55.3295 53.0708 54.5005 53.7383 52.9511 53.7383Z" fill="#0D1853"/>
<path d="M48.1684 51.0844C48.3458 51.487 48.6504 51.3228 48.8808 51.3546C49.1907 51.3943 49.4688 51.3996 49.4609 51.8366C49.4556 52.2392 49.2596 52.3107 48.9047 52.3319C48.6637 52.3451 48.1843 52.1014 48.2134 52.5702C48.2346 52.9039 48.6981 52.7344 48.9682 52.7768C49.294 52.8271 49.7495 52.6391 49.7522 53.2377C49.7548 53.8044 49.3152 53.7276 48.9788 53.7594C47.1672 53.9263 47.1672 53.921 47.1672 52.1597V51.6644C47.1672 49.8237 47.4533 49.6092 49.3125 49.9482C49.6648 50.0117 49.7284 50.1468 49.7231 50.4541C49.7178 50.7825 49.6065 50.9228 49.2622 50.9334C48.902 50.944 48.5021 50.809 48.1631 51.0844H48.1684Z" fill="#0D1853"/>
<path d="M43.7063 49.9323C43.9685 49.9323 44.2333 49.9296 44.4955 49.9323C44.7551 49.9376 45.0491 49.8978 45.0199 50.311C45.0014 50.5944 45.0994 50.9625 44.62 50.9202C44.1512 50.8778 44.1883 51.1797 44.1909 51.4817C44.1962 52.0749 44.1698 52.6682 44.1989 53.2588C44.2201 53.664 44.0559 53.7462 43.6851 53.7515C43.2878 53.7567 43.1739 53.6164 43.1924 53.2403C43.2189 52.7159 43.203 52.1888 43.1977 51.6618C43.1951 51.2883 43.3275 50.8566 42.6521 50.9043C42.2549 50.9334 42.4005 50.5282 42.3741 50.2951C42.337 49.9588 42.5727 49.9376 42.8164 49.9349C43.113 49.9349 43.4096 49.9349 43.7036 49.9349L43.7063 49.9323Z" fill="#0D1853"/>
<path d="M24.8935 51.8074C24.8935 51.3466 24.8988 50.8858 24.8935 50.4249C24.8882 50.1362 24.9041 49.9137 25.2987 49.919C25.6589 49.9243 25.8549 50.0117 25.8364 50.4143C25.8152 50.8407 25.8364 51.2698 25.8311 51.6962C25.8284 52.3107 25.802 52.9331 26.7342 52.7768C27.1024 52.7159 27.1739 52.9437 27.1421 53.2588C27.113 53.5343 27.0997 53.7991 26.7104 53.7435C26.6786 53.7382 26.6442 53.7356 26.6124 53.7382C25.4682 53.8265 24.8962 53.1811 24.8962 51.8021L24.8935 51.8074Z" fill="#0D1853"/>
<path d="M40.2195 51.9266C40.2195 52.3557 40.2036 52.7874 40.2247 53.2165C40.2406 53.5687 40.1718 53.7515 39.7507 53.7515C39.3269 53.7515 39.1706 53.6429 39.1839 53.1979C39.2157 52.2736 39.2077 51.3466 39.1865 50.4223C39.1786 50.0276 39.3137 49.9005 39.703 49.9323C40.0446 49.9614 40.2565 50.0197 40.2274 50.4381C40.193 50.9308 40.2195 51.4287 40.2195 51.924V51.9266Z" fill="#0D1853"/>
<path d="M30.2936 51.8498C30.2936 52.3107 30.2777 52.7715 30.2989 53.2297C30.3174 53.5926 30.2353 53.7594 29.8168 53.7223C29.4699 53.6932 29.2765 53.6535 29.2898 53.235C29.3163 52.2842 29.3242 51.3307 29.2845 50.3825C29.2633 49.8899 29.5732 49.9932 29.846 49.9482C30.2062 49.8873 30.3068 50.0435 30.2962 50.3746C30.2803 50.8672 30.2909 51.3598 30.2936 51.8525V51.8498Z" fill="#0D1853"/>
<path d="M36.3153 25.24C37.1045 25.3195 38.3652 24.8295 38.9082 25.4307C39.3743 25.9499 39.0459 27.1867 39.0618 28.1084C39.0698 28.4713 39.0168 28.842 39.0724 29.1943C39.1969 29.9836 38.8261 30.0789 38.1348 30.1027C37.2873 30.1345 37.0092 29.8458 37.1363 29.046C37.1813 28.7546 37.1231 28.4421 37.1972 28.1614C37.4568 27.2053 37.1999 26.8477 36.1405 26.9298C35.3751 26.9881 34.8877 26.9828 35.2108 27.9521C35.3221 28.2806 35.2029 28.6778 35.2638 29.0327C35.4201 29.9253 35.0493 30.1213 34.1965 30.1054C33.4363 30.0921 33.2403 29.875 33.2854 29.1493C33.3489 28.1296 33.3489 27.102 33.2854 26.0849C33.2403 25.3592 33.5105 25.1738 34.1806 25.2268C34.8348 25.2798 35.4995 25.2374 36.3153 25.2374V25.24Z" fill="white"/>
<path d="M33.3031 35.1642C33.3031 34.3087 33.3322 33.4506 33.2951 32.5977C33.2554 31.6999 33.9122 32.0177 34.3201 32.0098C34.6988 32.0018 35.2868 31.7158 35.2683 32.5553C35.2338 34.2663 35.2259 35.9799 35.2709 37.6908C35.2948 38.6152 34.6565 38.2391 34.2618 38.2656C33.8248 38.2947 33.2263 38.5013 33.2898 37.6299C33.3481 36.8115 33.3031 35.9852 33.3031 35.1615V35.1642Z" fill="white"/>
<path d="M52.9756 51.8392C53.206 51.5559 52.6922 50.952 53.3649 50.9282C53.8973 50.9096 54.3104 51.2195 54.3184 51.8366C54.3263 52.4643 53.8946 52.7715 53.3729 52.7609C52.7134 52.745 53.1901 52.1385 52.9756 51.8392Z" fill="white"/>
</svg>
