<svg width="80" height="65" viewBox="0 0 80 65" fill="none" xmlns="http://www.w3.org/2000/svg">
<path d="M11.9923 29.2179C11.9923 29.1635 11.9845 29.117 11.9845 29.0704C11.9768 28.985 11.6836 21.502 11.6681 20.8655C11.645 20.2678 11.946 19.9029 12.5093 19.8719H12.7022V19.5303H9.49195L6.41285 27.6266L3.38778 19.5226H0.146624V19.8719H0.200643C0.547909 19.8719 1.01093 20.0271 1.21929 20.2445C1.41222 20.4541 1.36591 20.749 1.35048 21.0595L1.16527 29.2256C1.1344 30.0717 0.455305 30.2891 0.0540192 30.2891H0V30.6539H3.05594V30.6229V30.2891H2.98649C2.67781 30.2891 1.8135 30.1028 1.85209 29.1635L2.01414 21.7271L5.46366 30.6617H5.96526L9.66172 21.0052L9.78519 29.5051C9.78519 29.7224 9.71574 29.901 9.57683 30.0407C9.39162 30.227 9.12153 30.2891 8.95175 30.2891H8.89002V30.6229V30.6539H13.2501V30.2891H13.1961C12.7562 30.2891 12.1235 29.9398 11.9923 29.2023V29.2179Z" fill="#0D1853"/>
<path d="M18.0345 26.0983C18.8602 23.886 19.8171 21.4563 19.848 21.3632L21.3991 26.0983H18.0345ZM26.4924 30.3055H26.3689C25.6666 30.3055 25.0416 29.9329 24.7406 29.3507C24.7174 29.3197 24.7097 29.2809 24.6866 29.2343L21.1445 19.5312H18.3432V19.8728H18.3972C18.7367 19.8728 19.1612 19.9582 19.3001 20.1833C19.3078 20.2066 19.3232 20.2221 19.331 20.2376C19.3927 20.4006 19.3618 20.5869 19.2769 20.7732L16.1901 29.0946C15.8197 29.8786 15.2718 30.2977 14.2686 30.2977H14.1528V30.6626H18.104V30.2977H17.8956C17.8107 30.2977 17.0544 30.29 16.7843 29.9019C16.7766 29.8786 16.7612 29.863 16.7535 29.8475C16.7149 29.7156 16.7766 29.5681 16.8461 29.3818C16.9078 29.2188 17.3091 28.1398 17.8339 26.7348H21.4994L22.4255 29.3895C22.5181 29.6379 22.5104 29.8786 22.3869 30.0493C22.2866 30.2046 21.9933 30.29 21.8081 30.29H21.7232V30.6238H21.731V30.6548H26.4846V30.321H26.4769V30.29L26.4924 30.3055Z" fill="#0D1853"/>
<path d="M39.118 30.3048C38.6009 30.3048 37.9759 29.9943 37.5823 29.5596C37.5283 29.5053 37.4897 29.4432 37.4511 29.3966L34.0479 24.7392L34.1019 24.7004C35.6685 23.7456 36.5945 22.8063 36.61 21.8981C36.6177 21.378 36.417 20.8812 36.0003 20.4698C36.0003 20.4621 35.9926 20.4621 35.9926 20.4465H35.9849C35.3366 19.7634 34.0325 19.5383 32.4582 19.5383H27.9283V19.8566H27.9515V19.8799H28.0209C28.3527 19.8876 28.646 20.0429 28.8466 20.2758C28.9932 20.4543 29.0859 20.6716 29.0859 20.9045V29.0939C29.0781 29.8313 28.5379 30.2971 27.6891 30.3048H27.6582V30.6697H32.5971V30.3048H32.4736C32.1109 30.3048 31.8254 30.2039 31.617 29.9943C31.5862 29.9633 31.5553 29.9322 31.5322 29.9012C31.3701 29.6761 31.2852 29.3656 31.2852 28.993V19.9963H31.5322C33.1913 19.9963 33.7624 20.1205 34.1637 20.5474C34.1868 20.5707 34.2177 20.6018 34.2331 20.6328C34.5341 21.0132 34.7038 21.4789 34.6961 21.8748C34.6267 23.8542 32.2807 25.2592 31.8563 25.4844L35.7456 30.6464L35.7688 30.6774H39.2569V30.3126H39.1257L39.118 30.3048Z" fill="#0D1853"/>
<path d="M48.5064 19.5389H38.9604L38.6208 21.8443H38.9836V21.821C39.1688 20.5713 39.8787 20.1599 41.0594 20.1599H42.626V29.0246C42.626 29.8319 42.0626 30.3054 41.1057 30.3054H41.0671V30.6702H46.4073V30.3054H46.3379C45.8208 30.3054 45.4118 30.1579 45.1572 29.9017C44.9488 29.6844 44.8485 29.3972 44.8485 29.0401V20.1599H46.4768C47.0556 20.1599 47.5263 20.2608 47.8658 20.5092C48.2131 20.7654 48.4292 21.1768 48.5218 21.7978V21.8366H48.8845L48.5449 19.5311H48.5218L48.5064 19.5389Z" fill="#0D1853"/>
<path d="M59.0665 28.3487V28.372C58.8813 29.6217 58.1636 30.0409 56.9906 30.0409H54.0041V25.0962H56.2575C56.435 25.0962 56.597 25.135 56.7282 25.2204C56.9443 25.3757 57.0909 25.6474 57.0909 26.0277V26.0898H57.4536V23.6214H57.0909V23.6602C57.0909 24.0871 56.7437 24.4364 56.2575 24.4442H54.0041V20.1748H56.5122C56.9675 20.1826 57.3379 20.2602 57.6311 20.431C58.0556 20.6794 58.3179 21.1141 58.426 21.805V21.8438H58.7964L58.4569 19.5383H50.462V19.8799H50.516C50.817 19.8876 51.0794 19.9497 51.2955 20.0895C51.3649 20.1283 51.4266 20.1826 51.4807 20.2369C51.6736 20.4465 51.7816 20.726 51.7816 21.052V29.024C51.7816 29.7925 50.9559 30.3048 50.1842 30.3048H50.1147V30.6697H59.0974L59.4369 28.3565H59.0665V28.3487Z" fill="#0D1853"/>
<path d="M69.2292 28.3723C69.044 29.622 68.334 30.0412 67.1533 30.0412H64.653V21.0368C64.653 20.1286 65.1546 19.8879 65.9803 19.8879H66.0729V19.5464H60.8562V19.8879H60.9102C61.1031 19.8879 61.5044 19.8802 61.8594 20.0509C62.1681 20.214 62.4228 20.5555 62.4228 21.1998V28.8768C62.4228 29.8161 61.9057 30.3129 60.9102 30.3129H60.8562V30.6777H69.2755L69.6073 28.3645H69.2369V28.3878L69.2292 28.3723Z" fill="#0D1853"/>
<path d="M79.9465 28.349H79.6147V28.3723C79.4294 29.622 78.7195 30.0412 77.5388 30.0412H75.077V21.0368C75.077 20.1286 75.5941 19.8879 76.4044 19.8879H76.5047V19.5464H71.2803V19.8879H71.3343C71.5195 19.8879 71.8899 19.8802 72.2217 20.0199C72.5613 20.1751 72.8468 20.5089 72.8468 21.1998V28.8768C72.8468 29.8161 72.3298 30.3129 71.3343 30.3129H71.2803V30.6777H79.6532L80.0005 28.3645H79.9388L79.9465 28.349Z" fill="#0D1853"/>
<path d="M49.0724 56.8598C48.918 57.3644 48.6171 57.6361 48.2081 57.6361C47.9534 57.6361 47.7528 57.5429 47.6833 57.5041L47.6293 57.4808L47.6216 57.4731H47.6139C47.4209 57.3489 47.0196 56.8443 46.7727 55.9827C46.7495 55.8585 46.7187 55.6489 46.6569 55.4548V55.416H46.6492C46.5875 55.0745 46.5643 54.7096 46.5643 54.337C46.5952 52.4119 46.9888 51.659 47.3129 51.2165C47.3746 51.1311 47.4364 51.069 47.5058 51.0069L47.5598 50.9681C47.7219 50.8362 47.9225 50.7585 48.1232 50.7585C48.2466 50.7585 48.3701 50.7896 48.5013 50.8284C48.9103 50.9759 49.0569 51.4882 49.0338 51.7289C49.0261 51.8453 48.9412 52.4352 48.455 52.4352H48.4473C48.0537 52.4275 47.9534 51.9695 47.9457 51.8763L47.9071 51.6202V51.5503L47.8454 51.6047L47.6833 51.7987C47.6524 51.8375 46.9116 52.7535 47.0351 54.3758C47.1585 56.0137 47.6833 56.6425 47.691 56.6425L47.9303 56.9297L47.9997 57.0151V56.8986L47.9457 56.526C47.938 56.3941 47.9766 56.2776 48.046 56.1922C48.1463 56.0758 48.3238 56.0137 48.509 56.0137C48.7174 56.0137 48.9026 56.0991 49.0029 56.2388C49.1187 56.3863 49.1341 56.6037 49.0647 56.8598H49.0724ZM47.5212 58.5055C47.5135 58.5598 47.5135 58.6064 47.4981 58.6607V58.6918C47.4364 58.9945 47.3746 59.3127 47.4749 59.6232C47.3515 59.5844 47.1971 59.4913 47.1045 59.2895L46.8576 58.8625L46.7881 58.7383V58.8858L46.8267 59.3748C46.8499 59.5534 46.8807 60.0347 46.7341 60.2132C46.6801 60.252 46.6415 60.3063 46.5875 60.3684C46.3483 60.6168 46.0704 60.9273 46.0627 61.2922V61.4086C45.9315 61.199 45.8698 61.005 45.8852 60.873L45.9393 60.5392V60.4383L45.8775 60.5082L45.6383 60.7488C45.6383 60.7488 45.0132 61.3387 44.4344 61.4319C44.0332 61.494 43.7862 61.7036 43.6319 61.8899C43.5778 61.7036 43.5393 61.4552 43.655 61.2068L43.709 61.0748L43.7322 61.036H43.6936L43.547 61.005C43.4544 60.9817 42.9836 60.873 42.837 60.5004C42.675 60.1045 42.6595 59.5611 43.0299 59.2817C43.1534 59.1885 43.2846 59.1497 43.4081 59.1497C43.4389 59.1497 43.4775 59.1497 43.5084 59.1575C43.655 59.1885 43.7785 59.2739 43.8479 59.4059C44.01 59.6931 43.8865 59.9648 43.7631 60.1433L43.6319 60.3219L43.601 60.3762H43.9174C44.064 60.384 44.5888 60.3762 45.1521 60.1821C45.8698 59.9337 46.356 59.4913 46.5952 58.8703C46.7881 58.3424 46.8807 57.7447 46.873 57.0616C47.0814 57.4265 47.282 57.6516 47.4286 57.7447C47.4827 57.931 47.5598 58.2648 47.5135 58.5443L47.5212 58.5055ZM39.9663 63.4734C39.1097 62.3556 37.682 61.4164 37.0647 61.036C37.2267 60.9118 37.3502 60.7643 37.4351 60.5935C37.4582 60.5392 37.466 60.4926 37.4891 60.4383L39.9508 62.2237V62.2469L39.9817 62.2237L42.5052 60.4383C42.5283 60.4926 42.536 60.5547 42.5669 60.6013C42.6287 60.7643 42.7521 60.9118 42.9065 61.036C41.3939 61.8666 40.2132 63.2095 39.974 63.4734H39.9663ZM36.4396 60.9739L36.293 60.9972H36.2544L36.2775 61.0515L36.3316 61.1835C36.4319 61.4319 36.401 61.6803 36.3393 61.8666C36.1926 61.6803 35.938 61.4707 35.5367 61.4086C34.9502 61.3077 34.356 60.7177 34.356 60.7177L34.1091 60.4771L34.0396 60.4072V60.5082L34.1013 60.8419C34.1245 60.9739 34.0627 61.1757 33.9238 61.3776V61.2611C33.9161 60.8963 33.6229 60.5858 33.3991 60.3296C33.3451 60.2753 33.3065 60.2287 33.2679 60.1744C33.1213 60.0114 33.1136 59.4913 33.1444 59.305L33.1213 58.7849V58.5986L33.0595 58.7771L32.8975 59.2662C32.8049 59.4602 32.6505 59.5456 32.5271 59.5844C32.6274 59.2739 32.5656 58.9557 32.5193 58.6529C32.5193 58.6219 32.5116 58.5908 32.5116 58.5675C32.5039 58.5365 32.5039 58.4977 32.4885 58.4666C32.4499 58.1872 32.5271 57.8456 32.5811 57.6593C32.7663 57.5351 32.9592 57.279 33.1367 56.9685C33.1136 57.6593 33.2062 58.2726 33.4068 58.8004C33.646 59.4292 34.1399 59.8872 34.8808 60.1356C35.4364 60.3296 35.9534 60.3451 36.0923 60.3451H36.401L36.3624 60.2908L36.2312 60.1045C36.1078 59.926 35.992 59.6621 36.1618 59.3671C36.2312 59.2429 36.3547 59.1497 36.5013 59.1187C36.5322 59.1109 36.5708 59.1109 36.6017 59.1109C36.7251 59.1109 36.8563 59.1497 36.9798 59.2429C37.3425 59.5223 37.3425 60.0735 37.1727 60.4616C37.0184 60.8342 36.5476 60.9506 36.455 60.9661L36.4396 60.9739ZM32.365 57.4498L32.3264 57.4731C32.257 57.5041 32.0486 57.605 31.8017 57.605C31.3695 57.605 31.084 57.3333 30.9296 56.821C30.8602 56.5648 30.8756 56.3553 30.9914 56.2C31.0917 56.0525 31.2769 55.9749 31.493 55.9749C31.6782 55.9749 31.8402 56.0448 31.9483 56.1612C32.0177 56.2466 32.0795 56.4639 32.0718 56.5959L32.01 56.8676L31.9792 56.9995L32.0718 56.8986L32.311 56.6114C32.311 56.6114 32.8589 55.9594 32.9824 54.3448C33.1136 52.7224 32.3882 51.8142 32.3419 51.7832L32.1798 51.5736L32.1412 51.5193V51.5891L32.0872 51.8453C32.0872 51.8453 31.9946 52.3964 31.5701 52.3964H31.5624C31.0994 52.3964 31.0068 51.8608 30.9991 51.69C30.9759 51.4649 31.1226 50.9449 31.5316 50.7974C31.655 50.743 31.7785 50.7275 31.902 50.7275C32.1181 50.7275 32.3264 50.7974 32.4962 50.9526L32.5271 50.9759C32.5965 51.038 32.6583 51.1079 32.72 51.1855C33.0518 51.6279 33.43 52.3887 33.4531 54.306C33.4531 54.7174 33.4222 55.1366 33.3373 55.5169C33.3296 55.5713 33.2988 55.6722 33.2756 55.8196C33.021 56.79 32.5656 57.3333 32.3804 57.442H32.3727L32.365 57.4498ZM33.0827 50.7896V51.2165C33.0441 51.1467 32.9901 51.0846 32.9515 51.0225C32.9129 50.9604 32.8589 50.906 32.8049 50.8595C32.8666 50.8362 32.9592 50.8207 33.0827 50.7974V50.7896ZM33.646 55.4859C33.7078 55.1055 33.7386 54.7096 33.7386 54.3137C33.7309 52.6914 33.4531 51.8453 33.1521 51.3252V50.7741C33.237 50.7663 33.3142 50.7663 33.4068 50.7508C33.5611 50.743 33.6923 50.7275 33.8312 50.6964V59.01C33.7695 58.9169 33.7155 58.816 33.6692 58.6995C33.291 57.6671 33.4454 56.4639 33.5689 55.8352C33.592 55.742 33.6074 55.6566 33.6306 55.5868C33.6383 55.548 33.6383 55.5169 33.6537 55.5014V55.4703L33.646 55.4859ZM34.5721 52.1635V53.522L34.4255 53.6695H34.5721V59.7009C34.3174 59.5689 34.0782 59.3826 33.9007 59.1342V50.6964C34.0782 50.6421 34.2402 50.5722 34.3714 50.4713C34.3946 50.6033 34.4409 50.712 34.5181 50.7896C34.5412 50.7974 34.5489 50.8207 34.5721 50.8284V52.0161H34.4177L34.5721 52.1713V52.1635ZM36.8795 52.0083V49.796C36.8795 49.796 36.8872 49.7882 36.9026 49.7882L36.9258 49.765C37.1727 49.5787 37.2113 49.5398 37.4119 49.144C37.4351 49.0896 37.4814 49.0431 37.5431 48.9887V52.0083H36.8872H36.8795ZM36.3316 51.4727C36.4782 51.4727 36.6017 51.5969 36.6017 51.7444C36.6017 51.8996 36.4782 52.0161 36.3316 52.0161C36.1772 52.0161 36.0615 51.8996 36.0615 51.7444C36.0615 51.5969 36.1772 51.4727 36.3316 51.4727ZM36.702 50.7663L36.4936 50.4481C36.4859 50.4092 36.4627 50.1143 36.7637 49.8892C36.7714 49.8814 36.7869 49.8659 36.8023 49.8581V51.5426C36.7174 51.3563 36.5322 51.2243 36.3316 51.2243C36.2621 51.2243 36.1849 51.2476 36.1232 51.2631V50.5102C36.2081 50.5723 36.2698 50.6033 36.2775 50.6111L36.6557 50.8051L36.7714 50.875L36.702 50.7585V50.7663ZM35.9226 50.2928C35.9766 50.3549 36.0152 50.4092 36.0692 50.4481V51.3097C35.9148 51.4028 35.8222 51.5581 35.8222 51.7444C35.8222 51.8453 35.8454 51.9384 35.8917 52.0161H35.3901V50.1143C35.5521 50.0134 35.7065 49.928 35.8454 49.8271C35.8222 50.0056 35.8377 50.1608 35.9303 50.3006L35.9226 50.2928ZM34.6492 53.4443V52.2334L35.2589 52.8466L34.6492 53.4443ZM35.3206 53.6617V59.957C35.1045 59.9182 34.8808 59.8328 34.6492 59.7319V53.6617H35.3206ZM35.1123 50.3394C35.1354 50.2695 35.174 50.2152 35.2589 50.1764C35.282 50.1686 35.2975 50.1453 35.3206 50.1376V50.8517L35.2975 50.8129L35.1972 50.6654C35.1972 50.6654 35.0814 50.4869 35.1123 50.3471V50.3394ZM34.9039 50.9216C34.9656 50.9216 35.0274 50.9138 35.0968 50.8983L35.2743 50.8595H35.3129V52.0083H34.6415V50.8595C34.711 50.8983 34.7959 50.9216 34.8962 50.9216H34.9039ZM36.7869 53.4133H35.0274L35.6062 52.8466L35.0197 52.2567H37.3734V53.4133H36.7869ZM36.3624 57.2014C36.509 57.2014 36.6325 57.3256 36.6325 57.4731C36.6325 57.6283 36.509 57.7525 36.3624 57.7525C36.2158 57.7525 36.0923 57.6283 36.0923 57.4731C36.0923 57.3256 36.2158 57.2014 36.3624 57.2014ZM36.7946 56.8986V57.2014C36.7637 57.1393 36.7097 57.0849 36.6634 57.0461C36.6865 57.0384 36.702 57.0151 36.7251 56.9918C36.756 56.9607 36.7791 56.9297 36.7946 56.8986ZM36.6711 53.6617H36.7946V54.1818C36.7406 53.9644 36.702 53.7859 36.6711 53.6617ZM35.8454 55.8662C35.8068 55.2996 36.1849 53.9722 36.2775 53.6617H36.4087C36.4705 53.9334 36.6865 54.8338 36.7869 55.416V56.2932C36.7328 56.5105 36.6402 56.7046 36.5399 56.8132C36.4782 56.8753 36.4164 56.9064 36.3547 56.9064C36.0769 56.9064 35.8685 56.5027 35.8377 55.8585L35.8454 55.8662ZM35.8222 60.0424C35.6988 60.0346 35.5444 60.0114 35.3824 59.9803V53.6617H36.0229C35.8994 54.0731 35.5599 55.2996 35.5984 55.874C35.6293 56.4639 35.7914 56.8753 36.0537 57.0616C35.9303 57.1548 35.8454 57.3023 35.8454 57.4653C35.8454 57.6438 35.9303 57.7991 36.0615 57.8922V59.01C35.992 59.0721 35.9303 59.142 35.8763 59.2274C35.7296 59.4835 35.7142 59.763 35.8222 60.0424ZM36.5708 58.8237C36.509 58.8237 36.455 58.8237 36.4087 58.8315C36.3084 58.8548 36.2158 58.9013 36.1232 58.9557V57.931C36.1927 57.9621 36.2775 57.9931 36.3624 57.9931C36.5476 57.9931 36.7097 57.8922 36.8023 57.7447V58.8548C36.7328 58.8315 36.648 58.8237 36.5785 58.8237H36.5708ZM36.8563 57.3954V56.7822C37.0107 56.5105 37.0955 56.1379 37.0955 55.874C37.0878 55.6256 36.9721 55.0279 36.8563 54.5V53.6617H37.5277V59.7009C37.4737 59.4214 37.3425 59.1808 37.1264 59.0178C37.0415 58.9557 36.9644 58.9169 36.8717 58.8703V57.4653C36.8717 57.4653 36.8717 57.411 36.864 57.3954H36.8563ZM38.2685 49.9202V54.6553H37.9984L38.2685 54.927V56.0448L37.9984 56.3165H38.2685V60.6634L37.5971 60.1666V53.6695H37.6049V52.0161H37.5971V48.9421C37.7592 48.8257 38.0062 48.7248 38.2685 48.6627V49.5631C38.2608 49.6252 38.2454 49.6796 38.2454 49.7417C38.2454 49.8038 38.2531 49.8659 38.2685 49.928V49.9202ZM39.0634 48.8878V48.6782C39.156 48.7326 39.2409 48.7947 39.2872 48.8956C39.2332 48.8956 39.1714 48.8878 39.102 48.8878H39.0634ZM32.1181 49.7494C31.7168 49.3768 31.5856 48.8568 31.7554 48.3522C31.9174 47.9097 32.257 47.6303 32.6583 47.6303C32.9746 47.6303 33.1907 47.7002 33.3142 47.8476C33.43 47.9796 33.4377 48.1581 33.4377 48.2746C33.4377 48.7403 33.075 49.1207 32.6119 49.1517H32.4267L32.365 49.175L32.3959 49.2294L32.4962 49.3846C32.5811 49.5088 32.8743 49.9047 33.3682 49.9745C33.4222 49.9745 33.4608 49.9823 33.5148 49.9823C33.8853 49.9823 34.2557 49.796 34.6492 49.4234C36.0074 48.1193 37.1496 47.4673 38.0525 47.4673H38.1451C38.6081 47.4906 39.0094 47.7079 39.3412 48.0883C40.0743 48.9577 39.92 49.6796 39.5264 50.0755C39.4415 50.1919 39.318 50.2618 39.1946 50.2928H39.1869C39.1869 50.2928 39.1174 50.3006 39.0865 50.3006C38.9399 50.3006 38.8087 50.2385 38.7084 50.1376C38.6081 50.0366 38.5463 49.8969 38.5463 49.7417C38.5541 49.4389 38.7933 49.1905 39.102 49.1905C39.2332 49.1905 39.318 49.2138 39.4029 49.2759L39.5573 49.3691L39.5959 49.4001V49.3458L39.6267 49.1595C39.6344 49.1207 39.6576 48.9965 39.5573 48.7791C39.4261 48.4764 39.1251 48.3134 38.7007 48.3134H38.6775C38.0525 48.3134 37.2962 48.6549 37.111 49.0198C37.0029 49.2526 36.8769 49.426 36.7328 49.5398H36.7097C36.6711 49.5787 36.6171 49.6097 36.5631 49.664C36.3393 49.8426 36.2467 50.0366 36.2004 50.1919C36.1772 50.1686 36.1695 50.1531 36.1463 50.122C36.0846 50.0522 36.1078 49.8736 36.1386 49.664C36.1386 49.5787 36.1618 49.47 36.1618 49.3535L36.1849 48.9111V48.7791L36.1155 48.8956L35.8917 49.2915C35.7682 49.5631 35.5136 49.7184 35.0968 49.9357C34.9425 50.0289 34.8422 50.1453 34.8113 50.3006C34.7804 50.4325 34.8036 50.549 34.8345 50.6421C34.7959 50.6421 34.7496 50.6188 34.7341 50.6033C34.6415 50.5024 34.6724 50.254 34.6955 50.1453H34.7033V49.6873L34.6492 49.7572L34.4332 50.0056C34.1939 50.285 33.9393 50.4636 33.3914 50.4791C33.1367 50.4869 32.9515 50.5179 32.8357 50.549C32.8975 50.3704 32.9978 50.3316 32.9978 50.3316H33.0055L33.3142 50.1143L33.4068 50.0522H33.3065L32.9438 50.0289H32.9052C32.7894 50.0289 32.3882 50.0056 32.1103 49.7572L32.1181 49.7494ZM40.275 50.2773C40.3135 50.3394 40.3753 50.3937 40.437 50.4403V54.663H40.3444C40.3984 54.5777 40.4293 54.4845 40.4293 54.3914C40.4293 54.1042 40.1901 53.8713 39.9123 53.8713C39.8737 53.8713 39.8274 53.8713 39.7888 53.879V50.2385C39.8737 50.1376 39.9508 50.0211 40.0126 49.8969C40.0743 50.0444 40.1669 50.1686 40.2672 50.2695L40.275 50.2773ZM40.5142 54.663V50.4869C40.5991 50.5412 40.6762 50.5723 40.7688 50.5878H40.8074C40.846 50.5955 40.8923 50.5955 40.9309 50.5955C41.0158 50.5955 41.0852 50.5878 41.1701 50.5645V54.663H40.5142ZM40.5142 59.3205C40.6299 59.0643 40.6917 58.7616 40.6917 58.521C40.684 58.3269 40.6068 57.9077 40.5142 57.4731V56.3165H41.1701V61.0205L40.5142 61.4862V59.3127V59.3205ZM39.92 54.1274C40.0666 54.1274 40.1901 54.2439 40.1901 54.3991C40.1901 54.5466 40.0666 54.6708 39.92 54.6708C39.7656 54.6708 39.6422 54.5466 39.6422 54.3991C39.6422 54.2439 39.7656 54.1274 39.92 54.1274ZM39.264 50.58C39.4415 50.549 39.6036 50.4558 39.727 50.3239V53.9101C39.5418 53.9955 39.3952 54.1818 39.3952 54.3991C39.3952 54.4923 39.4261 54.5854 39.4801 54.6708H39.0711V50.6033H39.102C39.1406 50.6033 39.1869 50.6033 39.2254 50.5955H39.264V50.58ZM38.3457 55.9671V54.9968L38.8319 55.4859L38.3457 55.9749V55.9671ZM39.0016 56.3087V61.1835L38.3457 60.71V56.3165H39.0016V56.3087ZM38.3457 49.3613V48.6394C38.4615 48.6161 38.5695 48.6084 38.6853 48.6084H38.693C38.7933 48.6084 38.9013 48.6161 39.0016 48.6472V48.8956C38.7161 48.9266 38.4692 49.1129 38.3457 49.3613ZM38.5 50.3471C38.6312 50.4791 38.8087 50.5645 39.0016 50.5878V54.663H38.3457V50.122C38.3843 50.2074 38.4383 50.2773 38.5 50.3471ZM38.6158 56.0681L39.1791 55.4859L38.6004 54.9037H40.9541V56.0603H38.6081L38.6158 56.0681ZM40.2595 56.3165H40.4447V57.1548C40.3753 56.8055 40.2981 56.495 40.2595 56.3165ZM40.2518 59.7009C40.2518 59.7009 40.2904 59.6698 40.3135 59.6465C40.3676 59.5922 40.4061 59.5223 40.4447 59.4525V60.0036C40.4139 59.8794 40.3444 59.7785 40.2518 59.7009ZM39.7965 60.6246C39.8505 60.6324 39.8968 60.6479 39.9508 60.6479C40.1901 60.6479 40.3907 60.4849 40.4447 60.252V61.5483L39.9586 61.8976L39.7965 61.7734V60.6246ZM39.6807 60.1278C39.6807 59.9803 39.8042 59.8561 39.9508 59.8561C40.0975 59.8561 40.2209 59.9803 40.2209 60.1278C40.2209 60.2753 40.0975 60.3995 39.9508 60.3995C39.8042 60.3995 39.6807 60.2753 39.6807 60.1278ZM39.866 56.3242H39.9971C40.082 56.6658 40.4293 58.1329 40.437 58.5365C40.437 58.8703 40.3058 59.2895 40.1283 59.4758C40.0666 59.5379 40.0049 59.5689 39.9431 59.5689C39.6653 59.5689 39.457 59.1575 39.4261 58.521C39.3875 57.9388 39.7656 56.6269 39.8582 56.3165L39.866 56.3242ZM39.1869 58.5365C39.2177 59.1264 39.3798 59.5379 39.6422 59.7164C39.5187 59.8095 39.4338 59.9648 39.4338 60.1278C39.4338 60.3374 39.5496 60.5082 39.7193 60.5935V61.7191L39.0634 61.2456V56.3242H39.6113C39.4878 56.7356 39.1483 57.9543 39.1869 58.5365ZM41.1701 48.6394V48.9421C41.1007 48.9189 41.0158 48.9111 40.9309 48.9111C40.8615 48.9111 40.7997 48.9111 40.7457 48.9189C40.8306 48.7326 41.0004 48.6627 41.1701 48.6394ZM41.8878 52.3033V53.4133L41.6177 53.685H41.8878V60.5237L41.2396 60.9894V50.5645C41.5483 50.4403 41.7721 50.1298 41.7721 49.765C41.7721 49.4001 41.5483 49.0896 41.2396 48.9654V48.6316H41.3553C41.5328 48.6316 41.718 48.6627 41.8878 48.717V52.0238H41.61L41.8878 52.3033ZM43.3386 51.2786C43.1457 51.3485 43.0068 51.5348 43.0068 51.7521C43.0068 51.8531 43.0299 51.9462 43.0762 52.0238H42.675V49.2604C42.837 49.5787 42.8833 49.6252 43.1071 49.7882C43.1611 49.8271 43.2074 49.8736 43.2692 49.9202C43.2923 49.928 43.3078 49.9513 43.3309 49.9745V51.2786H43.3386ZM43.5238 51.4882C43.6705 51.4882 43.7939 51.6124 43.7939 51.7599C43.7939 51.9152 43.6705 52.0316 43.5238 52.0316C43.3695 52.0316 43.2537 51.9152 43.2537 51.7599C43.2537 51.6124 43.3695 51.4882 43.5238 51.4882ZM43.4081 50.9216V50.0599C43.5624 50.254 43.5393 50.4636 43.5315 50.4869L43.4389 50.8284L43.4081 50.9216ZM43.493 50.8595L43.7476 50.6499C43.7476 50.6499 43.9097 50.5645 44.0563 50.3782V52.0238H43.956C44.01 51.954 44.0409 51.8608 44.0409 51.7521C44.0409 51.4727 43.8016 51.2321 43.5238 51.2321C43.4852 51.2321 43.4389 51.2398 43.4081 51.2398V50.9216L43.493 50.8517V50.8595ZM41.9573 52.0316V48.7403C42.2582 48.8412 42.5129 48.9965 42.6132 49.1362V52.0316H41.9573ZM41.9573 53.3434V52.3809L42.4434 52.8699L41.9573 53.3434ZM42.4203 60.1356L41.9573 60.4693V53.685H42.6132V59.2972C42.4589 59.5223 42.3894 59.8173 42.4203 60.1356ZM42.2119 53.4366L42.7907 52.8699L42.2042 52.28H44.5579V53.4366H42.2119ZM43.8557 53.685H44.0486V54.5621C43.9791 54.1973 43.8942 53.8713 43.8557 53.685ZM43.8479 57.0694C43.8479 57.0694 43.8865 57.0384 43.9097 57.0151C43.9637 56.9607 44.01 56.8909 44.0563 56.8055V57.4187C44.0332 57.2712 43.9637 57.147 43.8479 57.0694ZM43.4081 58.8703V57.9931C43.4467 58.0164 43.5007 58.0242 43.5547 58.0242C43.8094 58.0242 44.0254 57.8301 44.0563 57.5817V59.2274C43.9405 59.0488 43.7708 58.9246 43.5624 58.8858C43.5084 58.878 43.4621 58.878 43.4081 58.878V58.8703ZM43.2846 57.4963C43.2846 57.3489 43.4081 57.2247 43.5547 57.2247C43.7013 57.2247 43.8248 57.3489 43.8248 57.4963C43.8248 57.6516 43.7013 57.7758 43.5547 57.7758C43.4081 57.7758 43.2846 57.6516 43.2846 57.4963ZM43.4698 53.6927H43.601C43.6859 54.0421 44.0332 55.5092 44.0409 55.905C44.0409 56.2466 43.9097 56.6735 43.7322 56.8443C43.6704 56.9064 43.6087 56.9374 43.547 56.9374C43.2692 56.9374 43.0608 56.5338 43.0299 55.8895C42.9914 55.3229 43.3695 53.9955 43.4621 53.685L43.4698 53.6927ZM42.7907 55.905C42.8216 56.495 42.9836 56.8986 43.2306 57.0849C43.1071 57.2014 43.0377 57.3411 43.0377 57.4963C43.0377 57.7137 43.1611 57.8922 43.3386 57.9698V58.8703C43.1611 58.878 42.9991 58.9401 42.8447 59.0643C42.783 59.1032 42.729 59.1575 42.6827 59.2118V53.6927H43.2151C43.0917 54.1042 42.7521 55.3306 42.7907 55.905ZM44.1258 59.3516V56.6813C44.2415 56.4251 44.2878 56.1301 44.2878 55.905C44.2801 55.711 44.2029 55.3151 44.1258 54.9037V53.6927H44.7817V59.9803C44.5348 60.0502 44.311 60.0812 44.1335 60.0967C44.2492 59.8484 44.2338 59.5922 44.1258 59.3516ZM44.7508 50.9371H44.7817V52.0471H44.1258V50.3083C44.1952 50.1841 44.2106 50.0289 44.1952 49.8736C44.3495 49.9978 44.5579 50.1143 44.774 50.2385C44.774 50.2385 44.7817 50.2385 44.7817 50.2462V50.8051L44.72 50.8905L44.6891 50.9293H44.7508V50.9371ZM44.8512 50.712V50.3083C44.8512 50.3083 44.9052 50.3704 44.9129 50.4092C44.9438 50.5257 44.882 50.6576 44.8512 50.712ZM44.936 50.9837H45.0364C45.2139 50.9837 45.3219 50.9138 45.3991 50.8517C45.4377 50.8207 45.4685 50.7663 45.4994 50.7197V59.7164C45.291 59.8406 45.0672 59.9337 44.8512 59.9958V50.9681L44.936 50.9914V50.9837ZM46.2325 50.7974V58.9557C46.0704 59.2662 45.8312 59.5068 45.5766 59.6698V50.5412C45.5766 50.5412 45.5766 50.5334 45.5843 50.5179C45.7463 50.6499 45.9856 50.743 46.2325 50.7974ZM46.4486 56.0913C46.4872 56.3165 46.5335 56.6192 46.5489 56.953V57.5196C46.5258 57.9466 46.4563 58.3813 46.302 58.7927H46.2942V55.3151C46.3328 55.5868 46.3868 55.8429 46.4486 56.0913ZM46.2942 53.3822V50.8207C46.3946 50.8284 46.5103 50.8439 46.6106 50.8439C46.7418 50.8517 46.8576 50.8672 46.9502 50.875V51.2476C46.6801 51.6435 46.4023 52.2489 46.2942 53.39V53.3822ZM47.2126 50.9293C47.1508 50.9837 47.0968 51.0458 47.0582 51.0923C47.0505 51.1156 47.0351 51.1234 47.0274 51.1467V50.875C47.1122 50.8983 47.174 50.906 47.2126 50.9293ZM40.6917 48.1348C41.0235 47.739 41.4248 47.5371 41.8878 47.5139H41.9727C42.8756 47.5139 44.0177 48.1737 45.3759 49.4855C45.7463 49.8503 46.1167 50.0211 46.4872 50.0211H46.6029C47.1354 49.959 47.4672 49.5476 47.5212 49.4622L47.6447 49.2992L47.6756 49.2449H47.6139L47.4055 49.2216C46.9502 49.1905 46.5952 48.7947 46.5952 48.3444C46.5952 48.0417 46.6878 47.6924 47.3669 47.6924C47.7759 47.6924 48.1309 47.9796 48.2852 48.4221C48.4627 48.9421 48.3238 49.4467 47.9148 49.8193C47.637 50.0677 47.2434 50.091 47.1354 50.091H46.6492L46.7341 50.1453L47.0196 50.3704H47.0274C47.0274 50.3704 47.12 50.4248 47.1894 50.5878C47.0351 50.5567 46.8421 50.5334 46.6338 50.5257C46.1785 50.5257 45.7386 50.3316 45.6151 50.0832L45.3605 49.7339L45.291 49.633V49.7572L45.3296 50.1608C45.3373 50.2462 45.3296 50.4946 45.2139 50.6188C45.237 50.5257 45.2447 50.4325 45.2216 50.3471C45.183 50.1919 45.0904 50.0677 44.9206 49.9823C44.5193 49.7572 44.2647 49.6019 44.1412 49.3303L43.8865 48.9654L43.8171 48.8645V48.9887L43.8557 49.4001C43.8634 49.4933 43.8788 49.5864 43.8865 49.7029V49.7261C43.9097 49.9435 43.9251 50.0987 43.8788 50.1686C43.8557 50.1997 43.8402 50.2229 43.8171 50.2385C43.7631 50.0289 43.655 49.8581 43.4698 49.7106C43.4004 49.6563 43.3463 49.6175 43.3077 49.5787C43.0917 49.4234 43.0917 49.4157 42.9142 49.0741C42.7367 48.7015 41.9881 48.3522 41.3631 48.3522H41.3553C40.9232 48.36 40.6222 48.5152 40.491 48.8179C40.4216 48.9654 40.3984 49.0974 40.4061 49.2138L40.437 49.4001V49.4545L40.491 49.4234L40.6454 49.3225C40.7148 49.2682 40.8074 49.2526 40.9463 49.2526C41.2473 49.2526 41.4942 49.501 41.4942 49.8038C41.4942 50.1065 41.2473 50.3549 40.9463 50.3549C40.9155 50.3549 40.8769 50.3549 40.846 50.3471H40.8383C40.7148 50.3161 40.5991 50.254 40.5219 50.1531H40.5142C40.1361 49.7494 39.9817 49.012 40.7225 48.1581L40.6917 48.1348ZM48.5013 55.7808H48.4936C48.2235 55.7808 47.9766 55.874 47.8222 56.0525C47.7836 56.0913 47.7528 56.1457 47.7219 56.1845C47.5675 55.8507 47.3823 55.284 47.3206 54.4147C47.2357 53.39 47.5367 52.6759 47.745 52.3033C47.8376 52.5129 48.046 52.7923 48.4319 52.8001H48.455C49.0338 52.8001 49.2884 52.2722 49.327 51.8298C49.3579 51.4494 49.1495 50.8051 48.5939 50.6111C48.4319 50.5567 48.2775 50.5257 48.1232 50.5257C47.9071 50.5257 47.6987 50.5878 47.5135 50.6887C47.4904 50.5645 47.4518 50.4636 47.3978 50.3782C47.6061 50.3394 47.8839 50.254 48.1077 50.0599C48.6093 49.5942 48.7791 48.9732 48.563 48.3444C48.3547 47.7623 47.9071 47.4052 47.3669 47.4052C46.4717 47.4052 46.2865 47.9253 46.2865 48.36C46.2865 48.8645 46.6184 49.3225 47.0968 49.4855C46.9733 49.5864 46.7958 49.7029 46.5643 49.7339H46.4794C46.1939 49.7339 45.8852 49.5787 45.5766 49.2759C44.1489 47.8942 42.9605 47.2189 41.965 47.2189H41.8647C41.3168 47.2422 40.846 47.4906 40.4679 47.9408C40.2595 48.1659 40.1206 48.4065 40.0126 48.6472C39.92 48.4065 39.7656 48.1737 39.5727 47.933C39.1791 47.475 38.7161 47.2422 38.1759 47.2111H38.0602C37.0647 47.2111 35.8763 47.8709 34.4486 49.2449C34.1168 49.5554 33.8081 49.7106 33.5226 49.7106H33.4222C33.1984 49.6796 33.0132 49.5476 32.9052 49.4545C33.3991 49.2992 33.7386 48.849 33.7386 48.3289C33.7386 47.8942 33.5534 47.3741 32.666 47.3664C32.1335 47.3664 31.6705 47.7312 31.4698 48.2979C31.246 48.9266 31.4081 49.5631 31.9097 50.0134C32.1335 50.2229 32.4036 50.3161 32.6119 50.3471C32.5579 50.4403 32.5193 50.5412 32.4962 50.6654C32.3033 50.549 32.0872 50.4869 31.8557 50.4869C31.7091 50.4869 31.5547 50.5179 31.3927 50.5723C30.837 50.7663 30.6287 51.4106 30.6595 51.7832C30.6981 52.2256 30.9451 52.7535 31.5238 52.7535H31.547C31.9406 52.7535 32.1412 52.474 32.2492 52.2645C32.4422 52.6371 32.7431 53.359 32.6583 54.3758C32.5888 55.2452 32.3882 55.8119 32.2338 56.1457C32.2029 56.0913 32.1721 56.0525 32.1335 56.0137C31.9792 55.8352 31.7322 55.7343 31.4621 55.7343C31.1534 55.7343 30.8756 55.8662 30.7213 56.0836C30.5978 56.2388 30.482 56.5183 30.6055 56.9607C30.8602 57.8301 31.439 57.9621 31.7554 57.9621C31.902 57.9621 32.0409 57.931 32.1875 57.8922C32.1489 58.0863 32.1026 58.3502 32.1489 58.5831C32.1566 58.6141 32.1566 58.6452 32.1721 58.684C32.1721 58.7073 32.1798 58.7383 32.1798 58.7694C32.2492 59.142 32.311 59.4525 32.1103 59.7397L32.01 59.8949L31.9792 59.9493H32.0332L32.2261 59.9803H32.2955C32.3882 59.9803 32.6042 59.9726 32.8203 59.8251C32.828 60.0191 32.8743 60.283 33.0055 60.4383C33.0441 60.4926 33.0981 60.5392 33.1521 60.6013C33.3605 60.8264 33.5843 61.0903 33.592 61.3232C33.592 61.6104 33.5611 61.82 33.5534 61.9054L33.484 62.2858L33.4608 62.4022L33.5303 62.3168L33.8081 62.0374C33.8081 62.0374 34.2094 61.6259 34.3328 61.1913C34.6107 61.4164 35.0351 61.688 35.4518 61.7579C35.9689 61.8511 36.1618 62.2237 36.1927 62.2935L36.2775 62.5031L36.3007 62.5652L36.3393 62.5109L36.4627 62.3168C36.4627 62.3168 36.7714 61.8278 36.6248 61.2922C36.6557 61.2844 36.6865 61.2689 36.7174 61.2611C37.2422 61.5716 38.9476 62.6506 39.8119 63.8693L39.9045 64.0012L39.9277 64.0401L39.9586 64.0012L40.0512 63.8771C40.0512 63.8771 41.4402 62.1616 43.192 61.2611C43.2229 61.2844 43.2614 61.2922 43.2923 61.2999C43.1688 61.7967 43.4081 62.2392 43.4544 62.3323L43.5778 62.5264L43.6164 62.5807L43.6396 62.5186L43.7245 62.309C43.7476 62.2702 43.9405 61.8666 44.4653 61.7812C44.9206 61.6958 45.3528 61.4008 45.5997 61.199C45.7 61.5794 46.0241 61.952 46.1245 62.0606L46.3946 62.3401L46.4794 62.4255L46.4563 62.309L46.3868 61.9287C46.3868 61.9287 46.3328 61.7036 46.3483 61.3465C46.356 61.1059 46.5875 60.8575 46.7881 60.6324L46.819 60.5935C46.8576 60.5547 46.9039 60.5082 46.9425 60.4616C47.0428 60.3374 47.1045 60.1278 47.1277 59.8484C47.336 59.9958 47.5598 60.0114 47.6524 60.0114H47.7219L47.9148 59.9881H47.9688L47.938 59.926L47.8222 59.7707C47.6293 59.4835 47.691 59.1575 47.7605 58.8004C47.7605 58.7694 47.7682 58.7461 47.7682 58.715C47.7759 58.684 47.7759 58.6452 47.7913 58.6141C47.8299 58.3735 47.7991 58.1173 47.7605 57.931C47.8917 57.9698 48.0383 57.9931 48.1695 57.9931C48.5013 57.9931 49.0647 57.8612 49.3347 56.9995C49.4582 56.5571 49.3425 56.2776 49.2344 56.1069C49.0724 55.8895 48.7946 55.7653 48.4936 55.7653L48.5013 55.7808Z" fill="#0D1853"/>
<path d="M29.2076 41.622L29.0301 41.5288C29.0301 41.5288 29.0224 41.521 29.007 41.521C28.9761 41.521 28.953 41.5288 28.9452 41.5521C28.7523 41.979 28.4128 42.1809 27.9343 42.1809C27.2552 42.1809 26.7845 41.7073 26.7845 41.032C26.7845 40.3179 27.2398 39.8288 27.9189 39.8288C28.3279 39.8288 28.6674 40.0229 28.8989 40.3644C28.9067 40.3877 28.9298 40.3955 28.9375 40.3955C28.9452 40.3955 28.9607 40.3955 28.9684 40.3877L29.1536 40.2635C29.1536 40.2635 29.1767 40.2402 29.1767 40.2325C29.1845 40.2092 29.1767 40.2014 29.1767 40.1781C28.9221 39.7512 28.4436 39.5028 27.9189 39.5028C27.4944 39.5028 27.124 39.6503 26.8616 39.9297C26.5915 40.2014 26.4526 40.5896 26.4526 41.0165C26.4526 41.4589 26.5993 41.8471 26.8848 42.111C27.1395 42.3594 27.5099 42.4914 27.9112 42.4914C28.5285 42.4914 28.9838 42.2119 29.2385 41.6841C29.2462 41.653 29.2385 41.622 29.2076 41.6142V41.622Z" fill="#0D1853"/>
<path d="M32.566 42.1813C32.2574 42.1813 31.9718 42.0571 31.7558 41.8475C31.5397 41.6302 31.4162 41.3275 31.4162 41.0092C31.4162 40.3028 31.8792 39.8293 32.566 39.8293C33.2529 39.8293 33.7082 40.3183 33.7082 41.0092C33.7082 41.3275 33.5924 41.6302 33.3918 41.8475C33.1834 42.0571 32.8902 42.1813 32.566 42.1813ZM32.566 39.511C32.157 39.511 31.7866 39.6585 31.5165 39.9225C31.231 40.1941 31.0767 40.5745 31.0767 41.0092C31.0767 41.4439 31.231 41.8165 31.5165 42.0882C31.7866 42.3599 32.157 42.4996 32.566 42.4996C32.975 42.4996 33.3455 42.3521 33.6156 42.0882C33.8934 41.8165 34.0477 41.4361 34.0477 41.0092C34.0477 40.5823 33.8934 40.1941 33.6156 39.9225C33.3455 39.6508 32.9673 39.511 32.566 39.511Z" fill="#0D1853"/>
<path d="M38.6553 41.0014H37.8141C37.8141 41.0014 37.7601 41.0247 37.7601 41.0558V41.2421C37.7601 41.2421 37.7833 41.3042 37.8141 41.3042H38.3775V41.7001C38.2 42.0106 37.845 42.1891 37.4206 42.1891C37.081 42.1891 36.7723 42.0727 36.564 41.8708C36.3402 41.6612 36.2244 41.374 36.2244 41.0402C36.2244 40.3261 36.6874 39.8371 37.3588 39.8371C37.7678 39.8371 38.1228 40.0311 38.3389 40.3727C38.362 40.4037 38.3929 40.4115 38.4083 40.396L38.5935 40.2718L38.6244 40.2407C38.6244 40.2407 38.6244 40.2097 38.6167 40.1864C38.362 39.7594 37.899 39.511 37.3588 39.511C36.9344 39.511 36.564 39.6585 36.3016 39.938C36.0315 40.2097 35.8926 40.5978 35.8926 41.0247C35.8926 41.4672 36.0469 41.8553 36.3247 42.1192C36.5948 42.3676 36.973 42.4996 37.382 42.4996C37.9453 42.4996 38.4315 42.2279 38.6861 41.7854C38.7093 41.7622 38.7093 41.7544 38.7093 41.7311V41.048C38.7093 41.048 38.6861 40.9937 38.6553 40.9937V41.0014Z" fill="#0D1853"/>
<path d="M43.594 39.5496H43.3702C43.3702 39.5496 43.3162 39.5806 43.3162 39.6039V41.9326L41.0705 39.5884C41.0705 39.5884 41.032 39.5573 41.0011 39.5573H40.8467C40.8467 39.5573 40.7927 39.5806 40.7927 39.6117V42.4139C40.7927 42.4139 40.8159 42.4682 40.8467 42.4682H41.0628C41.0628 42.4682 41.1168 42.4449 41.1168 42.4139V40.0852L43.3779 42.4294C43.3779 42.4294 43.4165 42.4605 43.4474 42.4605H43.594C43.594 42.4605 43.648 42.4372 43.648 42.4061V39.6039C43.648 39.6039 43.6249 39.5496 43.594 39.5496Z" fill="#0D1853"/>
<path d="M48.2333 41.3739H46.5278L47.3844 39.9456L48.241 41.3739H48.2333ZM47.5465 39.5808C47.5465 39.5808 47.5156 39.5497 47.4847 39.5497H47.2995C47.2995 39.5497 47.2609 39.5575 47.2378 39.5808L45.5478 42.3753C45.5478 42.3753 45.54 42.4063 45.54 42.4141C45.54 42.4451 45.5632 42.4529 45.5786 42.4529H45.8256C45.8873 42.4529 45.895 42.4296 45.9182 42.3908L46.3503 41.6766H48.4185L48.8506 42.3908C48.8738 42.4296 48.8815 42.4529 48.9432 42.4529H49.1979C49.1979 42.4529 49.2365 42.4451 49.2365 42.4141C49.2365 42.4063 49.2365 42.3908 49.2288 42.3753L47.5387 39.5808H47.5465Z" fill="#0D1853"/>
<path d="M53.5337 41.6221L53.3562 41.5289C53.3562 41.5289 53.333 41.5212 53.3253 41.5212C53.3022 41.5212 53.2867 41.5289 53.2713 41.5522C53.0784 41.9792 52.7388 42.181 52.2527 42.181C51.5813 42.181 51.1105 41.7075 51.1105 41.0321C51.1105 40.318 51.5658 39.829 52.2449 39.829C52.6462 39.829 52.9935 40.023 53.2096 40.3646C53.2173 40.3878 53.2404 40.3956 53.2636 40.3956C53.2713 40.3956 53.2867 40.3956 53.2945 40.3878L53.472 40.2636C53.472 40.2636 53.5028 40.2404 53.5028 40.2326C53.5028 40.2093 53.5028 40.2015 53.4951 40.1783C53.2404 39.7513 52.7774 39.5029 52.2372 39.5029C51.8282 39.5029 51.4424 39.6504 51.18 39.9299C50.9099 40.2015 50.771 40.5897 50.771 41.0166C50.771 41.4591 50.9253 41.8472 51.2031 42.1111C51.4732 42.3595 51.8437 42.4915 52.2449 42.4915C52.8546 42.4915 53.3176 42.212 53.5646 41.6842C53.5877 41.6531 53.5723 41.6221 53.5414 41.6143L53.5337 41.6221Z" fill="#0D1853"/>
<path d="M2.53907 51.5656H0.146793C0.146793 51.5656 0.0927734 51.5889 0.0927734 51.62V54.43C0.0927734 54.43 0.123642 54.4843 0.146793 54.4843H0.362869C0.362869 54.4843 0.416889 54.461 0.416889 54.43V52.9784H2.21496C2.21496 52.9784 2.26898 52.9473 2.26898 52.9163V52.73C2.26898 52.73 2.24582 52.6679 2.21496 52.6679H0.409172V51.8684H2.53907C2.53907 51.8684 2.59309 51.8373 2.59309 51.8063V51.62C2.59309 51.62 2.56994 51.5579 2.53907 51.5579V51.5656Z" fill="#0D1853"/>
<path d="M5.40882 54.1972C5.10014 54.1972 4.81461 54.0808 4.59853 53.8634C4.38246 53.6461 4.25898 53.3433 4.25898 53.0251C4.25898 52.3187 4.722 51.8529 5.40882 51.8529C6.09564 51.8529 6.55094 52.3265 6.55094 53.0251C6.55094 53.3589 6.43518 53.6538 6.23454 53.8634C6.02618 54.0808 5.73294 54.1972 5.40882 54.1972ZM5.40882 51.5269C4.99982 51.5269 4.6294 51.6822 4.35159 51.9383C4.07377 52.2178 3.91943 52.5981 3.91943 53.0251C3.91943 53.452 4.07377 53.8401 4.35159 54.1118C4.6294 54.3835 4.99982 54.5232 5.40882 54.5232C5.81782 54.5232 6.18052 54.3758 6.45834 54.1118C6.73615 53.8401 6.89049 53.452 6.89049 53.0251C6.89049 52.5981 6.73615 52.2178 6.45834 51.9383C6.18052 51.6822 5.81011 51.5269 5.40882 51.5269Z" fill="#0D1853"/>
<path d="M11.5337 51.5658H11.3099C11.3099 51.5658 11.2559 51.5968 11.2559 51.6279V53.9567L9.01024 51.5968C9.01024 51.5968 8.97165 51.5658 8.94078 51.5658H8.78644C8.78644 51.5658 8.73242 51.5968 8.73242 51.6279V54.4224C8.73242 54.4224 8.75557 54.4845 8.78644 54.4845H9.00252C9.00252 54.4845 9.05654 54.4535 9.05654 54.4224V52.1092L11.3176 54.4535C11.3176 54.4535 11.3562 54.4845 11.3871 54.4845H11.5337C11.5337 54.4845 11.5877 54.4535 11.5877 54.4224V51.6279C11.5877 51.6279 11.5646 51.5658 11.5337 51.5658Z" fill="#0D1853"/>
<path d="M15.1392 54.174H14.0357V51.8763H14.9926C15.4016 51.8763 15.7026 51.9617 15.8955 52.1325C16.1116 52.3188 16.2119 52.5982 16.2119 52.9941C16.2119 53.39 16.1116 53.7005 15.8955 53.8946C15.7103 54.0809 15.4402 54.174 15.1315 54.174H15.1392ZM14.9926 51.5658H13.7656C13.7656 51.5658 13.7039 51.5891 13.7039 51.6201V54.4302C13.7039 54.4302 13.7347 54.4845 13.7656 54.4845H15.1315C15.5251 54.4845 15.8801 54.3525 16.127 54.1041C16.4048 53.848 16.5592 53.4598 16.5592 52.9941C16.5592 52.0704 15.9958 51.5658 14.9849 51.5658H14.9926Z" fill="#0D1853"/>
<path d="M20.9311 51.5658H18.5311C18.5311 51.5658 18.4771 51.5891 18.4771 51.6201V54.4302C18.4771 54.4302 18.5079 54.4845 18.5311 54.4845H20.9311C20.9311 54.4845 20.9851 54.4535 20.9851 54.4224V54.2361C20.9851 54.2361 20.9619 54.174 20.9311 54.174H18.8012V52.9863H20.5992C20.5992 52.9863 20.6533 52.9553 20.6533 52.9242V52.7379C20.6533 52.7379 20.6301 52.6758 20.5992 52.6758H18.8012V51.8763H20.9311C20.9311 51.8763 20.9851 51.8452 20.9851 51.8142V51.6279C20.9851 51.6279 20.9619 51.5658 20.9311 51.5658Z" fill="#0D1853"/>
<path d="M19.4843 51.2861L19.5074 51.3482C19.5074 51.3482 19.5151 51.3793 19.546 51.3793C19.546 51.3793 19.5537 51.3793 19.5537 51.3715H19.5769L20.4952 51.0921C20.5338 51.0843 20.5569 51.061 20.5569 51.0222C20.5569 51.0144 20.5492 50.9989 20.5492 50.9911L20.4875 50.8437C20.4798 50.8048 20.4489 50.7816 20.418 50.7816C20.4103 50.7816 20.3872 50.7816 20.364 50.7893L19.5074 51.2163C19.5074 51.2163 19.4766 51.2395 19.4766 51.2551C19.4766 51.2628 19.4843 51.2628 19.4843 51.2784V51.2861Z" fill="#0D1853"/>
<path d="M25.4437 51.5659H23.0437C23.0437 51.5659 22.9819 51.5892 22.9819 51.6203V54.4303C22.9819 54.4303 23.0128 54.4846 23.0437 54.4846H25.4437C25.4437 54.4846 25.4977 54.4536 25.4977 54.4225V54.2362C25.4977 54.2362 25.4745 54.1741 25.4437 54.1741H23.3138V52.9865H25.1041C25.1427 52.9865 25.1581 52.9554 25.1581 52.9244V52.7381C25.1581 52.7381 25.1504 52.676 25.1195 52.676H23.3215V51.8764H25.4514C25.4514 51.8764 25.5054 51.8454 25.5054 51.8143V51.628C25.5054 51.628 25.4823 51.5659 25.4514 51.5659H25.4437Z" fill="#0D1853"/>
<path d="M56.5145 51.5655H54.1145C54.1145 51.5655 54.0527 51.5888 54.0527 51.6198V54.4221C54.0527 54.4609 54.0836 54.4764 54.1145 54.4764H56.5145C56.5145 54.4764 56.5685 54.4531 56.5685 54.4221V54.2358C56.5685 54.2358 56.5453 54.1737 56.5145 54.1737H54.3846V52.9705H56.1749C56.2135 52.9705 56.2289 52.9395 56.2289 52.9162V52.7221C56.2289 52.7221 56.2212 52.6678 56.1903 52.6678H54.3923V51.8605H56.5222C56.5222 51.8605 56.5762 51.8372 56.5762 51.8061V51.6198C56.5762 51.6198 56.553 51.5577 56.5222 51.5577L56.5145 51.5655Z" fill="#0D1853"/>
<path d="M61.6907 51.5655H61.4669C61.4669 51.5655 61.4129 51.5966 61.4129 51.6276V53.9408L59.1672 51.5966C59.1672 51.5966 59.1286 51.5655 59.0823 51.5655H58.928C58.928 51.5655 58.8894 51.5888 58.8894 51.6276V54.4221C58.8894 54.4221 58.9126 54.4764 58.9434 54.4764H59.1518C59.1904 54.4764 59.2135 54.4531 59.2135 54.4221V52.0933L61.4746 54.4376C61.4746 54.4376 61.5132 54.4687 61.5441 54.4687H61.6907C61.6907 54.4687 61.7447 54.4454 61.7447 54.4143V51.6198C61.7447 51.6198 61.7216 51.5577 61.6907 51.5577V51.5655Z" fill="#0D1853"/>
<path d="M67.6001 51.5661H66.8284C66.8284 51.5661 66.7744 51.5972 66.7744 51.6282V51.8145C66.7744 51.8145 66.7976 51.8688 66.8284 51.8688H67.33V54.4227C67.33 54.4615 67.3609 54.477 67.3918 54.477H67.6001C67.6001 54.477 67.6619 54.4693 67.6619 54.4227V51.6204C67.6619 51.6204 67.631 51.5661 67.6001 51.5661Z" fill="#0D1853"/>
<path d="M72.0997 51.5582H69.908C69.8694 51.5582 69.854 51.5892 69.854 51.6203V51.8066C69.854 51.8066 69.8617 51.8687 69.908 51.8687H71.7601L70.317 54.4225C70.317 54.4225 70.2939 54.4536 70.2939 54.4613C70.2939 54.4924 70.3247 54.5157 70.3479 54.5157H70.6026C70.6026 54.5157 70.6411 54.4846 70.6566 54.4769L72.1305 51.8531C72.1305 51.8531 72.1537 51.7988 72.1537 51.76V51.628C72.1537 51.628 72.1305 51.5659 72.0997 51.5659V51.5582Z" fill="#0D1853"/>
<path d="M74.9795 51.5661H74.2078C74.2078 51.5661 74.1538 51.5972 74.1538 51.6282V51.8145C74.1538 51.8145 74.177 51.8688 74.2078 51.8688H74.7094V54.4227C74.7094 54.4615 74.7403 54.477 74.7635 54.477H74.9795C74.9795 54.477 75.0336 54.4693 75.0336 54.4227V51.6204C75.0336 51.6204 75.0027 51.5661 74.9795 51.5661Z" fill="#0D1853"/>
<path d="M79.464 52.7383C79.2788 52.5753 79.0009 52.4822 78.6923 52.4822C78.3604 52.4822 78.1366 52.5986 78.0209 52.6685V51.8922H79.5874C79.5874 51.8922 79.6415 51.8612 79.6415 51.8379V51.6438C79.6415 51.6438 79.6183 51.5895 79.5874 51.5895H77.7585C77.7585 51.5895 77.7045 51.6128 77.7045 51.6438V52.9712C77.7045 53.01 77.7354 53.0256 77.7585 53.0256H77.9437C77.9437 53.0256 77.9823 53.0256 78.0055 53.0023C78.0055 53.0023 78.0054 52.9945 78.0132 52.9945C78.1752 52.8625 78.3913 52.8004 78.6614 52.8004C79.2093 52.8004 79.4563 53.1653 79.4563 53.5224C79.4563 53.9804 79.1707 54.2443 78.6845 54.2443C78.2601 54.2443 78.0132 54.0813 77.8588 53.7087C77.8511 53.6854 77.8357 53.6776 77.8202 53.6776H77.7894L77.5964 53.7397C77.5964 53.7397 77.5579 53.763 77.5579 53.7941C77.5579 53.8639 77.6736 54.1278 77.8588 54.2909C78.0363 54.4539 78.345 54.547 78.6845 54.547C79.0241 54.547 79.3019 54.4461 79.5103 54.2443C79.7032 54.058 79.8112 53.8018 79.8112 53.5068C79.8112 53.1886 79.6955 52.9246 79.4794 52.7383H79.464Z" fill="#0D1853"/>
<path d="M47.0673 6.14758C44.0345 7.11788 41.8275 7.27313 39.2191 7.32747C41.8583 7.13341 44.0114 6.65214 46.8744 5.71289C47.9625 5.34805 49.1509 4.7814 50.1078 4.27684C50.8487 3.88096 51.5663 3.50836 52.0602 3.35311C51.7901 3.50836 51.466 3.72571 51.0416 4.00516C49.9535 4.7193 48.4718 5.6896 47.0673 6.14758ZM48.9889 7.27313C48.8114 7.71559 48.441 8.11147 47.9008 8.42197C48.2172 8.16581 48.4641 7.73888 48.5876 7.39733C48.8345 6.69095 48.5876 6.18639 48.4255 5.95352C48.5799 5.88366 48.7265 5.79827 48.8808 5.72841C49.0043 5.97681 49.2512 6.62109 48.9966 7.2809L48.9889 7.27313ZM47.9471 7.52929C48.1323 6.96264 47.9162 6.52794 47.7541 6.24849C47.9316 6.17863 48.1091 6.10101 48.2712 6.02338C48.4255 6.24849 48.6416 6.76858 48.3329 7.37404C48.1246 7.77769 47.785 8.18134 47.2294 8.48407C47.5303 8.23567 47.8545 7.85531 47.9471 7.52929ZM47.2988 7.6302C47.4223 7.12565 47.2294 6.76858 47.0519 6.48913C47.0905 6.48137 47.1213 6.46584 47.1676 6.45808C47.3143 6.40374 47.4532 6.35717 47.5921 6.30283C47.7387 6.54347 47.9548 7.01697 47.6847 7.55258C47.5072 7.90189 47.1291 8.21239 46.6429 8.48407C46.8821 8.26672 47.2294 7.90189 47.2988 7.62244V7.6302ZM46.0641 8.49959C46.3419 8.27448 46.6506 7.8165 46.6583 7.52929C46.6815 7.10236 46.5734 6.93159 46.4191 6.69095C46.5734 6.63662 46.7278 6.5978 46.8898 6.54347C47.0365 6.7841 47.2294 7.2188 47.0133 7.65349C46.859 7.95623 46.4808 8.26672 46.0564 8.49959H46.0641ZM45.6088 8.53064C45.74 8.36763 46.0024 8.07266 46.041 7.76217C46.1027 7.35852 45.9406 7.07907 45.7631 6.86173C45.9252 6.82291 46.0795 6.77634 46.2493 6.73753C46.3805 6.90054 46.5348 7.21103 46.4268 7.57587C46.3419 7.84755 45.9561 8.32106 45.6165 8.53064H45.6088ZM45.2075 8.50736C45.3541 8.34435 45.4776 7.92518 45.4622 7.76217C45.4313 7.39733 45.2847 7.19551 45.1149 7.0325C45.2693 6.99369 45.4236 6.96264 45.5857 6.91606C45.7323 7.07131 45.9484 7.38181 45.8326 7.79322C45.7709 8.0028 45.4622 8.32882 45.2075 8.50736ZM44.3818 7.17998C44.5593 7.14893 44.7291 7.11012 44.9066 7.06355C45.0686 7.17998 45.2538 7.35076 45.2538 7.76993C45.2538 7.99504 45.1226 8.25896 44.9992 8.39868V8.33658C44.9992 7.7544 44.6056 7.35076 44.3818 7.17998ZM37.7683 7.12565C38.1001 7.12565 38.4088 7.10236 38.6943 7.07131C41.5651 6.7841 43.0853 6.17863 46.1181 5.14623C46.859 4.89007 48.0705 4.37775 48.7496 4.08278C49.9303 3.55494 51.1496 3.08143 51.8442 3.05038C51.3426 3.21339 50.6326 3.66361 49.8609 4.06726C48.9271 4.56405 47.8776 5.12294 46.8049 5.49554C43.8725 6.52018 41.3413 6.9704 38.4783 7.14117C38.2082 7.14893 37.9921 7.14893 37.7606 7.13341L37.7683 7.12565ZM38.5632 6.76081C41.403 6.34941 45.1766 4.69601 47.5612 3.79557C49.259 3.15129 50.6094 2.58463 51.5972 2.73988C50.8564 2.84079 49.6602 3.36088 48.549 3.85767C47.8699 4.16817 47.075 4.54852 46.3496 4.82021C43.5947 5.86814 41.2024 6.57452 38.3779 6.85396C38.0615 6.88501 37.7992 6.87725 37.5059 6.85396C37.8841 6.8462 38.239 6.81515 38.5632 6.76081ZM38.4165 6.45032C39.4583 6.26402 40.7934 5.86037 41.8043 5.49554C41.7966 5.58869 41.7734 5.67408 41.7426 5.73617C40.5927 6.07772 39.4197 6.35717 38.2468 6.52018C37.9689 6.55899 37.722 6.55899 37.4673 6.55899C37.8069 6.5357 38.1233 6.50465 38.4242 6.44255L38.4165 6.45032ZM38.6866 3.3143C39.1882 3.38416 39.6667 3.46955 40.1143 3.57046C41.2024 3.81886 42.3445 4.03621 42.6146 4.67272C42.7458 5.00651 42.6995 5.32477 42.6686 5.4412C42.4834 5.5033 42.2982 5.5654 42.1053 5.61974C42.167 5.45673 42.1747 5.27043 42.0821 4.99874C41.812 4.2846 40.3304 3.57046 38.6866 3.3143ZM42.8152 4.54852C42.5606 3.82662 41.4262 3.51612 40.2146 3.24444C39.7284 3.14353 39.2345 3.05038 38.7021 2.97275C39.3117 3.0038 39.8982 3.05814 40.4924 3.128C41.758 3.28325 43.232 3.57046 43.4558 4.36223C43.5715 4.74259 43.5484 5.01427 43.5098 5.16176C43.3014 5.23162 43.1008 5.30924 42.8924 5.3791C42.9233 5.16952 42.9773 4.97546 42.823 4.54852H42.8152ZM40.8628 2.67778C42.3059 2.76317 43.6024 2.94947 44.104 3.67137C44.4513 4.16817 44.3741 4.7193 44.3509 4.8435C44.1271 4.93665 43.9419 5.00651 43.857 5.03756C43.803 5.04532 43.7644 5.06861 43.7104 5.09189C43.7336 5.00651 43.7413 4.81245 43.7104 4.58734C43.6101 3.81886 43.1857 3.12024 40.5541 2.80198C39.9291 2.73212 39.3194 2.67778 38.6943 2.64673C39.4043 2.63897 40.1143 2.64673 40.8628 2.68555V2.67778ZM41.2255 2.23532C42.8615 2.23532 44.3741 2.50701 44.8757 3.20563C45.2461 3.72571 45.1921 4.32341 45.1612 4.51748C44.9451 4.60286 44.7368 4.68049 44.5516 4.75811C44.5902 4.54076 44.6133 4.04397 44.266 3.48507C43.803 2.73988 42.4757 2.42939 40.8937 2.33624C40.1529 2.30519 39.4429 2.29742 38.7406 2.29742C39.5355 2.25861 40.3458 2.22756 41.2178 2.23532H41.2255ZM41.5882 1.77734C43.4094 1.71524 45.0146 1.96364 45.6242 2.73212C46.0873 3.3143 45.9947 4.01292 45.9561 4.19922C45.7631 4.2846 45.5625 4.35446 45.3696 4.43985C45.4236 4.16817 45.4545 3.59375 45.0377 3.01157C44.459 2.20428 43.0236 1.9093 41.2487 1.89378C40.3844 1.88602 39.5818 1.91707 38.8024 1.95588C39.6744 1.87049 40.5927 1.80839 41.5882 1.77734ZM41.9509 1.31936C43.9882 1.19516 45.5934 1.4358 46.3111 2.25861C46.8435 2.87961 46.7432 3.65585 46.6892 3.88872C46.5271 3.95082 46.3419 4.03621 46.1413 4.10607C46.1953 3.80333 46.2416 3.12024 45.7631 2.49925C45.0763 1.63762 43.5484 1.35817 41.5959 1.42027C40.6313 1.45132 39.7439 1.51342 38.9027 1.58328C39.8519 1.46685 40.8474 1.3737 41.9509 1.30384V1.31936ZM42.3136 0.876902C44.5439 0.682842 46.2647 0.907952 47.0905 1.80063C47.7001 2.46044 47.5458 3.32206 47.4918 3.57046C47.4609 3.57822 47.43 3.60151 47.3992 3.60927C47.3374 3.63256 47.1599 3.70242 46.913 3.80333C46.967 3.51612 46.9516 2.90289 46.7664 2.50701C46.3574 1.67643 45.2307 0.775991 41.9509 0.985576C40.8783 1.04768 39.9214 1.14082 39.0107 1.24174C40.0294 1.09425 41.1098 0.970051 42.3136 0.86914V0.876902ZM42.6763 0.41892C45.1072 0.16276 46.8821 0.395632 47.8004 1.35817C48.4487 2.04903 48.3561 2.91066 48.2943 3.22891C48.1014 3.3143 47.9008 3.38416 47.7078 3.46955C47.7773 3.12024 47.8622 2.26637 47.2139 1.56776C46.3265 0.605218 44.6519 0.341295 42.3059 0.535356C41.1638 0.628505 40.1451 0.752704 39.1805 0.884665C40.2532 0.721654 41.3953 0.550881 42.6763 0.41892ZM51.358 2.37505C50.5863 2.36729 49.668 2.67778 48.6339 3.08919C48.6647 2.97275 48.6956 2.80974 48.6956 2.61568C49.7451 2.2819 50.648 2.14994 51.358 2.37505ZM53.1406 3.2522C53.1406 3.2522 52.7702 2.96499 52.5541 2.72436C51.5123 1.72301 50.2467 1.73853 48.6802 2.25085C48.6262 1.90154 48.495 1.51342 48.1863 1.14082C47.2525 0.0618485 45.1844 -0.155499 42.6455 0.0928982C40.3226 0.341296 38.4474 0.675079 36.6262 0.993338C33.6783 1.51342 31.1239 1.95588 27.7516 1.80839C29.7272 2.25085 31.9419 2.63897 33.686 2.89513C39.6976 3.39193 41.5188 4.46314 41.7734 5.13847C41.7734 5.14623 41.7734 5.16176 41.7812 5.16952C40.7702 5.53435 39.4275 6.07772 38.3625 6.13206C33.8635 6.35717 26.9336 3.88096 26.9336 3.88096C26.9336 3.88096 29.6963 5.09189 30.9542 5.46449C32.212 5.82932 36.1709 7.00145 36.1709 7.00145C35.4378 7.08684 31.1085 7.39733 28.9709 7.70783C32.4358 7.58363 33.5085 7.62244 36.8808 7.60692H37.4442C39.9831 7.59915 41.8043 7.63797 43.9265 7.27313H43.9188C44.1966 7.39733 44.6596 7.77769 44.6596 8.25896C44.6596 8.49959 44.0191 8.94205 43.5561 9.12835C42.8152 9.43885 39.4892 10.448 39.3503 10.4868C39.3503 10.4868 44.6905 9.82697 46.3651 9.37675C47.9625 8.96534 48.9503 8.29777 49.2975 7.39733C49.6062 6.59004 49.3207 5.86037 49.1664 5.55764C49.9149 5.14623 50.6249 4.68049 51.2268 4.2846C51.8519 3.87319 52.9631 3.24444 53.1329 3.26773L53.1406 3.2522Z" fill="#0D1853"/>
</svg>
