<svg width="80" height="35" viewBox="0 0 80 35" fill="none" xmlns="http://www.w3.org/2000/svg">
<path d="M35.4064 6.2C33.1486 9.57737 32.2897 13.1409 34.0555 17.0368C30.1223 16.9969 27.1252 12.3989 28.7128 8.94976C28.7846 8.7902 28.8166 8.5482 29.0134 8.60139C29.1968 8.65192 29.3803 8.82477 29.4867 8.99231C29.867 9.58269 30.1755 10.2209 30.5903 10.7847C30.8244 11.1038 31.1009 11.6915 31.5982 11.4017C31.9971 11.1677 31.67 10.665 31.5477 10.3167C30.835 8.3195 30.9361 6.34095 31.6115 4.36506C31.7684 3.91031 31.8854 3.31461 32.4519 3.3093C32.9811 3.30398 32.8082 3.92094 32.9252 4.25602C33.0742 4.67886 33.3215 4.97404 33.739 5.01128C34.1565 5.04851 34.3214 4.6629 34.4677 4.34644C35.1139 2.93699 35.8532 1.5887 36.9488 0.469118C37.2148 0.195206 37.5339 -0.214333 37.9381 0.134041C38.2439 0.397316 38.0205 0.780261 37.8291 1.08875C37.6456 1.38925 37.4568 1.68976 37.3158 2.00888C36.7707 3.25079 37.2094 4.14433 38.5072 4.55121C39.2119 4.77193 40.382 4.55121 40.3767 5.57772C40.3714 6.58295 39.2172 6.56433 38.454 6.83824C37.494 7.1813 36.0872 7.29831 36.2175 8.6466C36.3425 9.96297 37.736 9.69438 38.6827 9.88585C39.4167 10.0348 40.6054 9.80341 40.5974 10.7661C40.5895 11.5825 39.4592 11.4761 38.72 11.5187C35.8824 11.6836 34.6299 13.6754 35.7096 16.2949C36.0792 17.1884 36.7387 17.9011 37.377 18.7681C34.9277 17.8001 34.0501 14.7205 34.1805 12.492C34.3054 10.3911 35.0261 8.45512 35.6697 6.49253C35.7548 6.23989 35.7521 6.06172 35.4038 6.19734L35.4064 6.2Z" fill="#0D1853"/>
<path d="M43.6459 6.98716C44.0793 8.59075 44.9569 10.064 45.0367 11.774C45.0819 12.7074 45.034 13.6169 44.7176 14.5131C43.8453 16.9969 42.3454 17.4597 40.2259 15.88C39.2154 15.1248 39.3085 14.0105 40.4679 13.5132C41.0264 13.2739 41.6673 13.2313 42.2444 13.0318C43.1273 12.7287 44.0687 12.4069 44.1325 11.266C44.1937 10.1358 43.3746 9.64119 42.4678 9.30877C41.8934 9.09868 41.2737 9.01358 40.6834 8.84339C40.069 8.66521 39.3696 8.7051 38.8005 8.12802C39.8191 7.3967 41.3402 7.44457 41.8109 5.9713C42.2577 4.56982 41.3562 3.64171 40.7099 2.42639C42.263 2.59925 43.1486 3.61512 44.1325 4.44749C44.3665 4.64694 44.5447 4.91022 44.7628 5.12828C45.1165 5.48198 45.3159 6.20266 45.9329 6.00587C46.4834 5.83035 46.1722 5.13892 46.3291 4.70013C47.8077 5.51921 48.1747 6.90738 47.9753 10.9629C48.8449 10.806 48.7092 9.84596 49.2039 9.40717C50.6772 11.4203 50.1586 14.4147 47.9859 15.6992C46.5499 16.5475 44.9968 17.1964 43.7389 18.3372C43.6405 18.4277 43.4092 18.3692 43.1725 18.3851C47.2812 14.6966 46.4621 10.0241 43.9171 6.64943C43.6778 6.64411 43.7017 6.85154 43.6405 6.98982L43.6459 6.98716Z" fill="#0D1853"/>
<path d="M15.97 26.5572C14.4754 27.5917 13.9382 29.3894 14.5712 31.2377C15.1217 32.8386 16.2306 33.3918 18.5203 33.2029C17.4007 33.9742 15.7253 34.0007 14.5233 33.1923C13.1697 32.2802 12.7681 30.9239 12.9623 29.3708C13.1617 27.7726 13.9755 26.6769 15.6296 26.3392C15.853 26.2434 15.9806 26.2966 15.9726 26.5572H15.97Z" fill="#0D1853"/>
<path d="M38.0213 26.5812C37.1677 27.3737 37.4868 28.0758 38.2314 28.6848C38.6702 29.0438 39.1968 29.2991 39.6648 29.6262C40.8589 30.4585 41.1221 31.7723 40.311 32.7988C39.4388 33.9024 37.8485 34.0487 36.7661 33.1232C36.8034 33.0993 36.8459 33.0461 36.8752 33.0514C37.8565 33.2615 39 33.6737 39.4627 32.3892C39.9201 31.1287 38.7686 30.6553 37.9309 30.1208C37.0959 29.5863 36.2688 29.073 36.3832 27.887C36.4656 27.0466 36.8911 26.5201 37.7315 26.3525C37.9974 26.2142 38.0453 26.3525 38.0213 26.5812Z" fill="#0D1853"/>
<path d="M47.8633 26.5732C46.4645 27.6476 45.9566 29.2911 46.4485 31.0303C47.0309 33.0992 48.6212 33.3865 50.7514 33.1817C48.0388 34.3119 45.8661 33.5567 45.0843 31.4611C44.2306 29.1714 45.2545 27.028 47.5309 26.3445C47.7755 26.2302 47.8766 26.3206 47.8633 26.5759V26.5732Z" fill="#0D1853"/>
<path d="M63.7905 26.9456C63.5911 26.8605 63.3889 26.7009 63.1922 26.7062C62.5619 26.7302 61.655 26.3073 61.3758 26.9163C61.0727 27.5705 61.2561 28.4614 61.2827 29.2485C61.2934 29.5996 61.6391 29.5624 61.8944 29.565C62.506 29.5703 63.1177 29.565 63.8304 29.565C63.4076 30.3761 62.7321 30.1075 62.2055 30.0969C61.5434 30.0836 61.1843 30.2431 61.3093 30.9612C61.445 31.743 60.9583 32.6259 61.6843 33.3147C61.3519 34.0354 60.7828 33.5859 60.3041 33.5966C60.1472 33.5833 59.8999 33.6604 59.9291 33.3918C60.1578 31.2032 60.0541 29.0119 59.9717 26.8259C59.9557 26.4004 60.0142 26.2621 60.4052 26.2807C61.6258 26.3419 62.8571 26.1345 64.0724 26.3977C64.2878 26.7381 64.2532 26.9509 63.7905 26.9456Z" fill="#0D1853"/>
<path d="M25.0115 33.4928C22.5835 34.1177 20.6688 33.3252 19.9614 31.4025C19.2088 29.3575 20.0146 27.3391 21.9586 26.411C22.0703 26.3578 22.2166 26.3844 22.3469 26.3737C22.6447 26.1902 22.8681 26.2115 22.9585 26.5944C22.0331 27.6077 21.4932 28.7326 21.6342 30.1766C21.8283 32.1578 22.3548 32.7136 24.6685 33.0487C24.8653 33.1338 25.0248 33.2455 25.0115 33.4928Z" fill="#0D1853"/>
<path d="M2.40015 34.3385C2.57034 33.9901 2.88149 33.6444 2.88947 33.2934C2.93467 30.9425 2.9134 28.5917 2.9134 26.2062H4.25637C4.25637 27.9774 4.30158 29.7139 4.24041 31.4451C4.19786 32.6259 4.10745 33.8572 2.70331 34.3518C2.5996 34.4582 2.49854 34.4475 2.40281 34.3385H2.40015Z" fill="#0D1853"/>
<path d="M69.8965 26.9482C69.6465 26.8657 69.3938 26.7088 69.1465 26.7168C68.5562 26.7381 67.6839 26.3418 67.4419 26.9296C67.1627 27.613 67.3222 28.4906 67.3621 29.2831C67.3807 29.6288 67.753 29.5596 68.003 29.5623C68.62 29.5703 69.2343 29.5623 69.8832 29.5623C69.6837 30.3122 69.1013 30.1633 68.6891 30.1075C67.535 29.9506 67.176 30.4612 67.3807 31.5036C67.5004 32.1073 67.0111 32.8519 67.7823 33.3067C67.5031 34.0566 66.8728 33.6524 66.45 33.6178C65.9101 33.5726 66.0936 33.0008 66.0909 32.6365C66.075 30.8282 66.1149 29.0198 66.0697 27.2141C66.0511 26.4668 66.2851 26.1637 67.043 26.2408C68.0881 26.3472 69.1518 26.0759 70.1863 26.3871L70.181 26.395C70.4017 26.7407 70.3565 26.9508 69.8965 26.9455V26.9482Z" fill="#0D1853"/>
<path d="M73.6888 29.9187C73.6782 30.892 73.6303 31.8653 73.6702 32.836C73.6915 33.3572 73.6596 33.6311 73.0187 33.6178C72.4416 33.6072 72.2953 33.4503 72.306 32.8679C72.3485 30.8335 72.3379 28.7991 72.306 26.7647C72.3006 26.3578 72.2608 26.0945 72.79 26.161C73.1942 26.2115 73.7021 25.9988 73.6702 26.7487C73.6303 27.6768 73.6622 28.6076 73.6622 29.5357C73.7979 29.6554 73.8058 29.783 73.6862 29.916L73.6888 29.9187Z" fill="#0D1853"/>
<path d="M53.9958 29.8097C53.9904 29.9905 53.9878 30.1713 53.9825 30.3495L54.0489 33.2642C53.5756 33.9343 53.0996 33.937 52.6235 33.2695C52.6581 30.9665 52.6953 28.6635 52.7299 26.3578C53.2352 26.4562 53.7883 26.2116 54.2537 26.5786C54.3814 27.6716 54.6287 28.7752 53.9984 29.8097H53.9958Z" fill="#0D1853"/>
<path d="M73.688 29.9187L73.6641 29.5384C74.9512 29.432 75.3208 28.2114 76.1266 27.5173C76.7117 27.0147 76.9696 26.0015 78.177 26.2089C77.1744 27.3418 76.241 28.3975 75.2836 29.4799C76.6292 30.5436 77.2356 32.2217 78.5147 33.5088C77.3685 33.804 76.7223 33.3785 76.1053 32.5594C75.39 31.61 75.0815 30.2537 73.6853 29.9187H73.688Z" fill="#0D1853"/>
<path d="M70.1867 26.3897C68.8889 26.5121 67.1444 25.8339 66.4158 26.6929C65.7855 27.4375 66.2668 29.1262 66.2589 30.3947C66.2562 31.0542 66.312 31.719 66.2482 32.3706C66.1046 33.8066 66.8253 33.7295 67.7853 33.3067C68.3252 33.312 68.8677 33.3146 69.4075 33.32C69.5139 33.7907 69.0485 33.5939 68.8943 33.7614C66.9937 33.8412 66.0426 32.9734 66.0408 31.1579C66.0381 29.7086 66.0275 28.2592 65.9849 26.8099C65.9743 26.4828 65.8812 26.1371 66.3413 26.1637C67.6231 26.2381 68.9315 25.8579 70.1867 26.3844V26.3897Z" fill="#0D1853"/>
<path d="M60.3005 33.5939C60.7287 33.3519 61.2765 33.687 61.6807 33.312C62.662 33.2375 63.7337 33.5753 64.5448 32.5807C64.7257 33.5646 64.4332 33.9316 63.4598 33.8066C62.4174 33.671 61.3563 33.6604 60.3032 33.5939H60.3005Z" fill="#0D1853"/>
<path d="M47.8632 26.5733L47.5308 26.3419C48.5998 25.8818 49.6503 25.9324 50.6714 26.4882C51.0039 26.6717 51.1927 26.9589 51.1262 27.3578C51.0969 27.536 51.0225 27.7062 50.8018 27.6929C50.4161 27.6689 50.3789 27.3232 50.2194 27.0706C49.613 26.1132 48.7301 26.3579 47.8632 26.5733Z" fill="#0D1853"/>
<path d="M15.97 26.5573L15.627 26.3392C16.6907 25.8845 17.7358 25.9323 18.7517 26.4855C19.0814 26.6637 19.2782 26.9482 19.2144 27.3471C19.1878 27.52 19.132 27.6955 18.9059 27.6902C18.523 27.6848 18.4565 27.3684 18.2996 27.1051C17.7225 26.1371 16.8449 26.3312 15.97 26.5573Z" fill="#0D1853"/>
<path d="M2.39935 34.3385L2.69985 34.3518C1.80099 34.8279 0.947345 34.8491 0.19741 34.0753C0.00859676 33.8811 -0.100436 33.57 0.130927 33.3679C0.386223 33.1445 0.665455 33.3466 0.758532 33.5913C1.07233 34.3917 1.71589 34.3891 2.39935 34.3412V34.3385Z" fill="#0D1853"/>
<path d="M39.7444 26.3232C40.0343 26.3206 40.2337 26.4881 40.388 26.7009C40.6007 26.9961 40.7656 27.3737 40.4066 27.6183C39.912 27.9561 39.888 27.4056 39.7231 27.1503C39.6061 26.9721 39.4971 26.786 39.3854 26.6025C39.3588 26.3206 39.4811 26.2302 39.7471 26.3232H39.7444Z" fill="#0D1853"/>
<path d="M35.3935 26.5387C35.1568 25.951 34.6808 25.6504 34.9335 25.1319C34.984 25.0282 35.4121 24.967 35.5105 25.0548C35.936 25.443 35.7871 25.8871 35.3935 26.536V26.5387Z" fill="#0D1853"/>
<path d="M29.2273 33.538C30.3176 33.546 31.4053 33.5566 32.4956 33.5646C31.3787 33.9662 30.2405 33.8013 29.105 33.6949C29.1103 33.6683 29.1076 33.6338 29.1236 33.6151C29.1528 33.5832 29.1901 33.562 29.2273 33.538Z" fill="#0D1853"/>
<path d="M39.7446 26.3232L39.3829 26.6024C38.9335 26.3844 38.4787 26.3764 38.0213 26.5812L37.7314 26.3525C38.3963 25.9349 39.0664 25.9562 39.7446 26.3232Z" fill="#0D1853"/>
<path d="M40.9196 20.9992C40.7175 20.5285 40.4117 20.0286 40.9675 19.7095C41.0526 19.6616 41.2095 19.7387 41.3345 19.7573C41.1962 20.1722 41.0579 20.5844 40.9196 20.9992Z" fill="#0D1853"/>
<path d="M69.6773 33.312C69.9991 33.1232 70.3235 32.9317 70.749 32.6817C70.4858 33.1285 70.9325 33.921 69.9379 33.7906C69.781 33.6683 69.5311 33.5965 69.6773 33.3093V33.312Z" fill="#0D1853"/>
<path d="M52.6213 33.2695C53.0973 33.7083 53.5734 33.7109 54.0467 33.2642C53.9723 33.6223 53.7134 33.7987 53.2702 33.7934C52.9032 33.7898 52.686 33.6152 52.6187 33.2695H52.6213Z" fill="#0D1853"/>
<path d="M35.4075 6.20001C35.5271 5.94205 35.6415 5.46603 35.9473 5.6708C36.1946 5.83568 35.9207 6.25851 35.6734 6.49519L35.4075 6.20001Z" fill="#0D1853"/>
<path d="M43.6462 6.98717C43.4839 6.75315 43.1356 6.47392 43.4467 6.23724C43.6807 6.0564 43.8855 6.35691 43.9227 6.64677L43.6462 6.98717Z" fill="#0D1853"/>
<path d="M69.8962 26.9482C70.21 26.8764 70.117 26.5945 70.1808 26.3977C70.4414 26.6716 70.5105 27.02 70.335 27.3152C70.2792 27.4083 69.9813 27.1609 69.8962 26.9482Z" fill="#0D1853"/>
<path d="M63.7905 26.9455C64.0964 26.8711 64.0166 26.5998 64.0724 26.3977C64.341 26.6663 64.4102 27.02 64.2267 27.3099C64.1628 27.4109 63.8836 27.1476 63.7905 26.9455Z" fill="#0D1853"/>
<path d="M69.6778 33.312L69.9384 33.7934C69.5901 33.7854 69.2417 33.7747 68.8933 33.7668L69.4066 33.3253L69.6778 33.312Z" fill="#0D1853"/>
<path d="M11.4448 33.5833L12.5272 33.5487C12.1815 34.0832 11.8092 33.7216 11.4448 33.5833Z" fill="#0D1853"/>
<path d="M57.4209 33.5886C57.7826 33.5753 58.1442 33.562 58.5086 33.5487C58.1655 34.062 57.7905 33.7748 57.4209 33.5886Z" fill="#0D1853"/>
<path d="M79.787 27.1397C79.1142 27.1104 79.1408 26.8312 79.5291 26.4216C79.6195 26.5626 79.6807 26.7221 79.8003 26.8471C79.8269 26.8977 79.8535 26.9482 79.8775 26.9987C79.8482 27.0466 79.819 27.0944 79.787 27.1423V27.1397Z" fill="#0D1853"/>
<path d="M79.7357 26.879C79.6666 26.7275 79.5975 26.5732 79.5283 26.4216L79.8182 26.6051C79.89 26.7275 79.8661 26.8179 79.7331 26.879H79.7357Z" fill="#0D1853"/>
<path d="M79.7358 26.879C79.7624 26.7886 79.7917 26.6982 79.8209 26.6051C79.8794 26.7115 79.9406 26.8205 79.9991 26.9269C79.9193 26.9907 79.8449 26.9907 79.7757 26.9136L79.7385 26.879H79.7358Z" fill="#0D1853"/>
<path d="M79.7725 26.9136C79.8469 26.9136 79.9214 26.9189 79.9958 26.9269C80.0171 27.0891 79.948 27.1582 79.7858 27.1396C79.7804 27.0652 79.7778 26.988 79.7725 26.9136Z" fill="#0D1853"/>
<path fill-rule="evenodd" clip-rule="evenodd" d="M29.229 33.538L29.229 33.5354C30.3167 33.788 31.407 33.7242 32.4973 33.562C33.6276 33.4263 34.1993 32.7269 34.319 31.6552C34.4493 30.4824 33.6754 29.9851 32.6675 29.7033C33.835 28.7672 34.1249 28.2167 33.8376 27.4082C33.4818 26.4076 32.6391 26.3592 31.8104 26.3116C31.7163 26.3062 31.6223 26.3008 31.5293 26.294C31.3324 26.2797 31.1339 26.2841 30.9355 26.2885C30.6917 26.2939 30.4481 26.2994 30.2076 26.27C29.4763 26.1823 29.245 26.403 29.2636 27.1928C29.3012 28.6868 29.2776 30.1835 29.254 31.681C29.2442 32.299 29.2345 32.9172 29.229 33.5354L29.229 33.5354V33.538ZM30.543 31.4957C30.6872 31.3127 30.6447 31.0513 30.6027 30.7929C30.5324 30.3602 30.4635 29.936 31.2743 29.9027C32.3088 29.8602 33.0188 30.6287 32.9736 31.6606C32.9311 32.6259 32.4816 33.2748 31.4498 33.2748C30.5017 33.2748 30.5548 32.7775 30.6095 32.2654C30.6392 31.9875 30.6694 31.7052 30.5403 31.4957H30.543ZM30.6039 27.383C30.642 27.628 30.6807 27.8768 30.5204 28.0412C30.6813 28.2161 30.6399 28.4785 30.5993 28.7364C30.5324 29.1605 30.4674 29.5722 31.3076 29.5623C32.3421 29.549 32.6505 28.823 32.6505 27.98C32.6532 27.1317 32.2011 26.5972 31.273 26.5972C30.482 26.5988 30.5422 26.9859 30.6039 27.383Z" fill="#0D1853"/>
<path fill-rule="evenodd" clip-rule="evenodd" d="M10.4787 32.8041C10.6781 33.2136 10.9201 33.5726 11.444 33.5833V33.5859C11.8083 33.7136 12.17 33.7561 12.5264 33.5513C12.0956 32.9503 11.7206 32.3334 11.4573 31.626C10.8749 30.0676 10.226 28.5332 9.57184 27.0014C9.54115 26.9304 9.51784 26.8493 9.49403 26.7665C9.41883 26.5048 9.33869 26.2259 9.0054 26.1956C8.62482 26.1623 8.54186 26.4527 8.46528 26.7208C8.44393 26.7955 8.42308 26.8685 8.39641 26.9322C7.68409 28.6472 6.9849 30.3655 6.28595 32.0832C6.09508 32.5523 5.90423 33.0213 5.71313 33.4902C6.30617 33.796 6.48966 33.4795 6.61731 32.969C6.63814 32.8851 6.65611 32.7932 6.67459 32.6987C6.75518 32.2866 6.84556 31.8243 7.2263 31.7616C8.08527 31.618 8.9921 31.6393 9.86171 31.743C10.1876 31.7819 10.2698 32.0992 10.3516 32.415C10.3873 32.5527 10.4229 32.6902 10.4787 32.8041ZM9.76539 31.1526L8.52082 27.9747C8.22987 28.7202 7.9817 29.3568 7.74937 29.9528C7.58884 30.3646 7.43587 30.7571 7.28157 31.1526H9.76539Z" fill="#0D1853"/>
<path fill-rule="evenodd" clip-rule="evenodd" d="M56.0639 32.2524C56.3613 32.8322 56.6591 33.4127 57.4208 33.5885H57.4235C57.7905 33.7056 58.1548 33.7561 58.5112 33.5486C57.7342 32.3922 56.9572 31.2383 56.1754 30.0771L56.1045 29.9718C57.1257 29.5517 57.833 28.8443 57.6549 27.6928C57.4687 26.4775 56.4209 26.3392 55.429 26.2674C55.3109 26.259 55.1927 26.2495 55.0744 26.2401C54.2922 26.1776 53.5063 26.1149 52.7324 26.3551C52.9855 26.6481 53.3233 26.6936 53.6612 26.7391C53.824 26.761 53.9869 26.783 54.1403 26.8326C54.1716 26.7475 54.2083 26.6628 54.2513 26.5785C55.9134 26.6849 56.3495 27.0758 56.2192 28.3363C56.0889 29.5969 55.5039 29.9825 53.996 29.8096C53.9994 29.7848 54.0025 29.76 54.0053 29.7351C53.9762 29.7581 53.9481 29.7837 53.9211 29.8123C53.836 30.0037 53.8467 30.1846 53.985 30.3495C54.7587 30.1586 55.0535 30.6312 55.3527 31.1108C55.4371 31.2461 55.5219 31.3819 55.6178 31.5036C55.795 31.728 55.9294 31.9901 56.0639 32.2524Z" fill="#0D1853"/>
<path fill-rule="evenodd" clip-rule="evenodd" d="M22.3496 26.3765L22.8921 26.5467C22.8922 26.5467 22.8922 26.5467 22.8923 26.5467C22.8923 26.5467 22.8923 26.5467 22.8923 26.5467C24.4933 26.302 25.2857 26.7461 25.8416 28.1981C26.5967 30.1764 26.1688 32.0882 24.7066 33.2637C24.7064 33.2647 24.7061 33.2658 24.7058 33.2668L25.0143 33.4955C27.0912 33.0169 28.1337 30.4905 27.296 28.2513C26.5939 26.3765 24.4664 25.592 22.3496 26.3765Z" fill="#0D1853"/>
</svg>
