<svg width="80" height="62" viewBox="0 0 80 62" fill="none" xmlns="http://www.w3.org/2000/svg">
<g clip-path="url(#clip0_1311_45554)">
<path fill-rule="evenodd" clip-rule="evenodd" d="M11.8202 51.4366H10.0997C10.0997 51.4366 10.2149 51.1486 10.2522 50.8958C10.2874 50.6419 10.2799 50.5352 10.2799 50.5352V44.2216C10.2799 44.2216 10.2607 43.9176 10.2085 43.7918C10.1541 43.6638 10.0634 43.3043 10.0634 43.3043H12.1178C12.1178 43.3043 14.8037 43.3587 14.857 45.5752C14.8986 47.3075 13.2879 47.812 13.2879 47.812C13.2879 47.812 13.7039 48.5662 14.2426 49.219C15.2879 50.4808 16.1178 51.4195 16.1178 51.4195H14.7663C14.7663 51.4195 13.8479 50.5 13.0714 49.5966C12.2575 48.6483 11.5951 47.6862 11.5951 47.6862V50.4264C11.5951 50.4264 11.5951 50.7955 11.6485 50.9406C11.7029 51.0846 11.8202 51.4366 11.8202 51.4366ZM11.5951 47.5144V44.0264C11.5951 44.0264 13.5674 44.0883 13.5674 45.6296C13.5674 47.3896 11.5951 47.5144 11.5951 47.5144ZM70.3098 44.8915V43.5923C70.3098 43.5923 69.5706 43.1795 68.6437 43.1795C67.8309 43.1795 66.185 43.683 66.1295 45.4504C66.0794 47.0366 67.0479 47.2723 67.8597 47.8302C68.4954 48.2696 69.3189 48.6238 69.3189 49.38C69.3189 49.9592 68.9306 50.6067 67.8671 50.499C67.3018 50.4414 66.4805 49.5528 66.4805 49.5528V51.236C66.4805 51.236 67.5429 51.5987 68.3802 51.5251C69.2751 51.4494 70.3567 50.9214 70.5786 50.084C70.8495 49.0643 70.7055 47.9902 69.7861 47.3598C69.3061 47.0312 68.2362 46.4936 68.0719 46.3326C67.9109 46.1694 67.4074 45.9539 67.4778 45.1251C67.5077 44.7966 67.8394 44.2056 68.6127 44.1864C69.6581 44.164 70.3077 44.8904 70.3077 44.8904L70.3098 44.8915ZM55.7861 48.0915C55.3839 45.8078 56.9711 43.619 59.3338 43.203C61.6943 42.787 63.9343 44.2995 64.3365 46.5822C64.7397 48.8659 63.1503 51.0536 60.7898 51.4707C58.4271 51.8867 56.1893 50.3731 55.7861 48.0904V48.0915ZM57.0917 47.8803C56.7727 46.0702 57.8319 44.3699 59.4554 44.0851C61.0799 43.7971 62.6554 45.0323 62.9765 46.8424C63.2943 48.6536 62.2351 50.3518 60.6106 50.6398C58.9871 50.9256 57.4117 49.6904 57.0917 47.8814V47.8803ZM45.3295 48.0552C44.9274 45.7726 46.5157 43.5827 48.8762 43.1678C51.2378 42.7518 53.4778 44.2643 53.8799 46.547C54.2821 48.8296 52.6949 51.0184 50.3322 51.4344C47.9727 51.8515 45.7317 50.3379 45.3285 48.0552H45.3295ZM46.6351 47.844C46.3173 46.035 47.3754 44.3347 48.9999 44.0488C50.6245 43.7608 52.1989 44.996 52.5189 46.8072C52.8378 48.6163 51.7786 50.3166 50.1551 50.6024C48.5295 50.8894 46.9562 49.6552 46.6351 47.843V47.844ZM24.4858 43.2872H26.3781C26.3781 43.2872 26.3279 43.6616 26.3962 43.8099C26.5039 44.0435 27.8831 46.4606 27.8831 46.4606L29.289 43.908C29.289 43.908 29.3605 43.7811 29.3605 43.5838C29.3605 43.3864 29.3434 43.2883 29.3434 43.2883H31.0287L28.5413 47.6691L28.5509 50.771C28.5509 50.771 28.5722 50.9747 28.6053 51.1038C28.6309 51.2126 28.713 51.4195 28.713 51.4195H27.0725C27.0725 51.4195 27.1173 51.2734 27.1717 51.1123C27.2261 50.9512 27.2079 50.7603 27.2079 50.7603V47.6872L25.2261 44.2067C25.2261 44.2067 25.0629 43.8632 24.8826 43.7203C24.7034 43.5752 24.4869 43.2883 24.4869 43.2883L24.4858 43.2872ZM73.049 51.4195C73.049 51.4195 73.1749 51.156 73.2485 50.8691C73.3199 50.5811 73.3093 50.2739 73.3093 50.2739L73.3018 44.4947C73.3018 44.4947 73.2997 44.1107 73.1845 43.8003C73.0661 43.4867 72.9583 43.2702 72.9583 43.2702H77.5013L76.8143 44.5502C76.8143 44.5502 76.3994 44.3251 76.185 44.2344C75.7882 44.0659 75.3018 44.0712 75.3018 44.0712H74.6543V46.8755H77.1855L76.4741 48.0659C76.4741 48.0659 76.2767 47.988 76.0058 47.8664C75.6186 47.6958 75.1674 47.7043 75.1674 47.7043H74.6543V50.5811C74.6543 50.5811 76.0367 50.6163 76.537 50.4808C77.177 50.3091 77.9962 49.9774 77.9962 49.9774L77.3839 51.4206H73.049V51.4195ZM42.5231 44.8456V43.4856C42.5231 43.4856 36.1978 41.5187 35.6922 47.5048C35.4597 50.2728 38.1253 51.5635 40.0186 51.5262C41.9994 51.4878 43.1535 50.9672 43.1535 50.9672C43.0415 50.7603 43.0191 50.2654 43.0191 50.2654L43.001 48.3976C43.001 48.3976 43.0629 47.9208 43.1002 47.7758C43.1343 47.6307 43.2613 47.3427 43.2613 47.3427H41.1621C41.1621 47.3427 41.3669 47.604 41.4767 47.7928C41.6591 48.0979 41.6943 48.5694 41.6943 48.5694L41.7669 50.2099C41.7669 50.2099 41.049 50.5747 40.1978 50.5342C39.0629 50.4787 37.0799 49.6499 37.0255 47.6488C36.9903 46.3315 37.3306 44.6195 39.3146 44.1864C40.5498 43.9187 41.817 44.4968 42.5231 44.8446V44.8456ZM18.0079 51.4195C18.0079 51.4195 18.1338 51.156 18.2063 50.8691C18.2778 50.5811 18.2693 50.2739 18.2693 50.2739L18.2597 44.4947C18.2597 44.4947 18.2586 44.1107 18.1434 43.8003C18.0261 43.4867 17.9183 43.2702 17.9183 43.2702H22.4602L21.7754 44.5502C21.7754 44.5502 21.3605 44.3251 21.1439 44.2344C20.7471 44.0659 20.2618 44.0712 20.2618 44.0712H19.6133V46.8755H22.1455L21.4341 48.0659C21.4341 48.0659 21.2367 47.988 20.9647 47.8664C20.5775 47.6958 20.1263 47.7043 20.1263 47.7043H19.6143V50.5811C19.6143 50.5811 20.9967 50.6163 21.4981 50.4808C22.137 50.3091 22.9573 49.9774 22.9573 49.9774L22.3439 51.4206H18.0101L18.0079 51.4195ZM6.84314 44.8456V43.4856C6.84314 43.4856 0.518868 41.5187 0.0132683 47.5059C-0.219265 50.2739 2.44527 51.5646 4.3386 51.5272C6.32047 51.4888 7.4746 50.9683 7.4746 50.9683C7.36154 50.7614 7.33807 50.2664 7.33807 50.2664L7.31993 48.3987C7.31993 48.3987 7.38287 47.9219 7.41914 47.7768C7.45434 47.6318 7.58127 47.3438 7.58127 47.3438H5.48207C5.48207 47.3438 5.68687 47.6051 5.79673 47.7939C5.977 48.099 6.01327 48.5704 6.01327 48.5704L6.08473 50.211C6.08473 50.211 5.36687 50.5758 4.51673 50.5352C3.38287 50.4798 1.39887 49.651 1.34554 47.6499C1.31034 46.3326 1.65167 44.6206 3.63353 44.1875C4.86873 43.9198 6.137 44.4979 6.841 44.8456H6.84314Z" fill="#0D1853"/>
<path fill-rule="evenodd" clip-rule="evenodd" d="M18.0527 51.7342L18.2693 51.9592H22.7919L23.7125 49.8046L23.3061 49.9667L22.5583 51.7342H18.0527Z" fill="#0D1853"/>
<path fill-rule="evenodd" clip-rule="evenodd" d="M19.9185 50.2728V48.0104C19.9185 48.0104 20.0945 48.0062 20.2737 48.0136C20.391 48.019 20.7014 48.083 20.8134 48.132C20.9787 48.2046 21.5654 48.452 21.5654 48.452L22.4806 46.9064H22.887L21.8278 48.6792C21.8278 48.6792 21.1878 48.4179 21.0523 48.3635C20.8326 48.2728 20.5755 48.2568 20.4497 48.2568H20.1606V50.2739H19.9185V50.2728Z" fill="#0D1853"/>
<path fill-rule="evenodd" clip-rule="evenodd" d="M19.9185 46.564V44.3784H20.2374C20.2374 44.3784 20.4859 44.3816 20.6566 44.4094C20.775 44.4275 21.0086 44.5086 21.1025 44.5523C21.2241 44.612 21.9046 44.9683 21.9046 44.9683L22.791 43.3054L23.0214 43.5891L22.1691 45.1859L21.3777 44.7923C21.3777 44.7923 21.2635 44.7208 21.0758 44.6835C20.887 44.6472 20.7739 44.6334 20.5937 44.6259C20.4123 44.6174 20.1606 44.6206 20.1606 44.6206V46.564H19.9185Z" fill="#0D1853"/>
<path fill-rule="evenodd" clip-rule="evenodd" d="M73.1133 51.7342L73.3287 51.9592H77.8535L78.7719 49.8046L78.3655 49.9667L77.6178 51.7342H73.1133Z" fill="#0D1853"/>
<path fill-rule="evenodd" clip-rule="evenodd" d="M74.9786 50.2728V48.0104C74.9786 48.0104 75.1546 48.0061 75.3338 48.0136C75.4511 48.0189 75.7626 48.0829 75.8746 48.132C76.0389 48.2045 76.6266 48.452 76.6266 48.452L77.5407 46.9064H77.9482L76.889 48.6792C76.889 48.6792 76.2479 48.4178 76.1125 48.3634C75.8917 48.2728 75.6357 48.2568 75.5087 48.2568H75.2207V50.2738H74.9775L74.9786 50.2728Z" fill="#0D1853"/>
<path fill-rule="evenodd" clip-rule="evenodd" d="M74.9785 46.5641V44.3785H75.2985C75.2985 44.3785 75.5449 44.3817 75.7166 44.4094C75.8329 44.4276 76.0686 44.5086 76.1636 44.5524C76.2852 44.6121 76.9646 44.9684 76.9646 44.9684L77.8532 43.3054L78.0815 43.5892L77.2292 45.186L76.4377 44.7924C76.4377 44.7924 76.3246 44.7209 76.1369 44.6836C75.9481 44.6473 75.834 44.6334 75.6548 44.626C75.4745 44.6174 75.2217 44.6206 75.2217 44.6206V46.5641H74.9785Z" fill="#0D1853"/>
<path fill-rule="evenodd" clip-rule="evenodd" d="M12.1447 47.0728L11.9058 47.1389V44.3773C11.9058 44.3773 12.1959 44.4381 12.3932 44.5107C12.7442 44.644 12.9564 44.8552 12.9564 44.8552C12.9564 44.8552 12.6364 44.724 12.4508 44.6653C12.3271 44.6248 12.1447 44.6024 12.1447 44.6024V47.0728Z" fill="#0D1853"/>
<path fill-rule="evenodd" clip-rule="evenodd" d="M13.7354 47.955C13.7354 47.955 14.5599 47.5422 14.8799 46.8649C15.5775 45.3875 14.8116 44.3145 14.8116 44.3145C14.8116 44.3145 15.857 45.3278 15.1679 47.0142C14.849 47.7939 13.9199 48.2355 13.9199 48.2355L13.7354 47.955Z" fill="#0D1853"/>
<path fill-rule="evenodd" clip-rule="evenodd" d="M10.0089 51.987L10.0995 51.7523H12.2425L12.0355 51.2115C12.0355 51.2115 11.9545 51.0035 11.9374 50.8595C11.9193 50.7144 11.9022 50.5171 11.9022 50.5171L11.9097 48.6515L12.1347 48.931V50.7518C12.1347 50.7518 12.1166 50.9608 12.1699 51.1038C12.2243 51.2478 12.4675 51.987 12.4675 51.987H10.0078H10.0089Z" fill="#0D1853"/>
<path fill-rule="evenodd" clip-rule="evenodd" d="M14.8149 51.7343L15.0549 51.9593H16.5056L16.2891 51.7343H14.8149Z" fill="#0D1853"/>
<path fill-rule="evenodd" clip-rule="evenodd" d="M2.28425 49.1465C2.28425 49.1465 1.58025 48.4969 2.04959 46.5503C2.32692 45.3961 3.23785 44.7167 4.44639 44.6943C6.15945 44.6559 7.40212 45.6127 7.40212 45.6127V43.5753H7.38399L7.16745 43.5231V45.3257C7.16745 45.3257 5.67199 44.4607 4.42932 44.4244C3.49065 44.3956 2.24799 44.6953 1.79785 46.3359C1.24852 48.3337 2.28425 49.1487 2.28425 49.1487V49.1465Z" fill="#0D1853"/>
<path fill-rule="evenodd" clip-rule="evenodd" d="M1.3287 50.9149C1.3287 50.9149 2.37404 51.8611 4.39324 51.8515C6.37617 51.8419 7.8535 51.1389 7.8535 51.1389C7.8535 51.1389 7.7799 50.9981 7.7095 50.7155C7.6199 50.356 7.63697 49.9581 7.63697 49.9581V48.4253C7.63697 48.4253 7.62844 48.228 7.7191 47.9037C7.8087 47.5784 7.9079 47.38 7.9079 47.38H8.22257C8.22257 47.38 8.01457 47.6776 7.91537 48.3635C7.8631 48.7315 7.8887 50.3197 7.8887 50.3197C7.8887 50.3197 7.88017 50.7464 7.96017 50.9779C8.0487 51.2317 8.0775 51.4205 8.0775 51.4205C8.0775 51.4205 7.8599 51.6072 6.54577 51.8803C2.9767 52.6195 1.32764 50.916 1.32764 50.916L1.3287 50.9149Z" fill="#0D1853"/>
<path fill-rule="evenodd" clip-rule="evenodd" d="M27.0768 51.7289H29.1494L29 51.315C29 51.315 28.9328 51.1625 28.8966 51.0164C28.8614 50.8734 28.8571 50.6974 28.8571 50.6974L28.8528 47.7556L31.3712 43.3161H31.7648L29.0832 48.0297L29.0918 50.9065C29.0918 50.9065 29.0864 51.0142 29.1088 51.1444C29.1302 51.2745 29.1536 51.4004 29.1536 51.4004L29.3979 51.9614H27.0342L27.0768 51.7289Z" fill="#0D1853"/>
<path fill-rule="evenodd" clip-rule="evenodd" d="M27.909 45.7567L27.8781 45.8282L26.7111 43.745C26.7111 43.745 26.6845 43.7055 26.6749 43.6575C26.6631 43.5967 26.6674 43.5274 26.6695 43.4922C26.6749 43.4548 26.6845 43.3162 26.6845 43.3162H26.9565C26.9565 43.3162 26.9181 43.6127 26.9117 43.6863C26.9063 43.7418 26.9053 43.8762 26.9053 43.8762C26.9053 43.8762 26.9138 43.9711 26.9277 44.0084C26.9405 44.0426 27.909 45.7567 27.909 45.7567Z" fill="#0D1853"/>
<path fill-rule="evenodd" clip-rule="evenodd" d="M37.9631 49.1465C37.9631 49.1465 37.2591 48.4969 37.7295 46.5503C38.0057 45.3961 38.9177 44.7167 40.1252 44.6943C41.8361 44.6559 43.0799 45.6127 43.0799 45.6127V43.5753H43.0617L42.8441 43.5231V45.3257C42.8441 45.3257 41.3497 44.4607 40.106 44.4244C39.1673 44.3956 37.9247 44.6953 37.4735 46.3359C36.9252 48.3337 37.962 49.1487 37.962 49.1487L37.9631 49.1465Z" fill="#0D1853"/>
<path fill-rule="evenodd" clip-rule="evenodd" d="M37.0069 50.9149C37.0069 50.9149 38.0523 51.8611 40.0693 51.8515C42.0533 51.8419 43.5307 51.1389 43.5307 51.1389C43.5307 51.1389 43.456 50.9981 43.3856 50.7155C43.296 50.356 43.3141 49.9581 43.3141 49.9581V48.4253C43.3141 48.4253 43.3056 48.228 43.3952 47.9037C43.4837 47.5784 43.584 47.38 43.584 47.38H43.8987C43.8987 47.38 43.6907 47.6776 43.5925 48.3635C43.5403 48.7315 43.5659 50.3197 43.5659 50.3197C43.5659 50.3197 43.5563 50.7464 43.6395 50.9779C43.7248 51.2317 43.7547 51.4205 43.7547 51.4205C43.7547 51.4205 43.5371 51.6072 42.2229 51.8803C38.6549 52.6195 37.0059 50.916 37.0059 50.916L37.0069 50.9149Z" fill="#0D1853"/>
<path fill-rule="evenodd" clip-rule="evenodd" d="M51.158 44.9631C51.158 44.9631 50.07 43.9263 48.6182 44.4682C47.6924 44.8127 47.0225 45.7567 46.9158 46.7839C46.7452 48.4351 47.6806 49.3546 47.6806 49.3546C47.6806 49.3546 46.7345 47.9476 47.2924 46.4426C47.6913 45.3716 48.2257 44.9642 48.934 44.6932C50.0604 44.2591 51.158 44.9631 51.158 44.9631Z" fill="#0D1853"/>
<path fill-rule="evenodd" clip-rule="evenodd" d="M53.4853 44.7474C53.4853 44.7474 54.4303 46.1448 54.233 47.7042C54.0634 49.0408 53.3498 50.5629 51.4202 51.4269C48.8943 52.5629 46.8794 50.9682 46.8794 50.9682C46.8794 50.9682 47.8885 51.8706 49.2837 52.0136C50.3823 52.1277 51.6197 51.8706 52.5189 51.2296C54.1487 50.0733 54.4335 48.437 54.4399 47.5154C54.4474 45.8941 53.4853 44.7474 53.4853 44.7474Z" fill="#0D1853"/>
<path fill-rule="evenodd" clip-rule="evenodd" d="M61.6163 45.0088C61.6163 45.0088 60.5252 43.9709 59.0745 44.5117C58.1476 44.8594 57.4777 45.8013 57.3721 46.8296C57.2003 48.4808 58.1379 49.3992 58.1379 49.3992C58.1379 49.3992 57.1918 47.9912 57.7507 46.4861C58.1465 45.4162 58.683 45.0098 59.3902 44.7378C60.5166 44.3048 61.6163 45.0088 61.6163 45.0088Z" fill="#0D1853"/>
<path fill-rule="evenodd" clip-rule="evenodd" d="M63.9407 44.7912C63.9407 44.7912 64.8879 46.1896 64.6885 47.7491C64.5167 49.0856 63.8053 50.6067 61.8778 51.4739C59.3498 52.6067 57.3359 51.0141 57.3359 51.0141C57.3359 51.0141 58.345 51.9155 59.7423 52.0584C60.8389 52.1725 62.0741 51.9155 62.9775 51.2744C64.6074 50.1181 64.8911 48.4819 64.8954 47.5613C64.905 45.9379 63.9407 44.7923 63.9407 44.7923V44.7912Z" fill="#0D1853"/>
<path fill-rule="evenodd" clip-rule="evenodd" d="M68.079 45.9422C68.079 45.9422 67.6897 45.6819 67.8006 45.0899C67.8508 44.8115 68.1569 44.4723 68.7649 44.4936C69.4678 44.5203 70.0577 45.0707 70.0577 45.0707C70.0577 45.0707 69.6374 44.7742 69.1382 44.7379C68.5793 44.6984 68.2145 44.9011 68.0705 45.2787C67.9254 45.6584 68.079 45.9422 68.079 45.9422Z" fill="#0D1853"/>
<path fill-rule="evenodd" clip-rule="evenodd" d="M70.8548 45.7842L70.6255 45.5538V43.7416L70.8516 43.9346L70.8548 45.7842Z" fill="#0D1853"/>
<path fill-rule="evenodd" clip-rule="evenodd" d="M66.5117 51.7161V51.5763C66.5117 51.5763 67.2957 51.8387 68.0296 51.8515C68.548 51.8611 69.5389 51.7267 70.2195 51.139C70.9096 50.5438 70.9533 49.9987 71.0163 49.3513C71.0909 48.5865 70.6429 47.7769 70.6429 47.7769C70.6429 47.7769 71.1613 48.4201 71.2467 49.2105C71.3725 50.3817 70.7699 52.2035 67.9848 52.0585C67.3213 52.0254 66.5117 51.7171 66.5117 51.7171V51.7161Z" fill="#0D1853"/>
<path fill-rule="evenodd" clip-rule="evenodd" d="M78.8428 43.7546C78.8428 43.4239 79.1073 43.1786 79.4209 43.1786C79.7345 43.1786 79.999 43.4239 79.999 43.7546C79.999 44.0853 79.7334 44.3338 79.4209 44.3338C79.1084 44.3338 78.8428 44.0895 78.8428 43.7546ZM79.4209 44.2389C79.6801 44.2389 79.8817 44.033 79.8817 43.7546C79.8817 43.4762 79.679 43.2757 79.4209 43.2757C79.1628 43.2757 78.9569 43.4815 78.9569 43.7546C78.9569 44.0277 79.1606 44.2389 79.4209 44.2389ZM79.3014 44.0906H79.2012V43.425H79.4518C79.6076 43.425 79.6844 43.4826 79.6844 43.6138C79.6844 43.7333 79.6097 43.7845 79.5126 43.7973L79.7004 44.0906H79.5884L79.4145 43.8005H79.3014V44.0906ZM79.4198 43.7151C79.503 43.7151 79.5798 43.7098 79.5798 43.6063C79.5798 43.5231 79.5052 43.5093 79.4348 43.5093H79.3014V43.7151H79.4198Z" fill="#0D1853"/>
<path fill-rule="evenodd" clip-rule="evenodd" d="M27.5068 0.0776688C27.4364 0.191802 26.5169 1.87287 26.8764 4.09687C26.8764 4.09687 26.2812 3.6062 25.6678 1.86327C25.6678 1.86327 25.6209 1.74274 25.5889 1.8366C25.5569 1.93154 25.2582 3.34487 25.6945 4.91074C25.6945 4.91074 25.4844 5.1422 25.4844 6.11927C25.4844 7.30114 25.6838 8.48407 26.1148 9.24567C26.1148 9.24567 25.9313 9.64994 25.9313 10.3497C25.9313 12.4094 27.527 14.9406 27.718 15.1838C27.718 15.1838 27.6913 15.4793 27.6913 15.8142C27.6913 19.5059 31.8033 21.3705 32.4732 27.1379C32.4732 27.1379 33.1953 28.1886 34.5745 29.1081C34.5745 29.1081 34.4166 29.283 33.2348 30.7369C32.0529 32.1907 31.1334 33.2147 30.2129 33.3907C30.1606 33.3907 30.166 33.443 30.2129 33.4697C30.2598 33.4963 30.5969 33.8793 31.7628 33.8899C31.6476 33.9422 31.4054 34.1054 30.9478 34.1523C30.8956 34.1523 30.9105 34.1843 30.9745 34.2046C31.0374 34.2259 32.199 34.9139 34.5212 34.9139C43.0918 34.4755 46.6545 27.9379 51.0726 26.6377C51.9654 26.6377 53.127 26.1278 53.9622 25.1667C54.0828 25.0718 54.6353 24.8361 55.5388 24.5097C55.8545 24.4147 56.0113 24.2313 56.0113 24.1417C56.0113 24.0521 56.0113 23.9049 55.6433 23.9049C55.2753 23.9049 55.6433 23.9315 54.9073 23.9315C53.6145 23.9315 52.6428 23.5369 52.0433 23.5369C50.5926 23.5369 50.0518 24.7187 49.5996 25.1134C49.142 25.507 48.2812 25.7278 47.6817 25.8494C47.0822 25.9699 44.4817 26.3902 43.7404 26.7166C43.814 26.3859 43.8556 25.7811 44.6332 24.7465C45.4108 23.7118 47.2433 21.8387 47.9697 20.3849C48.6438 18.7827 49.0993 17.539 49.3617 16.7859C49.6241 16.0329 49.782 14.4638 50.9116 12.819C50.9713 12.7454 51.0801 12.4734 50.8326 12.6089C50.5852 12.7443 49.0502 14.1289 48.8881 14.9993C48.8881 14.9993 48.6438 14.4702 49.0193 13.843C49.0534 13.7939 49.094 13.6403 48.9137 13.7641C48.7334 13.8878 48.4892 13.9966 47.7574 15.0249C47.5302 15.3225 47.5249 15.5806 46.5222 16.9694C46.0977 17.5518 45.4716 18.3923 44.8412 19.1497C44.2108 19.907 42.8177 21.5241 41.3468 22.8275C40.2129 23.8483 39.718 24.2462 39.718 24.2462C39.718 24.2462 38.6193 23.1326 37.59 21.6713C36.5596 20.2099 35.126 17.9614 34.7526 17.2841C34.3793 16.6057 32.5329 13.3822 31.2849 10.5843C30.0369 7.78647 29.0694 5.46114 28.3686 3.04407C27.6678 0.627002 27.622 0.228069 27.607 0.101135C27.591 -0.0247312 27.5718 -0.0385979 27.5014 0.0744688L27.5068 0.0776688Z" fill="#0D1853"/>
<path d="M0.102629 57.139H0.475962L1.2141 59.2809L1.98316 57.0238L2.76076 59.2809L3.5021 57.139H3.87543L2.74796 60.163L1.98636 57.9123L1.22903 60.163L0.101562 57.139H0.102629Z" fill="#0D1853"/>
<path d="M7.91038 58.6003C7.91038 58.8083 7.87198 59.0045 7.79518 59.1891C7.71838 59.3736 7.60638 59.5368 7.45919 59.6808C7.31199 59.8237 7.14238 59.9346 6.95038 60.0115C6.75838 60.0893 6.55998 60.1277 6.35412 60.1277C6.14825 60.1277 5.95092 60.0893 5.75998 60.0115C5.57012 59.9336 5.40052 59.8237 5.25332 59.6808C5.10505 59.5368 4.99198 59.3715 4.91412 59.188C4.83625 59.0035 4.79785 58.8083 4.79785 58.6013C4.79785 58.3944 4.83625 58.1971 4.91412 58.0115C4.99198 57.8269 5.10505 57.6616 5.25332 57.5176C5.39945 57.3757 5.56798 57.2659 5.75892 57.1891C5.94985 57.1123 6.14825 57.0739 6.35412 57.0739C6.55998 57.0739 6.76052 57.1123 6.95252 57.1891C7.14452 57.2659 7.31305 57.3757 7.45919 57.5176C7.60638 57.6605 7.71838 57.8248 7.79518 58.0093C7.87198 58.1939 7.91038 58.3912 7.91038 58.6003ZM6.35412 59.8013C6.51305 59.8013 6.66452 59.7714 6.80852 59.7106C6.95252 59.6498 7.08265 59.5624 7.19785 59.4472C7.31198 59.3331 7.39838 59.204 7.45812 59.06C7.51785 58.916 7.54772 58.7624 7.54772 58.6003C7.54772 58.4381 7.51785 58.2824 7.45705 58.1352C7.39625 57.988 7.30985 57.8579 7.19785 57.7459C7.08372 57.6317 6.95465 57.5453 6.81065 57.4856C6.66665 57.4259 6.51412 57.396 6.35412 57.396C6.19412 57.396 6.03945 57.4259 5.89438 57.4856C5.74932 57.5453 5.62132 57.6317 5.51038 57.7459C5.39625 57.8611 5.30985 57.9922 5.25012 58.1373C5.19038 58.2834 5.16052 58.4371 5.16052 58.6003C5.16052 58.7635 5.19038 58.9149 5.24905 59.0578C5.30772 59.2008 5.39518 59.3309 5.51038 59.4472C5.62665 59.5635 5.75678 59.652 5.89972 59.7117C6.04265 59.7715 6.19412 59.8013 6.35412 59.8013Z" fill="#0D1853"/>
<path d="M9.20752 60.05V57.139H9.89125C10.0865 57.139 10.2294 57.1497 10.3201 57.1721C10.4107 57.1934 10.4907 57.2318 10.5601 57.2841C10.6465 57.3513 10.7137 57.442 10.7606 57.555C10.8086 57.6681 10.8321 57.794 10.8321 57.9316C10.8321 58.1705 10.7659 58.3518 10.6326 58.4756C10.4993 58.5993 10.3041 58.6612 10.047 58.6612H9.98512L11.0966 60.0489H10.6571L9.59579 58.6612H9.54565V60.0489H9.20752V60.05ZM9.54565 57.4313V58.4052H9.81019C10.0811 58.4052 10.2614 58.37 10.3531 58.3006C10.4449 58.2313 10.4907 58.1097 10.4907 57.9358C10.4907 57.7492 10.4438 57.618 10.3499 57.5433C10.2561 57.4686 10.0758 57.4313 9.81125 57.4313H9.54672H9.54565Z" fill="#0D1853"/>
<path d="M12.3735 60.05V57.139H12.7191V59.7204H13.8189V60.05H12.3735Z" fill="#0D1853"/>
<path d="M15.3159 60.05V57.139H15.8749C16.2887 57.139 16.5799 57.1604 16.7485 57.202C16.917 57.2436 17.0653 57.314 17.1933 57.4121C17.3607 57.5401 17.4866 57.7054 17.573 57.9049C17.6594 58.1054 17.7021 58.3358 17.7021 58.5972C17.7021 58.8585 17.6594 59.0868 17.5741 59.2862C17.4887 59.4857 17.3618 59.65 17.1933 59.779C17.0663 59.8772 16.9213 59.9465 16.7591 59.9892C16.597 60.0308 16.3442 60.0521 16.0007 60.0521H15.317L15.3159 60.05ZM15.6658 59.7236H15.8866C16.245 59.7236 16.4925 59.7076 16.6301 59.6766C16.7677 59.6457 16.8828 59.5924 16.9746 59.5166C17.094 59.4174 17.1847 59.2894 17.2466 59.1316C17.3085 58.9748 17.3405 58.7945 17.3405 58.5918C17.3405 58.3892 17.3095 58.2089 17.2477 58.0542C17.1858 57.8996 17.0951 57.7726 16.9746 57.6713C16.8828 57.5945 16.7666 57.5401 16.6258 57.507C16.485 57.475 16.2386 57.458 15.8866 57.458H15.6658V59.7225V59.7236Z" fill="#0D1853"/>
<path d="M18.6001 58.1533L18.9777 57.0739L19.3158 57.1912L18.8284 58.2472L18.6001 58.1533Z" fill="#0D1853"/>
<path d="M21.6112 58.4329C21.801 58.514 21.944 58.6206 22.04 58.755C22.136 58.8894 22.184 59.0473 22.184 59.2308C22.184 59.4985 22.0986 59.714 21.928 59.8782C21.7573 60.0425 21.5322 60.1236 21.2506 60.1236C21.0213 60.1236 20.8293 60.0649 20.6736 59.9476C20.5178 59.8302 20.4133 59.6638 20.3589 59.4473L20.6736 59.2926C20.7162 59.4686 20.7856 59.602 20.8837 59.6937C20.9808 59.7844 21.1034 59.8302 21.2506 59.8302C21.4245 59.8302 21.5653 59.7801 21.672 59.6798C21.7797 59.5796 21.833 59.4494 21.833 59.2894C21.833 59.1593 21.7957 59.0462 21.721 58.9502C21.6464 58.8542 21.5333 58.7732 21.3818 58.707L21.0277 58.5556C20.8336 58.4745 20.6896 58.371 20.5957 58.243C20.5008 58.1161 20.4538 57.9636 20.4538 57.7854C20.4538 57.5785 20.5306 57.4078 20.6842 57.2724C20.8378 57.1369 21.0341 57.0697 21.273 57.0697C21.448 57.0697 21.5994 57.107 21.7274 57.1806C21.8554 57.2553 21.9546 57.3641 22.0272 57.5092L21.7413 57.6916C21.6762 57.5785 21.6037 57.4953 21.5226 57.4398C21.4416 57.3844 21.3498 57.3577 21.2485 57.3577C21.1184 57.3577 21.0117 57.3972 20.9296 57.4772C20.8464 57.5572 20.8048 57.6585 20.8048 57.7812C20.8048 57.8846 20.8368 57.9742 20.9008 58.05C20.9648 58.1257 21.0629 58.1929 21.1973 58.2505L21.6133 58.4329H21.6112Z" fill="#0D1853"/>
<path d="M25.0894 60.05V57.139H25.6963C25.9096 57.139 26.0675 57.1497 26.1688 57.1721C26.2702 57.1934 26.3576 57.2318 26.4302 57.2841C26.523 57.3534 26.5944 57.442 26.6456 57.5497C26.6968 57.6574 26.7224 57.7758 26.7224 57.9049C26.7224 58.0585 26.6862 58.1876 26.6126 58.291C26.539 58.3945 26.4323 58.467 26.2915 58.5076C26.4643 58.5342 26.5998 58.611 26.7 58.739C26.8003 58.867 26.8504 59.0281 26.8504 59.2233C26.8504 59.3396 26.8291 59.4516 26.7864 59.5572C26.7438 59.6628 26.6851 59.7545 26.6094 59.8292C26.5272 59.9102 26.4259 59.9668 26.3054 59.9998C26.1848 60.0329 25.9822 60.0489 25.6974 60.0489H25.0904L25.0894 60.05ZM25.4275 57.4388V58.4126H25.6963C25.9427 58.4126 26.1166 58.3764 26.2168 58.3049C26.3171 58.2334 26.3683 58.1129 26.3683 57.9433C26.3683 57.7566 26.3214 57.6254 26.2286 57.5508C26.1347 57.4761 25.9576 57.4388 25.6963 57.4388H25.4275ZM25.4275 58.6857V59.747H25.6963C25.8808 59.747 26.0131 59.7396 26.0952 59.7257C26.1763 59.7108 26.2424 59.6862 26.2915 59.65C26.3512 59.6073 26.3982 59.5486 26.4323 59.4729C26.4664 59.3972 26.4835 59.314 26.4835 59.2222C26.4835 59.1166 26.4632 59.0238 26.4216 58.946C26.38 58.8681 26.3214 58.8073 26.2424 58.7636C26.1955 58.7358 26.1422 58.7156 26.0814 58.7038C26.0206 58.6921 25.9256 58.6857 25.7966 58.6857H25.4264H25.4275Z" fill="#0D1853"/>
<path d="M28.3735 60.05V57.139H29.9085V57.4548H28.7191V58.29H29.9085V58.6121H28.7191V59.7278H29.9085V60.05H28.3735Z" fill="#0D1853"/>
<path d="M32.6185 58.4329C32.8083 58.514 32.9513 58.6206 33.0473 58.755C33.1433 58.8894 33.1913 59.0473 33.1913 59.2308C33.1913 59.4985 33.1059 59.714 32.9353 59.8782C32.7646 60.0425 32.5395 60.1236 32.2579 60.1236C32.0286 60.1236 31.8366 60.0649 31.6809 59.9476C31.5251 59.8302 31.4206 59.6638 31.3662 59.4473L31.6809 59.2926C31.7235 59.4686 31.7929 59.602 31.891 59.6937C31.9881 59.7844 32.1107 59.8302 32.2579 59.8302C32.4318 59.8302 32.5726 59.7801 32.6793 59.6798C32.787 59.5796 32.8403 59.4494 32.8403 59.2894C32.8403 59.1593 32.803 59.0462 32.7283 58.9502C32.6537 58.8542 32.5406 58.7732 32.3891 58.707L32.035 58.5556C31.8419 58.4745 31.6969 58.371 31.603 58.243C31.5081 58.1161 31.4611 57.9636 31.4611 57.7854C31.4611 57.5785 31.5379 57.4078 31.6915 57.2724C31.8451 57.1369 32.0414 57.0697 32.2803 57.0697C32.4553 57.0697 32.6067 57.107 32.7347 57.1806C32.8627 57.2553 32.9619 57.3641 33.0345 57.5092L32.7486 57.6916C32.6835 57.5785 32.611 57.4953 32.5299 57.4398C32.4489 57.3844 32.3571 57.3577 32.2558 57.3577C32.1257 57.3577 32.019 57.3972 31.9369 57.4772C31.8537 57.5572 31.8131 57.6585 31.8131 57.7812C31.8131 57.8846 31.8451 57.9742 31.9081 58.05C31.9721 58.1257 32.0702 58.1929 32.2046 58.2505L32.6206 58.4329H32.6185Z" fill="#0D1853"/>
<path d="M35.0554 60.0501V57.4687H34.2319V57.1381H36.2245V57.4687H35.4053V60.0501H35.0554Z" fill="#0D1853"/>
<path d="M39.5222 60.05V57.4687H38.6987V57.138H40.6913V57.4687H39.8721V60.05H39.5222Z" fill="#0D1853"/>
<path d="M42.857 57.0238L44.1818 60.0499H43.8063L43.4287 59.1571H42.2916L41.914 60.0499H41.5386L42.8591 57.0238H42.857ZM42.857 57.7897L42.394 58.8617H43.321L42.858 57.7897H42.857Z" fill="#0D1853"/>
<path d="M46.5174 58.4328C46.7073 58.5139 46.8502 58.6206 46.9462 58.755C47.0422 58.8894 47.0902 59.0472 47.0902 59.2307C47.0902 59.4984 47.0049 59.7139 46.8342 59.8782C46.6635 60.0424 46.4385 60.1235 46.1569 60.1235C45.9275 60.1235 45.7355 60.0648 45.5798 59.9475C45.4251 59.8302 45.3195 59.6638 45.2651 59.4472L45.5798 59.2926C45.6225 59.4686 45.6918 59.6019 45.7899 59.6936C45.887 59.7843 46.0097 59.8302 46.1569 59.8302C46.3307 59.8302 46.4715 59.78 46.5782 59.6798C46.6859 59.5795 46.7393 59.4494 46.7393 59.2894C46.7393 59.1592 46.7019 59.0462 46.6273 58.9502C46.5526 58.8542 46.4395 58.7731 46.2881 58.707L45.9339 58.5555C45.7409 58.4744 45.5958 58.371 45.5019 58.243C45.407 58.116 45.3601 57.9635 45.3601 57.7854C45.3601 57.5784 45.4369 57.4078 45.5905 57.2723C45.7441 57.1368 45.9403 57.0696 46.1793 57.0696C46.3542 57.0696 46.5057 57.107 46.6337 57.1806C46.7617 57.2552 46.8609 57.364 46.9334 57.5091L46.6475 57.6915C46.5825 57.5784 46.5099 57.4952 46.4289 57.4398C46.3478 57.3843 46.2561 57.3576 46.1547 57.3576C46.0246 57.3576 45.919 57.3971 45.8358 57.4771C45.7526 57.5571 45.711 57.6584 45.711 57.7811C45.711 57.8846 45.743 57.9742 45.8059 58.0499C45.8699 58.1256 45.9681 58.1928 46.1025 58.2504L46.5185 58.4328H46.5174Z" fill="#0D1853"/>
<path d="M48.9802 60.0501V57.4687H48.1567V57.1381H50.1493V57.4687H49.3301V60.0501H48.9802Z" fill="#0D1853"/>
<path d="M51.272 60.05V57.139H51.6176V60.05H51.272Z" fill="#0D1853"/>
<path d="M53.0557 60.0499V57.0238L55.1847 59.3502V57.139H55.5143V60.163L53.3853 57.8622V60.0499H53.0557Z" fill="#0D1853"/>
<path d="M58.5444 58.5469H59.7454V58.644C59.7454 59.1026 59.6153 59.4642 59.3561 59.7298C59.0958 59.9944 58.7417 60.1277 58.2926 60.1277C58.1561 60.1277 58.026 60.1128 57.9022 60.084C57.7785 60.0541 57.6644 60.0125 57.5588 59.957C57.3198 59.8258 57.1364 59.6445 57.0062 59.4131C56.8761 59.1816 56.811 58.9192 56.811 58.6248C56.811 58.3827 56.8494 58.1629 56.9273 57.9677C57.0052 57.7725 57.1214 57.5997 57.2782 57.4515C57.4094 57.3267 57.562 57.2328 57.7358 57.1688C57.9097 57.1048 58.1017 57.0739 58.3129 57.0739C58.5924 57.0739 58.8356 57.1251 59.0404 57.2264C59.2462 57.3277 59.4158 57.4803 59.5513 57.6851L59.2612 57.9176C59.1566 57.7416 59.0254 57.6093 58.8697 57.5208C58.7129 57.4323 58.5316 57.3885 58.3246 57.3885C57.9865 57.3885 57.7124 57.5026 57.5012 57.7309C57.29 57.9592 57.1854 58.2568 57.1854 58.6259C57.1854 58.9736 57.2921 59.2584 57.5065 59.4813C57.7209 59.7043 57.9929 59.8152 58.3246 59.8152C58.6158 59.8152 58.859 59.7267 59.0532 59.5496C59.2473 59.3725 59.355 59.1421 59.3764 58.8584H58.5454V58.548L58.5444 58.5469Z" fill="#0D1853"/>
<path d="M63.6533 60.163L62.4224 57.139H62.7978L63.6533 59.3662L64.5045 57.139H64.8778L63.6533 60.163Z" fill="#0D1853"/>
<path d="M69.0818 58.6003C69.0818 58.8083 69.0434 59.0045 68.9666 59.1891C68.8898 59.3736 68.7778 59.5368 68.6306 59.6808C68.4834 59.8237 68.3138 59.9346 68.1218 60.0115C67.9298 60.0883 67.7314 60.1277 67.5255 60.1277C67.3196 60.1277 67.1223 60.0893 66.9314 60.0115C66.7404 59.9336 66.5719 59.8237 66.4247 59.6808C66.2764 59.5368 66.1634 59.3715 66.0855 59.188C66.0076 59.0035 65.9692 58.8083 65.9692 58.6013C65.9692 58.3944 66.0076 58.1971 66.0855 58.0115C66.1634 57.8269 66.2764 57.6616 66.4247 57.5176C66.5708 57.3757 66.7394 57.2659 66.9303 57.1891C67.1212 57.1123 67.3196 57.0739 67.5255 57.0739C67.7314 57.0739 67.9319 57.1123 68.1239 57.1891C68.3159 57.2659 68.4844 57.3757 68.6306 57.5176C68.7778 57.6605 68.8898 57.8248 68.9666 58.0093C69.0434 58.1939 69.0818 58.3912 69.0818 58.6003ZM67.5255 59.8013C67.6844 59.8013 67.8359 59.7714 67.9799 59.7106C68.1239 59.6498 68.253 59.5624 68.3692 59.4472C68.4834 59.3331 68.5698 59.204 68.6295 59.06C68.6892 58.916 68.7191 58.7624 68.7191 58.6003C68.7191 58.4381 68.6892 58.2824 68.6284 58.1352C68.5676 57.988 68.4812 57.8579 68.3692 57.7459C68.2551 57.6317 68.126 57.5453 67.982 57.4856C67.838 57.4259 67.6855 57.396 67.5255 57.396C67.3655 57.396 67.2108 57.4259 67.0658 57.4856C66.9207 57.5453 66.7927 57.6317 66.6818 57.7459C66.5676 57.8611 66.4812 57.9922 66.4215 58.1373C66.3618 58.2834 66.3319 58.4371 66.3319 58.6003C66.3319 58.7635 66.3618 58.9149 66.4204 59.0578C66.4791 59.2008 66.5666 59.3309 66.6818 59.4472C66.798 59.5635 66.9282 59.652 67.0711 59.7117C67.214 59.7715 67.3655 59.8013 67.5255 59.8013Z" fill="#0D1853"/>
<path d="M70.3789 60.05V57.139H70.9378C71.3517 57.139 71.6429 57.1604 71.8114 57.202C71.98 57.2436 72.1282 57.314 72.2562 57.4121C72.4237 57.5401 72.5496 57.7054 72.636 57.9049C72.7224 58.1054 72.765 58.3358 72.765 58.5972C72.765 58.8585 72.7224 59.0868 72.637 59.2862C72.5517 59.4857 72.4248 59.65 72.2562 59.779C72.1293 59.8772 71.9842 59.9465 71.8221 59.9892C71.66 60.0308 71.4072 60.0521 71.0637 60.0521H70.38L70.3789 60.05ZM70.7288 59.7236H70.9496C71.308 59.7236 71.5554 59.7076 71.693 59.6766C71.8306 59.6457 71.9458 59.5924 72.0365 59.5166C72.156 59.4174 72.2466 59.2894 72.3085 59.1316C72.3704 58.9748 72.4024 58.7945 72.4024 58.5918C72.4024 58.3892 72.3714 58.2089 72.3096 58.0542C72.2477 57.8996 72.157 57.7726 72.0365 57.6713C71.9448 57.5945 71.8285 57.5401 71.6877 57.507C71.5469 57.475 71.3005 57.458 70.9485 57.458H70.7277V59.7225L70.7288 59.7236Z" fill="#0D1853"/>
<path d="M73.9565 60.05V57.139H74.2989V58.434L75.5213 57.139H75.9352L74.6861 58.45L76.0579 60.051H75.6109L74.2989 58.4841V60.051H73.9565V60.05Z" fill="#0D1853"/>
<path d="M78.1935 57.0238L79.5172 60.0499H79.1418L78.7642 59.1571H77.6271L77.2495 60.0499H76.874L78.1946 57.0238H78.1935ZM78.1935 57.7897L77.7306 58.8617H78.6575L78.1946 57.7897H78.1935Z" fill="#0D1853"/>
</g>
<defs>
<clipPath id="clip0_1311_45554">
<rect width="80" height="62" fill="white"/>
</clipPath>
</defs>
</svg>
