<svg width="80" height="16" viewBox="0 0 80 16" fill="none" xmlns="http://www.w3.org/2000/svg">
<path fill-rule="evenodd" clip-rule="evenodd" d="M9.89185 14.7968V7.0409L6.1437 14.7968H4.99602L1.22054 7.11832L1.25242 14.7968H0V6.04352H2.04942L5.53343 13.2392L9.10852 6.04352H11.1397V14.7968H9.89185Z" fill="#0D1853"/>
<path fill-rule="evenodd" clip-rule="evenodd" d="M16.1271 12.8612L15.1662 14.7968H13.5676L18.1128 6.04352H20.1531L24.7256 14.7968H23.1589L22.1342 12.8612H16.1271ZM21.6651 11.9504L19.183 6.87695L16.578 11.9504H21.6651Z" fill="#0D1853"/>
<path fill-rule="evenodd" clip-rule="evenodd" d="M34.0255 14.7968H35.5877L31.753 10.2107L35.2461 6.04352H33.7204L30.6645 9.63227L27.5813 6.04352H25.9508L29.5487 10.2107L25.5774 14.7968H27.2078L30.6645 10.8209L34.0255 14.7968Z" fill="#0D1853"/>
<path fill-rule="evenodd" clip-rule="evenodd" d="M52.0323 14.7968H50.748V6.04352H52.0323V14.7968Z" fill="#0D1853"/>
<path fill-rule="evenodd" clip-rule="evenodd" d="M64.8708 6.0116V12.4604C64.8708 14.1455 63.459 15.029 60.4349 15.029C57.4109 15.029 56.1995 14.1455 56.1995 12.5834V6.0116H57.5521V12.3284C57.5521 13.8085 59.1461 14.0772 60.4805 14.0772C61.8149 14.0772 63.5182 13.8222 63.5182 12.3466V6.0116H64.8708Z" fill="#0D1853"/>
<path fill-rule="evenodd" clip-rule="evenodd" d="M78.7523 14.7968V7.0409L75.0041 14.7968H73.861L70.081 7.11832L70.1129 14.7968H68.865V6.04352H70.9098L74.3984 13.2392L77.9735 6.04352H80.0002V14.7968H78.7523Z" fill="#0D1853"/>
<path fill-rule="evenodd" clip-rule="evenodd" d="M45.1144 12.1281H48.4572L41.9947 5.66556L47.5236 6.10352e-05H45.1827L40.7423 4.44502L36.434 6.10352e-05H34.1614L39.672 5.57903L40.8425 7.9017L45.1144 12.1281Z" fill="#0D1853"/>
<path fill-rule="evenodd" clip-rule="evenodd" d="M40.8608 7.78325L39.1985 6.1255L40.8608 4.4632L42.5231 6.1255L40.8608 7.78325Z" fill="#0D1853"/>
<path fill-rule="evenodd" clip-rule="evenodd" d="M39.2299 9.4136L37.5676 7.75129L39.2299 6.08899L40.8922 7.75129L39.2299 9.4136Z" fill="#0D1853"/>
<path fill-rule="evenodd" clip-rule="evenodd" d="M37.6042 11.0395L35.9419 9.38178L37.6042 7.71948L39.2665 9.38178L37.6042 11.0395Z" fill="#0D1853"/>
</svg>
