<svg width="80" height="40" viewBox="0 0 80 40" fill="none" xmlns="http://www.w3.org/2000/svg">
<path d="M26.9373 12.5081C26.6384 12.8756 26.3794 13.1878 26.1247 13.5044C25.3587 14.4565 24.5904 15.4063 23.8309 16.3628C23.6339 16.6108 23.4435 16.8742 23.3062 17.1576C23.1247 17.5274 23.2221 17.7466 23.5785 17.9459C23.718 18.0233 23.873 18.0787 23.9926 18.1783C24.059 18.2337 24.1055 18.3732 24.0834 18.4529C24.0612 18.5282 23.9483 18.6056 23.8597 18.63C23.7645 18.6588 23.6516 18.63 23.5453 18.63C22.4316 18.6278 21.318 18.6256 20.2021 18.6256C20.0426 18.6256 19.8788 18.661 19.7282 18.63C19.6264 18.6101 19.4581 18.4794 19.4692 18.4352C19.498 18.32 19.5976 18.2138 19.6906 18.1252C19.7349 18.0831 19.8234 18.0853 19.8921 18.0721C20.47 17.9569 20.9371 17.6514 21.3335 17.2285C21.4663 17.0868 21.5991 16.9429 21.7209 16.7901C23.087 15.0698 24.4487 13.3494 25.8103 11.6268C25.8967 11.5184 25.9698 11.3988 26.0605 11.2704C26.003 11.1685 25.9609 11.0733 25.9011 10.9892C24.5505 9.06072 23.211 7.12339 21.8405 5.2082C20.7047 3.6207 19.2721 2.36974 17.4477 1.6391C15.0742 0.687037 12.621 0.520983 10.1612 1.20514C7.17658 2.0332 5.40974 4.0768 4.65916 7.04147C4.27169 8.56919 4.25619 10.1257 4.37354 11.6866C4.45103 12.7118 4.60381 13.728 4.94478 14.7022C5.06655 15.052 5.1994 15.4019 5.36102 15.734C6.34851 17.7754 8.01129 18.7938 10.2475 18.9333C12.6099 19.0817 14.3369 18.0455 15.5436 16.0661C16.2765 14.8616 16.6396 13.531 16.7459 12.1405C16.8898 10.2763 16.8101 8.41863 16.2477 6.62079C16.0706 6.05177 15.8226 5.49161 15.5237 4.97573C14.2528 2.7705 11.6269 2.3941 9.87776 3.09596C8.84821 3.51 8.01793 4.18087 7.41791 5.12407C7.38027 5.18385 7.34706 5.24806 7.30721 5.30562C7.21422 5.43626 7.09244 5.60674 6.93303 5.47611C6.84446 5.40304 6.81347 5.18385 6.84889 5.05765C6.90646 4.86059 7.02602 4.67018 7.15222 4.50413C8.13085 3.19781 9.42166 2.3786 11.0379 2.13726C12.8181 1.87157 14.5783 1.96899 16.2344 2.74614C19.3076 4.1853 20.9106 6.63629 21.1143 10.0083C21.1895 11.2372 21.0545 12.4505 20.6737 13.6262C19.8921 16.0329 18.2891 17.72 15.9798 18.6699C12.1561 20.2419 8.33454 20.1467 4.63259 18.2802C1.98011 16.9429 0.474532 14.7288 0.0937089 11.7685C-0.499667 7.16767 1.76535 3.55428 5.74185 1.61695C7.54412 0.73796 9.4593 0.27079 11.452 0.0980916C14.0646 -0.127745 16.6507 0.0272405 19.1991 0.658256C22.363 1.44204 25.0686 3.00298 27.1897 5.50268C27.6458 6.0407 28.0178 6.64958 28.4296 7.22524C28.5514 7.39794 28.6732 7.56843 28.8104 7.76548C28.9101 7.67249 28.9942 7.61049 29.0562 7.533C29.8156 6.5743 30.5706 5.6156 31.3234 4.65468C31.4651 4.47313 31.6002 4.28493 31.7131 4.08566C31.9367 3.69155 31.8659 3.46793 31.4651 3.27309C31.3544 3.21996 31.2194 3.20667 31.1197 3.14025C31.0289 3.07825 30.9205 2.97419 30.9116 2.8812C30.8939 2.69521 31.0644 2.67086 31.2083 2.662C31.3323 2.65536 31.4563 2.65314 31.5803 2.65979C32.9065 2.73507 34.2327 2.7727 35.559 2.66643C35.7494 2.65093 36.035 2.56458 36.0682 2.87455C36.097 3.12917 35.8468 3.1646 35.6608 3.20224C34.5604 3.42144 33.7346 4.06574 33.046 4.90709C31.9699 6.22226 30.9116 7.55293 29.8444 8.87695C29.8001 8.93009 29.7691 8.9943 29.7182 9.07179C29.8001 9.20464 29.8776 9.34191 29.9662 9.47032C31.6179 11.8793 33.2696 14.2882 34.9257 16.6949C35.0852 16.9274 35.2623 17.151 35.4549 17.3591C35.7804 17.7134 36.1789 17.9126 36.6793 17.8816C36.8609 17.8706 37.1022 17.8041 37.1664 18.0698C37.2328 18.351 37.0313 18.4972 36.8099 18.5857C35.9974 18.9156 35.1538 19.0817 34.2748 19.0684C32.2866 19.0374 30.8075 18.092 29.6983 16.5001C28.8879 15.3399 28.0909 14.1664 27.2871 13.0018C27.1875 12.8579 27.0812 12.7184 26.9307 12.5103L26.9373 12.5081Z" fill="#0D1853"/>
<path d="M64.1697 15.3154C64.2095 15.6187 64.2738 15.7981 64.2494 15.9685C64.121 16.914 63.6937 17.6734 62.839 18.1561C62.1549 18.5435 61.4021 18.6498 60.636 18.6498C59.8234 18.6498 59.0087 18.5922 58.1961 18.5922C56.3562 18.5922 54.5141 18.6077 52.6741 18.621C52.2845 18.6232 51.8948 18.6387 51.5073 18.6454C51.4188 18.6454 51.3213 18.6564 51.2461 18.621C51.1597 18.579 51.0468 18.5015 51.0335 18.424C51.0202 18.3509 51.1021 18.2247 51.1774 18.1782C51.328 18.0874 51.4963 18.0276 51.6645 17.9723C52.1804 17.8018 52.4328 17.4276 52.4837 16.9073C52.5214 16.5376 52.5546 16.1656 52.5546 15.7958C52.559 12.4127 52.559 9.0318 52.5546 5.64867C52.5546 5.31435 52.5258 4.97559 52.486 4.64348C52.404 3.97261 52.083 3.48108 51.4099 3.27074C51.2926 3.2331 51.1619 3.20875 51.0645 3.14011C50.9737 3.07812 50.8608 2.96741 50.8586 2.87442C50.852 2.69729 51.0158 2.6663 51.1641 2.66187C51.3413 2.65744 51.5184 2.65523 51.6955 2.65744C52.9863 2.68401 54.2794 2.73715 55.5702 2.73494C57.6581 2.73051 59.7459 2.67958 61.8338 2.66409C62.6353 2.65744 62.6375 2.44046 63.0139 3.4523C63.2243 4.01468 63.3948 4.59256 63.5608 5.17044C63.6228 5.38077 63.7224 5.65753 63.459 5.79259C63.1822 5.9343 63.0582 5.65974 62.9165 5.49147C62.7903 5.34313 62.673 5.18593 62.5623 5.02651C62.0619 4.30029 61.3622 3.89069 60.5054 3.73792C59.4005 3.54087 58.2846 3.56744 57.171 3.61393C56.7016 3.63386 56.5067 3.82427 56.5023 4.27373C56.4868 5.97193 56.4957 7.67014 56.4957 9.41041C56.6506 9.43034 56.7857 9.46355 56.9186 9.46355C58.1407 9.46355 59.3629 9.49233 60.5829 9.44805C61.3578 9.42148 62.1283 9.28421 62.901 9.20893C63.0427 9.19565 63.1911 9.24436 63.3372 9.26428C63.3106 9.41263 63.3217 9.58311 63.2508 9.70488C62.9475 10.2296 62.5025 10.5994 61.9268 10.792C61.3512 10.9868 60.7556 11.071 60.1489 10.9846C59.1858 10.8451 58.2249 10.7034 57.2639 10.5573C56.7281 10.4754 56.4979 10.6503 56.4935 11.2016C56.4824 13.0083 56.478 14.815 56.4868 16.6195C56.4912 17.3656 56.7392 17.669 57.4876 17.7221C59.0773 17.835 60.6338 17.6734 62.0929 16.9627C62.673 16.6793 63.1645 16.2807 63.6051 15.8113C63.7446 15.663 63.9084 15.539 64.163 15.3132L64.1697 15.3154Z" fill="#0D1853"/>
<path d="M73.3006 9.67853C73.3914 9.55232 73.4689 9.46155 73.5287 9.36191C74.3279 8.04674 75.1272 6.73157 75.9154 5.40976C76.0594 5.16843 76.1833 4.90938 76.2719 4.64147C76.531 3.86876 76.2896 3.45915 75.5014 3.28424C75.3641 3.25324 75.2114 3.24439 75.094 3.17797C75.0054 3.12704 74.9014 2.99419 74.9125 2.91006C74.9235 2.82371 75.0519 2.71522 75.1494 2.68422C75.2778 2.64437 75.4306 2.65544 75.57 2.66872C76.6129 2.76393 77.6535 2.7595 78.6963 2.67315C78.8757 2.65765 79.1259 2.5713 79.2166 2.80599C79.3185 3.06947 79.0838 3.17575 78.8978 3.27538C78.393 3.55214 78.1052 4.02374 77.8218 4.49313C76.7811 6.20019 75.7472 7.91168 74.711 9.62096C74.5006 9.96857 74.2947 10.3206 74.0822 10.6682C73.8386 11.0734 73.7279 11.5074 73.7323 11.9812C73.7412 13.2388 73.7323 14.4942 73.7368 15.7518C73.7368 16.0175 73.7656 16.2809 73.7877 16.5466C73.843 17.2175 74.1884 17.6603 74.8283 17.8751C74.9789 17.926 75.1361 17.9791 75.2579 18.0744C75.3398 18.1386 75.4106 18.2891 75.3951 18.3843C75.3796 18.4773 75.2601 18.5902 75.1626 18.6212C75.0165 18.6677 74.8482 18.6677 74.691 18.6544C72.8157 18.5083 70.9426 18.5769 69.0695 18.6544C68.8569 18.6633 68.6422 18.6766 68.434 18.65C68.3543 18.6389 68.2414 18.5327 68.2281 18.4552C68.2148 18.3799 68.2901 18.2625 68.361 18.205C68.4385 18.1408 68.5536 18.1186 68.6532 18.0876C69.4282 17.8397 69.7846 17.2861 69.8112 16.4957C69.8223 16.1946 69.8289 15.8935 69.8289 15.5924C69.8289 14.3702 69.8134 13.1502 69.8378 11.928C69.8466 11.3944 69.7248 10.914 69.4636 10.4601C68.2525 8.36114 67.0392 6.26219 65.8347 4.1588C65.5934 3.73591 65.248 3.46137 64.7941 3.3086C64.6435 3.25767 64.4841 3.21781 64.3513 3.13811C64.2782 3.09382 64.2029 2.96541 64.214 2.88791C64.2251 2.81042 64.3335 2.71522 64.4177 2.68644C64.5306 2.6488 64.6634 2.66208 64.7852 2.66872C66.6605 2.77721 68.5337 2.76393 70.4068 2.66872C70.4776 2.66429 70.5485 2.66429 70.6193 2.6665C70.7832 2.66872 70.9869 2.67758 70.9869 2.87463C70.9869 2.99419 70.8297 3.11597 70.7345 3.22889C70.7035 3.26431 70.6393 3.27317 70.5928 3.29752C69.964 3.62078 69.8488 3.91968 70.2031 4.52634C71.1706 6.19355 72.1626 7.84969 73.1456 9.50804C73.1788 9.5634 73.232 9.60546 73.3028 9.68517L73.3006 9.67853Z" fill="#0D1853"/>
<path d="M50.834 15.4017C51.1373 15.612 51.0687 15.8334 51.0355 16.0371C50.8097 17.4431 49.8244 18.4084 48.3587 18.5678C47.5527 18.6564 46.7313 18.6874 45.9232 18.6409C43.729 18.5147 41.5371 18.5877 39.3451 18.6453C39.0086 18.6542 38.672 18.6763 38.3377 18.6542C38.2248 18.6475 38.1207 18.5213 38.01 18.4483C38.0875 18.3464 38.1539 18.2335 38.2447 18.1449C38.289 18.0984 38.3709 18.0851 38.4395 18.0652C39.1281 17.8726 39.4492 17.3943 39.4912 16.7035C39.5023 16.5087 39.5134 16.3139 39.5134 16.1212C39.5134 12.5632 39.5134 9.00516 39.5134 5.44934C39.5134 5.22128 39.4957 4.9888 39.4625 4.76297C39.365 4.0921 38.982 3.64042 38.3665 3.37252C38.1894 3.29503 38.0078 3.21754 37.8506 3.10683C37.7842 3.06034 37.7487 2.92306 37.7598 2.83228C37.7665 2.7725 37.875 2.6928 37.948 2.67952C38.103 2.65295 38.2646 2.65515 38.424 2.65958C39.7326 2.68394 41.0411 2.72379 42.3496 2.73265C42.9851 2.73708 43.6227 2.68394 44.2582 2.65958C44.3822 2.65515 44.5084 2.64851 44.6279 2.67508C44.6988 2.69058 44.7895 2.76586 44.8028 2.82786C44.8183 2.89428 44.7718 3.00277 44.7165 3.05148C44.639 3.1179 44.5305 3.1489 44.4331 3.18654C43.7511 3.45444 43.4235 3.99025 43.3305 4.68548C43.2973 4.92903 43.3061 5.17921 43.3061 5.42719C43.3017 9.0738 43.2973 12.7182 43.2928 16.3648C43.2928 17.4408 43.5563 17.722 44.6213 17.7508C45.7239 17.7796 46.811 17.68 47.8716 17.3633C48.8613 17.0667 49.7137 16.5574 50.4089 15.7891C50.5351 15.6496 50.6857 15.5323 50.8318 15.395L50.834 15.4017Z" fill="#0D1853"/>
<path d="M46.3818 31.392C45.6002 31.7772 45.1131 32.4547 44.6038 33.1079C44.1898 33.6393 43.7758 34.1684 43.3684 34.7042C42.8724 35.3552 42.3211 35.9508 41.6613 36.4401C41.5639 36.5132 41.4621 36.5796 41.3093 36.6881C42.0975 37.1442 42.806 37.2925 43.5743 36.9803C43.6562 36.9471 43.7403 36.9139 43.8134 36.8652C45.5537 35.7449 46.6585 34.1795 47.0261 32.1403C47.1943 31.2016 46.6474 30.5418 45.691 30.4753C45.2238 30.4443 44.7301 30.482 44.2762 30.5993C43.1093 30.9004 42.1484 31.558 41.4421 32.5366C41.2096 32.8577 41.0347 33.2452 40.9307 33.6304C40.7779 34.2016 41.2008 34.5692 41.7654 34.3766C42.0931 34.2658 42.3942 34.0754 42.6953 33.9249C42.3898 34.3633 41.6126 34.8039 41.0945 34.826C40.5742 34.8482 40.262 34.547 40.2775 34.0134C40.293 33.4599 40.5299 32.9839 40.8687 32.5654C41.8384 31.3632 43.0961 30.6215 44.5994 30.2938C45.1242 30.1809 45.6489 30.1565 46.1781 30.2849C47.0571 30.5019 47.5574 31.0864 47.5663 31.9831C47.5685 32.3507 47.5264 32.7271 47.4401 33.0835C47.2187 33.9869 46.8179 34.8127 46.2356 35.5456C45.04 37.0467 43.4946 37.5936 41.6193 37.2349C41.4288 37.1995 41.2429 37.122 41.0524 37.1065C40.831 37.0888 40.603 37.1021 40.3838 37.1353C39.8967 37.2084 39.4162 37.3302 38.9269 37.3789C38.7122 37.3988 38.4686 37.3213 38.2649 37.2283C37.9881 37.1021 37.9572 36.8475 38.1697 36.6194C38.4 36.3714 38.7144 36.2607 39.0332 36.2696C39.507 36.2829 39.983 36.3338 40.4458 36.429C40.7225 36.4866 40.9285 36.4578 41.1144 36.2563C41.4156 35.9308 41.7255 35.6164 42.0111 35.2799C42.6067 34.578 43.1868 33.8629 43.7802 33.1588C44.2739 32.5743 44.8208 32.0473 45.4895 31.6643C45.7596 31.5093 46.0342 31.3477 46.3795 31.392H46.3818ZM40.2864 36.8408C39.8081 36.4822 39.3454 36.3537 38.8339 36.4733C38.628 36.522 38.4044 36.6172 38.442 36.8895C38.473 37.1154 38.6745 37.1884 38.876 37.2084C39.3631 37.2549 39.8148 37.1508 40.2886 36.8386L40.2864 36.8408Z" fill="#0D1853"/>
<path d="M57.0379 32.9839C56.8874 32.8466 56.7678 32.7403 56.6549 32.6319C56.2874 32.2754 56.2077 31.837 56.3228 31.3588C56.5907 30.2318 58.1428 29.6295 59.1148 30.2716C59.1635 30.3048 59.1945 30.3646 59.283 30.4753C59.0063 30.3934 58.8114 30.3093 58.6122 30.2805C57.8837 30.1764 57.1376 30.5927 56.8232 31.2569C56.5442 31.8481 56.6748 32.3108 57.2638 32.7381C57.39 32.6363 57.5272 32.53 57.6579 32.4171C58.6387 31.5934 59.6793 30.865 60.8595 30.3536C61.4838 30.0834 62.1281 29.9063 62.8167 29.955C63.4588 29.9993 63.6625 30.3071 63.4455 30.9181C63.2662 31.4207 62.9208 31.7949 62.5001 32.1049C61.6875 32.7049 60.7598 33.0348 59.7812 33.2452C59.1347 33.3846 58.4815 33.4112 57.8306 33.3049C57.649 33.2761 57.5273 33.3049 57.4121 33.4422C56.8896 34.0533 56.4578 34.7197 56.2077 35.488C56.1545 35.6541 56.1213 35.8356 56.1213 36.0105C56.1213 36.4534 56.3892 36.7368 56.8254 36.6703C57.1819 36.6172 57.5693 36.5043 57.8527 36.294C58.4638 35.8467 59.0218 35.3264 59.5908 34.8216C59.7878 34.6467 59.9694 34.4452 60.1288 34.2349C60.3369 33.9625 60.5827 33.8717 60.9524 34.0002C60.8484 34.1419 60.762 34.2681 60.6668 34.3876C59.9008 35.3397 59.1546 36.3072 58.3597 37.2349C57.8549 37.8239 57.3058 38.3841 56.728 38.8977C56.1058 39.4512 55.3508 39.7767 54.5006 39.7679C54.1751 39.7656 53.8386 39.6815 53.5264 39.5797C53.3161 39.511 53.2053 39.3029 53.2319 39.0638C53.2607 38.7981 53.3958 38.5922 53.6393 38.4859C53.719 38.4527 53.8696 38.4682 53.9227 38.5235C53.9759 38.5767 53.9559 38.7117 53.9471 38.8092C53.9426 38.8557 53.8917 38.8977 53.8674 38.9442C53.7057 39.2564 53.7522 39.4579 54.0777 39.5575C54.3035 39.6262 54.5692 39.635 54.8017 39.5929C55.415 39.4822 55.9265 39.1435 56.3361 38.6985C57.0534 37.9169 57.7287 37.0977 58.4195 36.2917C58.435 36.2718 58.4262 36.2297 58.4328 36.1412C58.2203 36.2785 58.0365 36.4047 57.8505 36.5198C57.4121 36.7921 56.956 37.029 56.4291 37.0667C55.7028 37.1176 55.3043 36.7368 55.3995 36.0128C55.4571 35.5832 55.5766 35.136 55.7781 34.7552C56.0394 34.2592 56.4114 33.8208 56.7368 33.3603C56.8187 33.2452 56.9117 33.1411 57.0379 32.9839ZM57.773 32.964L57.8129 33.1057C57.9811 33.1367 58.1472 33.1832 58.3155 33.1964C59.5022 33.2939 60.5938 32.975 61.61 32.3949C61.9576 32.1979 62.2765 31.9256 62.551 31.6333C62.7481 31.423 62.8853 31.1329 62.9783 30.8539C63.0913 30.524 62.9496 30.2871 62.6042 30.2229C62.3518 30.1764 62.0706 30.1742 61.8204 30.2318C60.1266 30.637 58.9155 31.7529 57.7708 32.9618L57.773 32.964Z" fill="#0D1853"/>
<path d="M15.8956 34.3654C15.548 34.2945 15.3022 34.2635 15.0676 34.1927C14.5362 34.0377 14.286 33.7211 14.3435 33.1764C14.3768 32.8531 14.472 32.5078 14.6358 32.2288C15.0786 31.4671 15.7495 30.9579 16.5886 30.6811C17.0226 30.5394 17.3326 30.5726 17.627 30.7808C17.5628 30.794 17.5075 30.8228 17.4698 30.8095C16.9407 30.6081 16.5001 30.8184 16.0838 31.1107C15.4816 31.5291 15.0521 32.0782 14.8904 32.8067C14.7819 33.2915 14.9414 33.6989 15.3045 33.9226C15.7583 34.2037 16.0573 34.1484 16.4071 33.7432C17.0071 33.0458 17.5805 32.3218 18.2271 31.6708C18.6699 31.2236 19.2013 30.8538 19.7238 30.4951C19.9629 30.3313 20.2684 30.2361 20.5585 30.183C21.174 30.07 21.3866 30.3291 21.1209 30.8848C20.9548 31.2302 20.7312 31.5623 20.4721 31.8457C19.6153 32.7912 18.5725 33.4842 17.3901 33.958C17.1001 34.0731 16.872 34.2281 16.6639 34.4606C16.0617 35.1314 15.4373 35.7824 14.7775 36.4887C15.2624 36.8385 15.7893 37.1374 16.4248 37.1507C16.7746 37.1573 17.0624 36.9492 17.3038 36.7034C17.8462 36.1499 18.2492 35.5189 18.3643 34.6997C18.4905 35.0407 18.495 35.127 18.4197 35.4038C17.9901 36.9824 16.3717 37.8171 14.8771 37.1595C14.359 36.9315 13.9517 36.9404 13.4424 37.1308C13.0439 37.2791 12.5789 37.268 12.1427 37.288C11.908 37.299 11.6689 37.1905 11.6091 36.9315C11.5427 36.6437 11.742 36.4599 11.9723 36.3492C12.176 36.2518 12.4018 36.1676 12.6232 36.1521C12.973 36.1278 13.3494 36.0946 13.6771 36.192C14.1797 36.3426 14.472 36.1499 14.7532 35.7802C15.103 35.3196 15.4816 34.879 15.8978 34.3698L15.8956 34.3654ZM17.3259 33.7919C17.4521 33.7521 17.5695 33.7321 17.6713 33.6812C18.785 33.1056 19.7526 32.3461 20.5253 31.3542C20.6648 31.1749 20.7799 30.969 20.8663 30.7608C20.9127 30.6479 20.9282 30.4509 20.864 30.38C20.7998 30.3092 20.5851 30.2981 20.4876 30.3512C20.1666 30.5306 19.8101 30.6988 19.5754 30.9667C18.8027 31.8391 18.0787 32.7535 17.337 33.6524C17.3215 33.6724 17.3303 33.7144 17.3259 33.7941V33.7919ZM13.7945 36.6547C13.2431 36.2296 12.5656 36.1632 12.1671 36.4953C12.0586 36.5861 11.9413 36.7654 11.9634 36.8784C11.9833 36.9869 12.1693 37.1153 12.2999 37.1396C12.8756 37.2481 13.3406 37.0023 13.7945 36.6547Z" fill="#0D1853"/>
<path d="M69.0447 27.6126V23.211C69.1355 23.2021 69.2683 23.18 69.4034 23.1778C70.0233 23.1733 70.6433 23.1667 71.261 23.18C72.0758 23.1977 72.6382 23.6117 72.8906 24.38C73.1186 25.073 73.1186 25.7749 72.8706 26.4635C72.6027 27.214 72.0603 27.5993 71.261 27.6081C70.5215 27.617 69.7798 27.6081 69.0425 27.6081L69.0447 27.6126ZM69.906 26.8775C70.4219 26.8775 70.8957 26.9107 71.3606 26.8686C71.7791 26.831 72.1112 26.5764 72.1621 26.1446C72.2175 25.662 72.2219 25.166 72.171 24.6833C72.1245 24.2582 71.8123 23.9793 71.3872 23.9394C70.9067 23.8951 70.4174 23.9283 69.906 23.9283V26.8775Z" fill="#0D1853"/>
<path d="M23.4055 27.6036C23.5273 27.1076 23.5295 23.7046 23.4166 23.1998C24.2668 23.1998 25.1126 23.1599 25.9517 23.2131C26.534 23.2507 26.9724 23.6072 27.2027 24.1518C27.5547 24.9865 27.5592 25.8367 27.1916 26.6692C26.9525 27.2117 26.5141 27.5571 25.9296 27.5903C25.106 27.6368 24.2757 27.6014 23.4033 27.6014L23.4055 27.6036ZM24.3111 26.884C24.8159 26.884 25.272 26.9128 25.7237 26.8752C26.1665 26.8397 26.4676 26.5851 26.5828 26.1379C26.709 25.6508 26.7067 25.1637 26.585 24.6744C26.4853 24.2758 26.2374 24.019 25.8366 23.9437C25.3362 23.8485 24.8314 23.8839 24.3111 23.9194V26.8818V26.884Z" fill="#0D1853"/>
<path d="M31.948 27.6125C32.0941 27.0811 32.0897 23.6979 31.9502 23.2042C32.8159 23.2042 33.6772 23.1533 34.5296 23.2197C35.2049 23.2728 35.6345 23.7422 35.8404 24.3799C36.0596 25.053 36.0551 25.7393 35.8404 26.4146C35.599 27.1763 35.0167 27.5992 34.213 27.608C33.4735 27.6169 32.7318 27.608 31.9458 27.608L31.948 27.6125ZM32.858 23.9039V26.8752C33.3672 26.8752 33.8411 26.9128 34.3082 26.8641C34.7975 26.8154 35.092 26.4988 35.154 25.9873C35.1983 25.6242 35.2005 25.2478 35.1651 24.8803C35.1075 24.2758 34.7776 23.9526 34.1754 23.9061C33.7569 23.8751 33.334 23.8994 32.858 23.8994V23.9039Z" fill="#0D1853"/>
<path d="M12.229 25.4117C12.2268 24.1076 13.1545 23.1555 14.4453 23.14C15.7538 23.1245 16.717 24.0943 16.7059 25.4161C16.6948 26.7202 15.7538 27.6656 14.4652 27.6634C13.1766 27.6634 12.2312 26.7091 12.229 25.4095V25.4117ZM15.9487 25.3785C15.9398 24.5482 15.2822 23.8928 14.4608 23.8972C13.6505 23.9017 12.9796 24.5792 12.9752 25.3962C12.9707 26.2353 13.666 26.9195 14.5029 26.9018C15.3332 26.8818 15.9553 26.2265 15.9465 25.3807L15.9487 25.3785Z" fill="#0D1853"/>
<path d="M40.9483 26.2951C41.4974 26.8995 42.1129 27.0213 42.797 26.8929C42.9498 26.8641 43.1247 26.811 43.2266 26.7069C43.335 26.5962 43.4347 26.4058 43.4214 26.2619C43.4103 26.1445 43.2443 25.9873 43.1158 25.9497C42.8657 25.8722 42.5955 25.8611 42.3321 25.8301C42.1217 25.8058 41.907 25.8124 41.6988 25.7726C41.0567 25.6552 40.7446 25.3541 40.6649 24.8028C40.5696 24.1496 40.8176 23.6094 41.3778 23.3393C42.0022 23.0382 42.6509 23.0935 43.2908 23.2906C43.5742 23.3769 43.8487 23.4898 44.1853 23.6116C44.0568 23.895 43.9218 24.1939 43.7557 24.5615C43.4059 24.0876 42.9631 23.8707 42.4383 23.8662C42.197 23.8662 41.9402 23.9017 41.721 23.9969C41.5903 24.0544 41.4442 24.2581 41.4464 24.391C41.4509 24.5238 41.6103 24.6921 41.7453 24.7696C41.8892 24.8537 42.0819 24.8604 42.2568 24.8825C42.5535 24.9246 42.8568 24.9401 43.1513 24.9888C43.8066 25.0951 44.1321 25.4028 44.2273 25.9829C44.3292 26.6117 44.0657 27.1564 43.4812 27.4243C42.755 27.7564 42.0066 27.7431 41.2627 27.4663C41.0678 27.3933 40.8774 27.3025 40.625 27.194C40.7224 26.9261 40.8265 26.6383 40.9505 26.2929L40.9483 26.2951Z" fill="#0D1853"/>
<path d="M63.7334 23.1777C64.3666 23.1777 64.9489 23.1887 65.5312 23.1754C66.0848 23.1622 66.6471 23.2574 67.2117 23.0758V23.9747C66.3505 23.8286 65.5025 23.9083 64.619 23.9149V24.8803C65.2257 25.0419 65.9541 25.0021 66.3438 24.7718V25.777C66.0648 25.746 65.7836 25.7039 65.5002 25.6884C65.2213 25.6729 64.9401 25.684 64.6146 25.684C64.6035 25.9032 64.5903 26.0737 64.5858 26.2464C64.5814 26.4213 64.5858 26.5962 64.5858 26.8287C65.4825 26.8752 66.335 26.9239 67.2317 26.7844V27.6368H63.771C63.8618 26.7313 63.8397 23.6758 63.7334 23.1799V23.1777Z" fill="#0D1853"/>
<path d="M9.9886 24.4818C9.19374 23.5962 8.02691 23.7799 7.57081 24.2936C7.01729 24.9158 7.066 26.0029 7.67044 26.5564C8.24832 27.0834 9.53914 27.0236 10.1325 26.1446C10.2698 26.4125 10.3938 26.6538 10.5288 26.9151C10.0174 27.2561 9.52806 27.5594 8.93247 27.6413C7.65495 27.814 6.32428 27.0169 6.42834 25.2324C6.52133 23.6338 7.80772 22.8611 9.42843 23.2353C9.59892 23.2751 9.76497 23.3438 9.93324 23.3991C10.0949 23.4523 10.2543 23.5076 10.4513 23.5762L9.9886 24.484V24.4818Z" fill="#0D1853"/>
<path d="M48.5464 36.5596C48.9649 36.1102 49.3568 35.6297 49.8107 35.2201C50.3022 34.7751 50.6897 34.2658 51.0218 33.699H51.6772C51.4801 33.9979 51.3517 34.2238 51.1923 34.4253C50.7118 35.0364 50.2114 35.6342 49.7354 36.2497C49.5937 36.4334 49.3989 36.6261 49.5339 36.9892C49.7266 36.8962 49.928 36.8408 50.0742 36.7191C50.3598 36.4822 50.6321 36.2275 50.8757 35.9486C51.365 35.3884 51.8366 34.8149 52.3015 34.2349C52.4432 34.0599 52.5407 33.8496 52.6669 33.6415H53.2602C53.1495 33.8651 53.0942 34.0489 52.9835 34.1884C51.9495 35.4659 50.9177 36.7501 49.855 38.0032C49.3612 38.5855 48.7457 39.0416 48.0239 39.3317C47.6409 39.4867 47.2446 39.5775 46.8327 39.4822C46.6379 39.4358 46.4696 39.3317 46.4386 39.1036C46.4054 38.8689 46.5006 38.683 46.6977 38.5634C46.7597 38.5258 46.8792 38.5191 46.9302 38.5545C46.9767 38.5878 46.9944 38.7095 46.9767 38.7782C46.8504 39.2564 46.9789 39.4446 47.4571 39.3273C47.787 39.2476 48.1147 39.0682 48.3848 38.8579C49.0158 38.3663 49.4719 37.7065 49.9258 37.0246C49.7753 37.0977 49.6336 37.1995 49.4741 37.2349C49.3125 37.2704 49.08 37.308 48.9826 37.2239C48.8874 37.142 48.8918 36.905 48.9073 36.7412C48.9228 36.5929 49.0136 36.4489 49.1044 36.2165C48.8653 36.356 48.7014 36.4534 48.5376 36.5486L48.5464 36.5574V36.5596Z" fill="#0D1853"/>
<path d="M28.1087 36.7368C27.9515 37.1353 27.5906 37.2195 27.2297 37.2726C27.1522 37.2837 27.0193 37.1619 26.9728 37.0689C26.9219 36.9737 26.9418 36.8386 26.9263 36.666C26.7979 36.7612 26.7049 36.8342 26.6075 36.9029C26.4636 37.0047 26.3308 37.1508 26.1691 37.1951C25.961 37.2505 25.702 37.2947 25.5204 37.215C25.2746 37.1088 25.3344 36.8209 25.3809 36.5951C25.4186 36.4069 25.4872 36.2253 25.5647 35.9574C25.2171 36.2187 24.927 36.4357 24.6348 36.6549L24.6458 36.666C25.4695 35.8733 26.2688 35.0563 27.1256 34.3013C27.4599 34.0068 27.9072 33.8275 28.3212 33.6393C28.5714 33.5264 28.846 33.5397 29.0474 33.8895C29.7825 32.9507 30.5663 32.0983 31.2571 31.0754H31.7398C31.7641 31.4296 31.5272 31.6178 31.3567 31.8304C30.2807 33.1655 29.1914 34.4895 28.1131 35.8224C27.8718 36.1213 27.6016 36.4069 27.5241 36.801C27.7611 37.018 27.9293 36.7944 28.1197 36.7501L28.1087 36.7368ZM28.7463 33.7677C28.4961 33.6924 28.3013 33.8253 28.1175 33.9537C27.2806 34.5338 26.5987 35.2622 26.0806 36.1412C26.0009 36.2763 25.9366 36.4268 25.9034 36.5796C25.8525 36.8231 25.9964 36.9671 26.2356 36.894C26.4127 36.8386 26.6053 36.739 26.7249 36.604C27.378 35.8667 28.0179 35.1161 28.6489 34.3611C28.7818 34.2039 28.8858 34.0046 28.7463 33.7721V33.7677Z" fill="#0D1853"/>
<path d="M47.1367 24.0058H45.7285V23.0692C46.1669 23.2131 48.9124 23.222 49.3685 23.0825V23.9903H48.0555C47.9448 24.36 47.9116 26.8398 48.0068 27.586H47.1345V24.0058H47.1367Z" fill="#0D1853"/>
<path d="M19.312 26.7867C19.9829 26.9195 21.5018 26.8907 21.9645 26.7468V27.6546C20.7822 27.5638 19.6087 27.6502 18.433 27.6014C18.5592 27.0546 18.5437 23.6604 18.4109 23.2153H19.4006C19.2367 23.7888 19.3275 24.3799 19.3142 24.9645C19.2987 25.5645 19.312 26.1645 19.312 26.7867Z" fill="#0D1853"/>
<path d="M54.1243 27.6458C54.3413 27.1233 54.3413 23.6892 54.1641 23.1977H55.1228C54.9944 24.3977 55.0874 25.5867 55.0564 26.8332C55.8889 26.8554 56.6616 26.9594 57.4786 26.7491V27.6458H54.1221H54.1243Z" fill="#0D1853"/>
<path d="M59.7858 26.8443C60.6427 26.8487 61.4243 26.955 62.2191 26.7557V27.6458H58.8936C59.0663 27.0369 59.0552 23.6892 58.8936 23.2043H59.9098C59.6818 23.7889 59.8124 24.3822 59.7925 24.9668C59.7703 25.5646 59.788 26.1646 59.788 26.8443H59.7858Z" fill="#0D1853"/>
<path d="M64.9841 33.9891C64.7627 34.206 64.5258 34.412 64.3199 34.6422C63.6402 35.4083 62.9605 36.1744 62.3007 36.9582C62.0859 37.2128 61.8756 37.37 61.5036 37.2416L61.6276 36.8142C61.3464 36.9714 61.1471 37.1198 60.9235 37.1973C60.7574 37.2549 60.5205 37.2881 60.3833 37.2128C60.1906 37.1043 60.2504 36.8607 60.3412 36.6836C60.494 36.3869 60.6467 36.0858 60.8438 35.8179C61.1892 35.3485 61.57 34.9057 61.9265 34.4452C62.108 34.2105 62.2675 33.9559 62.4667 33.668H62.9715C62.9892 33.9869 62.8033 34.164 62.6549 34.3522C62.2165 34.9057 61.7582 35.4459 61.3265 36.0039C61.1383 36.2474 60.9899 36.5242 60.8349 36.7678C61.0254 36.9914 61.1826 36.9117 61.3088 36.8275C61.5567 36.6593 61.8069 36.4888 62.0217 36.2806C62.7966 35.5323 63.5605 34.7751 64.1029 33.8252C64.2535 33.564 64.4948 33.6636 64.7517 33.6835L64.7251 34.0843L64.9996 34.0024L64.9886 33.9913L64.9841 33.9891Z" fill="#0D1853"/>
<path d="M0.700684 34.7595C0.981873 34.7595 1.26306 34.7705 1.54204 34.7595C4.12145 34.651 6.70308 34.5358 9.28249 34.4273C9.61682 34.4141 9.95557 34.4207 10.2899 34.4273C10.4117 34.4296 10.5578 34.4296 10.6486 34.4938C10.7637 34.5757 10.8877 34.7152 10.9032 34.8414C10.9143 34.9322 10.7681 35.0827 10.6597 35.1336C10.5047 35.2045 10.3187 35.2266 10.1438 35.2355C9.84487 35.2488 9.54154 35.2399 9.24264 35.2266C6.52152 35.1071 3.80041 34.9853 1.07929 34.8657C0.957518 34.8613 0.835744 34.8547 0.711755 34.848L0.700684 34.7617V34.7595Z" fill="#0D1853"/>
<path d="M78.6187 34.8415C77.5958 34.8725 76.5751 34.8858 75.5544 34.9345C73.7543 35.0187 71.9565 35.1272 70.1564 35.2157C69.7513 35.2357 69.3461 35.2246 68.9409 35.2069C68.8059 35.2002 68.6575 35.1537 68.5424 35.0829C68.332 34.9567 68.3254 34.6799 68.5402 34.5648C68.7018 34.4762 68.9077 34.4297 69.0937 34.4275C69.6937 34.4209 70.2937 34.4364 70.8937 34.4585C73.4355 34.5582 75.9751 34.6622 78.5168 34.7663C78.5501 34.7663 78.5833 34.784 78.6165 34.7928V34.8415H78.6187Z" fill="#0D1853"/>
<path d="M29.4503 37.3523C29.0119 37.2992 28.857 37.1375 28.8946 36.7058C28.93 36.2984 28.9677 35.9087 29.3286 35.5965C29.8334 35.1626 30.2496 34.6245 30.7611 34.1994C31.0777 33.9382 31.4829 33.7478 31.8792 33.6282C32.4858 33.4444 32.7914 33.7921 32.6143 34.4098C32.5567 34.6113 32.4748 34.8105 32.3707 34.9921C31.8637 35.8644 31.1662 36.553 30.2784 37.0357C30.0216 37.1752 29.7271 37.2482 29.4503 37.3523ZM32.4703 33.8341C32.0519 33.7743 32.043 33.7633 31.7751 33.947C30.8142 34.6091 30.0503 35.4526 29.4946 36.48C29.3928 36.6704 29.2001 36.9139 29.4149 37.1043C29.6297 37.297 29.8511 37.0755 30.026 36.956C30.9847 36.2918 31.7463 35.4438 32.2999 34.4164C32.3929 34.2437 32.4128 34.0334 32.4681 33.8319L32.4703 33.8341Z" fill="#0D1853"/>
<path d="M19.157 37.2992C18.6212 37.3036 18.4419 37.1309 18.495 36.7147C18.526 36.4756 18.6057 36.2276 18.7209 36.0173C19.2478 35.0652 19.9917 34.3213 20.9593 33.8231C21.2028 33.6969 21.4907 33.6238 21.7652 33.6017C22.104 33.5751 22.2988 33.7921 22.2656 34.1331C22.2457 34.339 22.1859 34.5537 22.0929 34.7397C21.5571 35.8224 20.7335 36.6239 19.6486 37.1509C19.4626 37.2416 19.2478 37.2749 19.1548 37.3014L19.157 37.2992ZM22.0973 33.8297C21.6412 33.781 21.6324 33.7677 21.3667 33.9537C20.4058 34.6157 19.6441 35.4615 19.0928 36.4911C18.9888 36.6837 18.8072 36.9317 19.0264 37.1154C19.2412 37.2948 19.4626 37.0756 19.6375 36.9516C20.5763 36.294 21.3268 35.4593 21.8848 34.4563C21.9822 34.2814 22.0176 34.0689 22.0973 33.8297Z" fill="#0D1853"/>
<path d="M38.6437 27.5838H37.8223C37.8533 26.1291 37.8422 24.6922 37.8333 23.2176H38.6481C38.6304 24.6767 38.6348 26.1158 38.6437 27.5838Z" fill="#0D1853"/>
<path d="M52.0474 23.2043C51.9012 23.6472 51.888 27.0834 52.0275 27.5927H51.0843C51.2237 26.8664 51.1551 26.1336 51.1485 25.4074C51.1418 24.6767 51.2525 23.9372 51.0488 23.2043H52.0474Z" fill="#0D1853"/>
<path d="M24.6367 36.6549C24.3555 36.8542 24.0943 37.1021 23.7865 37.2416C23.4256 37.4055 23.1776 37.1686 23.2994 36.7855C23.4013 36.4733 23.5607 36.1634 23.7577 35.8999C24.0832 35.4615 24.4662 35.0674 24.8116 34.6423C24.971 34.4452 25.1924 34.2681 25.1615 33.8829C24.9356 33.9404 24.7341 33.9913 24.4795 34.0556C24.743 33.8031 25.0109 33.657 25.3209 33.6039C25.6751 33.5419 25.8832 33.7677 25.757 34.1043C25.6663 34.3456 25.5069 34.5714 25.3452 34.7751C24.9733 35.2445 24.5703 35.6896 24.1983 36.1612C24.0522 36.3471 23.957 36.573 23.8352 36.7855C24.205 37.0534 24.3932 36.6726 24.6544 36.6704L24.6434 36.6593L24.6367 36.6549Z" fill="#0D1853"/>
<path d="M34.8597 34.1374C35.0567 33.7788 35.4088 33.6636 35.7697 33.6016C36.0774 33.5485 36.2656 33.7544 36.1682 34.0467C36.0863 34.2902 35.938 34.5249 35.7785 34.7308C35.3955 35.2179 34.9793 35.6762 34.5962 36.1633C34.4501 36.3493 34.3549 36.5752 34.2397 36.7789C34.5453 37.0468 34.7313 36.7279 35.0833 36.7368C34.7468 36.9405 34.5209 37.111 34.2663 37.215C34.1246 37.2726 33.8788 37.277 33.7881 37.1907C33.6951 37.0999 33.6796 36.8563 33.7261 36.7102C33.8058 36.4622 33.9298 36.2143 34.087 36.0084C34.4302 35.5589 34.8043 35.1338 35.1697 34.702C35.4708 34.3456 35.4752 34.3434 35.5682 33.9625C35.2759 33.7965 35.0855 34.0777 34.8486 34.1286L34.8597 34.1419V34.1374Z" fill="#0D1853"/>
<path d="M34.8482 34.1241C33.8895 34.9677 33.0813 35.9463 32.2975 36.9448C32.0739 37.2305 31.8414 37.3544 31.4385 37.2349C31.5558 37.0755 31.6488 36.936 31.7573 36.8054C32.3706 36.0526 32.9906 35.3064 33.5994 34.5492C33.8076 34.2902 33.9847 34.009 34.2172 33.6791C34.3212 33.6724 34.4917 33.6636 34.5936 33.6569C34.8504 33.7831 34.5227 34.1064 34.8615 34.1352L34.8504 34.1219L34.8482 34.1241Z" fill="#0D1853"/>
<path d="M64.9959 34.0002C65.2018 33.874 65.3966 33.7123 65.6225 33.6348C65.7642 33.5861 66.0144 33.6127 66.0985 33.7079C66.1871 33.8075 66.1849 34.0511 66.1317 34.195C66.0542 34.4031 65.9059 34.5935 65.762 34.7684C65.3944 35.2223 65.0048 35.6563 64.6439 36.1124C64.4844 36.3139 64.376 36.553 64.2298 36.7988C64.6926 37.0135 64.8963 36.6504 65.1974 36.553C64.9095 36.8563 64.5907 37.1264 64.1811 37.2549C63.8269 37.3656 63.6209 37.1729 63.7272 36.801C63.8069 36.5176 63.9353 36.232 64.1103 35.9973C64.4446 35.5434 64.8276 35.1249 65.1907 34.6932C65.3915 34.4555 65.5258 34.1928 65.5937 33.905C65.3745 33.9337 65.1819 33.9603 64.987 33.9869L64.9981 33.9979L64.9959 34.0002Z" fill="#0D1853"/>
<path d="M21.0435 37.2261C21.1564 37.0733 21.2494 36.9316 21.3579 36.801C21.9712 36.0482 22.5911 35.3042 23.1978 34.547C23.4059 34.288 23.583 34.0068 23.8089 33.6835H24.327C24.307 34.0754 24.1897 34.3588 23.9196 34.6422C23.2022 35.3928 22.5291 36.1899 21.8627 36.9869C21.6413 37.2526 21.4154 37.3523 21.0457 37.2239L21.0435 37.2261Z" fill="#0D1853"/>
<path d="M48.5382 36.5508C48.2592 36.7811 48.0068 37.0556 47.6969 37.2327C47.3736 37.4187 47.1145 37.2327 47.1721 36.8652C47.212 36.615 47.316 36.3427 47.4732 36.1501C47.8651 35.674 48.2991 35.2334 48.7264 34.7884C48.857 34.6511 49.0253 34.5493 49.2334 34.3854C48.8969 34.2946 48.6888 34.2371 48.4275 34.1662C48.5847 33.9648 48.7131 33.8009 48.8017 33.688C49.2401 33.7212 49.6165 33.7478 50.0128 33.7766C49.9508 33.854 49.8755 33.9581 49.7914 34.0555C49.2689 34.6533 48.7353 35.2445 48.2238 35.8512C48.0223 36.0903 47.843 36.356 47.812 36.6814C48.1286 36.9405 48.2969 36.5353 48.5449 36.5597L48.536 36.5508H48.5382Z" fill="#0D1853"/>
<path d="M78.6079 17.0668C79.0994 17.4034 78.9799 17.9303 79.2987 18.2359C79.5489 17.9015 79.5312 17.4344 79.8323 17.1023C80.0183 17.4521 80.036 17.7089 79.9519 18.5658C79.6928 18.3267 79.9231 18.0034 79.7282 17.7443C79.5932 18.0477 79.467 18.3311 79.343 18.6167L79.2212 18.6123C79.0906 18.3045 78.96 17.9968 78.8293 17.689L78.7496 17.7134C78.7363 17.9813 78.7208 18.2492 78.7075 18.5148L78.6123 18.506V17.0668H78.6079Z" fill="#0D1853"/>
<path d="M77.6085 17.3525C77.5333 17.3392 77.4668 17.3281 77.3982 17.3149C77.334 17.3016 77.2698 17.2861 77.2056 17.2728C77.2432 17.1067 77.7082 17.0846 78.3967 17.2241L77.8432 17.3813V18.5393L77.7281 18.5437C77.5665 18.1828 77.7392 17.7754 77.6085 17.3503V17.3525Z" fill="#0D1853"/>
<path d="M64.4374 31.5204C64.4728 32.0274 64.3799 32.1315 63.926 32.1359C63.8972 31.7174 63.9459 31.6554 64.4374 31.5204Z" fill="#0D1853"/>
<path d="M36.3468 35.4459C35.9992 35.7957 35.6494 36.1434 35.3018 36.4932C35.6494 36.1434 35.9992 35.7957 36.3468 35.4459Z" fill="#0D1853"/>
<path d="M28.1219 36.7478L28.4275 36.491C28.3765 36.6482 28.3212 36.7987 28.1108 36.7345L28.1219 36.7456V36.7478Z" fill="#0D1853"/>
<path d="M46.3087 36.564L46.1316 36.7102L46.0962 36.6681C46.1538 36.6172 46.2113 36.5662 46.2689 36.5153L46.311 36.564H46.3087Z" fill="#0D1853"/>
</svg>
