<svg width="80" height="41" viewBox="0 0 80 41" fill="none" xmlns="http://www.w3.org/2000/svg">
<g clip-path="url(#clip0_1311_45042)">
<path d="M45.27 21.7316C45.2927 21.6174 45.2927 21.5035 45.2927 21.4117V20.2193C45.2927 20.1052 45.2446 19.9932 45.1365 19.924L45.6594 19.7457V21.4117C45.6594 21.5035 45.6594 21.6174 45.6822 21.7316H45.27ZM46.7582 21.7316L47.5883 20.0205H46.9897C46.8974 20.0205 46.8331 20.0298 46.7814 20.0501V19.7912H48.0669L47.1672 21.7315H46.7582V21.7316ZM49.2779 21.7781C49.133 21.7781 48.98 21.7571 48.8478 21.6957L48.8544 21.5319C48.973 21.5757 49.1122 21.6084 49.2723 21.5889C49.5038 21.5614 49.6863 21.3747 49.6863 21.1277C49.6863 20.8497 49.5081 20.6987 49.2338 20.6987C49.1179 20.6987 49.009 20.7186 48.9065 20.7586L48.9762 19.7911H49.986V20.0464C49.9178 20.0283 49.8475 20.0195 49.777 20.0201H49.2886L49.2601 20.5117C49.3371 20.501 49.4041 20.493 49.5013 20.4973C49.8517 20.5159 50.0701 20.7521 50.0701 21.0813C50.0699 21.4696 49.7688 21.7781 49.2779 21.7781ZM52.3654 20.5508C52.3453 20.0309 52.0753 19.7163 51.5835 19.7593C51.2116 19.7914 50.9665 20.107 50.9988 20.4831C51.0282 20.8342 51.2706 21.0294 51.6631 20.99C51.8101 20.9747 51.9475 20.897 51.9948 20.8185C51.9856 21.3227 51.6911 21.6276 51.1677 21.6084L51.1646 21.7662C51.8303 21.8507 52.3991 21.4566 52.3654 20.5508ZM51.6521 20.8023C51.4447 20.8023 51.3756 20.62 51.3769 20.3696C51.3773 20.2322 51.4014 19.9128 51.6552 19.9128C51.8862 19.9128 51.9318 20.2096 51.9313 20.3461C51.9313 20.4601 51.9297 20.8023 51.6521 20.8023Z" fill="#0D1853"/>
<path d="M40.375 22.8284H36.4001L31.6893 7.05428C31.6431 6.89462 31.5508 6.59783 31.5508 6.46069C31.5508 6.27827 31.6893 6.16401 31.874 6.16401C32.0124 6.16401 32.1281 6.23252 32.1743 6.36918L37.232 21.6415C42.6378 17.3268 45.5244 11.9849 45.0164 5.38764C45.7552 5.22787 46.702 4.88496 47.2555 4.56576C48.5257 11.5967 46.1475 18.0343 40.375 22.8284Z" fill="#0D1853"/>
<path d="M26.3091 21.7329C26.3321 21.6184 26.3321 21.504 26.3321 21.4135V20.0662C26.3321 19.9523 26.3321 19.9062 26.3091 19.7924H27.3945L27.3943 20.0434C27.3347 20.0303 27.247 20.0205 27.1548 20.0205L26.725 20.021V20.6142H27.0478C27.0941 20.6142 27.1782 20.6119 27.2557 20.597V20.8596C27.1818 20.8441 27.0941 20.8422 27.0478 20.8422H26.725V21.5043H27.2328C27.3252 21.5043 27.3755 21.4894 27.441 21.4727V21.7332H26.3091V21.7329ZM28.7106 21.7784C28.5009 21.7784 28.3101 21.7126 28.2025 21.6266V21.4353C28.346 21.5309 28.5017 21.5928 28.711 21.5796C28.8887 21.568 29.0384 21.4618 29.0475 21.2887C29.056 21.1148 28.9459 21.0251 28.7106 20.9108C28.3428 20.7434 28.1979 20.6087 28.2025 20.3172C28.2073 20.0099 28.4463 19.7553 28.826 19.7463C28.9962 19.7425 29.1637 19.7755 29.2802 19.8425L29.2789 20.0472C29.1647 19.9726 29.0313 19.9329 28.8949 19.9328C28.691 19.9328 28.5446 20.037 28.5295 20.1902C28.5224 20.2631 28.5466 20.3381 28.6113 20.4015C28.6671 20.4569 28.7562 20.5001 28.8952 20.5679C29.2587 20.7243 29.4031 20.8877 29.4031 21.1845C29.4032 21.4811 29.1956 21.7784 28.7106 21.7784ZM31.2507 20.0434H30.9278V21.4135C30.9278 21.504 30.9278 21.6184 30.9505 21.7329H30.512C30.5348 21.6184 30.5348 21.504 30.5348 21.4135V20.0429L30.2115 20.0433C30.1427 20.0433 30.0726 20.0433 30.0037 20.066V19.7922H31.4583V20.066C31.3892 20.0434 31.3198 20.0434 31.2507 20.0434ZM32.8903 21.7329H32.6595C32.6133 21.7329 32.5577 21.7329 32.5207 21.7483V21.5112C32.5576 21.524 32.6133 21.5268 32.6595 21.5268H32.8903C32.9365 21.5268 32.9835 21.5211 33.0286 21.5112L33.0288 21.7503C32.994 21.735 32.9365 21.7329 32.8903 21.7329ZM32.8209 21.1387H32.2434C32.2665 21.0937 32.2665 21.0476 32.2665 21.0247L32.2667 19.906C32.2665 19.8837 32.2665 19.8376 32.2438 19.7922H32.7517C33.2135 19.7922 33.4908 19.952 33.4908 20.4314C33.4907 20.8419 33.2136 21.1387 32.8209 21.1387ZM32.7748 19.967H32.5899V20.9595L32.729 20.9594C32.9829 20.9594 33.1444 20.8142 33.1444 20.427C33.1443 20.1129 32.9828 19.967 32.7748 19.967Z" fill="#0D1853"/>
<path d="M48.549 4.97647V5.88985H48.3416V4.97647H48.0646V4.79417H48.826V4.97647H48.549ZM49.7729 5.88985V5.02246H49.7501L49.5191 5.88985H49.3804L49.1493 5.02246V5.88985H48.9647V4.79417H49.2416L49.4495 5.57006L49.6578 4.79417H49.9348V5.88985H49.7729ZM47.2795 0.000495911C45.1545 1.64355 41.853 2.30577 37.8778 0.822023C36.3308 0.251187 34.9683 0.000495911 33.8365 0.000495911C30.8576 0.000495911 29.3337 1.66631 29.3337 3.42457C29.3337 4.86244 30.3271 5.84434 31.6204 5.84434C31.9202 5.84434 32.2207 5.77559 32.4742 5.6611L37.8088 20.18C38.2244 19.9062 40.0282 18.1256 40.5823 17.327C40.2821 17.281 40.0051 17.0527 39.8432 16.6881C39.8432 16.6881 34.1832 4.40516 33.8587 3.66464C33.5085 2.86493 33.2178 2.304 32.752 2.05649C33.3095 1.86146 34.2281 1.89707 34.9993 2.20554C35.7339 2.49974 36.964 3.28059 38.5083 3.95602C40.1447 4.67095 41.3174 4.99321 42.6158 5.05736C44.8037 5.16549 47.22 4.25447 48.4797 3.08249L47.2795 0.000495911ZM31.5508 4.56577C31.0888 4.56577 30.6965 4.1777 30.6965 3.72125C30.6965 3.26444 31.0888 2.87637 31.5508 2.87637C32.0125 2.87613 32.4052 3.26444 32.4052 3.72125C32.4052 4.1777 32.0125 4.56577 31.5508 4.56577Z" fill="#0D1853"/>
<path d="M41.3919 10.1107C42.7759 7.05003 44.1693 5.05712 44.2396 4.96538C44.2155 5.07752 43.6165 7.42748 42.1982 10.4723C40.8142 13.5331 39.4191 15.526 39.3487 15.6183C39.3729 15.505 39.9732 13.1559 41.3919 10.1107ZM40.1566 9.26003C41.2899 6.75099 42.4564 5.12704 42.5155 5.05193C42.4977 5.14473 42.0298 7.08234 40.8658 9.57758C39.7327 12.087 38.5638 13.7109 38.5047 13.7859C38.5228 13.693 38.991 11.7553 40.1566 9.26003ZM39.0859 8.3299C40.0288 6.24631 41.0029 4.90229 41.0518 4.84003C41.0374 4.91727 40.6563 6.52707 39.6884 8.59946C38.7461 10.683 37.7728 12.0262 37.7227 12.0884C37.7379 12.0111 38.1193 10.4021 39.0859 8.3299ZM38.1404 7.38138C38.9276 5.63974 39.7452 4.51682 39.7867 4.4647C39.7741 4.52991 39.4569 5.87711 38.6474 7.60872C37.8616 9.35012 37.0447 10.4734 37.0035 10.5252C37.0159 10.4604 37.3331 9.11369 38.1404 7.38138ZM37.2762 6.44571C37.9314 4.99415 38.6172 4.06107 38.6517 4.01768C38.6419 4.07192 38.3832 5.19661 37.7094 6.6405C37.0545 8.09206 36.3683 9.02537 36.3342 9.06818C36.3439 9.01453 36.6026 7.88901 37.2762 6.44571ZM36.4905 5.55496C37.0301 4.35893 37.5935 3.5887 37.622 3.55262C37.6137 3.59778 37.3984 4.5239 36.843 5.71238C36.3036 6.909 35.7408 7.67959 35.7115 7.71461C35.72 7.67027 35.9357 6.74392 36.4905 5.55496ZM35.7554 4.6858C36.1947 3.71298 36.6595 3.08897 36.6831 3.06055C36.6766 3.0971 36.5083 3.85413 36.0568 4.82093C35.618 5.79398 35.1529 6.41776 35.1295 6.44594C35.1357 6.40962 35.3038 5.6526 35.7554 4.6858ZM35.7985 2.59018C35.7941 2.61919 35.6695 3.21584 35.3144 3.97488C34.9707 4.73874 34.5982 5.22479 34.5793 5.2472C34.5839 5.21843 34.7085 4.62118 35.0637 3.8625C35.4072 3.09863 35.78 2.61235 35.7985 2.59018Z" fill="#0D1853"/>
<path d="M79.1953 26.9046C78.7498 26.9046 78.3875 27.2635 78.3875 27.6981C78.3875 28.1424 78.7497 28.4975 79.1953 28.4975C79.6402 28.4975 80 28.1423 80 27.6981C80.0001 27.2635 79.6403 26.9046 79.1953 26.9046ZM79.1953 28.3424C78.8302 28.3424 78.5406 28.0589 78.5406 27.698C78.5406 27.3454 78.8302 27.0612 79.1953 27.0612C79.5549 27.0612 79.8463 27.3454 79.8463 27.698C79.8464 28.0589 79.5549 28.3424 79.1953 28.3424Z" fill="#0D1853"/>
<path d="M79.5674 27.5048C79.5674 27.436 79.5375 27.3642 79.4767 27.3287C79.4142 27.296 79.3454 27.2912 79.278 27.2912H78.9235V28.0958H79.0435V27.7271H79.1861L79.4189 28.0958H79.5564L79.3109 27.7271C79.4544 27.7211 79.5674 27.6621 79.5674 27.5048ZM79.176 27.6249H79.0435V27.3828H79.2544C79.3551 27.3828 79.4451 27.3966 79.4451 27.5021C79.4452 27.646 79.2898 27.6249 79.176 27.6249ZM73.8498 40.8214C71.9962 40.8214 70.918 40.2452 70.3355 40.2452V37.2615H70.6375C70.8961 38.5613 72.2544 39.4572 73.6993 39.4572C74.9285 39.4572 75.899 38.8172 75.899 37.5387C75.899 36.665 75.4675 35.8976 74.3465 35.1297L72.7724 34.0643C71.4138 33.148 70.2711 32.103 70.2711 30.2274C70.2711 28.0107 71.78 26.5821 74.2808 26.5821C75.7694 26.5821 76.3939 26.9241 77.2568 27.0089V29.5874H76.9548C76.7601 28.6072 75.7265 27.8196 74.3464 27.8196C73.0516 27.8196 72.4704 28.5229 72.4704 29.46C72.4704 30.27 72.9663 30.9096 74.1735 31.7198L75.5321 32.6145C77.6233 34.0008 78.27 35.0016 78.27 36.7285C78.2703 39.2647 76.4802 40.8214 73.8498 40.8214ZM64.9884 40.8214C63.1335 40.8214 62.0561 40.2452 61.4736 40.2452V37.2615H61.7759C62.0345 38.5613 63.3933 39.4572 64.8368 39.4572C66.0669 39.4572 67.0366 38.8172 67.0366 37.5387C67.0366 36.665 66.6056 35.8976 65.4844 35.1297L63.91 34.0643C62.5517 33.148 61.4092 32.103 61.4092 30.2274C61.4092 28.0107 62.9184 26.5821 65.4197 26.5821C66.9075 26.5821 67.5328 26.9241 68.3952 27.0089V29.5874H68.0932C67.899 28.6072 66.8641 27.8196 65.4843 27.8196C64.1904 27.8196 63.6085 28.5229 63.6085 29.46C63.6085 30.27 64.1037 30.9096 65.3114 31.7198L66.6701 32.6145C68.7612 34.0008 69.4081 35.0016 69.4081 36.7285C69.4084 39.2647 67.6192 40.8214 64.9884 40.8214ZM52.9138 40.6079V40.331C53.0218 40.2251 53.0437 39.6707 53.0437 39.3722V28.5009C53.0437 27.6066 52.7415 27.1368 52.4179 27.073V26.7959H59.986V28.6713H59.7059C59.6412 28.3516 58.9949 28.1392 58.5849 28.1392H55.7174V32.8704H58.1316C58.4554 32.8704 59.2102 32.7856 59.2965 32.572H59.5769V34.3629H59.2965C59.1879 34.2565 58.585 34.2136 58.2182 34.2136H55.7174V39.2647H58.5631C59.3398 39.2647 59.814 38.9665 59.9007 38.6258H60.1808V40.6079H52.9138ZM48.9466 40.6079L41.8109 28.1393C41.5724 27.7121 41.1204 27.1368 40.7108 27.073V26.7959H44.1599L49.1403 35.6199V28.5009C49.1403 27.6066 48.9032 27.1368 48.6013 27.073V26.7959H50.65V40.6079H48.9466ZM41.5301 40.6079V40.331C41.6377 40.2251 41.6592 39.4144 41.6592 39.2647V29.7376L43.1689 32.4867V39.201C43.1689 39.7344 43.2761 40.2664 43.3841 40.3309V40.6078H41.5301V40.6079ZM37.6031 40.6079L30.4662 28.1393C30.2292 27.7121 29.7763 27.1368 29.3664 27.073V26.7959H32.8165L37.7972 35.6199V28.5009C37.7972 27.6066 37.5601 27.1368 37.2582 27.073V26.7959H39.3072V40.6079H37.6031ZM30.1858 40.6079V40.331C30.2937 40.2251 30.3151 39.4144 30.3151 39.2647V29.7376L31.8246 32.4867V39.201C31.8246 39.7344 31.9322 40.2664 32.0404 40.3309V40.6078H30.1858V40.6079ZM25.1619 40.6079V40.331C25.2481 40.2665 25.3129 39.6707 25.3129 39.308V28.5009C25.3129 27.6066 25.0111 27.1368 24.6875 27.073V26.7959H27.9648V39.0731C27.9648 39.8628 28.1155 40.31 28.2021 40.331V40.6079H25.1619ZM22.7473 38.221C22.2297 39.947 20.8281 40.8214 18.5645 40.8214C15.287 40.8214 13.9066 39.0101 13.9066 36.2386V28.501C13.9066 27.6067 13.6049 27.1369 13.2819 27.0731V26.796H16.6023V36.3026C16.6023 37.2186 16.7096 37.7091 16.9041 38.0935C17.3353 38.924 18.1113 39.1799 18.9522 39.1799C19.8365 39.1799 20.6771 38.924 21.1083 38.0935C21.3024 37.7091 21.4104 37.2186 21.4104 36.196V28.501C21.4104 27.6067 21.1083 27.1369 20.7849 27.0731V26.796H23.0061V36.0039C23.0063 37.0902 22.9197 37.6876 22.7473 38.221ZM11.751 33.8514V40.1814C11.6001 40.2452 9.70244 40.8635 7.20107 40.8635C3.29896 40.8635 0 38.0717 0 32.2317C0 27.1794 2.88908 23.8328 7.07195 23.8328C9.1204 23.8328 10.0909 24.3448 10.6945 24.3448C10.7803 24.3448 10.8238 24.3236 10.8454 24.302H11.0606V27.7336H10.7158C10.3062 25.9858 8.94777 25.2184 7.43855 25.2184C4.98057 25.2184 2.97504 27.2431 2.97504 32.1246C2.97504 37.3463 5.19601 39.4144 7.52463 39.4144C8.19334 39.4144 8.66713 39.329 8.96958 39.2011V34.2136C8.96958 33.4884 8.77537 32.572 7.97767 32.402V32.1031H11.9016V32.3808C11.794 32.4436 11.751 33.4246 11.751 33.8514Z" fill="#0D1853"/>
</g>
<defs>
<clipPath id="clip0_1311_45042">
<rect width="80" height="40.864" fill="white"/>
</clipPath>
</defs>
</svg>
