<svg width="80" height="48" viewBox="0 0 80 48" fill="none" xmlns="http://www.w3.org/2000/svg">
<path fill-rule="evenodd" clip-rule="evenodd" d="M76.2309 13.7241C76.0352 14.0199 75.8395 14.3158 75.5254 14.4979C75.2204 12.8774 72.9854 12.4723 71.374 13.1596C71.8793 12.495 72.9626 11.8851 74.1507 11.9625C74.8107 12.008 75.225 12.2811 75.6984 12.5588C75.8076 12.8911 76.1399 13.2552 76.2264 13.7195L76.2309 13.7241Z" fill="#0D1853"/>
<path fill-rule="evenodd" clip-rule="evenodd" d="M62.7252 17.4157C62.5021 17.3201 62.3565 17.1517 62.1972 16.9923C62.0606 16.1184 62.4885 15.0987 62.2654 14.3886C62.1471 13.9972 61.7101 13.9198 61.4233 13.6512C61.6782 13.0003 62.0879 13.5101 62.5477 13.6512C62.5841 13.9198 62.8208 14.1064 62.8663 14.4251C62.9801 15.3127 62.7161 16.6191 62.7252 17.4157Z" fill="#0D1853"/>
<path fill-rule="evenodd" clip-rule="evenodd" d="M53.7902 15.0259C54.2453 15.2262 54.5959 15.5358 54.8462 15.9409C54.7961 18.185 54.7142 20.7386 54.6004 23.1876C54.5458 24.3301 54.7734 25.7548 53.9313 26.1782C54.0587 23.4789 54.0678 20.3471 54.2135 17.4203C54.2317 17.0151 54.3318 16.5008 54.2499 16.1548C54.1589 15.777 53.7082 15.6814 53.4761 15.381C53.4943 15.2035 53.7173 15.035 53.7947 15.0305L53.7902 15.0259Z" fill="#0D1853"/>
<path fill-rule="evenodd" clip-rule="evenodd" d="M66.1023 15.9045C66.1433 15.8999 66.166 15.9136 66.1706 15.9409C65.9384 17.1654 65.6608 17.9028 65.8201 19.2137C66.1023 21.5671 67.782 23.1102 70.1808 23.2604C72.6343 23.4106 74.6781 22.2453 76.549 21.3941C75.6887 22.127 74.5143 22.696 73.3126 23.1876C71.683 23.8522 69.4616 24.3893 67.6864 23.6792C66.2662 23.1102 65.3467 21.7674 65.2238 20.0923C65.11 18.5355 65.5014 17.0698 66.1023 15.909V15.9045Z" fill="#0D1853"/>
<path fill-rule="evenodd" clip-rule="evenodd" d="M48.3415 24.5577C48.1503 24.5987 48.032 24.717 47.8135 24.7352C47.8681 23.2832 47.8499 21.8311 47.9182 20.3745C47.9728 19.2911 48.1412 18.1668 48.0593 17.1016C48.0456 16.8968 48.0593 16.7967 47.9546 16.6465C48.1002 16.6009 48.1776 16.3051 48.3051 16.3642H48.3734C48.7239 17.2063 48.5281 18.581 48.4781 19.7418C48.4052 21.3577 48.428 23.0283 48.3369 24.5623L48.3415 24.5577Z" fill="#0D1853"/>
<path fill-rule="evenodd" clip-rule="evenodd" d="M73.6638 20.6521C73.5136 20.7523 73.327 20.8069 73.0994 20.8296C73.022 19.6416 73.3224 18.5127 73.063 17.3838C73.1085 17.1926 73.3179 16.9833 73.4499 16.9969C73.7185 17.0971 73.7503 17.4384 73.7685 17.7025C73.8232 18.5355 73.6183 19.7235 73.6638 20.6567V20.6521Z" fill="#0D1853"/>
<path fill-rule="evenodd" clip-rule="evenodd" d="M39.9335 18.1531C40.375 18.7676 40.1429 20.3244 40.111 21.4259C40.0382 23.7838 40.0655 26.0234 39.8288 28.3176C39.7924 28.6817 39.8015 29.1733 39.3008 29.2325C39.3782 26.6789 39.4373 24.1707 39.5466 21.4578C39.5876 20.3881 39.7742 19.2592 39.5102 18.3625C39.6376 18.3033 39.8106 18.103 39.9335 18.1531Z" fill="#0D1853"/>
<path fill-rule="evenodd" clip-rule="evenodd" d="M57.309 18.54C59.7761 20.643 62.0567 22.9372 64.451 25.1176C64.2461 25.4271 64.055 25.7548 63.7454 25.9597C61.9338 24.3164 59.9127 22.4501 58.01 20.684C57.7642 20.4564 57.2908 20.1241 57.2362 19.9102C57.136 19.5005 57.3591 18.9042 57.3044 18.54H57.309Z" fill="#0D1853"/>
<path fill-rule="evenodd" clip-rule="evenodd" d="M27.2019 20.8297C27.7436 21.121 28.2489 21.5489 28.258 22.482C28.2762 24.6078 28.0486 27.4573 28.0122 29.797C28.0031 30.5344 28.1169 31.4174 27.557 31.7679C27.1655 31.5449 27.3658 31.0032 27.3795 30.6436C27.4751 28.6362 27.5479 26.4467 27.5889 24.4166C27.6071 23.5972 27.8301 22.5867 27.5889 21.954C27.4568 21.6126 27.079 21.4851 26.8833 21.1801C27.0108 21.0846 27.0472 20.8979 27.2019 20.8297Z" fill="#0D1853"/>
<path fill-rule="evenodd" clip-rule="evenodd" d="M17.4248 25.6092C17.2473 25.9733 17.0561 26.3193 16.7556 26.5605C16.0774 25.2359 14.9849 24.057 12.7454 24.3802C11.8669 24.5076 11.1841 24.8672 10.4922 25.1176C11.2888 24.239 12.6726 23.6291 14.1519 23.5016C15.8589 23.3514 16.8877 24.3073 17.4248 25.6137V25.6092Z" fill="#0D1853"/>
<path fill-rule="evenodd" clip-rule="evenodd" d="M48.2004 25.3315H48.3051C48.2641 26.1463 48.4963 27.2342 47.8135 27.4072C47.8681 26.779 48.0957 26.0279 48.2004 25.3315Z" fill="#0D1853"/>
<path fill-rule="evenodd" clip-rule="evenodd" d="M56.7122 26.1054C56.7213 26.4104 56.3344 26.6152 56.1842 26.8792C55.2328 27.0658 54.3316 27.3025 53.3711 27.4755C53.4485 27.1887 53.7079 27.084 53.758 26.77C54.7185 26.5242 55.7199 26.3193 56.7122 26.1008V26.1054Z" fill="#0D1853"/>
<path fill-rule="evenodd" clip-rule="evenodd" d="M39.4787 30.6391C39.4514 30.803 39.2284 31.0624 39.1282 31.2718C37.9766 31.3674 37.0116 32.1458 35.7188 31.7998C34.5262 31.4812 33.9436 30.1338 33.2198 29.1597C32.6918 28.4496 32.141 27.8214 31.7769 27.2616C31.8087 26.8337 31.7359 26.5196 31.8816 26.2055C32.314 26.3967 32.5825 26.861 32.8648 27.2616C33.411 28.0263 33.9754 28.8092 34.5535 29.6195C34.8403 30.02 35.1043 30.4889 35.4321 30.7438C36.4881 31.5677 38.2452 30.7256 39.4787 30.6391Z" fill="#0D1853"/>
<path fill-rule="evenodd" clip-rule="evenodd" d="M47.0391 28.8137C47.2211 28.5634 47.4852 28.3904 47.6035 28.0763C48.9418 27.7622 50.3301 27.4937 51.6502 27.1614C51.6957 27.175 51.7048 27.2251 51.7549 27.2297C51.6274 27.4891 51.4408 27.6894 51.2997 27.9352C49.8522 28.1765 48.4365 28.6362 47.0436 28.8137H47.0391Z" fill="#0D1853"/>
<path fill-rule="evenodd" clip-rule="evenodd" d="M21.2572 27.2979C21.6715 27.8123 21.9309 28.4769 22.2086 29.1278C21.8626 29.2052 21.5349 29.2962 21.1525 29.3372C21.0205 29.0686 20.8749 28.8183 20.7656 28.5269C20.9477 28.1355 21.0979 27.7121 21.2572 27.2979Z" fill="#0D1853"/>
<path fill-rule="evenodd" clip-rule="evenodd" d="M46.6159 28.3176C46.6478 28.4769 46.534 28.7682 46.5112 28.9867C44.3673 29.3964 42.3416 29.929 40.1431 30.2886C40.2887 29.9881 40.5345 29.7878 40.7394 29.5511C42.7286 29.1733 44.5994 28.6772 46.6114 28.3221L46.6159 28.3176Z" fill="#0D1853"/>
<path fill-rule="evenodd" clip-rule="evenodd" d="M3.53233 28.354C3.58695 28.3449 3.5915 28.3858 3.63702 28.3904C3.05437 30.0382 2.61739 32.1958 3.04072 34.053C3.80089 37.3896 7.09649 39.356 11.2706 38.696C13.1551 38.3955 14.7574 37.7446 16.2277 37.08C15.7907 37.5125 15.1807 37.8356 14.5753 38.1361C12.8683 38.9782 10.5423 39.8385 8.03419 39.6837C4.82507 39.4834 2.44441 37.3531 2.23047 34.1622C2.07116 31.7816 2.78581 29.9198 3.53233 28.3585V28.354Z" fill="#0D1853"/>
<path fill-rule="evenodd" clip-rule="evenodd" d="M22.805 32.9605C22.6411 32.4826 22.4545 32.0228 22.2405 31.5904C21.271 31.8043 20.3469 32.0638 19.3228 32.2231C19.3683 31.95 19.4957 31.7634 19.5686 31.5175C20.5245 31.3082 21.8673 31.0168 22.805 30.812C23.0918 30.7528 23.4832 32.1093 23.333 32.5372C23.2556 32.7648 23.0371 32.915 22.805 32.9605Z" fill="#0D1853"/>
<path fill-rule="evenodd" clip-rule="evenodd" d="M31.3533 31.6951C31.2532 31.9591 31.0711 32.1412 30.93 32.3642C28.0941 33.0197 25.2446 33.6661 22.3496 34.2624C22.4543 34.0257 22.6591 33.8891 22.7001 33.5932C25.5633 32.9377 28.4401 32.3005 31.3533 31.6951Z" fill="#0D1853"/>
<path fill-rule="evenodd" clip-rule="evenodd" d="M0.0817309 47.9227C-0.0199496 41.6298 -0.00420821 35.2335 0.0115093 28.8469C0.0211223 24.9408 0.0307264 21.0383 0.0134517 17.1653C26.7606 11.53 53.4395 5.82192 79.9955 0C79.9868 3.86402 79.991 7.73909 79.9952 11.6147V11.6152L79.9952 11.6357C79.9976 13.8435 80 16.0516 80 18.2578V19.2183C80 23.0601 79.9909 26.8928 79.959 30.7028C59.1294 35.1682 2.35314 47.4129 0.154562 47.9182H0.0817309V47.9227ZM2.33528 19.2046L2.33758 19.2029C6.72485 18.5791 11.0929 17.9782 15.4525 17.3785C22.89 16.3554 30.3029 15.3357 37.7447 14.2111C38.0022 14.1725 38.2584 14.1377 38.5129 14.1032L38.513 14.1031C39.1001 14.0234 39.6786 13.9448 40.2438 13.8242C40.7582 13.7146 41.2685 13.5623 41.7761 13.4108C42.0276 13.3357 42.2785 13.2608 42.5288 13.1915C46.5232 12.0846 50.4819 10.9558 54.4389 9.82754L54.4392 9.82744C56.4705 9.24826 58.5013 8.66921 60.5363 8.09329C63.4313 7.27394 66.4856 6.38632 69.4717 5.48959C70.7074 5.12012 71.9782 4.76268 73.2537 4.40392C74.8069 3.96708 76.367 3.52828 77.8791 3.06341C78.0976 2.99513 78.521 2.84947 78.0566 2.88588C77.5824 2.92515 77.0601 3.06663 76.5336 3.20925C76.2666 3.28157 75.9986 3.35418 75.7352 3.41391C67.0455 5.4031 58.4606 7.25118 49.7436 9.07651C48.3074 9.37693 46.8813 9.70247 45.4613 10.0266C43.74 10.4196 42.0276 10.8105 40.3166 11.1522C38.2984 11.5547 36.2876 11.9866 34.276 12.4187L34.2759 12.4187C33.1251 12.6659 31.9741 12.9132 30.8213 13.155C29.825 13.3643 28.8261 13.5695 27.8268 13.7748L27.8267 13.7748C25.6529 14.2214 23.4777 14.6683 21.3259 15.1579C18.022 15.9102 14.6811 16.583 11.3454 17.2548L11.3451 17.2548L11.3451 17.2549C8.70646 17.7862 6.07105 18.317 3.4596 18.8859C3.36012 18.9084 3.25631 18.9266 3.15197 18.9449L3.15194 18.9449C2.8563 18.9967 2.55627 19.0493 2.33758 19.2029L2.32617 19.2046H2.33528ZM73.9551 18.9545C73.8947 19.5573 73.8338 20.1653 73.9094 20.6794L73.9185 20.684C72.6895 21.2985 71.1236 21.0618 70.3998 20.3654C69.6442 19.6416 69.3301 18.3671 69.3438 16.9878C69.3575 15.2353 70.3361 13.3827 71.4878 12.4177C72.6576 11.4345 74.9017 11.0658 75.9532 12.4177C76.038 12.5271 76.1097 12.6682 76.1801 12.8067C76.2532 12.9506 76.3249 13.0918 76.4084 13.1915C76.5267 12.6089 76.4949 11.2023 76.4448 10.2009C73.3768 9.57728 70.3407 10.8109 68.7429 12.2766C67.1862 13.7013 65.8661 15.9773 66.0345 18.6766C66.1939 21.2894 68.1512 22.9691 71.028 22.7915C73.2955 22.6513 75.1857 21.5627 76.7669 20.652C76.9823 20.5279 77.192 20.4071 77.3962 20.2925C77.3771 20.218 77.3299 20.1459 77.2792 20.0684C77.2091 19.9614 77.1324 19.8441 77.1139 19.6962C77.0869 19.4796 77.1114 19.1566 77.1385 18.7992V18.7991V18.799V18.7989L77.1385 18.7985L77.1386 18.798L77.1386 18.7978C77.157 18.5549 77.1767 18.296 77.1822 18.0439C77.1853 17.8914 77.1861 17.7429 77.1868 17.5992V17.5987V17.5982V17.5978V17.5973V17.5968V17.5963C77.1894 17.0975 77.1916 16.6575 77.2869 16.3187C77.3359 16.1496 77.4298 16.0293 77.5138 15.9217C77.5859 15.8293 77.6507 15.7462 77.6738 15.6496C77.124 15.7749 76.5643 15.8894 76.0046 16.0039L76.0044 16.0039C75.2018 16.1682 74.3995 16.3323 73.6272 16.5281C73.649 16.6197 73.7073 16.681 73.7697 16.7465C73.8376 16.8177 73.9102 16.894 73.9458 17.0197C74.0955 17.5521 74.0256 18.2497 73.9551 18.9545ZM64.2965 24.4645C64.4382 24.6011 64.6214 24.7777 64.7285 24.7261C64.7553 23.9455 64.7841 23.1537 64.8132 22.354L64.8134 22.3496L64.8134 22.3494C64.9078 19.7556 65.0054 17.0774 65.0471 14.4206C65.0653 13.4647 65.0972 12.3403 65.6115 11.9944C65.2889 12.0629 64.962 12.1278 64.6348 12.1927C63.7016 12.3779 62.7658 12.5635 61.9199 12.8365C61.9974 12.8922 62.0766 12.9459 62.1556 12.9995C62.6054 13.3045 63.0474 13.6041 63.1171 14.243C63.1811 14.8291 63.1199 15.5005 63.0582 16.1778L63.0581 16.1779C63.0058 16.7525 62.953 17.3315 62.976 17.8664C62.1189 17.193 61.2094 16.401 60.312 15.6195C59.9416 15.297 59.5732 14.9762 59.2115 14.6664C59.1605 14.6221 59.0871 14.5526 59 14.4701C58.6754 14.1627 58.1609 13.6755 57.9097 13.6467C57.7444 13.6277 57.457 13.7062 57.198 13.7771L57.1979 13.7771C57.086 13.8077 56.9793 13.8369 56.89 13.8561C55.8795 14.0792 54.8098 14.325 53.8994 14.5935C53.942 14.6206 53.9876 14.6487 54.0352 14.6781L54.0356 14.6783L54.0357 14.6784L54.036 14.6786L54.0373 14.6794L54.0373 14.6794C54.4216 14.9163 54.9348 15.2327 55.0602 15.7179C55.1317 15.9939 55.1063 16.3644 55.0814 16.728C55.073 16.85 55.0647 16.9713 55.0602 17.088C54.9737 19.2001 54.9054 21.731 54.8508 23.9113L54.8471 24.0394C54.8307 24.6315 54.8133 25.2563 54.6732 25.6001C54.6415 25.6766 54.5776 25.7509 54.5152 25.8234C54.4254 25.9278 54.3385 26.0288 54.3546 26.1281C54.9202 26.0447 55.4469 25.9195 55.9733 25.7944C56.3663 25.7011 56.7591 25.6077 57.1677 25.5318C57.1353 25.4557 57.0727 25.3978 57.0065 25.3366C56.9143 25.2516 56.8152 25.16 56.7808 25.0038C56.7038 24.6527 56.7497 24.2015 56.796 23.7477L56.796 23.7476C56.8181 23.5307 56.8402 23.3132 56.8491 23.1057C56.886 22.2702 56.9022 21.4737 56.9178 20.7045V20.7044C56.9388 19.6715 56.9588 18.6879 57.0266 17.7253C58.5043 19.0203 59.9752 20.4095 61.4333 21.7866L61.4333 21.7867C62.3737 22.6748 63.3088 23.558 64.2368 24.4075L64.2654 24.4346L64.2965 24.4645ZM50.0455 27.0667L50.0454 27.0668C49.3749 27.217 48.7048 27.3672 48.0225 27.5028C48.0802 27.4022 48.1661 27.3349 48.2494 27.2695C48.3434 27.1958 48.4342 27.1246 48.4777 27.0111C48.6137 26.6567 48.6005 26.0883 48.5887 25.5783V25.5782V25.5781V25.578V25.5779V25.5778C48.5855 25.4395 48.5824 25.3055 48.5824 25.1813C48.5939 23.2288 48.6698 21.2893 48.7458 19.3474L48.7458 19.3471L48.7458 19.3469C48.7894 18.233 48.833 17.1183 48.8646 16C48.8432 15.9122 48.7463 15.8986 48.6494 15.8851C48.5605 15.8727 48.4717 15.8603 48.4412 15.7906C48.8385 15.7032 49.2315 15.6116 49.6244 15.52L49.6245 15.52L49.6245 15.52C50.5823 15.2967 51.5395 15.0735 52.5562 14.9121C52.5867 14.9204 52.58 14.9304 52.5701 14.9452C52.5638 14.9547 52.5562 14.9662 52.5562 14.9804C52.0499 15.5518 52.032 16.7526 52.0141 17.9593C52.0095 18.2714 52.0048 18.5839 51.9917 18.8859C51.9748 19.2959 51.9564 19.7132 51.9379 20.1353L51.9378 20.137V20.1371V20.1371V20.1372V20.1373V20.1374C51.8721 21.6364 51.8037 23.1949 51.7824 24.6897C51.7797 24.8333 51.7721 24.9834 51.7645 25.1333L51.7645 25.1335C51.7459 25.5013 51.7274 25.8675 51.7824 26.1326C51.8139 26.2797 51.8938 26.3631 51.9681 26.4406C52.0226 26.4974 52.074 26.551 52.101 26.6242C51.4066 26.7617 50.7261 26.9142 50.046 27.0666L50.0459 27.0667L50.0458 27.0667L50.0456 27.0667L50.0455 27.0667ZM44.086 16.7429L44.0855 16.7421H44.09L44.086 16.7429ZM42.0852 17.1813C42.7518 17.0348 43.4183 16.8883 44.086 16.7429C44.1413 16.8387 44.0458 16.9501 43.9489 17.0631C43.8893 17.1326 43.8292 17.2027 43.8033 17.2701C43.5863 17.8477 43.5921 18.6408 43.598 19.45V19.45V19.4503C43.6002 19.7443 43.6024 20.0403 43.5939 20.329C43.5714 21.0762 43.5411 21.8126 43.5104 22.5575L43.5103 22.558C43.4539 23.9275 43.3963 25.3253 43.3845 26.8701C43.8037 26.7484 44.2528 26.6628 44.6999 26.5776C45.7238 26.3824 46.7373 26.1893 47.3583 25.5683C47.4514 25.4752 47.5174 25.3723 47.5837 25.2691C47.6666 25.14 47.7498 25.0104 47.8863 24.8991C47.7976 25.6194 47.6628 26.2936 47.5279 26.9678L47.5279 26.9679L47.5279 26.968C47.4829 27.1927 47.438 27.4175 47.3947 27.6439C45.5034 28.0741 43.5891 28.4812 41.6748 28.8883C41.0366 29.024 40.3985 29.1597 39.7611 29.2963C39.7255 29.1839 39.8121 29.0731 39.9005 28.96C39.9589 28.8853 40.018 28.8097 40.0434 28.7319C40.1445 28.4285 40.1593 27.9558 40.1741 27.4859C40.1773 27.3846 40.1804 27.2835 40.1845 27.1842C40.2319 26.1119 40.2681 24.8997 40.3048 23.6719V23.6719V23.6718V23.6717V23.6716C40.3421 22.4237 40.3798 21.1598 40.4303 20.0104C40.4348 19.906 40.4411 19.7966 40.4475 19.6841L40.4475 19.6834C40.4925 18.893 40.5459 17.9552 40.0798 17.6206C40.7489 17.4749 41.4169 17.3281 42.0849 17.1813L42.0852 17.1813ZM19.9916 29.6831L19.9964 29.6825L19.9962 29.6831H19.9916ZM19.9964 29.6825C20.2904 28.7824 20.6423 27.9372 20.9944 27.0916L20.9944 27.0915L20.9945 27.0914C21.0838 26.8768 21.1732 26.6622 21.2616 26.4467C21.6632 27.0714 21.9871 27.7711 22.3114 28.4717L22.3115 28.4717L22.3115 28.4718L22.3115 28.4718L22.3115 28.4719C22.4173 28.7004 22.5231 28.929 22.6317 29.1551C22.382 29.2071 22.1353 29.2621 21.8886 29.3171C21.2732 29.4543 20.6579 29.5914 19.9964 29.6825ZM17.8112 21.0663C17.8112 22.3818 17.7885 24.0479 17.743 25.2177C17.5862 25.0224 17.4478 24.828 17.3141 24.6403C16.9586 24.1412 16.6364 23.6888 16.0906 23.3878C14.1105 22.2954 11.5205 23.5562 10.2505 24.7261C8.80296 26.0644 7.77878 27.8851 7.64677 30.2112C7.48745 33.0152 8.77565 35.8829 11.5159 36.0513C13.4915 36.1742 15.1165 35.1955 16.1589 34.2214C17.3045 33.1519 17.8914 31.6952 18.4861 30.219L18.4861 30.219L18.5168 30.1429C18.9462 29.0764 19.3654 28.0137 19.7823 26.9568C20.5809 24.9325 21.3711 22.9294 22.2084 20.9616C22.4048 21.397 22.6065 21.8424 22.8115 22.2955L22.812 22.2965L22.8121 22.2967L22.8122 22.2969L22.8123 22.2971C23.7712 24.4158 24.8047 26.6991 25.727 28.8775C25.811 29.0767 25.8918 29.28 25.9726 29.4834L25.9726 29.4834C26.2555 30.195 26.5383 30.9066 26.9561 31.4447C27.0315 31.542 27.1338 31.6246 27.2342 31.7057C27.3641 31.8104 27.4908 31.9127 27.5524 32.041C26.1231 32.3369 24.7256 32.6601 23.3327 32.9924C23.3061 32.8906 23.384 32.7758 23.4702 32.6488C23.5459 32.5374 23.628 32.4166 23.6514 32.2868C23.7425 31.7872 23.5256 31.2941 23.3346 30.8598C23.2489 30.6651 23.1684 30.4822 23.1233 30.3159C21.867 30.548 20.6471 30.8166 19.4317 31.0897C19.294 31.2604 19.2074 31.5197 19.1099 31.812L19.1099 31.812L19.1099 31.812C19.0592 31.964 19.0055 32.1249 18.9401 32.2868C18.9085 32.3648 18.8713 32.4482 18.8329 32.5345L18.8328 32.5347L18.8328 32.5348C18.5839 33.0939 18.28 33.7766 19.0448 33.9028C17.6383 35.8783 15.4306 37.0937 12.8178 37.8766C9.85446 38.7642 6.62259 38.35 4.87009 36.6476C3.44534 35.2638 2.94007 33.2109 3.25416 30.8803C3.84136 26.5013 6.37678 23.7656 9.89998 22.1907C12.135 21.1938 14.8798 20.6749 17.8158 21.0663H17.8112ZM31.7773 20.6431C33.771 19.7327 34.2626 22.8917 33.0063 24.0206C32.6194 24.3711 32.1232 24.5259 31.5997 24.5486C31.6105 24.2006 31.6165 23.8481 31.6226 23.4959L31.6226 23.4956C31.6395 22.5077 31.6565 21.5222 31.7773 20.6431ZM35.9241 25.2861C35.5371 24.8809 34.9272 24.7125 34.2717 24.6169H34.2763C35.6919 23.9933 37.1986 22.8098 36.9847 20.8889C36.8663 19.8192 35.9923 19.1819 34.8407 19.0954C33.6269 19.0018 32.5901 19.2464 31.5874 19.4829L31.5874 19.4829L31.5874 19.4829C31.274 19.5568 30.964 19.63 30.6529 19.6917C30.1592 19.7888 29.6748 19.9019 29.1896 20.0151C28.6057 20.1513 28.0206 20.2879 27.4165 20.3973C27.4852 20.5038 27.6142 20.6017 27.7529 20.7071L27.7529 20.7071C27.8809 20.8042 28.0172 20.9077 28.1221 21.03C28.5878 21.5786 28.5436 22.4865 28.494 23.5074L28.494 23.5075L28.494 23.5076C28.4863 23.6641 28.4786 23.8233 28.4726 23.9842C28.4492 24.5705 28.4272 25.2251 28.405 25.8875C28.371 26.9016 28.3363 27.934 28.295 28.7683C28.2786 29.1062 28.2835 29.4346 28.2881 29.7474C28.2964 30.3026 28.3039 30.8087 28.1903 31.2309C28.1507 31.3748 28.0556 31.4949 27.969 31.6042C27.8667 31.7333 27.7763 31.8475 27.8034 31.9683C28.8684 31.7179 29.964 31.4952 31.0602 31.2723L31.0619 31.272C31.3004 31.2235 31.539 31.175 31.7773 31.1262C31.3469 30.7891 31.3884 30.0817 31.4321 29.3382C31.4438 29.1381 31.4557 28.9353 31.4586 28.7364C31.4723 27.6713 31.4859 26.7108 31.5997 25.7458C32.1605 25.6158 32.5 26.1025 32.7704 26.4901L32.7709 26.4908C32.8032 26.5371 32.8345 26.582 32.8652 26.6243C33.0215 26.839 33.1744 27.0484 33.3252 27.2549L33.3353 27.2688L33.3362 27.2699L33.3362 27.27C33.805 27.912 34.2544 28.5273 34.7269 29.1916C34.8059 29.3012 34.8837 29.4204 34.9623 29.5409C35.1874 29.8856 35.42 30.2419 35.7101 30.4206C36.525 30.9167 37.5333 30.6064 38.5015 30.3085C39.026 30.1472 39.5388 29.9894 40.0026 29.9654C39.347 29.7888 39.0435 29.3887 38.6747 28.9024C38.6158 28.8248 38.5552 28.745 38.4914 28.6636C38.3354 28.4621 38.1757 28.2668 38.0195 28.076C37.8793 27.9047 37.742 27.7369 37.6128 27.5711C37.3639 27.2509 37.1371 26.9181 36.9167 26.5947C36.5889 26.1137 36.2752 25.6535 35.9241 25.2861ZM3.18893 44.451L3.18896 44.451L3.189 44.4509C3.39743 44.3983 3.60539 44.3458 3.80977 44.2858C10.5528 42.2673 17.3979 40.3527 24.2515 38.4358L24.2521 38.4357C28.6039 37.2185 32.9591 36.0003 37.2938 34.754C37.5284 34.6862 37.7599 34.6113 37.9909 34.5367C38.5037 34.3709 39.0134 34.206 39.547 34.1213C40.8296 33.9131 42.1307 33.7442 43.4438 33.5737C44.6565 33.4163 45.8795 33.2576 47.1077 33.0653C48.9747 32.7743 50.8684 32.5214 52.7412 32.2712L52.7413 32.2712C54.2382 32.0712 55.7217 31.8731 57.1675 31.6587C60.7904 31.1228 64.3617 30.636 67.9212 30.1507L67.9213 30.1507L67.9215 30.1507C71.0434 29.7251 74.1563 29.3008 77.287 28.8456C77.724 28.7819 77.4782 28.9139 77.1459 28.9867C75.7761 29.293 74.3908 29.579 73.0132 29.8634C71.4015 30.1961 69.8004 30.5266 68.2469 30.8849C65.0469 31.6269 61.8515 32.2914 58.7516 32.9242C51.9786 34.3064 45.2094 35.7584 38.4455 37.2093L38.4455 37.2093C32.513 38.4818 26.5845 39.7535 20.661 40.9765C14.302 42.2875 7.96568 43.6212 1.63395 44.9868H1.62939C2.11728 44.7215 2.65464 44.5859 3.18893 44.451Z" fill="#0D1853"/>
<path fill-rule="evenodd" clip-rule="evenodd" d="M32.8289 23.8521C32.9199 22.8097 32.7561 22.0268 31.9504 21.8811C31.9322 21.5807 31.9731 21.344 31.9868 21.0709C33.6801 20.3289 33.7712 23.3105 32.8289 23.8476V23.8521Z" fill="#0D1853"/>
</svg>
