<svg width="80" height="24" viewBox="0 0 80 24" fill="none" xmlns="http://www.w3.org/2000/svg">
<path d="M78.044 11.0125C78.044 10.5556 78.0503 10.0995 78.0424 9.64267C78.0211 8.35789 78.0975 7.07155 77.9991 5.78756C77.992 5.69618 77.9786 5.60402 77.9557 5.5158C77.8717 5.19073 78.0059 5.02793 78.3583 5.02741C78.7261 5.02741 79.0932 5.0345 79.4611 5.02426C79.6753 5.01874 79.7856 5.06049 79.7092 5.3102C79.4729 6.08689 79.6036 6.88486 79.5721 7.67494C79.5225 8.90694 79.584 10.1389 79.5469 11.3709C79.5107 12.5604 79.569 13.753 79.6029 14.944C79.6092 15.1607 79.699 15.3749 79.7549 15.6104C79.2169 15.7081 78.6781 15.6089 78.1424 15.6309C77.9423 15.6396 77.8864 15.5112 77.8392 15.3418C77.35 13.5915 76.8537 11.8428 76.3582 10.0948C76.2913 9.85772 76.2125 9.62455 76.0526 9.3969C76.0526 10.209 76.0274 11.022 76.0589 11.8325C76.0983 12.8471 75.9935 13.8641 76.1148 14.8763C76.1243 14.9543 76.1369 15.0323 76.1361 15.1102C76.1345 15.2875 76.3606 15.4702 76.2196 15.6065C76.1282 15.6947 75.899 15.6451 75.7312 15.6475C75.3153 15.6522 74.8994 15.6498 74.4835 15.6522C74.2865 15.6538 74.2085 15.5978 74.3299 15.3978C74.5189 15.0842 74.5583 14.729 74.5591 14.3737C74.5622 11.6183 74.5614 8.86204 74.5544 6.10659C74.5536 5.79622 74.5796 5.47326 74.3787 5.19519C74.2976 5.08255 74.3574 5.02898 74.4803 5.02898C75.0317 5.02898 75.5831 5.02898 76.1337 5.02898C76.3425 5.02898 76.3866 5.19125 76.4268 5.3425C76.7946 6.70683 77.1562 8.07195 77.5241 9.43629C77.6659 9.96248 77.8171 10.4863 77.9644 11.0109L78.0432 11.0133L78.044 11.0125Z" fill="#0D1853"/>
<path d="M37.5536 11.126C37.5536 10.8266 37.5575 10.5698 37.5536 10.3123C37.5307 8.9487 37.5985 7.58358 37.5213 6.22004C37.5024 5.88053 37.4922 5.53787 37.333 5.22593C37.2456 5.05421 37.3299 5.02506 37.4803 5.02585C37.9924 5.029 38.5036 5.02822 39.0156 5.02664C39.2433 5.02664 39.2677 5.12195 39.2007 5.32597C39.0369 5.82618 39.0589 6.34371 39.0715 6.86518C39.0936 7.80178 39.0676 8.73917 39.066 9.67656C39.0629 11.341 39.0621 13.0063 39.0629 14.6707C39.0629 14.9464 39.0991 15.2205 39.2236 15.4695C39.3173 15.6562 39.2023 15.6963 39.0778 15.6743C38.6257 15.5947 38.1712 15.6719 37.7174 15.6412C37.4795 15.6254 37.3842 15.5451 37.3204 15.319C36.7879 13.4182 36.2428 11.5214 35.6993 9.62378C35.6725 9.53083 35.6757 9.41976 35.5339 9.30948C35.5339 10.0539 35.5315 10.7486 35.5339 11.4434C35.5378 12.2981 35.5512 13.1536 35.5496 14.0082C35.5488 14.4935 35.5685 14.9732 35.7261 15.4364C35.7923 15.6294 35.7505 15.6688 35.537 15.6609C35.0077 15.642 34.4775 15.6609 33.9482 15.6735C33.7363 15.6782 33.6756 15.6207 33.797 15.4246C34.027 15.0535 34.0664 14.6305 34.0687 14.2123C34.0813 11.6411 34.0892 9.06923 34.079 6.4981C34.0774 6.07195 34.0742 5.62767 33.8907 5.22593C33.8025 5.03294 33.8962 5.02821 34.0325 5.02821C34.5445 5.02821 35.0557 5.03215 35.5677 5.02506C35.7639 5.0227 35.8505 5.1251 35.8962 5.29525C36.1845 6.35631 36.498 7.41107 36.7548 8.47922C36.9195 9.16375 37.1503 9.8278 37.333 10.5068C37.3842 10.6974 37.3196 10.9338 37.5528 11.126H37.5536Z" fill="#0D1853"/>
<path d="M25.7521 15.6419C25.0187 15.6419 24.3578 15.6427 23.6969 15.6419C23.5118 15.6419 23.4204 15.5986 23.552 15.3906C23.7402 15.0929 23.7662 14.7479 23.767 14.4044C23.7717 13.3024 23.7639 12.1996 23.7812 11.0976C23.7851 10.8329 23.7213 10.7029 23.4433 10.7273C23.4054 10.7305 23.3653 10.7147 23.3267 10.7124C22.7351 10.6698 22.687 10.695 22.6886 11.2913C22.6926 12.458 22.717 13.6246 22.7414 14.7904C22.7477 15.0826 22.8871 15.3426 23.0321 15.6293C22.2688 15.7175 21.537 15.6238 20.7461 15.6419C21.1982 14.8897 21.0951 14.109 21.099 13.3441C21.1084 11.1921 21.1203 9.04003 21.1163 6.88797C21.1155 6.27907 21.1526 5.65755 20.828 5.03132C21.5094 5.03132 22.1459 5.02895 22.7816 5.03447C22.8737 5.03525 22.9596 5.0644 22.9076 5.20619C22.5933 6.06638 22.7398 6.9636 22.7115 7.84584C22.6989 8.24758 22.7304 8.65168 22.7083 9.05263C22.6933 9.31967 22.7571 9.42365 23.0455 9.42286C23.7725 9.4205 23.7741 9.43389 23.7741 8.69973C23.7741 7.87263 23.7717 7.04631 23.7702 6.2192C23.7702 5.87654 23.7489 5.53388 23.5913 5.22352C23.4905 5.02501 23.6102 5.02974 23.7371 5.02895C24.3145 5.02738 24.8919 5.02738 25.4693 5.02895C25.6055 5.02895 25.7434 5.06834 25.6111 5.22746C25.3503 5.5394 25.4047 5.91041 25.4015 6.25937C25.3842 8.04671 25.3866 9.83327 25.385 11.6206C25.385 12.558 25.3984 13.4954 25.3653 14.4328C25.3511 14.8392 25.4693 15.2512 25.7505 15.6419H25.7521Z" fill="#0D1853"/>
<path d="M9.6965 5.02977C10.3676 5.02977 10.9939 5.0274 11.6193 5.03213C11.7178 5.03292 11.8643 5.04237 11.7871 5.20464C11.4216 5.97503 11.5602 6.79505 11.5547 7.59695C11.539 9.76319 11.5539 11.9302 11.5461 14.0964C11.5429 14.9551 10.7646 15.7097 9.90524 15.7963C9.19157 15.868 8.54012 15.7664 7.94539 15.3592C7.45228 15.022 7.31758 14.5187 7.29001 13.961C7.16791 11.4702 7.25456 8.97783 7.22541 6.48627C7.2199 6.00812 7.2971 5.51658 6.96704 5.02819C7.6563 5.02819 8.28096 5.02819 8.90484 5.02819C9.02299 5.02819 9.14194 5.06837 9.08129 5.20779C8.74335 5.98291 8.93713 6.80057 8.91193 7.59301C8.86151 9.18894 8.9647 10.7872 8.88908 12.3855C8.86624 12.8644 8.93319 13.345 8.91114 13.8278C8.89853 14.1075 8.97573 14.4241 9.3688 14.447C9.67917 14.4651 9.90052 14.2146 9.90209 13.8042C9.90997 12.2429 9.90445 10.6817 9.90918 9.12041C9.91154 8.2673 9.93124 7.41499 9.93124 6.56267C9.93124 6.05617 9.9399 5.54494 9.69571 5.0274L9.6965 5.02977Z" fill="#0D1853"/>
<path d="M62.6685 15.6348C61.902 15.6395 61.1695 15.6773 60.3691 15.6041C60.722 15.174 60.7535 14.7132 60.752 14.2587C60.7449 11.4386 60.722 8.61857 60.7126 5.79853C60.7118 5.53937 60.6346 5.31566 60.4676 5.0305C61.1561 5.0305 61.7886 5.0305 62.4219 5.0305C62.5716 5.0305 62.6 5.12582 62.559 5.24319C62.2234 6.18688 62.4432 7.16365 62.3826 8.12388C62.3621 8.45079 62.3692 8.77927 62.3621 9.10696C62.3573 9.30547 62.4117 9.41102 62.6488 9.42126C63.4145 9.45356 63.4113 9.4638 63.4168 8.69262C63.4231 7.8403 63.4279 6.9872 63.4491 6.13489C63.4586 5.75836 63.3838 5.41018 63.1577 5.02814C63.843 5.02814 64.4771 5.02892 65.1112 5.02814C65.2388 5.02814 65.3003 5.12897 65.253 5.2038C64.9064 5.74654 65.0671 6.34757 65.06 6.92024C65.0356 8.98486 65.0269 11.0503 65.0529 13.1141C65.0632 13.9026 64.923 14.7147 65.2798 15.4749C65.346 15.6151 65.2656 15.66 65.1317 15.6584C64.5464 15.6521 63.9619 15.6506 63.3767 15.6427C63.1837 15.6403 63.0726 15.5946 63.2128 15.367C63.3893 15.081 63.4231 14.7573 63.42 14.4209C63.4105 13.3189 63.4042 12.2169 63.4239 11.1149C63.4302 10.7769 63.3058 10.6848 62.9946 10.706C62.3763 10.7486 62.3487 10.7415 62.3731 11.3575C62.4196 12.5462 62.3203 13.7356 62.4141 14.9243C62.4338 15.174 62.6008 15.3481 62.6701 15.634L62.6685 15.6348Z" fill="#0D1853"/>
<path d="M18.624 8.82736C17.9851 8.91716 17.3865 8.87068 16.7894 8.86123C16.6279 8.85887 16.6192 8.78718 16.6665 8.66115C16.9225 7.9845 16.8122 7.29288 16.761 6.60047C16.7421 6.34367 16.6113 6.26017 16.3939 6.23497C16.1663 6.20818 15.9481 6.20503 15.8551 6.47837C15.7708 6.72808 15.7606 6.98409 15.7638 7.2464C15.7803 8.40199 15.8307 9.55994 15.7827 10.7132C15.7401 11.7427 15.8197 12.7715 15.7511 13.7995C15.7362 14.0263 15.7669 14.2524 15.9788 14.3871C16.2876 14.5832 16.6909 14.3871 16.7492 14.0145C16.8658 13.2701 16.8839 12.5241 16.6854 11.7908C16.6326 11.597 16.6759 11.5647 16.8484 11.5663C17.3471 11.571 17.8457 11.5663 18.3443 11.5702C18.4885 11.5718 18.5791 11.5867 18.531 11.801C18.3617 12.5627 18.39 13.3402 18.3853 14.1161C18.3806 14.907 17.8496 15.545 17.0682 15.7042C16.2309 15.8743 15.414 15.9003 14.7137 15.2481C14.2986 14.8613 14.1765 14.3808 14.1741 13.8648C14.16 11.4513 14.1473 9.03689 14.1718 6.62331C14.1875 5.08883 15.2147 4.83676 16.5783 4.87536C16.772 4.88087 16.9698 4.91396 17.1572 4.96516C18.0072 5.20069 18.3034 5.7513 18.3632 6.58156C18.39 6.95494 18.405 7.3299 18.3743 7.708C18.3435 8.08454 18.4735 8.44846 18.6232 8.82421L18.624 8.82736Z" fill="#0D1853"/>
<path d="M54.394 13.7884C54.4011 13.3811 54.4011 12.9715 54.3027 12.5753C54.253 12.3752 54.2877 12.3271 54.4878 12.3327C54.8809 12.3445 55.2755 12.35 55.6678 12.3311C55.9561 12.3177 55.9624 12.4453 55.8978 12.6643C55.7521 13.1613 55.7859 13.6663 55.871 14.1673C55.9033 14.3563 55.9805 14.5288 56.2279 14.4989C56.4571 14.4713 56.5004 14.3091 56.5374 14.1113C56.6595 13.4575 56.6241 12.8084 56.5122 12.1594C56.4043 11.5308 55.9293 11.1251 55.5803 10.6446C55.4504 10.4658 55.2928 10.3074 55.1502 10.1373C54.472 9.32908 54.2672 8.37594 54.3168 7.35269C54.3397 6.88399 54.3444 6.41215 54.4689 5.95133C54.5736 5.56298 54.7832 5.2731 55.1542 5.09902C56.0498 4.67837 57.3299 4.85718 57.7592 5.40386C57.9451 5.64018 58.0719 5.87886 58.0877 6.17898C58.1207 6.81861 58.1026 7.46297 58.2239 8.0963C58.2499 8.23257 58.2318 8.2885 58.0814 8.28771C57.6528 8.28771 57.2251 8.29953 56.7966 8.30189C56.6099 8.30268 56.5351 8.22154 56.6004 8.02776C56.7548 7.56616 56.6824 7.09195 56.6572 6.62326C56.6469 6.42239 56.5886 6.20734 56.3389 6.19946C56.1034 6.19158 55.9766 6.32235 55.934 6.57914C55.7426 7.7174 55.8592 8.77059 56.7336 9.62132C57.1203 9.99707 57.4134 10.4445 57.7316 10.8714C57.9774 11.2007 58.0625 11.6127 58.1129 12.0105C58.2176 12.8297 58.1885 13.6505 58.0585 14.469C57.9593 15.0952 57.6229 15.5308 57.0298 15.6962C56.487 15.8475 55.9112 15.8758 55.3637 15.6828C54.6469 15.4308 54.42 15.0952 54.3948 14.3382C54.3885 14.1547 54.394 13.9711 54.394 13.7876V13.7884Z" fill="#0D1853"/>
<path d="M31.4025 6.5839C30.9764 6.30032 30.5163 6.33656 30.0618 6.33419C29.883 6.33341 29.7869 6.36019 29.794 6.59887C29.8168 7.40865 29.8098 8.21921 29.7964 9.02978C29.7916 9.33384 29.8594 9.48902 30.2099 9.44412C30.5085 9.40631 30.8125 9.40316 31.0929 9.28815C31.319 9.1952 31.382 9.30312 31.3836 9.49296C31.3883 9.96086 31.3852 10.4296 31.3852 10.9345C30.9488 10.7958 30.5447 10.7116 30.1083 10.7226C29.8239 10.7297 29.8011 10.8344 29.7979 11.0282C29.7901 11.5489 29.7932 12.0696 29.7893 12.5903C29.7853 13.0834 29.7869 13.5773 29.7696 14.0704C29.7633 14.2571 29.8554 14.2973 30.0051 14.2949C30.3824 14.2878 30.766 14.3453 31.1284 14.1783C31.3978 14.0539 31.5097 14.1358 31.4852 14.4398C31.4679 14.6588 31.4852 14.8818 31.497 15.1023C31.5238 15.6262 31.501 15.6569 30.9803 15.6569C30.0406 15.6569 29.1008 15.6553 28.1603 15.6458C27.9791 15.6443 27.7601 15.6529 27.9523 15.3473C28.1311 15.0637 28.161 14.7258 28.1618 14.3981C28.1674 11.6182 28.1681 8.83836 28.1618 6.05849C28.1618 5.79854 28.1146 5.53702 27.9854 5.30228C27.8822 5.11559 27.8987 5.02185 28.1484 5.02421C29.1449 5.03209 30.1422 5.02815 31.1386 5.02658C31.2899 5.02658 31.4458 5.02736 31.4498 5.23217C31.4577 5.67093 31.5246 6.11284 31.4009 6.58233L31.4025 6.5839Z" fill="#0D1853"/>
<path d="M44.4782 15.649C43.7346 15.649 43.0485 15.6514 42.3624 15.6459C42.26 15.6451 42.1765 15.5876 42.2576 15.4671C42.553 15.0236 42.531 14.5155 42.5326 14.0216C42.5389 11.5946 42.5247 9.16764 42.5373 6.74146C42.5389 6.41456 42.4168 6.32476 42.13 6.34996C41.9623 6.36493 41.789 6.35627 41.6259 6.39408C41.1359 6.5083 41.1375 6.51538 41.1367 5.99313C41.1357 5.34982 41.4565 5.0279 42.0993 5.02738C43.0438 5.02502 43.9883 5.01478 44.9335 5.0132C45.4771 5.01241 45.4975 5.03683 45.5117 5.55909C45.5141 5.63708 45.5346 5.71821 45.5196 5.79226C45.4779 6.00809 45.6141 6.27355 45.4652 6.43189C45.3116 6.59494 45.1013 6.34445 44.9036 6.36808C44.891 6.36966 44.8776 6.36572 44.8642 6.36493C44.1198 6.30979 44.1064 6.34996 44.1206 7.08176C44.1435 8.27988 44.1521 9.47879 44.1143 10.6785C44.0796 11.7663 44.1269 12.8573 44.1371 13.9467C44.1427 14.5131 44.0647 15.0937 44.4782 15.649Z" fill="#0D1853"/>
<path d="M61.0583 22.321C61.3057 21.7247 61.5396 21.1709 61.7649 20.6132C61.824 20.4675 61.8421 20.3123 62.0619 20.3131C62.2856 20.3139 62.3904 20.4312 62.4613 20.6179C62.6409 21.0921 62.8221 21.5656 63.0072 22.0374C63.0395 22.1201 63.0922 22.1957 63.182 22.3596C63.4239 21.7318 63.6397 21.1693 63.8579 20.6085C63.9131 20.4651 63.943 20.3044 64.1628 20.3147C64.3621 20.3233 64.4794 20.3777 64.3928 20.5967C64.1155 21.2954 63.8327 21.9925 63.5515 22.6896C63.4877 22.8472 63.4058 23 63.3616 23.1631C63.3286 23.286 63.2963 23.4096 63.1608 23.4128C63.0332 23.4159 63.0237 23.2718 62.9867 23.1804C62.7583 22.6227 62.5353 22.0626 62.3085 21.5041C62.2612 21.3875 62.2053 21.2733 62.121 21.0858C61.8098 21.831 61.5278 22.5085 61.245 23.1843C61.2072 23.2757 61.2143 23.4112 61.0796 23.4222C60.9103 23.4364 60.9189 23.2741 60.8788 23.1757C60.5424 22.3525 60.2076 21.5285 59.8823 20.7006C59.8374 20.5864 59.6649 20.4249 59.8602 20.3375C60.0619 20.2469 60.2675 20.3493 60.325 20.573C60.4234 20.9551 60.633 21.2891 60.759 21.6577C60.8338 21.8791 60.904 22.1052 61.0599 22.321H61.0583Z" fill="#0D1853"/>
<path d="M23.3598 21.2718C23.0336 21.4813 22.8714 21.746 22.713 21.987C22.4933 22.321 22.3538 22.2178 22.1687 21.9823C21.9702 21.7302 21.7607 21.4876 21.47 21.2647C21.47 21.8712 21.4732 22.477 21.4677 23.0835C21.4661 23.2348 21.5496 23.4341 21.2573 23.4443C20.9611 23.4545 20.9903 23.26 20.9887 23.0812C20.9808 22.2682 20.9761 21.4545 20.9769 20.6416C20.9769 20.5337 20.9257 20.3856 21.0762 20.3336C21.2432 20.2761 21.3912 20.3501 21.4999 20.4738C21.7497 20.7582 22.0065 21.0394 22.2262 21.3466C22.3806 21.5616 22.4618 21.5104 22.5933 21.3387C22.8147 21.0488 23.0683 20.7826 23.2794 20.4856C23.4039 20.3107 23.5496 20.2934 23.7221 20.332C23.9364 20.3809 23.8978 20.5628 23.8986 20.7156C23.9009 21.4837 23.9041 22.2517 23.8986 23.0189C23.897 23.208 23.9246 23.4349 23.6252 23.4404C23.3093 23.4459 23.3629 23.2143 23.3621 23.0244C23.359 22.462 23.3613 21.8988 23.3613 21.2702L23.3598 21.2718Z" fill="#0D1853"/>
<path d="M5.41468 21.2734C5.41468 21.8973 5.40917 22.5211 5.41862 23.1442C5.42099 23.3065 5.42492 23.4294 5.21381 23.4388C5.00349 23.4483 4.93732 23.3467 4.93811 23.1545C4.94126 22.2888 4.93811 21.4231 4.94048 20.5574C4.94048 20.4715 4.91212 20.3604 5.03815 20.3313C5.18703 20.2974 5.30204 20.3258 5.41547 20.4589C5.93852 21.0741 6.47732 21.6767 7.01061 22.2832C7.09568 22.3794 7.18233 22.4747 7.26425 22.5653C7.4218 22.4967 7.36272 22.3738 7.36351 22.2832C7.3706 21.7192 7.36666 21.1552 7.36744 20.5912C7.36744 20.4581 7.35563 20.321 7.55571 20.3171C7.72586 20.3139 7.83771 20.3628 7.83771 20.5558C7.83614 21.4577 7.83693 22.3589 7.83063 23.2608C7.83063 23.3215 7.87316 23.4317 7.7424 23.438C7.58013 23.4467 7.43992 23.4215 7.32097 23.2829C6.86409 22.7504 6.39697 22.2265 5.933 21.6995C5.79673 21.5452 5.66045 21.3915 5.52418 21.2372C5.48794 21.249 5.45171 21.2608 5.41547 21.2734H5.41468Z" fill="#0D1853"/>
<path d="M54.7057 21.8665C54.7057 21.4474 54.7057 21.0276 54.7057 20.6085C54.7057 20.4604 54.6923 20.3194 54.9145 20.3131C55.1161 20.3084 55.2075 20.3919 55.2114 20.5849C55.2154 20.7905 55.2343 20.9969 55.2154 21.2001C55.187 21.5112 55.2122 21.7531 55.6226 21.6869C55.6612 21.6806 55.7014 21.6877 55.7408 21.6861C56.0921 21.6672 56.5309 21.8263 56.7727 21.6247C57.0287 21.4104 56.8302 20.9591 56.8625 20.6132C56.8767 20.4644 56.8578 20.3281 57.0744 20.3147C57.302 20.3005 57.3832 20.4053 57.384 20.6109C57.3863 21.3269 57.3871 22.0437 57.3895 22.7598C57.3895 22.8772 57.3966 22.9937 57.3942 23.1111C57.3911 23.26 57.4431 23.4372 57.1839 23.4341C56.9515 23.4309 56.8499 23.3403 56.8625 23.1024C56.8751 22.8669 56.8554 22.6306 56.868 22.3951C56.879 22.1855 56.7727 22.1115 56.5876 22.1099C56.2 22.1068 55.8117 22.117 55.4241 22.1005C55.2233 22.0918 55.2209 22.1887 55.228 22.3391C55.2414 22.6267 55.2351 22.9142 55.2422 23.2017C55.2461 23.3529 55.2296 23.4545 55.0279 23.4246C54.8743 23.4018 54.7041 23.4498 54.7065 23.2033C54.7112 22.7574 54.7081 22.3124 54.7081 21.8665H54.7065H54.7057Z" fill="#0D1853"/>
<path d="M11.8865 22.5195C11.8865 22.5258 11.8943 22.5778 11.8967 22.6298C11.9251 23.2355 11.803 23.3497 11.1948 23.4395C10.5505 23.5349 9.98174 23.4506 9.49651 22.9701C9.02466 22.5022 8.92777 21.9586 9.12391 21.3529C9.32084 20.7455 9.78009 20.4336 10.3866 20.3186C10.827 20.2351 11.2397 20.3351 11.6486 20.5037C11.8691 20.5943 11.8809 20.7605 11.814 20.9141C11.7368 21.0913 11.6194 20.9165 11.5288 20.885C11.0042 20.7038 10.4953 20.6455 10.0054 20.9913C9.54298 21.3174 9.40592 22.0658 9.72731 22.5667C10.0054 23 10.8435 23.204 11.2775 22.9504C11.4792 22.8322 11.3831 22.6479 11.3918 22.4919C11.4012 22.3131 11.2586 22.3336 11.1405 22.3399C10.9443 22.3501 10.7947 22.2981 10.8081 22.0642C10.8222 21.8058 11.0278 21.9074 11.1657 21.8854C11.1909 21.8814 11.2177 21.8854 11.2445 21.8854C11.6436 21.8864 11.8576 22.0978 11.8865 22.5195Z" fill="#0D1853"/>
<path d="M65.4549 21.857C65.4549 21.4505 65.4581 21.0441 65.4534 20.6384C65.451 20.4501 65.4605 20.2926 65.718 20.3178C65.9559 20.3406 65.9804 20.4966 65.963 20.6817C65.9496 20.8204 65.9315 20.9519 65.9496 21.0984C66.0237 21.6853 66.0119 21.6971 66.5838 21.6829C66.9193 21.6742 67.3447 21.8326 67.5676 21.6018C67.7708 21.3914 67.6062 20.9755 67.633 20.6518C67.6448 20.5108 67.5645 20.3178 67.8315 20.3162C68.0686 20.3146 68.1104 20.4517 68.1111 20.6471C68.1135 21.4702 68.1214 22.2934 68.1269 23.1166C68.1277 23.2859 68.1056 23.4356 67.8827 23.4403C67.6503 23.445 67.644 23.278 67.6354 23.1189C67.6251 22.9362 67.6054 22.7487 67.6306 22.5699C67.6834 22.2052 67.5416 22.0768 67.1816 22.1051C66.8185 22.1335 66.4522 22.1303 66.0875 22.1248C65.9583 22.1232 65.9087 22.1051 65.9378 22.2792C65.9796 22.5329 65.952 22.7967 65.9646 23.0559C65.9741 23.256 65.9622 23.4403 65.7007 23.4364C65.4234 23.4324 65.4573 23.2174 65.4573 23.0354C65.4557 22.6424 65.4573 22.2493 65.4573 21.8562L65.4549 21.857Z" fill="#0D1853"/>
<path d="M76.5984 23.3804C76.192 23.5246 75.9596 23.371 75.7241 23.1189C75.3609 22.7314 74.9584 22.3808 74.5126 21.9578C74.4558 22.4336 74.5764 22.8109 74.5244 23.1985C74.4929 23.4332 74.4038 23.3962 74.2723 23.4183C74.0762 23.4513 74.0108 23.3529 74.0108 23.1772C74.0108 22.8495 74.0108 22.5218 74.0108 22.1933C74.0108 21.6553 74.0108 21.1181 74.0108 20.5801C74.0108 20.4478 73.995 20.3083 74.2006 20.3162C74.3692 20.3233 74.4677 20.3509 74.5173 20.5612C74.5953 20.8928 74.4267 21.2331 74.5937 21.5939C74.9253 21.2292 75.2388 20.8826 75.5547 20.5376C75.6335 20.4517 75.6973 20.3335 75.8257 20.3257C75.9651 20.317 76.1518 20.25 76.2353 20.3682C76.3448 20.5234 76.1565 20.6084 76.0636 20.7093C75.769 21.0307 75.4878 21.3662 75.179 21.6734C75.049 21.8026 75.0632 21.8657 75.1821 21.9775C75.5713 22.3446 75.9533 22.7188 76.3361 23.0929C76.4188 23.1733 76.4921 23.2631 76.5992 23.3812L76.5984 23.3804Z" fill="#0D1853"/>
<path d="M53.4764 21.0079C52.9337 20.844 52.4271 20.6227 51.8923 20.8968C51.3448 21.178 51.103 21.6837 51.2889 22.2919C51.4433 22.796 52.0073 23.1135 52.5737 23.0189C52.7942 22.9827 53.0061 22.9252 53.2054 22.8189C53.3141 22.7613 53.4662 22.6605 53.5126 22.8685C53.5426 23.0032 53.6056 23.1867 53.4055 23.2749C52.1633 23.8232 50.9376 23.2474 50.7469 22.1335C50.5603 21.0465 51.5102 20.1107 52.6477 20.3068C52.8139 20.3352 52.9817 20.3706 53.14 20.4281C53.5221 20.5668 53.5205 20.5731 53.4772 21.0063L53.4764 21.0079Z" fill="#0D1853"/>
<path d="M41.1935 23.4759C39.778 23.4917 38.9556 22.3298 39.4645 21.1868C39.6961 20.6661 40.1569 20.3999 40.6965 20.3148C41.1124 20.2494 41.5244 20.3329 41.9182 20.5086C42.1026 20.5905 42.1561 20.711 42.1041 20.878C42.0325 21.108 41.8804 20.9324 41.7859 20.9056C41.407 20.7984 41.0384 20.6787 40.6406 20.8292C40.0159 21.0663 39.7118 21.6318 39.8938 22.2431C40.071 22.8402 40.635 23.1522 41.2841 23.0025C41.4488 22.9647 41.6039 22.8883 41.767 22.841C41.8757 22.8095 42.0033 22.6441 42.0971 22.841C42.1766 23.0064 42.1656 23.1852 41.9805 23.2845C41.6977 23.4365 41.385 23.4704 41.1935 23.4767V23.4759Z" fill="#0D1853"/>
<path d="M16.0826 21.8468C16.0826 21.4403 16.0881 21.0347 16.0803 20.6282C16.0763 20.4258 16.1244 20.306 16.3623 20.3139C16.768 20.3257 17.1744 20.3234 17.5809 20.3139C17.7794 20.31 17.87 20.3974 17.8857 20.5865C17.9094 20.859 17.6959 20.744 17.5856 20.7542C17.3398 20.7771 17.0909 20.781 16.8444 20.7676C16.6356 20.7558 16.5561 20.8314 16.5773 21.0355C16.5868 21.126 16.5923 21.2214 16.5765 21.3096C16.5159 21.6444 16.6837 21.716 16.9751 21.6901C17.1831 21.6719 17.3942 21.6885 17.6037 21.6885C17.7581 21.6885 17.8503 21.7413 17.8432 21.9193C17.8361 22.0973 17.7148 22.0871 17.5966 22.0902C17.4919 22.0926 17.3871 22.0918 17.2823 22.0902C16.6191 22.0816 16.6403 22.0839 16.5631 22.7322C16.5403 22.9284 16.5915 22.9504 16.7372 22.9756C17.024 23.0268 17.3123 23.0213 17.5998 23C17.8062 22.9851 17.9283 23.0465 17.9267 23.2765C17.9251 23.5317 17.7321 23.4404 17.614 23.4427C17.2217 23.4514 16.8294 23.4262 16.4379 23.4419C16.1512 23.453 16.0732 23.3238 16.0803 23.0646C16.0913 22.659 16.0834 22.2525 16.0834 21.846L16.0826 21.8468Z" fill="#0D1853"/>
<path d="M71.1442 22.666C71.3568 22.881 71.5924 23.0118 71.8736 23.033C72.1005 23.0504 72.2927 22.9913 72.3832 22.7581C72.4691 22.5376 72.3502 22.3698 72.195 22.25C71.9681 22.0752 71.716 21.9342 71.4774 21.7743C71.1749 21.5718 71.0449 21.2843 71.115 20.929C71.1796 20.6029 71.4088 20.4005 71.7184 20.328C72.0745 20.2445 72.4258 20.2886 72.718 20.5391C72.8189 20.6258 72.8126 20.74 72.7527 20.8597C72.6652 21.033 72.5825 20.8857 72.5022 20.8605C72.4022 20.829 72.3092 20.7754 72.2084 20.7502C71.9547 20.6848 71.6995 20.7542 71.5924 20.9708C71.4813 21.1953 71.6507 21.3883 71.8586 21.5127C72.1036 21.66 72.3549 21.7963 72.5684 21.9925C72.8567 22.2563 72.978 22.6778 72.8409 22.9818C72.7078 23.2772 72.2982 23.4915 71.935 23.4545C71.8184 23.4426 71.6987 23.4403 71.5869 23.4111C71.1725 23.3056 71.0859 23.1654 71.1434 22.666H71.1442Z" fill="#0D1853"/>
<path d="M36.5509 22.6614C36.7841 22.8426 36.9763 22.9828 37.2118 23.0261C37.4623 23.0726 37.6931 23.0348 37.801 22.7654C37.9019 22.5149 37.768 22.34 37.5718 22.2069C37.3457 22.0533 37.1047 21.9194 36.8818 21.7603C36.5746 21.5413 36.4422 21.2364 36.5588 20.8701C36.673 20.5125 36.9369 20.3195 37.3197 20.2998C37.9452 20.2683 38.1539 20.4243 38.1768 20.9757C37.8751 20.8804 37.6057 20.6204 37.2685 20.8016C37.1772 20.8504 37.011 20.7732 36.9999 20.9599C36.9897 21.1324 36.9842 21.3065 37.152 21.416C37.3702 21.5586 37.5978 21.687 37.8129 21.8343C38.0893 22.0234 38.332 22.2447 38.3186 22.6197C38.3052 23.0088 38.1248 23.2743 37.753 23.4302C37.3804 23.587 36.7337 23.3451 36.5935 23.1648C36.4855 23.0269 36.5399 22.8662 36.5517 22.659L36.5509 22.6614Z" fill="#0D1853"/>
<path d="M48.7203 22.1391C48.7203 22.4384 48.7266 22.7378 48.7179 23.0363C48.7132 23.2049 48.7849 23.4278 48.4855 23.4349C48.2059 23.442 48.1791 23.275 48.183 23.0505C48.1925 22.4227 48.1657 21.7933 48.1941 21.1662C48.2098 20.822 48.0712 20.7283 47.7655 20.7535C47.6238 20.7653 47.4772 20.7669 47.3362 20.7472C47.196 20.7267 47.1574 20.6164 47.1669 20.4817C47.1763 20.3384 47.2701 20.3163 47.3835 20.3163C48.1035 20.3163 48.8235 20.3139 49.5434 20.3163C49.6955 20.3163 49.7766 20.3864 49.786 20.5566C49.7971 20.7645 49.6569 20.7346 49.5316 20.7637C49.2717 20.8244 48.9164 20.5983 48.7652 20.8614C48.6439 21.0725 48.7132 21.3963 48.7069 21.6696C48.7037 21.8256 48.7195 21.9823 48.7274 22.1383H48.7203V22.1391Z" fill="#0D1853"/>
<path d="M0.248565 22.6605C0.448646 22.8361 0.649515 22.9842 0.898435 23.0268C1.13239 23.067 1.35768 23.0402 1.46717 22.7952C1.58297 22.536 1.45378 22.3422 1.24267 22.1989C1.02683 22.0524 0.798394 21.924 0.584134 21.7751C0.250928 21.5427 0.126468 21.1993 0.238324 20.8574C0.350181 20.5147 0.695203 20.2816 1.08749 20.2973C1.23007 20.3028 1.37579 20.3249 1.51286 20.3643C1.80431 20.4478 1.98707 20.6061 1.82637 20.9448C1.6318 20.8724 1.43093 20.7794 1.22061 20.7243C0.982721 20.662 0.792093 20.7889 0.710957 20.9952C0.634548 21.1898 0.731439 21.3678 0.915765 21.486C1.16705 21.6483 1.44354 21.7711 1.66804 21.9775C1.93665 22.2249 2.06505 22.6928 1.93429 22.9913C1.78935 23.323 1.34271 23.5419 0.947274 23.475C0.332063 23.3718 0.180821 23.2056 0.247777 22.6597L0.248565 22.6605Z" fill="#0D1853"/>
<path d="M20.6243 1.22662C20.6243 0.912314 20.6236 0.598014 20.6243 0.283713C20.6243 0.17737 20.6188 0.0694524 20.7756 0.0639383C20.9197 0.0584243 21.0001 0.119867 21.0158 0.260869C21.03 0.390055 21.071 0.527119 21.0442 0.648428C20.9481 1.08561 21.1923 1.12264 21.52 1.08246C21.5586 1.07774 21.5988 1.08246 21.6381 1.08246C22.2793 1.08246 22.273 1.08246 22.2872 0.445196C22.2904 0.303406 22.1777 0.0584246 22.4747 0.0710281C22.7449 0.082844 22.6779 0.282137 22.6921 0.472766C22.7378 1.07222 22.7016 1.66774 22.6645 2.26483C22.659 2.35542 22.7228 2.49012 22.5361 2.47988C22.3881 2.472 22.2912 2.43577 22.2864 2.25538C22.2801 1.9907 22.4243 1.63859 22.1825 1.48893C21.9926 1.37156 21.6728 1.47553 21.4129 1.45505C21.1293 1.433 20.967 1.48105 21.056 1.82371C21.0907 1.95605 21.0615 2.10729 21.0489 2.24908C21.0379 2.36724 21.0214 2.48854 20.8441 2.46334C20.7118 2.44443 20.622 2.40505 20.6236 2.24908C20.6275 1.90878 20.6251 1.5677 20.6243 1.2274V1.22662Z" fill="#0D1853"/>
<path d="M77.3459 20.358C77.7304 20.273 77.9533 20.3431 78.1124 20.6393C78.2274 20.8535 78.4117 21.03 78.5598 21.2277C78.6315 21.3238 78.6851 21.3427 78.7678 21.2364C78.9025 21.0615 79.0498 20.8961 79.1908 20.7259C79.2656 20.6353 79.3397 20.5447 79.4098 20.4502C79.5563 20.2525 79.791 20.2556 79.9328 20.358C80.0951 20.4754 79.9249 20.6385 79.8281 20.7503C79.6508 20.9567 79.4854 21.1733 79.3034 21.3766C79.0734 21.6326 78.893 21.9366 78.9545 22.3305C78.9962 22.5983 78.9639 22.878 78.9679 23.1521C78.9702 23.3033 78.9742 23.4467 78.7568 23.4388C78.5709 23.4325 78.4133 23.4065 78.4259 23.1623C78.4338 23.0056 78.407 22.8457 78.4299 22.6921C78.5315 22.0099 78.3164 21.4498 77.828 20.9709C77.6563 20.8031 77.5279 20.5912 77.3467 20.3565L77.3459 20.358Z" fill="#0D1853"/>
<path d="M32.1128 22.095C32.1128 21.7681 32.0955 21.4396 32.1175 21.1143C32.1372 20.833 32.0277 20.7354 31.7599 20.7598C31.6039 20.774 31.4464 20.7724 31.2896 20.7669C31.1321 20.7614 31.0573 20.6747 31.0596 20.5132C31.0612 20.3525 31.1549 20.3179 31.2896 20.3179C31.9962 20.3187 32.7028 20.3194 33.4094 20.3194C33.5843 20.3194 33.6788 20.3966 33.6709 20.581C33.663 20.7661 33.5339 20.7763 33.396 20.7787C33.1368 20.7842 32.6871 20.7196 32.654 20.8086C32.5476 21.0985 32.5366 21.4546 32.5933 21.7657C32.6831 22.2509 32.5256 22.7251 32.5988 23.2033C32.6162 23.3175 32.6225 23.4538 32.4334 23.4333C32.2798 23.4168 32.1081 23.4333 32.1112 23.1938C32.1175 22.8275 32.1128 22.4613 32.112 22.095H32.1128Z" fill="#0D1853"/>
<path d="M38.5106 1.15423C38.5106 1.11484 38.5099 1.07546 38.5106 1.03686C38.5398 -0.0234154 38.6249 -0.0911594 39.6757 0.0608709C39.838 0.0845025 39.9136 0.153822 39.9081 0.310578C39.9018 0.481514 39.7663 0.426374 39.6741 0.429525C39.5307 0.435039 39.385 0.439764 39.2432 0.421647C38.9211 0.381473 38.925 0.640634 38.8958 0.823385C38.858 1.06364 39.0542 1.08333 39.2346 1.0857C39.3913 1.08806 39.5489 1.08018 39.7048 1.09357C39.8317 1.10381 39.8726 1.21725 39.8781 1.31807C39.8844 1.44096 39.7812 1.45199 39.6836 1.45041C39.5922 1.44962 39.5 1.45908 39.4094 1.45041C38.9352 1.40236 38.8344 1.52052 38.9305 1.9837C38.9604 2.12706 39.0495 2.09713 39.133 2.09949C39.3157 2.10422 39.4992 2.10658 39.682 2.10107C39.8309 2.09634 39.9538 2.13809 39.9632 2.30036C39.9742 2.49178 39.8254 2.48627 39.6899 2.48154C39.5465 2.47681 39.4031 2.47287 39.2598 2.46657C38.7735 2.44504 38.523 2.19061 38.5083 1.70327C38.5028 1.52052 38.5075 1.33698 38.5075 1.15423H38.5114H38.5106Z" fill="#0D1853"/>
<path d="M28.8817 21.8366C28.8817 21.4301 28.8849 21.0236 28.8802 20.6179C28.8786 20.4486 28.8754 20.2989 29.1165 20.3163C29.3244 20.3312 29.3772 20.451 29.3756 20.6321C29.3717 21.2844 29.3922 21.9374 29.3623 22.588C29.3465 22.9409 29.4914 23.0166 29.7979 22.9921C30.0326 22.9732 30.2697 22.9874 30.5052 22.9921C30.6848 22.9953 30.7463 23.0985 30.7557 23.2718C30.7683 23.5097 30.5943 23.4372 30.4863 23.4396C30.0547 23.449 29.6214 23.4341 29.1897 23.4482C28.9211 23.4569 28.888 23.2915 28.8857 23.0961C28.881 22.6771 28.8841 22.2572 28.8841 21.8381H28.8802L28.8817 21.8366Z" fill="#0D1853"/>
<path d="M13.1954 21.7981C13.1954 21.405 13.1954 21.0119 13.1954 20.618C13.1954 20.4747 13.1678 20.3179 13.3946 20.3163C13.6207 20.3156 13.6853 20.4345 13.6822 20.6409C13.6735 21.2955 13.6932 21.9501 13.6617 22.6031C13.6475 22.9056 13.7365 23.0088 14.0288 22.9899C14.2769 22.9741 14.5266 22.9867 14.7755 22.9867C14.9567 22.9867 15.0355 23.0844 15.0323 23.2585C15.0292 23.4538 14.8905 23.4436 14.7558 23.4412C14.3376 23.4349 13.9185 23.4145 13.501 23.4278C13.2426 23.4365 13.1851 23.3042 13.1843 23.0939C13.1843 22.6614 13.1843 22.2289 13.1843 21.7965H13.1954V21.7981Z" fill="#0D1853"/>
<path d="M57.7681 1.22428C57.7681 1.14551 57.7626 1.06674 57.7689 0.988751C57.7941 0.693355 57.6271 0.270349 57.8421 0.129347C58.1415 -0.0675838 58.5771 0.0742064 58.9536 0.0718433C59.0521 0.0718433 59.1655 0.115955 59.1466 0.261684C59.1309 0.381417 59.0749 0.44286 58.9394 0.430256C58.8095 0.417653 58.674 0.450737 58.5479 0.428681C58.2069 0.368026 58.1588 0.53975 58.1683 0.825693C58.1754 1.04153 58.2596 1.09588 58.4526 1.08485C58.622 1.07461 58.7945 1.0754 58.9631 1.09273C59.0812 1.10455 59.1419 1.19435 59.1356 1.31644C59.1293 1.4409 59.0379 1.45745 58.941 1.45745C58.8363 1.45745 58.7315 1.45745 58.6267 1.4472C58.1478 1.40073 58.1312 1.42909 58.162 1.90093C58.1746 2.09235 58.2581 2.11047 58.4062 2.10495C58.5897 2.09865 58.7732 2.10338 58.9568 2.10416C59.1206 2.10416 59.1947 2.19318 59.1923 2.34993C59.1899 2.51929 59.056 2.47754 58.9623 2.47833C58.7134 2.4807 58.4605 2.4421 58.2171 2.47518C57.7925 2.5319 57.735 2.31449 57.7626 1.97261C57.7823 1.72527 57.7665 1.47477 57.7665 1.22585H57.7681V1.22428Z" fill="#0D1853"/>
<path d="M23.7447 1.23847C23.7447 0.937557 23.7518 0.63586 23.7424 0.335738C23.7361 0.139595 23.7983 0.0482196 24.0102 0.0600354C24.2709 0.0742144 24.5332 0.0639739 24.7956 0.0623985C24.9492 0.0616108 25.0854 0.072639 25.0949 0.27981C25.1051 0.512975 24.9295 0.427113 24.8208 0.44208C24.7184 0.456259 24.6097 0.460198 24.5072 0.442868C24.2473 0.400331 24.1394 0.468075 24.1331 0.762683C24.1268 1.06044 24.2434 1.09431 24.4939 1.09116C24.7042 1.0888 25.076 0.965127 25.0673 1.29361C25.0587 1.61185 24.6932 1.42437 24.4931 1.44721C24.2764 1.47163 24.1284 1.45745 24.1299 1.75521C24.1307 2.03879 24.2308 2.13095 24.4946 2.11126C24.6506 2.09945 24.8089 2.1089 24.9657 2.10969C25.0965 2.10969 25.154 2.19791 25.1634 2.30819C25.176 2.45392 25.072 2.47125 24.9547 2.46889C24.6419 2.46337 24.3284 2.44762 24.0165 2.46416C23.7928 2.47598 23.7455 2.36333 23.7455 2.18216C23.7455 1.86786 23.7455 1.55355 23.7455 1.24004L23.7447 1.23847Z" fill="#0D1853"/>
<path d="M28.1571 1.46616C28.1571 1.70091 28.165 1.93643 28.154 2.17039C28.1485 2.29248 28.2328 2.48232 27.9744 2.46736C27.7593 2.45475 27.7255 2.32714 27.7278 2.14912C27.7326 1.71745 27.7105 1.2842 27.7341 0.854105C27.7515 0.542955 27.679 0.378321 27.3324 0.434249C27.2457 0.448428 27.1489 0.432674 27.0638 0.406679C26.9724 0.378321 26.9149 0.309001 26.9244 0.197933C26.9354 0.067171 27.0275 0.0648076 27.1213 0.0648076C27.6577 0.0640199 28.1949 0.0648079 28.7314 0.0632324C28.8677 0.0632324 28.9819 0.116797 28.9866 0.25071C28.9921 0.429523 28.8425 0.438187 28.7046 0.435824C28.5998 0.434249 28.4951 0.440551 28.3911 0.431098C28.2272 0.416131 28.15 0.469697 28.1571 0.647722C28.1674 0.920273 28.1595 1.19361 28.1595 1.46616H28.1579H28.1571Z" fill="#0D1853"/>
<path d="M18.8089 0.0631352C19.0452 0.0631352 19.2807 0.0654981 19.5171 0.0623473C19.6825 0.0599841 19.8132 0.102521 19.7975 0.297876C19.7817 0.485353 19.6336 0.414459 19.5257 0.416034C18.9901 0.422336 18.9956 0.422336 18.9987 0.942232C19.0011 1.35657 18.998 1.7717 18.9767 2.18526C18.9712 2.28845 19.0885 2.50034 18.8042 2.46726C18.5797 2.44127 18.5773 2.30499 18.5797 2.13563C18.5852 1.68978 18.56 1.24314 18.5875 0.798867C18.6065 0.492443 18.4899 0.398704 18.2094 0.430213C18.1315 0.438878 18.0519 0.437303 17.9739 0.431789C17.8518 0.422336 17.7888 0.353017 17.7809 0.228557C17.7715 0.0765263 17.8668 0.0631347 17.9826 0.0639224C18.2583 0.0654979 18.5332 0.0639224 18.8089 0.0639224V0.0631352Z" fill="#0D1853"/>
<path d="M46.8953 1.91273C47.0757 2.00647 47.2064 2.12069 47.3797 2.14668C47.568 2.17425 47.7129 2.12069 47.8059 1.94581C47.9004 1.76779 47.8248 1.64175 47.6822 1.5425C47.5325 1.43852 47.375 1.34557 47.2222 1.2471C46.8401 1.00055 46.7259 0.613774 46.9473 0.316803C47.1592 0.0332236 47.7342 -0.0329454 48.0209 0.18289C48.1667 0.292384 48.1572 0.415268 48.0934 0.583053C47.9839 0.530276 47.8839 0.474347 47.7791 0.432598C47.5656 0.346736 47.3522 0.426297 47.2568 0.586992C47.1474 0.772106 47.3144 0.90917 47.4821 1.01394C47.7665 1.19117 48.0769 1.33769 48.2131 1.68823C48.3155 1.95132 48.2352 2.14432 48.0501 2.32234C47.7649 2.59568 47.4388 2.498 47.1261 2.40899C46.911 2.34755 46.8118 2.18764 46.8937 1.91351L46.8953 1.91273Z" fill="#0D1853"/>
<path d="M69.4239 21.8594C69.4239 21.4537 69.4216 21.0481 69.4247 20.6432C69.4263 20.4935 69.3806 20.3155 69.6366 20.3155C69.8737 20.3155 69.9643 20.4313 69.9627 20.6542C69.9596 21.1331 69.9643 21.6121 69.9604 22.091C69.9572 22.4431 69.936 22.796 69.9415 23.1474C69.9446 23.3561 69.8399 23.4301 69.6595 23.438C69.4625 23.4467 69.4232 23.3159 69.4239 23.1544C69.4247 22.7228 69.4239 22.2911 69.4239 21.8594H69.4224H69.4239Z" fill="#0D1853"/>
<path d="M3.11422 21.8223C3.11422 21.4159 3.11973 21.0102 3.11186 20.6037C3.10792 20.4178 3.14258 20.3028 3.36629 20.3131C3.56952 20.3225 3.60891 20.3942 3.61364 20.6037C3.63254 21.4631 3.65223 22.3218 3.64278 23.182C3.64042 23.3954 3.5514 23.4222 3.39465 23.438C3.21505 23.4561 3.11737 23.3805 3.11658 23.1985C3.11422 22.74 3.11658 22.2816 3.11658 21.8223H3.11501H3.11422Z" fill="#0D1853"/>
<path d="M49.8982 0.0631178C50.1605 0.0631178 50.4236 0.0639055 50.6859 0.0631178C50.8237 0.0623301 50.9222 0.123772 50.9301 0.261623C50.9403 0.437285 50.7946 0.419956 50.6796 0.431771C50.1132 0.490063 50.11 0.490063 50.1132 1.06352C50.1156 1.44005 50.1329 1.81659 50.1329 2.19312C50.1329 2.30497 50.2046 2.47748 49.9714 2.46724C49.7847 2.45858 49.7264 2.36169 49.7288 2.1876C49.7343 1.71497 49.717 1.24234 49.7351 0.770491C49.7461 0.490063 49.6469 0.389234 49.3727 0.430984C49.2719 0.44595 49.1601 0.439649 49.0632 0.411291C48.9773 0.386083 48.9056 0.318339 48.9167 0.204907C48.9285 0.0796596 49.0143 0.0654809 49.112 0.0654809C49.3743 0.0654809 49.6374 0.0654809 49.8997 0.0654809V0.0639051L49.8982 0.0631178Z" fill="#0D1853"/>
<path d="M36.2332 1.24079C36.2332 0.979262 36.2206 0.716951 36.238 0.456215C36.2474 0.312062 36.1355 0.0686567 36.4215 0.0718076C36.6956 0.0749585 36.6523 0.310487 36.6554 0.483786C36.6633 0.925697 36.6759 1.3684 36.6523 1.80952C36.6381 2.06553 36.7319 2.12776 36.9619 2.10492C37.1304 2.08837 37.3014 2.10492 37.4715 2.10255C37.6196 2.10177 37.6889 2.19078 37.6968 2.31996C37.7063 2.46806 37.5897 2.47515 37.4802 2.47593C37.1667 2.4783 36.8532 2.47672 36.5396 2.48381C36.3002 2.48854 36.2214 2.37117 36.2309 2.14273C36.2435 1.84261 36.234 1.5417 36.234 1.24079H36.2317H36.2332Z" fill="#0D1853"/>
<path d="M53.2159 1.25652C53.2159 0.928828 53.2144 0.600348 53.2175 0.272656C53.2183 0.188369 53.1899 0.0780886 53.3317 0.0678482C53.4554 0.0591833 53.557 0.0694237 53.6106 0.214364C53.6815 0.405781 53.6712 0.605074 53.6421 0.788613C53.5822 1.16593 53.6799 1.54089 53.6232 1.91506C53.5972 2.08914 53.7303 2.09781 53.8532 2.09938C54.0627 2.10332 54.2731 2.10253 54.4826 2.10647C54.6102 2.10883 54.6756 2.18603 54.6787 2.30498C54.6819 2.43338 54.6134 2.49797 54.4787 2.47513C54.466 2.47276 54.4527 2.47355 54.4393 2.47513C53.6227 2.53814 53.2144 2.1322 53.2144 1.25731L53.2159 1.25652Z" fill="#0D1853"/>
<path d="M55.5039 1.24158C55.5039 0.953278 55.4952 0.664184 55.5078 0.376666C55.5125 0.256145 55.4219 0.0592145 55.6756 0.0655163C55.9103 0.071818 55.8922 0.245116 55.8938 0.404236C55.8985 0.875293 55.919 1.34635 55.9032 1.81662C55.8954 2.04348 55.9607 2.12226 56.1829 2.10493C56.3656 2.09075 56.5508 2.11202 56.7335 2.09941C56.8934 2.08917 56.9454 2.19079 56.9619 2.30816C56.984 2.46098 56.8682 2.46176 56.7556 2.46255C56.4279 2.46255 56.1002 2.46807 55.7725 2.47122C55.5811 2.47279 55.4905 2.39402 55.4999 2.18606C55.5141 1.87176 55.5039 1.55667 55.5031 1.24237L55.5039 1.24158Z" fill="#0D1853"/>
<path d="M32.4483 1.23914C32.4483 0.926414 32.4483 0.613688 32.4483 0.300963C32.4483 0.176503 32.4562 0.0559817 32.6287 0.0662221C32.7823 0.0756748 32.8619 0.151296 32.8619 0.314354C32.8619 0.972101 32.8626 1.62985 32.8721 2.28838C32.8737 2.42466 32.8248 2.47586 32.6956 2.48059C32.5373 2.48531 32.4483 2.42624 32.4491 2.25609C32.4514 1.91737 32.4491 1.57865 32.4491 1.23914H32.4475H32.4483Z" fill="#0D1853"/>
<path d="M45.5082 1.25889C45.5082 0.944585 45.5058 0.629496 45.509 0.315195C45.5106 0.202551 45.4814 0.0631247 45.6697 0.0662756C45.8304 0.0686388 45.9115 0.148986 45.9115 0.308893C45.9107 0.960339 45.9107 1.61257 45.906 2.26402C45.906 2.36563 45.9131 2.48694 45.7516 2.47828C45.6027 2.4704 45.5043 2.41605 45.5066 2.24196C45.5121 1.91427 45.5082 1.58658 45.5082 1.25889Z" fill="#0D1853"/>
<path d="M51.8057 1.24086C51.8057 0.940735 51.8002 0.641401 51.8088 0.34128C51.812 0.240451 51.7435 0.0829066 51.9333 0.0695153C52.1176 0.0569118 52.1901 0.186098 52.198 0.340492C52.2098 0.573657 52.2106 0.809186 52.194 1.04235C52.1696 1.40234 52.1539 1.75997 52.1862 2.12232C52.198 2.24914 52.2673 2.45946 52.0042 2.4697C51.7324 2.48073 51.8128 2.27671 51.8081 2.13965C51.7978 1.84031 51.8049 1.54019 51.8049 1.24007L51.8057 1.24086Z" fill="#0D1853"/>
<path fill-rule="evenodd" clip-rule="evenodd" d="M51.8777 11.2958C51.8773 11.0099 51.8768 10.7241 51.8768 10.4382L51.876 10.439H51.8666C51.8666 10.068 51.8686 9.69698 51.8706 9.32604C51.8752 8.46513 51.8798 7.60445 51.8595 6.74454C51.8351 5.67875 51.297 5.0856 50.2431 4.89339C49.8547 4.8225 49.4601 4.84219 49.0709 4.92018C48.0863 5.11711 47.6649 5.64882 47.5955 6.65159C47.5349 7.5313 47.5435 8.41049 47.552 9.28958C47.5539 9.48418 47.5558 9.67877 47.5569 9.87337C47.5594 10.2916 47.5555 10.7099 47.5516 11.1281C47.5428 12.0593 47.5341 12.9906 47.5955 13.9223C47.6593 14.8856 48.0485 15.4725 48.9039 15.7072C49.2836 15.8112 49.683 15.8246 50.0753 15.7939C51.0907 15.7143 51.457 15.3961 51.7886 14.4256C51.8693 14.1904 51.8705 13.9616 51.8716 13.7317C51.8717 13.7059 51.8718 13.6802 51.8721 13.6544C51.8802 12.8682 51.8789 12.082 51.8777 11.2958ZM50.2302 11.3482C50.2299 11.0183 50.2297 10.6885 50.2297 10.3586L50.2304 10.3594H50.2462C50.2462 10.0743 50.2465 9.78929 50.2467 9.50424C50.2474 8.79204 50.248 8.07983 50.2446 7.36763C50.2431 7.10532 50.236 6.84143 50.2029 6.58227C50.1722 6.34044 50.0516 6.17108 49.7641 6.17817C49.4924 6.18447 49.3057 6.27427 49.2679 6.56652C49.2583 6.64085 49.246 6.71518 49.2338 6.78953C49.2078 6.94764 49.1817 7.10585 49.1812 7.26444C49.1809 7.32733 49.1806 7.39022 49.1803 7.45311C49.1742 8.64663 49.1681 9.84016 49.1891 11.0337C49.195 11.377 49.1915 11.7204 49.1879 12.0639C49.1811 12.7275 49.1743 13.3912 49.2356 14.0546C49.2623 14.3413 49.3695 14.4752 49.6617 14.4815C50.0642 14.491 50.2265 14.3208 50.2281 13.823C50.2315 12.9981 50.2308 12.1731 50.2302 11.3482Z" fill="#0D1853"/>
<path fill-rule="evenodd" clip-rule="evenodd" d="M4.86409 15.6565C5.0183 15.6563 5.17495 15.6561 5.33495 15.6561V15.6553C5.29535 15.5497 5.25429 15.4617 5.21678 15.3813C5.167 15.2746 5.12345 15.1812 5.09785 15.0779C4.94407 14.4596 4.87786 13.8289 4.81169 13.1987C4.77922 12.8895 4.74677 12.5803 4.70399 12.2728C4.53917 11.0909 4.4016 9.90458 4.26404 8.71836C4.20173 8.18105 4.13943 7.64377 4.0746 7.10695C4.05847 6.97342 4.03834 6.83993 4.0182 6.70639C3.94985 6.25306 3.88142 5.79925 3.96904 5.34167C4.01946 5.07857 3.95171 5.02107 3.70673 5.02422C2.97179 5.03446 2.23605 5.04076 1.5019 5.02185C1.20256 5.01398 1.10174 5.06518 1.21359 5.38342C1.26684 5.5344 1.24714 5.71848 1.22892 5.88874C1.22747 5.90236 1.22602 5.91589 1.22462 5.92931C1.16757 6.48179 1.11215 7.03447 1.05673 7.58717C0.89405 9.20942 0.731366 10.8318 0.527487 12.4493C0.491484 12.7346 0.472637 13.0234 0.45377 13.3125C0.405352 14.0544 0.356805 14.7982 0.0178312 15.4915C-0.0357339 15.6017 0.0375242 15.6585 0.155682 15.6585H1.9383C1.68545 15.2246 1.75423 14.8188 1.82086 14.4258C1.84411 14.2887 1.8671 14.1531 1.87607 14.0184C1.91532 13.4201 1.95536 13.4205 2.57967 13.4268L2.5858 13.4268L2.5938 13.4269C3.30203 13.4339 3.3273 13.4342 3.39479 14.1295C3.40659 14.2531 3.42958 14.3766 3.45263 14.5004C3.51272 14.8231 3.57318 15.1478 3.43654 15.482C3.36563 15.6545 3.52269 15.6541 3.63003 15.6537C3.63835 15.6537 3.64636 15.6537 3.65395 15.6537C4.05143 15.6577 4.4489 15.6572 4.86409 15.6565ZM2.701 8.46028C2.67276 8.25891 2.64451 8.05753 2.61656 7.85608L2.61578 7.85765L2.52598 7.87026C2.48579 8.25726 2.44521 8.64418 2.40463 9.03107C2.31637 9.87268 2.22812 10.7142 2.14393 11.556C2.09037 12.0909 2.09746 12.0924 2.65516 12.0909C2.6664 12.0906 2.6777 12.09 2.68902 12.0894C2.71735 12.0879 2.74574 12.0864 2.77332 12.0909C3.11913 12.1484 3.16482 11.9688 3.12386 11.6813C3.07241 11.3193 3.02846 10.9563 2.98452 10.5932C2.95311 10.3337 2.92169 10.0742 2.88754 9.81514C2.82762 9.36303 2.76431 8.91167 2.701 8.46028Z" fill="#0D1853"/>
<path fill-rule="evenodd" clip-rule="evenodd" d="M67.1023 15.6004C67.102 15.6009 67.1017 15.6013 67.1014 15.6018L67.1006 15.6002C67.1011 15.6003 67.1017 15.6004 67.1023 15.6004ZM67.1023 15.6004C67.4929 15.6517 67.8641 15.6463 68.2273 15.641C68.4427 15.6378 68.6553 15.6348 68.8674 15.6435C68.9754 15.6475 69.0455 15.6176 68.9777 15.4797C68.8152 15.1501 68.8668 14.7995 68.9158 14.4657C68.9262 14.3951 68.9365 14.3252 68.9446 14.2564C69.037 13.4714 69.0828 13.4684 69.856 13.4183C69.8873 13.4163 69.9199 13.4142 69.9537 13.4119C70.3491 13.3859 70.5169 13.4686 70.5209 13.8885C70.5226 14.0672 70.5572 14.2461 70.5918 14.4248C70.6495 14.7233 70.7071 15.0213 70.6115 15.3174C70.5091 15.6349 70.6312 15.6506 70.8683 15.6491C71.2335 15.6469 71.5987 15.6473 71.9816 15.6478C72.1503 15.648 72.3225 15.6483 72.4996 15.6483C72.1137 15.0143 72.0503 14.3324 71.9888 13.67C71.9755 13.5266 71.9623 13.3842 71.9459 13.2434C71.9104 12.9376 71.8741 12.6316 71.8377 12.3256C71.7408 11.5098 71.6438 10.6931 71.563 9.87506C71.4905 9.14278 71.3901 8.41276 71.2896 7.68291C71.245 7.35837 71.2003 7.03387 71.1581 6.70921C71.1482 6.63276 71.1371 6.55605 71.126 6.4792C71.0721 6.10552 71.0177 5.72847 71.0896 5.36063C71.1463 5.06996 71.0857 5.02034 70.8249 5.02349C70.1168 5.03294 69.4078 5.03767 68.6997 5.0227C68.3924 5.0164 68.1727 5.02664 68.3609 5.42286C68.4127 5.53134 68.3962 5.6484 68.3799 5.76435C68.3758 5.79322 68.3718 5.82201 68.3688 5.85059C68.2947 6.55354 68.2217 7.25654 68.1486 7.9595C67.9556 9.81829 67.7626 11.6768 67.5488 13.5332C67.5313 13.6858 67.521 13.8404 67.5106 13.9959C67.4747 14.5331 67.4381 15.0821 67.1023 15.6004ZM69.9006 8.82667C69.8606 8.45972 69.8197 8.08507 69.712 7.69861L69.7112 7.69782C69.5147 8.95102 69.4054 10.161 69.2962 11.3698L69.2929 11.4064C69.2279 12.1338 69.2524 12.1327 70.01 12.1002L70.0239 12.0996C70.25 12.0902 70.3193 12.0263 70.287 11.7971C70.2359 11.4356 70.1909 11.0731 70.146 10.7106C70.0899 10.258 70.0339 9.80534 69.9656 9.3544C69.9392 9.17998 69.92 9.00423 69.9006 8.82667Z" fill="#0D1853"/>
<path fill-rule="evenodd" clip-rule="evenodd" d="M44.7486 20.2911C43.864 20.2738 43.2047 20.9512 43.1866 21.8965V21.8957C43.17 22.7433 43.9081 23.5011 44.8416 23.4845C45.8309 23.4672 46.4816 22.9678 46.5548 22.0272C46.632 21.0276 45.842 20.3124 44.7486 20.2911ZM43.6932 21.9122C43.6728 22.5471 44.1856 23.0402 44.7968 23.0339C45.5011 23.0268 46.0533 22.4999 46.0454 21.8421C46.0383 21.2119 45.516 20.7362 44.815 20.7582C44.1407 20.7795 43.7153 21.2521 43.6932 21.9122Z" fill="#0D1853"/>
<path fill-rule="evenodd" clip-rule="evenodd" d="M27.8459 23.3996C27.8462 23.3995 27.8465 23.3994 27.8468 23.3994L27.8461 23.4001C27.846 23.4 27.8459 23.3998 27.8459 23.3996ZM27.8459 23.3996C27.8367 23.3716 27.8287 23.3446 27.8209 23.3184C27.8054 23.266 27.7909 23.2171 27.7704 23.1709C27.6434 22.8844 27.5158 22.5983 27.3881 22.3121C27.1249 21.7219 26.8617 21.1318 26.6038 20.5391C26.5392 20.3911 26.4415 20.3635 26.3021 20.3462C26.1213 20.3239 26.0737 20.4429 26.0282 20.5567C26.0222 20.5718 26.0161 20.5868 26.0099 20.6014C25.6609 21.4182 25.3151 22.2367 24.9764 23.0575C24.9671 23.0805 24.953 23.1036 24.9387 23.1273C24.8935 23.2017 24.8454 23.2809 24.9338 23.3742C25.0179 23.4624 25.1191 23.4459 25.2152 23.4303C25.2461 23.4253 25.2765 23.4204 25.3057 23.4191C25.422 23.4138 25.4342 23.3251 25.4464 23.236C25.4525 23.1919 25.4586 23.1476 25.4774 23.1134C25.5452 22.9893 25.5908 22.89 25.6269 22.8112C25.7638 22.5131 25.766 22.5084 26.3305 22.5589C26.3396 22.5596 26.3489 22.5607 26.3583 22.5617C26.3892 22.5653 26.4206 22.5689 26.4478 22.5604C26.9016 22.4147 27.1103 22.6424 27.2159 23.0496C27.2985 23.3691 27.503 23.4929 27.8459 23.3996ZM26.5082 21.47C26.4618 21.3792 26.4157 21.2888 26.3756 21.1952V21.1944C26.2624 21.2385 26.2448 21.3248 26.2292 21.4007C26.2248 21.4225 26.2205 21.4434 26.2141 21.4623C26.1921 21.5285 26.1496 21.5984 26.1075 21.6676C26.0215 21.809 25.937 21.9478 26.0322 22.0483C26.1512 22.1743 26.3695 22.1394 26.5827 22.1053C26.6388 22.0963 26.6947 22.0873 26.7482 22.0814C26.7044 21.8544 26.6059 21.6614 26.5082 21.47Z" fill="#0D1853"/>
<path fill-rule="evenodd" clip-rule="evenodd" d="M42.358 1.76067C42.3585 2.24433 42.598 2.48301 43.0764 2.4767L43.0756 2.47513C43.1192 2.47513 43.1627 2.47566 43.2062 2.47618C43.2931 2.47723 43.3799 2.47828 43.4671 2.47513C43.9696 2.4578 44.3147 2.15689 44.4951 1.74412C44.6676 1.34948 44.6408 0.915442 44.3092 0.555453C43.9681 0.185224 42.9755 -0.0857524 42.4911 0.0623393C42.3491 0.106141 42.3535 0.199704 42.358 0.293097C42.3588 0.310557 42.3597 0.32801 42.3595 0.345131C42.3567 0.68821 42.3572 1.03129 42.3576 1.37437C42.3578 1.50313 42.358 1.6319 42.358 1.76067ZM44.0925 0.880853C43.9263 0.479115 43.5695 0.416098 43.1284 0.445243C42.8007 0.341264 42.7219 0.520864 42.7534 0.863523C42.7787 1.13937 42.7741 1.41789 42.7695 1.69556C42.7685 1.75489 42.7675 1.81417 42.7668 1.87338C42.766 1.98997 42.7723 2.08922 42.9117 2.10103C43.293 2.13491 43.6821 2.15381 43.9641 1.83478C44.2107 1.55593 44.2288 1.21091 44.0925 0.880853Z" fill="#0D1853"/>
<path fill-rule="evenodd" clip-rule="evenodd" d="M60.0653 1.001C60.0653 1.07934 60.0654 1.15768 60.0654 1.23602C60.0646 2.57042 60.1213 2.63029 61.2793 2.4562C61.7739 2.38137 62.0993 2.10961 62.2426 1.61728C62.3718 1.17143 62.2663 0.804352 61.9402 0.483749C61.5041 0.0546082 60.9649 0.0599035 60.4262 0.0651936C60.3528 0.0659142 60.2795 0.0666347 60.2064 0.066257C60.0643 0.0655245 60.0652 0.175815 60.066 0.273623C60.0661 0.280998 60.0662 0.288303 60.0662 0.295484C60.065 0.530657 60.0651 0.76583 60.0653 1.001ZM60.4478 1.26205C60.4517 1.28819 60.4571 1.32482 60.4625 1.37781H60.4617V1.46683C60.4609 2.15214 60.5357 2.21516 61.2006 2.08676C61.6551 1.99932 61.9568 1.53929 61.8764 1.05721C61.8032 0.616873 61.3573 0.352199 60.735 0.430971C60.393 0.474364 60.4238 0.678883 60.4549 0.884784C60.4717 0.99659 60.4886 1.1088 60.4459 1.19585C60.4398 1.20761 60.4421 1.2233 60.4478 1.26205Z" fill="#0D1853"/>
<path fill-rule="evenodd" clip-rule="evenodd" d="M31.0816 2.20882C31.2108 2.43647 31.3597 2.5436 31.6629 2.43804C31.6025 2.35024 31.5446 2.26307 31.4876 2.17717C31.2884 1.87699 31.0996 1.59248 30.8461 1.35177C31.3093 1.0997 31.3754 0.738928 31.0462 0.36476C30.8799 0.174919 30.1387 -0.0101949 29.9181 0.0740913C29.8394 0.104025 29.8244 0.159953 29.8244 0.223758C29.8228 0.916691 29.8236 1.60884 29.8244 2.30177L29.8244 2.30256C29.8244 2.43489 29.9016 2.48294 30.0268 2.48137C30.1576 2.48058 30.2143 2.41993 30.2143 2.28995C30.2135 2.09381 30.2151 1.89767 30.2238 1.70152C30.2245 1.68538 30.224 1.66828 30.2234 1.65094C30.221 1.57684 30.2184 1.49832 30.3167 1.47151C30.4207 1.44315 30.5286 1.44867 30.6019 1.54555C30.6456 1.60379 30.6906 1.66141 30.7357 1.71907C30.8594 1.87745 30.9834 2.03615 31.0816 2.20882ZM30.4733 0.430973C30.2094 0.408129 30.2062 0.571188 30.2346 0.794113H30.2354C30.2471 0.817953 30.2414 0.854276 30.2353 0.893452C30.2209 0.986309 30.2039 1.0952 30.4095 1.09187C30.6615 1.08793 30.8191 0.975289 30.8215 0.725581C30.823 0.51841 30.6647 0.447515 30.4733 0.430973Z" fill="#0D1853"/>
<path fill-rule="evenodd" clip-rule="evenodd" d="M33.9111 0.959117C33.9103 1.04881 33.9095 1.13852 33.9095 1.22823V1.22902C33.9097 1.30489 33.91 1.38071 33.9102 1.45652C33.9111 1.72152 33.912 1.98626 33.9095 2.25148C33.908 2.43738 34.0316 2.45786 34.1711 2.46574C34.3178 2.47414 34.3107 2.39131 34.3034 2.30647C34.3018 2.28793 34.3003 2.26929 34.3003 2.25148C34.3003 2.21004 34.3041 2.168 34.308 2.12607C34.315 2.05005 34.322 1.97439 34.3058 1.90331C34.2223 1.53229 34.3585 1.44564 34.728 1.43934C35.2132 1.43146 35.418 1.20696 35.4385 0.828857C35.4551 0.520858 35.2038 0.197892 34.8855 0.11203C34.7247 0.0682787 34.5613 0.0659139 34.3978 0.0635487C34.3258 0.0625072 34.2539 0.0614657 34.1821 0.0568899C33.9781 0.0434986 33.8977 0.116757 33.9064 0.323927C33.9147 0.53536 33.9129 0.747181 33.9111 0.959117ZM34.6695 0.429436C34.4253 0.423134 34.2457 0.443615 34.3087 0.766581V0.767368C34.316 0.801914 34.3127 0.844212 34.3093 0.887348C34.2998 1.00749 34.2898 1.13413 34.5072 1.1179C34.511 1.11762 34.5148 1.11733 34.5187 1.11704C34.7459 1.10002 35.0004 1.08094 35.0074 0.757128C35.0121 0.539717 34.9042 0.43495 34.6695 0.429436Z" fill="#0D1853"/>
</svg>
