<svg width="80" height="22" viewBox="0 0 80 22" fill="none" xmlns="http://www.w3.org/2000/svg">
<path d="M80 0H0V21.1953H80V0Z" fill="#0D1853"/>
<path d="M2.31323 18.8832H77.6881V2.31305H2.31323V18.8832Z" fill="white"/>
<path fill-rule="evenodd" clip-rule="evenodd" d="M77.3033 18.4975H2.69775V2.69775H77.3033V18.4975ZM59.5077 9.26537C59.5077 6.87536 58.464 5.23242 56.0801 5.23242C53.2629 5.23242 52.4004 6.89561 52.4004 8.97788V12.5583C52.4004 14.4159 53.3246 16.0467 55.8989 16.0467C58.6897 16.0467 59.5077 14.1081 59.5077 12.2506V9.26537ZM57.3869 12.775C57.3869 13.3975 57.1409 14.4979 55.9707 14.4979C54.8117 14.4979 54.5039 13.3975 54.5039 12.775V8.32091C54.5039 7.65584 54.8947 6.77211 55.9404 6.77211C56.9152 6.77211 57.3869 7.4797 57.3869 8.6499V12.775ZM59.9009 7.18214H61.8192V15.7997H63.9227V7.18214H65.7792V5.39747H59.9009V7.18214ZM74.9902 15.8008H72.9585V5.39751H74.9902V15.8008ZM66.1904 7.18214H68.1087V15.7997H70.2122V7.18214H72.0688V5.39747H66.1904V7.18214ZM15.3233 11.6858H17.2315L16.2516 6.82577L16.2222 6.99786L15.3233 11.6858ZM15.0044 13.1637L14.4305 15.8007H12.4302L14.7706 5.39744H17.8368L20.1863 15.8007H18.0828L17.5696 13.1637H15.0044ZM6.95707 11.3336L7.75981 11.3549C8.2862 11.3954 8.71643 11.7254 8.96444 12.27C9.14912 13.0373 9.30748 14.1961 9.4143 14.9777C9.47377 15.4128 9.51726 15.7311 9.54043 15.7999L11.7938 15.7948V15.6561C11.7229 15.5895 11.691 15.2192 11.6646 14.9132V14.9132L11.6646 14.9131C11.6528 14.7774 11.6422 14.6544 11.6298 14.576C11.6054 14.4233 11.5858 14.2654 11.5654 14.1006V14.1006C11.4967 13.5466 11.4183 12.9142 11.1155 12.1364C10.8544 11.4673 10.4576 10.8882 9.82893 10.7364L9.87144 10.6159C10.822 10.1472 11.4233 9.71803 11.4233 8.1743C11.4233 6.11936 10.1417 5.40569 8.29228 5.40569H4.99121V15.7999H6.95707V11.3336ZM6.93683 6.87857C8.86118 6.87857 9.52018 7.13265 9.52018 8.35955C9.52018 9.36778 9.10818 9.80307 8.022 9.80307H6.93683V6.87857ZM34.0642 11.6859H35.9734L34.9925 6.8259L34.9642 6.99798L34.0642 11.6859ZM33.7464 13.1638L33.1512 15.8008H31.1509L33.5125 5.39756H36.5788L38.907 15.8008H36.8035L36.3115 13.1638H33.7464ZM39.8317 7.33714H42.4687L39.4824 15.7999H45.1462V14.0871H42.3654L45.2484 5.39658H39.8317V7.33714ZM48.9486 7.33714H46.3126V5.39658H51.7294L48.8464 14.0871H51.6271V15.7999H45.9634L48.9486 7.33714ZM22.9458 15.7997L22.9448 9.4699L23.208 9.49926L25.4057 15.3321L25.9017 15.328L28.1581 9.53165L28.3636 9.5519L28.3656 15.7997H30.2404L30.2606 5.39646H27.8878L25.7671 11.1422L25.6031 11.1503L23.4914 5.39646H21.1237L21.0913 15.7997H22.9458Z" fill="#0D1853"/>
</svg>
