<svg width="80" height="32" viewBox="0 0 80 32" fill="none" xmlns="http://www.w3.org/2000/svg">
<path fill-rule="evenodd" clip-rule="evenodd" d="M31.3537 5.85527C32.6655 3.34419 34.9667 2.4297 37.1105 2.18983C39.2993 2.17484 41.4431 2.95441 42.6124 3.98882C44.9886 6.09514 45.8506 10.6001 44.4264 13.456C44.4005 13.5096 44.3614 13.5655 44.3213 13.6228C44.1989 13.7977 44.0675 13.9855 44.2765 14.1606C44.5113 14.3563 44.7575 14.183 44.9805 14.026L45.0328 13.9894C45.0482 13.9787 45.0634 13.9683 45.0785 13.9582C45.2284 13.8608 45.3633 13.7409 45.4983 13.6209L45.4983 13.6209C48.1893 11.2148 48.4067 6.67232 45.8506 3.8614C42.7848 0.49579 38.992 -0.845956 34.5544 0.540764C29.5772 2.09989 26.6014 6.35749 27.6508 11.597C28.3929 15.315 32.1408 18.5756 36.1585 19.1078C37.8676 19.3327 39.5017 19.1378 41.1208 18.6206C41.1587 18.607 41.2028 18.5962 41.2485 18.5849C41.4557 18.5339 41.6967 18.4745 41.5555 18.1184C41.3231 17.5262 39.9064 16.7317 39.3293 16.8666C35.8887 17.6611 33.2052 16.132 31.5936 13.7258C29.937 11.2522 29.9745 8.50129 31.3537 5.85527ZM63.7022 9.43246V9.432V9.43155V9.43109V9.43063V9.43017V9.42972C63.7039 8.68043 63.7056 7.9313 63.7056 7.18216L63.7131 7.18966L64.0204 7.15218L64.0205 7.15238C64.1104 7.33221 64.2003 7.51204 64.2903 7.69937C65.8344 11.0125 67.3785 14.3256 68.9301 17.6313C68.9536 17.6831 68.9763 17.7371 68.9993 17.7917C69.1525 18.1561 69.3183 18.5503 69.8072 18.5308C70.2656 18.5114 70.4348 18.1249 70.5927 17.7641C70.6181 17.7062 70.6432 17.6488 70.6692 17.5938C71.8985 14.9553 73.1203 12.3243 74.3346 9.68575C74.6256 9.04749 74.9107 8.4063 75.1954 7.76585L75.1983 7.7593L75.1986 7.7587C75.3676 7.37861 75.5364 6.99877 75.7063 6.61998L75.9762 6.66495C75.9762 7.5538 75.9774 8.44265 75.9786 9.3315C75.9817 11.5534 75.9847 13.7753 75.9687 15.9972C75.9612 16.6643 75.8188 17.3165 75.1142 17.6613C74.9118 17.7587 74.7918 17.9386 74.8518 18.1785C74.9118 18.4258 75.1217 18.5008 75.3315 18.5008C76.7108 18.5083 78.09 18.5083 79.4692 18.5083C79.7166 18.5083 79.9489 18.4333 79.9939 18.126C80.0314 17.8412 79.8965 17.6613 79.6416 17.5713C78.7796 17.264 78.6072 16.5369 78.6072 15.7573C78.5847 11.7396 78.5772 7.72935 78.5697 3.71161C78.5697 2.87958 78.7571 2.15249 79.6341 1.81518C79.874 1.71773 80.0314 1.54533 79.9789 1.26049C79.9265 0.953162 79.6716 0.908187 79.4317 0.908187C79.1869 0.902357 78.942 0.904462 78.6972 0.906567C78.3124 0.909876 77.9276 0.913185 77.5428 0.8857C76.6358 0.825734 76.1411 1.23051 75.7513 2.04755C74.4183 4.85266 73.148 7.68466 71.8781 10.5158L71.8746 10.5238L71.8717 10.53L71.8694 10.5352L71.8674 10.5397L71.8658 10.5432L71.8645 10.5461C71.4965 11.3665 71.1286 12.1868 70.7591 13.0064C70.7412 13.0491 70.7251 13.0938 70.7087 13.1391L70.7086 13.1394L70.7085 13.1397C70.6361 13.3406 70.56 13.5518 70.3094 13.6435C70.0875 13.5049 69.997 13.28 69.9072 13.0571C69.8757 12.9787 69.8442 12.9006 69.8072 12.8265C69.2696 11.7177 68.7474 10.6008 68.2249 9.48333L68.2248 9.48309L68.2247 9.48288C67.239 7.37468 66.2522 5.26427 65.1598 3.20189C64.2803 1.52784 62.8761 0.763268 60.9471 0.908187C60.9109 0.910977 60.8739 0.912844 60.8368 0.914718C60.5748 0.927951 60.3054 0.941557 60.22 1.28298C60.1301 1.65777 60.28 1.91262 60.6098 2.10002C61.6667 2.69968 62.0265 3.63665 62.019 4.81349C62.0024 6.62923 61.9973 8.44265 61.9922 10.2563V10.2567V10.257V10.2573V10.2577V10.258V10.2584C61.9881 11.7085 61.9841 13.1587 61.9741 14.6105C61.9741 15.1202 61.8916 15.6299 61.7942 16.1246C61.6592 16.8217 61.3969 17.4514 60.6323 17.7062C60.3924 17.7887 60.1751 17.9161 60.25 18.2234C60.3175 18.4708 60.5424 18.5158 60.7522 18.5158C62.0115 18.5233 63.2708 18.5233 64.5301 18.5158C64.7775 18.5158 65.0173 18.4483 65.0698 18.1485C65.1148 17.8861 65.0548 17.6463 64.8 17.5413C63.8405 17.1441 63.7281 16.282 63.7206 15.4425C63.6933 13.4367 63.6978 11.4348 63.7022 9.43406V9.43379V9.43353V9.43326V9.43299V9.43273V9.43246ZM55.7448 9.41588C55.7973 8.15658 55.4075 6.91978 54.7929 5.72045C53.4361 3.09693 49.7032 1.7327 47.2671 2.29488C46.2702 2.52725 45.1533 2.03253 44.6436 1.17801C44.4142 0.785602 44.6904 0.723825 44.9241 0.671566C44.9806 0.658938 45.0346 0.646866 45.0783 0.63082C47.0497 -0.0512965 49.0586 -0.201213 51.0899 0.360971C55.5125 1.58278 58.6832 4.96338 58.7881 9.49084C58.9006 14.5355 54.463 18.5607 50.0031 19.0929C45.5131 19.6251 42.065 17.9086 39.5689 14.1757C37.7325 11.4322 38.4895 7.07719 41.1206 5.2782C41.1701 5.24365 41.2215 5.20066 41.2745 5.15636C41.4857 4.97966 41.7218 4.78211 41.9676 5.01585C42.1552 5.19792 42.0138 5.40434 41.8783 5.60226L41.8783 5.60229C41.8297 5.67326 41.7818 5.74314 41.7502 5.8104C40.4159 8.67379 40.8582 11.4772 42.5597 13.9133C44.3587 16.4769 47.0122 17.6238 50.1979 16.8517C53.0463 16.1621 55.9697 13.4186 55.7298 9.41588H55.7448ZM16.8866 18.5158H20.4771L20.4696 18.5308C20.8481 18.5308 21.2259 18.5337 21.6034 18.5365C22.452 18.5429 23.2992 18.5493 24.15 18.5233C25.6791 18.4708 26.886 17.4964 27.0883 16.2221C27.0921 16.1932 27.0974 16.163 27.1027 16.1323C27.1292 15.9798 27.1581 15.8135 27.0209 15.7199C26.86 15.6147 26.7451 15.7291 26.6383 15.8355C26.6157 15.858 26.5934 15.8801 26.5711 15.8998C25.859 16.5294 25.012 16.7318 24.0825 16.7318C23.8567 16.7301 23.6304 16.7272 23.4039 16.7243C22.6454 16.7145 21.8836 16.7047 21.1217 16.7393C20.4096 16.7693 20.1173 16.5444 20.1173 15.7799C20.1472 11.6797 20.1397 7.57947 20.1322 3.47928C20.1322 2.64725 20.3046 1.98762 21.2416 1.79273C21.489 1.74026 21.6914 1.59784 21.6389 1.29051C21.5864 0.990678 21.3466 0.923218 21.0992 0.923218H16.5193C16.2569 0.923218 16.0395 1.02815 16.0171 1.32799C16.0021 1.57535 16.167 1.71777 16.3844 1.77024C17.4038 2.0101 17.5237 2.79716 17.5387 3.64419C17.5462 4.56546 17.5462 5.49423 17.5462 6.423V6.42512V15.7649C17.5462 16.4995 17.5012 17.2266 16.6542 17.5489C16.6063 17.5673 16.5547 17.5837 16.5026 17.6003C16.2365 17.6851 15.9543 17.775 16.0545 18.1635C16.1535 18.5331 16.4791 18.525 16.7704 18.5178C16.8099 18.5168 16.8489 18.5158 16.8866 18.5158ZM1.43018 22.4961H78.5093C77.8797 22.9383 2.2847 23.0133 1.43018 22.4961ZM9.121 7.60976L9.11368 7.6169V7.60941L9.121 7.60976ZM12.1195 6.39509C11.491 7.41269 10.4815 7.67592 9.121 7.60976C9.2271 7.5063 9.33159 7.40917 9.43236 7.31552L9.43244 7.31545L9.43248 7.31541C9.95541 6.82939 10.3779 6.4367 10.403 5.73546C10.4629 4.22131 9.73583 3.41176 8.0193 2.80461C7.13823 2.49217 6.20507 2.51833 5.27627 2.54437L5.27625 2.54437C5.0909 2.54956 4.90571 2.55475 4.72115 2.55725C4.24892 2.55725 4.1065 2.83459 4.1065 3.25436V7.20463C4.1065 7.82678 4.47379 7.94672 4.9835 7.93173C6.51264 7.90174 8.03429 7.9767 9.54094 8.25404C10.9052 8.5089 12.1045 9.07108 13.034 10.128C14.2708 11.5447 14.5481 13.1638 13.926 14.9103C13.2289 16.8592 11.7447 17.9461 9.76581 18.3434C8.49598 18.5984 7.21228 18.5654 5.92885 18.5324H5.92875H5.92866C5.32572 18.5169 4.72284 18.5014 4.12149 18.5158C3.23441 18.5391 2.34733 18.5307 1.46379 18.5222H1.46375H1.4637C1.21245 18.5198 0.961496 18.5174 0.710905 18.5158L0.667684 18.5159C0.384854 18.5169 0.0633399 18.5181 0.00630235 18.126C-0.0461681 17.7812 0.238672 17.6688 0.501024 17.5938C1.23561 17.3839 1.4305 16.8517 1.4305 16.1546C1.42301 11.8145 1.42301 7.46698 1.4305 3.12692C1.4305 2.42232 1.23561 1.89762 0.49353 1.69523C0.231177 1.62027 -0.0536636 1.53033 0.0212943 1.16303C0.0887563 0.863201 0.358605 0.855703 0.59847 0.855703C1.35427 0.860201 2.11007 0.854575 2.86546 0.848952C4.6273 0.835836 6.38694 0.822736 8.13923 0.938157C9.7883 1.0431 11.2425 1.77019 12.1345 3.33681C12.7266 4.38622 12.7341 5.40564 12.1195 6.39509ZM4.00024 13.3889V10.698C4.00024 10.2782 4.12767 10.0083 4.6074 10.0008C6.22649 9.99335 7.83808 10.0233 9.38221 10.6005C10.2742 10.9303 11.0238 11.455 11.4511 12.347C12.4855 14.5058 11.2712 16.6871 8.83502 16.9045C7.93612 16.9884 7.0307 16.978 6.12307 16.9676H6.12305C5.65321 16.9622 5.18278 16.9568 4.71234 16.9644C4.15765 16.9644 3.99275 16.6646 4.00024 16.1699C4.00524 15.5505 4.00358 14.9345 4.00191 14.3173V14.3171C4.00108 14.0082 4.00024 13.699 4.00024 13.3889ZM43.4968 26.851V28.6425H43.4893V29.1822C43.4893 31.2736 43.8041 31.5284 45.8804 31.1236C47.1247 30.8763 47.9418 29.7669 47.8518 28.4177C47.7394 26.6936 45.3107 25.3444 43.8116 26.1614C43.5267 26.3188 43.4968 26.5812 43.4968 26.851ZM44.5949 28.0483C44.612 28.261 44.6294 28.4766 44.5537 28.65C44.6514 28.8197 44.623 29.0511 44.5946 29.2823C44.5403 29.725 44.486 30.1667 45.3183 30.1716C46.1578 30.1791 46.7275 29.542 46.7275 28.6575C46.735 27.758 46.1653 27.1508 45.3183 27.1658C44.5249 27.181 44.5594 27.6084 44.5949 28.0483ZM11.1375 28.74C11.175 27.3008 10.0131 26.079 8.58142 26.0565C7.14972 26.034 5.9504 27.2183 5.9429 28.665C5.93541 29.9992 7.17971 31.266 8.51396 31.281C9.89318 31.296 11.1 30.1267 11.1375 28.74ZM7.03783 28.6426C7.02283 29.4597 7.74992 30.1793 8.57446 30.1793C9.38401 30.1718 10.0211 29.5196 10.0211 28.6801C10.0286 27.7806 9.41399 27.1585 8.51449 27.166C7.69745 27.1735 7.05282 27.8106 7.03783 28.6426ZM68.1504 29.7369C68.1504 30.8163 67.9405 31.0412 66.7112 31.2436C65.6018 31.4235 64.4775 30.8388 63.9602 29.8119C63.458 28.8075 63.6754 27.5557 64.4999 26.7611C65.2645 26.019 66.4638 25.8391 67.4083 26.3414C67.4488 26.3627 67.493 26.3834 67.5383 26.4046L67.5384 26.4047C67.795 26.5248 68.087 26.6615 67.9405 27.031C67.7681 27.4582 67.4533 27.4957 66.9885 27.3158C66.0066 26.9335 65.1821 27.3008 64.9422 28.1403C64.6798 29.0398 65.1371 29.9543 65.9541 30.1492C66.2765 30.2242 66.6587 30.2841 66.8686 29.9693C67.0441 29.7061 66.8805 29.6394 66.7136 29.5714C66.6239 29.5348 66.5332 29.4978 66.4938 29.4296C66.269 29.0473 66.3139 28.7475 66.7937 28.6201C67.7606 28.3652 68.1429 28.68 68.1429 29.7519L68.1504 29.7369ZM35.0342 28.5227C35.0342 28.7401 35.035 28.9575 35.0358 29.1749C35.0375 29.6096 35.0392 30.0444 35.0342 30.4791C35.0342 30.8314 34.9442 31.1462 34.487 31.1462C34.0297 31.1462 33.9473 30.8389 33.9473 30.4791V26.7087L33.9473 26.6896C33.9471 26.4841 33.9468 26.2488 34.1722 26.1616C34.4251 26.0659 34.5845 26.2444 34.7299 26.4073C34.744 26.4231 34.7579 26.4387 34.7718 26.4539C34.9827 26.6755 35.1862 26.9046 35.3932 27.1377L35.3934 27.1379L35.3936 27.138L35.3937 27.1382C35.9077 27.7169 36.4439 28.3205 37.1705 28.8975V26.7987C37.1705 26.4464 37.2304 26.1241 37.6877 26.1166C38.1299 26.1166 38.2424 26.4164 38.2499 26.7762C38.2549 27.6363 38.2532 28.4964 38.2515 29.3542V29.3559V29.3575V29.3592V29.3608V29.3625V29.3641V29.3658V29.3674V29.3691V29.3707C38.2507 29.7933 38.2499 30.2153 38.2499 30.6365C38.2499 30.8464 38.2349 31.0863 37.995 31.1612C37.7835 31.2339 37.6477 31.0851 37.521 30.9462C37.504 30.9275 37.4871 30.9091 37.4703 30.8914C36.7357 30.0743 36.0011 29.2498 35.274 28.4253L35.0342 28.5152V28.5227ZM14.406 30.5391V28.4928L14.6384 28.3804C14.8168 28.5788 14.9952 28.7777 15.1738 28.9768L15.174 28.9771L15.1741 28.9771L15.1743 28.9773C15.7306 29.5974 16.2879 30.2188 16.8496 30.8315C16.8702 30.8541 16.8909 30.8784 16.912 30.9032L16.9122 30.9034L16.9122 30.9035L16.9123 30.9035C17.0451 31.0596 17.1951 31.2358 17.4343 31.1388C17.6679 31.0405 17.6544 30.8262 17.6421 30.6282C17.6393 30.5848 17.6367 30.5421 17.6367 30.5017V26.9112L17.6356 26.8531C17.63 26.5085 17.624 26.1383 17.1345 26.1241C16.5648 26.1016 16.5498 26.5364 16.5423 26.9337C16.5374 27.3323 16.5389 27.731 16.5405 28.1766V28.1768C16.5414 28.4182 16.5423 28.6735 16.5423 28.95C16.1936 28.5868 15.8674 28.245 15.5542 27.9167L15.5541 27.9166C15.0593 27.3981 14.5968 26.9134 14.1286 26.4315C14.1139 26.4159 14.0991 26.3997 14.0841 26.3832C13.9614 26.2485 13.8243 26.0981 13.6039 26.1916C13.416 26.2711 13.4163 26.4692 13.4165 26.6378L13.4165 26.6563V30.5167C13.424 30.839 13.499 31.1313 13.9038 31.1313C14.301 31.1388 14.406 30.869 14.406 30.5391ZM75.1817 30.5165V28.1112C75.4398 28.398 75.684 28.6698 75.9182 28.9304L75.9299 28.9435L75.93 28.9436L75.9321 28.9459C76.5458 29.6289 77.0911 30.2358 77.6403 30.8388C77.6596 30.8601 77.6791 30.8829 77.6989 30.9061L77.6991 30.9063C77.8331 31.063 77.9845 31.2402 78.2325 31.1162C78.422 31.0214 78.4145 30.8308 78.4075 30.652V30.652V30.6519C78.4062 30.6186 78.4049 30.5858 78.4049 30.554V26.8736C78.4049 26.5063 78.4049 26.109 77.8802 26.109C77.378 26.109 77.3255 26.4913 77.3255 26.8661C77.3207 27.2761 77.3221 27.6892 77.3237 28.1634V28.1634V28.1635V28.1636V28.1636V28.1656C77.3245 28.4276 77.3255 28.7083 77.3255 29.0174C76.4035 28.0204 75.6614 27.2184 74.9044 26.4163C74.8935 26.4043 74.8827 26.392 74.8717 26.3795L74.8707 26.3783L74.8699 26.3774L74.8685 26.3758L74.868 26.3752L74.8675 26.3747C74.7428 26.2325 74.6047 26.0749 74.3797 26.184C74.1991 26.2706 74.1995 26.4685 74.1997 26.637L74.1997 26.6562V30.5165C74.1997 30.8463 74.2972 31.1237 74.6945 31.1237C75.0992 31.1237 75.1817 30.8388 75.1817 30.5165ZM57.0773 26.9086C56.85 26.5204 56.6082 26.1074 55.9548 26.0939L55.9623 26.1014C55.3927 26.2138 55.61 26.5736 55.8574 26.9034C56.637 27.9379 57.3865 28.9723 57.1467 30.3965C57.0867 30.7563 57.1392 31.1611 57.6714 31.1461C58.1886 31.1311 58.256 30.7113 58.1961 30.374C57.9712 29.0322 58.5784 28.0128 59.3504 27.0234C59.3819 26.9823 59.4219 26.9382 59.464 26.8918C59.6522 26.6845 59.8816 26.4316 59.5753 26.1988C59.193 25.9065 58.7807 26.1164 58.5034 26.5062C58.4763 26.5428 58.4489 26.5791 58.4216 26.6152C58.3204 26.7493 58.2204 26.8817 58.1436 27.0234C57.8138 27.6305 57.529 27.6605 57.1542 27.0384C57.1283 26.9958 57.1029 26.9524 57.0773 26.9086ZM1.40812 28.5377V26.9261C1.40812 26.5214 1.4456 26.1016 2.00028 26.1166C2.50335 26.1312 2.50293 26.5145 2.50253 26.8735L2.5025 26.9037C2.5025 27.1738 2.50668 27.4439 2.51084 27.7137L2.51084 27.7138C2.51917 28.2526 2.52748 28.7904 2.5025 29.3248C2.47252 29.9919 2.73487 30.2618 3.3945 30.2018C3.59689 30.1793 3.81426 30.2093 4.01665 30.2393C4.25651 30.2768 4.37645 30.4492 4.38394 30.6815C4.39144 30.9664 4.24902 31.1463 3.96418 31.1538C3.27457 31.1688 2.59245 31.1763 1.90284 31.1538C1.46059 31.1388 1.41561 30.7715 1.40812 30.4342C1.40311 30.0138 1.40479 29.5935 1.40646 29.1754C1.40729 28.9672 1.40812 28.7596 1.40812 28.5527V28.5377ZM71.5758 30.5614V28.6875V26.7236C71.5758 26.3863 71.4784 26.1239 71.0886 26.1089C70.7213 26.0939 70.5114 26.3038 70.5114 26.6486C70.4965 27.9529 70.4965 29.2646 70.504 30.5764C70.5114 30.9062 70.6614 31.1386 71.0511 31.1386C71.4409 31.1311 71.5758 30.8987 71.5758 30.5614ZM31.6759 28.6501C31.6759 30.0893 30.5516 31.2586 29.1498 31.2886C27.7256 31.3186 26.5413 30.0968 26.5638 28.6276C26.5863 27.1959 27.7406 26.0415 29.1423 26.0565C30.574 26.0715 31.6834 27.2034 31.6759 28.6501ZM30.6491 28.7027C30.6266 29.5272 29.8846 30.2168 29.0525 30.1793C28.228 30.1493 27.6508 29.5047 27.6658 28.6352C27.6883 27.7582 28.273 27.166 29.12 27.166C29.9595 27.166 30.6641 27.8781 30.6416 28.7027H30.6491ZM50.1229 28.5977L50.1304 28.6127V30.4867C50.1379 30.8539 50.2354 31.1388 50.6851 31.1388C51.0749 31.1313 51.1573 30.8764 51.2248 30.5541C51.2473 30.435 51.2347 30.2917 51.2221 30.1473L51.2221 30.1473C51.1925 29.8101 51.1625 29.4672 51.5771 29.4148C51.969 29.3632 52.0949 29.6948 52.2207 30.0264C52.2777 30.1767 52.3348 30.3271 52.4166 30.4417C52.4493 30.4808 52.4705 30.5314 52.4903 30.5784L52.4904 30.5785L52.4991 30.5991C52.709 31.0938 53.1362 31.3412 53.5785 31.0938C53.9358 30.8953 53.7567 30.641 53.5931 30.4088C53.5405 30.3342 53.4896 30.2618 53.4585 30.1943C53.4397 30.155 53.4207 30.1162 53.4019 30.0779L53.4014 30.0769L53.4013 30.0765C53.1587 29.5812 52.9507 29.1565 53.5485 28.6352C54.0957 28.1555 54.0582 27.4509 53.6459 26.8287C53.1962 26.1466 51.5546 25.7718 50.5727 26.1241C50.0702 26.3063 50.1006 26.6837 50.1304 27.0556V27.0557V27.0557V27.0558C50.1411 27.1887 50.1517 27.321 50.1379 27.4434C50.112 27.7132 50.1184 27.9831 50.1247 28.2529C50.1275 28.3679 50.1302 28.4828 50.1304 28.5977H50.1229ZM51.7649 28.3652C51.3751 28.3877 51.2252 28.1328 51.2552 27.6981C51.2922 27.1354 51.6875 27.1504 52.08 27.1653L52.0947 27.1659C52.4845 27.1809 52.8368 27.2933 52.7918 27.773C52.7318 28.3202 52.2971 28.3652 51.7724 28.3652H51.7649ZM20.2599 26.7536V28.635H20.2524V29.4371C20.2524 30.6314 20.8621 31.2061 22.0814 31.1611C23.4232 31.1087 24.4951 30.1342 24.615 28.8524C24.7349 27.5856 23.8354 26.3938 22.5087 26.1539C22.1089 26.0854 21.696 26.0865 21.2866 26.0876H21.2866C21.1588 26.0879 21.0312 26.0883 20.9046 26.0865C20.4623 26.079 20.2599 26.3114 20.2599 26.7536ZM21.2537 28.5301C21.2553 28.58 21.257 28.63 21.257 28.68V29.572C21.2495 29.9767 21.4219 30.1791 21.8417 30.1791C22.5688 30.1791 23.1234 29.8943 23.3783 29.1822C23.6182 28.5226 23.4608 27.9304 22.9436 27.4732C22.5538 27.1284 22.0516 27.0684 21.5868 27.2183C21.2185 27.3392 21.2372 27.6335 21.2556 27.9237C21.2623 28.0293 21.269 28.1343 21.257 28.2302C21.247 28.3302 21.2503 28.4301 21.2537 28.53V28.5301Z" fill="#0D1853"/>
</svg>
