<svg width="80" height="32" viewBox="0 0 80 32" fill="none" xmlns="http://www.w3.org/2000/svg">
<path fill-rule="evenodd" clip-rule="evenodd" d="M79.4224 18.3904C79.7444 18.3904 80.0002 18.6506 80.0002 18.9771C80.0002 19.3035 79.7444 19.5638 79.4224 19.5638C79.1004 19.5638 78.8401 19.3035 78.8401 18.9771C78.8401 18.6506 79.0959 18.3904 79.4224 18.3904ZM79.4224 18.461C79.1445 18.461 78.9195 18.6903 78.9195 18.9771C78.9195 19.2638 79.1445 19.4932 79.4268 19.4932C79.7091 19.4932 79.9297 19.2638 79.9297 18.9771C79.9297 18.6903 79.7047 18.461 79.4268 18.461H79.4224ZM79.2018 18.6198H79.3871C79.5106 18.6198 79.5812 18.6418 79.6253 18.6771C79.6694 18.7124 79.6959 18.7609 79.6959 18.8183C79.6959 18.9506 79.59 18.9947 79.5238 19.0124L79.7488 19.3256H79.6429L79.4268 19.0212H79.3033V19.3256H79.2062V18.6198H79.2018ZM79.2989 18.9594H79.4268C79.5327 18.9594 79.5944 18.9065 79.5944 18.8227C79.5944 18.7124 79.5018 18.6859 79.3871 18.6859H79.2989V18.955V18.9594Z" fill="#0D1853"/>
<path fill-rule="evenodd" clip-rule="evenodd" d="M68.725 12.2102C68.0016 12.0955 67.1105 12.047 66.1621 12.0823C65.9636 12.0867 65.6504 12.0999 65.2313 12.1264C65.0196 12.1352 64.8079 12.1485 64.6005 12.1529C64.3359 12.1617 64.2873 12.1617 63.6212 12.1529C63.3301 12.1529 63.1492 12.1441 63.0787 12.1441C63.039 12.1441 62.9728 12.1396 62.889 12.1352L62.9022 12.4175L63.0566 12.4352L63.286 12.4573C63.8418 12.5058 64.0712 12.7925 64.0932 13.4807V13.5556L64.1197 14.2659C64.1462 14.8614 64.155 15.3907 64.1506 15.8539L64.1329 17.6845C64.1197 18.8359 64.0844 19.0741 63.8815 19.3255C63.7051 19.5329 63.4139 19.652 63.0257 19.6608H62.8713L62.8846 20.0269C63.3477 19.996 63.533 19.9872 63.8727 19.974C64.5564 19.9519 65.1916 19.9563 66.0739 19.9916C66.7135 20.0181 67.1326 20.0313 67.3311 20.0313L68.3854 20.0401H68.703L68.7471 19.8505L68.853 19.4049L69.0735 18.7653L69.2897 18.2757L69.3647 18.0948L69.0691 17.9669L68.9941 18.1124C68.4692 19.1226 67.8737 19.502 66.762 19.5417C65.7563 19.577 65.5842 19.4358 65.5578 18.5491V18.3992C65.5578 18.2492 65.5445 17.8831 65.5313 17.3052C65.5137 16.67 65.5137 16.4803 65.5181 15.9421H65.7033L66.2989 15.9245C67.3134 15.898 67.6708 16.2377 67.7413 17.2964L68.103 17.2611C68.0281 16.7317 67.9972 16.4582 67.9839 16.1097C67.9751 15.7877 67.9839 15.4613 68.006 15.1084L68.0457 14.5129L68.0589 14.3188L67.7546 14.3056C67.7105 14.8834 67.5737 15.179 67.2737 15.3378C67.0664 15.4481 66.89 15.4701 66.0915 15.4966C65.9283 15.5054 65.7916 15.5054 65.5004 15.5054C65.496 14.6099 65.5269 13.3174 65.571 12.594C65.8313 12.5631 65.9239 12.5543 66.1268 12.5455C67.8075 12.4881 68.3633 12.7925 68.6236 13.9174L68.9544 13.8071L68.9103 13.6306C68.778 13.0925 68.7559 12.9778 68.7339 12.519L68.7206 12.2058L68.725 12.2102Z" fill="#0D1853"/>
<path fill-rule="evenodd" clip-rule="evenodd" d="M57.9748 12.0381C57.8999 12.0955 57.8469 12.1352 57.8116 12.1661C57.6175 12.3205 57.5293 12.3602 57.3882 12.3646C57.247 12.3646 57.2205 12.3602 56.8764 12.2278C56.5015 12.0867 56.1177 12.0161 55.6942 12.0249C54.3268 12.0514 53.3828 12.9557 53.4048 14.2217C53.4225 15.1613 54.04 15.9112 55.3678 16.5949C56.7794 17.3228 57.0926 17.636 57.1058 18.3374C57.1191 19.0696 56.5456 19.6607 55.8001 19.674C54.7679 19.6916 54.1768 19.1137 53.7268 17.6492L53.396 17.7948C53.5636 18.28 53.643 18.7873 53.6518 19.3872C53.6518 19.5416 53.6518 19.6431 53.643 19.8813H53.8062C54.1591 19.8857 54.2959 19.8989 54.4944 19.943L55.1208 20.0798C55.3369 20.1239 55.584 20.146 55.8575 20.1416C57.3793 20.1151 58.3674 19.1358 58.341 17.6801C58.3233 16.714 57.8028 16.07 56.4706 15.3598C55.0678 14.6143 54.9443 14.5305 54.7017 14.1776C54.6003 14.0276 54.5341 13.8026 54.5341 13.5953C54.5209 12.9777 55.0634 12.4969 55.7781 12.4837C56.797 12.466 57.5911 13.2336 57.7984 14.4158L58.1116 14.354C58.0013 13.8644 57.944 13.4056 57.9351 12.9027C57.9263 12.6072 57.9351 12.4484 57.9793 12.0514L57.9748 12.0381Z" fill="#0D1853"/>
<path fill-rule="evenodd" clip-rule="evenodd" d="M51.8081 12.0646C51.4375 12.1132 51.2082 12.1264 50.8023 12.1352C50.2156 12.144 49.5716 12.122 49.1437 12.0867V12.3822C49.7745 12.4175 50.0348 12.5455 50.1803 12.8851C50.3127 13.1939 50.3347 13.3659 50.3436 14.3585C50.348 14.7511 50.348 15.0334 50.3436 15.2098L50.2994 16.8596L50.2774 18.1433C50.2509 19.3873 50.0083 19.6916 48.9761 19.7446V20.0622L49.2496 20.0445L50.0789 19.9828C50.4935 19.9519 50.8773 19.9387 51.1905 19.9343C51.5258 19.9298 51.8125 19.9387 52.0507 19.9651L52.7344 20.0357L52.9682 20.0534L52.9903 19.7181C52.0066 19.696 51.7463 19.4049 51.7375 18.3374C51.7375 18.1257 51.7375 17.8433 51.7551 17.4022L51.8081 15.8362L51.8434 14.3541L51.8522 13.2292C51.8522 13.0704 51.8522 12.9116 51.8522 12.7528C51.8522 12.4749 51.8478 12.3867 51.8081 12.069V12.0646Z" fill="#0D1853"/>
<path fill-rule="evenodd" clip-rule="evenodd" d="M39.4428 12.1573C39.1473 12.819 39.0105 13.2204 38.5959 14.6187C38.3621 15.4039 38.1459 16.1186 37.9474 16.7714C37.4886 18.2624 37.4225 18.4918 37.2063 19.4843C36.9637 18.2712 36.8799 17.9536 36.3947 16.3259C36.0947 15.3157 35.883 14.6099 35.755 14.2085C35.4595 13.2689 35.3492 12.9469 35.036 12.1176L34.7625 12.1264L34.2023 12.1661H33.523L32.8083 12.1529C32.5393 12.1485 32.4643 12.144 32.2305 12.122L32.2437 12.4131C32.9098 12.4528 33.1392 12.5366 33.3862 12.8234C33.7435 13.238 34.0082 13.8909 34.7405 16.198L35.5036 18.6021C36.0726 20.3886 36.2711 20.9753 36.7343 22.1752C37.0872 21.2356 37.149 21.0503 37.7048 19.2946L38.3929 17.1155C39.0767 14.9496 39.2752 14.4158 39.6943 13.635C39.8619 13.3174 40.0472 13.066 40.2368 12.8851C40.5368 12.6028 40.85 12.4749 41.5823 12.3381V12.0779C41.3264 12.1308 41.2029 12.144 40.9956 12.1485L40.5589 12.1573H40.0824L39.6722 12.1485H39.4428V12.1573Z" fill="#0D1853"/>
<path fill-rule="evenodd" clip-rule="evenodd" d="M30.2105 16.3038C31.578 15.8406 32.2529 15.1172 32.2662 14.107C32.2882 12.766 31.406 12.0867 29.5841 12.0558C29.2798 12.0514 28.9974 12.0602 28.1064 12.1087C27.4138 12.1484 26.9374 12.1617 26.5845 12.1529C26.4786 12.1529 26.3684 12.1484 26.2625 12.1352L25.839 12.0999L25.6979 12.0911L25.689 12.3161C26.2272 12.3646 26.5183 12.5234 26.6507 12.8454C26.7565 13.1013 26.7742 13.3174 26.7918 14.3585C26.8051 15.2848 26.8051 16.0656 26.7918 16.7008L26.761 18.3418C26.7345 19.4799 26.5801 19.6784 25.6714 19.7578V20.071C26.5228 19.9651 27.1094 19.9254 27.7314 19.9387C28.5034 19.9519 29.0857 19.9872 29.4474 20.0445V19.7358C29.3856 19.7269 29.3327 19.7181 29.2974 19.7137C28.4681 19.6034 28.3358 19.3829 28.3181 18.0904L28.2872 15.8892L28.2961 14.16L28.3137 13.3571L28.3225 12.8322L28.3314 12.594C28.7019 12.5278 28.8431 12.5146 29.1077 12.519C30.065 12.5366 30.7002 13.1101 30.6869 13.9438C30.6693 14.9628 29.8532 15.8362 28.4549 16.3347C28.8166 16.542 28.9622 16.6611 29.1827 16.9214C29.6591 17.4772 29.862 17.8125 30.806 19.599C31.7633 21.4032 32.4161 22.2501 33.3998 22.9515C34.3041 23.5956 35.332 23.9396 36.4259 23.9573C38.2081 23.9882 39.9196 23.0839 40.1049 22.0119C39.3329 22.8192 38.336 23.2294 37.1935 23.2074C36.2848 23.1897 35.2658 22.8236 34.6041 22.2766C33.7263 21.5488 33.541 21.2797 32.1426 18.7035C31.503 17.5169 31.0001 16.8288 30.5458 16.5111C30.4752 16.4626 30.3605 16.392 30.2061 16.3082L30.2105 16.3038Z" fill="#0D1853"/>
<path fill-rule="evenodd" clip-rule="evenodd" d="M22.191 18.7256C21.5337 19.255 20.8323 19.5593 20.2897 19.5505C19.5442 19.5329 19.1472 19.0917 19.1031 18.2139C19.0855 17.8169 19.0811 17.0582 19.0943 16.3259C19.0943 16.1671 19.1075 15.7392 19.1296 15.0378C19.1428 14.6452 19.156 14.1777 19.1649 13.7321C19.1825 12.7881 19.1825 12.6822 19.1516 12.3382C19.1516 12.3073 19.1384 12.2323 19.1208 12.122C18.34 12.1573 17.9297 12.1617 17.418 12.1529C17.1975 12.1485 17.0563 12.1441 16.5975 12.1176L16.4343 12.1088V12.3602C17.4004 12.444 17.5945 12.8675 17.5548 14.8129V15.1261L17.5018 16.5994L17.4886 17.0802C17.4577 18.4521 17.546 18.9021 17.9209 19.4182C18.2914 19.9299 18.8605 20.1946 19.606 20.2078C20.5059 20.2254 21.4719 19.8637 22.1821 19.2373L22.2042 20.1019C22.5968 20.0313 22.8835 20.0181 23.7128 20.0358C24.1319 20.0446 24.4098 20.0578 24.9303 20.0799L24.9392 19.7534C24.8642 19.7534 24.8024 19.7534 24.7583 19.7534C24.0172 19.7402 23.7658 19.4446 23.7393 18.5536L23.7128 17.6316C23.6996 17.2434 23.6996 16.6215 23.7128 15.7657L23.7349 14.2218V14.1115C23.7658 12.7131 24.0128 12.3382 24.9039 12.3602H24.9303V12.0867H24.7759L23.9863 12.1264L23.1659 12.1353L22.5659 12.1088L22.3057 12.1C22.2439 12.5234 22.2571 12.6028 22.2174 13.2204L22.1998 14.2526L22.1866 15.1437C22.1733 15.9421 22.1689 16.4009 22.1689 16.52C22.1689 16.7759 22.1733 17.2876 22.1821 18.0507L22.1954 18.7212L22.191 18.7256Z" fill="#0D1853"/>
<path fill-rule="evenodd" clip-rule="evenodd" d="M6.67227 12.0514L6.5664 12.1396C6.51788 12.1793 6.47376 12.219 6.43406 12.2499C6.23556 12.4175 6.16939 12.4572 6.05911 12.4528C5.98853 12.4528 5.89148 12.4219 5.76797 12.3734C5.22098 12.1396 4.73574 12.0293 4.14023 12.0073C1.89051 11.9279 0.081906 13.7056 0.00250398 16.0744C-0.0724868 18.2535 1.54643 20.1151 3.58 20.1857C5.09305 20.2386 6.45171 19.3387 7.17956 17.8036L6.93253 17.6536C6.27967 18.8358 5.38419 19.4402 4.35197 19.4049C2.76393 19.3475 1.6126 17.6139 1.692 15.3907C1.75817 13.56 2.73746 12.3999 4.18434 12.4528C5.35331 12.4925 6.19145 13.3306 6.5664 14.8304L6.91489 14.751C6.77814 14.2834 6.67668 13.5424 6.67668 13.0527V12.0514H6.67227Z" fill="#0D1853"/>
<path fill-rule="evenodd" clip-rule="evenodd" d="M59.7088 12.122C59.6515 12.6205 59.6471 12.8058 59.6559 13.3748L59.6735 14.3541L59.6912 15.8318L59.7088 17.3978C59.7265 18.7256 59.7 19.0035 59.5412 19.2638C59.3868 19.5196 59.0295 19.6784 58.5972 19.6917H58.5266V20.0313L58.7295 20.0181L59.528 19.9608C59.6956 19.9475 59.8764 19.9387 60.0661 19.9343C60.5646 19.921 61.0542 19.9299 61.3763 19.9519L62.1615 20.0093H62.3026V19.6784C61.4115 19.6784 61.1381 19.3564 61.1116 18.2757V18.1698L61.0939 16.8905C61.0851 15.9465 61.0763 15.3995 61.0763 15.2407C61.0763 14.9452 61.0851 14.5967 61.0984 14.1953C61.1204 13.3924 61.1469 13.1763 61.266 12.9249C61.4248 12.5896 61.7203 12.4484 62.3114 12.422V12.1352C62.1218 12.1485 62.0379 12.1573 61.91 12.1573C61.6718 12.1617 61.4601 12.1661 60.8028 12.1661C60.5822 12.1661 60.419 12.1617 60.3132 12.1529C60.0044 12.1308 59.8411 12.1264 59.8235 12.122H59.7044H59.7088Z" fill="#0D1853"/>
<path fill-rule="evenodd" clip-rule="evenodd" d="M73.8903 16.0921C75.3284 15.598 75.9239 14.9452 75.8842 13.9085C75.8401 12.6249 74.8299 11.9808 72.9639 12.0426L72.7566 12.0514L71.6274 12.1264C71.5127 12.1308 71.398 12.1396 71.2833 12.144C70.8201 12.1617 70.3481 12.1529 70.0525 12.1308L69.5717 12.0911L69.4261 12.0823L69.4173 12.3866C70.304 12.4219 70.4804 12.6557 70.5245 13.8776V13.9835C70.5422 14.5261 70.5466 14.9143 70.5466 15.1437V16.5023C70.5378 18.1609 70.5334 18.2624 70.4893 18.6991C70.4628 18.9329 70.4143 19.1182 70.3481 19.2461C70.1981 19.5328 69.9158 19.6563 69.3291 19.6916L69.3379 20.0225L69.5453 20.0092L70.3481 19.9607L70.6392 19.9475C71.3627 19.921 72.2185 19.9475 73.1404 20.0357L73.1625 19.7181C72.2096 19.6563 72.0155 19.4181 71.9758 18.28L71.967 18.0859C71.9582 17.6713 71.9538 17.3934 71.9582 17.261L71.9802 15.748L71.9891 14.3805L72.0332 12.8234V12.6116C72.2758 12.5631 72.3728 12.5499 72.5405 12.5455C73.6124 12.5057 74.3182 13.0527 74.3535 13.9306C74.3844 14.8878 73.4712 15.8142 72.1788 16.1318C72.9198 16.617 73.1272 16.8905 73.6697 18.1036C74.3667 19.6652 75.0902 20.3004 76.14 20.2651C76.612 20.2474 76.9914 20.1239 77.3575 19.8593C76.6208 19.7931 76.1444 19.3299 75.3813 17.9316C74.8299 16.9258 74.7373 16.7714 74.4991 16.4891C74.2961 16.2421 74.1814 16.1759 73.8815 16.0965L73.8903 16.0921Z" fill="#0D1853"/>
<path fill-rule="evenodd" clip-rule="evenodd" d="M44.4941 12.4837C45.9587 12.4837 47.0218 14.2703 47.0218 16.745V16.9479C46.9644 18.7432 46.188 19.7666 44.8779 19.7666C43.4619 19.7666 42.3503 17.8875 42.3503 15.4966C42.3503 13.6042 43.1487 12.4837 44.4897 12.4837H44.4941ZM44.7323 11.9808C42.4473 11.9808 40.6255 13.8247 40.6255 16.1406C40.6255 18.4565 42.4826 20.2122 44.7323 20.2122C46.9821 20.2122 48.8304 18.408 48.8304 16.0392C48.8304 13.6703 47.0041 11.9808 44.7323 11.9808Z" fill="#0D1853"/>
<path fill-rule="evenodd" clip-rule="evenodd" d="M11.6035 12.4882C13.0989 12.5279 14.1356 14.3585 14.0694 16.8553L14.0606 17.0273C13.9679 18.7962 13.1783 19.802 11.8991 19.7667C10.4742 19.727 9.37585 17.8081 9.44202 15.4437C9.49054 13.5204 10.2757 12.4484 11.6035 12.4837V12.4882ZM11.877 11.9809C9.60965 11.9191 7.75693 13.7101 7.69959 16.0215C7.64224 18.2669 9.42438 20.146 11.6697 20.2078C14.0076 20.2695 15.8251 18.5051 15.8868 16.1274C15.9442 13.9086 14.14 12.0382 11.877 11.9809Z" fill="#0D1853"/>
<path fill-rule="evenodd" clip-rule="evenodd" d="M39.0858 2.43054C38.6799 3.5951 38.0976 4.48617 37.0698 4.81701C36.1347 5.12139 35.5083 5.29343 34.7584 5.91541C36.0817 5.22285 37.0301 5.19197 37.7095 4.83466L37.7712 4.80378C37.1051 5.58457 36.6375 6.57709 36.5096 7.56962C35.1024 7.9181 32.8351 7.52991 33.7923 5.80071C34.0878 5.38606 34.5157 5.01993 34.9304 4.75967C34.7672 4.60968 34.6525 4.54793 34.4407 4.46412C34.7231 4.1818 35.7685 3.96124 35.7685 3.96124L35.3715 3.60393C35.6185 3.39219 36.2493 3.28632 36.7081 3.18045C36.8096 3.09664 36.8493 2.99959 36.8272 2.86284C38.2917 2.50112 39.0813 2.43054 39.0813 2.43054H39.0858Z" fill="#0D1853"/>
<path fill-rule="evenodd" clip-rule="evenodd" d="M40.8815 3.57747C41.4329 3.84214 41.9181 5.23167 42.2446 6.13156C42.4342 6.77119 42.2578 7.32259 41.7064 7.79459C41.4329 8.04162 41.1153 8.271 40.8109 8.46951C40.8683 7.39758 40.8153 6.29037 40.5507 5.27578L40.4271 4.95818C40.4933 6.20655 40.6521 7.54315 40.4536 8.79594C40.4845 9.08708 40.3786 9.38263 40.3874 9.66936C39.289 9.70024 38.6229 10.7986 37.7363 11.2221C37.5201 11.2971 37.2378 11.3236 37.0217 11.2883C36.6908 10.0267 36.6247 8.53568 36.9246 7.21231C37.2731 5.40812 38.9714 4.15975 39.3199 2.36438C39.3376 3.22898 40.2904 3.32161 40.8947 3.57747H40.8815Z" fill="#0D1853"/>
<path fill-rule="evenodd" clip-rule="evenodd" d="M36.4565 7.82546C36.4256 8.57978 36.4918 9.44879 36.5888 10.1855C36.2006 9.86785 35.7904 9.4929 35.3184 9.34292C35.186 8.86209 35.0758 8.34598 35.0934 7.82104C35.4992 7.90927 36.0198 7.95338 36.4565 7.82104V7.82546Z" fill="#0D1853"/>
<path fill-rule="evenodd" clip-rule="evenodd" d="M40.0076 1.55716L39.8444 1.40718L39.69 1.19985L39.3768 0.661683C39.1298 0.198505 38.6446 0 37.7447 0C36.7125 0 36.5272 0.136748 36.461 0.961646C36.3949 1.80419 36.0155 2.27619 35.2126 2.52763C35.4553 2.68643 35.5788 2.71731 35.967 2.71731C36.2316 2.71731 36.5184 2.67761 37.0565 2.55851C38.724 2.19238 39.1033 2.13944 40.0738 2.13944C40.2062 2.13944 40.3164 2.13944 40.3958 2.14826H40.4311C40.537 2.14826 40.5855 2.1218 40.5855 2.05563C40.5855 1.96299 40.5017 1.85712 40.365 1.78213L40.0121 1.55716H40.0076Z" fill="#0D1853"/>
<path fill-rule="evenodd" clip-rule="evenodd" d="M42.4168 8.24451C42.7388 8.24451 42.9946 8.50477 42.9946 8.8312C42.9946 9.15763 42.7388 9.41789 42.4124 9.41789C42.0859 9.41789 41.8301 9.15763 41.8301 8.8312C41.8301 8.50477 42.0903 8.24451 42.4124 8.24451H42.4168ZM42.4168 8.31509C42.1345 8.31509 41.9095 8.54447 41.9095 8.8312C41.9095 9.11793 42.1345 9.34731 42.4168 9.34731C42.6991 9.34731 42.9241 9.11793 42.9241 8.8312C42.9241 8.54447 42.6991 8.31509 42.4168 8.31509ZM42.1962 8.47389H42.3771C42.5006 8.47389 42.5712 8.49595 42.6197 8.53124C42.6638 8.56653 42.6903 8.61505 42.6903 8.6724C42.6903 8.80473 42.5844 8.84885 42.5138 8.86649L42.7432 9.17969H42.6373L42.4212 8.87531H42.2977V9.17969H42.2006V8.47389H42.1962ZM42.2933 8.81355H42.4168C42.5226 8.81355 42.5844 8.76062 42.5844 8.67681C42.5844 8.56653 42.4918 8.54006 42.3771 8.54006H42.2933V8.80914V8.81355Z" fill="#0D1853"/>
<path fill-rule="evenodd" clip-rule="evenodd" d="M69.0737 27.8039C69.3958 27.8039 69.6516 28.0642 69.6516 28.3906C69.6516 28.717 69.3958 28.9773 69.0737 28.9773C68.7517 28.9773 68.4915 28.717 68.4915 28.3906C68.4915 28.0642 68.7473 27.8039 69.0737 27.8039ZM69.0737 27.8745C68.7958 27.8745 68.5709 28.1039 68.5709 28.3906C68.5709 28.6773 68.7958 28.9067 69.0781 28.9067C69.3605 28.9067 69.581 28.6773 69.581 28.3906C69.581 28.1039 69.3561 27.8745 69.0781 27.8745H69.0737ZM68.8532 28.0333H69.0384C69.162 28.0333 69.2325 28.0553 69.2767 28.0906C69.3208 28.1259 69.3428 28.1744 69.3428 28.2318C69.3428 28.3641 69.2369 28.4082 69.1708 28.4259L69.3958 28.7391H69.2899L69.0737 28.4347H68.9502V28.7391H68.8532V28.0333ZM68.9502 28.3729H69.0781C69.184 28.3729 69.2458 28.32 69.2458 28.2362C69.2458 28.1259 69.1531 28.0994 69.0429 28.0994H68.9546V28.3685L68.9502 28.3729Z" fill="#0D1853"/>
<path fill-rule="evenodd" clip-rule="evenodd" d="M29.8397 31.7035L30.0161 31.6726C30.6249 31.5623 30.9822 31.5006 31.0881 31.4873C31.613 31.4035 32.1159 31.3418 32.5967 31.3065C32.8614 31.2844 33.1657 31.2712 33.5142 31.2579C34.6391 31.2227 34.9346 31.2315 37.052 31.3815C38.6798 31.4917 40.0693 31.5491 40.7001 31.527C43.0998 31.452 44.9481 30.3889 46.3862 28.2627L47.3743 26.8026L48.3492 25.391C48.8344 24.6896 49.0858 24.3279 49.1035 24.3059C49.1211 24.2838 49.1432 24.2485 49.1829 24.2L49.2094 24.222L49.152 24.3456C49.0064 24.6676 48.9226 24.8484 48.9094 24.8926C48.8432 25.0514 48.755 25.2455 48.6844 25.466C48.5433 25.916 48.53 25.9865 48.38 26.8158L48.2256 27.804C48.0095 29.0479 47.9477 29.2376 47.5904 29.8155C47.4802 29.9963 47.4581 30.0316 47.4625 30.0757C47.4625 30.1199 47.5022 30.1551 47.5419 30.1551C47.5948 30.1551 47.6478 30.0846 47.736 29.9258C48.6932 28.1216 50.5415 25.6778 51.6532 24.7514C52.6192 23.9441 53.797 23.4324 54.7587 23.4016C55.6189 23.3751 56.2453 23.7721 56.2585 24.3676C56.2761 24.9146 55.9056 25.3469 55.1998 25.5984C55.8526 25.5366 56.382 24.972 56.3599 24.3544C56.3379 23.6001 55.5792 23.106 54.5028 23.1413C53.6691 23.1678 52.7648 23.5515 51.8605 24.2573C51.1768 24.7999 50.6518 25.3646 50.0078 26.2556C49.4696 27.0011 48.7991 27.9672 48.2962 28.77L48.1551 28.9994H48.0845C48.1374 28.8979 48.1815 28.8185 48.208 28.7612C48.2301 28.7127 48.3051 28.5406 48.4286 28.2407C48.5609 27.9231 48.6403 27.729 48.6712 27.6496C48.7197 27.4996 48.7815 27.2834 48.852 27.0011C48.905 26.785 48.9447 26.6173 48.9667 26.4982L49.1079 25.6689C49.2799 24.6455 49.4608 23.9883 49.6858 23.556L49.8005 23.3442C49.8093 23.3222 49.8181 23.2869 49.8181 23.2736C49.8181 23.2472 49.8005 23.2251 49.774 23.2295C49.7387 23.2295 49.6946 23.2692 49.6505 23.3486C49.5755 23.4854 49.4211 23.7059 49.1829 24.0191C49.0153 24.2441 48.7153 24.6632 48.2874 25.2807C47.4493 26.4982 46.7788 27.4246 46.2538 28.0951C45.3936 29.1935 44.529 29.9566 43.5409 30.4816C42.5308 31.0153 41.4368 31.2844 40.0693 31.3285C39.3547 31.3506 38.5915 31.3285 37.0564 31.2403C35.2875 31.1344 34.52 31.1124 33.6201 31.1433C32.1467 31.1874 30.5764 31.4167 29.8176 31.6947L29.8397 31.7035Z" fill="#0D1853"/>
<path fill-rule="evenodd" clip-rule="evenodd" d="M20.8763 23.9617C20.8763 24.1514 20.6205 24.5351 20.2279 24.9454C19.4383 25.7747 19.028 26.0967 18.2208 26.5025C17.6958 26.7672 17.2724 26.9393 16.915 27.0231C17.0606 26.8554 17.0871 26.829 17.365 26.5467C17.5238 26.3879 17.6694 26.2335 17.8105 26.0879C18.1237 25.757 18.309 25.563 18.3619 25.51C18.5604 25.3159 18.6795 25.1924 18.7192 25.1483C18.7281 25.1439 18.7457 25.1218 18.7722 25.0865C18.9398 25.113 19.028 25.1174 19.2133 25.1218C19.3192 25.1218 19.3897 25.1218 19.4294 25.1218C19.4471 25.1218 19.4824 25.113 19.5353 25.1042C19.425 25.0821 19.3986 25.0777 19.2221 25.0557C19.1427 25.0468 19.0765 25.038 19.0236 25.0292L18.878 25.0116C19.6632 24.2131 20.3117 23.7499 20.6293 23.7544C20.7749 23.7544 20.8719 23.8426 20.8719 23.9617H20.8763ZM12.8744 26.6878C12.9097 25.832 15.2697 25.0954 18.0267 25.0954H18.1193L18.0267 25.1924L17.6826 25.5277C17.5635 25.6424 17.387 25.8276 17.1488 26.0879C16.9062 26.3437 16.7386 26.5378 16.6327 26.6613L16.2842 27.0892L16.1563 27.2348H16.1475C15.6358 27.3451 14.9697 27.4113 14.4845 27.4024C13.5184 27.3848 12.87 27.0937 12.8744 26.6878ZM11.3966 28.7699C11.3966 28.6243 11.7407 28.5273 12.2171 28.5361C12.6626 28.5449 13.1567 28.6552 13.8581 28.8934C13.5405 29.0169 13.0332 29.0919 12.6009 29.0831C11.8289 29.0655 11.3922 28.9552 11.3966 28.7699ZM20.4264 26.9172C20.4176 27.2922 19.6103 27.9627 18.8295 28.2229C19.3721 27.4598 20.047 26.8113 20.294 26.8157C20.3779 26.8157 20.4308 26.8554 20.4308 26.9172H20.4264ZM20.5234 26.9084C20.5234 26.7981 20.444 26.7187 20.3249 26.7143C20.0205 26.7099 19.3059 27.1731 18.4413 27.9318C17.6517 28.6288 16.9503 28.889 15.9402 28.8714C15.5079 28.867 14.9873 28.8052 14.6786 28.7346C15.3049 28.4082 15.9975 27.9141 16.4078 27.5127L16.6415 27.2789L16.7386 27.1863L16.8048 27.1686C17.837 26.8599 18.7898 26.3702 19.4603 25.8056C20.294 25.1086 20.9557 24.2881 20.9601 23.9396C20.9601 23.7676 20.841 23.6705 20.6249 23.6661C20.1441 23.6573 19.2045 24.1646 18.2649 24.9763H18.1546L17.4135 24.9586C14.9697 24.9586 12.7861 25.7615 12.7685 26.6746C12.7597 27.1686 13.4169 27.4774 14.5374 27.4951C14.9476 27.5039 15.4593 27.4598 15.9887 27.3716L16.0946 27.3539L15.9666 27.4907C15.3888 28.1126 14.9829 28.4214 14.383 28.6949L14.2639 28.6773L13.7257 28.5891C13.1964 28.5052 12.6847 28.4479 12.3318 28.4435C11.701 28.4302 11.3128 28.5582 11.3084 28.7743C11.304 29.0478 11.7363 29.1934 12.6053 29.211C13.064 29.2154 13.536 29.1405 14.1095 28.9508L14.2507 28.9949L14.7094 29.1449C14.9829 29.2331 15.4196 29.2993 15.7858 29.3037C16.4739 29.3169 17.1753 29.0743 17.7223 28.642L18.2869 28.1965L18.3884 28.1171C18.2649 28.3729 18.1943 28.5802 18.1943 28.7302C18.1899 28.9949 18.384 29.2022 18.6354 29.2066C18.8604 29.2066 19.1383 29.0522 19.8 28.5582C20.519 28.0156 20.669 27.9053 20.9601 27.72L21.0087 27.6892C20.9645 27.7112 20.9293 27.7289 20.9116 27.7377C20.6513 27.8788 20.4484 28.0024 20.2985 28.1082L19.6897 28.5494C19.1118 28.9684 18.8339 29.1184 18.6398 29.1184C18.5251 29.1184 18.4149 29.0611 18.309 28.9508L18.3355 28.9067C18.4237 28.7567 18.4766 28.6685 18.4898 28.6464C18.5119 28.6111 18.556 28.5361 18.631 28.4302L18.706 28.3464C19.0854 28.2759 19.4956 28.0685 19.8794 27.7553C20.2587 27.451 20.5102 27.1069 20.519 26.904L20.5234 26.9084Z" fill="#0D1853"/>
<path fill-rule="evenodd" clip-rule="evenodd" d="M20.9824 26.1497C20.9956 25.2895 22.8969 24.619 25.204 24.6631C25.3583 24.6631 25.4201 24.6675 25.601 24.6984C24.6349 25.241 23.6424 26.0967 22.9939 26.9481C22.8439 26.9569 22.7734 26.9569 22.694 26.9569C21.7014 26.9393 20.9736 26.5996 20.9824 26.1541V26.1497ZM28.5565 23.5823C28.755 23.5823 28.852 23.6706 28.8476 23.8294C28.8432 24.0411 28.6756 24.2925 28.1992 24.7866L28.0183 24.7645L27.1978 24.6896C26.7435 24.6454 26.4964 24.6234 26.4523 24.6234L26.3332 24.6146C27.114 24.0499 28.1418 23.5735 28.5565 23.5779V23.5823ZM28.5874 23.4941C28.0712 23.4809 26.8449 23.9573 25.7421 24.5969C25.5613 24.5881 25.4774 24.5881 25.3716 24.5837C22.8351 24.5307 20.8633 25.1968 20.8457 26.11C20.8324 26.6658 21.45 26.979 22.6896 27.0496L22.8925 27.0628C22.4999 27.6583 22.3322 28.148 22.319 28.7302C22.3014 29.586 22.7204 30.1242 23.413 30.1374C24.1541 30.1551 25.1554 29.5728 25.9053 28.6994C26.2009 28.3509 26.395 27.9539 26.3994 27.676C26.4082 27.3186 26.1524 27.076 25.7509 27.0672C25.2525 27.0584 24.5467 27.3804 24.035 27.848C23.7306 28.1259 23.5586 28.4303 23.5497 28.6905C23.5453 28.9464 23.7306 29.1272 24.0041 29.1317C24.2952 29.1361 24.6526 28.9861 24.9922 28.717L24.8422 28.7832L24.5952 28.8934C24.3835 28.9905 24.1805 29.039 24.0262 29.0346C23.8012 29.0302 23.638 28.889 23.6424 28.6994C23.6468 28.4523 23.8012 28.1832 24.0923 27.9142C24.5467 27.4995 25.1422 27.2304 25.5921 27.2392C25.9539 27.2437 26.1612 27.4377 26.1568 27.7509C26.148 28.2538 25.6495 28.9331 24.9128 29.4537C24.3835 29.8242 23.8321 30.0448 23.4395 30.036C22.8837 30.0227 22.5308 29.6875 22.544 29.1802C22.5572 28.6552 23.0292 27.7245 23.6644 26.9657C24.1541 26.9349 25.1995 26.6349 25.9627 26.3129C26.6994 25.9997 27.4669 25.5145 28.1859 24.9101L28.0757 24.8748C27.0302 25.8232 25.204 26.6702 23.7659 26.8599L23.8938 26.7143C24.5952 25.9115 25.6451 24.9983 26.1965 24.7028C26.5317 24.7204 26.6288 24.7293 27.1625 24.7822C27.6522 24.8351 27.7581 24.8439 28.0801 24.866L28.1904 24.9013L28.305 24.9145L30.021 25.1571C32.0899 25.4483 34.4587 25.6644 35.9056 25.6953C39.1169 25.7659 41.2432 25.2189 42.5136 24.0058L42.5533 23.9617L42.4165 24.0499C41.3314 24.7645 40.6035 25.0204 39.1302 25.2189C38.0494 25.3645 36.6952 25.4351 35.4292 25.4086C34.2514 25.3821 31.5958 25.166 29.6196 24.9366L28.4903 24.8042L28.3403 24.791C28.7594 24.3322 28.9403 24.0499 28.9447 23.8294C28.9447 23.6309 28.8035 23.4897 28.5874 23.4853V23.4941Z" fill="#0D1853"/>
<path fill-rule="evenodd" clip-rule="evenodd" d="M26.7878 29.1449C27.0172 29.1493 27.5377 28.7699 27.8509 28.3641L28.2391 27.8701L28.2744 27.8259H28.217C27.9877 27.8171 27.8774 27.7333 27.8774 27.5613C27.8774 27.526 27.8818 27.4951 27.9171 27.3848C27.9215 27.3672 27.9303 27.3407 27.9391 27.3054C27.4318 27.7598 26.8407 28.5362 26.5849 29.0743C26.6599 29.1361 26.6952 29.1493 26.779 29.1493L26.7878 29.1449ZM28.7949 26.9172C28.7949 26.8422 28.7464 26.7893 28.6758 26.7893C28.5964 26.7893 28.4729 26.8467 28.3538 26.9349C28.1509 27.0937 27.9877 27.3672 27.9833 27.548C27.9833 27.6495 28.0891 27.7333 28.2215 27.7333C28.2479 27.7333 28.2832 27.7377 28.3362 27.7333L28.4376 27.5966L28.5876 27.3716C28.5876 27.3716 28.6405 27.279 28.7111 27.1422C28.7596 27.0452 28.7905 26.9658 28.7905 26.9216L28.7949 26.9172ZM28.7376 29.1493C28.8611 29.1493 29.1346 28.9773 29.3728 28.7479C29.6904 28.4391 30.1095 27.9362 30.4227 27.4819C30.5726 27.2613 30.6785 27.0452 30.6785 26.9393C30.6785 26.8775 30.6388 26.8202 30.5947 26.8202C30.4359 26.8202 30.3036 26.8996 30.0521 27.1687L29.4434 27.8083C29.1213 28.148 28.7596 28.6685 28.6052 29.0258C28.6052 29.1096 28.6493 29.1537 28.7332 29.1581L28.7376 29.1493ZM27.4671 30.9888C28.0141 30.9976 28.7729 30.3359 29.4037 29.2905C29.3375 29.3169 29.2934 29.3302 29.2802 29.339C29.2537 29.3522 29.1125 29.4405 28.8523 29.5948L28.2126 29.983C27.6348 30.3359 27.3216 30.6359 27.3216 30.8432C27.3216 30.927 27.3833 30.9888 27.4671 30.9888ZM35.9984 26.8114C36.0734 26.8114 36.0999 26.8422 36.0999 26.9172C36.0955 27.1731 35.8705 27.5304 35.3147 28.1612C34.6839 28.8714 34.4501 29.0743 34.2516 29.0699C34.1501 29.0655 34.0928 29.0434 34.0751 28.9905C34.2957 28.5714 34.8339 27.8656 35.3323 27.3451C35.7205 26.9393 35.8837 26.807 36.0029 26.807L35.9984 26.8114ZM36.0514 26.7187C36.1572 26.7187 36.1925 26.7717 36.1881 26.9216C36.1881 26.9658 36.1793 27.0099 36.1661 27.0452C36.1617 27.0584 36.144 27.0981 36.1131 27.1643L36.0249 27.3539L35.9323 27.5039H36.0205L36.0999 27.4069L36.3072 27.1554C36.3072 27.1554 36.4131 27.0363 36.5675 26.8643C36.5807 26.8467 36.5984 26.829 36.6248 26.7981C36.7175 26.8158 36.7616 26.8202 36.8189 26.8202C36.9513 26.8202 37.0439 26.7981 37.2292 26.7055C37.1983 26.7408 37.1806 26.7673 37.1674 26.7849C37.1145 26.8422 36.9821 26.9922 36.766 27.2304C36.1793 27.8701 35.6191 28.5626 35.3103 29.0258C35.372 29.0434 35.4162 29.0523 35.447 29.0523C35.5661 29.0523 35.8264 28.9199 36.0778 28.7258C36.391 28.4832 36.7131 28.1877 36.8057 28.0553L37.0218 27.7598C37.1983 27.5172 37.5115 27.2701 37.9041 27.0584C38.2217 26.8908 38.4864 26.7937 38.6319 26.7937C38.7422 26.7937 38.7996 26.8687 38.7996 27.0055C38.7996 27.129 38.7334 27.2701 38.6275 27.4157C38.5569 27.5039 38.4864 27.5569 38.429 27.5569C38.3761 27.5569 38.3452 27.526 38.3496 27.4819C38.3496 27.3936 38.4378 27.3142 38.6143 27.2348L38.6849 27.204C38.7158 27.129 38.729 27.0716 38.729 27.0319C38.729 26.9349 38.6893 26.8775 38.6055 26.8775C38.4334 26.8775 38.3673 26.9216 37.9703 27.3584C37.3395 28.0509 36.9557 28.567 36.7395 29.0082C36.8366 29.0655 36.8763 29.0831 36.9424 29.0876C37.0086 29.0876 37.0792 29.0699 37.1498 29.039C37.313 28.9685 37.4762 28.8714 37.6394 28.7479C37.7365 28.6817 37.8732 28.5759 38.0585 28.4391C38.6231 28.02 38.7819 27.9362 39.051 27.9098C39.0069 27.923 38.9716 27.9362 38.9407 27.945C38.804 27.9892 38.7466 28.0245 38.429 28.2715L38.0894 28.5317L37.6526 28.867C37.3659 29.0831 37.1101 29.1978 36.916 29.1934C36.7086 29.189 36.594 29.0302 36.5984 28.7523C36.5984 28.6553 36.616 28.5803 36.6734 28.3332C36.6248 28.3685 36.5851 28.395 36.5719 28.4082C36.5675 28.4126 36.4969 28.4788 36.3646 28.5979C35.994 28.9376 35.6103 29.1537 35.3985 29.1493C35.2529 29.1493 35.1691 29.0611 35.1735 28.9111C35.1735 28.7523 35.2618 28.567 35.5264 28.1303L35.5838 28.0377L35.5529 28.0156C34.9133 28.7964 34.4766 29.1581 34.1898 29.1537C34.0222 29.1537 33.9163 29.0037 33.9252 28.7744C33.9252 28.6773 33.9428 28.5979 33.9957 28.4126C33.9384 28.4567 33.8943 28.492 33.8678 28.5097C33.312 28.9464 32.915 29.1625 32.6812 29.1581C32.5003 29.1581 32.4033 29.0434 32.4077 28.8538C32.4121 28.6641 32.6062 28.3288 32.9635 27.9053L33.4267 27.3539L33.6517 27.0805C33.7046 27.0143 33.7355 26.9525 33.7355 26.904C33.7355 26.8643 33.6958 26.8378 33.6296 26.8378C33.4664 26.8378 33.3252 26.9349 32.9106 27.3407C32.518 27.7245 32.4606 27.7862 31.9092 28.4435C31.5519 28.8714 31.5211 28.9067 31.3622 29.1273C31.2652 29.1008 31.2255 29.092 31.1549 29.092C30.9652 29.092 30.8329 29.1273 30.6609 29.2419L30.7535 29.1317C31.0182 28.8141 31.1902 28.6023 31.2696 28.4965C31.3578 28.3818 31.521 28.1524 31.7593 27.8171L32.046 27.4113C32.2048 27.1819 32.2665 27.0584 32.2665 26.9481C32.2665 26.904 32.2621 26.8864 32.2357 26.8555C32.2048 26.8864 32.1871 26.9084 32.1695 26.9261C32.1122 26.9834 32.0019 27.1025 31.8342 27.2834C31.2299 27.9495 30.5373 28.5582 30.1139 28.7876C29.4919 30.0448 28.3053 31.0682 27.4936 31.055C27.3216 31.0505 27.2069 30.9579 27.2113 30.8212C27.2157 30.5036 27.6789 30.1242 28.8126 29.4934C29.1081 29.3258 29.311 29.2067 29.4213 29.1405C29.4301 29.1317 29.461 29.114 29.5139 29.0787C29.5404 29.0479 29.5581 29.0258 29.5625 29.0214C29.5845 28.9861 29.6331 28.9023 29.708 28.7699L29.8624 28.492L30.0124 28.2274L30.0609 28.1391H30.0301C29.5228 28.792 29.0111 29.2155 28.7243 29.2111C28.5523 29.2111 28.4729 29.0876 28.4773 28.8361C28.4861 28.3862 28.7155 27.9186 29.1213 27.5083C29.0596 27.5392 29.0155 27.5613 28.9846 27.5789C28.7111 27.7201 28.5567 27.7907 28.3759 27.8127C27.8421 28.6288 27.1275 29.2464 26.7481 29.2375C26.5143 29.2375 26.3776 29.0655 26.3864 28.792C26.3952 28.3862 26.6775 27.8877 27.1142 27.526C27.4186 27.2657 27.7583 27.0584 28.2788 26.8158C28.442 26.7408 28.5832 26.6967 28.6802 26.6923H28.689C28.8081 26.6923 28.892 26.7761 28.8876 26.8864C28.8876 26.9922 28.7817 27.2348 28.6538 27.4201L28.5302 27.5966L28.4553 27.698C28.6493 27.6495 28.9317 27.5172 29.4345 27.226C30.1139 26.8334 30.4094 26.7011 30.5903 26.7055C30.7182 26.7055 30.7976 26.7849 30.7932 26.904C30.7932 27.0275 30.7447 27.1334 30.5594 27.4466L30.5947 27.4598C30.9388 27.0584 31.2079 26.8422 31.5519 26.6967C31.5299 26.7276 31.5122 26.7496 31.5078 26.7584C31.499 26.7673 31.4196 26.8643 31.2608 27.0452C30.9917 27.3584 30.5109 28.0906 30.2462 28.5935L30.383 28.492C30.6123 28.32 30.7491 28.2053 30.8064 28.1612C31.1285 27.8965 31.4549 27.5789 31.7945 27.1907C32.068 26.8819 32.0901 26.8555 32.2313 26.7364C32.3592 26.7496 32.4298 26.8775 32.4254 27.0893C32.4165 27.3848 32.2489 27.7421 31.821 28.3509H31.8828L31.9754 28.245C32.8444 27.204 33.3738 26.7364 33.6649 26.7452C33.8193 26.7452 33.9252 26.8819 33.9208 27.0716C33.9163 27.3054 33.784 27.5877 33.5414 27.8745L33.0826 28.4259L32.7209 28.8935L32.6106 29.0479C32.6547 29.0523 32.69 29.0567 32.7165 29.0567C32.8709 29.0567 33.0782 28.964 33.3649 28.7611C33.5634 28.62 33.687 28.5273 33.7355 28.4965C33.9384 28.3597 33.956 28.3421 34.0531 28.2494C34.3663 27.7465 34.5604 27.5392 35.0015 27.2216C35.4073 26.9349 35.8617 26.7187 36.0514 26.7187Z" fill="#0D1853"/>
<path fill-rule="evenodd" clip-rule="evenodd" d="M41.9669 26.807C42.0242 26.807 42.0595 26.8467 42.0595 26.8996C42.0595 27.1378 41.7551 27.601 41.1199 28.3288C40.6656 28.8494 40.348 29.1008 40.145 29.1008C40.0745 29.1008 40.0436 29.0876 39.9907 29.0302C40.1274 28.717 40.7053 27.9759 41.3405 27.301C41.6934 26.9217 41.8434 26.807 41.9713 26.807H41.9669ZM44.6886 26.8202C44.7636 26.8202 44.8209 26.8687 44.8209 26.9437C44.8209 27.1466 44.4636 27.5348 44.0269 27.8171C43.674 28.0421 43.4226 28.1436 43.1094 28.1877C43.3255 27.9142 43.5946 27.6407 44.0005 27.2701C44.4107 26.8996 44.5342 26.8246 44.6842 26.8246L44.6886 26.8202ZM44.7415 26.7276C44.596 26.7276 44.2828 26.8423 43.9122 27.0319C43.4799 27.2525 43.1182 27.526 42.9153 27.7951L42.633 28.1568C42.4962 28.3332 42.2536 28.5538 41.9448 28.77C41.8081 28.867 41.6934 28.9376 41.6007 28.9817C41.4905 29.0346 41.3802 29.0743 41.3405 29.0743C41.3184 29.0743 41.3052 29.0655 41.2743 29.0346C41.3405 28.8758 41.4067 28.7876 41.839 28.2583C42.0286 28.0201 42.1654 27.8524 42.2536 27.7554C42.3683 27.6142 42.6109 27.3319 42.977 26.9084C44.0093 25.7174 44.0975 25.6159 44.521 25.1748C44.5916 25.1042 44.7062 24.9807 44.8783 24.8087L44.9621 24.7205L44.8871 24.7557C44.6004 24.8881 44.5563 24.8969 44.1681 24.9057L44.0754 25.016L43.6431 25.5233L43.105 26.1541C42.9021 26.3923 42.6947 26.6349 42.4874 26.8864C42.1654 27.2746 42.1257 27.3187 41.9536 27.5128L41.9095 27.4687L41.9889 27.3363C42.108 27.1334 42.1433 27.0408 42.1433 26.9128C42.1433 26.8026 42.0772 26.7276 41.9801 26.7276C41.8566 26.7276 41.5919 26.8467 41.2037 27.0805C40.7273 27.3672 40.4274 27.6407 40.1847 28.0068C39.9862 28.3068 39.8804 28.5979 39.8804 28.8538C39.8804 29.1096 39.9554 29.2023 40.1318 29.2023C40.3744 29.2023 40.7361 28.9376 41.164 28.4347L41.4067 28.1524L41.4905 28.0509L41.5346 28.0598L41.4772 28.1612L41.3273 28.4082C41.2081 28.6067 41.1199 28.8229 41.1199 28.9288C41.1199 29.092 41.1949 29.1802 41.3361 29.1802C41.5346 29.1802 41.8213 29.0126 42.333 28.6023C42.3639 28.5759 42.408 28.5406 42.4698 28.4921H42.5183C42.4742 28.6288 42.4609 28.6817 42.4609 28.7832C42.4609 29.0435 42.6462 29.2243 42.9109 29.2243C43.0917 29.2243 43.3917 29.0964 43.7005 28.8935L44.3181 28.4788L44.8827 28.1039C45.1077 27.9539 45.2444 27.8613 45.2929 27.8392C45.3106 27.826 45.3371 27.8083 45.3812 27.7863C45.1562 27.826 44.9886 27.9186 44.2784 28.3994L43.6828 28.7964C43.3785 28.9993 43.0697 29.1317 42.8888 29.1317C42.7565 29.1317 42.6771 29.0832 42.5844 28.9464C42.6153 28.8847 42.6374 28.845 42.6506 28.8229C42.6506 28.8185 42.708 28.7347 42.8182 28.5803L42.9329 28.4127L43.0035 28.32C43.449 28.2803 44.0181 28.0024 44.4636 27.6054C44.7415 27.3584 44.9268 27.0849 44.9268 26.9217C44.9268 26.8158 44.8474 26.7408 44.7327 26.7408L44.7415 26.7276Z" fill="#0D1853"/>
<path fill-rule="evenodd" clip-rule="evenodd" d="M51.2964 26.807C51.3273 26.807 51.3406 26.8379 51.345 26.9085C51.3538 27.1775 50.9921 27.7686 50.4936 28.3112C50.0084 28.8317 49.6731 29.0964 49.4834 29.1008C49.404 29.1008 49.3731 29.092 49.3158 29.0347C49.5981 28.5097 50.1628 27.7995 50.7671 27.1996C51.0141 26.9526 51.2082 26.807 51.292 26.8026L51.2964 26.807ZM55.0857 29.0655C54.993 29.0655 54.9357 29.0523 54.8078 28.995C55.1254 28.4171 55.7738 27.5922 56.2282 27.1908C56.1708 27.3319 56.1488 27.4069 56.1532 27.4951C56.1532 27.676 56.2944 27.7731 56.559 27.7819C56.1091 28.4656 55.4342 29.0523 55.0813 29.0611L55.0857 29.0655ZM56.9693 26.7188C57.0619 26.7188 57.106 26.7541 57.1104 26.8335C57.1104 26.9393 57.0222 27.1246 56.7884 27.4819C56.7619 27.526 56.7178 27.5878 56.6693 27.6716H56.5987C56.3693 27.6848 56.2635 27.6187 56.2591 27.4731C56.2591 27.3363 56.3649 27.1422 56.5502 26.9658C56.7046 26.8114 56.8502 26.7232 56.9737 26.7232L56.9693 26.7188ZM60.2512 26.8158C60.3174 26.8158 60.3439 26.8379 60.3439 26.904C60.3439 27.0276 60.2027 27.2437 59.9777 27.4599C59.5278 27.8877 59.1219 28.1127 58.7117 28.1656L58.8043 28.051C59.4528 27.2393 59.938 26.8246 60.2512 26.8158ZM60.2689 29.0788C60.163 29.0788 60.1145 29.0567 60.0395 28.9685C60.1542 28.7788 60.2733 28.62 60.6571 28.1524C61.0011 27.7334 61.1732 27.5437 61.3717 27.3672C61.3628 27.4157 61.3628 27.4554 61.3628 27.4863C61.3717 27.6848 61.5128 27.7775 61.804 27.7642C61.2879 28.4524 60.5732 29.07 60.2689 29.0788ZM60.7982 24.2617C60.8511 24.2617 60.8688 24.2794 60.8688 24.3323C60.8688 24.4602 60.7497 24.6896 60.4762 25.0602C59.9071 25.8233 58.9764 26.6482 58.2397 27.0408L58.3809 26.8379L58.8705 26.2468L59.4572 25.5189C60.0968 24.7293 60.5909 24.2617 60.7938 24.2573L60.7982 24.2617ZM62.1789 26.7496C62.2583 26.7496 62.3113 26.7982 62.3157 26.882C62.3157 27.0055 62.1833 27.2525 61.8834 27.6672C61.8348 27.676 61.7907 27.6804 61.7643 27.6804C61.5878 27.6848 61.4555 27.5922 61.4511 27.4554C61.4511 27.3672 61.5437 27.204 61.7025 27.0364C61.8613 26.8687 62.0466 26.7541 62.1745 26.7496H62.1789ZM62.2098 26.6747C62.0642 26.6791 61.5878 26.8776 61.1423 27.1158C60.8467 27.2746 60.6791 27.4157 60.1542 27.9539L59.9557 28.1392C59.3293 28.7126 58.7735 29.0611 58.4603 29.0699C58.3103 29.0699 58.2529 29.0391 58.1647 28.8979C58.275 28.7126 58.3191 28.6465 58.3985 28.545L58.5397 28.3642L58.6147 28.2671C59.0778 28.2406 59.5719 27.9804 60.0483 27.5172C60.3086 27.2569 60.463 27.0231 60.463 26.8908C60.463 26.7805 60.3924 26.7188 60.2953 26.7188C59.6469 26.7408 58.6411 27.4819 58.1603 28.298C58.0191 28.4568 57.7589 28.6862 57.4589 28.9156C57.3354 29.0082 57.1942 29.0744 57.106 29.0744C57.009 29.0744 56.9516 29.0435 56.9031 28.9508C56.9869 28.77 57.0134 28.7215 57.1678 28.4921C57.3619 28.2053 57.4104 28.1348 57.728 27.6804C57.8736 27.4731 57.9044 27.4334 58.0191 27.2878C58.9676 26.7894 59.8895 25.9997 60.56 25.1043C60.8247 24.7514 60.9747 24.4602 60.9658 24.3058C60.9658 24.2132 60.9085 24.1647 60.8203 24.1647C60.6306 24.1691 60.2203 24.447 59.6645 24.9499C58.8088 25.7218 58.0765 26.5247 57.4369 27.3716L57.3575 27.4819L57.181 27.5348L56.9163 27.6054L56.7972 27.6363C57.0796 27.2481 57.2119 26.9834 57.2119 26.8291C57.2119 26.7055 57.1325 26.6305 57.0178 26.635C56.8149 26.6438 56.2767 26.882 55.8047 27.1775C55.4386 27.4069 55.1518 27.6628 55.0019 27.8922C54.8916 28.0598 54.8342 28.148 54.8298 28.1524C54.8122 28.1745 54.7857 28.2009 54.746 28.2406C54.6534 28.32 54.5519 28.4083 54.4416 28.4965C53.974 28.867 53.63 29.07 53.4712 29.0788C53.4535 29.0788 53.4227 29.0788 53.3785 29.0655C53.4756 28.867 53.5859 28.7082 53.9785 28.2098C54.5431 27.4907 54.671 27.2613 54.6666 26.9658C54.6622 26.7893 54.5607 26.6791 54.4063 26.6835C54.1329 26.6923 53.577 27.1864 52.7433 28.1612L52.6198 28.3024H52.5625L52.6419 28.148L52.9595 27.6098L53.1977 27.1996L53.4579 26.7717L53.7006 26.4056L53.7667 26.3085L53.8373 26.2424L54.0093 26.0703C54.0535 26.0306 54.1064 25.9821 54.1726 25.9336C54.3137 25.8277 54.3446 25.7924 54.3402 25.7439C54.3402 25.713 54.3181 25.691 54.2828 25.6954C54.252 25.6954 54.2167 25.7086 54.1902 25.7307C54.177 25.7439 54.1461 25.7704 54.102 25.8145L53.9917 25.9247L53.7623 26.1674L53.3388 26.6129C53.1933 26.7673 52.9903 26.9834 52.7433 27.2702C51.9846 28.1259 51.8346 28.2892 51.5082 28.5759C51.3406 28.7303 51.1553 28.8626 50.9568 28.9773C50.8774 29.0258 50.7406 29.0744 50.6877 29.0744C50.6568 29.0744 50.6259 29.0655 50.5774 29.0391L50.6303 28.9773L51.0009 28.523L51.4773 27.9274L51.9581 27.3672L52.364 26.8864L52.5007 26.7276C52.4566 26.7408 52.4213 26.7496 52.3992 26.7585C52.2316 26.8114 52.2052 26.8158 52.0949 26.8202C51.9934 26.8202 51.9581 26.8202 51.8611 26.7938L51.8037 26.8643L51.6096 27.1114C51.5699 27.1599 51.4817 27.2702 51.3273 27.451C51.3008 27.4775 51.27 27.5216 51.2214 27.579H51.1641C51.1906 27.5348 51.2082 27.4996 51.217 27.4819C51.3979 27.1378 51.442 27.0055 51.4376 26.8643C51.4376 26.7717 51.3935 26.7188 51.3185 26.7232C51.2126 26.7232 51.0141 26.7982 50.7539 26.9305C50.3304 27.1422 49.9334 27.4422 49.6819 27.7378C49.3731 28.1039 49.1791 28.5627 49.1923 28.8935C49.1923 29.0876 49.2937 29.2023 49.4525 29.1979C49.6952 29.1891 49.9554 28.9994 50.5333 28.3994L50.6392 28.2936H50.6965C50.5157 28.5847 50.4362 28.7876 50.4451 28.9376C50.4451 29.0788 50.5554 29.1802 50.6965 29.1758C51.0979 29.1626 51.817 28.5406 52.9286 27.2437L53.0212 27.1334H53.0653L52.9859 27.2437C52.6286 27.7157 52.3154 28.1524 51.7023 29.0214C50.7803 30.336 50.4274 30.7815 49.6687 31.5932C49.8628 31.4564 50.0789 31.377 50.2686 31.3726C50.3392 31.3726 50.3877 31.3726 50.5245 31.3991C50.5686 31.3285 50.5906 31.2888 50.5995 31.2756C50.7009 31.1212 50.9127 30.8256 51.2391 30.3889C51.2876 30.3183 51.5655 29.9301 52.0728 29.2111C52.6772 28.3509 53.3785 27.5348 53.9123 27.0849C54.1549 26.8776 54.3005 26.7893 54.3843 26.7849C54.3931 26.7849 54.4152 26.7849 54.4461 26.7893C54.4461 26.9746 54.424 27.0055 54.1196 27.3231C54.027 27.4202 53.8549 27.6363 53.6123 27.976C53.4579 28.1833 53.3477 28.3421 53.2771 28.4524C53.1844 28.5935 53.1271 28.7568 53.1315 28.8714C53.1359 29.0479 53.2727 29.1802 53.4491 29.1758C53.6785 29.1714 53.9608 28.995 54.6093 28.4788L54.7063 28.3994C54.6975 28.4612 54.6931 28.5097 54.6887 28.5406C54.671 28.6641 54.6666 28.6818 54.671 28.7259C54.6798 29.017 54.8254 29.1714 55.0769 29.167C55.4739 29.1538 56.1973 28.5318 56.6958 27.7686C56.9252 27.7245 57.1148 27.6716 57.2428 27.6187C57.2163 27.6672 57.1942 27.7025 57.181 27.7289C56.8546 28.3112 56.7575 28.5759 56.7619 28.8317C56.7708 29.0523 56.8899 29.1846 57.0796 29.1758C57.2736 29.1714 57.4942 29.0523 57.7898 28.792L57.9441 28.6553L58.0721 28.545C58.05 28.6641 58.0412 28.7391 58.0412 28.792C58.0456 29.0258 58.2132 29.1802 58.447 29.1714C58.7779 29.1582 59.3116 28.845 59.938 28.2848L60.0483 28.1877C60.0307 28.2495 60.0174 28.2936 60.0042 28.3245C59.9248 28.5715 59.8983 28.695 59.9027 28.8317C59.9116 29.0435 60.0439 29.1846 60.2292 29.1802C60.6129 29.167 61.3143 28.5759 61.901 27.7598C62.3201 27.6892 62.5803 27.5128 63.0568 26.9702L63.1317 26.8864C63.1185 27.2216 62.3818 28.3068 61.5128 29.2773C61.7643 29.1361 61.8834 29.0876 61.9981 29.0876C62.051 29.0876 62.1039 29.0964 62.2186 29.1361C63.07 27.976 64.186 26.8732 64.5125 26.8599C64.5477 26.8599 64.5654 26.8599 64.6139 26.8908C64.6051 26.9305 64.5963 26.957 64.5963 26.9614C64.5786 27.0055 64.4904 27.1158 64.3448 27.3055L63.9258 27.8348L63.6479 28.1789C63.3523 28.545 63.242 28.7612 63.2464 28.9685C63.2553 29.167 63.3964 29.2861 63.6214 29.2773C63.9258 29.2685 64.3139 29.092 65.2624 28.5362C66.2196 27.9716 66.5196 27.8216 67.0357 27.6584C66.6122 27.6804 66.3784 27.7819 65.3153 28.4039C64.2698 29.0126 63.939 29.1714 63.6655 29.1802C63.6082 29.1802 63.5596 29.167 63.4714 29.1273L63.6037 28.9508C63.7846 28.6994 64.0052 28.4127 64.2257 28.1348C64.7066 27.5216 64.8257 27.3055 64.8212 27.0628C64.8168 26.8864 64.7198 26.7849 64.5698 26.7938C64.2787 26.8026 63.7846 27.1775 63.242 27.7995L62.8362 28.2715L62.7303 28.3818H62.673C62.7127 28.3245 62.7391 28.2848 62.7568 28.2539C63.1714 27.6451 63.3258 27.3231 63.3214 27.0584C63.3126 26.9173 63.2685 26.8379 63.1494 26.7452L63.0876 26.8114L62.9553 26.9658C62.6553 27.3275 62.3554 27.5437 62.0113 27.6539C62.3157 27.2305 62.426 27.0231 62.4215 26.8732C62.4215 26.7541 62.3377 26.6791 62.2142 26.6835L62.2098 26.6747Z" fill="#0D1853"/>
</svg>
