<svg width="80" height="49" viewBox="0 0 80 49" fill="none" xmlns="http://www.w3.org/2000/svg">
<path d="M21.5325 32.3856C21.4089 32.2503 21.2097 32.134 21.1704 31.977C20.4027 28.8899 18.0863 27.6103 15.2726 26.9734C13.2398 26.5139 11.2244 26.6506 9.30357 27.5318C7.04827 28.5671 5.64652 30.3702 4.89911 32.6735C3.99176 35.4683 3.98158 38.2965 4.9122 41.0956C6.13364 44.7687 9.46788 47.0661 13.5524 47.1112C16.1916 47.1403 18.7421 46.6095 21.2679 45.913C21.454 45.8621 21.6401 45.772 21.8262 45.7691C21.9615 45.7662 22.1985 45.8592 22.213 45.9407C22.2363 46.0701 22.1447 46.2635 22.04 46.3594C21.9237 46.4656 21.7375 46.5005 21.5776 46.5543C18.2812 47.6652 14.9426 48.5493 11.4149 48.1974C7.61246 47.8179 4.28112 46.5063 1.89932 43.3247C-1.26625 39.0962 -1.01469 30.0896 6.83306 26.8818C9.71799 25.7026 12.7105 25.5324 15.7496 25.8698C17.1397 26.0239 18.5109 26.3424 19.8923 26.5779C20.202 26.6303 20.5176 26.6884 20.8287 26.6783C21.8001 26.6448 21.7957 26.6317 21.7928 27.6307C21.7884 29.1778 21.7928 30.725 21.7928 32.2722L21.534 32.387L21.5325 32.3856Z" fill="#0D1853"/>
<path d="M45.6428 13.414C45.1615 13.4562 44.7268 13.494 44.292 13.5318C44.2513 13.4708 44.2106 13.4111 44.1698 13.3501C44.5057 13.0389 44.8111 12.6855 45.1848 12.4296C45.5396 12.1868 45.6239 11.9672 45.5323 11.5324C44.9143 8.61553 46.4237 5.85856 49.0178 5.1097C49.249 5.04282 49.4991 5.04136 49.8975 4.98901C49.3159 5.86438 48.3911 6.38349 48.7372 7.56567C49.0483 7.2574 49.3711 6.96077 49.6678 6.63941C50.658 5.56629 51.8707 5.09662 53.3205 5.29147C53.5066 5.31619 53.6753 5.47032 53.8512 5.56484C53.7102 5.70879 53.5837 5.87165 53.4266 5.99234C53.2565 6.12321 53.0151 6.17846 52.8799 6.33405C52.7359 6.50127 52.5745 6.76883 52.6167 6.94623C52.6574 7.11781 52.9293 7.28067 53.1329 7.35628C53.5386 7.5046 53.9908 7.53804 54.3834 7.71108C55.3431 8.13422 55.8346 9.16081 55.6485 10.2398C55.5045 11.0744 54.6481 11.8334 53.6287 11.7927C52.861 11.7622 52.0976 11.4772 51.3429 11.2693C51.0215 11.1806 50.7336 10.9101 50.4152 10.8825C50.1505 10.8592 49.7347 10.9959 49.6256 11.1936C49.5253 11.3769 49.6925 11.7666 49.8408 12.005C49.9571 12.1926 50.2247 12.2886 50.4224 12.4253C52.3302 13.7485 52.1877 15.6766 50.0749 16.6349C48.1555 17.5059 46.4629 18.691 44.926 20.1174C43.5286 21.4145 42.3551 22.8715 41.6761 24.6891L41.4245 24.6935C41.3882 24.3648 41.2006 23.9359 41.3416 23.725C41.9494 22.8133 42.5645 21.8725 43.3468 21.1178C44.1335 20.3559 44.5741 19.7117 44.1669 18.5412C43.6042 16.9213 44.2076 15.4556 45.2066 14.1425C45.3375 13.971 45.4771 13.8037 45.6108 13.6336C45.6239 13.6176 45.6181 13.5885 45.6399 13.414H45.6428Z" fill="#0D1853"/>
<path d="M29.4866 0.676154C30.535 0.0378062 32.1912 0.27337 33.1684 1.1022C33.5726 1.44537 33.9128 1.8656 34.3127 2.21459C34.4669 2.34836 34.7068 2.38472 34.9089 2.46469C34.9118 2.2364 35.0005 1.9543 34.8987 1.79145C34.621 1.34504 34.2604 0.949524 33.9347 0.530744C33.8532 0.42605 33.7791 0.314084 33.7006 0.206481C33.7311 0.138139 33.7602 0.0683425 33.7907 0C34.2735 0.141047 34.794 0.207935 35.2317 0.434774C37.455 1.58933 38.534 4.00312 37.9378 6.43873C37.8055 6.97966 37.8186 7.37808 38.3813 7.69362C38.6837 7.86229 38.8742 8.23309 39.2436 8.66059L37.5961 8.58498C37.8869 8.93396 38.0759 9.15789 38.262 9.38328C39.4253 10.7894 39.8877 12.3322 39.1738 14.0989C38.867 14.855 39.3134 15.3247 39.7772 15.8104C40.4926 16.5607 41.2502 17.2819 41.8784 18.102C42.3931 18.7724 42.3088 19.258 41.8711 19.7364C40.1277 16.075 37.2602 13.5696 33.6627 11.816C33.4664 11.72 33.2701 11.6269 33.0811 11.5193C31.4569 10.5858 31.3144 8.9136 32.7627 7.71543C33.0229 7.50022 33.3734 7.37226 33.5799 7.12071C33.7689 6.89241 33.8198 6.54925 33.9318 6.25697C33.6133 6.15664 33.2701 5.92835 32.9822 5.98506C32.5213 6.07521 32.0967 6.35585 31.6546 6.55215C30.535 7.05236 29.4386 7.10907 28.4556 6.26279C27.3869 5.3438 27.6544 3.52618 28.9617 2.84276C29.3601 2.63337 29.8341 2.5752 30.2558 2.40071C30.4957 2.30183 30.8607 2.12589 30.8752 1.95867C30.8956 1.7391 30.6673 1.44537 30.4696 1.27088C30.2165 1.04695 29.885 0.910263 29.4851 0.676154H29.4866Z" fill="#0D1853"/>
<path d="M60.953 47.4268H54.2743C54.3907 47.2784 54.4387 47.1578 54.5215 47.1214C55.6921 46.6067 56.0498 45.5757 56.0556 44.4488C56.0876 38.8999 56.0876 33.3511 56.0556 27.8023C56.0483 26.5183 55.6165 25.4525 54.0548 25.1936C53.9457 25.1762 53.8512 25.0773 53.5706 24.9101C55.5161 24.1787 57.3221 23.4996 59.2619 22.7711V23.7439C59.2619 30.552 59.2662 37.3615 59.2575 44.1696C59.2561 45.4608 59.5367 46.5761 60.8309 47.1781C60.8774 47.1999 60.889 47.293 60.9515 47.4268H60.953Z" fill="#0D1853"/>
<path d="M50.761 47.4122H44.1594C44.1666 47.3104 44.1594 47.2712 44.171 47.2654C45.7603 46.4365 45.8781 44.9897 45.865 43.428C45.8316 39.3595 45.8592 35.2909 45.8505 31.2238C45.8476 29.5792 45.3939 28.9859 43.8336 28.4828C43.7304 28.4494 43.6402 28.3723 43.3582 28.208C45.3241 27.4679 47.133 26.7873 49.048 26.0676C49.0626 26.386 49.0829 26.6361 49.0829 26.8848C49.0844 32.6488 49.0946 38.4114 49.0757 44.1754C49.0713 45.4768 49.3534 46.5747 50.6461 47.1738C50.6926 47.1956 50.7042 47.2915 50.7595 47.4122H50.761Z" fill="#0D1853"/>
<path d="M21.4703 45.3038C20.4262 45.5481 19.2397 45.8273 17.9412 46.1312C17.9412 44.6538 17.9412 43.3044 17.9412 41.955C17.9412 41.4708 17.9572 40.9851 17.9383 40.5024C17.8903 39.2766 17.473 38.7313 16.3155 38.3139C16.173 38.2631 16.0552 38.1453 15.7644 37.9475H22.7339C22.6641 38.0726 22.6437 38.1671 22.5957 38.1831C21.1257 38.6687 21.0937 39.9236 21.0282 41.1407C20.989 41.8648 20.9672 42.5992 21.037 43.3189C21.0966 43.9384 21.2987 44.5433 21.4703 45.3038Z" fill="#0D1853"/>
<path fill-rule="evenodd" clip-rule="evenodd" d="M39.8716 47.468C40.2042 47.4642 40.5484 47.4602 40.9096 47.4602H40.9081C40.8211 47.3817 40.7543 47.3155 40.699 47.2606C40.6027 47.1651 40.5408 47.1038 40.4661 47.0705C39.3609 46.5834 39.0134 45.7168 39.0338 44.552C39.0671 42.655 39.0599 40.7573 39.0527 38.8593C39.0502 38.1894 39.0476 37.5196 39.0469 36.8497C39.0454 35.5206 38.5743 34.3894 37.379 33.7554C36.6491 33.3686 35.8115 33.0865 34.9943 32.9832C32.579 32.6764 30.3775 33.2333 28.5686 34.9594C27.9623 35.5381 27.6177 36.2419 27.7893 37.1143C27.9201 37.7818 28.3825 38.1627 29.0616 38.17C30.0998 38.1802 30.5957 37.6247 30.6742 36.364C30.792 34.4693 32.0367 33.4558 33.9284 33.7132C35.1644 33.8804 35.8566 34.6744 35.8609 35.9307C35.8619 36.1376 35.8592 36.3446 35.8566 36.5517C35.8512 36.9747 35.8457 37.3978 35.8711 37.8196C35.9002 38.2878 35.7141 38.5044 35.2837 38.6615C33.783 39.2082 32.2853 39.7622 30.8109 40.3715C29.5225 40.9037 28.3185 41.5799 27.6686 42.9176C26.7598 44.789 27.3385 47.8775 30.6407 47.7147C31.5088 47.6711 32.4046 47.4151 33.2101 47.0749C33.8365 46.8106 34.4216 46.447 35.0236 46.0729C35.2895 45.9076 35.5587 45.7403 35.8362 45.5786C36.0572 46.6808 36.684 47.3904 37.8341 47.45C38.4944 47.4838 39.1559 47.4762 39.8716 47.468ZM35.8245 39.1457C35.8245 39.1457 35.8246 39.1457 35.8246 39.1457V39.1472C35.8246 39.4189 35.8247 39.6853 35.8248 39.9472C35.8249 40.086 35.825 40.2235 35.825 40.3599C35.826 41.7547 35.8268 43.0264 35.8153 44.2939C35.815 44.3296 35.8147 44.3652 35.8144 44.4008C35.8144 44.4056 35.8142 44.4106 35.8139 44.4155C35.8097 44.5052 35.7711 44.6161 35.7153 44.702C35.6813 44.7548 35.6409 44.7985 35.5977 44.8225C35.3756 44.9451 35.1551 45.0749 34.9343 45.2049C34.3067 45.5744 33.6765 45.9454 32.9978 46.1573C31.722 46.5574 30.5766 45.6237 30.5085 44.3002C30.5057 44.2475 30.5047 44.1943 30.5054 44.1405C30.5243 42.7198 31.2194 41.6075 32.3623 40.8746C33.0609 40.4262 33.823 40.0761 34.6481 39.697C35.0269 39.523 35.4191 39.3428 35.8245 39.1442V39.1457C35.8245 39.1457 35.8245 39.1457 35.8245 39.1457Z" fill="#0D1853"/>
<path fill-rule="evenodd" clip-rule="evenodd" d="M73.3996 47.7336C77.1686 47.3075 79.9838 44.2554 79.9983 40.4995L79.9998 40.5009C80.0012 38.3285 79.2742 36.4585 77.5932 35.0524C74.8697 32.7724 70.7997 32.4336 67.6574 34.164C63.1163 36.665 62.5855 42.9394 66.6788 46.1196C68.6549 47.6551 70.9466 48.0113 73.3996 47.7336ZM67.2053 40.5409C67.2965 40.9352 67.3768 41.3385 67.4576 41.745C67.6396 42.6602 67.8248 43.5916 68.146 44.4735C68.7683 46.1821 70.1526 47.0371 71.9688 47.0967C73.3775 47.1441 74.6543 46.4693 75.4215 45.2707C75.4861 45.1699 75.5471 45.0652 75.6042 44.957C75.6811 44.8115 75.751 44.6594 75.8134 44.5011C75.8689 44.3602 75.9214 44.2191 75.9709 44.0778C76.8425 41.5937 76.7975 39.0612 75.8851 36.5691C75.2235 34.7645 73.7665 33.8164 71.9969 33.8266C70.1938 33.8368 68.6321 34.8808 68.0359 36.6926C68.0047 36.7875 67.975 36.8829 67.9466 36.9788C67.7292 37.7134 67.5908 38.4778 67.4471 39.272C67.3721 39.6862 67.2956 40.1086 67.2057 40.5391C67.2057 40.539 67.2057 40.5389 67.2056 40.5387V40.5396C67.2055 40.54 67.2054 40.5404 67.2053 40.5409Z" fill="#0D1853"/>
</svg>
