<svg width="80" height="26" viewBox="0 0 80 26" fill="none" xmlns="http://www.w3.org/2000/svg">
<path fill-rule="evenodd" clip-rule="evenodd" d="M78.3705 22.0889C77.4693 22.0889 76.741 22.8172 76.741 23.7184C76.741 24.6196 77.4693 25.3661 78.3705 25.3661C79.2717 25.3661 80 24.6424 80 23.7184C80 22.7944 79.2717 22.0889 78.3705 22.0889ZM78.3705 25.1294C77.6058 25.1294 76.9777 24.5013 76.9777 23.7184C76.9777 22.9355 77.6058 22.3256 78.3705 22.3256C79.1352 22.3256 79.7633 22.9537 79.7633 23.7184C79.7633 24.4831 79.1352 25.1294 78.3705 25.1294ZM78.8211 23.7548C79.0168 23.6547 79.117 23.4999 79.117 23.286C79.117 23.0129 78.9031 22.7762 78.5662 22.7762H77.6058V24.6196H77.9973V23.8959H78.3887C78.5844 23.8959 78.6618 23.996 78.7028 24.1918C78.721 24.3283 78.7028 24.5058 78.7619 24.6242H79.1762C79.0988 24.5286 79.0988 24.3101 79.0988 24.1918C79.0806 23.996 79.0214 23.8003 78.8257 23.7594L78.8211 23.7548ZM78.4297 23.6182H77.9973V23.0903H78.4297C78.6072 23.0903 78.7028 23.1676 78.7028 23.3452C78.7028 23.5409 78.6026 23.6182 78.4297 23.6182ZM75.0159 13.4726L75.1752 13.8049C75.1752 13.8049 77.3737 13.0402 77.3737 11.4517C77.3737 11.0193 76.9413 10.4685 76.3905 10.4685C75.8034 10.4685 75.2936 10.9373 75.1935 11.5472C75.0979 12.1162 75.5075 12.585 76.0173 12.626C75.9399 12.7807 75.7032 13.1176 75.0159 13.468V13.4726ZM61.3974 12.6487C62.0073 12.6487 62.5762 12.1572 62.6718 11.5518C62.772 10.9646 62.3396 10.4731 61.7296 10.4731C61.1197 10.4731 60.5508 10.9646 60.4734 11.5518C60.3732 12.1617 60.7874 12.6487 61.3974 12.6487ZM19.4857 11.7475C21.6432 10.9419 24.2922 8.9619 24.2922 5.78484C24.2922 3.78211 23.4866 2.41206 22.3487 1.50628C22.995 1.03746 23.6641 0.682431 24.3696 0.409331C24.5835 0.331953 24.6063 0.195404 24.5835 0.136232C24.5653 0.0588541 24.5061 -0.0412834 24.2513 0.0178882C23.4684 0.21361 22.6627 0.627811 21.8571 1.17401C20.5599 0.35016 18.9531 0.0360952 17.5193 0.0360952C15.0842 0.0360952 11.2426 1.01925 8.94401 3.54998C5.31634 7.55089 5.68503 12.321 9.12153 12.2619C11.5157 12.2437 14.9704 8.16081 15.6759 4.55134C15.7351 4.25548 15.6577 4.11894 15.5576 4.11894C15.3619 4.07797 15.3209 4.25548 15.2435 4.55134C14.8885 5.92594 13.8097 8.32012 12.1848 9.94961C11.0469 11.0875 9.02595 12.5395 7.71052 11.1877C6.2995 9.71748 7.75148 5.61643 10.5143 3.35881C12.2212 1.966 14.9295 0.691536 17.97 0.691536C19.4219 0.691536 20.5007 1.02381 21.2289 1.61552V1.63373C20.4233 2.24365 19.6222 2.96737 18.8166 3.79122C16.914 5.71202 14.4015 9.52176 10.8512 16.3675C8.26127 21.3697 5.90806 24.1963 3.66864 24.1963C1.74784 24.1963 0.746473 22.9218 0.746473 21.2514C0.746473 17.3097 4.11925 14.1098 6.47701 14.1098C7.9472 14.1098 8.3432 15.58 8.20209 16.5814C8.04279 17.5054 6.9868 20.0543 4.20118 20.8008C3.9645 20.8599 3.86891 20.9555 3.90533 21.0557C3.9645 21.2104 4.16022 21.2514 4.35594 21.2332C5.49386 21.1148 6.92763 20.1135 7.61493 19.194C8.30223 18.2701 8.8894 17.2732 8.8894 15.8804C8.8894 14.4876 7.91079 13.468 6.45881 13.468C5.00683 13.468 3.28175 14.565 2.3168 15.53C1.06054 16.7862 0 18.5887 0 21.042C0 23.4954 1.43377 24.829 3.74602 24.829C6.19936 24.829 11.1425 21.966 13.696 16.0761C16.1493 10.4048 16.914 8.65694 18.0109 6.7771C19.3081 4.59686 20.4643 3.10847 21.6614 2.06614C22.1711 2.69427 22.4078 3.51812 22.4078 4.49672C22.4078 7.69654 20.3277 10.7553 18.8575 11.3242C18.2294 10.9692 17.6604 10.8326 17.269 10.8326C16.8548 10.8326 16.3086 10.9919 16.3086 11.4426C16.3086 11.8932 16.7774 12.1708 17.5467 12.1708C17.8789 12.1708 18.3113 12.1117 18.7619 11.9933C19.3309 12.4849 19.6632 13.2678 19.6632 14.2691C19.6632 17.1321 17.3282 21.3151 16.1493 22.4121C15.7579 22.7853 14.8339 23.7275 13.8553 23.5318C11.6796 23.0994 13.0132 19.6082 14.051 18.2518C14.8339 17.2323 15.858 16.3493 17.31 15.976C17.4875 15.9168 17.5239 15.8167 17.4875 15.6802C17.4465 15.5618 16.9777 15.6028 16.7046 15.6802C13.2909 16.6406 11.9162 20.6051 11.9162 21.9797C11.9162 23.3543 12.6809 24.2737 14.1511 24.2737C16.3905 24.2737 18.2112 22.667 18.8211 22.0752C20.0956 20.8008 21.4292 18.7025 21.4292 16.3083C21.4292 13.9141 20.5052 12.5805 19.4857 11.7566V11.7475ZM18.0929 11.5882C18.0929 11.5882 17.7788 11.6474 17.5421 11.6474C17.1871 11.6474 17.0323 11.57 17.0323 11.4881C17.0323 11.4061 17.1097 11.2924 17.4465 11.3515C17.6832 11.4107 17.9153 11.4699 18.1156 11.5655L18.0974 11.5837L18.0929 11.5882ZM77.5239 15.4935C77.4829 15.316 77.7196 14.9064 77.7606 14.8244C78.8211 13.2177 79.3673 12.3529 79.3673 11.8203C79.3673 11.4289 79.1534 11.3515 78.9349 11.3515C78.5207 11.3515 78.0701 11.9797 77.8744 12.3347C77.6969 12.667 77.2645 13.5909 77.1097 14.829C76.4224 16.2992 74.5198 18.6342 73.5958 19.9086C73.2044 19.7129 72.6354 19.9678 72.203 20.4184C71.848 20.7917 71.5931 21.4562 71.6158 22.321C70.5781 23.3998 69.8908 23.7912 69.3218 23.7912C69.167 23.7912 68.853 23.6137 68.853 23.1449C68.853 22.3984 69.2854 21.2013 70.3823 19.2031C70.5781 19.2623 70.8921 19.3033 71.2654 19.3033C72.599 19.3033 74.934 17.9105 74.934 16.1262C74.934 15.225 74.406 14.6742 73.5412 14.6742C72.4624 14.6742 69.9499 15.8895 68.4206 19.012C66.7729 22.3665 65.4165 23.7594 64.9886 23.7594C64.6928 23.7594 64.5744 23.4043 64.6563 22.9947C64.7747 22.4075 66.031 20.1089 67.3464 17.9696C67.9335 17.0274 68.1111 16.4175 68.0928 15.9669C68.0519 15.4162 67.7196 14.7289 66.8548 14.7106C65.6577 14.6697 64.7337 15.6119 64.1102 16.4949C64.1284 16.2992 64.2649 14.6879 62.9722 14.6879C62.071 14.6879 61.4429 15.6483 61.0514 16.3766C60.6008 17.2186 58.5617 21.1421 57.9882 22.0843C57.5376 22.89 57.0642 23.7912 56.6136 23.7912C56.3587 23.7912 56.2221 23.4362 56.5362 22.8308L60.8512 14.9018H58.8894L55.9672 20.2955C54.4379 23.063 53.3182 23.7502 52.8675 23.7502C52.6127 23.7502 52.4169 23.4362 52.7492 22.8081L57.6331 13.8413H59.2217L59.5949 13.154H58.0064L59.3218 10.7598H57.36L56.0446 13.154H53.9645L53.5913 13.8413H55.6714L51.9254 20.7097C50.9058 22.5941 49.7497 23.7502 49.2945 23.7502C48.9986 23.7502 48.9031 23.3952 48.9804 22.9856C49.0988 22.3984 50.3732 20.0998 51.7069 17.9605C52.2758 17.0183 52.4534 16.4084 52.4351 15.9578C52.4169 15.4071 52.0801 14.7198 51.1971 14.7015C50.0182 14.6606 49.076 15.6028 48.4479 16.4858C48.4661 16.2901 48.6254 14.6788 47.31 14.6788C46.4087 14.6788 45.7806 15.6392 45.3892 16.3675C44.9386 17.2095 42.8949 21.133 42.3259 22.0752C41.8753 22.8809 41.4019 23.7821 40.9513 23.7821C40.6964 23.7821 40.5781 23.4498 40.8921 22.8217L45.289 14.9155H43.3273L43.0132 15.6028C43.0132 15.6028 42.9131 14.7971 41.8935 14.7971C40.8739 14.7971 37.7924 16.3492 36.2631 19.8995C35.107 22.5304 33.6914 23.7639 33.2817 23.7639C33.0451 23.7639 32.9085 23.4316 33.2226 22.8035L42.0892 6.49945H40.1274L32.3987 20.7234C31.1243 22.9401 30.0819 23.7639 29.6313 23.7639C29.3764 23.7639 29.2581 23.4316 29.5721 22.8035L38.4388 6.4767H36.477L28.7483 20.7234C27.4738 22.9401 26.5134 23.7639 26.0583 23.7639C25.8034 23.7639 25.685 23.4316 25.9991 22.8035L30.396 14.8973H28.4342L28.1202 15.5664C28.1202 15.5664 28.02 14.7607 27.0005 14.7607C25.9809 14.7607 22.5671 16.3492 21.2517 20.1772C20.1912 23.2405 21.5476 24.26 22.3487 24.26C23.2499 24.26 24.0146 23.4544 24.6655 22.5714C24.6472 22.7489 24.5289 24.26 25.8443 24.26C26.609 24.26 27.1962 23.7685 28.1384 22.4758C28.1202 22.6715 28.1202 24.26 29.4356 24.26C30.2003 24.26 30.8694 23.7685 31.8116 22.4758C31.7934 22.8672 31.8707 24.2828 33.0678 24.2828C33.6777 24.2828 34.579 23.8504 35.7761 21.793C35.5803 23.6365 36.5999 24.3056 37.2462 24.3056C38.1475 24.3056 38.9122 23.4999 39.563 22.5987C39.5448 22.7944 39.4265 24.3056 40.7419 24.3056C41.6432 24.3056 42.1347 23.4817 42.6673 22.5577C43.0997 21.8112 45.2981 17.6146 45.726 16.768C46.1402 15.9851 46.609 15.2751 47.0596 15.2751C47.2963 15.2751 47.5876 15.4708 46.8229 16.8454L42.8584 24.1462H44.8202L48.0792 18.1836C49.3946 15.8076 50.2003 15.2204 50.924 15.2204C51.1607 15.2204 51.4156 15.5755 51.0241 16.1444C49.2581 18.6569 47.9062 21.3424 47.7651 22.4439C47.6286 23.5227 48.2931 24.2691 49.117 24.2691C50.0182 24.2691 50.7829 23.3087 51.3928 22.4257C51.3746 22.6214 51.2745 24.2691 52.5899 24.2691C53.3546 24.2691 54.0828 23.8777 55.2208 22.4257C55.1798 22.6988 55.0842 24.3101 56.3996 24.3101C57.2827 24.3101 57.7924 23.4863 58.3204 22.5441C58.7528 21.7976 61.1243 17.2277 61.4019 16.7179C61.8343 15.9533 62.244 15.266 62.6946 15.266C62.9495 15.266 63.2453 15.4799 62.4807 16.8545L58.5162 24.1553H60.4779L63.7142 18.1927C65.0478 15.8167 65.8352 15.2295 66.5771 15.2295C66.8138 15.2295 67.0687 15.5846 66.6545 16.1535C64.9067 18.666 63.5366 21.3515 63.3955 22.453C63.2772 23.5318 63.9463 24.2782 64.7701 24.2782C65.594 24.2782 66.6318 23.2951 67.6923 21.3561C67.3373 23.5545 68.6163 24.3192 69.3218 24.2782C70.1639 24.26 70.9877 23.6091 71.6568 22.9446C71.8116 23.7093 72.3623 24.2782 73.2635 24.2782C74.7747 24.2782 76.5589 23.1403 77.3054 21.611C78.2886 19.5718 78.1111 17.5099 77.5193 15.5072L77.5239 15.4935ZM73.0314 15.5527C73.3455 15.2386 73.5822 15.1385 73.7369 15.4935C73.8553 15.7484 73.7779 16.9273 72.8949 17.8877C72.4852 18.3383 71.6568 18.9847 70.619 18.7707C71.5976 17.0639 72.4807 16.0625 73.0314 15.5527ZM22.5489 23.7138C22.3714 23.7138 22.0983 23.5955 22.0983 23.1267C22.0983 22.3802 22.5489 21.1831 23.7278 19.103C25.4756 16.0215 26.6727 15.316 27.0642 15.316C27.2235 15.316 27.5148 15.4344 27.5148 15.9032C27.5148 16.6497 27.046 17.2778 25.9263 19.4171C23.9463 23.1858 22.9222 23.7138 22.5535 23.7138H22.5489ZM37.4602 23.7138C37.2827 23.7138 37.0096 23.6183 37.0096 23.1449C37.0096 22.3802 37.4602 21.2013 38.6391 19.103C40.3869 16.0397 41.584 15.3342 41.9527 15.3342C42.1302 15.3342 42.4033 15.4526 42.4033 15.9032C42.4033 16.6679 41.9527 17.296 40.833 19.4353C38.853 23.2041 37.8289 23.7138 37.4556 23.7138H37.4602ZM76.1721 19.8859C75.6441 21.3788 74.6609 23.7502 73.168 23.7502C72.1074 23.7502 72.2258 22.6305 72.2258 22.3756C72.2258 22.3756 72.8129 22.535 73.523 21.8477C73.8371 21.5336 74.1511 20.7097 73.9372 20.2182C75.0569 18.7252 76.4861 16.727 76.9777 16.0397C76.8002 17.296 76.5271 18.8254 76.1721 19.8859Z" fill="#0D1853"/>
</svg>
