<svg width="80" height="60" viewBox="0 0 80 60" fill="none" xmlns="http://www.w3.org/2000/svg">
<path d="M67.41 43.4706C68.3191 43.4706 69.1744 43.4413 70.0297 43.4999C70.1567 43.5097 70.3522 43.9105 70.3571 44.1304C70.3816 46.6865 70.3718 49.2426 70.3718 51.7987C70.3718 52.9668 70.3864 54.1349 70.3718 55.303C70.3278 57.8542 68.2507 59.8825 65.6848 59.8972C63.1629 59.9118 61.0124 57.9324 60.9733 55.4056C60.9147 51.6179 60.9586 47.8253 60.9489 44.0327C60.9489 43.6074 61.0906 43.4364 61.5256 43.4559C62.1219 43.4804 62.7181 43.495 63.3095 43.4559C63.8618 43.4168 64.0279 43.6221 64.0231 44.1695C64.0035 47.6298 64.0133 51.0901 64.0133 54.5503C64.0133 54.8143 64.0035 55.0831 64.0279 55.3421C64.1012 56.1681 64.7904 56.8083 65.6066 56.8425C66.4521 56.8767 67.2194 56.256 67.3318 55.4252C67.3709 55.1222 67.366 54.8094 67.366 54.5015C67.366 51.1536 67.366 47.8008 67.366 44.453C67.366 44.1499 67.3954 43.8469 67.4149 43.4804L67.41 43.4706Z" fill="#0D1853"/>
<path d="M21.7713 43.1626L27.5971 59.5159C26.4974 59.5159 25.52 59.5305 24.5474 59.4963C24.4301 59.4963 24.2834 59.2275 24.2199 59.0613C24.0342 58.5677 23.9169 58.0448 23.7018 57.5658C23.6188 57.3801 23.3402 57.1699 23.1447 57.165C22.1525 57.1259 21.1604 57.1259 20.1731 57.165C19.9825 57.1748 19.7137 57.385 19.6306 57.5707C19.4156 58.0496 19.3032 58.5726 19.1077 59.0662C19.0344 59.2471 18.8535 59.5061 18.7167 59.511C17.7588 59.5501 16.7959 59.5305 15.7061 59.5305C17.6855 53.9931 19.6209 48.5778 21.5563 43.1577H21.7762L21.7713 43.1626ZM21.7518 51.5641H21.5856L20.5104 54.8631H22.8368C22.4604 53.7096 22.1086 52.6393 21.7518 51.5641Z" fill="#0D1853"/>
<path d="M30.6425 51.5104C30.6425 49.0618 30.6571 46.6181 30.6327 44.1695C30.6278 43.6319 30.7744 43.4071 31.3365 43.4511C31.8839 43.4902 32.441 43.4902 32.9884 43.4511C33.5505 43.4071 33.702 43.6319 33.702 44.1695C33.6824 47.1019 33.6922 50.0344 33.6922 52.9668C33.6922 53.959 33.7069 54.9511 33.6873 55.9433C33.6775 56.4027 33.8486 56.564 34.3031 56.5542C35.5347 56.5346 36.7713 56.564 38.0078 56.5395C38.4965 56.5297 38.6822 56.691 38.6529 57.1847C38.6187 57.7565 38.6187 58.3332 38.6529 58.905C38.6871 59.4133 38.5063 59.6088 37.9833 59.6039C35.7351 59.5844 33.4869 59.5893 31.2387 59.6039C30.7744 59.6039 30.6376 59.4426 30.6376 58.9832C30.6571 56.4907 30.6473 54.003 30.6473 51.5104H30.6425Z" fill="#0D1853"/>
<path d="M56.9707 44.6631C56.9707 45.103 57.132 45.6552 56.9219 45.9485C56.7362 46.2173 56.1497 46.2026 55.7391 46.315C53.7353 46.882 52.6258 48.2847 52.3033 50.2641C51.9514 52.4341 52.2544 54.4966 54.1507 55.9139C54.7861 56.388 55.656 56.5933 56.4478 56.8132C56.8388 56.9207 57.0196 57.0185 57.005 57.4388C56.9805 58.0546 56.9756 58.6753 57.005 59.2911C57.0343 59.8189 56.7948 59.9118 56.3256 59.8727C53.0804 59.6088 50.5487 57.5756 49.6005 54.3939C48.8137 51.7547 49.0287 49.1937 50.4265 46.7989C51.7021 44.6093 53.6766 43.4706 56.1839 43.1871C56.8144 43.1187 57.0978 43.2751 57.005 43.9398C56.9707 44.1792 57.0001 44.4236 57.0001 44.668H56.9659L56.9707 44.6631Z" fill="#0D1853"/>
<path d="M9.19134 53.0109C9.19134 51.051 9.17179 49.0863 9.20111 47.1264C9.21089 46.5986 9.03494 46.4373 8.52176 46.4471C7.94016 46.4569 7.16795 46.5839 6.83072 46.2711C6.53259 45.9974 6.69876 45.1959 6.69876 44.629C6.69876 43.3973 6.52282 43.4853 7.81309 43.4804C9.86091 43.4804 11.9136 43.4951 13.9614 43.4706C14.4942 43.4658 14.7288 43.6026 14.6897 44.1695C14.6457 44.7609 14.6652 45.3572 14.6799 45.9534C14.6897 46.3249 14.5382 46.4715 14.1765 46.4568C13.7562 46.4422 13.3359 46.4862 12.9204 46.4471C12.3486 46.3933 12.1629 46.5937 12.1629 47.1851C12.1873 51.0168 12.1775 54.8534 12.1727 58.69C12.1727 59.2928 11.8745 59.5942 11.2783 59.5942C10.7944 59.5942 10.3057 59.5746 9.8267 59.604C9.34285 59.6333 9.17668 59.4525 9.18156 58.9588C9.206 56.9745 9.19134 54.9903 9.19134 53.0109Z" fill="#0D1853"/>
<path d="M79.653 44.756C79.653 44.9319 79.6334 45.1128 79.653 45.2838C79.7214 45.8654 79.6285 46.2369 78.9199 46.403C78.1574 46.5839 77.6638 47.4685 77.8348 48.3042C77.9815 49.0227 78.2356 49.7558 78.6119 50.3814C79.6188 52.0578 80.2395 53.7928 79.912 55.7771C79.5063 58.2306 77.3363 59.9509 74.8584 59.7848C74.4919 59.7603 74.2817 59.6479 74.2964 59.2374C74.3159 58.5531 74.3159 57.8738 74.2964 57.1895C74.2866 56.8083 74.4577 56.7204 74.8144 56.7057C76.2953 56.6519 77.2386 55.5229 76.872 54.0714C76.6325 53.1281 76.1927 52.2142 75.7235 51.354C74.8829 49.8193 74.4968 48.2505 74.9513 46.5301C75.4547 44.6289 77.1555 43.2947 79.1105 43.2311C79.4624 43.2213 79.6579 43.3093 79.6432 43.7003C79.6285 44.0522 79.6432 44.4041 79.6432 44.756H79.653Z" fill="#0D1853"/>
<path d="M42.0346 51.5006C42.0346 49.1449 42.0346 46.7843 42.0346 44.4285C42.0346 43.7736 42.3734 43.4462 43.0511 43.4462C43.535 43.4462 44.0237 43.4706 44.5027 43.4413C44.9768 43.412 45.1038 43.6123 45.099 44.062C45.0794 46.0023 45.0892 47.9426 45.0892 49.878C45.0892 52.8544 45.0696 55.8308 45.1038 58.8024C45.1136 59.4573 44.8986 59.6626 44.2779 59.6088C43.7549 59.5648 43.2173 59.5746 42.6944 59.6088C42.1616 59.643 42.0199 59.4182 42.0248 58.9148C42.0443 56.4467 42.0346 53.9785 42.0346 51.5104V51.5006Z" fill="#0D1853"/>
<path d="M0.0617439 43.4412C0.985463 43.4412 1.79677 43.451 2.60808 43.4412C3.15058 43.4314 3.04795 43.8176 3.04795 44.1303C3.04795 46.8184 3.04795 49.5065 3.04795 52.1946C3.04795 54.6138 3.04795 57.038 3.04795 59.5843C2.11934 59.5843 1.22495 59.5941 0.335439 59.5697C0.227916 59.5697 0.0764061 59.3693 0.0324195 59.2324C-0.021342 59.0516 0.00798246 58.8414 0.00798246 58.641C0.00798246 53.8612 0.00798246 49.0813 0.00798246 44.3014C0.00798246 44.0424 0.0373068 43.7833 0.0568565 43.4461L0.0617439 43.4412Z" fill="#0D1853"/>
<path d="M56.9217 14.9868C56.2473 16.453 56.7653 18.2027 56.8484 19.9621C56.9462 21.9904 56.213 23.789 54.6735 25.2259C54.2972 25.5778 54.0479 26.1349 53.9013 26.6432C53.1535 29.2726 51.4332 30.8659 48.8526 31.6528C48.2906 31.8239 47.7187 32.1611 47.2935 32.5668C45.3435 34.424 43.1099 35.0398 40.4854 34.4093C39.9135 34.2725 39.2537 34.2725 38.6819 34.4093C36.0623 35.0447 33.8287 34.424 31.8542 32.6107C31.3753 32.1709 30.7399 31.8337 30.1192 31.6284C27.7439 30.8415 26.0529 29.3802 25.3393 26.9414C25.1096 26.1545 24.7284 25.5338 24.1663 24.9326C22.4362 23.0754 21.8741 20.8517 22.4851 18.3884C22.661 17.6748 22.6561 17.0297 22.4851 16.321C21.8741 13.7503 22.4606 11.502 24.3227 9.5813C24.7186 9.17564 25.051 8.62337 25.2074 8.08086C25.9747 5.41723 27.6511 3.73596 30.3147 2.96375C30.8572 2.80736 31.3948 2.46035 31.8102 2.06936C33.7652 0.226806 36.0085 -0.369457 38.6282 0.231694C39.2195 0.368541 39.8989 0.358766 40.4952 0.221919C43.061 -0.369457 45.2653 0.221919 47.2153 1.98627C47.7139 2.43591 48.3736 2.76826 49.0139 2.98819C51.4625 3.82394 53.1291 5.40257 53.8427 7.90492C54.043 8.60871 54.3558 9.18542 54.8886 9.68882C56.3255 11.0426 56.8142 12.7972 56.9168 14.9868H56.9217ZM56.6236 14.8353C56.5063 12.8314 56.0566 11.1941 54.7322 9.93808C54.131 9.36625 53.7791 8.71623 53.5445 7.92936C52.8261 5.50032 51.2132 3.97545 48.7793 3.24233C48.1733 3.0615 47.5574 2.70961 47.098 2.27463C45.2066 0.495614 43.0464 -0.0811003 40.5245 0.52005C39.9478 0.656898 39.2782 0.705772 38.7161 0.55915C36.0867 -0.120199 33.8629 0.505388 31.9129 2.36749C31.4877 2.77314 30.9012 3.08594 30.3342 3.25211C27.8221 4.00477 26.2288 5.59806 25.4957 8.11996C25.3246 8.70645 24.9874 9.30272 24.5671 9.74258C22.7588 11.6438 22.1772 13.8187 22.7734 16.365C22.9152 16.9613 22.9591 17.6504 22.8125 18.2369C22.1429 20.8663 22.7588 23.0901 24.6355 25.0255C25.0314 25.4312 25.3491 25.9932 25.5006 26.5406C26.1897 29.0723 27.827 30.5874 30.2854 31.3596C30.911 31.5551 31.5365 31.9167 32.0155 32.3615C33.9314 34.1503 36.1063 34.7319 38.6526 34.1112C39.244 33.9694 39.9331 33.9646 40.5245 34.1112C43.0562 34.7417 45.2017 34.1356 47.098 32.3664C47.577 31.9216 48.2026 31.5551 48.8233 31.3596C51.2572 30.5922 52.875 29.082 53.6227 26.609C53.8084 25.9883 54.1799 25.3676 54.6198 24.8838C56.3646 22.9728 56.9364 20.8126 56.3548 18.2907C56.2082 17.6553 56.301 16.9515 56.3548 16.2868C56.4037 15.7248 56.5552 15.1676 56.6187 14.8304L56.6236 14.8353Z" fill="#0D1853"/>
<path d="M56.3989 14.9868C55.744 16.4628 56.2474 18.2076 56.3256 19.972C56.4136 21.883 55.7 23.5838 54.2534 24.9425C53.877 25.2992 53.5936 25.8417 53.4567 26.3452C52.7774 28.8866 51.101 30.3773 48.6768 31.1935C48.0757 31.3938 47.4599 31.7262 47.0005 32.1563C45.1433 33.8962 43.0221 34.4631 40.5442 33.8962C39.9479 33.7593 39.2686 33.7545 38.6723 33.8864C36.0967 34.468 33.8973 33.9011 32.0059 32.0292C31.6198 31.648 31.0626 31.3743 30.5397 31.213C28.0715 30.4408 26.3658 28.955 25.6865 26.3745C25.5496 25.8515 25.2173 25.3188 24.8361 24.9278C22.9984 23.0217 22.4119 20.8126 23.0131 18.2418C23.145 17.67 23.1402 17.0151 23.0131 16.4384C22.4315 13.8676 22.9789 11.6585 24.8556 9.76219C25.2515 9.36142 25.5399 8.78471 25.7012 8.23732C26.4294 5.76918 27.9982 4.20521 30.4517 3.45255C31.0382 3.27172 31.6198 2.9296 32.0743 2.51417C33.9951 0.759593 36.1602 0.119342 38.7163 0.76448C39.2637 0.901327 39.904 0.891552 40.4562 0.754705C42.983 0.138892 45.1384 0.74493 47.0396 2.49951C47.4892 2.91494 48.0806 3.24728 48.6622 3.42812C51.1303 4.20033 52.7236 5.77896 53.4518 8.26665C53.6082 8.79449 53.877 9.36631 54.268 9.73287C55.7196 11.0965 56.2719 12.7924 56.3989 14.9917V14.9868ZM44.0191 17.2839C44.1658 17.3719 44.3271 17.4452 44.4639 17.5527C44.9282 17.9095 44.9673 17.9095 45.3387 17.4159C45.1726 17.4305 44.9771 17.4892 44.8207 17.4354C44.7523 17.411 44.6887 17.0737 44.7425 17.0298C44.9722 16.8392 45.2703 16.7316 45.5 16.541C45.6564 16.4139 45.7444 16.1989 45.8861 15.9887H44.4981L44.6154 16.1403L43.7161 16.9173C43.7748 16.9858 43.9018 17.1422 44.0338 17.2937H43.5988L43.8188 18.0219L43.2616 17.6505C43.286 17.802 43.2811 17.8851 43.3105 17.9584C43.3936 18.1588 43.4473 18.4715 43.5891 18.5204C43.7601 18.5791 44.0876 18.4715 44.2 18.3249C44.288 18.2076 44.1511 17.9242 44.112 17.714C44.0827 17.5723 44.0534 17.4256 44.024 17.2839H44.0191ZM30.2611 22.4548C29.8945 22.4255 29.5427 22.3473 29.2543 22.7285C29.0881 22.9484 28.7851 23.095 28.5114 23.1879C28.2182 23.2905 27.8858 23.2954 27.4166 23.3638L28.1595 24.0285L29.2787 23.7793C29.3618 23.6571 29.4987 23.315 29.6062 23.3247C30.3735 23.4029 30.2464 22.88 30.2562 22.4401C30.4224 22.4548 30.6619 22.5476 30.7401 22.4743C31.0577 22.1762 31.3314 21.8243 31.6931 21.4089L30.4908 21.8536L30.6277 21.9709L30.2611 22.4548ZM41.9029 16.761C41.6488 16.4628 41.3946 16.1842 40.9303 16.5166C41.2431 16.8587 41.4924 17.2057 41.9127 16.7512L42.1766 17.2546C42.3232 16.8636 42.4698 16.5948 42.5236 16.3162C42.6458 15.6906 42.7142 15.0553 42.8266 14.4248C42.9586 13.6575 43.4375 13.2176 44.1462 12.9048C44.6545 12.68 45.0846 12.2792 45.5489 11.9566C45.8128 11.7758 46.0719 11.5852 46.3407 11.4092C46.8245 11.1013 47.3133 10.8081 47.7971 10.5051L47.5967 10.2118C46.7952 10.8228 45.9985 11.4435 45.1872 12.0397C44.8891 12.2597 44.5665 12.4649 44.2293 12.6115C43.3251 13.0025 42.7338 13.6281 42.5041 14.6105C42.4259 14.938 42.2499 15.2654 42.0446 15.5391C41.7221 15.9594 41.7074 16.2527 42.3134 16.4628C42.1424 16.585 42.0251 16.673 41.9029 16.761ZM47.0444 6.06731L45.8373 7.42601L45.7004 8.28619C45.9155 8.13957 46.1647 7.92941 46.4482 7.77302C47.1471 7.3918 47.2595 6.76621 47.2106 6.06243L49.8645 5.21202C49.5712 5.03118 49.3073 4.79659 48.9994 4.69884C48.584 4.56688 48.1343 4.55711 47.7043 4.46913C47.6212 4.45447 47.5283 4.34206 47.4941 4.25409C47.1666 3.48676 46.5068 3.14953 45.7444 2.92471C46.023 3.80933 47.2057 3.824 47.4794 4.73305L46.6583 6.01844L47.0493 6.06731H47.0444ZM47.0787 14.5323C47.3475 15.1383 46.7708 14.9917 46.5313 15.1383C46.3162 15.2654 46.0865 15.368 45.8519 15.4902C46.976 16.7658 48.1588 16.2185 49.3073 16.0865L49.3269 15.9105L48.6768 15.7541C49.9085 15.4902 51.0961 15.8568 52.2837 15.1677L51.3551 14.8793C51.9465 14.7327 52.4744 14.6545 52.9582 14.459C53.1684 14.3759 53.2808 14.0533 53.4372 13.8432C53.227 13.765 53.0169 13.6135 52.8116 13.6184C50.5487 13.7112 48.3445 13.4473 46.2087 12.6555C46.0083 12.5822 45.7444 12.6849 45.5049 12.7044L45.4951 12.9195C45.8275 13.1736 46.1256 13.5695 46.4922 13.6526C47.3963 13.8578 48.3298 13.9116 49.2487 14.0533C49.4442 14.0827 49.6201 14.2342 49.8009 14.3319L49.7325 14.5225C48.9261 14.4541 48.1197 14.3808 47.3133 14.327C47.2399 14.327 47.1569 14.4639 47.0738 14.5372C46.7414 14.2146 46.3895 13.9751 46.0083 14.1657L46.458 14.806L47.0689 14.5274L47.0787 14.5323ZM42.1864 19.8987C42.1424 19.0287 42.0349 18.2369 41.3653 17.67C40.6029 17.0249 39.8404 16.3748 39.078 15.7297C38.4622 15.2068 37.8855 14.63 37.8024 13.7992C37.7144 12.8901 37.7486 11.9713 37.7486 11.0574C37.7486 10.8179 37.8024 10.5784 37.8317 10.3389L37.5824 10.2412C37.3821 10.5979 37.167 10.9498 36.9862 11.3164C36.6147 12.0837 36.3361 12.8999 35.8914 13.6184C35.0556 14.9624 34.0879 16.238 33.7116 17.8069C33.5601 18.4422 33.4721 19.1118 33.5015 19.7618C33.5748 21.5359 35.388 22.8751 37.4505 21.8194C37.69 21.6972 37.9685 21.5457 38.2178 21.5702C39.0731 21.6532 39.9186 21.8048 40.7641 21.9318C40.466 21.1107 39.4103 20.578 38.4573 20.8419C37.9881 20.9739 37.558 21.2378 37.1035 21.4382C35.8327 21.9954 34.2395 21.1792 34.2443 19.7911C35.7448 21.5506 36.8249 21.2183 37.8512 20.4216C37.5433 20.4461 37.2208 20.5145 36.908 20.49C36.5854 20.4607 36.2726 20.3385 35.9012 20.2408C35.7545 19.8596 35.6715 19.2829 35.3489 18.9261C34.9041 18.4324 35.2658 17.9584 35.2218 17.4941C35.1729 16.9809 35.5151 16.5117 36.3264 16.4628C36.2237 16.8978 36.0967 17.2741 36.0625 17.6602C36.0234 18.0903 35.9061 18.755 36.1211 18.9163C36.6636 19.322 37.3625 19.5272 38.0223 19.7569C38.3009 19.8498 38.555 19.8156 38.731 20.1724C38.9118 20.5438 39.2735 20.8517 39.4934 20.1724C40.0799 20.6367 40.7397 20.9886 41.1551 21.5262C41.595 22.1029 41.8052 22.8555 42.1179 23.5349C42.1082 22.7773 42.0837 21.966 41.8589 21.2232C41.6341 20.4803 41.248 19.7765 40.8619 19.0971C40.4709 18.4129 39.9919 17.7775 39.5521 17.1226C40.7153 17.7726 41.3897 18.8919 42.1766 19.9133L42.1864 19.8987ZM38.4817 12.4307C38.4475 11.7074 39.2637 10.9205 38.4622 10.1287C37.7095 11.6096 37.8903 13.0905 38.5453 14.5616C38.5599 14.5958 38.5941 14.6203 38.6283 14.6594L38.858 14.3564C39.1122 14.8646 39.4836 14.9184 39.9284 14.5861L40.1483 15.2116C40.3829 15.0357 40.5784 14.7962 40.8228 14.7229C41.5706 14.4932 42.1766 14.1071 42.5138 13.3789C42.724 12.9243 42.9097 12.46 43.0808 12.0593C43.853 11.81 44.6203 11.6243 45.1139 10.9743C45.373 10.6321 45.6418 10.466 46.0767 10.4367C47.1862 10.3682 47.7922 9.77197 47.8704 8.76027C46.9956 8.77982 46.067 9.20991 45.4463 9.79152C44.4444 10.7299 43.0857 10.7837 41.854 11.1404C41.7954 11.1551 41.7221 11.1258 41.6585 11.1111C40.989 10.9743 40.8668 10.681 41.2382 10.119C41.7318 9.37609 41.81 8.58921 41.5266 7.68016L41.0232 7.95874L40.7788 9.08284C40.7788 9.08284 40.8619 9.16104 40.9303 9.22458L40.4904 9.81595L39.6938 9.36142L40.2412 9.04863L39.8893 8.7505L40.6468 8.52568C40.554 8.19822 40.3829 7.90987 40.4269 7.65572C40.466 7.43579 40.725 7.2354 40.9254 7.06923C40.9841 7.02036 41.1698 7.10833 41.2871 7.16209C41.3164 7.17675 41.3066 7.27939 41.3164 7.34293C41.38 7.30383 41.5021 7.25007 41.4972 7.2354C41.3751 6.83464 41.2382 6.43876 41.1063 6.04288L40.3243 6.38499L39.684 4.66952C39.1513 4.92366 38.6919 5.15337 38.2178 5.35864C38.1005 5.40751 37.861 5.43684 37.8317 5.38796C37.5873 4.98231 37.3478 5.31465 37.2843 5.44661C37.211 5.61278 37.3087 5.86204 37.3576 6.06731C37.3674 6.1113 37.4994 6.12108 37.646 6.17484L37.4798 5.66655L38.0467 5.73986L37.9539 5.86204L38.7701 6.78087L37.2599 7.59707C37.9343 7.82189 38.4719 8.33996 38.5795 8.95577C38.7456 9.9137 39.4739 10.1727 40.3976 10.2118C40.5344 10.2167 40.6762 10.1972 40.813 10.1874C40.2803 10.554 40.4025 10.9547 40.6371 11.4044C40.8814 11.8736 40.4562 12.0739 40.1776 12.2548C39.9284 12.4161 39.596 12.4552 39.2002 12.5822L38.4817 12.4209V12.4307ZM53.8184 13.2371C54.4489 13.9409 54.444 14.1609 53.8917 14.8793C53.8379 14.9526 53.8575 15.1139 53.8917 15.2214C53.9504 15.4023 54.0432 15.5684 54.097 15.6906C53.6669 16.0767 53.3297 16.5264 52.88 16.7463C52.4304 16.9613 51.8683 17.1764 51.7217 17.1226L50.842 17.582L50.7198 17.2937L49.4442 17.0835L49.7667 17.4843L49.5273 17.8704L48.1197 17.7384C48.2223 17.9681 48.364 18.2956 48.3738 18.2907C48.9505 18.0659 48.7941 18.4862 48.7355 18.7892L49.8498 17.9388L50.0111 18.0512L49.5712 18.8576L50.3239 18.7208L50.5683 19.4295L51.101 18.8479L51.2818 18.9358C51.2476 19.146 51.1596 19.3659 51.1939 19.5663C51.2281 19.7814 51.3747 19.9769 51.4676 20.1675L52.2984 19.4197L51.6435 19.3122V19.146L52.4499 19.0336C52.5037 19.1509 52.5379 19.1949 52.533 19.234C52.5183 19.3757 52.489 19.5223 52.4304 19.84C52.709 19.752 52.8996 19.6396 53.0755 19.6543C53.227 19.669 53.4909 19.8351 53.4909 19.9329C53.4909 20.6807 53.7206 20.9886 54.4635 21.1254L54.5222 21.9269C55.2895 20.837 54.9914 19.6934 54.6981 18.5449L54.6102 19.4246C54.4244 19.1118 54.2925 18.7697 54.3365 18.4471C54.3853 18.1148 54.6004 17.8069 54.7421 17.4941H54.3804L54.2485 17.3132L54.8496 17.0444L54.3951 16.6681L55.1624 16.6241L54.7128 16.0572C55.0402 15.8763 55.4068 15.6564 54.7372 15.3729C55.7831 14.7718 54.6639 13.8529 55.1282 13.2371H53.8086H53.8184ZM27.8321 20.4363C27.7881 19.8938 28.2622 19.4783 28.6434 19.7618C29.2005 20.1675 29.4889 19.8645 29.7773 19.4783C29.9825 19.2047 30.1438 18.8919 30.3295 18.5937L29.9239 18.2907L29.9727 18.1685L31.2581 18.2956L31.4194 17.4892L31.6296 17.5087C31.6296 17.7238 31.5954 17.9437 31.6394 18.149C31.6882 18.3787 31.7713 18.6328 31.9228 18.799C32.0059 18.887 32.2649 18.8137 32.5044 18.8137C32.2307 18.4667 31.9521 18.2614 31.8886 18.0024C31.6833 17.191 31.7273 17.2008 31.0382 17.6162C30.8427 17.7335 30.5495 17.6896 30.3002 17.7189L30.2562 17.2106L29.875 17.6553L29.3814 17.3963L29.4351 18.1978C29.0539 17.4647 28.5456 16.9711 27.6219 16.8587L28.0862 17.6407L27.358 17.4354L27.8858 17.9339L27.7832 18.0561L26.444 17.1031L26.5418 17.6456L26.4343 17.6847L25.9162 16.844L25.3004 17.3377L25.6963 17.8606L24.709 18.4911C25.1538 18.9847 24.5624 19.4344 24.709 19.9573L24.1225 19.8009V20.8175L25.4421 20.2408L25.3737 20.8126C25.6523 20.754 25.8624 20.7149 26.0726 20.6709L25.6718 20.4265H27.8418L27.8321 20.4363ZM29.049 14.3026L29.005 14.1511L32.8661 12.6262L32.8074 12.3721C32.5924 12.3721 32.3676 12.3281 32.1623 12.3818C31.7371 12.4894 31.3168 12.6311 30.9062 12.7924C29.616 13.3007 28.2817 13.5304 26.8986 13.3593C26.1019 13.2616 25.3151 13.1247 24.4109 12.9879C24.9338 14.5763 26.444 14.2684 27.4704 14.8549H26.7128L26.6786 15.1188L29.8945 15.6662L29.1566 15.9105C29.8652 16.4139 31.1262 16.5508 32.0108 16.2185L30.7938 16.1403C31.4194 15.7786 32.2356 16.3064 32.695 15.5831L33.1593 15.8763L33.5161 15.109C32.133 15.5342 31.5416 15.4365 31.4341 14.8353L32.5826 15.0601L32.4507 14.2293C31.9228 14.4932 31.4096 14.3026 30.8818 14.3759C30.2855 14.459 29.6648 14.327 29.0539 14.2928L29.049 14.3026ZM42.5383 3.9755C42.7093 4.12213 42.8853 4.20521 42.9488 4.34695C43.159 4.81125 43.6233 5.51992 43.462 5.73008C43.0857 6.21882 43.0123 6.73689 42.9097 7.26961C42.8902 7.36736 43.0368 7.49932 43.1296 7.65083L44.156 5.30488V3.75068L44.2489 3.72625L44.4737 4.20033L44.5959 4.18078L44.503 2.76343L45.2752 2.68523C44.5959 2.05964 43.853 1.91302 43.0514 2.02543V1.60511L42.6165 2.00099L42.5431 1.5709C42.1326 2.29424 41.5168 2.38221 41.2431 1.94234C40.7837 2.04009 40.378 2.1525 39.9626 2.20138C39.6254 2.24048 39.2735 2.21115 38.9362 2.17694C38.6137 2.14761 38.296 2.06942 37.949 2.00588L38.0419 3.29127L37.47 3.39879C37.9783 3.5112 38.1152 3.76535 37.9197 4.30296C38.2716 4.14656 38.5404 3.97062 38.7603 3.75068C39.2295 3.28149 39.7622 3.20329 40.3634 3.433C40.7446 3.57474 41.1258 3.7067 41.507 3.85332C41.7807 3.95595 42.0446 4.07325 42.3574 4.20033L42.5383 3.9755ZM49.8156 26.3109C50.0746 25.9933 49.8987 25.397 49.5273 25.3774C48.8479 25.3383 48.5253 24.9474 48.2614 24.3902C47.7091 23.2368 46.976 22.2348 45.7493 21.6923C45.5782 21.619 45.4414 21.448 45.3094 21.3014C44.7962 20.7295 44.2977 20.1381 43.7748 19.5712C43.418 19.1802 43.027 18.8234 42.6751 18.4764C42.8511 19.3415 43.0172 20.1919 43.2029 21.0325C43.2616 21.2916 43.3251 21.5848 43.4913 21.7705C43.8041 22.1175 44.1951 22.3961 44.459 22.6258H46.3065C46.3065 22.6258 46.3456 22.6845 46.3211 22.7285C45.9985 23.3589 46.2478 23.6864 46.7659 24.1409C47.4452 24.7323 48.4471 24.9229 48.8577 25.876C48.9994 26.2083 49.4246 26.438 49.757 26.6579C49.884 26.741 50.1186 26.6726 50.2995 26.6726L50.319 26.526L49.8107 26.3207L49.8156 26.3109ZM39.3957 31.4867L39.5472 31.4036C39.4103 31.1495 39.1806 30.91 39.1611 30.6461C39.122 30.1378 39.2148 29.6246 39.2197 29.1114C39.2246 28.4956 39.249 27.8749 39.166 27.2738C39.1171 26.9023 38.7945 26.57 38.7603 26.2034C38.7114 25.6756 38.555 25.3677 37.9588 25.397V24.7128L39.034 24.6394C39.0584 24.3902 39.1024 24.1703 39.0878 23.9552C39.0682 23.7206 38.9802 23.4958 38.9314 23.2612C38.8043 22.66 38.2031 22.23 37.6997 22.3912C36.7516 22.6894 36.6245 22.9044 36.9226 23.7255C36.9911 23.9112 37.123 24.0725 37.1768 24.2582C37.299 24.6883 37.4798 25.1282 37.4749 25.5632C37.4651 26.4722 37.602 27.3177 38.1298 28.0704C38.6039 28.7449 38.7603 29.434 38.4133 30.2453C38.1689 30.8122 38.4377 31.1837 39.0487 31.3303C39.1708 31.3596 39.2784 31.4329 39.3957 31.4867ZM36.2286 29.1896C36.4681 29.4096 36.6001 29.522 36.7223 29.6393C36.82 29.7272 36.9129 29.8201 37.0057 29.913C36.9959 29.7566 37.0057 29.5953 36.9764 29.4438C36.9226 29.1652 36.8493 28.8964 36.776 28.608C36.7858 28.608 36.6587 28.6373 36.5023 28.6813C36.5463 28.4761 36.605 28.3343 36.605 28.1926C36.605 27.8016 36.4143 27.2444 36.605 27.0489C37.1132 26.526 36.6392 26.3305 36.4534 25.9346C36.0429 26.9414 36.2726 28.1095 35.1827 28.7546L35.9598 29.043L35.5542 29.4047L35.9158 29.6881C35.0508 30.2697 34.0684 30.7389 34.3958 32.0781L36.8591 32.8601L36.7956 32.6401C36.8738 32.5619 36.9568 32.4935 37.0253 32.4104C37.0839 32.3371 37.1181 32.2491 37.167 32.166C36.7174 32.1416 36.908 31.6871 36.8787 31.5356C36.8151 31.1739 36.9911 30.7683 37.0741 30.3479L36.2775 29.9765L36.2286 29.1896ZM51.4969 12.1033C51.8781 12.4307 52.098 12.7631 52.3668 12.807C52.7627 12.8706 53.2172 12.7924 53.5936 12.6409C53.8379 12.5431 54.0188 12.2254 54.1703 11.9664C54.2289 11.8638 54.1849 11.6341 54.1068 11.5217C53.7549 11.0231 53.3443 10.5637 53.0217 10.0457C52.8214 9.72798 52.7481 9.33699 52.621 8.99487C51.8048 9.01931 51.6875 9.74753 51.36 10.1874C51.0326 10.6321 50.9055 11.2235 50.6318 11.9078L50.495 11.3213L50.3386 11.3115L50.1822 11.986C50.4901 12.2352 50.7833 12.3574 50.8517 12.5578C50.9984 12.9977 51.2232 12.8706 51.3991 12.8266L50.9299 12.0984H51.5018L51.4969 12.1033ZM51.9661 25.7684L52.8947 24.9962L52.8263 24.918L52.5477 25.0598C52.4206 24.8105 52.3668 24.5612 52.2153 24.4488C52.0296 24.312 51.7559 24.2973 51.5164 24.2289L51.5458 24.1018L51.9025 24.0432C51.3894 23.6326 51.4285 22.8409 50.6171 22.6943C50.1724 22.6161 49.7765 22.2739 49.3513 22.0736C49.1558 21.9807 48.9114 21.9856 48.7404 21.8732C48.5449 21.7461 48.4032 21.5359 48.2419 21.36L47.9193 21.8292L48.4618 22.489L48.7648 22.1566C48.6817 22.8067 48.8039 23.1977 49.3855 23.2123V24.0627C49.7325 24.1654 50.0307 24.3315 50.3288 24.3267C50.6269 24.3218 50.925 24.1458 51.2036 24.053L50.8811 24.8056L51.9661 25.7782V25.7684ZM43.9409 29.5073C43.7308 29.0674 43.5793 28.6471 43.3496 28.2806C43.0612 27.8211 42.9195 27.4204 43.4033 26.9952C43.4815 26.9268 43.4864 26.6726 43.4229 26.5602C43.1541 26.0715 42.8462 25.6023 42.5529 25.1282L42.4063 25.2064C42.5285 25.4459 42.7582 25.6902 42.7484 25.9199C42.7338 26.2083 42.5187 26.4869 42.3525 26.8388L43.2176 26.7068L42.6067 27.2591L42.7044 28.955L43.3887 29.0088C43.1052 29.2043 42.7338 29.3314 42.7044 29.5171C42.6653 29.7468 42.9097 30.0205 43.0368 30.2795L42.6507 30.6901L42.7924 30.7096L42.7484 31.6138L42.4356 31.5111L42.3281 31.6333L43.1834 32.8552L43.7699 32.4642L43.5891 32.0927L44.0876 31.4476L43.7161 29.522C43.7161 29.522 43.809 29.5171 43.9507 29.5024L43.9409 29.5073ZM30.9014 9.293C31.2337 9.46406 31.5367 9.65467 31.8691 9.79152C32.392 10.0066 32.9492 10.1434 33.4477 10.3976C33.8631 10.6077 34.2004 10.9743 34.6109 11.204C34.9432 11.3897 35.344 11.4435 35.6812 11.6243C35.9012 11.7416 36.0527 11.986 36.3264 12.2694L36.8591 10.8667C36.0918 10.5735 35.4564 10.2314 34.782 10.1092C34.1026 9.98212 33.565 9.78663 33.086 9.24901C32.7586 8.88246 32.2307 8.69185 31.8055 8.43282C31.8984 9.20992 31.175 8.91667 30.9014 9.29789V9.293ZM29.1028 26.2767L28.7118 26.4478L28.7998 26.6873C29.0099 26.614 29.2494 26.5846 29.4254 26.4625C30.2855 25.8417 30.8329 24.8789 31.8544 24.4097C32.7635 23.9943 32.9492 23.4714 32.7879 22.4743C33.2913 22.5183 33.8973 22.8555 34.1661 22.1127C33.8778 21.492 33.4917 21.4871 32.9541 21.7999C31.9961 22.357 31.3901 23.1928 30.9014 24.1458C30.5983 24.7421 30.3149 25.3188 29.4742 25.309C29.3129 25.309 29.1321 25.7391 29.0002 25.9933C28.9659 26.0519 29.0784 26.1888 29.1126 26.2718L29.1028 26.2767ZM25.9944 11.6781C26.0628 12.0299 26.2876 12.2303 26.791 11.9811C26.9474 11.9029 27.1869 11.8589 27.3433 11.9175C28.3843 12.3232 28.3795 12.3379 29.2054 12.3085L27.5926 11.16L28.14 11.0476C26.9572 10.5246 26.8692 9.47872 26.7031 8.45725C26.923 9.08284 25.6083 9.39564 26.3316 9.96746C25.9651 10.2754 25.5936 10.5344 25.3053 10.8667C25.1733 11.0183 25.2124 11.3213 25.1733 11.551L26.0042 11.6829L25.9944 11.6781ZM49.8596 29.258C49.6788 29.0968 49.5566 28.9013 49.3953 28.8622C48.7208 28.6862 48.6182 28.5054 48.9603 27.9091C48.7599 27.9629 48.4911 28.1095 48.4032 28.0411C47.9779 27.6941 47.587 27.3031 47.2057 26.9023C46.9809 26.6677 46.8343 26.3549 46.5948 26.1448C46.4971 26.0617 46.1501 26.091 46.0719 26.1888C45.9252 26.3794 45.8861 26.6579 45.8324 26.8192L46.5997 26.6091C46.5753 26.7459 46.585 26.8486 46.541 26.9072C46.238 27.308 46.2771 27.5377 46.6926 27.8554C46.8441 27.9727 47.0054 28.1046 47.0884 28.2659C47.3572 28.8084 47.5918 29.3705 47.8362 29.913L48.7795 29.5366L49.0532 29.869L49.8596 29.2532V29.258ZM32.1037 7.03991L32.3529 6.9666C32.2845 6.47297 32.2698 5.95979 32.1281 5.4906C32.0499 5.24134 31.6442 5.08983 31.5758 4.84058C31.5025 4.57177 31.654 4.24431 31.7029 3.95107C31.0626 4.2492 30.398 4.64508 29.6746 4.87479C28.8438 5.13871 28.2426 5.62256 27.837 6.40454L28.8242 5.81806L31.2728 6.04776L32.1085 7.04479L32.1037 7.03991ZM31.219 29.0625C31.2826 28.8231 31.3119 28.4321 31.4048 28.4125C31.9277 28.3197 32.0255 27.5621 32.6462 27.6501C32.7097 27.6599 32.7977 27.5181 32.871 27.4497C32.7048 27.1271 32.7292 27.1222 33.0127 26.8437C33.1056 26.7508 33.1398 26.5211 33.1007 26.3843C33.042 26.1692 32.9003 25.9786 32.7977 25.7782C31.913 26.5846 31.1017 27.3911 30.2073 28.0948C29.9825 28.2708 29.4938 28.1193 29.1175 28.1193C29.6697 28.7889 30.3833 29.131 31.2239 29.0625H31.219ZM47.7873 7.36736C47.6456 8.1689 48.0806 8.81403 48.9261 8.91667C49.757 9.02419 50.5243 8.41815 50.6025 7.60196C50.6758 6.81997 50.1089 6.14551 49.3513 6.12107C49.1802 6.12107 49.0141 6.17484 48.7159 6.2286L49.2536 6.62448L48.8723 7.36736H47.7922H47.7873ZM47.5967 17.9584L46.0034 18.408C46.0767 19.1216 45.3681 18.6231 45.1824 18.9554L45.6369 19.0825L45.2557 19.4441C45.5 19.7129 45.7297 19.9475 45.935 20.1968C46.3113 20.6513 46.5557 21.2769 47.3475 21.1938L46.3358 19.5908L47.2106 19.2242L47.0396 18.5546L47.5283 18.8283C47.9437 18.4471 47.8949 18.1392 47.5918 17.9633L47.5967 17.9584ZM33.5797 8.8287C33.5992 8.68207 33.6432 8.57944 33.6188 8.49635C33.3157 7.47977 33.7165 6.71245 34.4349 6.0331C34.8211 5.66655 35.1827 5.27067 35.5542 4.88945C36.4632 3.97062 36.0185 2.8123 36.1016 1.74685C36.1016 1.69797 35.9158 1.63444 35.7497 1.54158C35.7692 1.71264 35.7741 1.79572 35.7888 1.87881C35.994 3.25706 35.5884 4.41048 34.518 5.32932C34.2395 5.5688 33.9951 5.84738 33.7654 6.13574C33.086 6.99592 32.9981 8.10536 33.5797 8.83358V8.8287ZM41.2138 23.139C40.163 22.5428 40.0799 22.5281 39.8111 22.836C39.4836 23.2074 39.425 24.2631 39.7622 24.6346C40.4513 25.3872 40.7446 24.2582 41.292 24.2778C41.3164 24.2778 41.3457 24.1849 41.3897 24.1116L41.0134 24.1507L41.2138 23.139ZM28.8535 8.208C29.352 8.10536 29.7528 8.00273 30.1585 7.95385C30.2269 7.94408 30.3246 8.16401 30.4077 8.28131C30.8671 8.03205 30.8818 7.85122 30.4371 7.21585L30.2953 7.67038C29.9532 7.00569 29.5133 6.81509 29.0393 7.08389C28.614 7.32338 28.575 7.76324 28.8584 8.208H28.8535ZM47.802 20.1626C48.4471 20.1088 52.9582 22.2739 53.3345 22.8213L53.5594 22.3326C51.6826 21.5017 49.8156 20.7149 48.0464 19.669L47.8069 20.1675L47.802 20.1626ZM35.0165 1.97167L33.1153 2.94915L34.4252 3.63827L34.0782 4.42515C34.8308 3.83866 34.9335 3.0078 35.0117 1.97167H35.0165ZM45.8812 4.11235C45.0455 5.98423 44.3124 7.86588 43.3887 9.68399L43.8725 9.89904C43.8041 9.32232 45.7053 4.84546 46.2625 4.25897L45.8812 4.11235ZM35.3293 24.5759C34.9139 25.5387 34.5278 26.4625 34.1173 27.3764C33.7067 28.2903 33.2669 29.1994 32.8417 30.1036L33.1398 30.1818C33.9658 28.3294 34.7771 26.5113 35.5884 24.6883L35.3342 24.5759H35.3293ZM43.5353 24.7616L45.9594 30.304L46.2429 30.1915C45.2996 28.4076 44.5861 26.526 43.7748 24.6639L43.5353 24.7616ZM25.8869 22.6845C27.6952 21.6875 29.5427 20.8664 31.395 20.0599L31.1408 19.5663C30.828 20.0844 26.4392 22.2348 25.6816 22.2593L25.8869 22.6845ZM30.569 9.43962L30.3931 9.64489C30.9796 10.0457 31.5709 10.4415 32.1574 10.8423C32.5142 11.0867 32.8563 11.3457 33.218 11.5803C33.8827 12.0104 34.5522 12.4307 35.2169 12.8559L35.3098 12.7093C33.7312 11.6194 32.1476 10.5295 30.569 9.43962ZM49.9622 11.551C50.187 10.8863 50.1333 10.2949 49.6152 9.57158L49.7325 10.6566L49.5908 10.6761L49.0678 9.53248C48.8137 10.4806 49.0141 10.9156 49.9671 11.551H49.9622ZM37.3185 6.5756C37.2061 6.37033 37.1768 6.23349 37.1084 6.20905C36.9862 6.16017 36.732 6.13574 36.7125 6.17972C36.517 6.63425 36.3557 7.09856 36.1993 7.53842L37.8806 6.55117L37.8219 6.47297L37.3234 6.5756H37.3185ZM51.7755 8.02228L51.3845 9.04374L52.3375 8.72606L51.7168 6.74666L51.4724 6.81997L51.7803 8.01739L51.7755 8.02228ZM29.2641 10.1043L29.1028 10.3145L29.5915 11.1893L30.3784 10.4171L30.2953 10.2167L29.2641 10.1092V10.1043ZM34.5522 7.59218L34.4154 7.65083L35.2463 9.81595L35.5884 9.6791L34.5474 7.5873L34.5522 7.59218ZM32.7488 16.1842L32.6462 16.4237L33.6921 17.0102L33.8827 16.2869L32.7488 16.1842ZM33.5454 5.55902L33.6383 5.53459L33.2229 4.04882L32.7683 4.2492L33.5503 5.56391L33.5454 5.55902ZM40.0799 28.6911L40.6517 28.6471C40.8603 28.0639 40.8651 27.6924 40.6664 27.5328L40.5931 28.4761L40.0799 28.09V28.6911ZM24.1812 15.0259L24.1079 15.0992L24.9925 16.2869L25.2662 15.935L24.1812 15.0308V15.0259ZM27.8272 10.0114L28.008 10.1678L28.531 9.89904L28.4381 9.17081L28.3159 9.0975L27.8272 10.0163V10.0114ZM50.4412 10.4269L50.6025 10.4122L50.71 9.39564L50.5732 9.38586L50.2408 10.0212L49.9964 9.42985L49.8987 9.51782L50.4461 10.4269H50.4412ZM29.8799 8.91178L29.7479 8.69674L28.8486 8.8287C29.1321 9.08284 29.2983 9.32721 29.4156 9.30766C29.5866 9.27834 29.7284 9.05352 29.8799 8.91178ZM45.6418 16.9418L45.7102 17.108C45.935 17.0004 46.1892 16.9271 46.3749 16.7707C46.4384 16.717 46.3309 16.4677 46.2918 16.2282L45.6418 16.9418Z" fill="#0D1853"/>
<path d="M36.864 16.4872C36.9422 16.2673 37.0595 16.0522 37.0937 15.8225C37.1328 15.583 37.1035 15.3338 37.2355 15.0308C38.3987 16.6289 39.557 18.2271 40.7788 19.8986L40.2266 20.1576C40.1435 20.0697 40.0946 20.0404 40.0897 20.0061C40.0604 19.796 40.119 19.5369 40.0115 19.3854C39.337 18.4471 38.6382 17.5282 37.9295 16.6192C37.8611 16.5312 37.69 16.497 37.5629 16.4872C37.3283 16.4677 37.0937 16.4774 36.8542 16.4774H36.864V16.4872Z" fill="#0D1853"/>
<path d="M36.8542 16.4775L37.4065 16.9516L37.255 17.1715C37.4945 17.4452 37.8171 17.6651 37.9099 17.9584C38.0468 18.3982 38.1738 18.6475 38.4573 18.4667L39.2931 19.278C38.907 19.2437 38.3693 19.6787 38.1494 18.9261C38.125 18.8479 37.8366 18.8576 37.6753 18.8137C37.4847 18.7599 37.1475 18.7208 37.1328 18.6279C37.0106 17.9193 36.9471 17.1959 36.864 16.4775H36.8542Z" fill="#0D1853"/>
<path d="M36.4777 13.7111C36.7221 14.1168 36.4484 14.3172 36.2334 14.6495C35.6175 15.5928 35.1337 16.624 34.6107 17.6259C34.5277 17.7872 34.4934 17.9729 34.4397 18.144L34.1953 18.0756C34.3322 17.6064 34.3957 17.103 34.6156 16.6778C35.1239 15.6954 35.7006 14.7521 36.2578 13.7942C36.2871 13.7404 36.4142 13.7453 36.4973 13.7209L36.4826 13.7111H36.4777Z" fill="#0D1853"/>
<path d="M36.4922 13.7209L37.1422 11.9175C37.3622 12.7092 37.1862 13.3299 36.4775 13.7112L36.4922 13.7209Z" fill="#0D1853"/>
<path d="M39.9676 7.30376C39.8209 7.95379 39.5668 8.335 38.8875 8.04665C38.9363 7.38685 39.1856 7.00563 39.9676 7.30376Z" fill="#0D1853"/>
<path d="M39.8845 6.75156L38.5698 6.3459C38.8077 6.0494 39.2459 6.18462 39.8845 6.75156Z" fill="#0D1853"/>
<path d="M49.444 6.38501C50.2211 6.55118 50.3775 6.97639 50.3384 7.52866C50.2944 8.13959 50.0109 8.57457 49.3755 8.68698C48.6913 8.81405 48.2808 8.57457 48.012 7.85123C48.6131 8.22756 49.1996 8.56968 49.7274 7.92943C50.138 7.42603 50.0011 6.91285 49.4489 6.38501H49.444Z" fill="#0D1853"/>
</svg>
