<svg width="80" height="50" viewBox="0 0 80 50" fill="none" xmlns="http://www.w3.org/2000/svg">
<path d="M68.5933 31.4015C68.6028 31.3048 68.6107 31.2081 68.6203 31.1114C68.7344 29.8702 68.8517 28.6306 68.9595 27.3878C69.0165 26.7378 69.0498 26.0879 69.1053 25.438C69.1656 24.7199 69.2401 24.005 69.3035 23.2869C69.3764 22.4499 69.4414 21.6114 69.5143 20.7728C69.5682 20.1419 69.6221 19.511 69.695 18.8817C69.7045 18.8024 69.8234 18.674 69.8932 18.6724C70.635 18.6566 71.3785 18.6629 72.1219 18.6613C72.2915 18.6613 72.347 18.7295 72.3232 18.9007C72.1964 19.8201 72.0744 20.7411 71.9586 21.6621C71.8984 22.1408 71.8667 22.6227 71.8081 23.1014C71.7145 23.8655 71.6099 24.628 71.51 25.3904C71.4149 26.126 71.3198 26.8615 71.2231 27.597C71.155 28.1154 71.0836 28.6321 71.0139 29.1505C70.9663 29.5119 70.9156 29.8718 70.8728 30.2348C70.7476 31.2746 70.6319 32.3145 70.5019 33.3528C70.4004 34.1565 70.2784 34.9554 70.1753 35.7591C70.1151 36.2283 70.0802 36.6991 70.0231 37.1684C69.9296 37.9324 69.8298 38.6949 69.7299 39.4574C69.6839 39.8109 69.63 40.1628 69.592 40.5179C69.573 40.6938 69.4905 40.7477 69.3209 40.7461C68.6567 40.7398 67.9941 40.7382 67.3299 40.7461C67.1365 40.7493 67.0842 40.6764 67.0604 40.4909C66.9273 39.4811 66.764 38.4761 66.6356 37.4664C66.5278 36.6262 66.4533 35.7813 66.3645 34.938C66.2742 34.0836 66.1711 33.2308 66.0982 32.3748C65.9873 31.0733 65.8969 29.7687 65.797 28.4657C65.7875 28.3436 65.7653 28.2232 65.6813 28.0979C65.6639 28.1677 65.6401 28.2358 65.6306 28.3072C65.5926 28.629 65.5561 28.9523 65.5244 29.2757C65.4721 29.8068 65.434 30.3378 65.3754 30.8672C65.2882 31.6535 65.182 32.4366 65.0932 33.2228C64.9902 34.1359 64.903 35.0506 64.7952 35.962C64.6922 36.8323 64.5669 37.701 64.4623 38.5728C64.391 39.1609 64.326 39.7522 64.28 40.3435C64.2562 40.6494 64.1421 40.7636 63.8203 40.7477C63.2465 40.7192 62.6711 40.735 62.0972 40.7445C61.9181 40.7477 61.8151 40.6906 61.7897 40.5099C61.7326 40.0994 61.666 39.692 61.6169 39.2798C61.4917 38.2288 61.3791 37.1779 61.2476 36.1285C61.1461 35.3169 61.0145 34.51 60.9131 33.7C60.7783 32.6316 60.6674 31.56 60.5342 30.4916C60.4359 29.699 60.3123 28.908 60.2108 28.1154C60.1506 27.6462 60.1142 27.1754 60.0634 26.7061C60.0143 26.2655 59.9636 25.8248 59.9081 25.3841C59.8066 24.5994 59.7004 23.8163 59.5958 23.0333C59.4817 22.1725 59.3596 21.3133 59.2534 20.4526C59.1916 19.9437 59.1583 19.4317 59.1044 18.9229C59.0838 18.7263 59.1583 18.6582 59.3517 18.6597C60.084 18.6661 60.818 18.6661 61.5503 18.6597C61.7342 18.6597 61.8055 18.7247 61.8262 18.9165C61.9324 19.8962 62.0592 20.8742 62.1686 21.8523C62.297 23.0016 62.4143 24.1524 62.5363 25.3033C62.6504 26.3828 62.7804 27.4623 62.8724 28.5434C62.9437 29.3708 62.9691 30.2015 63.0135 31.0305C63.023 31.1922 63.0325 31.3523 63.042 31.5124H63.1197C63.1704 31.0274 63.2227 30.5439 63.2734 30.0588C63.3828 29.0364 63.4938 28.0155 63.6031 26.9931C63.6539 26.5223 63.7046 26.0515 63.7442 25.5791C63.7965 24.9688 63.8251 24.3569 63.8837 23.7482C63.9693 22.8716 64.0771 21.9981 64.1675 21.1215C64.2325 20.4922 64.2832 19.8613 64.3418 19.2304C64.3514 19.1226 64.3783 19.0164 64.3926 18.9086C64.4195 18.7152 64.5273 18.6534 64.7207 18.655C65.4531 18.6629 66.187 18.6613 66.9194 18.6534C67.0905 18.6518 67.1762 18.7041 67.1936 18.8785C67.219 19.1432 67.2586 19.4064 67.2871 19.6711C67.36 20.348 67.4314 21.0248 67.5027 21.7017C67.5518 22.1725 67.6026 22.6449 67.6454 23.1173C67.769 24.4568 67.8895 25.7978 68.0147 27.1373C68.0908 27.9521 68.1669 28.7669 68.2509 29.5817C68.3048 30.1111 68.3714 30.6406 68.4395 31.1684C68.4506 31.2509 68.4982 31.3301 68.5283 31.4094L68.5933 31.3951V31.4015Z" fill="#0D1853"/>
<path d="M7.99809 40.743C7.36877 36.482 6.87578 32.2495 6.67921 27.9156C6.59678 28.0012 6.56508 28.0187 6.56349 28.0393C6.51277 28.5798 6.47472 29.1204 6.41449 29.6593C6.35742 30.1777 6.27341 30.6913 6.20841 31.2081C6.15293 31.6488 6.10696 32.091 6.0594 32.5333C5.93735 33.6746 5.81687 34.816 5.69164 35.9557C5.61872 36.6215 5.54105 37.2873 5.46021 37.9514C5.35558 38.8027 5.23986 39.6524 5.14158 40.5052C5.11939 40.7002 5.03538 40.7477 4.85308 40.7445C4.23961 40.7366 3.62456 40.7319 3.0111 40.7477C2.76539 40.7541 2.67028 40.6494 2.64492 40.4291C2.48164 39.0167 2.32471 37.6043 2.15034 36.1935C2.05364 35.412 1.92366 34.6337 1.82221 33.8522C1.76039 33.3734 1.73344 32.8915 1.67637 32.4128C1.58285 31.6392 1.47505 30.8657 1.37994 30.0921C1.28007 29.2868 1.19289 28.4816 1.08827 27.6779C0.982059 26.8567 0.853659 26.0404 0.749037 25.2192C0.617467 24.181 0.506504 23.1395 0.376519 22.0996C0.271897 21.2674 0.149838 20.4367 0.0436306 19.6045C0.0119269 19.3493 -0.00392502 19.0909 0.000830529 18.8357C0.000830529 18.7771 0.110209 18.6724 0.170446 18.6708C0.953527 18.6598 1.73502 18.6566 2.5181 18.6708C2.59102 18.6708 2.71625 18.7977 2.72418 18.8753C2.93501 20.7585 3.1395 22.6433 3.33289 24.5297C3.4597 25.7661 3.57542 27.0042 3.68639 28.2422C3.77516 29.2266 3.84807 30.2126 3.92892 31.197C3.93367 31.2493 3.9527 31.3016 4.03037 31.3539C4.07793 30.9196 4.12707 30.4868 4.17304 30.0525C4.24754 29.3756 4.32204 28.6987 4.39338 28.0203C4.43776 27.5986 4.48373 27.1769 4.52019 26.7537C4.57409 26.1339 4.61055 25.5125 4.6692 24.8943C4.74529 24.0969 4.83723 23.3012 4.91649 22.5038C4.99099 21.7651 5.05915 21.0264 5.1289 20.2877C5.1717 19.8455 5.21292 19.4032 5.25413 18.9609C5.27157 18.7675 5.35083 18.655 5.57117 18.6566C6.33364 18.6629 7.09612 18.6566 7.85859 18.6645C7.93151 18.6645 8.05674 18.7422 8.06625 18.8008C8.1249 19.1401 8.16295 19.484 8.19623 19.828C8.25172 20.4082 8.29451 20.99 8.35158 21.5702C8.45462 22.6037 8.57192 23.6356 8.67338 24.6708C8.76215 25.5648 8.83189 26.462 8.91908 27.3561C9.03638 28.5529 9.15844 29.7497 9.28526 30.9465C9.30428 31.1177 9.36293 31.2857 9.41366 31.4982C9.4628 31.43 9.49133 31.4094 9.49292 31.3856C9.54523 30.7151 9.58803 30.043 9.64826 29.374C9.71008 28.6765 9.78776 27.9791 9.85592 27.2816C9.90665 26.7616 9.95579 26.2401 9.99859 25.7186C10.1222 24.2 10.2364 22.6814 10.3632 21.1643C10.4282 20.3955 10.509 19.6283 10.5994 18.8627C10.6089 18.7882 10.7389 18.6709 10.815 18.6693C11.5473 18.655 12.2813 18.6613 13.0136 18.6582C13.1594 18.6582 13.2387 18.6962 13.2165 18.8642C13.0992 19.7456 12.9867 20.6286 12.8725 21.5115C12.8266 21.8634 12.7742 22.2153 12.7362 22.5672C12.6839 23.0571 12.649 23.5485 12.592 24.0383C12.5064 24.7627 12.4065 25.4856 12.3098 26.2084C12.2131 26.9344 12.1132 27.6588 12.0149 28.3833C11.9404 28.9302 11.8628 29.4771 11.7898 30.0239C11.7423 30.3759 11.6979 30.7262 11.6567 31.0797C11.4934 32.4524 11.3397 33.8268 11.1685 35.1996C11.0686 36.0017 10.9354 36.799 10.8308 37.5995C10.769 38.0688 10.7436 38.5411 10.685 39.0104C10.62 39.5398 10.5407 40.0661 10.4535 40.5924C10.444 40.6494 10.3426 40.735 10.2839 40.7366C9.53254 40.7461 8.78117 40.743 7.99492 40.743H7.99809Z" fill="#0D1853"/>
<path d="M46.3961 13.7061C46.3786 13.6617 46.3659 13.6141 46.3422 13.5729C46.1694 13.2844 46.0283 13.2574 45.6891 13.4477C45.5194 13.5428 45.4228 13.8963 45.5321 14.0706C45.5702 14.1309 45.651 14.2006 45.716 14.2054C46.0156 14.226 46.3247 14.3068 46.6053 14.1087C46.7495 14.0072 46.9097 13.9248 47.065 13.836C47.493 13.5919 47.5675 13.1544 47.2949 12.7375C46.9905 12.273 46.6719 12.1098 46.0489 12.1526C45.1374 12.216 44.4574 12.6678 43.7631 13.11C42.8706 13.6775 41.9464 14.1578 40.9177 14.3829C40.4786 14.4796 39.9998 14.413 39.5401 14.394C39.2865 14.3829 39.0091 14.3718 38.7856 14.2688C38.18 13.9866 37.584 13.6775 37.0086 13.3383C36.2857 12.9103 35.6009 12.4221 34.8781 11.9956C34.3788 11.7024 33.8224 11.845 33.2866 11.9037C32.8998 11.9465 32.5812 12.1018 32.3497 12.4458C32.1817 12.6963 32.0343 12.9103 32.2055 13.2194C32.3228 13.4302 32.28 13.7219 32.5717 13.8455C32.9347 14.0009 33.2977 14.0421 33.6638 13.8899C33.9175 13.7853 34.0348 13.1084 33.8065 12.9816C33.686 12.915 33.4356 12.9357 33.3262 13.0228C33.1043 13.1988 33.1487 13.3446 33.4277 13.5856C33.0155 13.6601 32.7904 13.4794 32.8443 13.0831C32.9489 12.3269 32.83 12.4633 33.5355 12.4522C33.7701 12.4474 34.1014 12.4569 34.2218 12.5996C34.4739 12.8992 34.6213 13.2891 34.7957 13.6506C34.821 13.7029 34.7798 13.8075 34.7402 13.8693C34.6165 14.0595 34.4977 14.2593 34.3407 14.4226C34.2298 14.5383 34.0728 14.6445 33.9207 14.6762C33.5545 14.7507 33.174 14.8379 32.8094 14.8093C32.5019 14.7856 32.2087 14.6017 31.9075 14.4955C31.4842 14.3465 31.1355 14.1356 31.1577 13.5713C30.6631 13.7124 30.2192 13.8487 29.8515 14.1626C29.731 14.2656 29.6359 14.4004 29.5075 14.4891C29.4203 14.5478 29.2792 14.5985 29.1905 14.5684C29.043 14.5193 28.959 14.4067 28.9654 14.2038C28.9876 13.4508 29.4235 12.9071 29.8182 12.3269C30.1194 11.8847 30.5474 11.6152 30.9659 11.3219C31.0182 11.2855 31.0737 11.2522 31.2021 11.1713C30.8216 11.1507 30.5284 11.0873 30.2462 11.2665C29.9545 11.4519 29.666 11.6469 29.3553 11.7959C29.0938 11.9211 28.8068 12.0083 28.5215 12.067C28.4327 12.086 28.3154 11.9576 28.2108 11.8974C28.2774 11.8387 28.336 11.7658 28.4121 11.723C28.8401 11.4789 29.2586 11.2078 29.7088 11.0144C30.0068 10.886 30.3508 10.8464 30.6789 10.8115C30.9928 10.7782 31.313 10.8115 31.6285 10.7972C31.7014 10.7941 31.8028 10.7418 31.8314 10.6815C31.8567 10.6324 31.8171 10.5151 31.768 10.4739C31.7236 10.4374 31.6237 10.4485 31.554 10.4643C31.3907 10.5008 31.2084 10.7307 31.0768 10.4564C30.9437 10.1806 31.248 10.1869 31.3717 10.0791C31.508 9.96026 31.6427 9.8382 31.7489 9.66383C30.9912 9.66383 30.2541 9.45934 29.5344 9.74626C29.3426 9.82235 29.1381 9.86515 28.9511 9.94916C28.8385 9.99989 28.6959 10.0871 28.6658 10.1885C28.6388 10.2805 28.7149 10.4707 28.7989 10.5103C28.875 10.5468 29.0208 10.4453 29.1334 10.3962C29.1746 10.3787 29.2079 10.3423 29.2459 10.3138L29.3379 10.3502C29.2856 10.5087 29.2745 10.7132 29.1683 10.8163C29.0208 10.9589 28.8956 11.2332 28.5802 11.0556C28.4216 10.9669 28.2061 11.0255 28.0666 10.8242C27.7654 10.3898 27.8098 10.0284 28.1902 9.6559C28.6214 9.23266 29.135 9.09316 29.7183 8.99171C30.4348 8.86807 31.0689 9.12804 31.7363 9.23425C31.9138 9.26278 32.0454 9.27863 32.1579 9.08207C32.4131 8.63822 32.7001 8.2118 32.9806 7.76637C32.7983 7.50639 32.5019 7.55712 32.2546 7.52383C31.8536 7.47152 31.4446 7.48737 31.0404 7.4525C30.5743 7.41287 30.1099 7.34788 29.6264 7.2924C29.7199 7.07681 29.8515 6.97536 30.0671 6.97694C30.4539 6.97853 30.8454 6.93097 31.2243 6.98011C31.5904 7.02767 31.9392 7.20045 32.3054 7.26545C32.7127 7.33678 33.1312 7.34946 33.545 7.38751L33.6179 7.25277C33.4641 7.07998 33.3341 6.86915 33.1487 6.74075C32.876 6.55211 32.5748 6.38091 32.2625 6.27629C31.9519 6.17325 31.6095 6.11143 31.2845 6.12253C30.9627 6.13521 30.7931 5.99888 30.6314 5.74684C30.9167 5.6866 31.183 5.62478 31.4509 5.57881C31.7363 5.52808 31.9867 5.6121 32.2308 5.77379C32.7318 6.10668 33.2501 6.4142 33.7558 6.73917C33.9492 6.8644 34.1204 6.86915 34.3296 6.64564C34.095 6.39677 33.8699 6.12887 33.6147 5.89426C33.2279 5.54077 32.8348 5.19203 32.4147 4.87816C32.2261 4.73708 31.9772 4.65782 31.7426 4.60392C31.34 4.50881 31.2258 4.35029 31.3384 3.89851C31.5587 4.01106 31.768 4.12995 31.9883 4.22823C32.5637 4.48345 33.0631 4.82743 33.4863 5.30774C33.7637 5.62161 34.1362 5.85146 34.4707 6.1146C34.5214 6.15423 34.5928 6.16691 34.7465 6.22874C34.7069 6.03534 34.7196 5.87682 34.6467 5.78488C34.2868 5.32994 33.8794 4.91145 33.5402 4.44223C33.369 4.20604 33.2977 3.89534 33.1978 3.61318C33.1566 3.49588 33.1582 3.36431 33.1392 3.23274C33.3896 3.14714 33.564 3.2042 33.6369 3.47686C33.7827 4.01106 34.0586 4.46125 34.4453 4.86548C34.6514 5.08106 34.7529 5.39176 34.9288 5.64063C35.1587 5.9656 35.4155 6.26995 35.7119 6.55845C35.7658 6.11619 35.4139 5.72782 35.6311 5.23641C35.7769 5.5582 35.8752 5.85463 36.0337 6.11302C36.3365 6.60759 36.6725 7.08156 36.9975 7.56188C37.0355 7.61736 37.0894 7.67284 37.1481 7.70137C37.7298 7.99305 37.9439 8.51616 38.0358 9.11219C38.0643 9.30082 38.1309 9.42447 38.4131 9.45934C38.3655 9.2501 38.356 9.06622 38.2847 8.91087C37.9851 8.25936 37.6569 7.62053 37.3605 6.96585C37.2923 6.81684 37.2717 6.62028 37.2987 6.457C37.4413 5.57881 37.3637 4.7133 37.0768 3.88425C36.9864 3.62269 36.7042 3.40077 36.4649 3.22323C36.2461 3.06154 35.6596 3.40235 35.6263 3.68293C35.6041 3.87315 35.5486 4.09508 35.6184 4.2536C35.7484 4.55003 35.9338 4.5532 36.3618 4.32968C36.3396 4.27103 36.3159 4.2108 36.2937 4.15056C36.2715 4.08715 36.2509 4.02374 36.2271 3.95558C36.5774 3.96351 36.8691 4.46918 36.7153 4.77512C36.4982 5.20471 36.3555 5.26653 35.9338 5.04936C35.6548 4.90511 35.3933 4.7244 35.1301 4.54844C35.0636 4.50405 34.9827 4.41053 34.9859 4.34395C35.0128 3.88266 35.0572 3.42296 35.1032 2.96326C35.1064 2.92363 35.1539 2.88241 35.1904 2.85546C35.2443 2.81266 35.3045 2.7762 35.3663 2.74609C35.6295 2.61769 35.9291 2.3482 36.1526 2.39893C36.6012 2.50197 37.0894 2.69853 37.4081 3.0124C37.6886 3.28822 37.8139 3.76377 37.9042 4.17434C37.9835 4.53259 37.9613 4.92888 37.9137 5.29982C37.798 6.22557 38.1499 7.03401 38.5399 7.81868C38.6825 8.10559 39.017 8.29582 39.2627 8.53042L39.3784 8.46702C39.3277 8.34179 39.2976 8.20229 39.2215 8.0945C39.063 7.87099 38.8633 7.67601 38.7127 7.44774C38.6445 7.34471 38.6144 7.18619 38.6318 7.06254C38.7111 6.52358 38.654 6.00523 38.4733 5.49163C38.4194 5.33945 38.4147 5.16983 38.3877 5.00814L38.5082 5.03351C38.5573 4.95108 38.6429 4.87182 38.6524 4.78463C38.7618 3.77646 38.4939 2.82693 38.1404 1.90277C38.0437 1.65072 37.7885 1.45575 37.5967 1.24492C37.3193 0.94056 37.0308 0.645716 36.7375 0.333435C36.9119 0.178087 37.0466 0.171746 37.2353 0.263686C38.115 0.691686 38.4353 1.51915 38.7697 2.34503C38.8855 2.63037 38.8886 3.00764 39.3293 3.10434C39.3293 2.72389 39.3864 2.34662 39.3166 1.99312C39.2088 1.45416 39.0091 0.932635 38.8617 0.401598C38.8379 0.315998 38.849 0.174917 38.9045 0.125776C38.9885 0.0496872 39.1391 -0.0200613 39.2342 0.00530168C39.3261 0.0306646 39.4054 0.173331 39.4482 0.281123C39.4831 0.366723 39.4625 0.476101 39.4561 0.575968C39.4371 0.918368 39.5068 1.22589 39.6876 1.53342C39.789 1.70462 39.7732 1.95983 39.7668 2.177C39.7573 2.54477 39.7145 2.91095 39.686 3.27871L39.8588 3.38333C39.8825 3.31041 39.9079 3.23591 39.9301 3.16299C40.1615 2.391 40.3945 1.6206 40.6228 0.847034C40.6482 0.763019 40.6609 0.667909 40.6498 0.582309C40.6117 0.290635 40.7813 0.181257 41.0667 0.101998C41.0254 1.13395 40.8447 2.10409 40.4088 3.02349L40.4897 3.09483C40.5642 3.03776 40.6656 2.99496 40.7068 2.91887C40.9399 2.48612 41.1538 2.04226 41.3821 1.60792C41.4487 1.48111 41.52 1.3432 41.6262 1.25284C42.0622 0.881909 42.5124 0.525242 43.0212 0.113094C43.0957 0.200279 43.1734 0.293805 43.2828 0.422205C41.6088 1.39075 40.989 2.86656 40.989 4.65623L41.0825 4.70854L41.2125 4.55161L41.2696 4.5738C41.2109 4.80524 41.1871 5.05253 41.0873 5.26494C40.8257 5.82293 40.8828 6.40628 40.8986 6.98804C40.905 7.23533 40.8638 7.42555 40.6624 7.61102C40.2931 7.95025 40.2709 8.09925 40.3739 8.64614C40.7544 8.31008 41.176 8.04853 41.2616 7.53334C41.3916 6.7566 41.4836 5.97352 41.5914 5.19361C41.604 5.09533 41.631 4.99229 41.6151 4.89877C41.4709 4.06496 41.9607 3.46259 42.3919 2.85863C42.5028 2.7017 42.8072 2.68268 43.0244 2.60342C43.0608 2.59074 43.1036 2.59549 43.1417 2.58598C43.3747 2.53526 43.5903 2.39418 43.8502 2.55428C44.2751 2.81742 44.6825 3.1297 44.7744 3.61635C44.8251 3.88742 44.6666 4.27103 44.4748 4.49296C44.2259 4.78146 43.8645 4.9812 43.4555 5.05253C43.1512 5.10642 42.8674 4.85755 42.9086 4.54844C42.9451 4.27579 42.8912 3.93814 43.3763 3.98887C43.3176 4.10617 43.2621 4.21397 43.1654 4.40894C43.4016 4.41846 43.6109 4.48186 43.7757 4.42163C44.0452 4.32334 44.0341 4.05545 43.9993 3.81133C43.9644 3.57672 43.901 3.37382 43.6204 3.312C43.3573 3.25176 43.0894 3.08215 42.8754 3.39284C42.7232 3.61318 42.5203 3.82718 42.4553 4.07447C42.3269 4.56588 42.2571 5.07472 42.2064 5.5804C42.1826 5.81976 42.2318 6.07497 42.292 6.31117C42.3776 6.64405 42.2556 6.92939 42.1509 7.22582C42.0463 7.52225 41.9433 7.81868 41.883 8.13571C42.4157 7.6554 42.9974 7.2385 43.2796 6.54894C43.3668 6.33653 43.5411 6.16057 43.6775 5.96718C43.8439 5.73257 44.0103 5.49797 44.2053 5.22373C44.2434 5.79598 43.8043 6.13362 43.6236 6.56955L43.7108 6.63296C43.9311 6.42213 44.18 6.23349 44.367 5.9973C44.6777 5.60259 44.9361 5.16666 45.242 4.7672C45.4862 4.44857 45.7604 4.14897 46.0378 3.8573C46.2724 3.60843 46.3136 3.61952 46.5688 3.82877C46.2217 4.21872 45.8365 4.58173 45.5385 5.00656C45.2515 5.41554 44.8743 5.79915 44.7982 6.32226L44.887 6.38725C45.1929 6.13046 45.5068 5.88317 45.8016 5.61368C46.0378 5.3981 46.2597 5.18093 46.6037 5.15557C46.9651 5.12862 47.2093 4.89084 47.4565 4.66257C47.577 4.55161 47.7038 4.44699 47.8259 4.34078C48.1065 4.63245 48.116 4.67525 47.8306 4.85438C47.4565 5.09057 47.0856 5.35054 46.6766 5.50748C46.1075 5.72623 45.6891 6.10509 45.3054 6.54894C45.1834 6.69161 45.055 6.82952 44.9313 6.96902L45.0043 7.06413C45.2943 6.91671 45.5924 6.78197 45.8729 6.61869C46.4706 6.27312 47.0618 5.90694 47.7498 5.76903C48.2174 5.67392 48.6914 5.62002 49.2145 5.53918C49.1321 5.84829 49.0417 5.98462 48.7627 6.04644C47.9971 6.21764 47.2283 6.40311 46.4943 6.67417C46.1567 6.7994 45.8967 7.13546 45.6003 7.37641L45.6288 7.4842C45.7889 7.47628 45.9554 7.49688 46.106 7.45567C46.6544 7.30349 47.1918 7.10693 47.7435 6.97377C48.3855 6.82001 49.0195 6.91354 49.6267 7.17192C49.6536 7.18302 49.679 7.20045 49.7012 7.21948C49.7234 7.2385 49.7392 7.26228 49.7677 7.29557C49.6156 7.5698 49.3635 7.46677 49.1685 7.42397C48.6692 7.31142 48.1968 7.22899 47.7197 7.5381C47.5342 7.65857 47.2647 7.64906 47.0317 7.6982C46.8526 7.73625 46.6719 7.77271 46.442 7.82026C46.6988 8.22448 46.9207 8.57957 47.1522 8.92831C47.176 8.96318 47.26 8.97903 47.3107 8.97111C47.875 8.88234 48.4362 8.74442 49.0037 8.70638C49.4 8.67943 49.8026 8.79515 50.2052 8.83002C50.7252 8.87599 51.0644 9.23108 51.3783 9.57031C51.5194 9.72248 51.5495 10.0665 51.4924 10.2868C51.4354 10.5119 51.3038 10.7544 50.9614 10.8052C50.6808 10.8464 50.4525 10.8559 50.2972 10.6165C50.1783 10.4326 50.1133 10.2123 50.0245 10.0078L50.0975 9.98562L50.5746 10.3359C50.8631 10.0062 50.7981 9.85088 50.4525 9.68602C49.6076 9.28656 48.7183 9.35472 47.8322 9.37374C47.7339 9.37533 47.6388 9.46885 47.5406 9.51958C47.5929 9.61944 47.623 9.75102 47.7038 9.81284C47.8338 9.91271 47.9939 9.98087 48.1509 10.0379C48.3759 10.1219 48.4251 10.2662 48.3427 10.4992C48.1001 10.42 47.8624 10.3423 47.6262 10.2646C47.5152 10.5658 47.577 10.6673 47.8798 10.6752C48.3252 10.6863 48.7754 10.6498 49.2161 10.699C49.5094 10.7307 49.8026 10.848 50.0721 10.9764C50.5239 11.1919 50.9582 11.4456 51.4005 11.6834C51.2531 11.9243 51.0232 11.983 50.6333 11.8054C50.2322 11.6215 49.8533 11.3885 49.4634 11.1793C49.3667 11.127 49.2652 11.081 49.167 11.0318L49.1242 11.0953C49.2335 11.1999 49.3318 11.3219 49.457 11.4044C49.9167 11.7119 50.0927 12.197 50.2591 12.6804C50.4319 13.1798 50.5984 13.6807 50.5477 14.2339C50.5255 14.4812 50.4082 14.6096 50.2259 14.6714C50.1577 14.6952 50.0214 14.5446 49.9278 14.4606C49.522 14.0913 49.1273 13.7092 48.7152 13.3478C48.5678 13.2194 48.4283 13.3145 48.4251 13.4841C48.414 14.1055 47.9511 14.3211 47.5025 14.5589C46.7924 14.9346 46.0315 14.8743 45.2706 14.8284C45.242 14.8268 45.2103 14.8189 45.185 14.8062C44.9916 14.6984 44.814 13.8788 44.8996 13.6648C45.1279 13.0973 45.6114 12.9388 46.1424 12.8485C46.4579 12.7946 46.5625 13.0672 46.6418 13.2654C46.6909 13.3858 46.5641 13.5777 46.5165 13.7378L46.3945 13.7171L46.3961 13.7061ZM39.4529 12.105C39.1169 11.8466 38.8522 11.5819 38.5367 11.4186C38.1689 11.2268 37.7616 11.0303 37.3605 11.0033C36.4633 10.9415 35.5597 10.978 34.6593 10.9922C34.5468 10.9938 34.4374 11.1 34.3265 11.1571C34.4263 11.2252 34.5214 11.3425 34.6276 11.3536C35.1825 11.4139 35.6786 11.6199 36.1241 11.9402C36.7978 12.4252 37.5254 12.7026 38.3655 12.5837C38.6984 12.5362 38.9061 12.774 39.1692 12.8944C39.5354 13.0609 39.4609 13.3637 39.4704 13.6506C39.4704 13.6902 39.4751 13.7298 39.4767 13.7695C39.4831 13.9629 39.6067 14.0104 39.7747 14.0215C39.9507 14.0326 39.9935 13.9264 40.0125 13.7869C40.0284 13.6696 40.0648 13.5523 40.0648 13.435C40.0617 13.2115 40.1631 13.0973 40.3739 13.0292C40.8035 12.8929 41.222 12.7153 41.6548 12.5917C42.04 12.4823 42.4474 12.3301 42.8294 12.3682C43.316 12.4157 43.7155 12.2921 44.1261 12.0876C44.4336 11.9338 44.7459 11.7896 45.0613 11.6548C45.1802 11.6041 45.3356 11.593 45.269 11.4091C45.2088 11.2458 45.2658 11.0001 44.9456 11.0128C44.4019 11.035 43.8566 11.016 43.3129 11.0192C43.0973 11.0192 42.8706 10.997 42.6661 11.0477C41.8323 11.2538 41.027 11.5423 40.3074 12.0273C40.1124 12.1589 40.041 12.0701 40.0347 11.8688C40.0284 11.6421 40.0109 11.4139 40.0093 11.1872C39.9982 10.2773 39.9903 9.36582 39.9824 8.45592C39.9824 8.3085 39.9602 8.17059 39.7636 8.17217C39.556 8.17217 39.5972 8.33228 39.5956 8.45116C39.5909 9.18352 39.6051 9.91746 39.5813 10.6482C39.5671 11.1174 39.5005 11.5851 39.4529 12.1082V12.105ZM50.0562 14.0722L50.1926 13.9803C50.1862 13.8757 50.2005 13.7647 50.1688 13.668C50.0483 13.3034 49.9088 12.9467 49.7852 12.5837C49.6076 12.059 49.3239 11.631 48.7818 11.4202C48.3981 11.2712 48.0225 11.1032 47.6357 10.9637C47.5691 10.9399 47.4661 11.0176 47.3805 11.0493C47.4137 11.1317 47.4248 11.2443 47.4867 11.2918C47.6087 11.3885 47.7688 11.4377 47.8956 11.5296C48.2634 11.7959 48.6217 12.0717 48.9847 12.3444C48.9117 12.4094 48.8832 12.4141 48.8578 12.4062C48.7199 12.3618 48.544 12.1985 48.4615 12.4252C48.3966 12.5996 48.4679 12.766 48.6898 12.8675C49.1495 13.0767 49.5759 13.3462 49.8724 13.7774C49.9389 13.8741 49.996 13.9755 50.0578 14.0738L50.0562 14.0722ZM33.545 7.90586L33.4863 7.96293C33.5212 8.03109 33.5513 8.10401 33.5925 8.16742C33.8366 8.53835 34.0887 8.90453 34.3312 9.27705C34.5769 9.6559 34.8781 9.9349 35.3568 9.99038C35.5772 10.0157 35.7943 10.0982 36.0036 10.1774C36.4744 10.355 36.9357 10.5579 37.4081 10.7275C37.6585 10.8178 37.9248 10.8606 38.1848 10.9256L38.2086 10.8321C37.8408 10.4786 37.481 10.1172 36.8945 10.1758C36.8057 10.1854 36.6995 10.1441 36.6202 10.0966C36.1859 9.84137 35.7563 9.57664 35.3267 9.3135C35.2696 9.27863 35.1698 9.2073 35.1777 9.19145C35.2823 8.95367 35.0588 8.9394 34.9526 8.86173C34.7608 8.72223 34.5516 8.60968 34.355 8.47494C34.0823 8.28948 33.8144 8.09608 33.545 7.90586ZM40.9795 11.1999C41.3282 11.0921 41.6215 10.989 41.9195 10.9114C42.3158 10.8083 42.7343 10.7671 43.1147 10.6245C43.6299 10.4326 44.1229 10.1774 44.6159 9.93331C45.0233 9.73199 45.12 9.30082 45.3165 8.92989C44.9456 9.03293 44.6 9.16291 44.2624 9.31034C44.1023 9.38008 43.8724 9.44507 43.8185 9.57347C43.6569 9.95709 43.2812 10.03 43.0022 10.2424C42.7787 10.4136 42.5456 10.4326 42.2777 10.3645C42.1573 10.3328 41.9797 10.3359 41.891 10.4041C41.5834 10.6403 41.3044 10.9114 40.9795 11.1983V11.1999ZM32.02 11.5391C31.8726 11.5137 31.8203 11.4868 31.7854 11.5011C31.443 11.6453 31.0943 11.7801 30.763 11.9497C30.5395 12.0638 30.2922 12.1906 30.1432 12.3808C29.9149 12.6693 29.7421 13.0086 29.5836 13.3446C29.4774 13.5713 29.4346 13.8265 29.3728 14.0358C29.907 13.733 30.4237 13.4445 30.9357 13.1481C30.9849 13.1195 31.0261 13.0403 31.0324 12.98C31.0531 12.8168 31.0531 12.6519 31.0626 12.4633H30.7677C31.1878 12.1542 31.5682 11.872 32.0184 11.5391H32.02ZM34.0871 9.99989C34.0269 9.97453 34.0015 9.96026 33.973 9.95075C33.9444 9.94124 33.9096 9.94282 33.8874 9.92856C33.4356 9.61945 33.0171 9.74309 32.6129 10.0284C32.559 10.0665 32.4702 10.114 32.4702 10.1584C32.467 10.4945 32.4734 10.8305 32.5003 11.165C32.5051 11.2221 32.6208 11.2696 32.6858 11.3219C32.7349 11.2585 32.8189 11.1983 32.8237 11.1301C32.8411 10.9161 32.83 10.7005 32.83 10.4897C33.369 10.4025 33.4419 10.477 33.3373 10.9653C33.3088 11.0968 33.2121 11.2807 33.4435 11.3251C33.6559 11.3663 33.8382 11.314 33.8858 11.0525C33.9476 10.7053 34.0189 10.3581 34.0887 9.99831L34.0871 9.99989ZM46.033 10.3581C46.4706 10.2535 46.5149 10.2884 46.5118 10.7322C46.5118 10.84 46.4896 10.9542 46.5149 11.0572C46.5403 11.1555 46.6132 11.2411 46.6655 11.3314C46.748 11.2617 46.878 11.2062 46.9033 11.1206C46.9762 10.8765 46.9937 10.6165 47.0571 10.3708C47.1189 10.133 47.0602 9.99038 46.8114 9.93173C46.7178 9.90953 46.6307 9.85564 46.5403 9.81918C46.2217 9.69553 45.7493 9.81759 45.5464 10.0791C45.5179 10.1156 45.4862 10.1711 45.4957 10.2091C45.567 10.5547 45.6399 10.9019 45.7319 11.2427C45.7477 11.3029 45.8539 11.3394 45.9173 11.3885C45.957 11.3172 46.0251 11.249 46.0299 11.1761C46.0441 10.9114 46.0346 10.6466 46.0346 10.3613L46.033 10.3581ZM33.8414 7.62687C34.0506 7.77746 34.1917 7.955 34.3566 7.98036C34.6847 8.03109 35.0366 8.04853 35.36 7.98829C35.6501 7.93439 35.5518 7.61894 35.5803 7.40653C35.6311 7.03084 35.3457 6.56162 34.9304 6.38884C34.913 6.7138 34.8971 7.01974 34.8781 7.35739C34.4469 7.03559 34.1981 7.39543 33.8414 7.62687ZM39.0884 6.13204C38.9932 6.62028 38.9235 7.00865 39.2041 7.37641C39.4831 7.74259 39.835 7.80758 40.171 7.51432C40.2233 7.46835 40.2804 7.42872 40.3296 7.38117C40.5657 7.15765 40.6609 6.49505 40.4469 6.17167C40.2281 6.46017 40.0268 6.7249 39.8603 6.94365C39.6305 6.70271 39.3832 6.44115 39.0899 6.13204H39.0884ZM39.0471 4.74817C38.9393 5.30616 39.3261 6.06863 39.8033 6.36031C40.6878 5.63429 40.8194 5.38066 40.6228 4.76086C40.2551 4.96376 39.9491 5.2158 39.7953 5.63746C39.6828 5.21105 39.3753 5.00973 39.0471 4.74976V4.74817ZM42.3301 8.40995C41.8069 8.63029 41.5026 9.18669 41.6231 9.6353C41.6453 9.71773 41.7277 9.80808 41.8054 9.84613C42.3982 10.1378 42.9229 9.98245 43.3509 9.3357C42.9911 9.30558 42.6772 9.27863 42.3301 9.24851V8.40995ZM44.4035 6.59333C43.9089 6.75026 43.5459 7.33995 43.6394 7.79014C43.7076 8.11194 43.7995 8.14681 44.2196 8.17534C44.6999 8.20705 44.9884 7.93439 45.2674 7.67284C44.9504 7.32885 44.608 7.55078 44.2561 7.57614C44.5065 7.26703 44.5303 6.95317 44.4035 6.59491V6.59333ZM36.1272 8.2229L36.0638 8.28631C35.8102 8.28631 35.555 8.27838 35.3013 8.29106C35.2364 8.29423 35.1571 8.3513 35.1222 8.40837C35.1064 8.43373 35.1682 8.52567 35.211 8.57164C35.4234 8.79673 36.048 8.88075 36.3476 8.73967C36.5362 8.6509 36.6472 8.52567 36.6329 8.30374C36.625 8.18644 36.6329 8.06596 36.6472 7.94866C36.6916 7.52859 36.4997 7.26228 36.0622 7.15131C35.9227 7.51115 35.6596 7.87099 36.1288 8.2229H36.1272ZM35.8879 9.27387C36.1764 9.43239 36.3967 9.55921 36.6234 9.67493C36.6805 9.70346 36.7613 9.71456 36.8215 9.6987C37.5983 9.4847 37.5935 9.60201 37.5935 8.82051C37.5935 8.78088 37.6062 8.73491 37.5904 8.70321C37.5 8.50189 37.4287 8.28472 37.2971 8.11352C37.2131 8.00414 37.072 7.955 36.9658 8.18327C36.8073 8.52091 36.8406 8.81893 37.0498 9.13596C36.6408 9.07256 36.2778 9.02183 35.8879 9.27705V9.27387ZM43.3604 7.47945C42.7692 7.60785 42.6297 8.41154 42.7026 8.78247C42.7168 8.85222 42.8341 8.93306 42.9166 8.95208C43.1829 9.0139 43.4555 9.06305 43.7266 9.09C43.9279 9.10902 44.3163 8.78881 44.386 8.55103C44.0214 8.5225 43.6648 8.49555 43.3604 8.47177V7.47945ZM39.1708 3.48003C39.0899 3.9968 39.2025 4.32651 39.5068 4.62294C39.8714 4.97644 39.9063 4.99705 40.2741 4.61819C40.3359 4.55478 40.4247 4.49771 40.4484 4.42004C40.5436 4.12203 40.6165 3.81767 40.6989 3.51649L40.5959 3.4721L39.827 4.06813C39.64 3.9001 39.4292 3.71305 39.1692 3.48003H39.1708ZM42.682 12.8469C42.5552 12.8199 42.5171 12.8041 42.4807 12.8041C41.7277 12.8215 41.1364 13.2749 40.4849 13.565C40.4247 13.5919 40.4215 13.798 40.4389 13.9153C40.4453 13.9565 40.5959 14.012 40.6735 14.0025C41.4772 13.8979 42.0447 13.3906 42.682 12.8469ZM45.5607 9.40862L45.605 9.49263C46.0552 9.12804 46.4927 9.30558 46.9303 9.54336L46.9731 9.44349L46.2169 8.23716C45.9633 8.69053 45.762 9.04719 45.5607 9.40545V9.40862ZM39.174 11.2252C39.2976 10.9764 39.2976 10.867 39.1169 10.7069C38.765 10.3914 38.4036 10.0855 38.0358 9.78748C37.8059 9.60042 37.7425 9.62737 37.6268 9.89844C38.1452 10.3423 38.6588 10.7846 39.174 11.2268V11.2252ZM32.3608 9.54019L32.4195 9.60518C32.6335 9.49422 32.838 9.33411 33.0647 9.28814C33.2961 9.24059 33.5513 9.30558 33.843 9.3246C33.5989 9.00122 33.369 8.69845 33.1138 8.36081C32.8411 8.78722 32.6018 9.1645 32.3608 9.54019ZM37.63 12.8532C37.909 13.2115 38.2466 13.4699 38.6683 13.5935C38.7824 13.6268 38.9346 13.6601 39.0234 13.6125C39.0884 13.5777 39.1312 13.3843 39.0931 13.3018C39.0456 13.1956 38.9187 13.0815 38.8078 13.0561C38.4194 12.9689 38.0231 12.9182 37.63 12.8532ZM45.9839 7.94866C45.5876 7.84721 44.8616 8.33862 44.8331 8.73016C45.4877 8.71431 45.7794 8.51774 45.9839 7.94866ZM40.3644 11.2284C40.8099 10.8543 41.2141 10.5135 41.6516 10.1441C41.184 9.99672 40.2661 10.7687 40.3644 11.2284ZM36.021 10.6371L36.0448 10.5373C35.9116 10.4961 35.7785 10.4501 35.6437 10.4136C35.3679 10.3407 35.0937 10.2646 34.8147 10.2044C34.6863 10.1758 34.5119 10.1204 34.4961 10.3359C34.4913 10.4089 34.5817 10.5531 34.6387 10.5579C35.0984 10.5991 35.5597 10.6134 36.021 10.6371ZM44.302 10.5832V10.6752C44.5002 10.6752 44.6999 10.6815 44.8965 10.672C44.9551 10.6688 45.0423 10.634 45.0597 10.5912C45.0788 10.5404 45.0566 10.439 45.0169 10.4073C44.9694 10.3692 44.8743 10.3566 44.8125 10.3772C44.6381 10.4342 44.4716 10.5135 44.302 10.5832Z" fill="#0D1853"/>
<path d="M17.8152 25.4333C17.866 25.3223 17.942 25.2161 17.9626 25.1004C18.0926 24.3442 18.2052 23.5834 18.3352 22.8272C18.4794 21.9918 18.6379 21.1596 18.7869 20.3258C18.8725 19.8423 18.9597 19.3588 19.0311 18.8738C19.058 18.6899 19.1563 18.6598 19.3164 18.6614C20.0392 18.6661 20.7621 18.6709 21.4849 18.6582C21.7164 18.655 21.7972 18.7438 21.7528 18.9562C21.6102 19.6489 21.458 20.3385 21.3169 21.0312C21.1822 21.6891 21.0585 22.3485 20.9254 23.0048C20.816 23.5421 20.6923 24.0779 20.583 24.6169C20.4577 25.2351 20.3452 25.8565 20.22 26.4747C20.0646 27.2356 19.8886 27.9918 19.746 28.7558C19.4955 30.1111 19.2276 31.4554 19.2625 32.8583C19.3259 35.3629 19.2768 37.8706 19.2879 40.3768C19.2879 40.651 19.2324 40.7604 18.9312 40.7509C18.1988 40.7287 17.4649 40.743 16.7325 40.7414C16.3236 40.7414 16.322 40.7414 16.322 40.3435C16.322 37.4616 16.3156 34.5782 16.3267 31.6963C16.3283 31.0892 16.2475 30.5059 16.0969 29.9178C15.9384 29.2995 15.8433 28.6639 15.7117 28.0377C15.569 27.3529 15.4105 26.6713 15.2678 25.9865C15.095 25.159 14.9365 24.3268 14.7637 23.4993C14.6195 22.8066 14.4562 22.1186 14.312 21.4259C14.1408 20.6064 13.9807 19.7837 13.8158 18.9625C13.7746 18.7549 13.8285 18.6518 14.0694 18.655C14.8414 18.6661 15.615 18.6645 16.387 18.655C16.5709 18.6534 16.6644 18.72 16.6945 18.8944C16.7452 19.1861 16.8023 19.4777 16.8467 19.7694C16.9418 20.4019 17.021 21.0375 17.1241 21.6685C17.2953 22.7194 17.4808 23.7688 17.6583 24.8182C17.6916 25.0164 17.7185 25.2161 17.7471 25.4158L17.8136 25.4285L17.8152 25.4333Z" fill="#0D1853"/>
<path d="M24.7505 46.8554C24.6253 47.2248 24.4985 47.5941 24.3764 47.9651C24.2385 48.3851 24.107 48.8052 23.9738 49.2269C23.8993 49.4631 23.698 49.4393 23.5315 49.406C23.4174 49.3838 23.2589 49.2966 23.2272 49.2031C22.8214 48.0221 22.4346 46.8364 22.0446 45.6507C22.0209 45.5794 22.0224 45.5001 22.0034 45.367C22.2777 45.367 22.5234 45.3495 22.7627 45.378C22.8356 45.386 22.9276 45.508 22.9561 45.5952C23.1685 46.2483 23.3667 46.9062 23.5712 47.5624C23.5759 47.5783 23.5981 47.5878 23.6599 47.6385C23.7408 47.4166 23.8232 47.2153 23.8898 47.0092C24.0277 46.578 24.1577 46.1453 24.2908 45.7141C24.3828 45.4129 25.0105 45.1958 25.2372 45.4177C25.3561 45.5334 25.3846 45.749 25.4401 45.9249C25.6208 46.4861 25.7936 47.0488 25.9981 47.6972C26.1122 47.377 26.2105 47.1218 26.2961 46.8634C26.4261 46.4702 26.5434 46.0724 26.6702 45.6776C26.7574 45.405 27.2583 45.2227 27.4977 45.3876C27.5421 45.4177 27.5531 45.5477 27.531 45.6158C27.179 46.6906 26.8192 47.7622 26.461 48.8353C26.4356 48.9098 26.415 48.9859 26.3928 49.062C26.2898 49.4028 26.0758 49.5233 25.746 49.4028C25.6747 49.3759 25.6097 49.2713 25.5828 49.1904C25.3228 48.4216 25.0707 47.6496 24.8155 46.8776L24.7521 46.8602L24.7505 46.8554Z" fill="#0D1853"/>
<path d="M57.4385 46.9616C57.4321 47.0646 57.4194 47.1661 57.4194 47.2691C57.4194 47.8921 57.4163 48.5167 57.4242 49.1397C57.4274 49.3394 57.3655 49.4234 57.1515 49.4186C56.3796 49.4012 56.5016 49.5138 56.4985 48.7862C56.4937 47.7954 56.4985 46.8063 56.4985 45.8155C56.4985 45.3558 56.4985 45.3685 56.9439 45.3622C57.1928 45.359 57.3576 45.4414 57.5241 45.6332C58.0551 46.2451 58.6147 46.8332 59.1647 47.4292C59.1964 47.4641 59.2377 47.4895 59.3233 47.5608C59.3359 47.4118 59.3518 47.3119 59.3534 47.2105C59.3565 46.6858 59.3629 46.1611 59.3534 45.6364C59.3486 45.4303 59.4184 45.3495 59.626 45.359C60.3885 45.3923 60.2759 45.2353 60.2807 45.9915C60.2855 47.0108 60.2855 48.0316 60.2775 49.0509C60.2775 49.1714 60.2078 49.3949 60.1729 49.3949C59.9985 49.3917 59.7655 49.3885 59.6593 49.2807C59.1314 48.7465 58.6369 48.179 58.1312 47.6226C57.9235 47.3928 57.719 47.1613 57.513 46.9299L57.4385 46.9616Z" fill="#0D1853"/>
<path d="M16.5753 47.3833C16.5753 46.8079 16.5816 46.234 16.5721 45.6586C16.5689 45.4414 16.6466 45.3527 16.8638 45.3558C17.7024 45.3733 17.5216 45.2908 17.5438 46.0026C17.5533 46.3054 17.4757 46.7032 17.6342 46.8808C17.7737 47.0361 18.189 46.9553 18.4838 46.9553C19.2352 46.9553 19.1338 47.0409 19.1417 46.2847C19.1433 46.0565 19.148 45.8282 19.1417 45.6015C19.1354 45.4192 19.2178 45.3653 19.3937 45.3638C20.0944 45.3527 20.0944 45.3463 20.096 46.0327C20.096 47.0536 20.0912 48.0744 20.1023 49.0937C20.1055 49.3331 20.0389 49.4282 19.7853 49.4218C19.0513 49.3996 19.1512 49.5074 19.1449 48.7957C19.1433 48.5373 19.1401 48.2805 19.1465 48.0221C19.1512 47.8477 19.0799 47.7621 18.9055 47.7637C18.5298 47.7637 18.1525 47.7653 17.7769 47.7621C17.585 47.7606 17.5486 47.8763 17.5486 48.0332C17.5486 48.3994 17.5422 48.7671 17.5486 49.1333C17.5518 49.3299 17.4836 49.4218 17.2728 49.4202C16.4612 49.4107 16.5848 49.4916 16.5785 48.7529C16.5737 48.2964 16.5785 47.8414 16.5785 47.3849L16.5753 47.3833Z" fill="#0D1853"/>
<path d="M40.1375 45.3685C39.7079 45.9804 39.3465 46.521 38.9549 47.0361C38.7917 47.2517 38.7616 47.3976 38.9391 47.6227C39.3116 48.095 39.6508 48.5944 40.0028 49.0826C40.0646 49.1682 40.1169 49.2586 40.2088 49.4028C39.8173 49.4028 39.486 49.4139 39.1563 49.3949C39.0802 49.3901 38.9962 49.2903 38.9407 49.2158C38.6601 48.8337 38.3875 48.4454 38.11 48.0618C38.0546 47.9857 37.9896 47.9159 37.8659 47.7701C37.8453 47.946 37.8263 48.0348 37.8263 48.1236C37.8247 48.4707 37.8231 48.8163 37.8311 49.1635C37.8342 49.3347 37.7772 49.4076 37.5933 49.4187C36.8847 49.4583 36.8863 49.4646 36.8863 48.7481C36.8863 47.7289 36.8942 46.708 36.8784 45.6887C36.8736 45.4193 36.9624 45.3511 37.2208 45.3622C37.8311 45.3891 37.8311 45.3765 37.8311 46.0074C37.8311 46.3133 37.8311 46.6177 37.8311 47.014C37.9515 46.9093 38.026 46.8634 38.0752 46.7984C38.3494 46.4243 38.6332 46.0549 38.882 45.665C39.0279 45.4367 39.1896 45.3305 39.4638 45.3654C39.654 45.3891 39.8506 45.3701 40.1407 45.3701L40.1375 45.3685Z" fill="#0D1853"/>
<path d="M64.7049 47.3833C64.7049 46.7983 64.7113 46.215 64.7018 45.6301C64.6986 45.4192 64.7715 45.3574 64.9792 45.3622C65.553 45.3733 66.1284 45.3796 66.7023 45.3574C67.0256 45.3463 67.0082 45.5318 67.0177 45.7553C67.0272 46.001 66.9717 46.1294 66.6927 46.1072C66.4264 46.0866 66.1585 46.1104 65.8906 46.0993C65.6941 46.0913 65.6354 46.1785 65.6291 46.364C65.6069 46.9569 65.6021 46.9569 66.1807 46.9584C66.1998 46.9584 66.2204 46.9553 66.2394 46.9584C66.39 46.9822 66.6452 46.968 66.669 47.0377C66.7355 47.2232 66.7134 47.4435 66.7023 47.6496C66.7007 47.6876 66.5881 47.7431 66.5215 47.751C66.3852 47.7669 66.2441 47.7463 66.1062 47.7605C65.9556 47.7748 65.6941 47.7796 65.6766 47.8414C65.6196 48.0538 65.6354 48.29 65.656 48.5135C65.6592 48.5547 65.8114 48.6102 65.897 48.6134C66.2425 48.6245 66.5897 48.6245 66.9369 48.6134C67.1223 48.607 67.1778 48.6784 67.1746 48.8559C67.162 49.5312 67.2333 49.4076 66.6309 49.4155C66.1062 49.4218 65.5799 49.3996 65.0568 49.4234C64.7588 49.4361 64.6891 49.3267 64.6986 49.0493C64.7176 48.4961 64.7049 47.9397 64.7049 47.3864V47.3833Z" fill="#0D1853"/>
<path d="M13.3561 48.4263C13.7603 48.4945 14.1281 48.569 14.5006 48.6165C14.7574 48.6483 14.9841 48.5848 15.0285 48.2757C15.0618 48.0427 14.8541 47.8366 14.5545 47.7542C14.3595 47.7003 14.1614 47.6321 13.987 47.5323C13.5368 47.2739 13.2689 46.7603 13.3498 46.3577C13.4671 45.7727 13.8935 45.3495 14.4753 45.3099C14.7844 45.2892 15.1014 45.3511 15.4137 45.3859C15.6911 45.4161 15.7529 45.5888 15.6816 45.8314C15.6435 45.9629 15.5928 46.0898 15.55 46.2118C15.2805 46.1706 15.0317 46.1246 14.7812 46.0977C14.5323 46.0707 14.3041 46.188 14.3088 46.4274C14.312 46.5621 14.526 46.7286 14.6829 46.8174C14.9365 46.9616 15.2377 47.0234 15.485 47.174C15.9209 47.4388 16.1413 48.0269 16.0097 48.4596C15.8242 49.0747 15.4073 49.4218 14.8177 49.4139C14.4768 49.4091 14.136 49.36 13.7936 49.3315C13.4148 49.2998 13.3371 49.0414 13.3387 48.7243C13.3387 48.6118 13.3529 48.4992 13.3577 48.4263H13.3561Z" fill="#0D1853"/>
<path d="M51.5096 48.4438C51.9376 48.504 52.3466 48.5642 52.7572 48.6166C52.9553 48.6419 53.1154 48.5674 53.1646 48.3598C53.2169 48.1458 53.1598 47.9619 52.9395 47.8699C52.7318 47.7843 52.5162 47.7193 52.3086 47.6353C51.7379 47.4086 51.4304 46.876 51.5239 46.2895C51.6111 45.7474 52.1088 45.3083 52.6969 45.3003C52.9886 45.2956 53.2835 45.3574 53.5767 45.3955C53.8621 45.4319 53.8953 45.6237 53.8319 45.8536C53.7986 45.9756 53.7432 46.0914 53.6956 46.2102C53.4309 46.1706 53.1725 46.1215 52.9109 46.0961C52.6843 46.0739 52.4782 46.15 52.4465 46.4036C52.4132 46.6652 52.632 46.7476 52.8285 46.8253C53.0647 46.9188 53.312 46.9917 53.5387 47.1043C54.3661 47.5148 54.2885 48.8084 53.7305 49.1381C53.4943 49.2776 53.2074 49.3854 52.9379 49.4028C52.5828 49.4266 52.2198 49.3505 51.86 49.3093C51.5905 49.2776 51.5001 49.1016 51.5081 48.8496C51.5128 48.6958 51.5081 48.5421 51.5081 48.4454L51.5096 48.4438Z" fill="#0D1853"/>
<path d="M63.9279 46.3101C62.9245 45.9218 62.338 46.2515 62.0305 46.6573C61.723 47.0647 61.7293 47.6766 62.0432 48.122C62.3871 48.6102 63.0973 48.7577 63.9058 48.5199C64.1277 49.1064 63.9248 49.4044 63.3177 49.4218C62.7676 49.4377 62.2413 49.406 61.7562 49.0953C61.0603 48.6483 60.8004 47.9571 60.8527 47.1471C60.9462 45.6729 62.5425 44.9738 63.8804 45.4161C64.0643 45.4763 64.1293 45.5968 64.077 45.7807C64.0294 45.9503 63.9803 46.1199 63.9264 46.3101H63.9279Z" fill="#0D1853"/>
<path d="M74.2413 46.2229C74.2111 46.1135 74.1953 46.047 74.1763 45.982C74.013 45.4462 74.0811 45.3368 74.6391 45.2877C75.1163 45.2449 75.5902 45.2227 75.9897 45.573C76.4462 45.974 76.5176 46.7112 76.2639 47.2676C76.1007 47.6226 75.8597 47.9413 75.6521 48.2773C75.5982 48.3645 75.5411 48.4517 75.4365 48.6181C75.7694 48.6181 76.0214 48.6324 76.2719 48.615C76.5192 48.5975 76.6016 48.6863 76.5952 48.9336C76.581 49.4139 76.5937 49.4139 76.1023 49.4139C75.5173 49.4139 74.934 49.4202 74.349 49.4139C74.2523 49.4139 74.1557 49.3584 74.0574 49.3283C74.0954 49.2221 74.1113 49.1016 74.1731 49.0113C74.5123 48.5151 74.8864 48.0395 75.2003 47.5275C75.3905 47.2184 75.5696 46.8697 75.4333 46.4734C75.3033 46.0961 74.9324 45.9645 74.4552 46.1278C74.3918 46.1484 74.3332 46.1833 74.2397 46.2261L74.2413 46.2229Z" fill="#0D1853"/>
<path d="M77.2342 46.1754C77.1835 45.9757 77.1264 45.7886 77.0916 45.5984C77.082 45.5461 77.1201 45.4589 77.1661 45.4256C77.6495 45.0705 78.7798 45.2956 79.0683 45.7965C79.2997 46.1992 79.2094 46.5749 78.8004 46.9109C78.7719 46.9347 78.7465 46.9601 78.7021 47.0029C78.7671 47.0457 78.8115 47.0774 78.859 47.1075C79.4107 47.4451 79.5803 47.889 79.4471 48.5183C79.3425 49.0113 78.7544 49.4409 78.2979 49.4219C78.0316 49.4108 77.7653 49.4139 77.499 49.4139C77.2786 49.4139 77.1661 49.3204 77.1851 49.089C77.1914 49.0208 77.1787 48.9511 77.1692 48.8829C77.1344 48.6404 77.2326 48.5643 77.453 48.6625C77.6987 48.7719 77.9285 48.7434 78.1647 48.6261C78.3946 48.512 78.5182 48.336 78.4849 48.0824C78.4548 47.8525 78.3359 47.6813 78.0886 47.6274C77.8794 47.5815 77.6939 47.5133 77.6606 47.2501C77.6321 47.0346 77.6274 46.8919 77.8968 46.8015C78.0395 46.754 78.2044 46.521 78.2075 46.3688C78.2123 46.1453 77.9919 46.066 77.7684 46.0961C77.5956 46.1199 77.4244 46.1484 77.2342 46.177V46.1754Z" fill="#0D1853"/>
<path d="M9.72766 47.0235C9.72766 47.4689 9.73558 47.9143 9.72449 48.3598C9.71973 48.5563 9.78948 48.6245 9.98129 48.6182C10.2983 48.6087 10.6154 48.6245 10.9324 48.6102C11.1543 48.6007 11.2431 48.6847 11.2225 48.9019C11.213 49.0002 11.2463 49.1127 11.2098 49.1952C11.1718 49.2808 11.0719 49.3981 10.9974 49.3997C10.3047 49.4155 9.61035 49.4155 8.91763 49.3997C8.84946 49.3997 8.7274 49.2618 8.72582 49.1872C8.71314 47.9889 8.71789 46.7905 8.71631 45.5921C8.71631 45.4272 8.78289 45.3606 8.94775 45.3638C9.86715 45.3844 9.70705 45.2481 9.72132 46.0993C9.72607 46.4068 9.72132 46.7128 9.72132 47.0203H9.72766V47.0235Z" fill="#0D1853"/>
<path d="M68.7471 46.1976C68.7915 45.9471 68.8216 45.7252 68.8739 45.5096C68.885 45.4636 68.9674 45.4113 69.0229 45.405C69.3558 45.3622 69.6903 45.3368 70.0247 45.2956C70.2245 45.2718 70.2847 45.3574 70.2847 45.5461C70.2799 46.7524 70.2799 47.9571 70.2847 49.1635C70.2847 49.36 70.2086 49.4187 70.02 49.4155C69.3336 49.4028 69.4097 49.4979 69.4049 48.8274C69.4002 48.0665 69.4049 47.3056 69.4033 46.5447C69.4033 46.1611 69.397 46.1579 69.0245 46.196C68.9405 46.2055 68.8549 46.196 68.7471 46.196V46.1976Z" fill="#0D1853"/>
<path d="M55.7596 47.3817C55.7596 47.9667 55.7549 48.55 55.7628 49.1349C55.766 49.3331 55.7057 49.4234 55.4933 49.4171C54.6659 49.3965 54.7958 49.517 54.7895 48.7339C54.7816 47.7241 54.7943 46.7128 54.7816 45.703C54.7784 45.443 54.8656 45.3574 55.124 45.3606C55.7581 45.3685 55.7581 45.3574 55.7581 45.9836C55.7581 46.4496 55.7581 46.9141 55.7581 47.3801L55.7596 47.3817Z" fill="#0D1853"/>
<path d="M11.6742 47.3785C11.6742 46.8047 11.6805 46.2309 11.671 45.6554C11.6679 45.4462 11.7233 45.3495 11.9516 45.3527C12.7632 45.3622 12.6079 45.3099 12.6142 45.9867C12.6237 47.006 12.6079 48.0253 12.6206 49.0461C12.6237 49.322 12.5571 49.4329 12.2591 49.4218C11.5727 49.3965 11.6837 49.4868 11.6758 48.8337C11.6694 48.3487 11.6758 47.8636 11.6758 47.3785H11.6742Z" fill="#0D1853"/>
<path d="M47.2204 48.5008C47.1618 48.6514 47.035 48.7513 46.8305 48.6514C46.6292 48.5547 46.5721 48.2218 46.7084 48.0253C46.9922 47.6147 47.2981 47.6131 47.7293 48.0142C47.8783 47.9207 48.0146 47.8002 48.1731 47.7431C48.4268 47.6512 48.5916 47.8097 48.7422 47.9983C48.8912 48.1838 48.896 48.3677 48.7581 48.5373C48.6947 48.6165 48.552 48.6895 48.4616 48.6736C48.3554 48.6546 48.2682 48.5357 48.1937 48.4755C48.3681 48.4327 48.4965 48.401 48.6233 48.3693C48.5504 48.2203 48.5092 48.0395 48.3966 47.9317C48.2476 47.7907 48.1097 47.9143 48.0051 48.0506C47.7752 48.3502 47.7879 48.6958 47.826 49.043C47.8307 49.0826 47.8926 49.1523 47.9036 49.1476C47.9623 49.1254 48.0257 49.0937 48.0622 49.0445C48.227 48.8242 48.3998 48.7909 48.6297 49.0224C48.311 49.2807 47.7879 49.3235 47.7372 49.8942C47.7134 49.3172 47.184 49.2887 46.8733 49.035C47.1158 48.7862 47.1269 48.7877 47.5502 49.1508C47.6627 48.7545 47.7007 48.3883 47.4645 48.0364C47.3615 47.8842 47.1982 47.8033 47.0651 47.9333C46.9541 48.0411 46.924 48.2313 46.859 48.3851L47.2236 48.4992L47.2204 48.5008Z" fill="#0D1853"/>
<path d="M34.9478 12.9531C35.4233 13.2242 35.891 13.5095 36.376 13.7631C36.7913 13.9819 37.2257 14.1642 37.6505 14.3639C37.6981 14.3861 37.7425 14.4115 37.7805 14.4987C37.5998 14.4987 37.4175 14.5129 37.2384 14.4955C36.8405 14.4574 36.4236 14.5256 36.0637 14.2656C36.0178 14.2323 35.9021 14.2783 35.8244 14.3053C35.5755 14.3893 35.3298 14.4907 35.0778 14.5652C34.9827 14.5938 34.8733 14.57 34.7449 14.57C34.9969 14.3893 35.222 14.2276 35.4439 14.0643C35.5803 13.9644 35.604 13.8424 35.4931 13.7092C35.2997 13.4762 35.1031 13.2464 34.9066 13.0149L34.9462 12.9531H34.9478Z" fill="#0D1853"/>
<path d="M44.8233 13.1259C44.6838 13.2575 44.5443 13.3874 44.4048 13.519C44.007 13.8963 44.0307 14.1959 44.4762 14.4876C44.5634 14.5446 44.6442 14.6128 44.7282 14.6746L44.7171 14.7634C44.6157 14.7808 44.5079 14.8284 44.4128 14.8094C44.2321 14.7729 44.0371 14.7285 43.8849 14.6318C43.5171 14.3956 43.1494 14.4226 42.7515 14.5256C42.5121 14.5874 42.2553 14.5763 41.9922 14.5462C43.0511 14.2894 43.869 13.5919 44.7567 13.026L44.8217 13.1259H44.8233Z" fill="#0D1853"/>
<path d="M29.4791 44.8026C29.8152 44.4174 30.0894 44.0956 30.3732 43.7833C30.5032 43.6407 30.649 43.6629 30.7901 43.7913C30.9359 43.9244 30.9581 44.0671 30.8059 44.1955C30.5349 44.4238 30.2638 44.66 29.9626 44.8454C29.8627 44.9072 29.6725 44.8248 29.4775 44.8042L29.4791 44.8026Z" fill="#0D1853"/>
<path d="M47.1808 46.7984L47.7451 47.155C47.9211 47.0425 48.1018 46.9283 48.2825 46.8126C48.3966 47.0615 48.3364 47.2549 48.0891 47.4736C47.91 47.6337 47.7166 47.6876 47.4978 47.5529C47.2347 47.3912 47.0984 47.1011 47.1792 46.7984H47.1808Z" fill="#0D1853"/>
<path d="M48.2016 46.0137C48.3315 46.3181 48.1873 46.456 48.0161 46.5875C47.8481 46.7175 47.6753 46.7381 47.4993 46.6145C47.317 46.4861 47.1585 46.3402 47.2711 46.0296C47.4407 46.1405 47.5976 46.242 47.7514 46.3434C47.8782 46.2499 48.024 46.1437 48.2 46.0153L48.2016 46.0137Z" fill="#0D1853"/>
<path d="M47.4009 45.2243C47.5325 45.3717 47.6371 45.489 47.7513 45.6158C47.8416 45.5144 47.9399 45.4018 48.0588 45.2671C48.1919 45.489 48.1555 45.6523 48.0017 45.7902C47.886 45.8932 47.7798 46.0026 47.5896 45.8774C47.3502 45.7204 47.2947 45.5334 47.4009 45.2227V45.2243Z" fill="#0D1853"/>
<path fill-rule="evenodd" clip-rule="evenodd" d="M41.4028 19.0909V29.699C41.4028 30.2079 41.4029 30.7169 41.4029 31.2259C41.4031 34.2824 41.4033 37.3397 41.3965 40.3958C41.3965 40.6684 41.4726 40.7556 41.7468 40.7493C42.2725 40.7378 42.7982 40.7396 43.3239 40.7415C43.521 40.7422 43.7182 40.7429 43.9153 40.7429C44.2974 40.7414 44.2974 40.7414 44.2974 40.3562L44.2974 40.3466L44.2974 40.3448C44.2958 37.4334 44.2942 34.5221 44.3005 31.6107C44.3005 31.5325 44.3422 31.4535 44.3838 31.3748C44.4029 31.3387 44.4219 31.3026 44.4369 31.2667C44.463 31.2967 44.4922 31.3255 44.5215 31.3543C44.588 31.4199 44.6544 31.4854 44.6842 31.5647C44.7193 31.6593 44.7286 31.763 44.7379 31.8671C44.7438 31.9322 44.7496 31.9975 44.7618 32.0609C44.8141 32.3304 44.8684 32.5998 44.9227 32.8693C44.977 33.1388 45.0313 33.4083 45.0836 33.6778C45.1396 33.9698 45.1938 34.2621 45.2479 34.5544C45.3197 34.9413 45.3914 35.3283 45.4672 35.7147C45.5296 36.0305 45.5949 36.346 45.6602 36.6615C45.746 37.0763 45.8319 37.4911 45.9111 37.907C45.9797 38.267 46.0454 38.6277 46.1111 38.9884C46.2063 39.5111 46.3016 40.0338 46.4057 40.5543C46.4215 40.6304 46.5658 40.7334 46.6514 40.7334C47.1999 40.7419 47.7477 40.7419 48.2958 40.7419C48.5697 40.7419 48.8437 40.7419 49.1179 40.7429C49.305 40.7429 49.3605 40.6795 49.3145 40.4893C49.1956 39.9916 49.0862 39.4922 48.9848 38.9913C48.8983 38.5629 48.8154 38.1336 48.7325 37.7042C48.6514 37.2835 48.5701 36.8627 48.4854 36.4423C48.4067 36.0501 48.3238 35.6589 48.241 35.2678C48.1688 34.927 48.0967 34.5863 48.0273 34.2453C47.9425 33.8268 47.8601 33.4075 47.7776 32.9882C47.6952 32.5689 47.6128 32.1497 47.528 31.7312C47.4883 31.5357 47.4454 31.3408 47.4025 31.1461C47.3289 30.8118 47.2554 30.4778 47.1983 30.1412C47.1713 29.9811 47.2014 29.783 47.2744 29.6356C47.8466 28.4768 48.3047 27.3085 48.2889 25.9674L48.2886 25.9414C48.2697 24.3428 48.2509 22.7555 47.6786 21.2341C47.4091 20.516 47.0588 19.847 46.4469 19.3525C45.7811 18.8151 44.979 18.6994 44.1658 18.6692C43.6286 18.6496 43.0906 18.6547 42.5524 18.6598C42.3077 18.6622 42.0629 18.6645 41.8181 18.6645C41.5413 18.6655 41.4028 18.8077 41.4028 19.0909ZM45.2078 22.2028C45.1387 22.021 45.0273 21.8597 44.819 21.7635C44.5004 21.6161 44.3324 21.716 44.3324 22.06V24.9418L44.3308 24.9402C44.3308 25.1562 44.3306 25.3722 44.3305 25.588C44.3299 26.3433 44.3294 27.0977 44.3355 27.8522C44.3368 27.9363 44.373 28.0753 44.4129 28.127C44.4224 28.1396 44.4322 28.1474 44.4416 28.1487C44.5748 28.1661 44.7666 28.1566 44.849 28.0726C45.0012 27.9156 45.1454 27.7127 45.1946 27.5051C45.3166 26.9978 45.3991 26.481 45.4688 25.9643C45.6226 24.815 45.5227 23.6737 45.2992 22.5434C45.2765 22.4291 45.2499 22.3123 45.2078 22.2028Z" fill="#0D1853"/>
<path fill-rule="evenodd" clip-rule="evenodd" d="M49.9956 28.7635C49.9882 29.1213 49.9805 29.4889 49.9674 29.8702H49.9658C49.969 29.9324 49.9726 30.0105 49.9766 30.0991C49.9846 30.2746 49.9944 30.4912 50.007 30.7072C50.0252 31.0307 50.0376 31.3544 50.05 31.6782C50.0863 32.6267 50.1226 33.5748 50.3035 34.5132C50.3563 34.79 50.4007 35.0686 50.445 35.347C50.5136 35.778 50.5822 36.2088 50.6823 36.6326C50.9629 37.8183 51.356 38.9596 52.1169 39.944C52.938 41.0045 54.2585 41.301 55.3285 40.6193C55.9737 40.2104 56.3842 39.5905 56.7187 38.9184C57.375 37.5948 57.7031 36.1713 57.8743 34.7256C58.0629 33.1468 58.1882 31.5537 58.2231 29.9637C58.2449 28.9746 58.1701 27.9828 58.0954 26.9924C58.0726 26.6891 58.0497 26.386 58.0297 26.0832C57.9377 24.7041 57.7047 23.3487 57.3052 22.0219C57.05 21.1739 56.7108 20.3702 56.1797 19.6553C55.1113 18.2175 53.3518 18.1351 52.1645 19.4761C51.5415 20.1784 51.2007 21.0344 50.9169 21.9062C50.4271 23.4137 50.2385 24.9847 50.0926 26.554C50.0267 27.2721 50.0116 27.9953 49.9956 28.7635ZM53.9011 22.0604C53.8281 22.126 53.7621 22.2186 53.7433 22.293C53.7107 22.4213 53.6768 22.5498 53.6429 22.6785C53.4954 23.2382 53.3469 23.8015 53.2979 24.3712C53.179 25.7804 53.114 27.196 53.0918 28.61C53.0751 29.655 53.0998 30.7009 53.1245 31.7464C53.1326 32.087 53.1407 32.4275 53.1473 32.7679C53.1742 34.1438 53.2725 35.515 53.6165 36.8545C53.6672 37.0495 53.7576 37.2445 53.8685 37.4125C53.9726 37.5691 54.1072 37.6004 54.2318 37.5186C54.2731 37.4919 54.3132 37.4527 54.3506 37.4014C54.4076 37.3238 54.4504 37.2318 54.4869 37.1415C54.8087 36.3441 54.8784 35.4913 54.9387 34.6543C55.0198 33.5218 55.0592 32.3856 55.1031 31.1212C55.1227 30.5574 55.1431 29.9681 55.1685 29.3424V29.3408C55.1427 28.9103 55.1167 28.4527 55.0896 27.9753C55.0149 26.6627 54.9318 25.2003 54.8214 23.7403C54.7872 23.2924 54.6396 22.8484 54.4952 22.4139C54.4786 22.364 54.462 22.3142 54.4457 22.2645C54.4029 22.1329 54.2 21.9824 54.0652 21.976C54.0186 21.9739 53.9576 22.0091 53.9011 22.0604Z" fill="#0D1853"/>
<path fill-rule="evenodd" clip-rule="evenodd" d="M39.5956 30.4989C39.5916 30.2374 39.5876 29.976 39.5876 29.7148H39.5907L39.6621 29.7116C39.6452 29.3994 39.6287 29.0871 39.6122 28.7749C39.5682 27.9426 39.5242 27.1104 39.4734 26.2781C39.4678 26.1856 39.4625 26.0928 39.4573 26.0001C39.4302 25.5211 39.4031 25.041 39.3181 24.5709C39.1707 23.7561 38.9709 22.9508 38.7696 22.1471C38.5366 21.2119 38.1561 20.3369 37.5554 19.5744C37.0687 18.9578 36.4473 18.5662 35.642 18.5298C34.6148 18.4854 33.8983 19.0196 33.3435 19.8122C32.7903 20.6032 32.4273 21.4845 32.226 22.4261C32.1948 22.571 32.1632 22.7159 32.1316 22.8607C31.9594 23.651 31.7871 24.4417 31.6759 25.2414C31.5459 26.1799 31.4841 27.1294 31.4429 28.0773C31.3494 30.2744 31.4413 32.4651 31.7472 34.6463C31.92 35.8685 32.1657 37.0701 32.6096 38.2241C32.9013 38.9834 33.2769 39.6999 33.8698 40.2769C34.7908 41.1741 36.0843 41.2312 37.0576 40.3958C37.9881 39.5984 38.4225 38.5015 38.749 37.3681C38.9646 36.6215 39.1231 35.8542 39.2452 35.087C39.3942 34.1533 39.5162 33.2117 39.5765 32.2685C39.6138 31.6807 39.6047 31.0897 39.5956 30.4989ZM34.4485 29.7148L34.5435 29.718C34.5435 29.9506 34.5403 30.1832 34.5372 30.4157C34.53 30.936 34.5229 31.456 34.5514 31.9753C34.6228 33.2989 34.7179 34.621 34.8479 35.9398C34.8871 36.3456 35.0265 36.7447 35.163 37.1359C35.1753 37.1711 35.1876 37.2062 35.1998 37.2413C35.2442 37.3697 35.428 37.5377 35.5406 37.5314C35.6102 37.5287 35.694 37.4757 35.7637 37.4061C35.8185 37.3519 35.8649 37.2873 35.8893 37.2286C36.013 36.9306 36.1208 36.6151 36.1604 36.2981C36.1893 36.065 36.2203 35.8318 36.2514 35.5984C36.3602 34.7811 36.4693 33.962 36.4853 33.142C36.4912 32.8423 36.4975 32.5425 36.5038 32.2428C36.563 29.4444 36.6221 26.6437 36.2713 23.856C36.2064 23.3408 36.0637 22.832 35.9131 22.3342C35.8671 22.1852 35.6896 22.0093 35.5453 21.9791C35.4887 21.9671 35.3879 22.029 35.3075 22.1089C35.2504 22.1654 35.2032 22.2312 35.1887 22.2866C35.1559 22.4139 35.1218 22.5413 35.0877 22.669C34.9338 23.2443 34.7788 23.8241 34.7321 24.4092C34.6331 25.6773 34.5758 26.9487 34.5184 28.2199C34.4959 28.7183 34.4735 29.2167 34.4485 29.7148Z" fill="#0D1853"/>
<path fill-rule="evenodd" clip-rule="evenodd" d="M23.0859 29.6641V19.0545C23.0859 18.7924 23.2138 18.6614 23.4695 18.6614C23.7004 18.6614 23.9314 18.6624 24.1625 18.6635C24.6249 18.6656 25.0874 18.6677 25.5493 18.6614C27.209 18.6407 28.2616 19.5078 28.8972 20.8933C29.452 22.106 29.5424 23.3852 29.5091 24.6898C29.4869 25.5426 29.4584 26.3955 29.135 27.1976C28.9606 27.6319 28.7355 28.0504 28.5025 28.4578C28.4011 28.6353 28.3868 28.7415 28.5342 28.8921C29.173 29.5468 29.4885 30.3695 29.7389 31.2319C30.1257 32.5634 30.1701 33.9251 30.0671 35.2884C29.9688 36.5819 29.7088 37.8437 28.9939 38.9644C28.4787 39.7713 27.7686 40.3292 26.8492 40.5971C26.54 40.6875 26.2087 40.7287 25.887 40.735C25.4543 40.7449 25.0216 40.7437 24.5889 40.7424H24.5887C24.1892 40.7413 23.7898 40.7401 23.3903 40.7477C23.1319 40.7525 23.0796 40.6574 23.0796 40.4212C23.0849 37.4331 23.0847 34.444 23.0844 31.4555L23.0843 29.6625L23.0859 29.6641ZM26.166 30.3029C26.5087 30.5189 26.7106 30.8438 26.832 31.2067C26.8493 31.2577 26.865 31.3095 26.8793 31.3618C27.2058 32.5618 27.2851 33.7824 27.1741 35.0236C27.1044 35.8035 27.014 36.5739 26.6352 37.2698C26.5131 37.4918 26.3086 37.6883 26.0994 37.8357C25.94 37.9489 25.8299 37.9506 25.7723 37.8525C25.74 37.7996 25.7237 37.7162 25.7237 37.6043C25.7216 36.8129 25.7223 36.0214 25.723 35.2296C25.7234 34.8334 25.7237 34.4372 25.7237 34.0408H25.7269C25.7269 33.6524 25.7265 33.2641 25.7262 32.8759V32.8757C25.7255 32.0975 25.7248 31.3194 25.7269 30.5407C25.7269 30.1555 25.8379 30.0968 26.166 30.3029ZM25.8398 27.3024C25.839 27.3029 25.8383 27.3033 25.8376 27.3038C25.8254 27.2582 25.81 27.2128 25.7947 27.1674C25.7619 27.0708 25.7293 26.9744 25.7282 26.8773C25.72 26.2681 25.7213 25.658 25.7225 25.0484C25.723 24.8268 25.7234 24.6053 25.7234 24.3838L25.725 24.387C25.725 24.1765 25.7248 23.9662 25.7246 23.7559C25.724 23.125 25.7234 22.4947 25.7282 21.8634C25.7282 21.788 25.7531 21.7133 25.7779 21.6388C25.789 21.6053 25.8002 21.5719 25.809 21.5384C25.8454 21.5512 25.887 21.5608 25.9288 21.5704C26.0123 21.5896 26.0961 21.6088 26.1376 21.6539C26.1436 21.6598 26.1489 21.6663 26.1533 21.6732L26.208 21.7597C26.3778 22.0276 26.5533 22.3045 26.632 22.6021C26.8546 23.4426 26.8085 24.3075 26.7629 25.1647L26.7629 25.1648C26.7565 25.284 26.7502 25.4031 26.7445 25.522C26.7299 25.8387 26.6199 26.1521 26.5102 26.4646L26.5102 26.4646C26.465 26.5933 26.4199 26.7219 26.3815 26.8504C26.3593 26.9233 26.3181 27.0058 26.2595 27.0501C26.1634 27.1207 26.0598 27.1803 25.9559 27.2401L25.9559 27.2401C25.9175 27.2622 25.879 27.2843 25.841 27.3069C25.8406 27.3054 25.8402 27.3039 25.8398 27.3024Z" fill="#0D1853"/>
<path fill-rule="evenodd" clip-rule="evenodd" d="M79.9882 40.7429H79.9893L79.9877 40.7493C79.9879 40.7471 79.9881 40.745 79.9882 40.7429ZM79.4297 40.7429H79.9882C79.9904 40.7158 79.9929 40.6934 79.9951 40.6743C79.9991 40.6384 80.0018 40.6139 79.9988 40.5907C79.8799 39.6412 79.7595 38.6933 79.6374 37.7453C79.5898 37.3776 79.5411 37.0099 79.4924 36.6421C79.4436 36.2743 79.3949 35.9065 79.3473 35.5388C79.3285 35.3919 79.3096 35.245 79.2907 35.0982C79.2139 34.5015 79.137 33.9047 79.0683 33.3068C79.0404 33.0598 79.0196 32.8118 78.9989 32.5637C78.9761 32.2911 78.9533 32.0184 78.9209 31.747C78.8616 31.2464 78.7956 30.7469 78.7297 30.2475C78.6794 29.866 78.629 29.4846 78.5817 29.1029C78.5391 28.7613 78.4994 28.4196 78.4597 28.078C78.415 27.6936 78.3704 27.3092 78.3217 26.9249C78.2738 26.55 78.2229 26.1757 78.1721 25.8016C78.1103 25.3467 78.0485 24.8919 77.992 24.4361C77.9595 24.1735 77.9357 23.9096 77.912 23.6457C77.8906 23.4079 77.8692 23.1701 77.8414 22.9334C77.6955 21.6858 77.5434 20.4415 77.3896 19.1955C77.3753 19.0798 77.3579 18.9514 77.2992 18.8547C77.2501 18.7723 77.1391 18.6756 77.0535 18.674C76.6319 18.6663 76.2096 18.6668 75.7875 18.6673C75.5161 18.6676 75.2448 18.6679 74.9738 18.6661C74.7772 18.6645 74.698 18.7358 74.6853 18.9419C74.6583 19.354 74.6076 19.7662 74.5537 20.1767C74.5106 20.5007 74.4639 20.8242 74.4173 21.1477C74.3473 21.633 74.2773 22.1183 74.2192 22.6052C74.1107 23.5134 74.0099 24.4221 73.909 25.3312C73.8507 25.8565 73.7924 26.382 73.7326 26.9074C73.6898 27.2784 73.6422 27.6493 73.5931 28.0202C73.5526 28.3278 73.5106 28.6351 73.4686 28.9424C73.3971 29.465 73.3257 29.9875 73.2618 30.5106C73.1986 31.0337 73.1398 31.5575 73.081 32.0814C73.0173 32.6481 72.9537 33.2149 72.8845 33.7808C72.8318 34.2132 72.7708 34.6451 72.7097 35.077C72.655 35.4638 72.6003 35.8506 72.5516 36.2378C72.4536 37.0107 72.365 37.7856 72.2764 38.5601C72.2562 38.7371 72.2359 38.9142 72.2156 39.0912C72.1828 39.3776 72.1517 39.6646 72.1207 39.9519C72.1007 40.1367 72.0807 40.3217 72.0602 40.5067C72.0459 40.6367 72.0507 40.7445 72.2298 40.7445C72.4988 40.7434 72.7677 40.7433 73.0366 40.7431C73.5207 40.7429 74.0047 40.7427 74.4887 40.7366C74.549 40.7366 74.6488 40.6573 74.6615 40.5987C74.7138 40.3577 74.7534 40.112 74.7756 39.8663C74.9009 38.4666 75.0229 37.0669 75.1386 35.6672C75.1561 35.4754 75.2211 35.3723 75.424 35.3755C75.7521 35.3802 76.0787 35.3787 76.4052 35.3755C76.5875 35.3723 76.6779 35.4516 76.689 35.637C76.7021 35.8445 76.7198 36.0527 76.7375 36.2607C76.7475 36.3784 76.7575 36.4961 76.7666 36.6135C76.7865 36.86 76.8065 37.1065 76.8265 37.3531C76.9089 38.3673 76.9913 39.3823 77.0615 40.3974C77.0789 40.6668 77.1724 40.754 77.4387 40.7477C77.9131 40.7375 78.3867 40.7394 78.8606 40.7414C79.0502 40.7422 79.2399 40.7429 79.4297 40.7429ZM75.5804 32.7007C75.6933 32.7423 75.8844 32.726 76.1926 32.6871C76.1985 32.6866 76.2054 32.6869 76.2123 32.6871C76.2275 32.6877 76.2431 32.6884 76.2497 32.6807C76.2614 32.6673 76.2755 32.6534 76.2899 32.6392C76.3298 32.6 76.3717 32.5587 76.3717 32.519C76.3638 32.1243 76.3527 31.728 76.3178 31.3349C76.2893 31.0061 76.2545 30.6776 76.2196 30.3492C76.1827 30.0016 76.1458 29.6539 76.1165 29.3059C76.0783 28.8383 76.0489 28.37 76.0194 27.9015C76.0036 27.6505 75.9878 27.3995 75.9707 27.1484C75.9695 27.1221 75.9601 27.0966 75.9508 27.0714C75.9472 27.0617 75.9436 27.0519 75.9405 27.0422L75.9421 27.0406L75.8581 27.0343C75.8581 27.0343 75.8581 27.0343 75.8581 27.0344L75.8567 27.0342C75.8464 27.0998 75.8345 27.1653 75.8226 27.2308C75.7963 27.3763 75.7699 27.5219 75.76 27.6683C75.7331 28.0821 75.7097 28.4962 75.6863 28.9103C75.6629 29.3244 75.6396 29.7386 75.6126 30.1523C75.6047 30.2746 75.5972 30.3969 75.5897 30.5192C75.5598 31.0076 75.5298 31.4961 75.4715 31.9816C75.4168 32.4396 75.4069 32.6376 75.5804 32.7007Z" fill="#0D1853"/>
<path fill-rule="evenodd" clip-rule="evenodd" d="M6.00273 45.2607C4.75678 45.256 3.83103 46.1579 3.83103 47.3595V47.3579C3.79616 48.5325 4.7219 49.5027 6.00432 49.4837C7.33587 49.4646 8.16968 48.607 8.18236 47.3532C8.19504 46.1881 7.31844 45.2655 6.00273 45.2607ZM6.73759 46.3753C6.54597 46.2059 6.30122 46.104 6.02968 46.0993C5.37183 46.0898 4.80433 46.6763 4.79958 47.3674C4.79825 47.6522 4.88865 47.9103 5.03939 48.1179C5.24692 48.4049 5.5697 48.5954 5.9251 48.6276C6.58613 48.6879 7.26142 48.0633 7.15838 47.3674H7.15996C7.16088 46.9609 6.99803 46.6054 6.73759 46.3753Z" fill="#0D1853"/>
<path fill-rule="evenodd" clip-rule="evenodd" d="M30.0876 49.4884C31.2416 49.4932 32.2815 48.6784 32.2276 47.3754H32.2292C32.31 46.1104 31.2305 45.2686 30.1257 45.256C28.8955 45.2433 27.9587 46.1135 27.927 47.2628C27.8842 48.7656 28.9732 49.4836 30.0876 49.4884ZM31.2926 47.4318C31.2803 47.9681 30.7514 48.706 30.0924 48.6197C29.3981 48.6229 28.9162 48.1109 28.8845 47.4007C28.8819 47.3444 28.8839 47.2883 28.89 47.2329C28.9553 46.6305 29.5086 46.0994 30.0751 46.1009C30.725 46.1041 31.2687 46.6985 31.2925 47.3833C31.293 47.3993 31.2931 47.4154 31.2926 47.4318Z" fill="#0D1853"/>
<path d="M32.8236 47.3817C32.8236 46.7984 32.8299 46.2134 32.8204 45.6301C32.8172 45.4224 32.887 45.3511 33.0962 45.3606C33.6003 45.3844 34.1092 45.3495 34.6085 45.4066C35.4788 45.5049 36.2523 46.1389 36.3379 47.2486C36.4045 48.122 35.818 49.0192 34.9731 49.2808C34.3263 49.4805 33.6606 49.4076 33.0011 49.3997C32.9409 49.3997 32.8363 49.2285 32.8331 49.1333C32.8172 48.55 32.8252 47.9651 32.8252 47.3817H32.8236ZM33.7573 47.3849C33.7573 47.7114 33.7477 48.0396 33.7636 48.3645C33.7684 48.4485 33.8397 48.5817 33.9078 48.6007C34.366 48.7307 35.0143 48.4375 35.2156 47.9984C35.604 47.1487 35.2378 46.1389 33.9792 46.1041C33.8048 46.0993 33.7557 46.1944 33.7557 46.345C33.7557 46.6922 33.7557 47.0377 33.7557 47.3849H33.7573Z" fill="#0D1853"/>
<path fill-rule="evenodd" clip-rule="evenodd" d="M73.4352 47.4542L73.4352 47.4543C73.5636 47.67 73.6794 47.8643 73.7369 48.0744C73.905 48.699 73.4199 49.3014 72.7779 49.4329C72.3721 49.5154 71.9885 49.4963 71.6176 49.36C70.752 49.0446 70.5919 47.8398 71.3544 47.331C71.3772 47.315 71.3984 47.2958 71.4238 47.2727L71.4238 47.2727C71.4337 47.2637 71.4443 47.254 71.4559 47.2438C71.446 47.228 71.437 47.2116 71.4282 47.1954C71.4086 47.1595 71.3896 47.1247 71.3623 47.0995C70.6982 46.5099 70.9978 45.5635 71.7666 45.3416C72.3261 45.1799 72.8952 45.1878 73.3438 45.6459C73.7084 46.0169 73.7021 46.5986 73.3549 46.9854C73.2963 47.0504 73.2424 47.1186 73.2424 47.1186L73.244 47.1202C73.3072 47.2394 73.3727 47.3494 73.4352 47.4542ZM72.2786 48.7402C72.6115 48.7402 72.8936 48.5151 72.9016 48.2409C72.9065 48.0616 72.6839 47.8014 72.4677 47.6918C72.4061 47.6602 72.3449 47.6406 72.2896 47.6385C72.0693 47.6306 71.6983 47.9841 71.6904 48.2092C71.6869 48.3146 71.7213 48.4144 71.7825 48.4984C71.8868 48.6428 72.0706 48.7402 72.2786 48.7402ZM71.8844 46.5728C71.8489 46.5172 71.8267 46.459 71.8238 46.4036C71.8143 46.2023 72.0853 45.9725 72.3326 45.974C72.489 45.974 72.6085 46.0178 72.6859 46.0994C72.7544 46.17 72.7906 46.2694 72.7906 46.3941C72.7922 46.6541 72.6067 46.8586 72.3658 46.8649C72.1926 46.8697 71.9845 46.7318 71.8844 46.5728Z" fill="#0D1853"/>
<path fill-rule="evenodd" clip-rule="evenodd" d="M44.1966 49.4108C44.1974 49.4108 44.1981 49.4108 44.1988 49.4108L44.1972 49.4123C44.197 49.4118 44.1968 49.4113 44.1966 49.4108ZM44.1966 49.4108C44.1673 49.3355 44.1409 49.2676 44.1163 49.2045C44.0708 49.0876 44.0318 48.9873 43.9928 48.8877C43.878 48.5913 43.7628 48.2951 43.6476 47.9989C43.3284 47.178 43.0091 46.357 42.6992 45.5334C42.6179 45.3164 42.4681 45.3173 42.3142 45.3182C42.2792 45.3184 42.244 45.3186 42.2094 45.3162C42.0366 45.3051 41.9225 45.3559 41.8512 45.5461C41.6491 46.0893 41.4358 46.6289 41.2226 47.1682C41.1248 47.4158 41.0269 47.6633 40.9302 47.9112C40.807 48.2258 40.6873 48.541 40.5669 48.8579C40.5029 49.0264 40.4387 49.1953 40.3738 49.3648C41.1521 49.5328 41.2884 49.4536 41.4977 48.7513C41.5008 48.7418 41.5024 48.7323 41.504 48.7228C41.5484 48.5468 41.6499 48.4565 41.8432 48.4644C41.8742 48.4657 41.9052 48.4672 41.9362 48.4686C42.1329 48.4778 42.3319 48.487 42.5249 48.4597C42.8387 48.4137 42.9687 48.5801 43.0512 48.8369C43.0626 48.8718 43.0735 48.907 43.0844 48.9421C43.1171 49.0476 43.1498 49.1532 43.1986 49.2507C43.2319 49.3172 43.3159 49.3981 43.3825 49.4028C43.5641 49.4165 43.7474 49.4146 43.9513 49.4125C44.0297 49.4116 44.1111 49.4108 44.1966 49.4108ZM42.4709 47.1735C42.4451 47.1016 42.4188 47.0298 42.3926 46.958C42.3653 46.8832 42.3379 46.8084 42.311 46.7334V46.7318L42.2317 46.7223C42.2159 46.7609 42.2001 46.7994 42.1843 46.8378C42.1308 46.9683 42.0776 47.0981 42.0225 47.228C41.9687 47.3538 41.9307 47.4511 41.9126 47.5257C41.8574 47.7489 41.9787 47.7697 42.3854 47.7495C42.5295 47.7426 42.5922 47.6879 42.5957 47.5958C42.5974 47.5608 42.5903 47.5205 42.5757 47.4753C42.5556 47.4146 42.5349 47.3541 42.5137 47.2938C42.4997 47.2537 42.4854 47.2136 42.4709 47.1735Z" fill="#0D1853"/>
<path fill-rule="evenodd" clip-rule="evenodd" d="M0.604362 46.8908C0.603751 47.0476 0.603139 47.2043 0.603139 47.3611C0.603733 47.5352 0.602991 47.7096 0.602248 47.884C0.601009 48.1748 0.59977 48.4657 0.604724 48.7561C0.611025 49.1301 0.573112 49.2918 0.636388 49.3613C0.700475 49.4317 0.86836 49.4075 1.29111 49.4139C1.47341 49.4171 1.53364 49.3426 1.52889 49.1666C1.5236 48.9753 1.52536 48.7841 1.52713 48.5928C1.52801 48.4972 1.52889 48.4015 1.52889 48.3059C1.52968 47.9979 1.5173 47.8625 1.57856 47.8033C1.63933 47.7445 1.77258 47.7606 2.06309 47.7574C2.09444 47.7571 2.12625 47.7573 2.15826 47.7575C2.31562 47.7584 2.47801 47.7594 2.61632 47.7067C3.19809 47.4863 3.52622 46.9236 3.42635 46.3799C3.31539 45.7775 2.82874 45.3812 2.17723 45.3701C2.00295 45.3669 1.8284 45.3679 1.65381 45.3689C1.40281 45.3704 1.1517 45.3718 0.901153 45.3606C0.65862 45.3495 0.593628 45.4399 0.598384 45.6681C0.607542 46.0757 0.605952 46.4833 0.604362 46.8908ZM1.80157 46.1022C1.53291 46.1033 1.52749 46.1446 1.52749 46.6002C1.53515 46.6458 1.53125 46.6989 1.52729 46.7527C1.51537 46.9147 1.50295 47.0836 1.80374 47.0762C1.81717 47.0759 1.83122 47.0752 1.84592 47.0742C2.25173 47.0456 2.51329 46.884 2.50853 46.5923C2.50536 46.3212 2.22637 46.1041 1.87446 46.1025C1.84822 46.1022 1.82397 46.1021 1.80157 46.1022Z" fill="#0D1853"/>
<path d="M43.0276 11.555C42.0543 11.9449 41.0778 12.3349 40.0871 12.7312C39.9777 12.56 40.0744 12.4458 40.2488 12.3666C40.7687 12.132 41.276 11.853 41.8165 11.6818C42.1985 11.5613 42.6265 11.5914 43.026 11.555H43.0276Z" fill="#0D1853"/>
<path d="M36.709 11.5867C37.0498 11.5867 37.3906 11.6073 37.7298 11.5819C38.4051 11.5328 38.8363 11.9703 39.2992 12.3444C39.3673 12.3999 39.3863 12.5187 39.3879 12.6456C38.57 12.0733 37.7362 11.6152 36.6963 11.7246L36.709 11.5867Z" fill="#0D1853"/>
</svg>
