<svg width="80" height="49" viewBox="0 0 80 49" fill="none" xmlns="http://www.w3.org/2000/svg">
<g clip-path="url(#clip0_1311_45095)">
<path d="M44.8958 22.4892C44.2392 24.33 43.5825 26.1707 42.9259 28.014C42.7782 28.4307 42.6305 28.8474 42.4802 29.264C42.3747 29.5567 42.322 29.8627 41.8763 29.8627C41.4517 29.8627 41.3568 29.5989 41.2434 29.293C40.4944 27.2783 39.7429 25.2661 38.986 23.2566C38.899 23.0298 38.8647 22.7688 38.6695 22.5842C38.4981 22.687 38.5614 22.8505 38.5614 22.9797C38.5561 24.5383 38.5614 26.0995 38.5561 27.658C38.5561 28.4254 38.6643 29.1084 39.5925 29.2798C39.7534 29.3089 39.8483 29.4223 39.8352 29.5989C39.822 29.7888 39.6901 29.8442 39.5292 29.8442C38.6432 29.8468 37.7597 29.8495 36.8737 29.8468C36.7181 29.8468 36.5757 29.8178 36.544 29.6279C36.5124 29.4196 36.6205 29.3062 36.8104 29.2693C37.6912 29.1084 37.8599 28.4782 37.8599 27.7187C37.8599 26.1179 37.8705 24.5146 37.8679 22.9138C37.8679 22.0778 37.7254 21.9038 36.9053 21.6849C36.7207 21.6348 36.5124 21.648 36.5335 21.3685C36.5572 21.0784 36.7761 21.1232 36.958 21.1232C37.8441 21.1179 38.7302 21.139 39.6136 21.1127C40.025 21.0995 40.2096 21.2682 40.3388 21.6401C40.9243 23.3305 41.5335 25.0156 42.1374 26.7007C42.2059 26.888 42.2877 27.0726 42.4301 27.4259C42.7966 26.3685 43.1078 25.485 43.4111 24.5989C43.7539 23.6021 44.102 22.6105 44.4211 21.6058C44.5345 21.2445 44.7191 21.1047 45.0962 21.1153C45.9586 21.139 46.8235 21.1206 47.6885 21.1285C47.8731 21.1285 48.0894 21.1127 48.0841 21.4054C48.0788 21.648 47.8969 21.6638 47.7307 21.6665C47.0055 21.677 46.8341 22.0805 46.8446 22.7424C46.8763 24.5963 46.8684 26.4502 46.8473 28.3041C46.842 28.8764 46.9739 29.2508 47.6279 29.264C47.8257 29.2667 48.0841 29.2667 48.0841 29.5752C48.0841 29.9022 47.8177 29.8468 47.62 29.8468C46.5651 29.8547 45.5129 29.8547 44.458 29.8468C44.2603 29.8468 43.9939 29.9101 43.9702 29.5937C43.9464 29.2957 44.1891 29.2719 44.4027 29.2535C44.7956 29.2218 45.0408 29.0504 45.0408 28.6258C45.0408 26.5847 45.0408 24.5462 45.0408 22.5051L44.8984 22.4866L44.8958 22.4892Z" fill="#0D1853"/>
<path d="M71.6365 29.8495C70.5421 29.8495 69.445 29.8547 68.3506 29.8442C68.1581 29.8442 67.8865 29.9233 67.8496 29.6095C67.81 29.2561 68.1027 29.264 68.3216 29.2561C68.8965 29.2376 69.0547 28.9396 69.0468 28.3938C69.0205 26.4766 69.0178 24.5594 69.0416 22.6422C69.0495 22.062 68.8991 21.7034 68.2689 21.6717C68.0632 21.6612 67.81 21.6638 67.8522 21.3421C67.8891 21.0652 68.1265 21.1232 68.3005 21.1232C70.4498 21.1179 72.599 21.1232 74.7483 21.1179C75.0648 21.1179 75.2151 21.2419 75.2256 21.5557C75.2441 22.2282 75.2678 22.9033 75.2863 23.5757C75.2889 23.7234 75.3021 23.8869 75.0911 23.9054C74.925 23.9212 74.7457 23.9528 74.6586 23.7471C74.6428 23.7076 74.6244 23.6707 74.6059 23.6311C73.6776 21.7587 73.3981 21.5979 71.415 21.7139C71.0431 21.735 70.8875 21.8616 70.8955 22.2413C70.9113 23.0193 70.9139 23.7999 70.8955 24.5805C70.8849 24.9734 71.0563 25.0763 71.4255 25.0842C72.1217 25.1 72.6017 24.8389 72.8337 24.1612C72.9049 23.9528 72.9445 23.6654 73.2662 23.7102C73.6143 23.7577 73.5089 24.0583 73.5115 24.2667C73.5247 25.0472 73.5194 25.8252 73.5115 26.6058C73.5115 26.7798 73.5748 27.0093 73.3005 27.062C73.021 27.1148 72.9551 26.9117 72.8654 26.7113C72.4645 25.8357 72.0822 25.609 71.2778 25.6881C71.0141 25.7144 70.9007 25.812 70.9007 26.0731C70.9034 26.9987 70.906 27.927 70.9007 28.8526C70.9007 29.1163 71.0194 29.235 71.2831 29.2297C71.7894 29.2165 72.2958 29.2403 72.7968 29.1928C73.6908 29.1084 74.3185 28.6285 74.6745 27.8004C74.7905 27.5288 74.9065 27.2598 75.0147 26.9855C75.0938 26.7904 75.2467 26.7614 75.426 26.7772C75.608 26.793 75.6766 26.8985 75.6713 27.0752C75.6344 27.8953 75.6054 28.7155 75.5658 29.5356C75.5474 29.8811 75.2731 29.8389 75.0489 29.8415C73.9123 29.8468 72.7731 29.8415 71.6365 29.8415V29.8495Z" fill="#0D1853"/>
<path d="M11.3309 24.8126C11.3309 24.0742 11.3046 23.3358 11.3389 22.6001C11.3652 22.0357 11.1727 21.7166 10.5846 21.6744C10.3869 21.6612 10.1179 21.6876 10.1521 21.3606C10.1864 21.0415 10.4581 21.1259 10.6479 21.1233C11.7239 21.1154 12.7972 21.1154 13.8731 21.1233C14.0498 21.1233 14.2793 21.0758 14.3083 21.358C14.3373 21.6375 14.1316 21.656 13.9391 21.6691C13.351 21.7061 13.1743 22.0225 13.1875 22.5921C13.2191 24.0663 13.1901 25.5431 13.2007 27.0173C13.2086 28.4308 13.9391 29.1876 15.3157 29.2324C16.6369 29.2773 17.5256 28.502 17.5809 27.1412C17.6363 25.7963 17.61 24.4434 17.5915 23.0958C17.5809 22.3601 17.2355 21.8564 16.4707 21.7034C16.294 21.6665 16.0699 21.6533 16.0936 21.3764C16.1226 21.0468 16.3863 21.1259 16.5762 21.1233C17.4201 21.1127 18.2613 21.1154 19.1052 21.1233C19.2819 21.1233 19.5087 21.0732 19.5509 21.3501C19.5931 21.6164 19.3927 21.6718 19.2081 21.714C18.5593 21.8643 18.3352 22.31 18.3352 22.9271C18.3299 24.1902 18.322 25.4561 18.3141 26.7193C18.3035 28.821 17.3515 29.8601 15.2524 30.0447C14.5746 30.1053 13.8995 30.0315 13.2561 29.8205C12.1537 29.4566 11.4575 28.7129 11.3811 27.5289C11.323 26.627 11.3705 25.7198 11.3705 24.8126H11.3336H11.3309Z" fill="#0D1853"/>
<path d="M31.584 21.1206C32.681 21.1206 33.7754 21.1364 34.8725 21.1127C35.3102 21.1022 35.4658 21.2498 35.4553 21.6902C35.4421 22.2994 35.5001 22.9112 35.5107 23.5204C35.5133 23.7129 35.5845 23.9687 35.2891 24.0426C34.9885 24.1164 34.8857 23.916 34.7986 23.6786C34.6457 23.2646 34.4769 22.8558 34.229 22.484C34.0497 22.2124 33.8308 21.9935 33.5354 21.8564C32.7496 21.4898 32.4806 21.6612 32.4806 22.5183C32.4806 24.4566 32.4964 26.3949 32.4727 28.3358C32.4648 28.9318 32.6467 29.2535 33.2823 29.2641C33.5038 29.2667 33.8598 29.2008 33.8334 29.599C33.8097 29.9524 33.4906 29.8442 33.2849 29.8442C32.1246 29.8548 30.9669 29.8548 29.8065 29.8442C29.6008 29.8442 29.2897 29.9524 29.2527 29.599C29.2158 29.2403 29.5296 29.2667 29.7406 29.2667C30.421 29.2667 30.6399 28.9476 30.6293 28.2778C30.595 26.2973 30.5977 24.3168 30.6293 22.3363C30.6372 21.743 30.3841 21.6586 29.8988 21.7535C29.2712 21.8801 28.9416 22.3258 28.6831 22.8506C28.5249 23.1723 28.3825 23.4993 28.2427 23.829C28.1636 24.0162 28.0238 24.0663 27.8366 24.0505C27.5993 24.0294 27.5887 23.8527 27.5914 23.6839C27.5993 22.9666 27.6256 22.2519 27.623 21.5346C27.623 21.1233 27.8841 21.1206 28.1742 21.1206C29.3134 21.1206 30.45 21.1206 31.5892 21.1206H31.584Z" fill="#0D1853"/>
<path d="M23.8359 29.8495C22.8022 29.8495 21.771 29.8548 20.7373 29.8442C20.529 29.8442 20.2178 29.9471 20.1861 29.5963C20.1545 29.2535 20.4577 29.2641 20.6793 29.2588C21.2568 29.243 21.4177 28.9423 21.4098 28.3991C21.3887 26.4608 21.3807 24.5199 21.415 22.5816C21.4256 21.9909 21.212 21.7219 20.645 21.6744C20.4525 21.6586 20.1756 21.7113 20.1861 21.3843C20.1967 21.0599 20.4683 21.1232 20.6608 21.1232C21.779 21.1153 22.8945 21.1153 24.0126 21.1232C24.2051 21.1232 24.4794 21.0468 24.5163 21.3579C24.5532 21.6823 24.2842 21.6586 24.0838 21.6691C23.4905 21.7008 23.2584 21.9698 23.2689 22.5948C23.3059 24.5963 23.2953 26.6006 23.2742 28.6021C23.2689 29.0979 23.4219 29.2509 23.9203 29.2456C25.5685 29.2351 26.2304 28.8052 26.8291 27.2493C26.8897 27.0911 26.9451 26.9328 27.0084 26.7772C27.0875 26.5821 27.2563 26.5742 27.433 26.5874C27.6756 26.6058 27.6729 26.7878 27.6677 26.9566C27.6492 27.7767 27.6149 28.5995 27.6096 29.4196C27.6096 29.8258 27.3644 29.8442 27.0664 29.8442C25.9905 29.8442 24.9171 29.8442 23.8412 29.8442L23.8359 29.8495Z" fill="#0D1853"/>
<path d="M43.2818 8.95019C43.0102 13.2804 41.5518 16.0731 38.7987 18.1933C38.411 18.4913 38.1394 18.4729 37.7544 18.1881C31.8736 13.8605 31.8815 4.91802 37.7676 0.614218C38.1552 0.329408 38.4084 0.324134 38.804 0.619492C41.6943 2.78721 43.4717 6.46337 43.2818 8.95019Z" fill="#0D1853"/>
<path d="M45.2389 36.801H44.3423C44.6561 36.2735 44.4926 35.7198 44.5506 35.0288C44.1735 35.551 44.1023 36.0468 43.9124 36.4872C43.857 36.6164 43.8359 36.8036 43.6408 36.7799C43.5037 36.7641 43.4667 36.6137 43.4219 36.4951C43.2505 36.0441 43.0817 35.5958 42.8444 35.1554C42.8365 35.7013 42.6097 36.2604 43.0501 36.7641C42.7864 36.859 42.5596 36.8353 42.3328 36.7957C42.6492 36.023 42.6492 35.2583 42.3644 34.4539C43.654 34.0689 43.3191 35.4007 43.8649 35.9518C43.9757 35.638 44.1049 35.3664 44.1682 35.0816C44.2974 34.4935 44.6244 34.2614 45.2178 34.4407C44.9857 35.2161 44.9593 35.9993 45.2389 36.801Z" fill="#0D1853"/>
<path d="M55.0623 42.7212C54.9251 43.0219 54.7986 43.3304 54.6456 43.6258C54.4716 43.9633 54.2764 43.9396 54.1155 43.6152C53.9679 43.3172 53.8413 43.0113 53.5538 42.7212C53.5538 42.9955 53.5591 43.2724 53.5538 43.5467C53.5486 43.6917 53.538 43.8657 53.3244 43.842C53.1609 43.8236 53.153 43.6759 53.1504 43.5519C53.1451 43.006 53.1424 42.4602 53.1451 41.9143C53.1451 41.7429 53.1556 41.5714 53.3903 41.5477C53.5934 41.5266 53.6989 41.6426 53.7754 41.8061C53.9573 42.2044 54.1393 42.6052 54.3423 43.0561C54.7142 42.7186 54.7722 42.2676 54.9779 41.9037C55.0834 41.7191 55.1572 41.5029 55.4288 41.5503C55.7347 41.6004 55.6662 41.8563 55.6688 42.0514C55.6767 42.5551 55.6688 43.0588 55.6635 43.5625C55.6635 43.7207 55.6161 43.8605 55.4183 43.8605C55.2126 43.8605 55.1915 43.7075 55.1889 43.5546C55.1836 43.2829 55.1889 43.0113 55.1889 42.7397L55.0623 42.7186V42.7212Z" fill="#0D1853"/>
<path d="M40.7138 47.1859C40.8166 46.8694 40.9195 46.5556 41.0223 46.2392C41.0698 46.0968 41.1199 45.9544 41.3045 45.9464C41.5023 45.9359 41.5418 46.0915 41.5893 46.226C41.6974 46.5424 41.8003 46.8615 41.9295 47.2545C42.2064 46.9301 42.2248 46.5714 42.3488 46.2603C42.42 46.0809 42.4806 45.8726 42.7338 45.9491C43.0081 46.0335 42.8287 46.2339 42.7866 46.3631C42.6336 46.8642 42.4569 47.3599 42.2829 47.8557C42.2275 48.0113 42.1853 48.1986 41.9664 48.1906C41.7449 48.1854 41.7317 47.9823 41.6658 47.8346C41.5418 47.5525 41.5207 47.2281 41.2702 46.9143C41.1515 47.2518 41.054 47.5445 40.9432 47.8294C40.8852 47.977 40.8746 48.1748 40.6478 48.1906C40.4158 48.2065 40.3841 48.0192 40.3287 47.8663C40.1441 47.352 39.9595 46.8378 39.7881 46.3209C39.7459 46.197 39.6431 46.0229 39.8567 45.9491C40.0545 45.8805 40.1732 45.9939 40.2364 46.1785C40.3498 46.5134 40.4632 46.8457 40.5793 47.1806L40.7164 47.1859H40.7138Z" fill="#0D1853"/>
<path d="M40.3759 42.6634C40.3759 42.9719 40.3759 43.2805 40.3759 43.589C40.3759 43.7235 40.3364 43.8474 40.1781 43.8606C39.9909 43.8764 39.9092 43.7578 39.9092 43.589C39.9039 42.9983 39.9039 42.4102 39.9065 41.8195C39.9065 41.7087 39.9461 41.6032 40.0595 41.569C40.2282 41.5189 40.3364 41.627 40.4313 41.7456C40.7214 42.1043 41.0115 42.4629 41.3517 42.8822C41.5231 42.5131 41.4123 42.1729 41.4677 41.8617C41.4967 41.7087 41.5284 41.5531 41.7235 41.5716C41.887 41.5874 41.8949 41.7351 41.8949 41.8617C41.8975 42.4313 41.8975 42.9983 41.8949 43.5679C41.8949 43.6945 41.8896 43.829 41.7235 43.8606C41.5785 43.887 41.4835 43.8 41.4018 43.6998C41.1117 43.3437 40.8242 42.9825 40.5368 42.6212L40.3733 42.6634H40.3759Z" fill="#0D1853"/>
<path d="M43.9467 47.0883C43.9467 46.8377 43.9415 46.5846 43.9467 46.3341C43.952 46.1706 43.9362 45.978 44.1709 45.9517C44.4161 45.9253 44.4478 46.1073 44.4399 46.2787C44.4241 46.6373 44.5427 46.8087 44.9409 46.8114C45.3523 46.814 45.5158 46.6584 45.5053 46.2629C45.5 46.0835 45.558 45.92 45.7927 45.949C45.9905 45.9728 46.0037 46.1336 46.0063 46.2787C46.0142 46.7613 46.0195 47.2439 46.0063 47.7265C46.0011 47.9163 46.0617 48.2011 45.7321 48.188C45.4578 48.1774 45.5105 47.9242 45.4974 47.7502C45.4736 47.4733 45.4974 47.2096 45.0807 47.199C44.6535 47.1858 44.3845 47.2597 44.4346 47.7713C44.4504 47.9374 44.49 48.1853 44.1999 48.1932C43.9098 48.1985 43.9494 47.9638 43.9415 47.7845C43.9309 47.555 43.9415 47.323 43.9415 47.0909L43.9467 47.0883Z" fill="#0D1853"/>
<path d="M39.0916 35.2635C39.2182 35.4956 39.2023 35.7171 39.1364 35.965C38.9228 36.0837 38.6116 35.2609 38.4771 36.0072C38.4428 36.1971 38.369 36.4713 38.5958 36.5821C38.8305 36.6955 39.0837 36.6111 39.3052 36.4555C39.4581 36.3474 39.4449 36.0995 39.6638 36.0494C39.8221 36.7983 39.8062 36.8221 39.1179 36.8274C38.6564 36.83 38.1976 36.8274 37.7229 36.8274C37.9866 36.0178 37.9761 35.2503 37.7704 34.4091C38.2661 34.4091 38.7804 34.3959 39.2946 34.4144C39.7983 34.4328 39.6058 34.7888 39.6111 35.1422C39.2577 34.8653 39.0283 34.3432 38.5536 34.6781C38.3716 34.8073 38.4086 35.137 38.5193 35.3295C38.7039 35.6486 38.8911 35.2293 39.0916 35.2635Z" fill="#0D1853"/>
<path d="M45.2019 43.2724C45.2784 43.6574 45.0463 43.8262 44.6903 43.8895C44.1181 43.9897 43.5801 43.937 43.232 43.4043C42.9445 42.9639 42.9314 42.4734 43.2267 42.0356C43.5748 41.5187 44.1102 41.4291 44.685 41.5504C44.8855 41.5926 45.1597 41.6664 45.0833 41.9354C44.991 42.2545 44.7747 41.9697 44.627 41.9433C44.2684 41.88 43.9493 41.9064 43.7146 42.2097C43.4878 42.505 43.4852 42.8347 43.6592 43.159C43.8016 43.4254 44.0337 43.5493 44.3343 43.5335C44.4583 43.5282 44.5927 43.523 44.6587 43.3885C44.7114 43.283 44.6956 43.1801 44.6086 43.1036C44.4978 43.0061 44.2341 42.9744 44.4134 42.7503C44.5268 42.6079 44.7272 42.6738 44.8934 42.6738C45.107 42.6738 45.1887 42.8004 45.194 42.9955C45.194 43.0799 45.194 43.1643 45.194 43.2724H45.2019Z" fill="#0D1853"/>
<path d="M37.2139 47.0805C37.2139 47.3337 37.2192 47.5868 37.2139 47.84C37.2087 48.0061 37.2192 48.1934 36.9687 48.1934C36.7181 48.1934 36.7287 48.014 36.7155 47.8453C36.6918 47.5526 36.821 47.1886 36.2883 47.1939C35.8875 47.1965 35.6343 47.2572 35.6765 47.7372C35.6923 47.927 35.7345 48.2092 35.3996 48.1855C35.1148 48.1644 35.186 47.9112 35.1833 47.7424C35.1728 47.2572 35.1781 46.772 35.1833 46.2894C35.1833 46.118 35.1992 45.936 35.447 45.9518C35.6448 45.965 35.6844 46.118 35.6738 46.2683C35.6422 46.6797 35.8215 46.8168 36.2303 46.8142C36.6364 46.8142 36.7445 46.6348 36.7208 46.2762C36.7102 46.0969 36.7472 45.9281 36.9924 45.9492C37.2403 45.9676 37.2139 46.1628 37.2166 46.3263C37.2245 46.5795 37.2166 46.8326 37.2166 47.0858L37.2139 47.0805Z" fill="#0D1853"/>
<path d="M30.0414 35.7039C30.4607 35.5931 30.7455 35.5825 31.0224 35.6748C31.1094 35.812 30.9644 35.8621 30.9406 35.9544C30.7244 36.8273 30.5424 36.9618 29.7645 36.8484C29.1052 36.7508 28.7096 36.255 28.7413 35.5641C28.7703 34.9022 29.2318 34.4196 29.8884 34.3668C30.0335 34.3563 30.1838 34.3985 30.3262 34.3826C30.909 34.3167 30.9723 34.6042 30.8299 35.0657C30.7666 35.0551 30.7112 35.063 30.6901 35.0393C30.4528 34.7756 30.2418 34.4275 29.8119 34.5963C29.3953 34.7624 29.3425 35.158 29.3373 35.5456C29.332 35.9728 29.361 36.4001 29.8093 36.6295C29.9913 36.7218 30.2286 36.7376 30.3209 36.553C30.4607 36.2656 30.4976 35.9438 30.0387 35.7012L30.0414 35.7039Z" fill="#0D1853"/>
<path d="M49.0046 42.6791C49.0046 42.6158 49.0046 42.5525 49.0046 42.4892C49.0046 41.5557 49.3659 41.2867 50.2651 41.5398C50.3706 41.5688 50.4708 41.5952 50.4814 41.7244C50.4946 41.8932 50.3706 41.9328 50.2414 41.9486C50.1175 41.9644 49.9909 41.9618 49.8643 41.9723C49.7113 41.9829 49.5531 42.0119 49.5505 42.2044C49.5478 42.3995 49.7061 42.418 49.859 42.4444C50.0278 42.4734 50.31 42.3969 50.2941 42.6632C50.2783 42.9111 49.9988 42.8268 49.8274 42.8531C49.6296 42.8848 49.5215 42.9718 49.5294 43.1801C49.5399 43.4043 49.6929 43.4491 49.8748 43.4597C49.9592 43.4649 50.0436 43.4597 50.1254 43.4676C50.2836 43.486 50.4998 43.4412 50.4814 43.6996C50.4682 43.9001 50.281 43.8763 50.1386 43.8895C50.0753 43.8948 50.012 43.8895 49.9487 43.8948C49.3193 43.9106 49.0037 43.6109 49.002 42.9955C49.002 42.89 49.002 42.7846 49.002 42.6817L49.0046 42.6791Z" fill="#0D1853"/>
<path d="M34.0915 35.1237C33.7328 34.7572 33.448 34.264 32.9206 34.744C32.5303 35.0973 32.5514 36.1496 32.9338 36.5003C33.1158 36.6664 33.3399 36.7719 33.5641 36.6216C33.7961 36.466 33.7038 36.2128 33.6907 35.9808C33.6827 35.8674 33.2924 35.7329 33.6801 35.6432C33.8884 35.5958 34.1759 35.514 34.3157 35.7514C34.4976 36.0625 34.1126 36.7561 33.7408 36.8194C33.2028 36.9117 32.6674 36.9117 32.3062 36.4133C31.9792 35.965 31.9607 35.4665 32.2218 34.9813C32.5119 34.4433 33.005 34.351 33.572 34.3669C34.0625 34.3827 34.3526 34.4855 34.0941 35.1237H34.0915Z" fill="#0D1853"/>
<path d="M18.1104 42.6605C18.1104 42.5972 18.1104 42.534 18.1104 42.4707C18.1104 41.5556 18.4849 41.284 19.3841 41.5398C19.4923 41.5688 19.5898 41.5951 19.6004 41.7244C19.6136 41.8931 19.4949 41.9353 19.363 41.9485C19.2787 41.9564 19.1943 41.9485 19.1099 41.9591C18.9358 41.9802 18.6853 41.8747 18.6431 42.1463C18.5956 42.4786 18.8804 42.4179 19.0756 42.4496C19.2154 42.4733 19.4105 42.4496 19.3894 42.6632C19.371 42.8636 19.1784 42.832 19.0413 42.8451C18.8224 42.8636 18.6141 42.8715 18.6246 43.1827C18.6378 43.5202 18.8884 43.4306 19.0809 43.4622C19.2681 43.4912 19.5793 43.362 19.5872 43.6706C19.5951 43.9897 19.2787 43.8868 19.0941 43.8868C17.8757 43.8868 18.1421 43.9817 18.1104 42.6605Z" fill="#0D1853"/>
<path d="M31.3967 42.6659C31.3967 42.6026 31.3967 42.5393 31.3967 42.476C31.3967 41.553 31.7554 41.2893 32.6626 41.5372C32.768 41.5662 32.8709 41.5873 32.8788 41.7191C32.8893 41.8484 32.805 41.909 32.6916 41.9275C32.5676 41.9459 32.441 41.9486 32.3145 41.9644C32.1536 41.9829 31.9453 41.9512 31.9294 42.1886C31.9136 42.4312 32.114 42.4233 32.2802 42.4523C32.4331 42.4786 32.6784 42.418 32.6731 42.6553C32.6652 42.8979 32.4252 42.8215 32.2723 42.8294C32.0586 42.8399 31.9031 42.8821 31.911 43.1485C31.9189 43.4175 32.0929 43.4438 32.2934 43.4544C32.3988 43.4597 32.5043 43.4597 32.6098 43.4702C32.7364 43.4834 32.8762 43.4966 32.8841 43.6627C32.892 43.8763 32.7232 43.8737 32.5782 43.8869C32.5571 43.8869 32.536 43.8869 32.5149 43.8895C31.7712 43.9616 31.3994 43.5537 31.3994 42.6659H31.3967Z" fill="#0D1853"/>
<path d="M53.6276 48.1536C52.8391 48.3778 52.7336 47.5313 52.2352 47.3598C52.2088 47.3941 52.1772 47.4205 52.1614 47.4548C52.0638 47.6974 52.3249 48.1668 51.9082 48.1668C51.4151 48.1668 51.6919 47.6816 51.6524 47.4179C51.6023 47.0882 51.6313 46.7454 51.6445 46.4105C51.6524 46.2206 51.5627 45.9437 51.9029 45.9463C52.1983 45.9463 52.1244 46.1916 52.1455 46.3656C52.1587 46.4685 52.164 46.5713 52.1745 46.6926C52.6861 46.6003 52.7494 45.7934 53.4114 45.9542C53.3955 46.0307 53.4008 46.0993 53.3692 46.1388C52.905 46.7313 52.9244 47.3106 53.4272 47.8767C53.4931 47.9506 53.5432 48.0376 53.625 48.151L53.6276 48.1536Z" fill="#0D1853"/>
<path d="M15.3472 42.6949C15.3472 42.6105 15.3472 42.5261 15.3472 42.4444C15.3472 41.5188 15.5766 41.3421 16.46 41.5715C16.8556 41.6744 17.0903 41.917 17.0639 42.3336C17.0402 42.7424 16.8108 43.0219 16.3888 43.014C15.9774 43.0061 15.8113 43.1564 15.8456 43.5625C15.8588 43.7129 15.8113 43.8684 15.6109 43.8658C15.3762 43.8658 15.3551 43.6891 15.3524 43.5124C15.3472 43.2408 15.3524 42.9665 15.3524 42.6949H15.3498H15.3472Z" fill="#0D1853"/>
<path d="M51.2938 35.034C50.9826 34.8521 50.8507 34.4591 50.4578 34.5936C50.3286 34.6384 50.2416 34.7466 50.26 34.8863C50.3128 35.303 50.7083 35.2793 50.9747 35.4058C51.3439 35.5825 51.5522 35.8278 51.4573 36.2497C51.3676 36.6585 51.0828 36.8352 50.682 36.8668C49.8381 36.9327 49.7089 36.822 49.8724 36.1047C50.0649 36.284 50.2257 36.4686 50.4209 36.6031C50.645 36.7561 50.8771 36.706 51.0169 36.466C51.154 36.226 51.009 36.0625 50.8006 35.9596C50.5923 35.8568 50.3708 35.7856 50.1651 35.6827C49.8935 35.5456 49.7616 35.3162 49.8091 35.0103C49.8565 34.7176 50.0174 34.5145 50.3101 34.4169C50.9562 34.2007 51.3782 34.4327 51.2964 35.0366L51.2938 35.034Z" fill="#0D1853"/>
<path d="M22.5491 36.7798C22.7706 36.0045 22.7073 35.2477 22.5992 34.446C23 34.3431 23.4589 34.4302 23.9125 34.4038C24.4979 34.3695 24.4821 34.6991 24.3634 35.1765C24.0496 34.8811 23.8334 34.4011 23.3798 34.6517C23.1345 34.7862 23.1741 35.1791 23.3218 35.398C23.5011 35.667 23.6593 35.3083 23.8755 35.2609C23.9916 35.4824 23.9441 35.7013 23.9257 35.9228C23.6883 36.0599 23.4958 35.4903 23.3033 35.8621C23.1424 36.1759 23.2374 36.5082 23.5512 36.7746C23.1767 36.8484 22.8497 36.859 22.5491 36.7798Z" fill="#0D1853"/>
<path d="M33.2135 48.2698C32.6992 48.2382 32.2588 48.0641 32.061 47.5499C31.8632 47.0383 31.9292 46.5451 32.3485 46.1654C32.7599 45.7909 33.2504 45.7566 33.762 45.9518C33.9281 46.0151 34.0837 46.1285 34.0072 46.3236C33.9149 46.5583 33.762 46.3526 33.6459 46.3236C33.2794 46.2313 32.9286 46.2076 32.6702 46.5399C32.4434 46.8326 32.4329 47.1728 32.6096 47.4866C32.7994 47.8241 33.1238 47.8663 33.4851 47.8321C33.6565 47.8162 33.9202 47.4971 33.994 47.8373C34.0626 48.1538 33.704 48.1802 33.464 48.2355C33.3822 48.254 33.2978 48.2593 33.2135 48.2698Z" fill="#0D1853"/>
<path d="M52.5176 36.1101C52.8182 36.176 52.8709 36.4503 53.0661 36.5663C53.3192 36.714 53.5592 36.7509 53.7227 36.4767C53.8836 36.2103 53.7069 36.0442 53.4748 35.9334C53.3034 35.8543 53.1241 35.7936 52.9501 35.7172C52.6204 35.5721 52.4648 35.3242 52.5334 34.9603C52.5993 34.6017 52.8367 34.4276 53.1848 34.3749C53.881 34.2694 54.0735 34.4092 53.9944 34.9761C53.7517 34.9603 53.7016 34.6887 53.5065 34.6096C53.3087 34.5305 53.1294 34.5305 53.0081 34.7282C52.8788 34.9366 52.9764 35.0948 53.1689 35.1924C53.3562 35.2873 53.5566 35.3532 53.7491 35.4376C54.0814 35.5827 54.2264 35.8411 54.171 36.1971C54.113 36.5769 53.8915 36.8116 53.5065 36.8432C53.2375 36.867 52.9474 36.8933 52.6943 36.8195C52.2697 36.6982 52.4965 36.3817 52.5149 36.1075L52.5176 36.1101Z" fill="#0D1853"/>
<path d="M24.0336 48.2643C23.4851 48.2406 23.0368 48.0665 22.8496 47.547C22.6702 47.046 22.6992 46.5423 23.1396 46.1573C23.5616 45.7881 24.0495 45.7643 24.5584 45.9516C24.7351 46.0175 24.8696 46.1414 24.7905 46.3313C24.6929 46.566 24.5452 46.3498 24.4292 46.3234C24.0363 46.2285 23.6618 46.2126 23.4113 46.5898C23.224 46.8719 23.2267 47.1937 23.4007 47.4864C23.617 47.845 23.9572 47.8819 24.3422 47.816C24.4872 47.7923 24.7035 47.4917 24.7878 47.8318C24.8564 48.1008 24.5822 48.1562 24.3817 48.209C24.2604 48.2406 24.1338 48.2485 24.0363 48.2643H24.0336Z" fill="#0D1853"/>
<path d="M49.9301 46.2683C49.735 46.2023 49.5056 46.1892 49.4396 46.4028C49.3447 46.7034 49.6532 46.7087 49.8273 46.7852C50.4576 47.0621 50.6685 47.426 50.4417 47.8717C50.2492 48.2488 49.5056 48.3859 49.0863 48.1248C48.9518 48.0404 48.8278 47.9455 48.9201 47.7741C49.0045 47.6159 49.1258 47.7161 49.2445 47.7556C49.4001 47.8084 49.5662 47.8506 49.7297 47.8558C49.8563 47.8611 49.975 47.7952 50.004 47.6449C50.033 47.5025 49.9829 47.3917 49.8537 47.331C49.7218 47.2677 49.5794 47.2256 49.4423 47.1728C49.1443 47.0568 48.9386 46.8643 48.9307 46.5241C48.9254 46.2472 49.0388 46.0388 49.3025 45.9228C49.6163 45.7857 49.917 45.8147 50.2149 45.965C50.3178 46.0177 50.3916 46.118 50.331 46.2208C50.2308 46.3869 50.0725 46.292 49.9328 46.2683H49.9301Z" fill="#0D1853"/>
<path d="M36.3092 41.9011C36.2538 41.8985 36.027 41.8431 35.9795 42.1016C35.94 42.3178 36.1457 42.36 36.3039 42.418C36.441 42.4708 36.5861 42.513 36.71 42.5894C36.9843 42.7609 37.1161 43.0167 37.0449 43.3437C36.9737 43.6707 36.7469 43.8473 36.4278 43.8922C36.0876 43.9423 35.7501 43.9265 35.4943 43.6522C35.4521 43.6074 35.4574 43.4887 35.4837 43.4201C35.5207 43.3226 35.6156 43.3489 35.6973 43.3779C35.8345 43.428 35.9716 43.494 36.1114 43.5151C36.3065 43.5441 36.5096 43.5151 36.5544 43.2751C36.5913 43.0668 36.4226 42.9876 36.2617 42.9217C36.2037 42.898 36.1404 42.8874 36.0797 42.8663C35.6631 42.7187 35.3387 42.4787 35.4916 41.9855C35.6393 41.5082 36.056 41.4687 36.4779 41.5267C36.6573 41.5504 36.9236 41.59 36.892 41.8194C36.8498 42.1332 36.6045 41.9275 36.3092 41.9011Z" fill="#0D1853"/>
<path d="M24.3183 43.9159C24.2312 43.8922 24.0493 43.8526 23.8726 43.792C23.7223 43.7419 23.6036 43.639 23.6695 43.4597C23.7592 43.2144 23.9042 43.4043 24.0255 43.4307C24.1679 43.4597 24.3077 43.5098 24.4501 43.5177C24.6083 43.5256 24.7376 43.4412 24.7745 43.2751C24.8088 43.1248 24.7006 43.0404 24.5899 42.9797C24.4791 42.9217 24.3552 42.8927 24.2391 42.8426C23.7328 42.629 23.5403 42.2466 23.7407 41.8642C23.92 41.524 24.5556 41.3816 24.9248 41.5926C25.0435 41.6612 25.141 41.7403 25.0804 41.888C25.0276 42.0119 24.9169 41.9829 24.8114 41.9539C24.7112 41.9275 24.6083 41.9038 24.5029 41.8959C24.3684 41.888 24.2418 41.9275 24.2022 42.0699C24.16 42.215 24.2523 42.3073 24.3763 42.3626C24.4923 42.4128 24.611 42.4549 24.7296 42.4971C25.1068 42.6395 25.3362 42.8927 25.2571 43.312C25.1727 43.7656 24.8351 43.9027 24.3156 43.9106L24.3183 43.9159Z" fill="#0D1853"/>
<path d="M13.5059 41.5056C13.5903 41.5214 13.7169 41.5293 13.8355 41.5715C13.9753 41.6216 14.1309 41.6902 14.0623 41.8827C14.0017 42.0541 13.8645 41.9776 13.7459 41.946C13.5455 41.8958 13.2817 41.7851 13.1921 42.0409C13.0734 42.3758 13.4189 42.3758 13.6114 42.4602C14.1784 42.7081 14.3867 43.0931 14.1731 43.5256C13.9806 43.9106 13.2448 44.0504 12.8176 43.7867C12.6805 43.7023 12.5644 43.6126 12.6594 43.4359C12.7517 43.2672 12.8756 43.37 12.9785 43.4227C13.1341 43.5019 13.2923 43.5414 13.4663 43.5177C13.6008 43.4992 13.709 43.4307 13.7432 43.2962C13.7802 43.1538 13.701 43.0456 13.5824 42.9876C13.4532 42.9217 13.3081 42.8821 13.171 42.8294C12.7833 42.6817 12.5855 42.4075 12.6805 41.9934C12.7754 41.5926 13.1051 41.5108 13.5085 41.5056H13.5059Z" fill="#0D1853"/>
<path d="M21.1672 46.2655C20.922 46.2128 20.7137 46.1943 20.6556 46.437C20.6029 46.6585 20.8218 46.6954 20.9695 46.764C21.0829 46.8167 21.2094 46.8457 21.3202 46.9011C21.6182 47.0461 21.7632 47.294 21.7237 47.6184C21.6788 47.9744 21.4521 48.1801 21.096 48.2249C20.7559 48.2671 20.4157 48.2645 20.1519 48.0034C20.1098 47.9612 20.1177 47.8425 20.1388 47.7687C20.1678 47.6659 20.2627 47.679 20.3445 47.7107C20.4631 47.7555 20.5765 47.8162 20.6978 47.8399C20.9088 47.8768 21.1541 47.8927 21.2253 47.6342C21.2938 47.3916 21.0591 47.3309 20.8903 47.2518C20.7189 47.1727 20.5317 47.12 20.3787 47.0145C20.1493 46.8536 20.0887 46.6057 20.1519 46.3394C20.2258 46.0282 20.471 45.9095 20.7506 45.8542C21.0301 45.7988 21.2965 45.8542 21.5206 46.044C21.5945 46.1047 21.5839 46.2023 21.5259 46.2708C21.3888 46.4343 21.2543 46.2365 21.1672 46.2682V46.2655Z" fill="#0D1853"/>
<path d="M63.0184 41.5266C63.1239 41.5266 63.2294 41.5134 63.3322 41.5292C63.5643 41.5662 63.9308 41.3974 63.9994 41.6954C64.0812 42.0514 63.6882 41.9195 63.501 41.9828C63.2505 42.0672 63.2927 42.2676 63.2874 42.447C63.2768 42.8241 63.2821 43.2012 63.2768 43.5783C63.2768 43.7418 63.2215 43.8684 63.0263 43.8631C62.8312 43.8578 62.7863 43.726 62.7837 43.5651C62.7784 43.2935 62.7811 43.0192 62.7758 42.7476C62.7705 42.3626 62.8865 41.9011 62.2431 41.9222C62.1376 41.9248 62.0453 41.8536 62.0532 41.7218C62.0611 41.5925 62.1534 41.5424 62.2642 41.5398C62.5147 41.5345 62.7679 41.5398 63.0184 41.5398V41.5266Z" fill="#0D1853"/>
<path d="M21.7443 42.4206C21.9262 42.1595 22.0976 41.9011 22.2849 41.6559C22.3851 41.524 22.546 41.495 22.6778 41.5847C22.8281 41.6875 22.6989 41.8114 22.6383 41.9064C22.306 42.4338 21.8761 42.9138 21.9605 43.61C21.9763 43.7366 21.8999 43.8552 21.7443 43.8658C21.5913 43.8763 21.4832 43.784 21.4937 43.6495C21.5491 42.9612 21.1456 42.4707 20.8002 41.9486C20.729 41.8431 20.5628 41.698 20.7553 41.5794C20.9162 41.4792 21.0692 41.5583 21.1905 41.7086C21.3698 41.9328 21.4515 42.2334 21.7416 42.4206H21.7443Z" fill="#0D1853"/>
<path d="M54.7219 45.9309C55.0067 45.952 55.0806 46.2315 55.2019 46.4346C55.4023 46.7747 55.5685 46.7985 55.7531 46.4346C55.79 46.3607 55.848 46.2948 55.8902 46.2236C56.0036 46.0337 56.1724 45.8175 56.3833 45.9572C56.6576 46.1418 56.3464 46.3132 56.2594 46.4636C56.0009 46.9145 55.6212 47.3074 55.703 47.8955C55.724 48.0458 55.6739 48.1935 55.4682 48.1935C55.3153 48.1935 55.2072 48.1065 55.2256 47.9694C55.3285 47.2652 54.8723 46.7879 54.5505 46.2552C54.445 46.0785 54.4108 45.9361 54.7219 45.9309Z" fill="#0D1853"/>
<path d="M60.0224 42.6922C60.0224 42.3994 60.0171 42.1067 60.0224 41.814C60.0251 41.6769 60.091 41.5714 60.2413 41.5582C60.4364 41.5397 60.4997 41.6663 60.505 41.8272C60.5156 42.141 60.5393 42.4575 60.5103 42.766C60.4655 43.2565 60.6105 43.5308 61.159 43.4727C61.312 43.4569 61.5388 43.4226 61.5309 43.6784C61.5256 43.9211 61.3067 43.8736 61.1458 43.8868C61.0825 43.892 61.0193 43.8868 60.9586 43.8868C60.3239 43.8973 60.0066 43.5809 60.0066 42.9374C60.0066 42.853 60.0066 42.7713 60.0066 42.6869H60.0171L60.0224 42.6922Z" fill="#0D1853"/>
<path d="M30.1356 45.9174C30.2411 45.9174 30.3466 45.9068 30.4521 45.9174C30.6683 45.9464 31.0243 45.8066 31.0744 46.0466C31.1509 46.4079 30.758 46.2444 30.576 46.313C30.3598 46.3947 30.394 46.574 30.3888 46.7349C30.3809 47.1146 30.3861 47.4944 30.3782 47.8715C30.3782 48.0192 30.3703 48.1748 30.162 48.1906C29.922 48.2091 29.8851 48.0561 29.8824 47.8689C29.8798 47.5735 29.8745 47.2781 29.8798 46.9828C29.8851 46.6189 29.9378 46.2312 29.3682 46.276C29.2601 46.2839 29.1572 46.218 29.1572 46.0914C29.1572 45.9569 29.2733 45.9279 29.3787 45.9227C29.6319 45.9147 29.8851 45.9227 30.1382 45.9227V45.9121L30.1356 45.9174Z" fill="#0D1853"/>
<path d="M36.4576 36.7878C36.1464 36.8537 35.8353 36.8432 35.5188 36.7984C35.8695 36.023 35.7087 35.2425 35.6401 34.4329H36.4128C36.1939 35.224 36.1913 36.002 36.455 36.7852L36.4576 36.7878Z" fill="#0D1853"/>
<path d="M46.4577 42.6976C46.4577 42.426 46.4577 42.1543 46.4577 41.8827C46.4577 41.7007 46.4946 41.5399 46.7319 41.5557C46.9324 41.5689 46.9508 41.7192 46.9534 41.8695C46.9587 42.2044 46.9772 42.5394 46.9534 42.8743C46.9271 43.2751 47.0194 43.523 47.4914 43.4887C47.6576 43.4782 47.9397 43.4307 47.9213 43.7023C47.9055 43.9555 47.6338 43.879 47.4598 43.8896C46.4524 43.9397 46.4524 43.937 46.4524 42.9481C46.4524 42.8637 46.4524 42.782 46.4524 42.6976H46.455H46.4577Z" fill="#0D1853"/>
<path d="M26.3995 42.6791C26.3995 42.4075 26.3942 42.1359 26.3995 41.8643C26.4047 41.7113 26.4417 41.5636 26.6342 41.5531C26.824 41.5425 26.8979 41.6718 26.8979 41.8326C26.9058 42.4181 26.9058 43.0035 26.8979 43.5863C26.8979 43.7472 26.824 43.8764 26.6342 43.8659C26.4417 43.8553 26.4021 43.7076 26.3968 43.5547C26.3889 43.262 26.3968 42.9692 26.3968 42.6765L26.3995 42.6791Z" fill="#0D1853"/>
<path d="M31.6098 38.639H40.9584V38.6864H31.6045L31.6098 38.639Z" fill="#0D1853"/>
<path d="M38.2184 42.6553C38.2184 42.3837 38.2131 42.1094 38.2184 41.8378C38.221 41.7086 38.2501 41.5767 38.4136 41.5635C38.5665 41.5504 38.6562 41.6506 38.6588 41.7877C38.6694 42.3969 38.6694 43.0034 38.6614 43.6126C38.6614 43.7418 38.5929 43.8605 38.432 43.8552C38.2685 43.8526 38.2237 43.7313 38.221 43.5994C38.2131 43.2856 38.221 42.9691 38.2184 42.6553Z" fill="#0D1853"/>
<path d="M52.1898 8.88685C53.0627 8.88422 53.0653 8.8974 52.7647 9.54877C52.6064 9.8916 52.4825 10.2503 52.3401 10.5984C52.2794 10.7487 52.1739 10.8647 52.0025 10.775C51.8548 10.6986 51.9208 10.5588 51.9656 10.4428C52.0342 10.2661 52.0948 10.0867 52.1819 9.91797C52.377 9.54877 52.6354 9.16639 51.8707 9.23232C51.7916 9.24023 51.6993 9.20595 51.6861 9.1031C51.6676 8.97124 51.7546 8.91322 51.868 8.90268C52.0131 8.88949 52.1608 8.88685 52.1898 8.88422V8.88685Z" fill="#0D1853"/>
<path d="M47.7257 47.0856C47.7257 47.3784 47.7309 47.6711 47.7257 47.9612C47.723 48.1009 47.6466 48.1906 47.491 48.1906C47.3354 48.1906 47.2536 48.1036 47.251 47.9638C47.2431 47.381 47.2431 46.7956 47.2457 46.2101C47.2457 46.0413 47.3354 45.9359 47.52 45.9464C47.6835 45.957 47.723 46.0783 47.7257 46.2075C47.7336 46.5002 47.7257 46.7929 47.7257 47.083H47.723L47.7257 47.0856Z" fill="#0D1853"/>
<path d="M40.5126 31.9696C40.5126 32.0936 40.51 32.2202 40.5126 32.3441C40.5153 32.4549 40.5126 32.563 40.3729 32.5735C40.2489 32.5815 40.1804 32.5182 40.2041 32.381C40.2252 32.2545 40.2331 32.1094 40.0696 32.0804C39.8534 32.0408 39.8455 32.2123 39.8375 32.3626C39.8323 32.4892 39.7426 32.6026 39.6556 32.534C39.3549 32.3046 39.5791 31.9565 39.5079 31.669C39.4763 31.5345 39.4921 31.4211 39.6767 31.4158C39.8666 31.4106 39.8745 31.5134 39.8507 31.6585C39.8323 31.7666 39.8402 31.8747 39.9852 31.8905C40.0986 31.9011 40.1936 31.8668 40.2094 31.7349C40.2226 31.6057 40.1276 31.4027 40.3834 31.4343C40.6208 31.4633 40.4836 31.6637 40.51 31.7877C40.5232 31.8483 40.51 31.9116 40.51 31.9749H40.5126V31.9696Z" fill="#0D1853"/>
<path d="M46.5522 9.91279C46.4704 10.1369 46.7262 10.7118 46.3781 10.7066C45.9008 10.6987 46.2199 10.1343 46.1381 9.82576C46.0907 9.64907 46.1988 9.4381 46.0617 9.27987C45.8718 9.05836 46.0221 8.98979 46.2014 8.93177C46.3913 8.87112 46.5416 8.90804 46.5522 9.14538C46.5601 9.37745 46.5522 9.60688 46.5522 9.91542V9.91279Z" fill="#0D1853"/>
<path d="M42.1059 32.4549C41.7209 32.6263 41.3438 32.7423 41.1961 32.4575C41.0616 32.2017 41.0695 31.7402 41.2198 31.5002C41.3622 31.2787 41.7552 31.3763 42.0031 31.5609C41.6497 31.5556 41.6497 31.5556 41.7631 31.9327C41.7789 31.9855 41.7657 32.0936 41.742 32.1015C41.5811 32.1542 41.3781 32.1859 41.5416 32.4153C41.6734 32.5999 41.829 32.3177 42.1059 32.4549Z" fill="#0D1853"/>
<path d="M13.794 10.7407C13.474 10.5544 13.2182 10.5711 13.0266 10.7908C12.9132 10.4005 12.8446 10.0234 13.0503 9.69905C13.1927 9.47225 13.7755 9.67531 13.8019 9.95221C13.8283 10.208 13.6437 10.4638 13.794 10.7407Z" fill="#0D1853"/>
<path d="M36.9954 31.6611C36.7475 31.7877 36.6288 31.3763 36.4574 31.6136C36.2913 31.8483 36.6209 31.8299 36.6657 31.9354C36.7818 32.2096 36.2807 32.2175 36.3625 32.5182C36.3625 32.5208 36.2412 32.5841 36.2016 32.5656C35.9854 32.4681 36.0935 32.265 36.1067 32.1226C36.1278 31.8905 35.9405 31.5609 36.2148 31.4475C36.4337 31.3578 36.7791 31.2761 36.9954 31.6611Z" fill="#0D1853"/>
<path d="M26.3677 9.6489C26.3835 9.96271 25.9325 9.98381 26.0406 10.0023C26.5918 10.0867 25.4236 10.891 26.576 10.6035C26.1672 10.8778 25.9088 10.9094 25.7717 10.7301C25.5765 10.4743 25.6372 10.1157 25.7163 9.82822C25.8086 9.49067 26.1198 9.66736 26.365 9.6489H26.3677Z" fill="#0D1853"/>
<path d="M14.3557 10.7224C14.4585 10.4824 14.6959 10.7382 14.833 10.4587C14.8752 10.3637 14.6932 10.3505 14.6009 10.2978C14.4137 10.1923 14.3003 10.0578 14.3794 9.84158C14.4374 9.68863 14.5745 9.62534 14.7328 9.63061C14.8119 9.63325 14.9306 9.6438 14.9648 9.69654C15.0598 9.83895 14.9253 9.84158 14.8303 9.88114C14.5956 9.97608 14.7539 10.0631 14.8567 10.1106C15.1336 10.2398 15.2813 10.4376 15.0677 10.6987C14.8646 10.9492 14.6009 10.9123 14.353 10.7197L14.3557 10.7224Z" fill="#0D1853"/>
<path d="M20.3735 10.4693C20.2653 10.2451 19.7089 10.2425 19.9515 9.80734C20.0834 9.56736 20.3207 9.57527 20.566 9.71504C20.5712 9.94447 20.3207 9.81525 20.2416 9.97084C20.4104 10.1792 20.9273 10.282 20.6161 10.7013C20.4262 10.9571 20.1519 10.9123 19.904 10.704C20.0201 10.4824 20.3049 10.7673 20.3735 10.4693Z" fill="#0D1853"/>
<path d="M16.6018 9.70172C15.9505 9.95225 16.3197 10.4823 16.0032 10.7988C15.6762 10.4849 16.0981 9.90478 15.4731 9.73864C15.8371 9.58041 16.0955 9.6226 16.6018 9.70172Z" fill="#0D1853"/>
<path d="M24.5795 9.65436C24.9487 9.94972 24.4873 10.6327 25.2863 10.7039C24.9487 10.8648 24.6666 10.9228 24.5532 10.7303C24.3686 10.4086 24.3923 10.0288 24.5769 9.65436H24.5795Z" fill="#0D1853"/>
<path d="M37.8762 31.6717C38.1768 31.3209 38.4221 31.429 38.6357 31.4132C38.7517 31.4053 38.9258 31.3789 38.9468 31.5424C38.9811 31.8062 38.7754 31.5873 38.699 31.64C38.5486 31.7481 38.6515 31.9116 38.6067 32.0409C38.546 32.2123 38.7807 32.5498 38.4643 32.5419C38.1874 32.534 38.3509 32.1964 38.3456 32.0145C38.3377 31.7587 38.3166 31.5741 37.8735 31.6717H37.8762Z" fill="#0D1853"/>
<path d="M11.0983 10.7829C10.8821 9.76764 10.9507 9.63315 11.6943 9.6727C11.3647 9.98125 11.486 10.4612 11.0983 10.7829Z" fill="#0D1853"/>
<path d="M22.0273 9.70714C21.4603 9.89965 21.7899 10.4192 21.5895 10.7699C21.2229 10.5036 21.6897 9.86801 21.0647 9.73879C21.3864 9.59374 21.6791 9.63066 22.0273 9.70978V9.70714Z" fill="#0D1853"/>
<path d="M23.9808 10.7118C23.2318 10.8673 23.1369 10.688 23.3769 9.67273C23.8173 9.89161 23.1659 10.7091 23.9808 10.7118Z" fill="#0D1853"/>
<path d="M19.2471 9.70166C19.4423 10.0445 19.4185 10.3926 19.3078 10.8594C19.0177 10.419 19.1311 10.0603 19.2471 9.70166Z" fill="#0D1853"/>
<path d="M12.2854 10.7462C12.143 10.3954 12.1166 10.0447 12.2854 9.5542C12.4937 10.0421 12.4726 10.3928 12.2854 10.7462Z" fill="#0D1853"/>
<path d="M22.6279 9.72809C22.8178 10.0656 22.7782 10.3953 22.6622 10.7276C22.4617 10.3979 22.5277 10.0604 22.6279 9.72809Z" fill="#0D1853"/>
<path fill-rule="evenodd" clip-rule="evenodd" d="M64.6866 25.5539C64.5709 25.5337 64.4491 25.5124 64.3551 25.3821H64.3578C64.3686 25.3777 64.3794 25.3734 64.3901 25.3691C64.4967 25.3264 64.5973 25.2861 64.6979 25.2502C65.3493 25.0129 65.9321 24.6938 66.1879 23.9897C66.6494 22.7159 65.9321 21.5609 64.4316 21.2813C63.2272 21.0559 62.0108 21.0842 60.7945 21.1125C60.2184 21.1259 59.6424 21.1393 59.0677 21.1257C58.8963 21.1205 58.7169 21.1468 58.7169 21.3868C58.7143 21.6215 58.8857 21.6611 59.0598 21.6611C59.7955 21.6664 59.9432 22.0804 59.9326 22.737C59.8984 24.5698 59.901 26.4053 59.9353 28.2381C59.9485 28.871 59.8219 29.2692 59.0993 29.2613C58.8936 29.2586 58.651 29.2982 58.6906 29.6094C58.7208 29.8517 58.9014 29.847 59.0686 29.8426C59.0906 29.842 59.1124 29.8415 59.1336 29.8415C60.2069 29.8494 61.2829 29.852 62.3588 29.8415C62.4013 29.841 62.4482 29.845 62.4965 29.8492C62.7028 29.867 62.9331 29.8868 62.9416 29.5619C62.9504 29.2811 62.7347 29.2686 62.5374 29.2571C62.4976 29.2548 62.4585 29.2525 62.4221 29.2481C62.045 29.2033 61.7681 29.0635 61.7681 28.631C61.767 28.2796 61.7673 27.9277 61.7676 27.5754C61.768 27.1057 61.7685 26.6355 61.7655 26.1653C61.7628 25.9016 61.8868 25.7829 62.1452 25.775C63.7908 25.7196 64.1441 26.0545 64.2444 27.3573C64.2489 27.408 64.2537 27.4584 64.2586 27.5087C64.2678 27.6049 64.277 27.7007 64.2839 27.7977C64.3973 29.5962 64.6347 29.8335 66.4384 29.9285C66.6034 29.938 66.7697 29.9229 66.9364 29.9078C67.0016 29.9019 67.0668 29.896 67.132 29.8916C67.1453 29.8905 67.1588 29.8896 67.1723 29.8887C67.3267 29.8781 67.4847 29.8672 67.5065 29.6489C67.5355 29.38 67.3456 29.3325 67.1505 29.3061C66.5677 29.2296 66.333 28.8657 66.2749 28.3172C66.2472 28.061 66.204 27.8057 66.1609 27.5503C66.1303 27.3692 66.0997 27.1881 66.0745 27.0065C65.9664 26.2286 65.526 25.7539 64.7665 25.5693C64.7405 25.5633 64.7137 25.5586 64.6866 25.5539ZM61.7657 22.6316V23.4518H61.7683C61.7683 23.5995 61.7678 23.7471 61.7672 23.8948C61.766 24.1902 61.7648 24.4855 61.7683 24.7809C61.7686 24.7937 61.7687 24.8065 61.7688 24.8193C61.7696 24.9493 61.7705 25.0788 61.9266 25.158C62.4171 25.4059 63.8068 25.0921 64.0864 24.6121C64.4793 23.9317 64.4793 23.1881 64.1945 22.4787C63.9466 21.8616 63.3506 21.7772 62.7678 21.7324C61.7815 21.6559 61.7657 21.6717 61.7657 22.6316Z" fill="#0D1853"/>
<path fill-rule="evenodd" clip-rule="evenodd" d="M54.4024 21.0098C51.3538 20.4323 49.0806 22.3759 49.0938 25.551C49.107 29.2614 52.0659 30.6116 54.7425 29.8627C56.876 29.2667 58.0759 27.0462 57.6592 24.57C57.3296 22.6132 56.1692 21.3447 54.4024 21.0098ZM51.4486 22.9561C51.1665 23.7631 51.119 24.6043 51.119 25.4482H51.1216C51.1243 26.4002 51.1796 27.3443 51.5752 28.2304C51.9391 29.0452 52.5905 29.4619 53.4687 29.4593C54.36 29.454 55.0193 29.0083 55.2962 28.1618C55.8737 26.3896 55.8922 24.5938 55.2619 22.8322C54.9323 21.9039 54.1992 21.4872 53.2445 21.5215C52.3769 21.5531 51.773 22.0305 51.4486 22.9561Z" fill="#0D1853"/>
<path fill-rule="evenodd" clip-rule="evenodd" d="M7.55698 29.8478C7.72553 29.8474 7.89417 29.847 8.06302 29.847L8.06566 29.8496C8.23453 29.8496 8.40318 29.85 8.57174 29.8505C8.99282 29.8515 9.41333 29.8526 9.83517 29.847C9.85587 29.8467 9.87715 29.8469 9.89867 29.8472C10.0636 29.8492 10.2417 29.8513 10.265 29.6017C10.2861 29.3459 10.0989 29.2879 9.90638 29.2483C9.32357 29.1297 9.03612 28.7394 8.84625 28.2014C8.38931 26.9036 7.9232 25.6086 7.45711 24.3136C7.13237 23.4113 6.80764 22.5091 6.48602 21.6059C6.35944 21.2526 6.25395 20.9625 5.76872 20.9836C5.32041 21.0047 4.99868 21.0284 4.80353 21.5479C4.19738 23.1664 3.55997 24.7734 2.92249 26.3805C2.7529 26.8081 2.5833 27.2356 2.41429 27.6634L2.41183 27.6697C2.14893 28.3374 1.88447 29.0092 1.11682 29.2747C0.953318 29.3301 0.900575 29.4593 0.919035 29.6254C0.942769 29.8259 1.09309 29.8443 1.2434 29.8443C1.50262 29.8443 1.76214 29.8446 2.02175 29.8449C2.54126 29.8455 3.06117 29.8461 3.5799 29.8443L3.58032 29.8443C3.72788 29.8417 3.88584 29.8389 3.92009 29.6413C3.95701 29.4356 3.84625 29.3485 3.66956 29.2694C2.84941 28.9002 2.83623 28.8607 3.13423 28.0115C3.43662 27.129 4.0581 26.6877 4.99868 26.6877C5.93925 26.6877 6.56689 27.1395 6.88159 28.0432C7.20859 28.982 7.17958 29.0426 6.21967 29.28C6.20255 29.2841 6.18527 29.288 6.16804 29.2918C5.99678 29.3303 5.82939 29.3679 5.85574 29.6123C5.88283 29.856 6.05675 29.8506 6.21545 29.8456C6.24216 29.8448 6.26843 29.8439 6.29351 29.8443C6.71537 29.85 7.13589 29.8489 7.55698 29.8478ZM5.62615 24.3393C5.47848 23.9036 5.33081 23.4678 5.18314 23.0327H5.1805L5.00908 23.0063C4.90157 23.2925 4.79355 23.5786 4.68549 23.8648C4.44897 24.4913 4.2123 25.1182 3.9806 25.7463C3.88039 26.0179 4.05708 26.0707 4.27596 26.0707C4.42411 26.0707 4.57226 26.0695 4.72041 26.0684C5.07595 26.0656 5.4315 26.0629 5.78704 26.0759C6.15096 26.0891 6.15887 25.9098 6.06921 25.6461C5.92153 25.2109 5.77384 24.7751 5.62615 24.3393Z" fill="#0D1853"/>
<path d="M34.6875 13.5467C34.3025 12.9666 34.1364 12.3152 34.0441 11.6374C34.1443 11.5662 34.2656 11.5847 34.3764 11.5583C34.2682 11.5873 34.1469 11.5689 34.052 11.6506C33.8569 11.1997 33.8516 10.7171 33.7909 10.2398C33.7197 9.6807 33.8859 9.40907 34.4924 9.50137C34.975 9.57521 35.1438 9.37479 34.946 8.80517C34.7429 9.38797 34.292 9.35105 33.9729 9.20337C33.5641 9.01614 33.8911 8.56783 33.7461 8.06941C34.1443 8.90274 34.6295 8.19072 35.0172 8.4307C34.6032 8.06941 33.609 8.24082 34.0494 7.2308C34.3342 7.27036 34.6506 7.48397 34.8537 7.08312C34.6163 7.30464 34.3474 7.36266 34.0415 7.24135C34.0995 6.66118 34.2129 6.09684 34.5425 5.60105C34.7403 5.62215 34.9143 5.76719 35.157 5.72236C34.9592 5.5193 34.7271 5.68808 34.5346 5.61424C35.1622 3.65485 36.4492 2.18861 38.042 0.95443C38.1897 0.841034 38.3347 0.814663 38.4956 0.941245C39.9275 2.05148 41.1512 3.32257 41.763 5.0789C41.7445 5.10264 41.7261 5.12637 41.7076 5.15011C41.2804 5.23186 41.2514 5.88323 40.7292 5.83048C40.6686 5.84895 40.6079 5.85158 40.5473 5.84631C40.1807 5.73027 40.12 5.3558 39.9407 5.08945C39.6005 4.59103 39.3157 4.05306 38.8621 3.63375C38.3242 3.14061 38.0182 3.15643 37.5673 3.71814C37.3827 3.95021 37.2561 4.28513 36.8526 4.20338C36.734 4.06097 36.5256 4.05042 36.4623 3.95548C36.5335 4.04778 36.7392 4.07152 36.8685 4.20865C37.0372 4.66224 36.7313 4.94705 36.436 5.13165C36.1459 5.31624 35.9244 4.99451 35.7055 4.82574C36.3832 5.40854 36.3727 5.40591 36.0246 6.31835C34.8141 9.49873 35.3811 12.3864 37.4935 15.0024C38.0842 15.7329 38.5246 15.6986 39.11 14.9365C39.263 14.7387 39.3737 14.4935 39.6849 14.5198C39.8273 14.5963 39.851 14.7598 39.9328 14.8679C39.9249 14.86 39.9091 14.8389 39.9038 14.831C39.8563 14.7044 39.7904 14.5989 39.7007 14.504C39.6902 14.1427 39.7456 13.8263 40.186 13.7656C40.418 13.9713 40.7239 13.6759 40.956 13.8843C40.7345 13.6865 40.4629 13.9449 40.2361 13.7973C40.0119 12.9085 40.9191 11.8458 41.7814 11.9935C42.0372 12.0357 42.1691 12.2229 42.2456 12.4576L42.2719 12.542C41.668 14.7598 40.331 16.4608 38.543 17.8453C38.3716 17.9771 38.2187 18.0061 38.0341 17.8637C36.7841 16.8853 35.6738 15.7909 35.0383 14.2957C35.2387 14.2772 35.3969 14.1058 35.6659 14.1454C35.3943 14.0953 35.244 14.2772 35.0488 14.3089C34.7957 14.1163 34.7139 13.8368 34.6717 13.5415C34.8247 13.4333 34.9987 13.6047 35.062 13.5626C35.0066 13.5995 34.83 13.4386 34.6849 13.5546L34.6875 13.5467Z" fill="white"/>
<path d="M42.549 11.5372C42.5279 11.8906 42.4646 12.2308 42.2774 12.5367H42.2853C42.0558 12.2466 41.8818 11.9302 41.3781 12.062C41.0194 12.1543 40.8638 11.8774 40.9166 11.5109C41.001 10.9307 41.1381 10.3584 41.1856 9.77299C41.2831 8.59419 40.9113 7.49451 40.5922 6.38691C40.5237 6.14957 40.3628 5.91487 40.6371 5.7039L40.6265 5.70917C41.1961 5.83311 41.328 5.16856 41.7763 5.07098L41.7657 5.07626C42.0796 5.31624 42.0848 5.7039 42.2246 6.02826C42.0927 6.12056 42.0453 6.31571 41.8686 6.3289C41.9846 6.29989 42.1191 6.25769 42.2589 6.26824C42.8206 7.58153 42.8285 8.96339 42.7679 10.3532C42.7547 10.6512 42.5912 10.6696 42.3406 10.6432C42.0848 10.6142 41.829 10.4428 41.5653 10.5852C41.5205 10.8489 41.8791 10.7092 41.8686 10.9386C41.8264 10.9623 41.7816 11.0019 41.7262 11.023C41.5891 11.0705 41.3992 11.0863 41.3992 11.2656C41.3992 11.4687 41.6154 11.437 41.742 11.4608C42.0084 11.5109 42.2826 11.5214 42.5542 11.5478L42.5437 11.5425L42.549 11.5372Z" fill="white"/>
<path d="M42.2644 6.2655C42.2539 6.3789 42.2539 6.61888 42.18 6.57404C41.8135 6.34461 41.4786 6.72436 41.1094 6.55295C41.5313 6.46065 41.7133 5.9174 42.2275 6.02552C42.2407 6.10463 42.2513 6.18639 42.2644 6.2655Z" fill="#0D1853"/>
<path d="M42.5594 11.5424C42.4856 11.3578 42.301 11.305 42.1138 11.1837L42.5937 10.9938C42.7098 11.1995 42.6254 11.3683 42.5489 11.5371L42.5594 11.5424Z" fill="white"/>
<path fill-rule="evenodd" clip-rule="evenodd" d="M28.1233 42.6594C28.1248 42.6741 28.1263 42.6887 28.1263 42.7028V43.0192C28.1289 43.9238 28.2001 43.9871 29.1046 43.8789C29.1864 43.8684 29.2708 43.8499 29.3525 43.8315C30.0355 43.668 30.3705 43.1564 30.2492 42.4654C30.1331 41.8088 29.5424 41.4765 28.6089 41.5266C28.0395 41.557 28.084 41.8646 28.1284 42.1712C28.1493 42.3162 28.1703 42.461 28.1263 42.5762C28.1175 42.6008 28.1204 42.6301 28.1233 42.6594ZM28.6381 42.4539C28.6396 42.5393 28.6411 42.625 28.6248 42.7002H28.6274C28.6502 42.779 28.6457 42.8735 28.6412 42.9681C28.6301 43.2028 28.6189 43.4386 29.023 43.4386C29.4924 43.4386 29.7535 43.1828 29.7482 42.6949C29.7456 42.2361 29.4977 42.004 29.0547 41.9829C28.6295 41.9633 28.6337 42.2072 28.6381 42.4539Z" fill="#0D1853"/>
<path fill-rule="evenodd" clip-rule="evenodd" d="M25.8137 47.0592C25.8164 47.7739 26.3306 48.267 27.0716 48.267C27.7837 48.2644 28.3375 47.7317 28.3322 47.046C28.3269 46.3577 27.7678 45.825 27.0611 45.8303C26.3385 45.8356 25.8137 46.3551 25.8137 47.0592ZM27.7735 47.089C27.7735 47.0887 27.7735 47.0885 27.7735 47.0883V47.0909C27.7735 47.0903 27.7735 47.0896 27.7735 47.089ZM27.0721 47.8425C27.5808 47.8451 27.7602 47.5211 27.7735 47.089C27.7677 46.6022 27.5672 46.2892 27.0879 46.2418C26.666 46.1996 26.3205 46.5951 26.3442 47.0725C26.3653 47.526 26.5763 47.8425 27.0721 47.8425Z" fill="#0D1853"/>
<path fill-rule="evenodd" clip-rule="evenodd" d="M47.5652 36.8694C48.2851 36.8589 48.744 36.3683 48.744 35.6009C48.7466 34.8362 48.2798 34.3562 47.5494 34.3615C46.8505 34.3668 46.3547 34.8916 46.3547 35.6273C46.3547 36.3684 46.8532 36.88 47.5652 36.8694ZM48.1452 35.8107C48.1494 35.7608 48.1537 35.7095 48.1588 35.6563C48.1545 35.6066 48.1519 35.5553 48.1493 35.5029C48.1437 35.3943 48.138 35.2815 48.1166 35.1711C48.0533 34.8441 47.9241 34.554 47.5233 34.5646C47.162 34.5751 47.0301 34.8467 46.98 35.1526C46.9246 35.4823 46.9141 35.8225 47.0064 36.1495C47.0908 36.4501 47.2622 36.7033 47.6182 36.6716C47.9347 36.6426 48.0718 36.4026 48.114 36.1099C48.1282 36.0121 48.1365 35.9142 48.1452 35.8107Z" fill="#0D1853"/>
<path fill-rule="evenodd" clip-rule="evenodd" d="M26.5525 36.8641C27.2883 36.8667 27.7366 36.3999 27.7445 35.6246V35.622C27.7524 34.8335 27.3252 34.3799 26.5763 34.3746C25.8379 34.3693 25.3869 34.8361 25.379 35.6062C25.3711 36.3788 25.8247 36.8641 26.5525 36.8641ZM25.9642 35.3799C25.9562 35.4278 25.9486 35.473 25.9408 35.5139C25.9464 35.5818 25.9503 35.6445 25.954 35.7036C25.9624 35.8398 25.9696 35.9563 25.9935 36.0704C26.0647 36.3974 26.2098 36.6901 26.6027 36.6743C26.964 36.6584 27.0642 36.371 27.1381 36.0677C27.2304 35.6853 27.1961 35.3161 27.0695 34.9522C26.9877 34.7175 26.8269 34.5593 26.5579 34.5593C26.2863 34.5566 26.1254 34.7122 26.0542 34.9522C26.0117 35.097 25.9862 35.2489 25.9642 35.3799Z" fill="#0D1853"/>
<path fill-rule="evenodd" clip-rule="evenodd" d="M58.8305 43.8578C58.9202 43.8315 58.9518 43.7523 58.8806 43.5071H58.8833C58.8174 43.3585 58.7499 43.1958 58.6789 43.0246C58.5055 42.6064 58.3109 42.1369 58.0658 41.6954C57.8759 41.3552 57.6412 41.582 57.5251 41.8457C57.2904 42.3837 57.0584 42.9269 56.8368 43.4728C56.8279 43.4952 56.8154 43.5192 56.8025 43.5441C56.7472 43.6509 56.6837 43.7734 56.8527 43.8525C57.003 43.9237 57.1137 43.8341 57.2219 43.7022C57.6834 43.1379 57.9972 43.1379 58.4587 43.7101C58.5668 43.8446 58.6723 43.9053 58.8305 43.8578ZM57.7685 42.9405C57.8889 42.9509 58.0186 42.9622 58.0552 42.7898C58.0448 42.7605 58.0372 42.7278 58.0295 42.6948C58.0042 42.5854 57.9779 42.4717 57.8442 42.4576C57.7221 42.4449 57.689 42.5533 57.6592 42.6512C57.6517 42.676 57.6444 42.7 57.6359 42.7213C57.5937 42.8294 57.6306 42.9296 57.7651 42.9402L57.7685 42.9405Z" fill="#0D1853"/>
<path d="M16.2144 41.9275C16.4307 41.9617 16.5731 42.1041 16.5493 42.3441C16.5282 42.5604 16.3674 42.6553 16.1485 42.6527C15.8848 42.65 15.8584 42.4733 15.8584 42.2703C15.8584 42.0461 15.9375 41.9064 16.2144 41.9275Z" fill="white"/>
<path fill-rule="evenodd" clip-rule="evenodd" d="M48.142 10.8887C47.5302 10.9071 47.2507 10.5247 47.4801 9.96829C47.4872 9.95114 47.4945 9.93443 47.5017 9.91801C47.5528 9.80063 47.5973 9.69835 47.5302 9.55954C47.4089 9.31165 47.4907 9.10068 47.7148 8.96091C47.968 8.80268 48.2396 8.81059 48.4954 8.95563C48.7275 9.09013 48.796 9.30901 48.6853 9.55426C48.6208 9.69758 48.6645 9.79762 48.7183 9.92102L48.7354 9.96038C48.9648 10.501 48.7169 10.8728 48.1394 10.8887H48.142ZM48.4349 10.2901C48.3874 10.4721 48.2767 10.5934 48.0868 10.5802C47.8996 10.567 47.7783 10.4457 47.7914 10.2505C47.8046 10.0554 47.9418 9.96046 48.1316 9.971C48.3241 9.98155 48.427 10.0976 48.4349 10.2901ZM48.0814 9.57795C48.2291 9.59641 48.3056 9.50147 48.324 9.37225H48.3267C48.324 9.23512 48.2528 9.16128 48.1394 9.15073C47.9944 9.13755 47.8968 9.21402 47.8942 9.36434C47.8916 9.48301 47.9733 9.56476 48.0814 9.57795Z" fill="#0D1853"/>
<path fill-rule="evenodd" clip-rule="evenodd" d="M49.6909 10.5721C49.6908 10.5721 49.6907 10.5721 49.6905 10.5722V10.5695C49.6907 10.5704 49.6908 10.5712 49.6909 10.5721ZM49.7819 10.5585C49.7533 10.563 49.7232 10.5679 49.6909 10.5721C49.7203 10.7783 49.8123 10.8333 49.9121 10.8543C50.3973 10.9598 50.7243 10.7726 50.8957 10.3084C51.1093 9.73091 50.9616 9.07163 50.5503 8.91868C50.1573 8.771 49.7749 8.82901 49.6088 9.26414C49.4532 9.67026 49.5692 10.0025 50.036 10.1397C50.0798 10.1521 50.1363 10.1479 50.193 10.1437C50.3172 10.1345 50.4423 10.1252 50.4369 10.29C50.4269 10.5429 50.1885 10.5417 49.9847 10.5406C49.9717 10.5406 49.9589 10.5405 49.9463 10.5405C49.8946 10.5405 49.8417 10.549 49.7819 10.5585ZM50.2366 9.82583C50.4423 9.8311 50.5162 9.68606 50.5346 9.47509C50.5056 9.33005 50.4529 9.16127 50.2419 9.17445C50.0362 9.18764 49.9782 9.3485 49.9861 9.53047C49.9914 9.68869 50.0626 9.82055 50.2366 9.82583Z" fill="#0D1853"/>
<path fill-rule="evenodd" clip-rule="evenodd" d="M77.9524 27.2387C77.2114 27.2466 76.6892 27.7714 76.6813 28.515C76.6708 29.2956 77.1929 29.8468 77.9524 29.8573C78.704 29.8679 79.2657 29.3088 79.2657 28.5467C79.2683 27.774 78.7225 27.2308 77.9524 27.2387ZM79.0655 28.515C79.0417 27.9085 78.567 27.447 77.9684 27.4522H77.9711C77.3434 27.4575 76.9136 27.89 76.9057 28.5255C76.8977 29.2006 77.3276 29.6516 77.9816 29.6463C78.6224 29.641 79.0892 29.1558 79.0655 28.515Z" fill="#0D1853"/>
<path fill-rule="evenodd" clip-rule="evenodd" d="M17.5857 10.0864C17.586 10.108 17.5864 10.1293 17.5864 10.15H17.5891C17.5894 10.1987 17.588 10.2475 17.5866 10.2954C17.5778 10.5975 17.5701 10.8626 18.0163 10.833C18.4013 10.8093 18.6703 10.659 18.665 10.237C18.6597 9.82035 18.3881 9.66739 18.0084 9.63047C17.577 9.5895 17.5817 9.85685 17.5857 10.0864ZM17.8502 10.2465C17.8475 10.4049 17.8446 10.5799 18.0798 10.5851V10.5877C18.2776 10.5561 18.3673 10.44 18.3673 10.2475C18.3646 10.0603 18.2934 9.92315 18.0904 9.90469C17.8495 9.88441 17.85 10.0616 17.8504 10.2182C17.8504 10.2245 17.8504 10.2308 17.8504 10.237C17.8503 10.2401 17.8503 10.2433 17.8502 10.2465Z" fill="#0D1853"/>
<path fill-rule="evenodd" clip-rule="evenodd" d="M26.97 10.0417C26.9704 10.0929 26.9708 10.1441 26.9662 10.1924V10.195C26.9695 10.2471 26.9684 10.3019 26.9672 10.3567C26.962 10.6098 26.9567 10.8618 27.3882 10.8358C27.7705 10.8121 28.0633 10.6618 28.0553 10.2477C28.0474 9.80997 27.7363 9.65174 27.3328 9.63328C26.9665 9.61412 26.9682 9.8271 26.97 10.0417ZM27.4912 10.5827C27.6863 10.5484 27.7601 10.4033 27.7601 10.2135C27.7259 10.0289 27.6362 9.89437 27.4331 9.89437C27.2145 9.89652 27.2206 10.0415 27.2263 10.1765C27.2276 10.2075 27.2289 10.2381 27.2274 10.2662C27.2195 10.4403 27.238 10.6275 27.4912 10.5827Z" fill="#0D1853"/>
<path d="M13.3478 10.1368C13.3109 10.084 13.2555 10.0339 13.2635 9.99964C13.2714 9.95744 13.3347 9.9047 13.3795 9.90207C13.4665 9.89679 13.5324 9.95481 13.5034 10.0445C13.4903 10.0814 13.4138 10.0999 13.3478 10.1368Z" fill="white"/>
<path d="M40.6397 5.70122C40.8269 6.38424 41.0432 7.06198 41.1988 7.75027C41.4598 8.91325 41.4308 10.0815 41.1645 11.2418C41.0827 11.6005 41.0194 11.9143 41.5891 11.8668C42.0242 11.8299 42.2009 12.1596 42.2853 12.5367L41.9398 12.7793C41.6972 12.6079 41.9899 12.534 41.9714 12.4101C41.953 12.2888 41.8818 12.2202 41.7816 12.1859C41.7051 12.1596 41.655 12.1675 41.5996 12.2756C41.3253 12.7977 41.2647 12.7977 40.8849 12.294C40.6661 12.8136 40.4551 13.312 40.2441 13.8104L40.2547 13.7972C40.0015 13.9897 39.8644 14.2613 39.7483 14.5488L39.7589 14.5382C39.4451 14.8758 39.1154 15.2002 38.8201 15.5509C38.4641 15.9728 38.1819 16.0256 37.7626 15.5773C36.9899 14.7519 36.3464 13.8552 35.8981 12.8215C35.7584 12.4971 35.6898 12.0989 35.1096 12.1859C35.4815 11.8431 35.4577 11.5266 35.3786 11.1548C35.0094 9.3932 35.1571 7.66588 35.9034 6.02822C36.1592 5.46652 36.1381 5.16061 35.5553 4.91799C35.3892 4.84943 35.0885 4.77822 35.1914 4.49341C35.2889 4.22443 35.4498 3.87369 35.8137 4.19806C35.9851 4.35101 36.1882 4.42485 36.3807 4.5066C36.299 4.78877 36.0511 4.60417 35.9482 4.74922C36.3649 5.14215 36.4546 5.08677 36.8422 4.1796L36.829 4.19014C37.193 3.81831 37.5621 3.45438 37.9182 3.07727C38.1713 2.80829 38.3638 2.8162 38.6407 3.08782C39.4319 3.86578 40.0727 4.75185 40.6397 5.69858V5.70122Z" fill="#0D1853"/>
<path d="M34.0444 7.24134C34.171 7.07783 34.3846 7.10684 34.5508 7.01454C34.5007 6.82731 34.1262 6.69809 34.3556 6.50294C34.6009 6.29724 34.9094 6.52667 35.1837 6.5926C35.6003 6.69281 35.1599 6.8484 35.1969 6.9407C35.3155 7.23606 35.1995 7.61581 35.0202 7.62372C34.6879 7.63954 34.2501 7.65537 34.0523 7.23079L34.0444 7.24134Z" fill="#0D1853"/>
<path d="M40.748 3.66263C40.6874 4.00546 40.4869 4.19797 40.1599 4.22434C39.8725 4.24807 39.5929 4.06084 39.622 3.81822C39.6641 3.44375 40.0518 3.25124 40.3735 3.18004C40.632 3.12202 40.6794 3.4543 40.748 3.66263Z" fill="#0D1853"/>
<path d="M34.0523 11.648C34.2396 11.1838 34.6984 11.1311 35.1942 10.8647C35.0307 11.2339 34.8672 11.5214 35.4342 11.7297C34.825 11.793 34.4268 11.8431 34.0444 11.6374L34.0523 11.648Z" fill="#0D1853"/>
<path d="M35.054 14.3009C35.3098 13.9792 35.6553 13.8078 36.0271 13.6707C36.2143 13.9317 35.7977 13.9607 35.8821 14.1559C36.0007 14.4301 36.2328 14.0662 36.3989 14.2877C36.2249 14.5989 35.8662 14.6569 35.6157 14.8415C35.3335 14.6227 35.8662 14.4512 35.5841 14.3009C35.4258 14.2165 35.2254 14.3959 35.0435 14.2904L35.054 14.3009Z" fill="#0D1853"/>
<path d="M34.5398 5.61156C34.7534 5.34784 34.9644 5.07358 35.3652 5.27137C35.6421 5.40586 35.8979 5.58782 35.7265 5.93856C35.5656 6.26556 35.2782 6.2471 34.9776 6.11261C34.7429 6.00976 34.6848 5.77506 34.5503 5.59837L34.5424 5.61156H34.5398Z" fill="#0D1853"/>
<path d="M33.9676 10.6273C34.2287 10.3953 34.5662 10.5245 34.7772 10.2687C34.5715 10.0129 34.2471 10.2502 33.9043 9.99442C34.3157 9.87839 34.6242 9.78873 34.9381 9.99178C35.0936 10.092 35.0936 10.2871 35.0251 10.4533C34.9222 10.7012 34.5557 10.7671 33.9649 10.63L33.9676 10.6273Z" fill="#0D1853"/>
<path d="M34.6876 13.5467L34.6665 13.1195C34.9038 13.0404 35.0383 13.3647 35.0331 13.3436C34.9592 12.9243 35.7715 13.2381 35.3996 12.5525C35.7609 12.8637 35.9613 13.1406 35.7873 13.2988C35.4998 13.5572 35.128 13.8605 34.6744 13.5335L34.685 13.5467H34.6876Z" fill="#0D1853"/>
<path d="M41.7787 5.06835C41.6442 5.60896 41.1669 5.87531 40.6289 5.70654C40.6737 5.5404 40.5208 5.30833 40.7502 5.21339C40.9427 5.13164 40.8399 5.46392 41.0509 5.45073C41.0825 4.94968 41.2882 4.72289 41.7787 5.06835Z" fill="#0D1853"/>
<path d="M36.8446 4.18493C36.428 4.22976 36.1722 3.93176 35.9533 3.6786C35.6869 3.37005 36.0271 3.24083 36.2038 3.07733C36.428 3.23292 36.1194 3.55465 36.2539 3.49136C36.5888 3.33577 36.6653 4.15592 36.9765 3.57311C37.111 3.87638 36.7919 3.98187 36.8314 4.19548L36.8446 4.18493Z" fill="#0D1853"/>
<path d="M39.9988 14.8152C40.0199 14.8152 40.041 14.8152 40.0621 14.8152C40.3917 14.8073 40.6422 14.9207 40.6739 15.282C40.6897 15.4745 40.5684 15.5958 40.368 15.5958C39.9592 15.5905 39.8405 15.3374 39.8564 14.9761C39.8142 14.8442 39.8643 14.7915 39.9988 14.8152Z" fill="#0D1853"/>
<path d="M40.2439 13.8157C40.5366 13.6681 40.832 13.581 41.1273 13.8105C41.3067 13.9476 41.4332 14.119 41.3594 14.3484C41.2908 14.5594 41.159 14.7203 40.8557 14.6359C40.8346 14.4196 41.3805 14.1876 40.8768 13.974C40.4918 13.8105 40.5735 14.1902 40.4522 14.3352C40.1516 14.2377 40.3098 13.9819 40.2571 13.8025L40.2465 13.8157H40.2439Z" fill="#0D1853"/>
<path d="M36.3306 15.8411C36.0431 15.667 35.9033 15.5009 35.7979 15.1818C36.2804 15.4165 36.4598 14.8706 36.9028 14.8522C36.8026 15.2873 36.2119 15.3216 36.3332 15.8411H36.3306Z" fill="#0D1853"/>
<path d="M41.2011 4.29022C41.027 4.61986 40.6947 4.72271 40.344 4.80974C40.5471 4.52756 40.8002 4.30868 41.2011 4.29022Z" fill="#0D1853"/>
<path d="M38.2373 1.64277C38.3902 1.64014 38.4931 1.69815 38.5089 1.84056C38.5247 2.00142 38.4482 2.12273 38.2742 2.13328C38.1371 2.14383 38.0368 2.05417 38.0131 1.92495C37.9788 1.7509 38.0896 1.66651 38.2373 1.64014V1.64277Z" fill="#0D1853"/>
<path d="M38.5143 16.8484C38.5064 16.9881 38.4457 17.0831 38.2954 17.0857C38.1293 17.091 38.0185 17.0092 38.0159 16.8378C38.0159 16.7007 38.0976 16.6084 38.24 16.5978C38.4167 16.582 38.4985 16.6822 38.5143 16.8484Z" fill="#0D1853"/>
<path d="M39.9989 14.8151L39.8565 14.976C39.3634 14.9365 39.8908 14.6648 39.759 14.5435L39.7484 14.5541C39.8697 14.6042 39.9726 14.6727 39.9989 14.8151Z" fill="#0D1853"/>
<path d="M42.681 8.93704C42.2934 9.22448 41.7501 8.90539 41.7158 9.58313C41.4891 9.33524 41.4574 9.05043 41.5893 8.96605C41.882 8.77881 42.238 8.81837 42.6837 8.93704H42.681Z" fill="#0D1853"/>
<path d="M41.5891 8.42011C41.4151 7.80303 41.5997 7.68963 42.4884 7.79775C42.2748 8.15376 41.6313 7.84258 41.5891 8.42011Z" fill="#0D1853"/>
<path d="M42.3383 7.13848C42.0482 7.36263 41.737 7.50768 41.228 7.36C41.6579 7.15166 41.977 7.06728 42.3383 7.13848Z" fill="#0D1853"/>
<path d="M41.5891 10.0262C41.9346 9.86266 42.2642 9.89958 42.7336 10.0552C42.251 10.2661 41.9188 10.1211 41.5891 10.0262Z" fill="#0D1853"/>
<path d="M37.9866 12.2335C37.8784 12.0542 37.8521 11.9935 37.8125 11.9487C37.0029 11.0732 37.0055 11.06 38.0472 10.5115C38.1026 10.4825 38.1553 10.4376 38.2133 10.4244C38.5483 10.348 38.8331 9.82318 39.1917 10.1634C39.5556 10.5115 39.3763 11.4266 38.9702 11.7878C38.8647 11.8828 38.717 11.9487 38.7012 12.1544C39.1205 12.31 39.5636 12.2282 39.9934 12.2256C40.4997 12.223 40.5657 12.4155 40.3705 12.8374C39.9222 13.8 39.3315 14.6597 38.5825 15.4139C38.3452 15.6539 38.1922 15.6249 37.9681 15.3981C37.206 14.628 36.6021 13.7525 36.1617 12.7609C35.9929 12.3812 36.0588 12.2151 36.4966 12.2309C36.9528 12.2467 37.4117 12.2335 37.9866 12.2335Z" fill="white"/>
<path d="M40.6319 11.8563C40.2416 11.9328 39.8882 11.9169 39.5296 11.8721C39.9489 11.1126 39.5058 10.4059 39.4267 9.68593C39.403 9.47496 39.2052 9.55671 39.0707 9.62527C38.4747 9.93909 37.8656 10.2318 37.2907 10.5799C36.7527 10.9043 36.9478 11.3948 37.1087 11.8616C36.7606 11.9328 36.4283 11.9169 36.1277 11.88C36.5865 9.98392 36.8529 8.05882 37.2142 6.15217C37.2643 5.8911 37.1219 5.71441 36.8213 5.46124H39.6113C39.1947 6.15481 39.585 6.822 39.6773 7.49447C39.8276 8.57833 40.0623 9.64901 40.2442 10.7276C40.3102 11.1205 40.3893 11.5029 40.6266 11.8589L40.6319 11.8563Z" fill="white"/>
<path d="M35.7294 11.4608C35.2125 9.504 35.4367 7.66856 36.2489 5.88322C36.3017 5.76982 36.3439 5.5483 36.5496 5.66434C36.7473 5.77773 36.953 5.92014 36.9056 6.20495C36.8449 6.55832 36.7763 6.90906 36.7131 7.26244C36.4942 8.48607 36.2806 9.70969 36.0564 10.9333C36.0248 11.11 36.03 11.3183 35.7268 11.4608H35.7294Z" fill="white"/>
<path d="M40.6739 11.3658C40.4049 9.86523 40.1333 8.36734 39.867 6.86681C39.8195 6.60046 39.772 6.32884 39.7536 6.05985C39.7404 5.87261 39.8775 5.74867 40.0384 5.68274C40.2019 5.61417 40.2625 5.76185 40.3126 5.86734C41.1196 7.63949 41.3385 9.46702 40.8612 11.3552L40.6739 11.3658Z" fill="white"/>
<path d="M38.2848 5.09208C37.9262 5.09208 37.5701 5.09999 37.2115 5.0868C37.077 5.08153 36.8898 5.15537 36.8186 4.98396C36.7553 4.831 36.9003 4.71497 36.9768 4.5963C38.0343 2.96391 38.5116 2.96391 39.5796 4.5963C39.6561 4.71497 39.8117 4.83364 39.7458 4.98132C39.6587 5.17119 39.4478 5.08153 39.2948 5.0868C38.9599 5.09999 38.6224 5.09208 38.2848 5.08944V5.09208Z" fill="white"/>
<path d="M39.9145 3.8869C40.0569 3.66801 40.165 3.49133 40.4156 3.54407C40.4419 3.54934 40.4815 3.66274 40.463 3.69966C40.3628 3.90535 40.2178 4.03194 39.9119 3.88953L39.9145 3.8869Z" fill="white"/>
<path d="M35.2837 5.93594C35.1334 5.89638 34.9594 5.85419 34.9145 5.66695C34.8855 5.54564 34.9726 5.46653 35.0939 5.47708C35.289 5.49554 35.4736 5.57201 35.5158 5.78035C35.5369 5.88847 35.4156 5.94385 35.2811 5.93594H35.2837Z" fill="white"/>
<path fill-rule="evenodd" clip-rule="evenodd" d="M78.6641 29.1956C78.6651 29.1956 78.6661 29.1956 78.6672 29.1956L78.6646 29.1982C78.6644 29.1973 78.6642 29.1964 78.6641 29.1956ZM78.6641 29.1956C78.6442 29.0881 78.6137 28.9876 78.5836 28.8884C78.5172 28.6697 78.4529 28.4576 78.509 28.1935C78.5854 27.8374 78.1292 27.8427 77.8444 27.8585C77.8137 27.8603 77.7744 27.8537 77.7327 27.8467C77.592 27.8231 77.424 27.7949 77.4647 28.0695C77.5095 28.3807 77.5332 28.6892 77.4515 28.9978C77.4304 29.0795 77.4251 29.1771 77.5385 29.1903C77.6361 29.2008 77.7574 29.2061 77.8365 29.1613C77.9165 29.1156 77.894 29.0199 77.872 28.9262C77.8432 28.8034 77.8151 28.684 78.0185 28.684C78.1526 28.6853 78.1817 28.7985 78.2125 28.9189C78.2424 29.0351 78.2739 29.1579 78.4035 29.1929C78.4524 29.2052 78.5048 29.2023 78.566 29.199C78.5963 29.1974 78.6288 29.1957 78.6641 29.1956ZM78.1845 28.2382C78.1897 28.1037 78.0948 28.0642 77.984 28.0457C77.868 28.051 77.8522 28.138 77.8522 28.2224C77.8495 28.3411 77.8891 28.436 78.0315 28.4123C78.1212 28.3964 78.1818 28.3331 78.1845 28.2382Z" fill="#0D1853"/>
<path d="M38.1715 13.3147C38.219 13.4993 38.2111 13.705 37.9685 13.7393C37.6995 13.7788 37.6467 13.5494 37.7021 13.3622C37.768 13.1433 37.565 12.753 37.9104 12.724C38.3271 12.6897 38.0608 13.1064 38.1689 13.3121L38.1715 13.3147Z" fill="#0D1853"/>
<path d="M38.9731 13.2117C38.9282 13.4332 38.9784 13.7787 38.6724 13.7286C38.3507 13.6759 38.6434 13.2777 38.4667 13.0614C38.3824 12.9586 38.4826 12.7028 38.7041 12.7318C38.9784 12.7661 38.9414 13.0245 38.9757 13.2144L38.9731 13.2117Z" fill="#0D1853"/>
<path d="M37.2354 12.7556C37.2538 12.7661 37.2828 12.7714 37.2855 12.7872C37.3672 13.101 37.3831 13.4175 37.325 13.7339C37.325 13.7419 37.2222 13.7524 37.2116 13.7339C37.0323 13.4175 37.2486 13.0826 37.0508 12.7608L37.2354 12.7529V12.7556Z" fill="#0D1853"/>
<path d="M39.4002 13.7523C39.2314 13.4122 39.5321 13.1115 39.3237 12.8425C39.3132 12.8294 39.3738 12.7265 39.4107 12.7186C39.5294 12.6975 39.6191 12.7555 39.6244 12.8847C39.6375 13.1775 39.5637 13.4464 39.4028 13.7523H39.4002Z" fill="#0D1853"/>
<path d="M37.1189 10.0709C37.3879 8.65738 37.6226 7.42847 37.8573 6.19693C37.9048 5.94377 38.1025 5.94641 38.2951 5.94113C38.5113 5.93586 38.7249 5.94113 38.7777 6.22067C38.928 7.02499 39.0809 7.82932 39.2286 8.63101C39.2629 8.82352 39.1706 8.94746 39.0071 9.03712C38.4375 9.34567 37.8705 9.65685 37.1215 10.0682L37.1189 10.0709Z" fill="#0D1853"/>
<path d="M38.8779 8.36478C38.8858 8.70497 38.0234 9.39063 37.7439 9.33525C37.5593 9.29833 37.5989 9.14801 37.6173 9.03725C37.7729 8.19073 37.9364 7.34949 38.0999 6.50561C38.1236 6.38166 38.1474 6.24453 38.3135 6.24717C38.4797 6.24981 38.5008 6.40012 38.5219 6.51616C38.6484 7.15434 38.7671 7.79253 38.8752 8.36478H38.8779Z" fill="white"/>
<path fill-rule="evenodd" clip-rule="evenodd" d="M34.4548 31.8749C34.4194 32.1414 34.4514 32.3849 34.6794 32.4925C34.7698 32.5651 34.8846 32.6086 35.0096 32.6086C35.0955 32.6086 35.1766 32.5881 35.2483 32.5517C35.5774 32.4116 35.6233 32.1211 35.5413 31.7931C35.4701 31.5189 35.2539 31.3817 34.9691 31.4081C34.6895 31.4345 34.4918 31.5953 34.4548 31.8749ZM35.0097 32.313C35.1764 32.313 35.3115 32.1759 35.3115 32.0068C35.3115 31.8377 35.1764 31.7006 35.0097 31.7006C34.843 31.7006 34.7078 31.8377 34.7078 32.0068C34.7078 32.1759 34.843 32.313 35.0097 32.313Z" fill="#0D1853"/>
</g>
<defs>
<clipPath id="clip0_1311_45095">
<rect width="80" height="48.6076" fill="white"/>
</clipPath>
</defs>
</svg>
