<svg width="80" height="46" viewBox="0 0 80 46" fill="none" xmlns="http://www.w3.org/2000/svg">
<g clip-path="url(#clip0_1311_46676)">
<path d="M80 35.5122C79.9807 35.559 79.9597 35.6042 79.9403 35.6511C79.7788 36.0774 79.3331 36.3229 78.8792 36.2357C78.4367 36.1501 78.1315 35.7819 78.1299 35.3313C78.1299 34.8872 78.4335 34.5109 78.8566 34.4318C79.3379 34.3413 79.7707 34.5706 79.9371 35.0035C79.958 35.0568 79.9774 35.1101 79.9968 35.165V35.5138L80 35.5122ZM79.8111 35.3297C79.8111 34.8985 79.4768 34.5529 79.0617 34.5545C78.6451 34.5561 78.3059 34.9049 78.3059 35.3281C78.3059 35.756 78.6418 36.0968 79.0617 36.0984C79.4865 36.0984 79.8111 35.7657 79.8111 35.3297Z" fill="#0D1853"/>
<path d="M0.0617676 36.7122C0.489739 36.2277 0.733602 35.698 0.830501 35.1101C0.890256 34.7435 0.917711 34.3656 0.917711 33.9942C0.922556 28.0752 0.922556 22.1563 0.917711 16.239C0.917711 15.8659 0.887026 15.4913 0.846651 15.1198C0.791742 14.6272 0.596328 14.1896 0.231341 13.8133C0.279791 13.8004 0.300786 13.7891 0.323396 13.7891C2.24039 13.7923 4.15899 13.781 6.07598 13.8068C6.95453 13.8197 7.8234 13.9586 8.63735 14.3269C9.67902 14.8 10.2426 15.6285 10.4138 16.738C10.4687 17.0998 10.4881 17.4696 10.4914 17.8362C10.501 19.0362 10.4978 20.2377 10.493 21.4376C10.4914 21.9173 10.4316 22.3889 10.2669 22.8443C10.0343 23.4903 9.58858 23.9441 8.99749 24.2703C8.93612 24.3042 8.87475 24.3382 8.794 24.3834C8.86183 24.4205 8.90867 24.4496 8.96035 24.4738C10.1102 25.0181 10.6448 25.9483 10.6529 27.1983C10.6625 28.844 10.6706 30.4896 10.6593 32.1353C10.6545 32.8249 10.6302 33.5161 10.5624 34.2009C10.5285 34.553 10.4203 34.9131 10.2766 35.2377C9.90673 36.0694 9.19291 36.4651 8.33212 36.5862C7.72811 36.6702 7.11119 36.7041 6.50072 36.709C4.41577 36.7235 2.32921 36.7138 0.244261 36.7138H0.0617676V36.7122ZM4.54982 25.8692V33.9635C4.9148 33.9635 5.26364 33.9683 5.61086 33.9619C5.77882 33.9586 5.94678 33.9441 6.11151 33.9183C6.64446 33.8343 6.90124 33.5969 7.00621 33.0946C7.03205 32.9687 7.05305 32.8395 7.05466 32.7119C7.06597 31.7639 7.07889 30.8159 7.07889 29.8679C7.07889 28.894 7.07404 27.9202 7.05143 26.9464C7.04013 26.4296 6.7349 26.0355 6.23102 25.9645C5.68031 25.8869 5.11668 25.8966 4.54982 25.8692V25.8692ZM4.54336 23.135C5.05531 23.135 5.55918 23.1657 6.0566 23.1269C6.58793 23.0849 6.89639 22.707 6.89962 22.1757C6.90608 20.8659 6.90608 19.5578 6.9077 18.248C6.9077 17.9832 6.90124 17.7199 6.89962 17.4551C6.89801 17.0659 6.70098 16.8155 6.35053 16.6718C6.33276 16.6654 6.315 16.6557 6.29723 16.6508C5.7223 16.478 5.13606 16.5652 4.54497 16.5475V23.135H4.54336Z" fill="#0D1853"/>
<path d="M46.6891 9.08295C47.3093 8.96182 47.8939 8.83747 48.4834 8.73572C48.7466 8.6905 49.0196 8.67435 49.2877 8.67597C49.4782 8.67597 49.5993 8.80678 49.6704 8.98443C49.861 9.46731 49.7576 9.93566 49.3636 10.2861C48.9324 10.6689 48.4075 10.8368 47.8503 10.9176C47.6339 10.9499 47.4127 10.9579 47.1946 10.9579C42.3077 10.9596 37.4191 10.9612 32.5322 10.9579C31.8959 10.9579 31.2902 10.8142 30.746 10.4686C30.4424 10.2764 30.2114 10.0277 30.1307 9.66111C30.0725 9.39464 30.1194 9.14431 30.2356 8.91014C30.3616 8.65659 30.6119 8.62106 30.8542 8.65659C31.3435 8.73088 31.8296 8.83747 32.3174 8.92468C32.5903 8.97313 32.8648 9.01189 33.1701 9.05872V8.82132C33.1701 7.40174 33.1669 5.98217 33.1701 4.56098C33.1717 3.94244 33.2637 3.34167 33.5399 2.77804C34.0163 1.80258 34.8222 1.19858 35.7864 0.773836C36.6988 0.371705 37.6646 0.173061 38.6513 0.0874667C40.1 -0.0385023 41.5389 0.0212523 42.9553 0.387854C43.6255 0.562273 44.2683 0.809366 44.8561 1.18243C46.0674 1.95278 46.6908 3.04774 46.6891 4.49154C46.6891 5.93049 46.6891 7.36944 46.6891 8.81001V9.08133V9.08295Z" fill="#0D1853"/>
<path d="M62.2757 36.0936H57.6746C57.6907 36.058 57.6956 36.0338 57.7117 36.0177C58.1558 35.5154 58.3302 34.9082 58.3819 34.2605C58.4142 33.8568 58.4255 33.4482 58.4255 33.0428C58.4288 27.9379 58.4304 22.8329 58.4223 17.7263C58.4223 17.258 58.3835 16.7815 58.2866 16.3261C58.2172 15.9983 58.0202 15.6963 57.8764 15.3749C57.9087 15.3749 57.9749 15.3749 58.0428 15.3749C59.7595 15.3749 61.4779 15.3636 63.1946 15.3878C63.7388 15.3959 64.2912 15.4589 64.8241 15.5719C66.0418 15.8303 66.7088 16.6459 66.9349 17.8394C66.993 18.1414 67.0124 18.4547 67.014 18.7615C67.0221 20.2263 67.0237 21.6911 67.0124 23.1575C67.0092 23.4644 66.9543 23.7728 66.8994 24.0748C66.8202 24.5189 66.5521 24.8274 66.1532 25.0277C66.1016 25.0535 66.0515 25.0826 65.9885 25.1165C66.0208 25.1423 66.0418 25.1682 66.0693 25.1795C66.8218 25.5251 67.1594 26.1565 67.2466 26.9398C67.295 27.3678 67.3225 27.8006 67.3241 28.2318C67.3338 29.9679 67.3176 31.704 67.3386 33.4401C67.3483 34.2282 67.4226 35.0131 67.7957 35.7334C67.8538 35.8465 67.9217 35.9547 67.9976 36.0855H64.1232C64.1232 36.0031 64.1232 35.9272 64.1232 35.8513C64.1232 33.2819 64.1232 30.714 64.1151 28.1446C64.1151 27.9136 64.0893 27.6811 64.0489 27.4534C63.9359 26.8203 63.6694 26.5344 63.0379 26.4666C62.5857 26.4182 62.1255 26.4569 61.6377 26.4569V26.6572C61.6377 28.9036 61.6297 31.1501 61.6426 33.3949C61.6474 34.1572 61.7104 34.9178 62.0253 35.6284C62.0932 35.7803 62.1836 35.9208 62.2773 36.0919L62.2757 36.0936ZM61.6474 17.8087V23.9182C62.1271 23.9182 62.597 23.9262 63.0654 23.9133C63.2107 23.9101 63.3561 23.8616 63.4982 23.8213C63.7485 23.7502 63.8826 23.5709 63.9213 23.3206C63.9439 23.1817 63.9585 23.038 63.9601 22.8975C63.9649 21.6782 63.9666 20.4589 63.9649 19.2396C63.9649 19.0344 63.9472 18.8277 63.9262 18.6226C63.8858 18.2302 63.6662 17.9879 63.2899 17.8878C62.7505 17.7425 62.203 17.8329 61.649 17.8071L61.6474 17.8087Z" fill="#0D1853"/>
<path d="M23.3833 36.0935H19.4992V35.8464C19.4992 33.3497 19.5025 30.8513 19.496 28.3545C19.496 28.0396 19.4766 27.7214 19.4201 27.413C19.3071 26.8106 19.0519 26.5441 18.4511 26.4779C17.9876 26.4262 17.5128 26.4682 17.0154 26.4682V26.6862C17.0154 28.881 17.0105 31.0742 17.0186 33.2689C17.0218 33.9004 17.0477 34.5351 17.2366 35.1439C17.3368 35.4653 17.4853 35.7722 17.6129 36.0903H13.0474C13.1168 35.9983 13.1701 35.9288 13.2218 35.8594C13.6368 35.3086 13.745 34.6627 13.7886 34.0005C13.8129 33.6081 13.8193 33.214 13.8193 32.8216C13.8209 27.9556 13.8209 23.0897 13.8193 18.2237C13.8193 17.8442 13.8113 17.463 13.787 17.0835C13.7499 16.4731 13.6401 15.882 13.1701 15.3797C13.2815 15.3797 13.3429 15.3797 13.4059 15.3797C15.1355 15.3797 16.8668 15.3684 18.5965 15.3926C19.1343 15.4007 19.6801 15.4637 20.2066 15.5751C21.3985 15.8271 22.0671 16.6184 22.3045 17.7844C22.3707 18.1107 22.3933 18.4498 22.3965 18.7825C22.4062 20.2408 22.4062 21.6992 22.3965 23.1575C22.3949 23.4579 22.3384 23.7599 22.2883 24.057C22.2108 24.5076 21.9443 24.8258 21.539 25.0293C21.4873 25.0551 21.4372 25.0842 21.3742 25.1197C21.4114 25.1488 21.4356 25.1762 21.4679 25.1908C22.1817 25.5218 22.5209 26.1161 22.6194 26.8639C22.6695 27.2531 22.7001 27.6472 22.7018 28.0396C22.7114 29.653 22.7001 31.2663 22.7098 32.8797C22.7131 33.3691 22.7437 33.86 22.7906 34.3461C22.8568 35.0309 22.9941 35.3991 23.3881 36.0951L23.3833 36.0935ZM17.0299 23.9714C17.6113 23.9359 18.1733 23.9311 18.7273 23.86C19.1439 23.8067 19.278 23.6129 19.3264 23.1962C19.3345 23.1252 19.3361 23.0541 19.3361 22.9831C19.3394 22.0545 19.3442 21.1258 19.3442 20.1956C19.3442 19.7369 19.3474 19.2799 19.3313 18.8212C19.3103 18.2366 19.0729 17.9282 18.5254 17.8587C18.0361 17.7973 17.5386 17.8087 17.0283 17.7877V23.9698L17.0299 23.9714Z" fill="#0D1853"/>
<path d="M34.101 25.7125C34.101 27.707 34.1139 29.6999 34.0929 31.6944C34.0864 32.363 34.0364 33.0364 33.933 33.6953C33.7473 34.8646 33.0593 35.6592 31.9434 36.05C30.4673 36.5668 28.9815 36.5619 27.5086 36.0387C26.3184 35.6139 25.653 34.737 25.506 33.4983C25.4156 32.7328 25.3768 31.956 25.3736 31.184C25.3607 27.539 25.3591 23.8924 25.3736 20.2473C25.3768 19.4253 25.4204 18.5952 25.5319 17.7813C25.703 16.5426 26.4395 15.7286 27.6233 15.3378C29.1204 14.8452 30.6191 14.8565 32.0919 15.4315C33.1966 15.8627 33.8038 16.7089 33.9621 17.8636C34.0477 18.4806 34.0881 19.1088 34.0929 19.7322C34.1091 21.7251 34.0994 23.7196 34.0994 25.7141L34.101 25.7125ZM28.5777 25.7092C28.5777 27.5099 28.5745 29.3107 28.5793 31.1098C28.581 31.6637 28.6003 32.2192 28.6294 32.7716C28.6779 33.6727 28.9992 33.9602 29.8826 33.9231C30.4382 33.9004 30.737 33.6776 30.7967 33.122C30.8694 32.4373 30.9001 31.7461 30.9001 31.0581C30.9049 27.3549 30.8952 23.6501 30.8855 19.947C30.8855 19.4705 30.8662 18.9925 30.8371 18.5161C30.7919 17.7748 30.4818 17.4906 29.7437 17.4889C29.7244 17.4889 29.705 17.4889 29.6856 17.4889C29.0235 17.4986 28.7263 17.7344 28.6649 18.395C28.6052 19.0426 28.5826 19.695 28.5777 20.3442C28.5664 22.132 28.5745 23.9198 28.5745 25.706L28.5777 25.7092Z" fill="#0D1853"/>
<path d="M41.0596 36.0952H36.3196C36.4375 35.9191 36.5554 35.7625 36.6523 35.5945C37.0253 34.9566 37.0738 34.2493 37.0738 33.5354C37.077 28.256 37.077 22.9766 37.0722 17.6956C37.0722 17.3161 37.0366 16.9366 36.9979 16.5587C36.9591 16.1856 36.8235 15.8465 36.5828 15.5542C36.5441 15.5073 36.5085 15.4556 36.4569 15.3878H40.8658C40.8658 15.4056 40.8706 15.4233 40.8658 15.4298C40.4216 15.9046 40.3005 16.4973 40.2957 17.1126C40.2795 19.3849 40.2828 21.6556 40.2779 23.9279C40.2779 23.9521 40.286 23.9763 40.3005 24.0619C40.37 23.8697 40.4233 23.7292 40.4717 23.5871C41.2324 21.3762 41.993 19.1653 42.7521 16.9544C42.8958 16.5345 42.9539 16.1016 42.9362 15.6591C42.933 15.5752 42.9281 15.4928 42.9249 15.3943H46.7621C46.7621 15.3943 46.7718 15.4169 46.7669 15.4217C46.1645 16.0693 45.8997 16.8978 45.6058 17.6972C44.9711 19.4269 44.3848 21.1727 43.7808 22.9137C43.5353 23.6194 43.2931 24.3268 43.0557 25.0341C43.0282 25.1181 43.0185 25.2279 43.0476 25.3087C44.1377 28.2706 45.2295 31.2325 46.3309 34.1895C46.4827 34.5997 46.6733 34.9986 46.88 35.383C47.0173 35.6381 47.2175 35.8594 47.3855 36.0903H43.4142C43.4142 35.8126 43.4271 35.538 43.411 35.2651C43.3771 34.6514 43.1494 34.0894 42.9378 33.5193C42.0786 31.2131 41.2308 28.9036 40.378 26.5958C40.3603 26.549 40.3409 26.5022 40.2924 26.4537C40.2876 26.5054 40.2779 26.5555 40.2779 26.6071C40.2779 28.9311 40.2731 31.2551 40.2811 33.5774C40.2811 33.9682 40.3215 34.3639 40.3797 34.7515C40.4556 35.2505 40.6817 35.6898 41.0596 36.0984V36.0952Z" fill="#0D1853"/>
<path d="M77.828 21.6379H74.3364C74.7919 20.7415 74.6497 19.7855 74.6303 18.8472C74.6255 18.5807 74.569 18.3078 74.4963 18.051C74.3897 17.6795 74.1555 17.5213 73.7841 17.5148C73.4159 17.5083 73.1478 17.6601 73.038 18.0106C72.9427 18.3142 72.8668 18.6388 72.8619 18.9554C72.849 19.7273 72.8555 20.5025 72.9072 21.2729C72.9524 21.9722 73.2463 22.6004 73.692 23.135C74.2573 23.8133 74.8694 24.4528 75.4362 25.1295C75.8626 25.6382 76.2615 26.1711 76.6459 26.7105C77.2159 27.5116 77.4566 28.4289 77.5163 29.3995C77.589 30.5849 77.5906 31.7719 77.4808 32.9557C77.4259 33.5419 77.3064 34.112 77.0706 34.6579C76.7428 35.4202 76.1791 35.9208 75.3926 36.1485C74.1265 36.5167 72.8571 36.4844 71.6006 36.0855C70.5897 35.7642 70.047 35.0536 69.9743 34.0054C69.9097 33.08 69.8839 32.1514 69.8435 31.2244C69.8306 30.9289 69.8419 30.6301 69.8064 30.3362C69.7805 30.1182 69.6982 29.9066 69.6384 29.6853H73.08C72.6391 30.4508 72.7457 31.2955 72.7408 32.1191C72.7376 32.51 72.7731 32.9056 72.8393 33.2916C72.9314 33.8375 73.2592 34.0361 73.8035 33.9392C74.0732 33.8908 74.2363 33.726 74.2993 33.4822C74.3703 33.2028 74.4366 32.9137 74.4398 32.6279C74.4462 31.7331 74.4349 30.8368 74.4026 29.9421C74.3671 28.9909 73.9391 28.2012 73.3271 27.4954C72.744 26.822 72.1723 26.1388 71.5974 25.4589C70.9256 24.666 70.3248 23.8197 70.0519 22.8055C69.9081 22.2693 69.8548 21.7025 69.8274 21.1453C69.7757 20.0762 69.7822 19.0038 69.9356 17.9395C69.9727 17.6844 70.0131 17.4292 70.0761 17.1789C70.3054 16.268 70.911 15.6915 71.7702 15.3895C73.0024 14.955 74.267 14.9276 75.5218 15.2667C76.6749 15.5784 77.3613 16.4441 77.4388 17.6375C77.4905 18.4224 77.4986 19.2089 77.5179 19.9954C77.5325 20.5526 77.5712 21.1033 77.8329 21.6379H77.828Z" fill="#0D1853"/>
<path d="M52.1528 24.0005C53.2704 23.9876 54.3912 24.1184 55.4264 23.5096V26.9511C54.4089 26.2566 53.2704 26.4779 52.1544 26.4343V33.537C52.7568 33.537 53.3543 33.5564 53.9519 33.5322C54.5478 33.5079 55.1131 33.3238 55.6718 33.0622V36.0855H48.167C48.2429 35.9837 48.3075 35.8981 48.3705 35.8109C48.7258 35.3151 48.8469 34.7434 48.8905 34.1539C48.9212 33.755 48.9309 33.3545 48.9309 32.9556C48.9341 27.9605 48.939 22.9669 48.9244 17.9718C48.9228 17.4162 48.8356 16.8542 48.7274 16.3083C48.6644 15.9902 48.4803 15.6962 48.3479 15.3862H55.5798V18.3787C54.5284 17.631 53.3317 17.8426 52.1576 17.8103V24.0021L52.1528 24.0005Z" fill="#0D1853"/>
<path d="M50.6719 43.2577C50.6719 43.8568 50.6702 44.4253 50.6719 44.9922C50.6719 45.1521 50.7639 45.2425 50.9206 45.2603C51.0223 45.2716 51.1241 45.2748 51.2371 45.2829V45.4815H49.5252L49.5139 45.2732C49.5914 45.2732 49.6593 45.2764 49.7271 45.2732C49.9984 45.2587 50.0775 45.1779 50.0921 44.9034C50.0953 44.8452 50.0921 44.7871 50.0921 44.7289C50.0921 43.6582 50.0921 42.5858 50.0921 41.5151C50.0921 41.1297 49.9031 40.917 49.5252 40.8772L49.5155 40.6947C49.5414 40.685 49.5591 40.6737 49.5769 40.6737C50.4474 40.6834 51.3195 40.6769 52.1883 40.7157C52.4677 40.7286 52.7665 40.8207 53.0136 40.9531C53.7969 41.3698 53.8259 42.3921 53.0685 42.8572C52.7907 43.0284 52.4613 43.1156 52.135 43.248C52.1399 43.2141 52.135 43.2238 52.1383 43.227C52.6082 43.8488 53.0653 44.4802 53.5578 45.0859C53.6644 45.2167 53.8873 45.2506 54.1086 45.3539C54.1344 45.4298 54.1053 45.5025 53.9341 45.4944C53.6644 45.4831 53.3527 45.5655 53.1347 45.4573C52.9232 45.3539 52.8036 45.06 52.6502 44.8468C52.2982 44.3607 51.9542 43.8698 51.5972 43.3869C51.5488 43.3223 51.4471 43.2706 51.3663 43.2641C51.1434 43.248 50.9173 43.2577 50.6702 43.2577H50.6719ZM50.6686 42.988C50.8188 42.988 50.9351 42.988 51.0498 42.988C51.4761 42.9912 51.9009 43.0009 52.3095 42.8459C52.8004 42.6601 53.041 42.2984 53.0023 41.809C52.97 41.415 52.6615 41.0823 52.177 41.0161C51.7394 40.9563 51.292 40.9644 50.8495 40.9483C50.7155 40.9434 50.6735 41.0371 50.6719 41.1534C50.6686 41.3795 50.6702 41.6039 50.6702 41.83C50.6702 42.2079 50.6702 42.5875 50.6702 42.9896L50.6686 42.988Z" fill="#0D1853"/>
<path d="M42.8617 40.89V40.6866C42.886 40.6801 42.9037 40.6704 42.9215 40.6704C43.7791 40.6801 44.6398 40.6607 45.4958 40.7076C46.6941 40.7738 47.4596 41.557 47.5194 42.757C47.5371 43.1187 47.5129 43.4966 47.4289 43.8487C47.2044 44.787 46.5488 45.2893 45.625 45.412C45.0468 45.4895 44.4541 45.4718 43.8679 45.4879C43.54 45.4976 43.2106 45.4895 42.8666 45.4895L42.8521 45.2909C42.8876 45.2828 42.9118 45.2731 42.936 45.2731C43.3656 45.2537 43.4173 45.2118 43.4189 44.787C43.4238 43.6517 43.4205 42.5147 43.4189 41.3794C43.4189 41.3212 43.4092 41.2631 43.4044 41.2066C43.3785 40.9563 43.3172 40.8997 43.0604 40.89C42.9974 40.8884 42.9344 40.89 42.8634 40.89H42.8617ZM43.9955 43.0654C43.9955 43.6775 43.9955 44.2912 43.9955 44.9033C43.9955 45.1811 44.0326 45.2247 44.3023 45.2214C44.5849 45.2198 44.8708 45.2166 45.1518 45.1924C46.0578 45.1149 46.6602 44.6142 46.8556 43.7647C46.9735 43.2479 46.9638 42.7263 46.8249 42.2143C46.6214 41.4698 46.1111 41.037 45.3521 40.9676C45 40.9353 44.6447 40.9385 44.2894 40.9337C44.0407 40.9304 43.9955 40.9773 43.9955 41.226C43.9938 41.838 43.9955 42.4517 43.9955 43.0638V43.0654Z" fill="#0D1853"/>
<path d="M19.9659 45.4911L19.9546 45.2893C20.0676 45.278 20.1758 45.2699 20.2808 45.2554C20.4132 45.2376 20.4892 45.1617 20.5005 45.0276C20.5085 44.9307 20.5215 44.8355 20.5215 44.7386C20.5215 43.6355 20.5263 42.5325 20.5215 41.4311C20.5182 40.8497 20.4342 40.911 19.9675 40.8787L19.9546 40.6898C19.9917 40.6817 20.0224 40.6704 20.0515 40.6704C20.909 40.6801 21.7682 40.6656 22.6225 40.7092C23.7902 40.7705 24.5686 41.5861 24.6316 42.7586C24.659 43.2592 24.6219 43.7518 24.4152 44.2169C24.0906 44.9453 23.4914 45.3345 22.7324 45.412C21.9652 45.4895 21.1884 45.4702 20.4165 45.4911C20.2695 45.496 20.1225 45.4911 19.9675 45.4911H19.9659ZM21.0996 43.0784C21.0996 43.684 21.0996 44.2912 21.0996 44.8968C21.0996 44.9098 21.0996 44.9227 21.0996 44.9356C21.1061 45.1746 21.1465 45.2231 21.3839 45.2231C21.6794 45.2231 21.9782 45.2198 22.2721 45.194C23.1684 45.1149 23.7773 44.6061 23.9614 43.7744C24.076 43.2576 24.068 42.736 23.9323 42.224C23.7369 41.486 23.2185 41.0402 22.4659 40.9724C22.1138 40.9401 21.7585 40.9433 21.4032 40.9385C21.1465 40.9353 21.1012 40.9805 21.1012 41.2437C21.0996 41.8558 21.1012 42.4695 21.1012 43.0816L21.0996 43.0784Z" fill="#0D1853"/>
<path d="M37.991 45.5218C37.7487 45.5799 37.6066 45.517 37.4677 45.3377C36.4293 43.9956 35.3779 42.6649 34.3298 41.3309C34.3023 41.2954 34.2732 41.2615 34.2119 41.1888C34.207 41.2857 34.2022 41.3438 34.2022 41.402C34.2022 42.5308 34.2022 43.6597 34.2022 44.7886C34.2022 45.2036 34.249 45.2521 34.6625 45.2747C34.6867 45.2747 34.7109 45.2828 34.7448 45.2876V45.475H33.3672V45.2989C33.3802 45.2892 33.385 45.2812 33.3899 45.2812C33.9066 45.2747 33.9034 45.1633 33.9018 44.7078C33.8986 43.6306 33.8953 42.5535 33.9018 41.4746C33.9066 40.8496 33.8259 40.9126 33.3576 40.8771L33.343 40.6704C33.7161 40.6704 34.0746 40.6639 34.4331 40.6768C34.4913 40.6785 34.5543 40.7608 34.5995 40.8173C35.562 42.0544 36.5229 43.2931 37.4838 44.5318C37.5388 44.6013 37.5937 44.6707 37.676 44.7773C37.6841 44.6788 37.6922 44.6255 37.6922 44.5722C37.6922 43.5337 37.6922 42.4953 37.6922 41.4553C37.6922 41.4294 37.6922 41.4036 37.6922 41.3777C37.6776 40.953 37.6308 40.9062 37.2077 40.89C37.1835 40.89 37.1576 40.8836 37.1237 40.8803V40.6801H38.5142V40.8723C37.9118 40.9223 37.9942 40.9998 37.991 41.4973C37.9861 42.7618 37.9893 44.0263 37.9893 45.2909V45.5218H37.991Z" fill="#0D1853"/>
<path d="M72.3145 40.8724V40.6705C72.6762 40.6705 73.0299 40.6624 73.382 40.677C73.4449 40.6802 73.5176 40.761 73.5661 40.8223C74.5415 42.0739 75.5137 43.3288 76.4876 44.582C76.5231 44.6272 76.5603 44.6724 76.6313 44.7597C76.6378 44.6515 76.6442 44.5869 76.6442 44.5239C76.6442 43.479 76.6442 42.4325 76.6442 41.3876C76.6442 40.9547 76.6006 40.9111 76.1759 40.8918C76.1517 40.8918 76.1258 40.8853 76.0919 40.8788V40.6802H77.4792V40.8675C77.4614 40.8772 77.4501 40.8869 77.4388 40.8869C76.9818 40.9128 76.9414 40.9547 76.9414 41.4182C76.9414 42.7086 76.9414 43.999 76.9414 45.2894V45.5155C76.7169 45.5865 76.5748 45.5252 76.4359 45.3459C75.4088 44.02 74.3687 42.7038 73.3335 41.3843C73.2947 41.3343 73.2511 41.2891 73.1817 41.2067C73.1769 41.31 73.1704 41.3763 73.1704 41.4425C73.1704 42.552 73.1704 43.6631 73.1704 44.7726C73.1704 45.2232 73.1946 45.2474 73.6484 45.2765C73.6662 45.2765 73.684 45.2861 73.713 45.2926C73.7163 45.3233 73.7211 45.354 73.7195 45.3847C73.7195 45.4153 73.713 45.446 73.7082 45.4832H72.3387V45.2958C72.6897 45.242 72.8652 45.0364 72.8652 44.6789C72.8652 43.6211 72.8652 42.5617 72.8652 41.5038C72.8652 41.1324 72.6821 40.9224 72.3161 40.874L72.3145 40.8724Z" fill="#0D1853"/>
<path d="M26.5293 43.0719C26.5987 42.7198 26.6343 42.358 26.7473 42.0205C26.9815 41.3131 27.4918 40.8722 28.2073 40.6833C28.779 40.5331 29.3555 40.5331 29.9272 40.6946C30.6734 40.9062 31.1692 41.3858 31.3936 42.1271C31.5971 42.7989 31.5891 43.4772 31.3646 44.1426C31.1385 44.8144 30.6685 45.2489 29.9951 45.4523C29.4088 45.63 28.8113 45.6365 28.2186 45.4847C27.2334 45.2327 26.6375 44.4624 26.581 43.3916C26.5761 43.2883 26.581 43.1849 26.581 43.0815L26.5293 43.0719V43.0719ZM30.9495 43.0848L30.9156 43.0799C30.9156 42.996 30.9204 42.912 30.9156 42.828C30.8478 41.6862 30.3116 40.8884 29.1052 40.8335C28.3009 40.798 27.6033 41.2179 27.3432 41.9753C27.0929 42.7053 27.101 43.4433 27.3497 44.1749C27.5112 44.6513 27.8245 44.9937 28.2977 45.1826C29.4007 45.6252 30.5102 45.0825 30.8106 43.9391C30.8833 43.6613 30.9059 43.3706 30.9511 43.0848H30.9495Z" fill="#0D1853"/>
<path d="M8.49154 40.5396C8.81939 40.6026 9.15692 40.6317 9.47184 40.735C10.3504 41.0241 10.7848 41.6846 10.9189 42.5696C10.9883 43.0267 10.9673 43.4821 10.8543 43.9311C10.6443 44.758 10.1178 45.2748 9.29904 45.4863C8.75317 45.6268 8.19923 45.6252 7.65175 45.4863C6.68922 45.2425 6.06906 44.4899 6.019 43.4563C5.99962 43.0428 6.019 42.6116 6.11267 42.2127C6.33876 41.2599 7.12688 40.6575 8.13625 40.5913C8.25252 40.5832 8.3688 40.58 8.48347 40.5751L8.49154 40.5396V40.5396ZM10.3472 42.9895C10.3391 42.904 10.3262 42.7441 10.31 42.5842C10.2018 41.5005 9.59296 40.8917 8.51092 40.84C7.81002 40.8061 7.13172 41.0839 6.82649 41.83C6.4825 42.6698 6.4825 43.5322 6.85718 44.3655C7.16402 45.0454 7.75188 45.3232 8.47055 45.32C9.1876 45.3184 9.75769 45.0357 10.0839 44.3623C10.2809 43.9537 10.3391 43.5144 10.3455 42.9895H10.3472Z" fill="#0D1853"/>
<path d="M17.1141 44.7143V44.2153C17.1141 43.2932 17.1141 42.3694 17.1141 41.4472C17.1141 41.3762 17.1141 41.3051 17.1076 41.234C17.0802 40.966 17.0091 40.9014 16.741 40.8917C16.6845 40.8901 16.6263 40.8917 16.5553 40.8917L16.5424 40.6817H17.949V40.8658C17.9329 40.8739 17.9216 40.8852 17.9103 40.8852C17.4338 40.9127 17.4032 40.9434 17.4032 41.4262C17.4032 42.7037 17.4032 43.9811 17.4032 45.2586V45.5154C17.1997 45.5703 17.0559 45.5525 16.9138 45.3684C15.8883 44.0409 14.8499 42.7231 13.8163 41.4036C13.7694 41.3439 13.721 41.2841 13.6322 41.2308V41.4278C13.6322 42.518 13.6322 43.6097 13.6322 44.6998C13.6322 45.0519 13.8098 45.2484 14.1651 45.2893V45.4798H12.7988V45.2957C12.8134 45.2893 12.8247 45.2796 12.836 45.278C13.3027 45.2489 13.3318 45.2182 13.3318 44.745C13.3318 43.6549 13.3269 42.5632 13.3334 41.4731C13.3382 40.8012 13.2236 40.9175 12.7908 40.8739C12.7859 40.8481 12.7778 40.8174 12.7778 40.7883C12.7778 40.756 12.7827 40.7253 12.7891 40.6688C13.1428 40.6688 13.4965 40.6607 13.8486 40.6753C13.9116 40.6785 13.9826 40.7625 14.0311 40.8238C14.9984 42.0658 15.9626 43.3109 16.9267 44.5545C16.9736 44.6142 17.022 44.6724 17.0689 44.7305L17.1125 44.7127L17.1141 44.7143Z" fill="#0D1853"/>
<path d="M67.093 43.6372V43.8245C66.7581 43.8816 66.5907 44.0819 66.5907 44.4253C66.5907 44.477 66.581 44.5303 66.5907 44.5804C66.6618 44.905 66.4809 45.0649 66.2241 45.2118C65.2406 45.769 64.0148 45.6995 63.2122 45.0229C62.9441 44.7968 62.7567 44.5125 62.6324 44.1895C62.4015 43.5888 62.3627 42.9702 62.521 42.3485C62.7842 41.3132 63.5836 40.6689 64.6673 40.5913C65.1954 40.5542 65.7122 40.6043 66.2096 40.7884C66.279 40.8142 66.363 40.8917 66.3792 40.9596C66.4486 41.2599 66.4954 41.5668 66.5536 41.8914L66.3081 41.9495C66.2742 41.8252 66.2403 41.7154 66.2128 41.6039C66.0949 41.1356 65.7735 40.9111 65.3133 40.8562C64.1359 40.7157 63.2542 41.3859 63.0733 42.56C62.978 43.1818 63.0474 43.7809 63.3414 44.3446C63.8307 45.2877 65.0355 45.5913 65.9173 45.0019C66.019 44.934 66.0659 44.8581 66.0578 44.7322C66.0465 44.5384 66.0529 44.3446 66.0562 44.1524C66.0578 43.9812 65.9803 43.8859 65.8058 43.873C65.7089 43.8649 65.6104 43.8665 65.5184 43.8455C65.4715 43.8342 65.4328 43.7826 65.3908 43.7486C65.4295 43.7115 65.4683 43.6437 65.5087 43.6437C66.0303 43.6372 66.552 43.6388 67.0962 43.6388L67.093 43.6372Z" fill="#0D1853"/>
<path d="M57.3528 43.08C57.7824 42.4502 58.2007 41.8478 58.6077 41.2357C58.7756 40.9822 58.7304 40.9127 58.4187 40.8901C58.401 40.8901 58.3832 40.8821 58.3541 40.8756V40.6802H59.4894L59.5008 40.8804C59.2585 40.8659 59.1406 41.0242 59.0243 41.1921C58.5479 41.8737 58.065 42.5519 57.5918 43.2367C57.5305 43.3255 57.4933 43.445 57.4901 43.5532C57.4788 43.9731 57.4853 44.3914 57.4853 44.8113C57.4853 45.2021 57.5499 45.2667 57.9488 45.2748C57.9875 45.2748 58.0263 45.2797 58.0747 45.2813C58.0876 45.3717 58.1603 45.488 57.9891 45.4896C57.4287 45.4961 56.8683 45.4928 56.295 45.4928V45.2877C56.4177 45.2764 56.5324 45.27 56.6471 45.2571C56.786 45.2409 56.8796 45.1682 56.8829 45.0213C56.8942 44.4932 56.9006 43.9651 56.9039 43.4353C56.9039 43.3901 56.8683 43.3401 56.8393 43.2997C56.3257 42.581 55.8154 41.8591 55.2889 41.1485C55.1936 41.0193 55.0353 40.9386 54.9045 40.8368L54.8577 40.8788V40.6834H56.3887V40.8724C56.3693 40.8804 56.358 40.8869 56.3467 40.8901C56.2272 40.9224 56.1061 40.9531 55.9865 40.9854C56.0334 41.1001 56.0624 41.226 56.1303 41.3278C56.4904 41.8623 56.8602 42.3904 57.2285 42.9202C57.2608 42.967 57.2963 43.0122 57.3496 43.0833L57.3528 43.08Z" fill="#0D1853"/>
<path d="M0.518479 45.4782L0.508789 45.3022C0.531399 45.2909 0.547549 45.278 0.565314 45.2763C1.03366 45.2424 1.05142 45.2231 1.05142 44.7596C1.05142 43.6501 1.05142 42.5406 1.05142 41.4294C1.05142 40.9223 1.04335 40.9127 0.524939 40.8804V40.6753C0.570159 40.672 0.613763 40.6672 0.657368 40.6672C1.15317 40.6672 1.64897 40.6672 2.15931 40.6672L2.16738 40.8594C2.14477 40.8723 2.13347 40.8836 2.12216 40.8836C1.66189 40.9127 1.63605 40.9385 1.63605 41.3988C1.63605 42.5341 1.63605 43.6694 1.63605 44.8048C1.63605 45.2117 1.64736 45.2231 2.06241 45.2231C2.45646 45.2231 2.85052 45.2231 3.24296 45.2231C3.63056 45.2231 3.71938 45.1552 3.84374 44.7838C3.86473 44.7224 3.89057 44.661 3.89865 44.5981C3.92126 44.3978 4.03754 44.3768 4.21034 44.4349L3.97132 45.4782H0.518479V45.4782Z" fill="#0D1853"/>
<path d="M68.8294 40.882C68.8245 40.8416 68.8181 40.811 68.8181 40.7803C68.8181 40.7496 68.8245 40.7189 68.8294 40.6785H70.6075L70.6236 40.8901C70.5316 40.8901 70.4508 40.8869 70.3701 40.8901C70.0907 40.9014 70.0083 40.987 70.0067 41.2745C70.0035 41.6039 70.0067 41.9318 70.0067 42.2612C70.0067 43.0994 70.0067 43.9376 70.0067 44.7757C70.0067 45.2053 70.0632 45.2619 70.4977 45.2716C70.53 45.2716 70.5606 45.2748 70.6059 45.278C70.6123 45.3087 70.6204 45.3378 70.622 45.3668C70.622 45.3991 70.6188 45.4298 70.6156 45.475H68.8262L68.8132 45.2796C68.9214 45.2748 69.0167 45.2748 69.1104 45.2635C69.3526 45.2376 69.4237 45.1601 69.4285 44.9146C69.4334 44.6239 69.4334 44.3349 69.4334 44.0442C69.4334 43.1414 69.4334 42.2386 69.4285 41.3358C69.4269 40.9498 69.3639 40.8949 68.9747 40.8869C68.9311 40.8869 68.8875 40.882 68.8358 40.8788L68.8294 40.882Z" fill="#0D1853"/>
<path d="M68.4495 15.1246C68.0442 15.1294 67.7971 14.9195 67.7599 14.5335C67.7147 14.0781 67.9166 13.7664 68.3074 13.6921C68.6449 13.6275 68.9808 13.8794 69.0632 14.2557C69.2118 14.9437 68.779 15.8627 68.1507 16.176C68.0522 16.226 67.9392 16.2486 67.8326 16.2858C67.7777 16.1388 67.81 16.0791 67.9343 16.0258C68.2912 15.8756 68.4915 15.5074 68.4495 15.123V15.1246Z" fill="#0D1853"/>
<path d="M79.4605 35.8771C79.4007 35.8416 79.3264 35.8158 79.2828 35.7657C79.2166 35.6882 79.1811 35.5848 79.1165 35.5073C79.068 35.4492 78.9905 35.4136 78.8775 35.3345V35.8384L78.8209 35.8739C78.7854 35.8368 78.7208 35.8012 78.7208 35.7625C78.7127 35.4556 78.716 35.1472 78.716 34.8193C78.9146 34.8193 79.102 34.7999 79.2796 34.829C79.3571 34.8419 79.4621 34.9517 79.4718 35.0276C79.4847 35.1245 79.4201 35.236 79.3717 35.3329C79.3539 35.37 79.2844 35.3813 79.2279 35.4088C79.32 35.5541 79.4072 35.693 79.496 35.8319L79.4621 35.8771H79.4605ZM78.8839 34.8871V35.3022C79.0357 35.2586 79.1682 35.2295 79.2909 35.1795C79.3119 35.1714 79.3167 35.0341 79.2974 35.0244C79.1762 34.9711 79.047 34.9372 78.8839 34.8855V34.8871Z" fill="#0D1853"/>
</g>
<defs>
<clipPath id="clip0_1311_46676">
<rect width="80" height="45.6589" fill="white"/>
</clipPath>
</defs>
</svg>
