<svg width="80" height="37" viewBox="0 0 80 37" fill="none" xmlns="http://www.w3.org/2000/svg">
<path fill-rule="evenodd" clip-rule="evenodd" d="M69.9202 1.09983C70.2358 2.12793 69.7624 3.22777 69.0499 3.94027C68.5765 4.33238 68.1031 4.80578 67.5532 4.80578C67.3141 4.72449 67.1611 4.49018 67.2376 4.33238C67.6345 4.01678 68.2609 3.78246 68.3422 3.22777C67.8688 2.99346 67.3954 2.83565 67.0798 2.36225C66.8455 1.97013 66.8455 1.41544 67.0033 1.02332C67.1611 0.468624 67.711 0.15302 68.2657 0C68.9782 0 69.6094 0.473405 69.925 1.10461L69.9202 1.09983Z" fill="#0D1853"/>
<path fill-rule="evenodd" clip-rule="evenodd" d="M11.9298 2.44348C9.16583 0.473347 5.37858 1.33887 1.98823 1.10455C1.43354 1.18585 0.725818 1.10455 0.17112 1.26236C0.0946101 1.50145 0.0133183 1.81705 0.252412 1.89356L2.38035 1.97485C2.61466 2.05136 2.85375 2.29046 2.77246 2.52477C2.77246 6.94323 2.85375 11.3617 2.69595 15.7036C1.90694 16.177 0.88362 15.7801 0.0133182 16.0957C0.0133182 16.3301 -0.0679737 16.6457 0.17112 16.8082H6.7988C8.06122 16.8848 9.32363 16.8082 10.4282 16.3348C12.7188 15.388 14.6076 13.0975 15.0858 10.7305C15.8748 7.49793 14.7702 4.26059 11.9298 2.44348ZM12.0063 12.7006C11.6142 13.963 10.586 15.1489 9.40014 15.6223C8.13773 16.1722 6.71751 15.8566 5.37858 15.8566C4.98169 15.4645 5.37858 14.8333 5.13949 14.3599L5.22078 2.28568C5.29729 2.12788 5.53639 2.05136 5.6129 2.05136C7.74083 2.05136 10.1892 1.89356 11.3703 4.0215C12.7905 6.46982 12.7905 10.018 12.0015 12.7006H12.0063Z" fill="#0D1853"/>
<path fill-rule="evenodd" clip-rule="evenodd" d="M42.0651 4.7293C43.0119 5.43702 42.462 6.86202 42.2229 7.80405L39.306 16.9566C39.0669 17.1957 38.6747 17.0379 38.4357 17.1144C37.8857 15.9332 37.5701 14.7473 37.1732 13.4849C36.7763 12.299 36.542 11.0414 35.9921 9.85547C35.8343 9.69767 35.6765 10.0133 35.5952 10.1711L33.5438 16.88C33.3095 17.1957 32.9126 17.0379 32.597 17.0379L32.2814 16.641C31.1768 12.9302 29.9909 9.22427 28.8862 5.51831C28.4893 5.0449 27.1504 5.75262 27.5473 4.5715L27.7816 4.49499C29.3597 4.5715 30.8612 4.33719 32.3579 4.5715C32.5157 4.7293 32.5157 5.0449 32.4392 5.20271C32.1236 5.43702 31.5689 5.0449 31.3346 5.51831L31.4111 6.22603C32.1188 8.35874 32.6735 10.568 33.4625 12.6959C33.539 12.7772 33.6203 12.7772 33.7781 12.7772C34.4858 11.1992 34.6484 9.38685 35.2748 7.72754C35.2748 6.93853 34.9592 6.22603 34.7201 5.59482C34.328 4.8871 32.9843 5.83391 33.2999 4.64801L33.6155 4.49021L38.034 4.56671C38.2683 4.64322 38.2683 4.80103 38.2683 4.96361C38.2683 5.67133 37.4028 5.04012 37.0872 5.51831L37.1685 6.14952C37.9575 8.35875 38.5074 10.7258 39.3777 12.935C39.3777 13.0115 39.5355 13.0115 39.612 13.0115C40.2432 11.0414 41.0322 9.14775 41.2713 7.01504C41.3526 6.46034 40.9557 6.06823 40.6401 5.67133C40.3245 5.43224 39.612 5.35573 39.2199 5.59004C39.1434 5.59004 38.9856 5.51353 38.9856 5.43224C39.2199 4.72452 39.8511 4.25111 40.5636 4.16982C41.1183 4.08853 41.6682 4.32762 42.0603 4.71973L42.0651 4.7293Z" fill="#0D1853"/>
<path fill-rule="evenodd" clip-rule="evenodd" d="M75.2077 5.1262C75.3655 4.8106 75.6811 4.49499 76.078 4.72931L76.2358 4.9684L76.1593 8.75565C76.0828 8.99474 75.6859 8.99474 75.5281 8.91345L75.3703 8.75565C75.3703 7.41672 75.0547 6.1543 73.7923 5.4418C73.0033 5.20749 72.0564 5.04969 71.2674 5.4418C70.794 5.75741 70.4019 6.31211 70.2441 6.86202C70.1676 7.33543 70.3254 7.73232 70.5597 8.12444L71.1909 8.75565C73.4002 9.70246 77.0296 10.3337 76.9483 13.571C77.0296 14.9147 76.0828 16.2536 74.8969 16.8083C73.3189 17.6786 71.2674 17.3582 70.005 16.2536C69.8472 16.1723 69.6894 16.0193 69.5316 16.0958C69.216 16.3301 69.5316 16.9613 68.9817 17.0426C68.8239 17.1192 68.5083 17.0426 68.5083 16.8083L68.5896 12.3086C68.6661 12.0743 69.063 12.1508 69.2208 12.2321C69.4551 13.0976 69.3786 14.1257 70.0098 14.9147C70.8753 16.0958 72.219 16.4927 73.5627 16.2536C74.1939 16.0958 74.8252 15.7802 75.1408 15.149C75.3751 14.6756 75.4564 14.0444 75.2986 13.571C74.194 11.8352 72.1425 11.8352 70.5645 10.8884C69.6177 10.415 68.8287 9.46815 68.7474 8.36353C68.5896 7.34021 68.8287 6.3934 69.5364 5.59961C70.7175 4.41848 72.5346 3.94508 74.1127 4.57629L75.2173 5.13098L75.2077 5.1262Z" fill="#0D1853"/>
<path fill-rule="evenodd" clip-rule="evenodd" d="M65.6594 4.57145V8.75081C65.5016 8.8321 65.3438 9.06641 65.1047 8.90861L64.9469 8.6743L64.8704 6.70417C64.7126 6.30727 64.2391 6.46507 63.9235 6.46507C62.9002 6.62287 61.7143 6.93848 61.1596 8.04309L61.0831 8.91339C61.0831 11.2804 60.9253 13.7287 61.0831 16.0958C61.7143 16.5692 63.4501 15.7037 63.0532 17.0426C61.0831 17.1191 59.1082 17.1191 57.0568 17.0426C56.899 16.8848 56.899 16.4927 56.9803 16.3301C57.535 16.1723 58.0849 16.1723 58.6348 16.1723C59.1895 15.5411 58.7926 14.6756 58.9504 13.8865V5.68084C58.477 5.20744 57.7693 5.52304 57.1381 5.36524C57.0568 5.20744 56.899 4.97313 57.0568 4.73403L57.3724 4.65752H60.844L61.0831 4.89183C61.1596 5.36524 61.0018 5.91994 61.3174 6.31205C61.8721 5.83865 62.422 5.36524 63.0532 5.04964C63.761 4.57623 64.6313 4.26063 65.4968 4.41843L65.6546 4.57623L65.6594 4.57145Z" fill="#0D1853"/>
<path fill-rule="evenodd" clip-rule="evenodd" d="M54.2967 5.83391C54.4545 5.0449 55.4013 5.59482 55.956 5.284C55.956 5.0449 56.0325 4.81059 55.7982 4.65279L52.4844 4.57628C52.011 4.57628 52.3266 5.28878 51.8532 5.28878C51.2985 4.89188 50.7486 4.65757 50.1174 4.41848C49.0128 4.18417 47.8316 4.26068 46.9613 4.73408C44.2787 6.23081 43.2506 9.31034 43.6475 12.3086C43.8866 14.2022 45.0677 16.3349 47.0426 16.9613C48.7784 17.6738 50.5956 16.9613 51.9345 15.8567C52.3314 16.0145 52.0923 16.6457 52.2501 17.0426C53.3547 17.0426 54.6171 17.1191 55.7982 17.0426C55.956 16.8848 55.956 16.4927 55.7982 16.3301C55.3248 16.0958 54.6936 16.4114 54.2967 15.938C54.2967 15.6224 54.1389 15.3068 54.2202 15.0677L54.2967 5.83391ZM52.0875 13.4897C51.7719 14.7521 50.6673 16.0958 49.3236 16.1723C48.3002 16.3301 47.2721 15.7802 46.7987 14.8334C45.9332 12.8633 46.0862 10.415 46.3253 8.28223C46.4831 7.17762 46.8753 6.07301 47.9799 5.52309C49.4001 5.04968 51.1359 5.36529 51.9249 6.86202L52.164 7.96663L52.0827 13.4897H52.0875Z" fill="#0D1853"/>
<path fill-rule="evenodd" clip-rule="evenodd" d="M28.4995 12.6193C27.8683 13.8818 26.5293 14.8286 25.1091 15.0629C23.139 15.455 21.2406 14.4317 20.0594 12.7724C19.9016 12.6146 19.9016 12.2989 20.1407 12.2224C22.5891 10.4866 24.9561 8.83209 27.3996 7.09627L27.4809 6.86195C26.7684 5.83385 25.8216 4.88704 24.6405 4.49493C24.2436 4.41363 23.775 4.25583 23.3781 4.17932C21.0876 3.94501 18.9596 5.04484 17.855 7.09627C17.1425 8.35868 16.9082 10.0132 17.066 11.5147C17.3003 13.6474 18.7205 15.6176 20.6954 16.5644C22.2735 17.5112 24.6405 17.2769 26.2185 16.2488C27.3231 15.302 28.4277 14.2739 28.8246 12.8584C28.8246 12.7006 28.6668 12.5428 28.509 12.6193H28.4995ZM18.9548 10.6492C18.4814 9.22898 18.4049 7.09627 19.8251 6.07294C20.5329 5.28393 21.9579 5.20264 22.8999 5.68083C23.6076 6.07294 24.3966 6.62764 24.87 7.49795C24.6357 8.12915 23.8419 8.28695 23.3733 8.76036L19.6626 11.2852C19.2704 11.443 19.1126 10.9696 18.9548 10.654V10.6492Z" fill="#0D1853"/>
<path fill-rule="evenodd" clip-rule="evenodd" d="M78.6806 14.5512C79.2832 14.5512 79.79 15.0294 79.79 15.6559C79.79 16.2823 79.2879 16.7605 78.6806 16.7605C78.0733 16.7605 77.576 16.2775 77.576 15.6559C77.576 15.0342 78.0781 14.5512 78.6806 14.5512ZM78.6806 16.9757C79.417 16.9757 80.0004 16.3923 80.0004 15.6559C80.0004 14.9194 79.417 14.3361 78.6806 14.3361C77.9442 14.3361 77.3608 14.9194 77.3608 15.6559C77.3608 16.3923 77.9442 16.9757 78.6806 16.9757ZM78.9102 15.7228C79.1062 15.718 79.3071 15.608 79.3071 15.3163C79.3071 15.0055 79.0632 14.9242 78.7954 14.9242H78.1738V16.4066H78.3889V15.7228H78.6663L79.0441 16.4066H79.2879L78.9102 15.7228ZM78.7571 15.1394C78.9341 15.1394 79.0919 15.1538 79.0919 15.3403C79.0919 15.5411 78.8145 15.5076 78.6137 15.5076H78.3842V15.1394H78.7524H78.7571Z" fill="#0D1853"/>
<path fill-rule="evenodd" clip-rule="evenodd" d="M29.3313 27.9644V23.259H32.3821V23.7324H30.0486V25.3057H31.8753V25.7791H30.0486V27.9644H29.3313Z" fill="#0D1853"/>
<path fill-rule="evenodd" clip-rule="evenodd" d="M33.334 27.9644V23.9142H34.0513V27.9644H33.334Z" fill="#0D1853"/>
<path fill-rule="evenodd" clip-rule="evenodd" d="M37.618 27.2471C37.5893 26.6685 37.5797 25.5496 37.5797 23.9189H38.2444V27.9692H37.2545C36.4512 26.3242 35.93 25.2053 35.6956 24.641H35.6717C35.6956 25.2101 35.7052 26.3338 35.7052 27.9692H35.0405V23.9189H36.0352C36.8337 25.5496 37.3597 26.6781 37.594 27.2471H37.618Z" fill="#0D1853"/>
<path fill-rule="evenodd" clip-rule="evenodd" d="M41.4532 25.6357V26.1091H39.8943V27.4958H42.0127V27.9644H39.177V23.9142H41.9553V24.3876H39.8943V25.6357H41.4532Z" fill="#0D1853"/>
<path fill-rule="evenodd" clip-rule="evenodd" d="M44.9532 24.7415C44.8528 24.5215 44.6424 24.3063 44.2072 24.3063C43.9825 24.3063 43.7625 24.3685 43.6286 24.4689C43.5091 24.555 43.4469 24.6793 43.4469 24.8323C43.4469 25.0284 43.5569 25.1862 43.7434 25.2914C43.9203 25.3966 44.102 25.4731 44.5611 25.6357C44.9914 25.803 45.2353 25.9082 45.4266 26.0613C45.6322 26.2334 45.7996 26.4821 45.7996 26.8311C45.7996 27.1324 45.6752 27.4241 45.4075 27.6488C45.1492 27.8592 44.7571 28.0505 44.1785 28.0505C43.2413 28.0505 42.7774 27.668 42.6196 27.1563L43.3369 27.0941C43.4612 27.3524 43.7242 27.5819 44.1929 27.5819C44.5037 27.5819 44.7237 27.4767 44.8671 27.3524C44.9962 27.2424 45.0632 27.0846 45.0632 26.922C45.0632 26.702 44.958 26.5538 44.8049 26.4534C44.6471 26.3577 44.4607 26.2812 44.0207 26.1043C43.5473 25.9274 43.313 25.8126 43.1265 25.6644C42.9257 25.5113 42.7296 25.2675 42.7296 24.8801C42.7296 24.6028 42.8348 24.3398 43.0883 24.1581C43.3417 23.962 43.7195 23.8425 44.2407 23.8425C45.0632 23.8425 45.5174 24.2107 45.6561 24.708L44.958 24.751L44.9532 24.7415Z" fill="#0D1853"/>
<path fill-rule="evenodd" clip-rule="evenodd" d="M49.2426 24.3876H48.0711V27.9644H47.3586V24.3876H46.187V23.9142H49.2426V24.3876Z" fill="#0D1853"/>
<path fill-rule="evenodd" clip-rule="evenodd" d="M19.1889 32.1868C19.055 31.919 18.7728 31.656 18.1894 31.656C17.8834 31.656 17.5869 31.7325 17.4052 31.8616C17.2426 31.9764 17.1613 32.1342 17.1613 32.3303C17.1613 32.5741 17.2952 32.7654 17.52 32.8897C17.7352 33.0141 17.9599 33.1002 18.5576 33.2962C19.1076 33.4923 19.404 33.607 19.6383 33.784C19.8822 33.98 20.0783 34.2669 20.0783 34.6734C20.0783 35.0225 19.9253 35.3668 19.6097 35.6202C19.2988 35.8689 18.8302 36.084 18.1607 36.084C17.08 36.084 16.5253 35.6632 16.3149 35.1038L17.0322 35.0272C17.1996 35.3381 17.563 35.6154 18.1751 35.6154C18.5816 35.6154 18.8732 35.4815 19.0741 35.3237C19.2462 35.1803 19.3419 34.9794 19.3419 34.769C19.3419 34.4869 19.1984 34.3052 19.0119 34.1856C18.8206 34.0709 18.5911 33.9848 18.0077 33.7744C17.3861 33.564 17.1231 33.4444 16.9079 33.2819C16.6688 33.1097 16.4393 32.8371 16.4393 32.3876C16.4393 32.072 16.5684 31.766 16.8696 31.5556C17.1757 31.3309 17.6156 31.197 18.2277 31.197C19.1936 31.197 19.7196 31.5986 19.8966 32.1438L19.1936 32.1964L19.1889 32.1868Z" fill="#0D1853"/>
<path fill-rule="evenodd" clip-rule="evenodd" d="M23.8985 34.8311C23.7073 35.5819 23.0808 36.0696 22.354 36.0696C21.9045 36.0696 21.4694 35.9262 21.1681 35.6106C20.8429 35.2806 20.6421 34.7546 20.6421 33.9465C20.6421 33.2388 20.8286 32.6984 21.1633 32.3446C21.4694 32.029 21.8806 31.8568 22.3636 31.8568C23.1048 31.8568 23.6786 32.2346 23.8459 33.0379L23.1287 33.1049C23.0139 32.6219 22.7892 32.335 22.3588 32.335C21.8232 32.335 21.3737 32.7606 21.3737 33.9704C21.3737 35.1802 21.8376 35.5962 22.3492 35.5962C22.8274 35.5962 23.0952 35.1659 23.1765 34.7451L23.9033 34.8311H23.8985Z" fill="#0D1853"/>
<path fill-rule="evenodd" clip-rule="evenodd" d="M26.1316 32.3254C26.6767 32.3254 27.1932 32.7462 27.1932 33.9561C27.1932 35.1659 26.6815 35.5819 26.1316 35.5819C25.5817 35.5819 25.0748 35.1611 25.0748 33.9561C25.0748 32.751 25.5865 32.3254 26.1268 32.3254H26.1316ZM24.3384 33.9608C24.3384 35.4289 25.0844 36.0649 26.1316 36.0649C27.1788 36.0649 27.9248 35.4289 27.9248 33.9608C27.9248 32.4928 27.1788 31.8568 26.1316 31.8568C25.0844 31.8568 24.3384 32.4928 24.3384 33.9561V33.9608Z" fill="#0D1853"/>
<path fill-rule="evenodd" clip-rule="evenodd" d="M31.3443 32.4115H30.1775V35.9884H29.465V32.4115H28.2935V31.9381H31.3443V32.4115Z" fill="#0D1853"/>
<path fill-rule="evenodd" clip-rule="evenodd" d="M34.9691 34.8311C34.7778 35.5819 34.1514 36.0696 33.4246 36.0696C32.9751 36.0696 32.5399 35.9262 32.2387 35.6106C31.9135 35.2806 31.7126 34.7546 31.7126 33.9465C31.7126 33.2388 31.8991 32.6984 32.2339 32.3446C32.5399 32.029 32.9512 31.8568 33.4341 31.8568C34.1753 31.8568 34.7491 32.2346 34.9165 33.0379L34.1992 33.1049C34.0845 32.6219 33.8645 32.335 33.4293 32.335C32.8938 32.335 32.4443 32.7606 32.4443 33.9704C32.4443 35.1802 32.9081 35.5962 33.4198 35.5962C33.898 35.5962 34.1657 35.1659 34.247 34.7451L34.9739 34.8311H34.9691Z" fill="#0D1853"/>
<path fill-rule="evenodd" clip-rule="evenodd" d="M38.8133 35.9884H38.096V34.1282H36.3076V35.9884H35.5903V31.9381H36.3076V33.65H38.096V31.9381H38.8133V35.9884Z" fill="#0D1853"/>
<path fill-rule="evenodd" clip-rule="evenodd" d="M44.3847 31.876C44.246 32.6889 44.1026 33.3631 43.9639 34.0278L43.5287 35.9932H42.6058L41.3625 31.283H42.099L42.5724 33.344C42.7254 34.0183 42.888 34.6973 43.041 35.4719H43.0601C43.1988 34.6829 43.3566 34.0087 43.5048 33.344L43.9543 31.2878H44.8485L45.3028 33.3536C45.4558 34.0278 45.6041 34.6973 45.7523 35.4719H45.7714C45.9292 34.6925 46.0823 34.023 46.2305 33.3536L46.6991 31.283H47.4355L46.197 35.9932H45.2741L44.839 34.0039C44.6955 33.3392 44.5568 32.6889 44.4182 31.8808H44.3943L44.3847 31.876Z" fill="#0D1853"/>
<path fill-rule="evenodd" clip-rule="evenodd" d="M51.1603 35.9884H50.4478V34.1282H48.6594V35.9884H47.9421V31.9381H48.6594V33.65H50.4478V31.9381H51.1603V35.9884Z" fill="#0D1853"/>
<path fill-rule="evenodd" clip-rule="evenodd" d="M52.1458 35.9884V31.9381H52.863V35.9884H52.1458Z" fill="#0D1853"/>
<path fill-rule="evenodd" clip-rule="evenodd" d="M56.0183 32.7654C55.9179 32.5454 55.7075 32.3302 55.2675 32.3302C55.0428 32.3302 54.8228 32.3924 54.6889 32.4928C54.5694 32.5789 54.5072 32.7032 54.5072 32.8562C54.5072 33.0523 54.6172 33.2101 54.8037 33.3153C54.9806 33.4205 55.1623 33.497 55.6214 33.6596C56.0517 33.827 56.2956 33.9322 56.4869 34.0852C56.6925 34.2573 56.8599 34.506 56.8599 34.8551C56.8599 35.1563 56.7356 35.448 56.4678 35.6728C56.2095 35.8832 55.8174 36.0744 55.2388 36.0744C54.3016 36.0744 53.8377 35.6919 53.6799 35.1802L54.3972 35.1181C54.5215 35.3763 54.7845 35.6058 55.2532 35.6058C55.564 35.6058 55.7792 35.5006 55.9274 35.3763C56.0517 35.2663 56.1235 35.1085 56.1235 34.9459C56.1235 34.726 56.0183 34.5777 55.8653 34.4773C55.7075 34.3817 55.521 34.3099 55.081 34.1282C54.6076 33.9513 54.3733 33.8365 54.1868 33.6883C53.986 33.5353 53.7899 33.2914 53.7899 32.9041C53.7899 32.6267 53.8999 32.3637 54.1486 32.182C54.402 31.9859 54.7798 31.8664 55.301 31.8664C56.1235 31.8664 56.5825 32.2346 56.7164 32.7319L56.0183 32.775V32.7654Z" fill="#0D1853"/>
<path fill-rule="evenodd" clip-rule="evenodd" d="M58.3047 33.9657C58.5199 33.6262 58.7303 33.3536 58.9646 32.9902L59.6867 31.9429H60.514L59.2372 33.6453L60.7196 35.9932H59.878L58.802 34.1474L58.2999 34.769V35.9932H57.5779V31.9429H58.2999V32.9902C58.2999 33.3536 58.2999 33.6357 58.2904 33.9704H58.3047V33.9657Z" fill="#0D1853"/>
<path fill-rule="evenodd" clip-rule="evenodd" d="M62.8326 34.4486V35.9884H62.1153V34.4486L60.8816 31.9381H61.6706L62.0627 32.9327C62.1966 33.277 62.3305 33.6118 62.4644 34.0039H62.4835C62.6174 33.6118 62.7513 33.2675 62.8804 32.928L63.2725 31.9429H64.052L62.8326 34.4534V34.4486Z" fill="#0D1853"/>
</svg>
