<svg width="80" height="28" viewBox="0 0 80 28" fill="none" xmlns="http://www.w3.org/2000/svg">
<g clip-path="url(#clip0_1311_45052)">
<path d="M-0.00161282 25.0864C5.61946 25.0864 11.2412 25.0864 16.8623 25.0864C18.0224 25.0864 19.1832 25.0864 20.3434 25.0864H20.51L20.5146 25.0575C20.456 25.0364 20.3974 25.014 20.3381 24.9942C19.8786 24.8382 19.7113 24.453 19.9477 24.0283C20.0386 23.8657 20.1808 23.7182 20.3302 23.6036C20.7622 23.2731 21.2744 23.1151 21.792 22.9755C22.3562 22.824 22.9291 22.7174 23.5105 22.6561C23.6435 22.6423 23.7515 22.589 23.8193 22.4619C23.8944 22.3223 23.9813 22.1886 24.0636 22.053L24.0412 22.0267C23.9925 22.0563 23.9431 22.0859 23.8944 22.1162C23.7001 22.238 23.4973 22.3361 23.2583 22.2947C23.1134 22.2696 23.041 22.1781 23.0311 22.0293C23.0134 21.7403 23.1569 21.5157 23.3268 21.3057C23.6343 20.9264 24.0254 20.6716 24.5001 20.5551C24.6588 20.5162 24.8208 20.5235 24.9597 20.6301C25.0446 20.6953 25.1204 20.692 25.204 20.6262C25.2777 20.5682 25.3594 20.5208 25.4371 20.4688L25.4726 20.507C25.42 20.5919 25.3686 20.6775 25.3153 20.7612C24.8208 21.5375 24.3355 22.3203 23.8279 23.0881C23.34 23.8262 22.725 24.4372 21.9223 24.8336C21.7228 24.9324 21.5062 24.9942 21.2626 25.0864C21.3627 25.0864 21.4338 25.0864 21.5049 25.0864C25.8545 25.0864 30.2041 25.0864 34.5538 25.0864C49.6399 25.0864 64.726 25.0864 79.812 25.0864C79.8739 25.0864 79.9352 25.0864 79.9971 25.0864V27.5062C53.3304 27.5062 26.6637 27.5062 -0.00292969 27.5062V25.0864H-0.00161282ZM20.8972 25.0186C21.2033 25.0186 21.5286 24.9212 21.815 24.7401C22.5722 24.2601 23.1319 23.5951 23.5849 22.8326C23.6 22.8069 23.6013 22.7727 23.6092 22.7431C23.5757 22.7378 23.5401 22.724 23.5085 22.7292C23.1734 22.7885 22.8369 22.8444 22.5037 22.9136C21.9915 23.0196 21.493 23.1704 21.0255 23.4107C20.7378 23.5589 20.4725 23.7393 20.3032 24.0257C20.1241 24.3286 20.1564 24.6538 20.3816 24.8474C20.5324 24.9771 20.7121 25.0258 20.8978 25.0186H20.8972ZM23.4809 21.7567C23.4749 22.0293 23.6178 22.1195 23.8193 22.028C24.0438 21.9266 24.2176 21.762 24.3586 21.5691C24.5106 21.361 24.6456 21.1391 24.7694 20.9126C24.803 20.8514 24.7944 20.7309 24.753 20.6775C24.7187 20.6334 24.6022 20.6229 24.5337 20.6413C24.4132 20.6742 24.2927 20.7263 24.188 20.7954C23.9339 20.964 23.7363 21.1898 23.5967 21.4611C23.5414 21.5691 23.5065 21.6876 23.4802 21.7561L23.4809 21.7567Z" fill="#0D1853"/>
<path d="M79.9984 2.29597L71.8338 2.30453L71.9806 2.32626C72.0063 2.33745 72.0306 2.35457 72.057 2.35984C72.4678 2.44148 72.8537 2.8721 72.8445 3.37844C72.8365 3.81827 72.6746 4.18897 72.4237 4.52609C72.0214 5.06667 71.4795 5.44593 70.9021 5.77778C70.9001 5.77909 70.8948 5.7758 70.879 5.76988C70.906 5.71128 70.9363 5.65465 70.9587 5.59473C71.0575 5.33465 71.1806 5.08049 71.2431 4.81251C71.3017 4.56099 71.2932 4.30683 71.0647 4.09942C70.7875 3.84724 70.7105 3.50749 70.7849 3.1493C70.8757 2.71407 71.1582 2.44938 71.5921 2.34864C71.6072 2.34535 71.7844 2.32165 71.8338 2.30453C71.7725 2.29399 71.5822 2.30189 71.5539 2.30123C71.4262 2.2986 71.2991 2.29663 71.1714 2.29663C47.4841 2.29663 23.7975 2.29663 0.110299 2.29663C0.0734267 2.29663 0.0365543 2.29663 -0.000976562 2.29663V0C26.665 0 53.3317 0 79.9984 0V2.29597Z" fill="#0D1853"/>
<path d="M-0.00195312 9.38274C0.0151662 9.33467 0.0428205 9.28727 0.048088 9.23788C0.0711333 9.02126 0.0711333 8.80134 0.111298 8.58801C0.174508 8.25089 0.246936 7.91377 0.343726 7.58521C0.690722 6.40266 1.29385 5.36957 2.19196 4.52019C2.81154 3.93418 3.52595 3.49237 4.33582 3.22109C4.64134 3.11904 4.96002 3.05451 5.27607 2.98801C5.89829 2.85698 6.5271 2.86488 7.15196 2.95377C7.85978 3.05451 8.51031 3.3192 9.12134 3.69122C9.55986 3.95854 9.95097 4.28447 10.3131 4.64266C10.5311 4.85797 10.7121 5.11081 10.9031 5.35179C10.9215 5.3755 10.9136 5.44858 10.8906 5.47295C10.4804 5.91081 10.0649 6.3434 9.65467 6.78126C9.57632 6.86422 9.53286 6.85632 9.46702 6.76612C9.13714 6.31311 8.7401 5.92793 8.26076 5.63492C7.62208 5.24447 6.93467 5.04562 6.17747 5.06932C5.47229 5.09171 4.83953 5.31887 4.25945 5.69681C3.92233 5.91673 3.62603 6.19262 3.36661 6.50537C2.97352 6.97879 2.67525 7.50488 2.48299 8.0876C2.34998 8.48924 2.25385 8.90011 2.23673 9.32612C2.23015 9.49402 2.19196 9.66258 2.20183 9.8285C2.23344 10.348 2.28545 10.8636 2.44809 11.3653C2.61204 11.8703 2.83525 12.3411 3.14076 12.773C3.38438 13.1174 3.68331 13.4097 4.00266 13.6843C4.26405 13.9095 4.55179 14.0879 4.86521 14.2242C5.3485 14.4343 5.85154 14.537 6.38356 14.5258C7.06175 14.512 7.67936 14.3078 8.24101 13.9523C8.68611 13.6705 9.07196 13.3083 9.39327 12.885C9.69352 12.4892 9.93385 12.0613 10.1031 11.5931C10.1393 11.4937 10.1064 11.4522 10.0142 11.439C9.96545 11.4325 9.91541 11.4338 9.86669 11.4338C8.99031 11.4338 8.11393 11.4338 7.23755 11.4338C7.06833 11.4338 7.06833 11.4331 7.06833 11.2613C7.06833 10.6772 7.07097 10.0925 7.0657 9.5085C7.06438 9.38998 7.10126 9.35245 7.21978 9.35245C8.86587 9.35509 10.5113 9.35509 12.1574 9.35245C12.2759 9.35245 12.3148 9.39328 12.3161 9.50916C12.3227 10.028 12.3115 10.5436 12.2265 11.0578C12.0705 12.0033 11.7538 12.8856 11.2711 13.7153C10.9597 14.2499 10.5883 14.7312 10.1406 15.1526C9.4387 15.8137 8.63278 16.2963 7.69319 16.5465C7.0927 16.7065 6.48562 16.7658 5.86669 16.7164C5.37023 16.6769 4.88496 16.5821 4.41286 16.4247C3.82027 16.2265 3.27311 15.9375 2.77072 15.5674C2.23739 15.1743 1.77648 14.7088 1.39459 14.1663C0.908664 13.4749 0.542574 12.7256 0.31673 11.9111C0.173849 11.3969 0.0711333 10.8754 0.0474296 10.3408C0.0454543 10.3006 0.0158247 10.2618 -0.00129469 10.2222C-0.00129469 9.94241 -0.00129469 9.66258 -0.00129469 9.38274H-0.00195312Z" fill="#0D1853"/>
<path d="M21.4552 16.4616C21.4071 16.4649 21.3716 16.4688 21.336 16.4688C20.5874 16.4688 19.8381 16.4675 19.0894 16.4708C18.9874 16.4708 18.9255 16.4392 18.8702 16.3509C18.5462 15.8367 18.215 15.3271 17.8865 14.8155C17.5586 14.3039 17.2313 13.7909 16.9028 13.2793C16.4945 12.6433 16.0856 12.0072 15.6768 11.3719C15.6583 11.3429 15.632 11.3185 15.6089 11.2922L15.5708 11.2981C15.5635 11.3626 15.5503 11.4265 15.5503 11.491C15.549 12.8737 15.5497 14.2565 15.5497 15.6392C15.5497 15.8696 15.5451 16.1001 15.5517 16.3305C15.555 16.4405 15.5148 16.4721 15.4088 16.4714C14.7708 16.4681 14.1334 16.4668 13.4954 16.4721C13.3703 16.4734 13.336 16.4319 13.3367 16.3088C13.34 13.0456 13.3393 9.78239 13.3393 6.51918C13.3393 5.48214 13.3406 4.4451 13.3367 3.40807C13.3367 3.29416 13.3709 3.25992 13.4835 3.26058C14.8412 3.26387 16.1996 3.25136 17.5573 3.26848C18.1498 3.27572 18.699 3.47654 19.2066 3.78469C19.8203 4.15671 20.2871 4.66634 20.6183 5.29844C20.8666 5.77251 21.0206 6.28016 21.0279 6.81679C21.0331 7.19276 21.0266 7.57531 20.9607 7.94337C20.883 8.37794 20.7092 8.78946 20.488 9.17662C20.056 9.93251 19.4779 10.5409 18.7036 10.9505C18.5587 11.0268 18.406 11.0894 18.2532 11.148C18.1604 11.1835 18.1525 11.2309 18.2005 11.3067C18.4725 11.7327 18.7451 12.1587 19.0144 12.5867C19.3515 13.122 19.6847 13.6593 20.0224 14.1939C20.3095 14.6489 20.6012 15.1012 20.8909 15.5542C21.0654 15.8275 21.2405 16.1007 21.4144 16.374C21.4289 16.397 21.4381 16.4234 21.4552 16.4609V16.4616ZM15.5497 7.28955C15.5497 7.92296 15.5497 8.55638 15.5497 9.19045C15.5497 9.33663 15.5661 9.3544 15.713 9.35506C16.0626 9.35638 16.4122 9.35967 16.7619 9.35506C17.2465 9.34848 17.6909 9.21481 18.0465 8.87374C18.6628 8.28313 18.9123 7.56082 18.7635 6.71539C18.6068 5.82189 17.9589 5.30041 17.0786 5.25761C16.6229 5.23523 16.1653 5.25169 15.709 5.25234C15.5569 5.25234 15.5497 5.26091 15.5497 5.41432C15.5497 6.03984 15.5497 6.66469 15.5497 7.29021V7.28955Z" fill="#0D1853"/>
<path d="M45.2366 11.2191C45.2445 11.1704 45.259 11.121 45.259 11.0723C45.2597 8.56229 45.259 6.05233 45.259 3.54171C45.259 3.21513 45.2261 3.25859 45.5402 3.25793C46.0301 3.25661 46.5193 3.2599 47.0091 3.25464C47.1217 3.25332 47.1593 3.28888 47.1586 3.40278C47.154 3.89661 47.1566 4.39044 47.1566 4.88427C47.158 8.69069 47.1586 12.4971 47.1599 16.3035C47.1599 16.347 47.1599 16.3904 47.1599 16.4339L47.1007 16.4767C47.0809 16.4365 47.0684 16.3891 47.0401 16.3575C46.4534 15.7076 45.8648 15.0597 45.2768 14.4112C44.3412 13.3794 43.4062 12.3476 42.4699 11.3165C41.8812 10.6686 41.2906 10.0234 40.7007 9.37612C40.5124 9.16937 40.3267 8.96064 40.1364 8.75587C40.1094 8.7269 40.062 8.71636 40.0245 8.69727C40.0087 8.73678 39.981 8.77562 39.979 8.81579C39.9724 8.94287 39.9757 9.0706 39.9757 9.19834C39.9757 11.5562 39.9757 13.9141 39.9757 16.2719C39.9757 16.4032 39.9094 16.4688 39.7769 16.4688C39.2337 16.4688 38.6905 16.4688 38.1473 16.4688C37.9853 16.4688 37.9846 16.4675 37.9846 16.3029C37.9846 11.9947 37.9846 7.68591 37.9846 3.37776C37.9846 3.33101 37.9925 3.28427 38.0011 3.19867C40.4156 5.89694 42.8044 8.5669 45.1925 11.2369L45.2366 11.2197V11.2191Z" fill="#0D1853"/>
<path d="M30.3991 9.8443C30.3991 7.69648 30.3991 5.54866 30.3991 3.40084C30.3991 3.27969 30.4606 3.21912 30.5835 3.21912C32.5871 3.21912 34.5914 3.21912 36.595 3.21912C36.7188 3.21912 36.7807 3.27969 36.7807 3.40084C36.7807 3.96447 36.7781 4.52809 36.7827 5.09171C36.7833 5.2122 36.7497 5.25303 36.622 5.25237C35.371 5.24776 34.1206 5.24973 32.8696 5.24973C32.6674 5.24973 32.6641 5.25368 32.6641 5.45846C32.6641 6.47903 32.6641 7.49961 32.6641 8.51953C32.6641 8.76052 32.6674 8.76315 32.9025 8.76315C34.0008 8.76315 35.0997 8.76315 36.198 8.76315C36.385 8.76315 36.387 8.7671 36.3863 8.94619C36.3856 9.50455 36.3863 10.0636 36.3863 10.6219C36.3863 10.805 36.3797 10.8102 36.2 10.8102C35.0892 10.8102 33.9784 10.8102 32.8669 10.8102C32.6753 10.8102 32.6635 10.8227 32.6635 11.0124C32.6635 12.0659 32.6635 13.1194 32.6635 14.1722C32.6635 14.3697 32.6674 14.3743 32.8617 14.3743C34.1081 14.3743 35.3552 14.3743 36.6016 14.3743C36.7201 14.3743 36.7794 14.4336 36.7794 14.5521C36.7794 15.1362 36.7794 15.7208 36.7794 16.3049C36.7794 16.4583 36.7715 16.4669 36.62 16.4669C34.5953 16.4669 32.5713 16.4662 30.5466 16.4688C30.4235 16.4688 30.3958 16.4241 30.3965 16.3101C30.3991 14.1538 30.3985 11.998 30.3985 9.84167L30.3991 9.8443Z" fill="#0D1853"/>
<path d="M22.3733 9.83908C22.3733 7.69126 22.3733 5.54344 22.3733 3.39563C22.3733 3.21851 22.374 3.21851 22.5472 3.21851C24.5508 3.21851 26.5551 3.21851 28.5587 3.21851C28.7365 3.21851 28.7371 3.21851 28.7371 3.39299C28.7371 3.95661 28.7371 4.52023 28.7371 5.08386C28.7371 5.24846 28.7358 5.24912 28.5745 5.24978C27.3235 5.25044 26.0731 5.2511 24.8221 5.25176C24.6357 5.25176 24.6351 5.25242 24.6351 5.43678C24.6351 6.46525 24.6351 7.49439 24.6351 8.52287C24.6351 8.7599 24.6397 8.76517 24.8747 8.76517C25.9776 8.76517 27.0805 8.76517 28.1827 8.76517C28.3671 8.76517 28.3677 8.76583 28.3677 8.94822C28.3677 9.51184 28.3677 10.0755 28.3677 10.6391C28.3677 10.8116 28.3677 10.8123 28.1979 10.8123C27.0831 10.8123 25.9677 10.8123 24.853 10.8123C24.6377 10.8123 24.6344 10.8162 24.6344 11.0341C24.6344 12.0791 24.6344 13.1247 24.6344 14.1696C24.6344 14.3074 24.7016 14.3766 24.8359 14.377C26.0784 14.377 27.3208 14.377 28.564 14.377C28.7358 14.377 28.7358 14.377 28.7358 14.5436C28.7358 15.1323 28.7325 15.7202 28.7384 16.3089C28.7398 16.4333 28.7009 16.4715 28.5765 16.4715C26.5603 16.4682 24.5442 16.4682 22.5281 16.4715C22.4017 16.4715 22.3687 16.43 22.3694 16.3076C22.3727 14.1512 22.372 11.9955 22.372 9.83908H22.3733Z" fill="#0D1853"/>
<path d="M66.9175 9.83645C66.9175 7.68863 66.9175 5.54081 66.9175 3.39299C66.9175 3.21916 66.9175 3.21851 67.0953 3.21851C67.7287 3.21851 68.3627 3.21851 68.9962 3.21851C69.1191 3.21851 69.1807 3.28259 69.1812 3.41077C69.1812 6.91628 69.1812 10.4225 69.1812 13.928C69.1812 14.0267 69.1878 14.1262 69.1799 14.2243C69.1706 14.3461 69.224 14.379 69.3385 14.3783C69.9272 14.3744 70.5152 14.3764 71.1038 14.3764C71.7827 14.3764 72.4615 14.3797 73.1404 14.3737C73.2668 14.3724 73.2997 14.4113 73.2984 14.535C73.2918 15.1316 73.2925 15.7281 73.2984 16.3247C73.2997 16.4432 73.2569 16.4702 73.1489 16.4702C71.1242 16.4676 69.1002 16.4682 67.0755 16.4676C66.9227 16.4676 66.9175 16.461 66.9175 16.2918C66.9175 14.14 66.9175 11.9876 66.9175 9.83579V9.83645Z" fill="#0D1853"/>
<path d="M59.4804 9.84694C59.4804 7.70308 59.4804 5.55921 59.4804 3.41468C59.4804 3.21847 59.4811 3.21847 59.6746 3.21847C60.3127 3.21847 60.95 3.22044 61.5881 3.21649C61.6947 3.21649 61.7401 3.23624 61.7401 3.35871C61.7375 5.66324 61.7401 7.96777 61.7408 10.2723C61.7408 11.5727 61.7408 12.8731 61.7408 14.1735C61.7408 14.3757 61.7421 14.3763 61.9482 14.3763C63.1907 14.3763 64.4338 14.3763 65.6763 14.3763C65.8442 14.3763 65.8448 14.3763 65.8448 14.5475C65.8448 15.1316 65.8448 15.7162 65.8448 16.3003C65.8448 16.4669 65.8429 16.4688 65.6822 16.4688C63.67 16.4688 61.6578 16.4688 59.6457 16.4688C59.4824 16.4688 59.4797 16.4662 59.4797 16.3036C59.4797 14.1511 59.4797 11.9994 59.4797 9.84694H59.4804Z" fill="#0D1853"/>
<path d="M73.4213 11.7518C73.8012 11.3363 74.1574 10.9465 74.5413 10.5258C74.5841 10.585 74.6164 10.6318 74.6513 10.6766C74.9686 11.0933 75.3874 11.3666 75.8845 11.5101C76.1341 11.5819 76.3968 11.6451 76.6542 11.6445C77.1013 11.6445 77.5168 11.5121 77.8631 11.2026C78.2246 10.8794 78.33 10.2143 78.0837 9.79425C77.8822 9.45055 77.5708 9.23985 77.2211 9.08775C76.7247 8.87244 76.2183 8.67952 75.714 8.48199C75.0384 8.2173 74.4603 7.82684 74.0811 7.19277C73.8177 6.75228 73.7104 6.26635 73.7347 5.75277C73.7709 5.00018 74.0521 4.35623 74.6137 3.85055C75.1168 3.39689 75.7166 3.15853 76.3902 3.07952C76.7714 3.03475 77.1454 3.04528 77.5174 3.12034C78.2404 3.26586 78.8495 3.61944 79.3499 4.1587C79.3709 4.18174 79.3736 4.25417 79.3538 4.27853C79.0569 4.64594 78.7533 5.00874 78.4537 5.37351C78.405 5.43277 78.3662 5.42816 78.3102 5.38273C78.1377 5.2438 77.9665 5.10092 77.7841 4.97582C77.4595 4.75392 77.0901 4.64199 76.701 4.6703C76.2058 4.70652 75.7851 4.88824 75.5764 5.39195C75.4164 5.77845 75.5303 6.2466 75.8411 6.52643C76.0952 6.75491 76.4113 6.84117 76.7142 6.96561C77.2798 7.19738 77.8506 7.42059 78.3984 7.68989C78.9179 7.94536 79.3189 8.35228 79.6021 8.85927C79.8983 9.39063 80.0017 9.96874 79.9346 10.5719C79.8345 11.4792 79.3874 12.1771 78.6447 12.7012C78.2654 12.9692 77.8513 13.1391 77.4009 13.2359C77.0868 13.3037 76.7701 13.3465 76.4501 13.3202C75.6014 13.2491 74.8198 12.9956 74.1647 12.428C73.9171 12.2133 73.6794 11.9868 73.4207 11.7511L73.4213 11.7518Z" fill="#0D1853"/>
<path d="M16.3005 21.3538C16.3019 20.908 16.4711 20.5222 16.7364 20.1752C17.2915 19.4476 18.0263 18.9775 18.8902 18.7082C19.2912 18.5831 19.7033 18.5508 20.1056 18.7332C20.4783 18.9017 20.6317 19.2639 20.6028 19.6412C20.5534 20.2726 20.2044 20.7427 19.7771 21.1668C19.3122 21.6277 18.7644 21.9615 18.1448 22.1742C17.7662 22.3039 17.3804 22.3625 16.9847 22.2532C16.5251 22.1261 16.3019 21.8331 16.3005 21.3551V21.3538ZM16.7845 21.4723C16.7845 21.5342 16.7825 21.5961 16.7845 21.6573C16.7944 21.9384 16.9965 22.1617 17.275 22.2091C17.5246 22.2519 17.7596 22.1946 17.9828 22.0965C18.6512 21.8041 19.1786 21.3386 19.6072 20.7539C19.8943 20.3628 20.1056 19.9401 20.134 19.4476C20.1563 19.0565 19.9878 18.7319 19.546 18.7016C19.3642 18.6891 19.1654 18.7299 18.9949 18.7977C18.2311 19.1019 17.6378 19.6221 17.1842 20.3022C16.9491 20.6552 16.7733 21.0324 16.7838 21.4716L16.7845 21.4723Z" fill="#0D1853"/>
<path d="M43.4524 22.211C43.5926 22.1169 43.6078 21.978 43.6078 21.8292C43.6065 21.039 43.6078 20.2496 43.6071 19.4594C43.6071 19.2882 43.6335 19.1105 43.4563 18.9702C43.5182 18.9623 43.5492 18.9551 43.5801 18.9551C44.0819 18.9564 44.5836 18.9518 45.0853 18.9623C45.6911 18.9755 46.2593 19.4114 46.443 19.9908C46.6149 20.5327 46.576 21.0463 46.2224 21.5098C45.9242 21.9009 45.5232 22.1452 45.0386 22.192C44.5177 22.242 43.991 22.2361 43.4675 22.2552L43.4537 22.211H43.4524ZM44.041 20.5557C44.041 20.9673 44.041 21.3781 44.041 21.7896C44.041 21.9424 44.0601 21.9549 44.2135 21.9859C44.4973 22.0418 44.7791 22.0247 45.0596 21.9753C45.3908 21.9167 45.6911 21.7804 45.8577 21.4743C46.1309 20.9738 46.2 20.4399 45.9558 19.9111C45.7319 19.4272 45.3526 19.1414 44.7897 19.1572C44.6007 19.1625 44.4111 19.1572 44.2221 19.1579C44.0417 19.1579 44.041 19.1585 44.041 19.3343C44.041 19.7413 44.041 20.1488 44.041 20.5557Z" fill="#0D1853"/>
<path d="M55.4347 22.2045C55.5809 22.1143 55.5809 21.976 55.5809 21.8324C55.5783 20.9975 55.5776 20.1626 55.5809 19.3284C55.5809 19.1954 55.5658 19.0756 55.4466 18.9702C55.4947 18.9636 55.5243 18.9551 55.5539 18.9551C56.0556 18.9564 56.5574 18.9524 57.0584 18.9623C57.7004 18.9748 58.2851 19.4515 58.4497 20.0784C58.7282 21.1378 58.0981 21.9194 57.2152 22.1538C57.0117 22.2078 56.7951 22.2262 56.5831 22.2341C56.2505 22.2473 55.9174 22.2374 55.5842 22.2374C55.5408 22.2374 55.4966 22.2374 55.4532 22.2374L55.4341 22.2045H55.4347ZM56.0161 20.5432C56.0161 20.9547 56.0161 21.3663 56.0161 21.7771C56.0161 21.9464 56.0293 21.9516 56.2018 21.9852C56.4817 22.0405 56.7595 22.0234 57.0361 21.9766C57.412 21.9128 57.7268 21.7376 57.8907 21.3808C58.1106 20.9034 58.162 20.4036 57.9375 19.9138C57.711 19.4193 57.3277 19.1414 56.7621 19.1559C56.5646 19.1612 56.3671 19.1618 56.1696 19.1546C56.053 19.15 56.0109 19.1875 56.0128 19.308C56.0188 19.7195 56.0155 20.1304 56.0155 20.5419L56.0161 20.5432Z" fill="#0D1853"/>
<path d="M9.46881 20.3602C9.37795 20.4722 9.2535 20.5367 9.1205 20.588C8.89005 20.6769 8.6563 20.698 8.42585 20.594C8.07029 20.434 7.93334 19.9869 8.11243 19.6004C8.25202 19.2995 8.50947 19.1355 8.79787 19.0124C9.18305 18.8484 9.59062 18.7563 10.0061 18.7398C10.8357 18.7075 11.6667 18.7003 12.497 18.6838C12.5246 18.6838 12.5529 18.6898 12.5799 18.6924C12.597 18.8254 12.5312 18.9031 12.3949 18.9044C12.1026 18.9077 11.8102 18.9149 11.5185 18.9024C11.2854 18.8926 11.1044 18.9841 10.9747 19.1599C10.7949 19.4042 10.629 19.659 10.471 19.9177C10.2379 20.2996 10.0384 20.7039 9.78486 21.0713C9.31803 21.7475 8.6721 22.1597 7.85103 22.2934C7.52379 22.3467 7.21235 22.3276 6.91079 22.192C6.47095 21.9938 6.40313 21.3913 6.79293 21.1016C7.03391 20.9232 7.30651 20.8909 7.58766 21.0035C7.69103 21.045 7.77531 21.1148 7.82931 21.2517C7.78124 21.2373 7.75293 21.2366 7.73515 21.2228C7.39342 20.9581 6.97729 21.1108 6.89498 21.5316C6.81663 21.9319 7.06091 22.2032 7.49745 22.2256C8.17696 22.2605 8.70042 21.9688 9.07638 21.4328C9.38717 20.9903 9.65054 20.513 9.92577 20.0461C10.1582 19.6524 10.3755 19.2494 10.7699 18.9847C10.7844 18.9749 10.791 18.9531 10.8127 18.9182C10.7587 18.9123 10.7205 18.9051 10.6823 18.9051C10.3491 18.9044 10.0153 18.8985 9.68215 18.9064C9.40165 18.9136 9.12511 18.9531 8.86766 19.0749C8.40214 19.2942 8.29021 19.8348 8.44494 20.2338C8.55161 20.5084 8.86371 20.6045 9.16264 20.4715C9.25943 20.4287 9.35227 20.378 9.44708 20.3306L9.46881 20.3596V20.3602Z" fill="#0D1853"/>
<path d="M39.9443 20.5241C39.9232 21.4789 39.1443 22.2637 38.2132 22.2624C37.2598 22.2611 36.5131 21.5302 36.5033 20.6091C36.4934 19.6339 37.2894 18.9386 38.1796 18.9235C39.1759 18.9064 39.9225 19.5793 39.9443 20.5241ZM37.0004 20.534C37.0004 20.9877 37.0932 21.2873 37.3217 21.5915C37.8432 22.2861 38.8684 22.1999 39.2437 21.4203C39.5064 20.8744 39.5057 20.3134 39.2351 19.7696C38.8427 18.9821 37.8155 18.8734 37.3 19.5595C37.0794 19.8525 36.9892 20.189 37.001 20.534H37.0004Z" fill="#0D1853"/>
<path d="M48.5992 18.9202C49.338 18.9202 49.978 19.3277 50.2124 19.9967C50.4323 20.6242 50.2829 21.197 49.8411 21.6876C49.5092 22.0556 49.0871 22.2703 48.5907 22.2617C47.8684 22.2492 47.3225 21.9154 47.0131 21.251C46.6266 20.4207 47.0368 19.4285 47.9046 19.0624C48.1265 18.9689 48.3648 18.9202 48.5992 18.9202ZM49.8002 20.6947C49.8002 20.2779 49.7278 19.9947 49.5691 19.7057C49.1971 19.0275 48.295 18.9037 47.7564 19.4588C47.5201 19.7024 47.4081 20.0053 47.3719 20.3345C47.3087 20.9106 47.4476 21.4222 47.9046 21.8094C48.3378 22.1761 48.9857 22.1465 49.3848 21.7435C49.6962 21.4288 49.7831 21.0272 49.7996 20.6953L49.8002 20.6947Z" fill="#0D1853"/>
<path d="M59.119 18.9604C59.1046 18.9637 59.123 18.9558 59.1414 18.9558C59.5115 18.9578 59.8855 18.9261 60.2502 18.9709C60.9159 19.0532 61.1832 19.634 60.9343 20.1317C60.8376 20.3253 60.6677 20.4399 60.4728 20.5202C60.4083 20.5466 60.3773 20.5821 60.4366 20.6348C60.7783 20.935 60.9594 21.3472 61.1984 21.7186C61.2603 21.8154 61.3222 21.9141 61.3972 21.9997C61.4683 22.0814 61.5572 22.1479 61.6343 22.2177C61.3143 22.325 61.0627 22.2368 60.883 21.9471C60.669 21.6014 60.455 21.2557 60.241 20.91C60.1185 20.7118 59.8631 20.6058 59.6438 20.6697C59.6162 20.6776 59.5826 20.7263 59.5826 20.7566C59.5786 21.1721 59.5753 21.5875 59.5852 22.0024C59.5872 22.0748 59.6524 22.1452 59.6919 22.2243H59.0486C59.2277 22.0445 59.179 21.8246 59.1796 21.6165C59.1822 20.8764 59.1842 20.1364 59.1776 19.3956C59.1763 19.254 59.1394 19.1125 59.1171 18.9591L59.119 18.9604ZM59.5799 19.7986C59.5799 19.9915 59.5819 20.1844 59.5793 20.378C59.578 20.4603 59.6083 20.4873 59.6932 20.4972C60.0218 20.534 60.2739 20.3905 60.4958 20.1732C60.667 20.0047 60.7072 19.7617 60.59 19.551C60.4076 19.2238 60.1106 19.096 59.7485 19.0934C59.5846 19.0921 59.5799 19.0967 59.5799 19.256C59.5793 19.4364 59.5799 19.6175 59.5799 19.7979V19.7986Z" fill="#0D1853"/>
<path d="M70.883 19.4785V19.6201C70.883 20.3483 70.8803 21.0765 70.8856 21.8048C70.8862 21.9437 70.9185 22.082 70.9363 22.2275H70.6374C70.6499 22.1195 70.6716 22.0207 70.6716 21.922C70.6742 21.066 70.6716 20.2107 70.6736 19.3547C70.6736 19.2072 70.6808 19.0617 70.5083 18.9834L70.5274 18.9557C70.6973 18.9557 70.8671 18.9491 71.0364 18.9603C71.0785 18.963 71.1246 19.0156 71.1562 19.0551C71.7409 19.7774 72.3236 20.5011 72.9057 21.2253C72.9386 21.2662 72.9603 21.3156 72.988 21.361L73.0387 21.3241C73.0433 21.2767 73.0512 21.2293 73.0512 21.1819C73.0518 20.5485 73.0545 19.9151 73.0485 19.2816C73.0479 19.1789 73.009 19.0769 72.986 18.9663H73.3949C73.2434 19.1012 73.2757 19.2658 73.2757 19.4226C73.2757 20.3154 73.2757 21.2082 73.2757 22.1004C73.2757 22.1518 73.2711 22.2038 73.2388 22.2677C72.4711 21.3307 71.7027 20.3944 70.935 19.4574L70.8823 19.4798L70.883 19.4785Z" fill="#0D1853"/>
<path d="M50.9587 19.4773C50.956 19.5286 50.9508 19.5806 50.9508 19.632C50.9508 20.3688 50.9481 21.1049 50.9527 21.8417C50.9534 21.9681 50.9843 22.0952 51.0015 22.2282H50.7025C50.7157 22.088 50.7381 21.9563 50.7388 21.8246C50.742 21.0015 50.7388 20.1785 50.742 19.3554C50.742 19.208 50.7302 19.075 50.5952 18.9637C50.771 18.9637 50.9468 18.9571 51.1213 18.9689C51.1608 18.9716 51.1997 19.0361 51.2332 19.0769C51.8179 19.7992 52.402 20.5222 52.986 21.2445C53.0104 21.2748 53.0387 21.3031 53.0867 21.3564C53.0946 21.2833 53.1032 21.2412 53.1032 21.1991C53.1045 20.5446 53.1065 19.8908 53.1019 19.2363C53.1019 19.1494 53.0657 19.0631 53.0439 18.9663H53.4331C53.2955 19.1731 53.3462 19.4042 53.3429 19.6215C53.3304 20.4445 53.3383 21.2675 53.3376 22.0906C53.3376 22.1452 53.3304 22.2005 53.2974 22.2651L51.0008 19.4608L50.96 19.4773H50.9587Z" fill="#0D1853"/>
<path d="M40.2303 18.9558C40.3903 18.9558 40.5503 18.9505 40.709 18.9591C40.7498 18.961 40.7992 18.9979 40.8268 19.0328C41.4122 19.7544 41.9949 20.4781 42.5789 21.2004C42.6132 21.2432 42.654 21.2807 42.7159 21.3465C42.7238 21.2682 42.7317 21.2261 42.7317 21.1839C42.7324 20.5505 42.7343 19.9171 42.7297 19.2837C42.7291 19.1803 42.6968 19.0776 42.6777 18.9656H43.078C42.9233 19.1164 42.972 19.2949 42.9714 19.4614C42.9687 20.3622 42.97 21.2629 42.97 22.1643C42.97 22.1999 42.9668 22.2354 42.9628 22.3072C42.5546 21.8101 42.1668 21.3393 41.7803 20.8679C41.3964 20.3997 41.0132 19.9303 40.63 19.4614L40.5924 19.4759C40.5885 19.526 40.5812 19.5767 40.5812 19.6267C40.5806 20.3549 40.5786 21.0832 40.5826 21.8107C40.5832 21.9457 40.6102 22.0814 40.626 22.2262H40.3383C40.3482 22.0787 40.3666 21.9345 40.3666 21.7903C40.3692 20.9923 40.3666 20.1943 40.3692 19.3963C40.3692 19.2382 40.3877 19.0789 40.2026 18.9861L40.2296 18.9558H40.2303Z" fill="#0D1853"/>
<path d="M14.622 17.7409C14.5917 17.766 14.5647 17.8009 14.5298 17.8134C14.0439 17.9957 13.6567 18.319 13.2992 18.6805C12.6927 19.2935 12.2483 20.0257 11.8058 20.7579C11.792 20.7809 11.7861 20.8079 11.794 20.8547C11.8355 20.8283 11.8776 20.8033 11.9178 20.7743C12.1081 20.6374 12.3102 20.5347 12.5538 20.5426C12.7586 20.5492 12.8929 20.6947 12.8257 20.885C12.7474 21.1069 12.6276 21.3149 12.5189 21.5256C12.4491 21.6606 12.3629 21.7864 12.2937 21.9213C12.274 21.9595 12.2681 22.0306 12.2911 22.057C12.3128 22.082 12.3839 22.082 12.4254 22.0688C12.5163 22.0405 12.6019 21.9964 12.6901 21.9589L12.7072 21.9846C12.6875 22.0069 12.6723 22.0359 12.648 22.0497C12.4899 22.136 12.3339 22.2269 12.1699 22.2999C12.0389 22.3585 11.9276 22.3217 11.8467 22.2269C11.7591 22.1241 11.8006 22.0221 11.8552 21.9299C11.9882 21.7034 12.1324 21.4828 12.2667 21.257C12.3207 21.1655 12.3681 21.0687 12.4063 20.9692C12.461 20.8283 12.3932 20.7533 12.2463 20.7763C11.8941 20.8316 11.655 21.0509 11.4641 21.3294C11.2692 21.6139 11.0888 21.9088 10.8965 22.1953C10.8643 22.2427 10.803 22.271 10.755 22.3078C10.724 22.244 10.6608 22.1762 10.6681 22.1169C10.6839 21.9898 10.7102 21.8515 10.7767 21.7449C11.2448 20.9903 11.7038 20.2298 12.2048 19.4976C12.6947 18.7813 13.3288 18.2124 14.1334 17.8568C14.2816 17.7916 14.4402 17.7508 14.5936 17.6988L14.6226 17.7409H14.622Z" fill="#0D1853"/>
<path d="M68.2895 19.8222C68.1269 19.4989 67.9116 19.283 67.6014 19.1723C66.8903 18.9195 66.2418 19.223 65.9876 19.9355C65.7861 20.4991 65.8322 21.043 66.1614 21.5493C66.4577 22.0049 66.9845 22.1498 67.4849 22.0464C67.6535 22.0115 67.8108 21.9207 67.9702 21.8482C68.0571 21.8087 68.0907 21.7343 68.0841 21.6356C68.0775 21.5375 68.0834 21.438 68.0828 21.3393C68.0814 21.1937 68.117 21.0377 67.9728 20.9179H68.514C68.3968 21.2234 68.4245 21.5335 68.5009 21.8792C68.3507 21.9457 68.1881 22.028 68.0182 22.0919C67.6475 22.2321 67.2617 22.2861 66.8679 22.238C66.1878 22.1544 65.58 21.6843 65.4154 20.9699C65.2238 20.1356 65.7321 19.3653 66.4545 19.0584C66.9055 18.8668 67.3611 18.8919 67.8168 19.0288C68.2513 19.1592 68.25 19.1651 68.2895 19.624C68.2941 19.6767 68.2895 19.73 68.2895 19.8222Z" fill="#0D1853"/>
<path d="M61.4438 18.9629H62.1754C62.0746 19.0815 62.1135 19.1789 62.182 19.2843C62.3848 19.5983 62.581 19.9164 62.7792 20.2337C62.8193 20.2983 62.8582 20.3378 62.9075 20.241C63.0847 19.8979 63.2651 19.5569 63.4363 19.2105C63.4699 19.142 63.4652 19.0545 63.481 18.9597H63.8702C63.5245 19.4291 63.2894 19.9532 63.0057 20.4484C62.9635 20.5221 62.9411 20.6176 62.9398 20.7039C62.9326 21.0864 62.9372 21.469 62.9365 21.8515C62.9365 21.9832 62.9247 22.1175 63.0787 22.2275H62.3294C62.5316 22.1037 62.5006 21.9318 62.5013 21.7699C62.5026 21.4038 62.5052 21.0377 62.4987 20.6716C62.4973 20.5939 62.4756 20.507 62.4355 20.4411C62.201 20.0546 61.9614 19.6714 61.7158 19.2922C61.6394 19.175 61.5373 19.0749 61.4445 18.9636L61.4438 18.9629Z" fill="#0D1853"/>
<path d="M36.3747 21.8377C36.3608 21.9509 36.3503 22.0642 36.3292 22.1761C36.3246 22.1998 36.2812 22.2341 36.2555 22.2341C35.6392 22.2374 35.0235 22.2367 34.377 22.2367C34.5633 22.0392 34.4961 21.8147 34.4974 21.6053C34.504 20.8652 34.5027 20.1258 34.4974 19.3857C34.4968 19.2481 34.4658 19.1105 34.4474 18.9636H34.9735C34.9537 19.1137 34.9202 19.256 34.9195 19.3975C34.9142 20.1988 34.9169 21.0008 34.9169 21.8021C34.9169 21.9858 34.9175 21.9858 35.1019 21.9858C35.3238 21.9858 35.5457 21.9819 35.7676 21.9872C35.9789 21.9918 36.189 22.003 36.3483 21.8153L36.374 21.8384L36.3747 21.8377Z" fill="#0D1853"/>
<path d="M28.2803 22.0056C28.0815 22.1781 27.8636 22.3164 27.585 22.3131C27.4382 22.3118 27.3592 22.2051 27.3915 22.0623C27.4073 21.9918 27.4395 21.922 27.4764 21.8595C27.6212 21.6158 27.7733 21.3768 27.9175 21.1332C27.9524 21.0746 27.9808 21.0075 27.9946 20.9403C28.0196 20.8172 27.9452 20.7362 27.8273 20.775C27.6746 20.8251 27.5027 20.8751 27.3901 20.9798C27.1913 21.1648 27.0194 21.3834 26.8568 21.6027C26.71 21.8002 26.5921 22.0181 26.4571 22.2242C26.4328 22.2618 26.3854 22.2835 26.3485 22.3131C26.3169 22.273 26.2708 22.2374 26.2563 22.1913C26.2017 22.0214 26.2873 21.8759 26.3636 21.7377C26.4782 21.5289 26.6105 21.3307 26.7317 21.126C26.7752 21.0522 26.8153 20.9745 26.8443 20.8942C26.8759 20.8073 26.8278 20.7566 26.7376 20.7803C26.6751 20.7968 26.6165 20.829 26.5566 20.854C26.5171 20.8712 26.4775 20.8889 26.438 20.9061L26.4176 20.8823C26.4341 20.86 26.4466 20.829 26.4683 20.8172C26.6422 20.727 26.8114 20.6242 26.9944 20.5577C27.1854 20.4886 27.3111 20.5972 27.3124 20.8014C27.3124 20.8251 27.3157 20.8488 27.3197 20.8962C27.3855 20.8527 27.4356 20.8126 27.4915 20.7842C27.6443 20.7079 27.7957 20.6256 27.9551 20.5663C28.0947 20.5149 28.2474 20.5136 28.3547 20.6387C28.4621 20.7645 28.4291 20.9159 28.3646 21.0463C28.2665 21.2445 28.148 21.4321 28.0394 21.6251C27.9788 21.7324 27.9182 21.8397 27.8655 21.951C27.8504 21.9826 27.851 22.0399 27.8708 22.0642C27.8879 22.0853 27.9459 22.0873 27.9794 22.0774C28.0775 22.0478 28.173 22.0076 28.2691 21.9714L28.2817 22.0043L28.2803 22.0056Z" fill="#0D1853"/>
<path d="M34.1155 18.535C34.0681 18.5831 34.0464 18.6219 34.0154 18.6338C33.5348 18.8115 33.1957 19.1717 32.8566 19.5312C32.2232 20.2028 31.7498 20.9877 31.2763 21.7725C31.2388 21.8351 31.2046 21.9022 31.1835 21.972C31.1532 22.0747 31.196 22.1156 31.2974 22.084C31.3633 22.0636 31.4251 22.0293 31.4897 22.0023C31.5239 21.9878 31.5588 21.976 31.6082 21.9865C31.5983 22.0023 31.5917 22.0247 31.5779 22.0319C31.4014 22.1254 31.2276 22.2262 31.0452 22.3052C30.9399 22.3506 30.8194 22.3375 30.7437 22.2328C30.6732 22.1353 30.6963 22.0293 30.7568 21.9325C31.2335 21.1707 31.6727 20.3832 32.266 19.7004C32.7098 19.1895 33.2319 18.7885 33.8851 18.5778C33.9358 18.5613 33.9878 18.5488 34.0398 18.5357C34.0503 18.533 34.0628 18.5357 34.1162 18.5357L34.1155 18.535Z" fill="#0D1853"/>
<path d="M30.5324 22.0102C30.3474 22.1663 30.1485 22.298 29.895 22.3131C29.71 22.3243 29.6356 22.2473 29.631 22.0583C29.631 22.0432 29.6257 22.028 29.6185 21.9898C29.5678 22.0241 29.5283 22.0484 29.4914 22.0761C29.3347 22.1939 29.1635 22.2769 28.9686 22.3125C28.6618 22.3671 28.4834 22.1748 28.5551 21.872C28.6322 21.5447 28.8284 21.2965 29.0674 21.0766C29.3406 20.8237 29.6554 20.646 30.0228 20.5643C30.2006 20.5248 30.3612 20.5373 30.5146 20.6486C30.5528 20.6763 30.6305 20.6776 30.6773 20.6591C30.7444 20.6335 30.7984 20.5762 30.861 20.5367C30.8952 20.5149 30.9354 20.5024 30.9722 20.486L30.994 20.5123C30.8847 20.6881 30.776 20.8646 30.6661 21.0404C30.4988 21.3083 30.3257 21.5737 30.1663 21.8469C30.1294 21.9095 30.136 21.9977 30.1222 22.0741C30.1986 22.0623 30.2756 22.0557 30.35 22.0372C30.4066 22.0234 30.46 21.9938 30.5146 21.9714L30.5318 22.0096L30.5324 22.0102ZM29.2419 22.0774C29.2913 22.0544 29.3913 22.0241 29.473 21.9674C29.8569 21.7028 30.0965 21.3228 30.3 20.9153C30.3382 20.8389 30.3592 20.7572 30.2908 20.6861C30.219 20.6124 30.1314 20.6163 30.0392 20.644C29.6376 20.7658 29.3716 21.0509 29.1622 21.3926C29.0845 21.519 29.0384 21.6685 29.0009 21.8134C28.9614 21.9661 29.0522 22.0761 29.2432 22.0767L29.2419 22.0774Z" fill="#0D1853"/>
<path d="M69.7958 22.2282H69.1189C69.3204 22.0214 69.246 21.7745 69.2486 21.5447C69.2558 20.8455 69.2519 20.1456 69.2512 19.4463C69.2512 19.2837 69.2776 19.1158 69.138 18.9656H69.7826C69.6272 19.0973 69.6542 19.2494 69.6542 19.3956C69.6542 20.1772 69.6529 20.9594 69.6542 21.7409C69.6542 21.9062 69.6147 22.0814 69.7951 22.2282H69.7958Z" fill="#0D1853"/>
<path d="M14.7456 21.8509C14.6271 21.9181 14.5112 21.9899 14.3907 22.0524C14.0852 22.2111 13.7652 22.3217 13.4162 22.325C13.3794 22.325 13.3418 22.323 13.3063 22.3151C12.9652 22.2348 12.8691 22.0399 13.0324 21.6804C13.3037 21.0839 13.7659 20.702 14.4079 20.5518C14.4974 20.5308 14.5975 20.5374 14.6897 20.5518C14.9418 20.5894 15.038 20.8113 14.9069 21.0437C14.7818 21.2649 14.5652 21.3604 14.3387 21.4256C14.0951 21.4954 13.8442 21.5415 13.596 21.5961C13.4663 21.6244 13.4024 21.7173 13.4136 21.8681C13.4222 21.9892 13.5032 22.0643 13.6322 22.0755C13.8627 22.0959 14.0813 22.0439 14.2933 21.9615C14.4039 21.9188 14.5132 21.8713 14.6238 21.8285C14.6554 21.816 14.6903 21.8121 14.7239 21.8042L14.7443 21.8516L14.7456 21.8509ZM13.5288 21.475C13.5835 21.4809 13.6118 21.4901 13.6388 21.4862C13.9311 21.4434 14.2116 21.3611 14.4309 21.153C14.5033 21.0845 14.556 20.9778 14.5797 20.8791C14.6179 20.7191 14.5191 20.6381 14.3578 20.6776C13.9377 20.7816 13.729 21.1043 13.5295 21.4743L13.5288 21.475Z" fill="#0D1853"/>
<path d="M20.3442 20.8929C20.3791 20.8507 20.3916 20.8224 20.4134 20.8112C20.5747 20.723 20.7327 20.6262 20.9019 20.5571C21.0139 20.5116 21.1396 20.5208 21.2213 20.6413C21.2641 20.7045 21.3141 20.6894 21.3707 20.6611C21.5307 20.5814 21.6967 20.5228 21.879 20.5439C21.9429 20.5511 22.0094 20.5663 22.0667 20.5939C22.2234 20.669 22.2372 20.7704 22.1121 20.8876C22.0298 20.964 21.9462 21.039 21.8626 21.1141L21.833 21.0983C21.8455 21.0417 21.8679 20.9844 21.8665 20.9284C21.8652 20.856 21.8685 20.7605 21.8264 20.719C21.7829 20.6769 21.6809 20.6637 21.615 20.6802C21.4366 20.7243 21.3029 20.8435 21.2022 20.9936C20.9447 21.3794 20.6912 21.7679 20.4364 22.1557C20.4206 22.1794 20.4094 22.2091 20.3883 22.2268C20.3561 22.2538 20.3126 22.296 20.2823 22.2901C20.2488 22.2835 20.2 22.2295 20.2007 22.1966C20.204 22.0767 20.1948 21.9417 20.2455 21.8403C20.3686 21.5954 20.5227 21.3656 20.6636 21.1299C20.6991 21.07 20.7393 21.0107 20.7623 20.9462C20.7775 20.9047 20.7841 20.8375 20.7604 20.8106C20.738 20.7849 20.6695 20.7829 20.6274 20.7934C20.5648 20.8092 20.5088 20.8468 20.4483 20.8718C20.4239 20.8817 20.3962 20.883 20.3423 20.8935L20.3442 20.8929Z" fill="#0D1853"/>
<path d="M25.8496 22.0076C25.6422 22.1689 25.4269 22.3243 25.145 22.319C24.9837 22.3158 24.8909 22.1426 24.9732 22.003C25.2004 21.6178 25.4216 21.2267 25.6771 20.8606C25.8114 20.6683 26.0517 20.59 26.2591 20.486L26.2861 20.5156C26.2664 20.5538 26.2486 20.5926 26.2255 20.6288C25.9997 20.991 25.7719 21.3525 25.5473 21.7153C25.5019 21.7883 25.4604 21.8647 25.4288 21.9444C25.4143 21.9806 25.4157 22.0372 25.4354 22.0675C25.4479 22.0873 25.5111 22.0879 25.5454 22.0774C25.6422 22.0471 25.735 22.0063 25.8298 21.9701L25.8502 22.0069L25.8496 22.0076Z" fill="#0D1853"/>
<path d="M23.1584 20.5011C23.1353 20.5458 23.1156 20.5926 23.0892 20.6347C22.8509 21.0186 22.6112 21.4018 22.3735 21.7863C22.3412 21.8384 22.3123 21.8943 22.2965 21.9529C22.2695 22.0523 22.3162 22.0984 22.4157 22.0681C22.4933 22.0444 22.5651 22.0016 22.6408 21.9707C22.6639 21.9615 22.6909 21.9615 22.7205 21.9707C22.525 22.161 22.3037 22.3039 22.0245 22.3058C21.852 22.3072 21.7671 22.1241 21.8593 21.9588C21.9705 21.758 22.0957 21.5644 22.2175 21.3689C22.3215 21.2016 22.4282 21.0357 22.5348 20.8698C22.5546 20.8388 22.573 20.8 22.6026 20.7829C22.7771 20.6802 22.9549 20.5827 23.132 20.4839L23.1584 20.5011Z" fill="#0D1853"/>
<path d="M22.8873 20.2858C22.8906 20.1258 23.1309 19.898 23.2797 19.9118C23.3488 19.9177 23.3877 19.9553 23.364 20.0283C23.3074 20.2035 23.1934 20.326 23.0176 20.3826C22.9334 20.4096 22.8807 20.3793 22.8873 20.2864V20.2858Z" fill="#0D1853"/>
<path d="M26.4934 19.9743C26.4914 20.1613 26.2485 20.3937 26.1029 20.3918C26.0193 20.3904 25.9969 20.3424 26.0068 20.2699C26.0259 20.1264 26.2458 19.9183 26.3933 19.9157C26.4322 19.9157 26.4723 19.9611 26.4934 19.9743Z" fill="#0D1853"/>
<path fill-rule="evenodd" clip-rule="evenodd" d="M50.2153 10.3999C49.3991 12.4159 48.5828 14.432 47.7646 16.4524H47.766C47.7916 16.455 47.8139 16.4578 47.8339 16.4602C47.8734 16.4651 47.9041 16.4689 47.9352 16.4689C47.9876 16.469 48.04 16.4691 48.0925 16.4692C48.6695 16.4704 49.2465 16.4717 49.8236 16.4669C49.8677 16.4662 49.9322 16.4261 49.9526 16.3865C50.0081 16.2783 50.0542 16.1649 50.1002 16.0519C50.1116 16.024 50.1229 15.9962 50.1344 15.9684C50.1875 15.8395 50.2407 15.7107 50.2939 15.5818C50.4755 15.1419 50.6572 14.702 50.8349 14.2605C50.8804 14.1465 50.9521 14.1222 51.0628 14.1222C52.5278 14.1242 53.9921 14.1255 55.4572 14.1209C55.6 14.1209 55.6758 14.1729 55.7238 14.3026C55.7939 14.492 55.8703 14.6793 55.9466 14.8665C55.9663 14.9149 55.986 14.9633 56.0056 15.0117C56.0771 15.1881 56.1489 15.3643 56.2207 15.5404C56.3301 15.8088 56.4394 16.077 56.5475 16.3457C56.5851 16.4379 56.6397 16.4735 56.7431 16.4728C57.258 16.469 57.773 16.4692 58.288 16.4694C58.4025 16.4695 58.517 16.4695 58.6315 16.4695C58.6558 16.4695 58.6801 16.4681 58.7115 16.4662C58.7321 16.465 58.7556 16.4636 58.7842 16.4623C58.5607 15.8958 58.3375 15.3295 58.1144 14.7634C56.5353 10.7571 54.9601 6.76084 53.3021 2.77667C52.2709 5.32317 51.2431 7.86148 50.2153 10.3999ZM53.4335 12.0475C53.3699 12.0475 53.3064 12.0475 53.2428 12.0475C53.0894 12.0475 52.936 12.0475 52.7825 12.0476C52.4754 12.0477 52.1683 12.0479 51.8614 12.0475C51.8593 12.0474 51.8572 12.0474 51.8552 12.0474C51.7278 12.047 51.683 12.0324 51.6927 11.9603C51.6948 11.944 51.6998 11.9248 51.7072 11.9021C51.7118 11.888 51.7174 11.8726 51.7238 11.8558C51.8366 11.5612 51.9512 11.2671 52.0657 10.973C52.1491 10.759 52.2324 10.545 52.3151 10.3309C52.4391 10.0093 52.5624 9.68781 52.6857 9.36627C52.768 9.15184 52.8502 8.93741 52.9327 8.72298C52.9655 8.63746 52.9984 8.55203 53.0315 8.46673C53.0843 8.33038 53.1377 8.19414 53.1923 8.05857C53.1953 8.05112 53.1983 8.04367 53.2013 8.03623C53.2095 8.01573 53.2278 7.99932 53.2461 7.98287C53.2543 7.97555 53.2625 7.96821 53.2698 7.96051C53.2698 7.96052 53.2698 7.96054 53.2698 7.96055C53.2698 7.96055 53.2698 7.96054 53.2698 7.96054C53.2771 7.96884 53.2853 7.97673 53.2936 7.9846C53.3109 8.00109 53.3281 8.01752 53.3357 8.03758C53.5465 8.5914 53.7561 9.14549 53.9658 9.69951C54.0796 10.0004 54.1935 10.3014 54.3075 10.6022C54.422 10.9037 54.5376 11.2048 54.6531 11.5061C54.7003 11.6292 54.7476 11.7524 54.7948 11.8756C54.8402 11.9941 54.802 12.0475 54.6618 12.0475C54.6542 12.0475 54.6466 12.0475 54.6391 12.0475C54.3315 12.0483 54.0239 12.048 53.7162 12.0477C53.622 12.0476 53.5277 12.0475 53.4335 12.0475Z" fill="#0D1853"/>
</g>
<defs>
<clipPath id="clip0_1311_45052">
<rect width="80" height="27.5062" fill="white"/>
</clipPath>
</defs>
</svg>
