<svg width="80" height="22" viewBox="0 0 80 22" fill="none" xmlns="http://www.w3.org/2000/svg">
<path d="M0.0991895 0.834023C0.188667 0.828183 0.265608 0.819099 0.34255 0.819099C2.81311 0.819748 5.28368 0.821912 7.75424 0.822344C8.92112 0.822344 10.0882 0.808069 11.2549 0.821478C12.4507 0.83532 13.6185 1.03019 14.7397 1.45843C15.4166 1.71689 16.0467 2.06013 16.5907 2.54699C17.2276 3.11689 17.6555 3.81549 17.8183 4.65467C18.0264 5.72722 17.9291 6.77836 17.48 7.78061C17.2021 8.4007 16.7856 8.92237 16.2492 9.34413C15.4901 9.94107 14.6286 10.3256 13.7012 10.5741C13.637 10.5912 13.577 10.623 13.5123 10.6492C13.5547 10.7893 13.6582 10.7677 13.7343 10.7839C14.0505 10.8518 14.3721 10.8983 14.6848 10.9794C15.4988 11.1901 16.2678 11.5033 16.9527 12.0048C17.6516 12.5168 18.155 13.1745 18.4617 13.9832C18.7496 14.7426 18.8313 15.5326 18.8036 16.3379C18.777 17.1057 18.659 17.854 18.3489 18.5656C18.0182 19.3245 17.5172 19.9388 16.8388 20.412C16.2291 20.8374 15.5526 21.1162 14.843 21.3174C14.1983 21.5001 13.5378 21.6052 12.8726 21.6818C11.9342 21.7897 10.9921 21.8129 10.0487 21.8126C6.79247 21.8118 3.5365 21.8122 0.280305 21.8122C0.20185 21.8122 0.123396 21.8122 0.0174929 21.8122C0.010793 21.687 -0.00174255 21.5756 0.000202603 21.4644C0.00495743 21.1802 0.0672024 20.9092 0.199257 20.6551C0.290895 20.4788 0.432027 20.3594 0.617465 20.3036C0.795555 20.25 0.979264 20.2122 1.16233 20.178C1.41563 20.1306 1.67714 20.1202 1.90235 19.9695C2.10227 19.8354 2.20687 19.6487 2.22633 19.4132C2.23454 19.3128 2.23259 19.2116 2.23238 19.1108C2.23065 13.9397 2.2287 8.7686 2.22676 3.59748C2.22676 3.47506 2.21314 3.35135 2.22633 3.23044C2.26155 2.90537 2.08671 2.70271 1.84313 2.53444C1.52888 2.31751 1.16773 2.26041 0.799446 2.22819C0.720775 2.22127 0.641024 2.22256 0.563217 2.21002C0.284412 2.16546 0.139389 2.02618 0.0944346 1.75301C0.0747669 1.63276 0.0615831 1.50948 0.0635282 1.38792C0.0663379 1.20949 0.0855733 1.03127 0.0989733 0.834239L0.0991895 0.834023ZM7.10154 15.7498C7.11148 15.7498 7.12142 15.7498 7.13114 15.7498C7.13114 16.8228 7.1359 17.896 7.12812 18.969C7.12596 19.2709 7.2284 19.5146 7.43632 19.724C7.59171 19.8806 7.77672 19.9855 7.98377 20.059C8.30667 20.1739 8.64167 20.2102 8.98034 20.2256C9.84982 20.2647 10.6903 20.1501 11.474 19.7448C12.3751 19.2787 12.9506 18.5429 13.2312 17.5785C13.4488 16.8308 13.4959 16.0651 13.4043 15.2908C13.3332 14.6896 13.1689 14.1207 12.8395 13.6075C12.3628 12.8646 11.6841 12.3736 10.8708 12.0604C9.93433 11.6999 8.957 11.6075 7.96281 11.6469C7.8569 11.651 7.75014 11.6813 7.64726 11.7113C7.31507 11.8091 7.15903 12.0507 7.1292 12.381C7.11126 12.5815 7.10326 12.7835 7.10262 12.9848C7.10002 13.9064 7.10154 14.828 7.10154 15.7498ZM7.13114 6.152C7.12185 6.152 7.11277 6.152 7.10348 6.152C7.10348 6.76343 7.10002 7.37487 7.10456 7.9863C7.1078 8.43206 7.10845 8.87847 7.13547 9.32293C7.15535 9.64952 7.38661 9.87618 7.71339 9.92593C7.88327 9.95188 8.05725 9.97221 8.22843 9.96551C8.57315 9.9521 8.91896 9.93242 9.26109 9.89003C9.95962 9.8033 10.6272 9.61037 11.2361 9.24615C11.8935 8.85273 12.3906 8.31181 12.6448 7.58509C13.0347 6.47058 13.0075 5.34807 12.5867 4.24849C12.2817 3.4517 11.7025 2.89412 10.9277 2.54699C10.3407 2.28399 9.71626 2.18904 9.0763 2.19488C8.67992 2.19855 8.28613 2.22494 7.9051 2.3519C7.39785 2.52103 7.13676 2.85649 7.13309 3.38811C7.12661 4.30926 7.13136 5.23063 7.13136 6.15178L7.13114 6.152Z" fill="#0D1853"/>
<path d="M31.3791 16.0487C31.0664 16.0165 30.7809 15.9953 30.4977 15.9553C30.281 15.9246 30.1975 15.7472 30.1379 15.5649C30.0365 15.2549 29.9008 14.9612 29.7218 14.69C29.5954 14.4984 29.4597 14.3106 29.3093 14.1376C29.1016 13.8982 28.8288 13.7727 28.51 13.7689C28.1139 13.7641 27.7177 13.7665 27.3215 13.7723C27.0637 13.7762 26.961 13.8802 26.9446 14.1424C26.9364 14.2717 26.9357 14.4015 26.9353 14.531C26.9308 16.0286 26.9245 17.5261 26.926 19.0237C26.9262 19.2599 26.9437 19.4995 26.9878 19.7309C27.0514 20.0651 27.2882 20.2753 27.6254 20.3116C27.8031 20.3309 27.985 20.3218 28.1642 20.3101C28.5805 20.2829 28.9961 20.245 29.4121 20.2137C30.522 20.13 31.4066 19.6386 32.0431 18.7278C32.302 18.3571 32.5183 17.9565 32.753 17.569C32.8239 17.4519 32.8916 17.3332 32.961 17.2153C33.2052 16.8003 33.5758 16.6199 34.0498 16.6861C34.1138 16.695 34.1778 16.7068 34.2409 16.7205C34.2752 16.7278 34.3083 16.7415 34.3559 16.7566C34.299 18.4248 34.2424 20.0893 34.1847 21.7787C29.6726 21.7906 25.1819 21.8025 20.67 21.8146C20.6728 21.4828 20.6419 21.1677 20.7402 20.8614C20.7748 20.7537 20.8578 20.6841 20.9691 20.6493C21.1956 20.5788 21.4223 20.5085 21.6466 20.4317C21.7413 20.3992 21.8338 20.3564 21.9209 20.3071C22.182 20.16 22.3091 19.9299 22.3143 19.6329C22.322 19.1937 22.33 18.7546 22.3322 18.3153C22.3443 15.7734 22.3525 13.2312 22.3663 10.6892C22.3724 9.58767 22.3903 8.48613 22.3986 7.3846C22.4005 7.11858 22.3826 6.85233 22.3774 6.58609C22.3705 6.22381 22.1496 6.00299 21.86 5.85051C21.6983 5.76551 21.5096 5.72463 21.3285 5.68527C20.9717 5.60762 20.8902 5.52846 20.839 5.15926C20.8135 4.97542 20.7802 4.79158 20.8284 4.59412H33.9616C34.0451 6.21884 34.1278 7.83058 34.2115 9.45876C34.1406 9.47066 34.0868 9.48644 34.0327 9.48774C33.8095 9.49315 33.586 9.49034 33.363 9.49791C33.165 9.50461 33.0003 9.43173 32.9043 9.26627C32.7427 8.98726 32.5918 8.70047 32.4574 8.40741C32.2639 7.98587 32.0662 7.56498 31.6973 7.26868C31.31 6.95766 30.8922 6.69055 30.426 6.50325C29.9196 6.29973 29.3927 6.19699 28.8528 6.16001C28.4728 6.13405 28.0909 6.12648 27.7099 6.12454C27.282 6.12237 27.0049 6.35856 26.9774 6.77901C26.9472 7.24532 26.9476 7.71379 26.9455 8.18139C26.9405 9.29763 26.9416 10.4141 26.9407 11.5305C26.9407 11.5954 26.9418 11.6601 26.9439 11.725C26.9539 12.0306 27.0996 12.1967 27.4043 12.2136C27.6844 12.2289 27.966 12.2248 28.2468 12.2177C28.3965 12.214 28.5491 12.2002 28.6944 12.1658C29.0914 12.0721 29.3769 11.8069 29.6395 11.5152C29.9233 11.1996 30.1161 10.8339 30.2377 10.4268C30.343 10.0741 30.4361 10.004 30.8055 9.97806C30.9704 9.96659 31.1366 9.96876 31.3022 9.96703C31.3368 9.96659 31.3716 9.97611 31.4236 9.98325C31.453 11.9945 31.364 13.9988 31.3793 16.048L31.3791 16.0487Z" fill="#0D1853"/>
<path d="M67.65 21.6418C67.6818 19.8789 67.7138 18.1099 67.746 16.3275C68.1227 16.2401 68.489 16.2057 68.8536 16.3346C68.9701 16.376 69.0732 16.4484 69.1286 16.5652C69.2299 16.7791 69.3384 16.9908 69.421 17.2119C69.7378 18.0593 70.2375 18.7793 70.9177 19.3719C71.4331 19.8211 72.0452 20.0859 72.7038 20.2451C73.0965 20.34 73.4961 20.3995 73.9013 20.388C74.454 20.3722 74.9882 20.2822 75.467 19.976C75.9342 19.6771 76.2154 19.2592 76.2498 18.7053C76.266 18.443 76.2383 18.1722 76.1895 17.9129C76.0942 17.4065 75.7723 17.0384 75.3889 16.719C74.5629 16.0303 73.6046 15.5627 72.6517 15.0869C71.7379 14.6305 70.8178 14.1865 69.9096 13.7196C69.4102 13.4626 68.9293 13.1659 68.5325 12.761C68.1648 12.3857 67.9293 11.922 67.725 11.4432C67.4285 10.7483 67.3172 10.0174 67.3576 9.26932C67.3954 8.57202 67.5958 7.9117 67.9172 7.29032C68.3706 6.41394 69.0175 5.71124 69.8437 5.17658C70.5224 4.73753 71.2596 4.44728 72.0614 4.31642C72.7578 4.20288 73.4537 4.21888 74.1473 4.30561C74.9318 4.40359 75.7114 4.53985 76.4951 4.64496C77.2239 4.7425 77.9557 4.80068 78.6886 4.67351C78.7219 4.66767 78.7571 4.67286 78.8016 4.67286V9.71594C78.7413 9.72308 78.694 9.73324 78.6464 9.73368C78.416 9.7354 78.1856 9.73584 77.9552 9.73454C77.6907 9.73303 77.5057 9.61753 77.4076 9.3634C77.3376 9.18237 77.2559 9.00567 77.1731 8.83004C76.8807 8.21039 76.5599 7.60826 76.1043 7.0881C75.5824 6.49202 74.9742 6.02398 74.2041 5.79213C73.6923 5.63813 73.1747 5.60547 72.6476 5.70323C72.3471 5.75904 72.0588 5.83755 71.8142 6.0309C71.4297 6.33456 71.2101 6.74075 71.1118 7.21073C70.9992 7.75014 71.1453 8.23094 71.4699 8.67107C71.8364 9.16809 72.318 9.52756 72.8328 9.8496C73.4265 10.221 74.0615 10.5099 74.7062 10.7801C75.9187 11.2881 77.0804 11.8889 78.1141 12.7104C78.6925 13.17 79.2034 13.694 79.5676 14.3463C79.8954 14.9338 80.0487 15.5584 79.9856 16.2323C79.8721 17.4431 79.5695 18.5983 78.9397 19.6483C78.3544 20.6238 77.5163 21.2903 76.4298 21.647C75.9267 21.8122 75.4112 21.891 74.8875 21.9422C73.9387 22.0354 73.0068 21.9013 72.0781 21.7394C71.5122 21.6407 70.9507 21.5157 70.3897 21.3922C70.0028 21.307 69.6159 21.3187 69.2308 21.3758C68.7129 21.4528 68.1979 21.5486 67.6498 21.6418H67.65Z" fill="#0D1853"/>
<path d="M65.4057 16.751C65.3046 18.4592 65.2058 20.1229 65.1066 21.7993H51.6839C51.6774 21.5231 51.6606 21.2592 51.7148 20.9973C51.7431 20.8608 51.8255 20.7618 51.9536 20.7103C52.0801 20.6597 52.2104 20.6179 52.3409 20.5784C52.4784 20.5368 52.6204 20.5098 52.7561 20.464C53.114 20.3428 53.3044 20.0772 53.3075 19.7013C53.3107 19.2982 53.3103 18.8948 53.312 18.4917C53.3163 17.4764 53.3209 16.4612 53.3256 15.446C53.3341 13.6675 53.3436 11.8892 53.3511 10.1107C53.3557 9.06668 53.357 8.02247 53.3609 6.97847C53.3617 6.75267 53.3317 6.53422 53.2331 6.32767C53.0926 6.03331 52.8696 5.85336 52.5419 5.80708C52.4069 5.78805 52.2726 5.76166 52.1393 5.73311C51.9508 5.69267 51.8279 5.57652 51.8052 5.38468C51.7784 5.15758 51.771 4.92832 51.757 4.72328C51.7827 4.69322 51.787 4.68716 51.7922 4.68241C51.7972 4.67765 51.803 4.67159 51.809 4.67073C51.8445 4.66554 51.8802 4.65818 51.9156 4.65818C54.4999 4.65753 57.0841 4.65775 59.6952 4.65775C59.6988 4.98693 59.7282 5.29492 59.5525 5.57025C59.5047 5.64508 59.4243 5.7104 59.3442 5.74976C59.2564 5.79259 59.1496 5.8259 59.0545 5.81876C58.4993 5.77723 58.2093 6.21196 58.1379 6.66032C58.1211 6.76651 58.1124 6.87509 58.1118 6.98258C58.1016 8.7972 58.0936 10.6116 58.0841 12.4262C58.0722 14.7231 58.0595 17.0201 58.0474 19.317C58.0467 19.4321 58.0537 19.5476 58.0502 19.6624C58.0366 20.1056 58.297 20.3359 58.7157 20.3887C58.9489 20.4181 59.1922 20.4131 59.4256 20.3824C60.0098 20.3058 60.5953 20.2338 61.167 20.0792C62.172 19.8073 62.9321 19.2259 63.4275 18.308C63.5881 18.0106 63.7335 17.7053 63.8898 17.4055C63.943 17.3038 64.0052 17.2065 64.0687 17.1107C64.1865 16.9331 64.3538 16.82 64.5643 16.799C64.8345 16.7722 65.1068 16.767 65.4053 16.7512L65.4057 16.751Z" fill="#0D1853"/>
<path d="M50.6301 16.7672C50.5317 18.4568 50.4351 20.1202 50.3374 21.7982H36.9165C36.9126 21.5105 36.8765 21.2192 36.9632 20.9332C37.0094 20.7808 37.1419 20.7096 37.2815 20.6655C37.4735 20.6047 37.6712 20.5632 37.8634 20.5037C37.9723 20.4702 38.0836 20.4308 38.1791 20.3707C38.4233 20.2171 38.5355 19.9879 38.5353 19.6983C38.5353 19.0213 38.5398 18.3445 38.5422 17.6676C38.5548 14.3193 38.5673 10.9712 38.5796 7.62295C38.5807 7.34221 38.5932 7.06082 38.5764 6.78117C38.5602 6.51168 38.475 6.26058 38.2777 6.05987C38.1298 5.90955 37.9531 5.82866 37.7445 5.80335C37.6094 5.78692 37.4745 5.7614 37.3425 5.72787C37.1743 5.68526 37.0656 5.57172 37.033 5.40193C36.9872 5.16359 36.9697 4.92265 37.0142 4.67371H44.9245C44.9145 4.95098 44.9567 5.21312 44.8408 5.46703C44.7529 5.66018 44.6083 5.77351 44.4017 5.80768C44.331 5.81936 44.2584 5.82282 44.1866 5.82412C43.8253 5.82996 43.6009 6.02591 43.4604 6.34168C43.3243 6.64794 43.3342 6.97583 43.3325 7.29765C43.3212 9.34997 43.3197 11.4023 43.3104 13.4546C43.3009 15.5067 43.2864 17.5588 43.273 19.6109C43.272 19.7787 43.2776 19.9437 43.3854 20.0841C43.5294 20.2718 43.7224 20.3867 43.9562 20.3908C44.2571 20.396 44.5616 20.3956 44.8588 20.3549C45.3425 20.2889 45.8262 20.2093 46.3014 20.0986C47.4469 19.8317 48.2661 19.1491 48.777 18.0919C48.9084 17.8198 49.0486 17.5519 49.1839 17.2817C49.3607 16.9288 49.654 16.7702 50.0405 16.7678C50.2395 16.7665 50.4386 16.7676 50.6307 16.7676L50.6301 16.7672Z" fill="#0D1853"/>
<path d="M62.8483 7.09109C63.1223 6.95722 63.3875 6.84388 63.6365 6.70265C64.2105 6.37714 64.643 5.91797 64.9034 5.30438C65.0348 4.99488 65.0794 4.66742 65.1098 4.33716C65.1154 4.27725 65.0906 4.21453 65.0817 4.16457C64.8665 4.13926 64.6732 4.1252 64.4833 4.09298C63.5503 3.93444 62.8427 3.34983 62.6719 2.37201C62.5742 1.8127 62.7452 1.30206 63.1061 0.862352C63.4954 0.388259 64.0167 0.138018 64.6075 0.0398257C65.4319 -0.0972979 66.1695 0.120067 66.7826 0.685864C67.1157 0.993202 67.3091 1.40111 67.4412 1.83368C67.6098 2.38585 67.634 2.94992 67.5827 3.52156C67.4838 4.62438 67.0779 5.59939 66.3541 6.43511C65.6858 7.20659 64.8455 7.66727 63.8206 7.76676C63.6205 7.78623 63.4188 7.78883 63.2178 7.80115C63.1424 7.8057 63.0985 7.77542 63.072 7.70361C63.005 7.52128 62.9321 7.34112 62.8628 7.15987C62.8554 7.14041 62.8539 7.11878 62.8483 7.09131V7.09109Z" fill="#0D1853"/>
</svg>
