<svg width="80" height="18" viewBox="0 0 80 18" fill="none" xmlns="http://www.w3.org/2000/svg">
<path fill-rule="evenodd" clip-rule="evenodd" d="M74.314 0.199916L74.5271 0.0321013L74.528 0.0316873C74.511 0.0251272 74.4981 0.0191859 74.4876 0.0143669C74.471 0.00673191 74.4605 0.00191376 74.4498 0.00191376L74.1275 0.0011301C73.6081 -0.000250021 73.0887 -0.00163 72.5696 0.0052225C72.5043 0.0060495 72.4195 0.0651813 72.3782 0.122245C71.8031 0.910803 71.2337 1.70315 70.6642 2.49567L70.5889 2.60037C70.5701 2.62661 70.5562 2.65625 70.5389 2.69331L70.5388 2.69353L70.5387 2.69364L70.5386 2.69395L70.5384 2.69423C70.5288 2.71475 70.5182 2.73755 70.505 2.76329C70.5792 2.75562 70.6504 2.75659 70.7194 2.75754C70.8845 2.7598 71.0365 2.76188 71.1844 2.64462C71.8208 2.13886 72.4632 1.64042 73.1057 1.14201L73.1061 1.14168L73.1103 1.13841L73.112 1.1371C73.3703 0.936671 73.6287 0.73624 73.8866 0.535335C74.0274 0.425814 74.1675 0.315355 74.3126 0.201045L74.314 0.199916ZM19.6146 8.65617L19.6732 8.61527L19.6733 8.61515L19.6736 8.61493C19.724 8.57969 19.7743 8.54451 19.8254 8.51061C20.5396 8.03632 21.1342 7.45825 21.4158 6.62338C21.4852 6.41746 21.5241 6.19665 21.546 5.97997C21.5803 5.63924 21.4253 5.50527 21.097 5.57763C20.712 5.6624 20.358 5.59334 20.0334 5.37915C19.5083 5.03305 19.4764 4.38798 19.9594 3.98233C20.5635 3.47538 21.6395 3.60605 22.1642 4.27385C22.7043 4.96151 22.6856 5.72815 22.3867 6.50099C22.1146 7.20477 21.5787 7.69064 20.9522 8.07354C20.681 8.23932 20.3947 8.38085 20.1086 8.52229L20.1086 8.5223L20.1086 8.52231L20.1086 8.52233L20.1085 8.52234C20.0065 8.5728 19.9044 8.62324 19.8031 8.67478C19.7691 8.69207 19.7289 8.69711 19.6886 8.70218L19.6885 8.70218L19.6885 8.70218L19.6885 8.70218C19.67 8.7045 19.6515 8.70683 19.6336 8.71034L19.6146 8.65617ZM51.056 5.73042C51.0793 5.74506 51.1027 5.7597 51.1253 5.77515V5.77597L51.1828 5.71478C51.1261 5.59149 51.0677 5.46885 51.0093 5.34621L51.0093 5.34616C50.87 5.05379 50.7308 4.76141 50.6146 4.4602C50.4955 4.1509 50.3264 3.96648 49.9807 3.96317C49.9023 3.96264 49.8242 3.94231 49.746 3.92195C49.703 3.91076 49.66 3.89956 49.6168 3.89164C48.3821 3.66462 47.1445 3.55794 45.9073 3.86269C44.8727 4.11741 43.9957 4.62767 43.3605 5.50513C42.3764 6.86473 42.4752 8.92315 44.1429 9.9995C44.6353 10.3171 45.1754 10.5846 45.7274 10.7806C46.2311 10.9594 46.7473 11.1026 47.2637 11.2459C47.5892 11.3362 47.9148 11.4265 48.2374 11.5257C48.9887 11.7569 49.7181 12.0443 50.3429 12.5426C51.1555 13.1901 51.3875 14.1478 50.9595 15.0972C50.6216 15.8469 50.0258 16.3265 49.2703 16.5804C47.5907 17.1453 45.8936 17.1068 44.2198 16.5639C43.3204 16.2724 42.7427 15.6207 42.5352 14.6853C42.4852 14.4609 42.462 14.2307 42.4388 14.0004C42.4261 13.8742 42.4133 13.7479 42.3962 13.6226C42.3914 13.5864 42.3714 13.5522 42.3515 13.518C42.3425 13.5026 42.3335 13.4872 42.3259 13.4717C42.3174 13.4862 42.3086 13.5006 42.2997 13.515C42.2773 13.5515 42.2548 13.5882 42.237 13.6268C42.2296 13.6425 42.2314 13.6623 42.2333 13.6822L42.2333 13.6823C42.2341 13.6912 42.235 13.7001 42.235 13.7086C42.2348 14.0252 42.2351 14.3416 42.2353 14.6581V14.6581V14.6582V14.6582V14.6582C42.2359 15.4919 42.2365 16.3255 42.2308 17.1593C42.2296 17.3471 42.2792 17.4062 42.4727 17.4049C43.0513 17.4016 43.63 17.4026 44.2086 17.4035C45.0766 17.4049 45.9444 17.4063 46.812 17.3934C47.4017 17.3847 47.9959 17.3351 48.5777 17.2395C49.4965 17.089 50.3334 16.7301 51.0186 16.0755C52.262 14.8879 52.4489 12.9536 51.4412 11.6415C50.914 10.9555 50.1937 10.5309 49.4138 10.1939C48.688 9.88025 47.9271 9.68322 47.1661 9.48617C46.9156 9.42132 46.6651 9.35647 46.4159 9.28745C45.7526 9.10344 45.0935 8.90496 44.5134 8.51502C43.8819 8.09035 43.5499 7.50566 43.5892 6.7353C43.6384 5.78011 44.14 5.09369 44.9508 4.65786C46.2939 3.9363 47.6998 3.96441 49.1124 4.44408C49.8103 4.68143 50.3806 5.12595 50.9107 5.62587C50.9538 5.66643 51.0049 5.69844 51.056 5.73042ZM63.2514 5.72921L63.2514 5.72919C63.2017 5.69552 63.152 5.66181 63.1089 5.62101C62.5796 5.11985 62.0078 4.6774 61.3098 4.44211C59.9047 3.96782 58.5091 3.94426 57.166 4.64845C56.4771 5.00944 56.0008 5.57553 55.8391 6.35209C55.6357 7.32961 55.9991 8.10121 56.8758 8.61726C57.4869 8.97701 58.163 9.16722 58.8416 9.34751C59.0019 9.39009 59.1625 9.43163 59.3232 9.47318C60.2407 9.71046 61.158 9.94771 62.0131 10.3763C62.7889 10.7654 63.4778 11.2587 63.9078 12.0386C64.7088 13.4912 64.2361 15.3929 62.8269 16.4068C62.0996 16.9303 61.2738 17.2045 60.3951 17.3062C59.8497 17.3695 59.2968 17.391 58.7473 17.3959C57.9662 17.4028 57.185 17.4022 56.4038 17.4016C55.8215 17.4012 55.2391 17.4007 54.6569 17.4034C54.4869 17.4042 54.434 17.3579 54.4353 17.1842C54.4406 16.2974 54.44 15.4106 54.4394 14.5238C54.4392 14.24 54.439 13.9562 54.439 13.6723C54.439 13.6639 54.4382 13.6552 54.4375 13.6465C54.4357 13.6264 54.434 13.6063 54.4415 13.5905C54.4556 13.5608 54.475 13.5336 54.4944 13.5065C54.5028 13.4947 54.5112 13.483 54.5192 13.471C54.5285 13.4837 54.5399 13.4961 54.5513 13.5086C54.5756 13.535 54.5998 13.5614 54.6031 13.5901C54.6152 13.6993 54.6232 13.8091 54.6311 13.9189C54.6406 14.0493 54.65 14.1796 54.6664 14.3091C54.8256 15.5749 55.5517 16.3667 56.7633 16.6802C58.2751 17.0714 59.8001 17.1036 61.3085 16.6434C61.9685 16.442 62.5329 16.0785 62.9353 15.5025C63.6763 14.4406 63.4707 13.2117 62.4266 12.448C61.8246 12.0076 61.1398 11.7371 60.4336 11.5225C60.0697 11.4117 59.7039 11.3076 59.338 11.2034L59.3379 11.2034L59.3378 11.2034L59.3378 11.2033L59.3377 11.2033L59.3377 11.2033L59.3377 11.2033C58.8707 11.0703 58.4037 10.9374 57.9409 10.7906C57.2959 10.586 56.6884 10.2891 56.1521 9.86811C54.7607 8.77687 54.5312 6.86525 55.6183 5.43163C56.3155 4.512 57.2715 4.02117 58.3797 3.80242C59.633 3.55515 60.871 3.716 62.1124 3.93598C62.5168 4.00752 62.7347 4.17995 62.865 4.55624C62.9479 4.79534 63.0585 5.02477 63.1691 5.25418C63.2201 5.36002 63.2711 5.46585 63.3194 5.57263C63.3341 5.60517 63.3459 5.63907 63.3577 5.67299L63.3579 5.67332L63.3579 5.67359C63.3633 5.68905 63.3687 5.7045 63.3744 5.71984C63.3566 5.73886 63.3384 5.75788 63.3206 5.7769V5.77732C63.298 5.76081 63.2747 5.74501 63.2514 5.72921ZM69.8965 4.35115V4.58895C69.8965 5.01621 69.8967 5.44347 69.8969 5.87072V5.87516C69.8975 7.29933 69.8982 8.72351 69.8915 10.1477C69.8907 10.3635 69.9577 10.4103 70.1611 10.409C71.1944 10.404 72.2275 10.404 73.2607 10.4041C73.8462 10.4041 74.4317 10.4041 75.0173 10.4032C75.203 10.4032 75.3895 10.3925 75.5739 10.3718C75.7806 10.3491 75.9584 10.2738 76.0478 10.0596C76.0602 10.0297 76.0949 10.009 76.1298 9.9883C76.146 9.97863 76.1623 9.96894 76.1764 9.9583C76.183 9.97241 76.1914 9.98648 76.1998 10.0005C76.218 10.031 76.2362 10.0614 76.2367 10.0923C76.2421 10.4227 76.2429 10.7535 76.2363 11.0843C76.2357 11.1175 76.2137 11.1502 76.1916 11.1829C76.1812 11.1982 76.1709 11.2136 76.1627 11.229C76.1499 11.2196 76.135 11.211 76.1201 11.2024C76.0879 11.1838 76.0556 11.1652 76.044 11.138C75.9394 10.8941 75.7318 10.8221 75.4957 10.799C75.3835 10.7882 75.2698 10.7882 75.1567 10.7882L75.1447 10.7882C74.6746 10.788 74.2044 10.7881 73.7343 10.7882C72.5374 10.7886 71.3405 10.7889 70.1437 10.7832C69.9436 10.7824 69.8911 10.8391 69.8923 11.0363C69.8965 11.6511 69.8962 12.266 69.8959 12.8808C69.8957 13.561 69.8954 14.2411 69.901 14.9212C69.9039 15.2636 69.932 15.6109 69.9969 15.9467C70.1111 16.5363 70.4406 16.8249 71.041 16.887C71.3967 16.9238 71.7552 16.9407 72.1128 16.9424C73.3252 16.9482 74.5376 16.9465 75.7496 16.9399C76.0453 16.9382 76.3413 16.9167 76.6357 16.8878C77.3337 16.82 77.6856 16.4979 77.844 15.8172C77.8596 15.7504 77.8995 15.6895 77.9395 15.6285C77.958 15.6003 77.9764 15.5722 77.9925 15.5435C77.9999 15.5746 78.0093 15.6057 78.0186 15.6368C78.0389 15.7042 78.0591 15.7717 78.0603 15.8396C78.0639 16.0585 78.0634 16.2776 78.063 16.4966V16.4978C78.0625 16.733 78.062 16.9682 78.0665 17.2033C78.0694 17.3604 78.0119 17.4022 77.8626 17.4022C76.2384 17.4009 74.6143 17.4003 72.9901 17.3998H72.9818C70.9993 17.3991 69.0167 17.3985 67.0342 17.3964C66.9927 17.3964 66.9513 17.3737 66.9098 17.351C66.8905 17.3404 66.8712 17.3298 66.8518 17.3216C66.8615 17.3174 66.8711 17.3128 66.8807 17.3079C66.8891 17.3037 66.8975 17.2992 66.9059 17.2948C66.9444 17.2744 66.9828 17.2541 67.0226 17.2513C67.7942 17.1938 68.0043 16.9726 68.0043 16.2068L68.0043 14.3938C68.0043 11.361 68.0044 8.32847 68.003 5.29563C68.003 5.11699 67.9977 4.93671 67.9737 4.76014C67.9121 4.30694 67.7669 4.15808 67.3129 4.07166C67.2524 4.06003 67.1903 4.05655 67.1282 4.05307C67.0733 4.04999 67.0183 4.0469 66.9643 4.03816C66.9358 4.03337 66.91 4.01143 66.8841 3.98944C66.8721 3.97921 66.86 3.96896 66.8477 3.96042C66.8602 3.95234 66.8725 3.94363 66.8847 3.93493C66.9125 3.91517 66.9402 3.89545 66.9709 3.8831C66.9915 3.87479 67.0161 3.8768 67.0408 3.87882C67.0518 3.87972 67.0628 3.88062 67.0735 3.88062L68.8608 3.88073H68.8612C71.5441 3.88097 74.2271 3.88122 76.9099 3.87648C77.1022 3.87648 77.158 3.93272 77.153 4.12169C77.1461 4.4014 77.1466 4.68139 77.1472 4.96141C77.1476 5.16366 77.148 5.36593 77.1456 5.56813C77.145 5.60685 77.1247 5.64537 77.1043 5.68397L77.1042 5.68415C77.0946 5.70238 77.0849 5.72062 77.0774 5.73891C77.0622 5.7239 77.0451 5.70976 77.028 5.69564C76.991 5.66501 76.954 5.63448 76.9376 5.59542C76.8751 5.4467 76.818 5.29573 76.7608 5.14469L76.7606 5.14408C76.723 5.0446 76.6853 4.94508 76.6461 4.84615C76.5175 4.52114 76.2648 4.37021 75.9262 4.3516C75.7546 4.34209 75.5821 4.34126 75.4097 4.34085C73.6538 4.34002 71.8979 4.34044 70.142 4.34085H70.14C70.0923 4.34085 70.0445 4.34346 69.9903 4.34642C69.9612 4.34801 69.9303 4.34971 69.8965 4.35115ZM4.97693 17.4005H0.245208C0.229738 17.4005 0.214105 17.4012 0.198456 17.4018H0.198406H0.198358H0.198309H0.198261H0.198214H0.198166H0.198119C0.158245 17.4034 0.118271 17.405 0.0806333 17.3964C0.0597835 17.3915 0.0424846 17.3713 0.025194 17.3511C0.0174517 17.342 0.00971111 17.3329 0.00165405 17.3253C0.0106938 17.3186 0.019532 17.3104 0.0283574 17.3023L0.0283622 17.3023C0.047794 17.2844 0.0671643 17.2666 0.0884898 17.2641C0.143977 17.2571 0.200114 17.2561 0.25629 17.2551H0.256325H0.256343H0.256362H0.256381H0.2564H0.256419H0.256438H0.256457C0.289814 17.2545 0.323184 17.2539 0.35644 17.2521C0.696754 17.2335 0.953954 17.0689 1.02301 16.7377C1.10819 16.33 1.17559 15.9094 1.17683 15.4943C1.18548 12.636 1.18226 9.77747 1.17904 6.91912V6.91911V6.9191V6.91909V6.91908V6.91906V6.91905V6.91895L1.17725 5.246C1.17725 5.10881 1.16467 4.97162 1.15216 4.83504L1.1483 4.7928C1.10406 4.3123 0.884485 4.09273 0.401926 4.04559C0.360388 4.04157 0.31851 4.03973 0.276623 4.03788H0.276619H0.276616H0.276612H0.276609H0.276605H0.276601H0.276598C0.215083 4.03516 0.153549 4.03245 0.0930384 4.02285C0.0694802 4.01916 0.0490392 3.99638 0.0285059 3.97349C0.0191252 3.96304 0.00972526 3.95256 0 3.94387C0.00919713 3.93736 0.018118 3.92994 0.0270309 3.92252C0.0469702 3.90593 0.0668691 3.88937 0.0897304 3.88309C0.116767 3.87553 0.146257 3.87717 0.175757 3.87881H0.17576L0.175767 3.87881C0.188223 3.8795 0.20068 3.88019 0.212955 3.88019C0.974953 3.88103 1.73692 3.881 2.49887 3.88098C4.38855 3.88093 6.27814 3.88087 8.16794 3.89384C9.60818 3.90335 11.0455 3.99473 12.4506 4.34539C14.0992 4.75682 15.5511 5.51767 16.56 6.92441C17.9027 8.79717 18.0002 10.8271 17.0227 12.8665C15.9976 15.0055 14.3006 16.416 11.9949 17.0428C11.1344 17.2769 10.245 17.3526 9.35594 17.3629C8.33139 17.3751 7.30664 17.3724 6.28182 17.3697H6.28179H6.28176H6.28172H6.28169H6.28166H6.28163H6.28159C5.84644 17.3686 5.41127 17.3675 4.97611 17.3675V17.4001L4.97693 17.4005ZM3.07399 4.18453V4.43057L3.07389 6.45134C3.07369 9.14533 3.07349 11.8393 3.07647 14.5333C3.07647 14.8008 3.09632 15.0704 3.13519 15.3351C3.20259 15.7932 3.43084 16.1571 3.82408 16.4135C4.23717 16.6827 4.70154 16.8171 5.17955 16.8799C7.09779 17.1313 9.01397 17.126 10.9082 16.6967C12.8178 16.2642 14.2799 15.2164 15.171 13.4421C15.7694 12.2508 16.0191 11.0032 15.7003 9.68124C15.3331 8.15872 14.4573 6.98354 13.1962 6.08665C11.6443 4.98301 9.86786 4.50789 8.00833 4.28915C6.83144 4.15064 5.65007 4.15847 4.46883 4.1663H4.46881H4.46879H4.46877H4.46874H4.46872H4.4687H4.46867C4.04545 4.16911 3.62225 4.17192 3.19928 4.16799C3.17723 4.16799 3.15499 4.17167 3.12535 4.17657C3.11052 4.17902 3.09384 4.18177 3.0744 4.18453H3.07399ZM24.2907 3.91124C24.31 3.90793 24.3293 3.90369 24.3485 3.89945C24.3894 3.89045 24.4303 3.88146 24.4714 3.88146C25.8008 3.87981 27.1302 3.8794 28.4592 3.88312C28.4986 3.88312 28.538 3.90171 28.5776 3.92037C28.5961 3.92911 28.6147 3.93787 28.6333 3.94473C28.6146 3.95329 28.5959 3.96417 28.5771 3.97506C28.5361 3.99889 28.4951 4.02275 28.4542 4.02247C27.6111 4.01668 27.3895 4.37312 27.3878 5.05871C27.3816 7.6001 27.3812 10.1419 27.3915 12.6833C27.3948 13.5045 27.5267 14.3022 27.9981 15.0068C28.5932 15.8962 29.44 16.4288 30.4663 16.6393C32.7179 17.1012 34.6696 16.4793 36.3307 14.9104C36.3869 14.8571 36.4282 14.7574 36.4286 14.6797C36.4299 11.5251 36.4266 8.37046 36.42 5.21625C36.42 5.04548 36.3972 4.87263 36.3658 4.70434C36.2831 4.25858 36.0656 4.07209 35.6066 4.03529L35.4154 4.01999L35.2241 4.00469C35.2241 3.97533 35.2237 3.94556 35.2233 3.9162C35.2421 3.9124 35.261 3.90757 35.2798 3.90274C35.3205 3.89231 35.3612 3.88188 35.4019 3.88188C36.7243 3.87981 38.0467 3.8794 39.3691 3.88353C39.4071 3.88353 39.445 3.90469 39.483 3.92588C39.5007 3.93576 39.5184 3.94566 39.5361 3.95341C39.5184 3.96142 39.5009 3.97084 39.4834 3.98026C39.4457 4.00053 39.408 4.02081 39.3682 4.02702C39.3013 4.03705 39.2334 4.04219 39.1656 4.04732C39.0685 4.05466 38.9716 4.062 38.8778 4.08367C38.5487 4.16017 38.387 4.35327 38.3494 4.68738C38.337 4.79655 38.3357 4.90737 38.3357 5.01736C38.3349 8.70912 38.3349 12.4009 38.3357 16.0926C38.3357 16.2026 38.339 16.313 38.3444 16.423C38.3709 16.9478 38.6124 17.1992 39.1354 17.2451C39.2285 17.2532 39.3217 17.2584 39.4149 17.2637C39.4551 17.266 39.4952 17.2682 39.5353 17.2707L39.5413 17.3055L39.5473 17.3402C39.5374 17.3441 39.5275 17.3486 39.5176 17.3533L39.4983 17.3628C39.4631 17.3803 39.428 17.3978 39.3926 17.3981C38.955 17.3996 38.5174 17.3997 38.0798 17.3998C37.5876 17.3999 37.0954 17.4 36.6031 17.4022C36.4617 17.4026 36.4295 17.341 36.4303 17.2145C36.4338 16.761 36.4329 16.3074 36.432 15.8539L36.4315 15.582C36.4315 15.5386 36.4291 15.4953 36.4258 15.439L36.4258 15.4388L36.4258 15.4383C36.4241 15.4089 36.4222 15.3759 36.4204 15.3376L36.339 15.4056L36.3388 15.4058L36.3381 15.4064L36.3378 15.4066C36.2923 15.4446 36.2561 15.4748 36.2202 15.5055C34.4095 17.0706 32.2998 17.6677 29.9375 17.4489C29.0154 17.3633 28.1346 17.1392 27.3357 16.6538C26.1518 15.9343 25.5605 14.8633 25.5018 13.4934C25.4861 13.1263 25.4892 12.7586 25.4923 12.3909C25.4936 12.235 25.4949 12.0791 25.4948 11.9233L25.4939 9.86307C25.4933 8.26313 25.4927 6.66319 25.4906 5.06326C25.4906 4.91936 25.4782 4.77422 25.4576 4.63156C25.4026 4.25444 25.2301 4.08904 24.8514 4.04645C24.7763 4.03807 24.701 4.03465 24.6255 4.03123C24.5634 4.02841 24.5011 4.02559 24.4391 4.01999C24.4035 4.01685 24.3687 4.00587 24.3338 3.99488L24.3338 3.99486C24.3181 3.98991 24.3023 3.98495 24.2865 3.98071L24.2902 3.91165L24.2907 3.91124ZM79.7102 4.35874C79.7337 4.29787 79.7572 4.23701 79.781 4.1763L79.8261 4.19271C79.8261 4.25996 79.8265 4.3272 79.8269 4.39444C79.8278 4.55335 79.8288 4.71221 79.8244 4.87086C79.8203 5.0222 79.8947 5.01972 79.9997 4.99077V3.89334C79.7996 3.82593 79.6983 3.89581 79.6408 4.0852C79.5998 4.22092 79.5453 4.35256 79.4838 4.50115C79.4555 4.5694 79.4258 4.64124 79.3952 4.71869C79.3633 4.63776 79.3342 4.56155 79.3064 4.48901L79.3064 4.48883C79.2363 4.30571 79.1752 4.14596 79.1012 3.99257C79.0731 3.93386 78.9718 3.89706 78.8969 3.8801C78.8643 3.87266 78.7795 3.93965 78.7783 3.97438C78.7683 4.29071 78.77 4.60746 78.7762 4.92379C78.7766 4.95149 78.8374 5.00028 78.8684 4.99904C78.9002 4.99822 78.9495 4.95149 78.9569 4.91758C78.9677 4.86993 78.9659 4.81944 78.9641 4.76913V4.76902C78.9634 4.74996 78.9627 4.73092 78.9627 4.71207V4.22372C78.9834 4.22248 79.0036 4.22166 79.0239 4.22083C79.0456 4.27581 79.067 4.33087 79.0885 4.38593L79.0889 4.38709C79.1491 4.5416 79.2093 4.69607 79.2745 4.84853C79.291 4.88726 79.3198 4.92085 79.3486 4.95446L79.3486 4.95454L79.3487 4.95458C79.3623 4.97045 79.3758 4.98633 79.3882 5.00276C79.4019 4.98607 79.417 4.96998 79.4322 4.9539C79.4658 4.91817 79.4994 4.88246 79.5176 4.84026C79.5857 4.6816 79.6479 4.52032 79.7101 4.35912L79.7102 4.35874ZM78.198 4.26776C78.1976 4.19517 78.1972 4.1215 78.1972 4.04638C78.2251 4.04475 78.25 4.04437 78.2727 4.04402C78.3192 4.04331 78.3562 4.04274 78.3898 4.03191C78.4281 4.01945 78.4629 3.99665 78.4976 3.97388C78.5125 3.96414 78.5273 3.95441 78.5424 3.94549C78.5268 3.93781 78.5113 3.92829 78.4959 3.91879C78.4622 3.89808 78.4286 3.87743 78.394 3.87601C78.2021 3.86733 78.009 3.8665 77.8167 3.87601C77.78 3.87772 77.7443 3.90097 77.7086 3.9242C77.6924 3.93473 77.6763 3.94524 77.66 3.95375C77.6765 3.96221 77.6932 3.97319 77.7099 3.98417C77.7462 4.0081 77.7824 4.03198 77.8167 4.02942C77.9734 4.01826 78.0222 4.07822 78.0136 4.23122C78.0016 4.43673 78.0049 4.64389 78.0144 4.84982C78.0161 4.88566 78.0399 4.92055 78.0638 4.95552C78.075 4.97178 78.0861 4.98806 78.095 5.00447C78.1058 4.98802 78.1191 4.9717 78.1325 4.95538C78.1619 4.91959 78.1912 4.88384 78.1926 4.84692C78.2002 4.65685 78.1991 4.46634 78.198 4.26776Z" fill="#0D1853"/>
</svg>
