<svg width="80" height="30" viewBox="0 0 80 30" fill="none" xmlns="http://www.w3.org/2000/svg">
<g clip-path="url(#clip0_1311_43816)">
<path d="M68.294 27.556C68.312 27.521 68.319 27.476 68.34 27.469C68.9253 27.257 69.218 26.8353 69.218 26.204V23.256C69.218 22.7593 69.0273 22.332 68.646 21.974H71.762C70.737 22.69 71.415 23.641 71.122 24.469H74.77C74.617 23.658 75.12 22.764 74.265 21.988H77.231C76.663 22.259 76.711 22.75 76.716 23.239C76.727 24.338 76.719 25.437 76.72 26.536C76.72 27.242 76.733 27.253 77.447 27.415C77.519 27.431 77.585 27.476 77.635 27.574H73.983C73.985 27.547 73.979 27.493 73.992 27.488C74.5046 27.2813 74.7613 26.8877 74.762 26.307C74.762 25.383 74.3073 24.9213 73.398 24.922C72.715 24.922 72.033 24.929 71.35 24.936C71.32 24.936 71.29 24.959 71.198 24.998C71.198 25.631 71.134 26.299 71.231 26.944C71.267 27.184 71.682 27.367 71.902 27.558H68.293L68.294 27.556Z" fill="#0D1853"/>
<path d="M23.9371 21.877V24.228C23.7821 23.994 23.6231 23.802 23.5151 23.584C22.7241 21.98 20.4561 21.696 19.1921 22.565C18.6881 22.912 18.4701 23.475 18.4411 24.024C18.4021 24.741 18.4531 25.489 18.6251 26.184C18.8391 27.046 19.4271 27.394 20.3301 27.405C20.5471 27.408 20.7631 27.407 20.9801 27.403C21.8511 27.386 22.2241 27.052 22.3291 26.201C22.3981 25.639 22.3921 25.63 21.5951 25.092H24.6771C24.5861 25.377 24.4331 25.666 24.4101 25.965C24.3661 26.532 24.3971 27.104 24.3971 27.674L24.2481 27.701C24.0861 27.269 23.9241 26.837 23.7301 26.318C23.1111 27.165 22.2951 27.566 21.3711 27.74C19.7751 28.04 17.4821 27.348 16.6391 25.968C16.0811 25.055 16.2761 23.73 17.0991 23.04C18.6371 21.75 20.3881 21.529 22.2791 21.972C22.5361 22.032 22.7931 22.095 23.0431 22.176C23.3011 22.26 23.5291 22.313 23.6581 21.982C23.6761 21.936 23.7941 21.928 23.9371 21.878V21.877Z" fill="#0D1853"/>
<path d="M66.8476 21.933V24.333C66.5616 23.872 66.3036 23.385 65.9786 22.947C65.4626 22.251 64.0806 21.894 63.1956 22.184C62.2206 22.503 61.6426 23.286 61.6146 24.356C61.5966 25.036 61.5356 25.735 61.9776 26.325C62.6656 27.243 63.6446 27.457 64.6826 27.24C65.3776 27.095 66.0276 26.731 66.6976 26.466C66.7856 26.431 66.8756 26.404 66.9656 26.374C66.9946 26.419 67.0246 26.464 67.0536 26.509C66.7046 26.764 66.3846 27.081 66.0016 27.264C64.3886 28.033 62.7406 28.002 61.1466 27.244C60.2106 26.799 59.5736 26.023 59.5136 24.934C59.4536 23.828 60.0166 23.041 60.9506 22.499C62.3656 21.678 63.8556 21.58 65.4156 21.997C65.8496 22.113 66.3356 22.493 66.7366 21.845C66.7736 21.874 66.8106 21.903 66.8476 21.932V21.933Z" fill="#0D1853"/>
<path d="M44.6636 27.567C44.7296 27.507 44.7596 27.455 44.7966 27.448C45.8206 27.265 45.6456 27.105 45.6546 26.27C45.6646 25.288 45.6546 24.306 45.6576 23.324C45.6586 22.812 45.7756 22.255 45.1076 21.973H48.1966C47.6126 22.284 47.5906 22.772 47.6056 23.317C47.6336 24.365 47.6136 25.414 47.6136 26.463C47.6136 27.217 47.6426 27.25 48.3866 27.415C48.4626 27.432 48.5326 27.477 48.7356 27.567H44.6636Z" fill="#0D1853"/>
<path fill-rule="evenodd" clip-rule="evenodd" d="M2.20021 30C1.57421 29.123 1.64821 28.261 2.41621 27.43C3.37921 26.39 4.51021 25.564 5.74921 24.892L5.7767 24.8771C7.46555 23.9621 9.15555 23.0464 10.8772 22.197C11.9834 21.6515 13.1336 21.1912 14.2809 20.732L14.4732 20.655C15.2299 20.352 15.7343 19.7728 16.2462 19.1849L16.2465 19.1845C16.319 19.1013 16.3917 19.0179 16.4652 18.935C16.3067 19.0169 16.1474 19.0976 15.9881 19.1784C15.6298 19.36 15.2712 19.5418 14.9202 19.737C13.8832 20.313 12.7802 20.691 11.6202 20.925C10.4472 21.162 8.30021 20.664 7.69921 19.206C7.54121 18.824 7.32621 18.783 6.92821 18.859C5.18021 19.193 3.44921 19.04 1.89121 18.172C0.326206 17.301 -0.269794 15.74 0.690206 13.912C1.52921 12.315 2.96221 11.371 4.47421 10.497C6.22521 9.48502 8.11721 8.82402 10.0482 8.32102C11.533 7.9335 13.0585 7.69309 14.5806 7.4532L14.5806 7.4532L14.5806 7.4532C14.877 7.40648 15.1734 7.35978 15.4692 7.31202C15.8223 7.25459 16.1839 7.24817 16.5455 7.24175C16.9016 7.23543 17.2579 7.2291 17.6062 7.17402C18.1757 7.0846 18.7341 6.92258 19.2915 6.76083L19.2915 6.76082C19.4448 6.71636 19.5979 6.67193 19.7512 6.62902C20.0722 6.53908 20.3908 6.43966 20.7092 6.34029C21.2441 6.17339 21.7785 6.00662 22.3232 5.88502C23.5592 5.60902 24.3972 6.13202 24.8192 7.30602C24.8672 7.43902 25.0962 7.56602 25.2572 7.59002C25.9145 7.68478 26.5733 7.76985 27.2321 7.85491L27.2322 7.85492C28.3184 7.99517 29.4045 8.1354 30.4832 8.31902C32.5752 8.67502 34.6572 9.09802 36.7332 9.53902C37.5374 9.70945 38.3346 9.91192 39.1319 10.1144L39.1319 10.1144L39.132 10.1145C39.7148 10.2625 40.2976 10.4105 40.8832 10.546C41.1996 10.6193 41.5159 10.6941 41.8323 10.769C43.0317 11.053 44.2324 11.3372 45.4462 11.535C47.3042 11.837 49.1922 11.964 51.0452 11.499C52.6012 11.109 53.9162 10.308 54.4832 8.71702C54.8932 7.56802 54.8882 6.36902 54.3712 5.22002C53.6782 3.68002 52.3752 2.86702 50.8812 2.26102C48.2302 1.18602 45.4672 0.985021 42.6592 1.21602C40.7762 1.37102 38.9062 1.64902 37.1032 2.25702C36.0092 2.62602 34.9142 2.99402 33.8182 3.35802C33.6992 3.39702 33.5702 3.40302 33.4012 3.34102C33.4244 3.32094 33.4466 3.29819 33.4688 3.27542L33.4688 3.2754C33.5186 3.22447 33.5684 3.17344 33.6292 3.15202C34.07 2.99471 34.5093 2.83226 34.9487 2.66981L34.9489 2.66974C36.0735 2.25392 37.1982 1.83806 38.3472 1.50802C39.6792 1.12502 41.0592 0.882021 42.4332 0.678021C44.5022 0.372021 46.5712 0.398021 48.6352 0.829021C49.8322 1.07902 50.9892 1.43702 52.0292 2.05102C54.3442 3.41802 55.4142 5.23802 55.0592 8.02302C54.8262 9.85302 53.6822 10.965 52.0022 11.586C50.2702 12.226 48.4892 12.191 46.6932 11.971C44.2882 11.676 41.9172 11.207 39.5682 10.616C39.2927 10.5468 39.0174 10.4766 38.742 10.4064C37.5577 10.1046 36.3725 9.80263 35.1742 9.57302C32.8816 9.13322 30.5801 8.74212 28.278 8.35091C27.9 8.28669 27.5221 8.22246 27.1442 8.15802C26.4572 8.04102 25.7612 7.97702 25.0672 7.91702C24.9452 7.90702 24.7402 8.00802 24.6932 8.11202C23.9612 9.73802 22.7262 10.944 21.3692 12.026C20.1982 12.96 19.0152 13.894 17.7522 14.692C16.4992 15.483 15.1562 16.142 13.8172 16.785C12.8662 17.242 11.8682 17.611 10.8702 17.957C10.1842 18.194 9.46621 18.349 8.75321 18.494C8.37621 18.57 8.31921 18.778 8.42921 19.06C8.62621 19.563 8.91521 19.982 9.45021 20.221C10.3922 20.641 11.3032 20.67 12.3002 20.353C14.4102 19.681 16.3252 18.666 18.0192 17.258C18.3226 17.0058 18.5666 16.6838 18.8115 16.3605C18.9783 16.1404 19.1455 15.9197 19.3322 15.72C19.8842 15.129 20.4742 14.572 21.0632 14.017C21.1772 13.909 21.3552 13.833 21.5122 13.817C21.6742 13.8 21.9132 13.82 21.9932 13.922C22.0732 14.024 22.0662 14.307 21.9782 14.406L21.9749 14.4098C21.6939 14.7297 21.3968 15.0679 21.0362 15.281C19.7993 16.0145 18.9541 17.1103 18.109 18.2062C17.8077 18.5969 17.5063 18.9877 17.1872 19.362C17.1771 19.3741 17.1754 19.3929 17.1732 19.4171C17.1719 19.4311 17.1705 19.4468 17.1672 19.464C17.4582 19.3479 17.749 19.2335 18.0391 19.1193L18.0393 19.1192C18.8411 18.8037 19.6383 18.4899 20.4232 18.147C20.6321 18.0557 20.7927 17.8213 20.9369 17.6109L20.9822 17.545C22.1882 15.809 23.6332 14.282 25.1702 12.849C26.3372 11.762 27.5762 10.749 28.8222 9.75202C29.2142 9.43802 29.7152 9.23502 30.1962 9.06902C30.364 9.01103 30.5641 9.04645 30.7641 9.08185L30.7642 9.08185C30.8539 9.09772 30.9435 9.11359 31.0302 9.12102C31.0204 9.21114 31.0204 9.30841 31.0204 9.40567C31.0203 9.61705 31.0202 9.82836 30.9202 9.96602C30.4162 10.658 29.8822 11.342 29.2762 11.945C28.1762 13.039 27.0662 14.133 25.8672 15.112C25.1503 15.6977 24.3847 16.2228 23.6189 16.748C23.1477 17.0712 22.6764 17.3945 22.2162 17.732C21.8772 17.981 21.5772 18.305 21.3262 18.643C21.0528 19.0111 20.8083 19.4007 20.5638 19.7903L20.5637 19.7904C20.4622 19.9521 20.3608 20.1139 20.2572 20.274L20.3622 20.402C20.4151 20.3921 20.4703 20.3864 20.5256 20.3806L20.5256 20.3806C20.6428 20.3685 20.7601 20.3563 20.8552 20.304C21.0786 20.1809 21.3054 20.0617 21.5323 19.9425L21.5323 19.9425C22.1696 19.6077 22.8079 19.2723 23.3772 18.846C24.0445 18.3457 24.6754 17.7972 25.3064 17.2487L25.3064 17.2487L25.3065 17.2486C25.7714 16.8445 26.2364 16.4402 26.7162 16.055C27.7122 15.255 28.7812 14.558 30.0812 14.352C30.3372 14.311 30.6172 14.32 30.8702 14.375C31.4222 14.495 31.6422 14.971 31.4012 15.482C31.0672 16.192 30.4742 16.695 29.8432 17.083C29.1936 17.4833 28.4861 17.792 27.781 18.0998L27.7809 18.0999C27.6263 18.1673 27.4719 18.2347 27.3182 18.303C27.2292 18.3427 27.105 18.3041 26.9809 18.2656C26.9238 18.2478 26.8668 18.2301 26.8132 18.22C26.8526 18.1778 26.8911 18.1248 26.9297 18.0718C27.0127 17.9577 27.0957 17.8435 27.1872 17.836C28.4113 17.7389 29.2908 17.0075 30.1679 16.2783L30.2452 16.214C30.5092 15.995 30.7262 15.706 30.9142 15.417C30.9972 15.289 31.0052 15.062 30.9502 14.916C30.9262 14.851 30.6242 14.811 30.5122 14.873C30.3696 14.9525 30.2244 15.0297 30.0789 15.107C29.5798 15.3724 29.0775 15.6396 28.6632 16.005C27.7352 16.824 26.8792 17.729 26.0442 18.645C25.7792 18.936 25.6272 19.36 25.5112 19.749C25.3872 20.164 25.6932 20.547 26.1262 20.489C26.6422 20.42 27.2182 20.339 27.6352 20.063C28.8552 19.256 30.0272 18.373 31.1832 17.475C31.8623 16.9467 32.5265 16.3995 33.1909 15.8523C33.7122 15.4229 34.2337 14.9934 34.7622 14.573C34.9432 14.429 35.2092 14.351 35.4452 14.322C36.0802 14.243 36.4152 14.838 36.1192 15.553C36.045 15.7317 35.9562 15.9044 35.8659 16.08C35.7496 16.3065 35.6307 16.5379 35.5372 16.793C35.6153 16.7298 35.6925 16.6654 35.7699 16.601C35.9422 16.4573 36.1147 16.3135 36.2962 16.183C36.5068 16.0311 36.7152 15.8749 36.9236 15.7185C37.4851 15.2974 38.047 14.8759 38.6552 14.539C39.4442 14.102 40.0122 14.258 40.0722 15.027C40.0982 15.351 39.9862 15.757 39.7902 16.013C39.3991 16.5252 38.9744 17.0112 38.5496 17.4973L38.5496 17.4974C38.3357 17.7421 38.1218 17.9869 37.9122 18.235C37.8034 18.3638 37.6938 18.4921 37.5842 18.6205C37.1791 19.095 36.7736 19.5699 36.4052 20.072C36.1422 20.43 36.2902 20.646 36.7362 20.697C37.3043 20.7615 37.7379 20.4633 38.1571 20.1751C38.2257 20.1279 38.2939 20.081 38.3622 20.036C38.7337 19.7913 39.0857 19.5168 39.4376 19.2421C39.7877 18.969 40.1377 18.6958 40.5072 18.452L40.6198 18.3776C41.4907 17.8015 42.3721 17.2185 43.5062 17.3C44.1692 17.347 44.9792 17.869 45.1622 18.486C45.0706 18.4374 44.9848 18.3937 44.9036 18.3524C44.7357 18.2669 44.5874 18.1913 44.4472 18.103C43.7482 17.664 43.0062 17.655 42.3152 18.027C41.5823 18.4216 40.8735 18.8602 40.1645 19.2987C39.8925 19.467 39.6206 19.6352 39.3472 19.801C39.1107 19.9444 38.8754 20.0893 38.6401 20.2341L38.6396 20.2344C38.3121 20.4362 37.9847 20.6378 37.6542 20.835C37.5292 20.91 37.3822 20.978 37.2402 20.989C37.1753 20.9943 37.1094 21.0011 37.043 21.0079C36.5558 21.0581 36.0447 21.1107 35.7552 20.587C35.3842 19.916 35.6752 19.268 36.0002 18.659C36.4613 17.7945 37.1576 17.1399 37.8538 16.4855C38.1948 16.1648 38.5359 15.8443 38.8492 15.499C38.9629 15.3735 39.0619 15.2347 39.1805 15.0682L39.1806 15.0681C39.2425 14.9813 39.3097 14.8869 39.3872 14.783C38.6898 14.8432 38.2542 15.2051 37.8485 15.5421C37.8092 15.5747 37.7702 15.6071 37.7312 15.639C36.5095 16.6422 35.3157 17.6792 34.1221 18.716L34.1221 18.7161C33.9225 18.8894 33.7229 19.0628 33.5232 19.236C33.3335 19.4005 33.1555 19.5789 32.9775 19.7572C32.8309 19.9041 32.6843 20.0509 32.5312 20.19C31.8762 20.784 31.1242 20.997 30.1762 20.881C30.8862 20.0303 31.6627 19.2366 32.446 18.436C33.5493 17.3084 34.666 16.167 35.6292 14.833C34.9292 14.7636 34.5325 15.108 34.174 15.4192C34.1191 15.4668 34.0652 15.5136 34.0112 15.558C33.3287 16.1188 32.6646 16.7021 32.0004 17.2854L32.0004 17.2854L32.0003 17.2855C31.3488 17.8577 30.6972 18.4299 30.0282 18.981C29.0742 19.767 28.0502 20.466 26.8552 20.868C26.1932 21.09 25.5482 21.108 25.0562 20.574C24.5962 20.075 24.5532 19.438 24.7652 18.794L24.7713 18.7756C24.8195 18.6307 24.8681 18.4845 24.8412 18.283C24.6967 18.3877 24.5542 18.4957 24.4116 18.6037L24.4116 18.6037L24.4116 18.6038C24.0885 18.8485 23.7654 19.0933 23.4192 19.3C22.5312 19.831 21.6372 20.363 20.7032 20.802C20.0202 21.123 19.6432 20.795 19.7142 20.044C19.7352 19.816 19.7892 19.585 19.8682 19.369C19.9192 19.2287 19.9925 19.0967 20.0829 18.9338L20.083 18.9338L20.083 18.9337C20.1292 18.8506 20.1798 18.7594 20.2342 18.655C20.0549 18.7238 19.8869 18.7871 19.7266 18.8475L19.7266 18.8475C19.3999 18.9707 19.1057 19.0816 18.8152 19.201C18.6153 19.283 18.4124 19.3604 18.2094 19.4378L18.2092 19.4379L18.2092 19.4379C17.6671 19.6447 17.1244 19.8516 16.6362 20.147C16.2757 20.3655 15.9943 20.724 15.7177 21.0762C15.6437 21.1705 15.57 21.2644 15.4952 21.355C13.8582 23.338 12.1072 25.207 10.1482 26.879C8.62621 28.177 6.96421 29.226 5.05921 29.868C4.9968 29.889 4.93853 29.9216 4.88035 29.9541L4.88033 29.9541C4.85275 29.9695 4.82518 29.9849 4.79721 29.999H2.20021V30ZM16.4794 7.95306L16.4788 7.95339L11.8781 10.9638C11.7222 11.0924 11.5702 11.2252 11.4234 11.3631C10.4154 12.3101 9.42638 13.3081 8.60438 14.4141C7.76938 15.5371 7.22838 16.8421 7.43438 18.3431L7.43314 18.3435C6.46154 18.698 5.47497 18.666 4.51338 18.5781C3.40638 18.4761 2.32838 18.1941 1.47038 17.3951C0.481379 16.4751 0.358379 15.3401 1.17138 14.1511C1.98038 12.9671 3.05238 12.0901 4.31238 11.4601C4.42333 11.4046 4.53432 11.349 4.64539 11.2933L4.64648 11.2928C5.83352 10.6978 7.02995 10.0982 8.28238 9.68406C10.5904 8.92106 12.9524 8.31906 15.3884 8.08706C15.5974 8.06734 15.806 8.03985 16.0542 8.00713C16.1836 7.99008 16.3238 7.9716 16.4804 7.95206L16.4794 7.95306ZM9.11362 18.0253C8.91661 18.0687 8.71471 18.1131 8.50643 18.162C8.5065 18.1616 8.50657 18.1613 8.50665 18.1609C8.50658 18.1609 8.50652 18.1609 8.50645 18.161C8.61932 17.6217 8.80517 17.1484 9.03871 16.7133C9.31858 16.1919 9.66693 15.7254 10.0402 15.266C11.4892 13.486 13.2092 11.992 15.0312 10.632C16.1915 9.76595 17.4375 9.0118 18.6806 8.25933C18.9332 8.10646 19.1856 7.95366 19.4372 7.80001C19.6731 7.65573 20.021 7.66114 20.329 7.66593C20.3541 7.66632 20.3788 7.66671 20.4032 7.66701C21.3468 7.67795 22.2903 7.70328 23.2339 7.7286C23.5833 7.73798 23.9328 7.74736 24.2822 7.75601L24.4032 7.92201C24.4031 7.92219 24.403 7.92238 24.4029 7.92256L24.4032 7.92302C24.2936 8.09138 24.1892 8.26423 24.0848 8.43709L24.0848 8.43717L24.0848 8.43719C23.855 8.8177 23.6252 9.19823 23.3392 9.53102C21.2582 11.953 18.6582 13.731 15.9202 15.306C14.1452 16.327 12.2732 17.162 10.2992 17.737C9.91633 17.8486 9.52567 17.9346 9.11362 18.0253ZM8.50645 18.161C8.50638 18.161 8.5063 18.161 8.50623 18.161V18.162C8.5063 18.1617 8.50638 18.1613 8.50645 18.161ZM13.9292 21.529L13.8502 21.358C13.7691 21.3861 13.6869 21.412 13.6047 21.4379C13.4264 21.4941 13.2479 21.5503 13.0802 21.629C12.821 21.7505 12.5618 21.8718 12.3025 21.9931C11.0061 22.5995 9.70971 23.2059 8.42721 23.84C6.70721 24.691 5.01621 25.604 3.55721 26.872C3.11521 27.256 2.67321 27.692 2.39821 28.196C2.21221 28.536 2.17421 29.105 2.33421 29.448C2.52724 29.8643 3.00635 29.6733 3.37497 29.5263L3.40321 29.515C3.49089 29.4801 3.58032 29.4473 3.66994 29.4143L3.66996 29.4143C3.94008 29.3149 4.21194 29.215 4.44321 29.058C4.67145 28.9026 4.90054 28.7481 5.12971 28.5935L5.13021 28.5931C6.14385 27.9094 7.15878 27.2248 8.10721 26.459C9.50015 25.3331 10.8588 24.1645 12.2176 22.9959L12.2176 22.9959C12.7873 22.5059 13.357 22.0159 13.9292 21.529ZM23.4822 16.417C23.5382 16.3842 23.5958 16.3535 23.6535 16.3227C23.777 16.2568 23.9005 16.1909 24.0082 16.105C24.3884 15.7998 24.7645 15.4895 25.1408 15.1791C25.4375 14.9343 25.7343 14.6895 26.0332 14.447C27.6582 13.129 29.1382 11.666 30.4272 10.016C30.5277 9.88751 30.5847 9.72582 30.6417 9.56417L30.6417 9.56415C30.6681 9.48933 30.6945 9.41453 30.7252 9.34302C30.6652 9.30102 30.6052 9.25902 30.5442 9.21702C27.9512 11.0139 25.9594 13.4223 23.9576 15.8429L23.9576 15.8429L23.9574 15.8431C23.7992 16.0344 23.6409 16.2258 23.4822 16.417ZM23.333 7.30985L23.3357 7.31004L24.4532 7.38802C24.2232 6.77502 23.9772 6.29002 23.3392 6.22102C22.4192 6.12102 21.6982 6.59102 21.0192 7.14802C21.7836 7.2018 22.548 7.25511 23.333 7.30985Z" fill="#0D1853"/>
<path fill-rule="evenodd" clip-rule="evenodd" d="M38.0629 25.5825C38.0659 25.3829 38.069 25.1713 38.069 24.943V24.944C38.1911 25.0051 38.3049 25.0528 38.4088 25.0964C38.6076 25.1798 38.7696 25.2478 38.882 25.364C39.2079 25.7005 39.5168 26.053 39.8258 26.4056C40.0458 26.6566 40.2658 26.9077 40.492 27.153C40.5059 27.168 40.5201 27.1835 40.5346 27.1994C40.6894 27.3683 40.8779 27.574 41.058 27.584C41.6778 27.6185 42.3003 27.6132 42.9231 27.6079C43.1504 27.606 43.3777 27.604 43.605 27.604C43.4909 27.5197 43.3659 27.4613 43.2463 27.4053C43.1049 27.3392 42.9711 27.2766 42.872 27.179C42.488 26.801 42.152 26.371 41.82 25.944C41.582 25.638 41.328 25.466 40.906 25.492C40.355 25.526 39.79 25.507 39.291 25.19C39.3004 25.1713 39.3068 25.1563 39.3115 25.1452C39.3184 25.1291 39.3218 25.121 39.326 25.121C39.3733 25.1166 39.4206 25.1136 39.4679 25.1106C39.5365 25.1063 39.6049 25.1019 39.673 25.093C39.8611 25.068 40.0504 25.0491 40.2397 25.0303C40.987 24.9559 41.7327 24.8817 42.395 24.426C43.091 23.948 43.098 23.006 42.424 22.518C41.7113 22.0019 40.8886 21.9656 40.087 21.9303C40.0406 21.9282 39.9942 21.9262 39.948 21.924C38.9072 21.8753 37.8637 21.8874 36.8202 21.8996C36.4301 21.9041 36.04 21.9087 35.65 21.91C35.549 21.9107 35.4479 21.9264 35.3469 21.942C35.2979 21.9496 35.249 21.9572 35.2 21.963C35.964 22.264 36.013 22.333 36.013 23.156V26.155C36.013 26.8004 35.723 27.2434 35.143 27.484C35.1273 27.4897 35.1193 27.5132 35.1127 27.5323C35.11 27.5401 35.1076 27.5471 35.105 27.552H38.947C38.8709 27.4876 38.7837 27.4624 38.7034 27.4391C38.6391 27.4205 38.5792 27.4032 38.533 27.368C38.5236 27.3609 38.5139 27.3535 38.5041 27.3461C38.3302 27.214 38.107 27.0444 38.09 26.873C38.0498 26.469 38.0558 26.06 38.0629 25.5825ZM38.0571 23.418C38.0563 23.4584 38.0557 23.4988 38.0557 23.539C38.056 23.6287 38.0539 23.7186 38.0519 23.8084C38.0472 24.019 38.0424 24.2292 38.0677 24.436C38.0684 24.4417 38.0693 24.4475 38.0705 24.4535C38.0943 24.5803 38.2219 24.7713 38.31 24.777C38.3547 24.7799 38.3994 24.783 38.4442 24.786C39.1107 24.8311 39.784 24.8766 40.395 24.498C40.826 24.231 40.963 23.824 40.91 23.344C40.9072 23.3185 40.9038 23.2932 40.8999 23.2682C40.8423 22.8946 40.6589 22.581 40.2687 22.49C39.7117 22.36 39.1407 22.276 38.5717 22.215C38.1827 22.173 38.0017 22.382 38.0497 22.791C38.0627 22.9019 38.0652 23.0143 38.064 23.1271C38.0634 23.1843 38.0618 23.2417 38.0602 23.2992C38.0591 23.3388 38.0579 23.3784 38.0571 23.418Z" fill="#0D1853"/>
<path fill-rule="evenodd" clip-rule="evenodd" d="M50.3198 26.349C51.2978 27.412 52.5678 27.731 53.7808 27.811V27.81C55.0758 27.785 56.1258 27.515 57.0598 26.843C58.3818 25.892 58.7908 24.365 57.4868 23.05C56.9088 22.468 56.2058 22.126 55.4108 21.949C53.6178 21.549 51.9568 21.766 50.5218 23.002C49.4628 23.914 49.3898 25.337 50.3198 26.349ZM52.9892 22.3419C52.6272 22.5425 52.3133 22.8503 52.0988 23.239C51.6088 24.127 51.6098 25.063 51.9098 25.985C52.346 27.3283 53.8446 27.86 55.017 27.2217C55.1569 27.1457 55.2923 27.053 55.4206 26.943C56.0566 26.397 56.1856 25.654 56.1126 24.951H56.1136C56.1136 24.8427 56.1146 24.7447 56.1155 24.6536C56.1174 24.4703 56.1189 24.3149 56.1116 24.16C56.0676 23.181 55.3446 22.331 54.3846 22.121C53.9087 22.017 53.4155 22.1051 52.9892 22.3419Z" fill="#0D1853"/>
<path fill-rule="evenodd" clip-rule="evenodd" d="M30.697 27.582H34.418V27.58C34.3152 27.4948 34.2055 27.4155 34.0964 27.3368C33.8572 27.1641 33.6211 26.9936 33.468 26.767C33.1794 26.3413 32.9439 25.8802 32.7083 25.419C32.6124 25.2312 32.5165 25.0434 32.417 24.858C32.308 24.655 32.1993 24.4518 32.0906 24.2487C31.7094 23.5364 31.3283 22.8243 30.937 22.117C30.883 22.02 30.734 21.918 30.627 21.916C29.9837 21.9037 29.3405 21.905 28.6973 21.9062C28.5015 21.9066 28.3057 21.907 28.11 21.907C28.106 21.955 28.103 22.004 28.1 22.053L28.72 22.457C28.5085 22.8277 28.2993 23.1963 28.0911 23.5631C27.5646 24.4905 27.0447 25.4063 26.513 26.315C26.325 26.637 26.093 26.946 25.827 27.204C25.7153 27.3123 25.5576 27.3728 25.3741 27.4431C25.2832 27.478 25.186 27.5153 25.085 27.562H27.604C27.5653 27.5322 27.5367 27.5073 27.5137 27.4872C27.4773 27.4554 27.4551 27.4361 27.43 27.43C27.11 27.35 26.771 27.24 26.858 26.832C26.939 26.448 27.14 26.159 27.647 26.183C28.544 26.225 29.446 26.229 30.343 26.182C30.861 26.155 31.16 26.315 31.384 26.784C31.552 27.135 31.438 27.276 31.137 27.378C31.032 27.4132 30.9237 27.4389 30.8154 27.4646C30.7668 27.4761 30.7183 27.4876 30.67 27.5L30.697 27.582ZM29.1185 22.6748L29.1181 22.674C28.8642 23.135 28.6221 23.5745 28.384 24.0066C28.0566 24.6009 27.7368 25.1812 27.4051 25.784C27.4051 25.784 27.4051 25.784 27.4051 25.784H30.8051L30.8051 25.784H30.806C30.4674 25.1603 30.1403 24.5572 29.8044 23.9378C29.5818 23.5273 29.3553 23.1096 29.119 22.674C29.1188 22.6743 29.1187 22.6745 29.1185 22.6748Z" fill="#0D1853"/>
</g>
<defs>
<clipPath id="clip0_1311_43816">
<rect width="80" height="30" fill="white"/>
</clipPath>
</defs>
</svg>
