<svg width="80" height="42" viewBox="0 0 80 42" fill="none" xmlns="http://www.w3.org/2000/svg">
<g clip-path="url(#clip0_1311_45811)">
<path fill-rule="evenodd" clip-rule="evenodd" d="M36.7262 32.8876C37.0423 32.8876 37.2487 33.0102 37.281 33.2166C37.3455 33.5779 37.0036 33.823 36.6423 33.8295C36.4165 33.8295 36.1585 33.7005 36.1133 33.436C36.0681 33.1715 36.3972 32.8941 36.7262 32.8876Z" fill="#0D1853"/>
<path fill-rule="evenodd" clip-rule="evenodd" d="M49.2154 38.2614C48.8025 38.2614 48.5767 37.9453 48.5315 37.7066C48.5186 37.6163 48.5186 37.5131 48.5315 37.4485H48.5057C48.2219 37.7453 47.9122 38.2033 47.28 38.2162C46.8027 38.2227 46.5124 37.7517 46.3833 37.184C46.0995 37.5647 45.5447 38.1517 44.906 38.1646C44.6415 38.1646 44.3061 37.984 44.2351 37.5582C44.0867 36.6551 45.964 34.8358 45.9189 34.5326C45.9124 34.4746 45.9189 34.4165 45.8285 34.4165C45.3705 34.4165 44.119 36.1519 42.7514 38.1517L41.7514 38.1646C42.0353 37.6937 43.1255 36.0358 43.7319 35.1713C44.0351 34.7391 44.0738 34.6617 44.0609 34.5585C44.0416 34.4617 43.9577 34.3972 43.8739 34.3972C43.6158 34.3972 42.9836 35.3906 42.403 36.3196C41.4289 37.8872 41.1644 38.2485 40.5902 38.2549C40.2096 38.2549 40.0226 37.984 39.9645 37.6421C39.9193 37.3518 39.9516 36.9518 40.3258 36.3583L41.7321 34.1262L42.7901 34.1133L41.2354 36.5712C40.7451 37.3324 40.6225 37.6937 40.6419 37.8098C40.6612 37.9259 40.7322 37.9904 40.8096 37.984C41.087 37.984 41.5837 37.2486 42.3772 35.9841C43.1513 34.7584 43.4803 34.1327 44.0674 34.1262C44.5899 34.1262 44.8544 34.6359 44.7577 34.9842L44.777 35.0036C45.2286 34.423 45.5705 34.1327 46.0801 34.1262C46.4091 34.1262 46.5898 34.4294 46.6349 34.7004C46.8027 35.7132 44.8093 37.2679 44.8996 37.8034C44.9125 37.8872 44.9576 37.9195 45.0222 37.9195C45.3124 37.9195 45.5963 37.7453 46.4865 36.5905C46.8285 35.7906 47.8219 34.1843 49.5186 34.1585C49.9056 34.1585 50.0927 34.2359 50.2411 34.481H50.2604L50.454 34.2488H51.2539C50.8668 34.881 50.1766 36.0745 49.5315 37.1453C49.3702 37.4163 49.2347 37.7001 49.2541 37.8227C49.2734 37.913 49.3831 37.9388 49.4992 37.9388C49.8863 37.9388 51.041 36.2873 51.4732 35.6164C52.6667 33.6359 53.7311 31.9135 53.7311 31.9135L54.8536 31.9006C54.8536 31.9006 53.5698 33.7972 52.1184 36.2486C51.6281 37.0679 51.3765 37.6356 51.4152 37.8808C51.441 38.0356 51.499 38.0614 51.6023 38.0549C52.0345 38.0549 52.6731 37.3066 53.5634 36.0938H53.8343C52.6151 37.7969 51.9958 38.2936 51.5894 38.3001C51.1571 38.3001 50.8733 38.0614 50.7894 37.5389C50.7701 37.4421 50.783 37.3066 50.8217 37.1389C50.7314 37.2744 49.8605 38.2485 49.2154 38.2614ZM49.6863 34.3714C49.454 34.3714 48.8476 34.6488 47.7574 36.3583C47.3962 36.926 47.151 37.6485 47.1704 37.7969C47.1962 37.9582 47.3058 38.0162 47.4736 38.0162C48.0413 38.0162 49.9637 34.9197 49.9056 34.5778C49.8863 34.4488 49.8089 34.3714 49.6798 34.3714H49.6863Z" fill="#0D1853"/>
<path fill-rule="evenodd" clip-rule="evenodd" d="M25.8625 34.881C25.6368 33.5392 27.3592 31.7264 29.4235 31.7006C30.2686 31.6877 31.0428 32.3393 31.1782 33.1779C31.4879 35.0875 29.301 38.0808 27.9398 38.0937C27.1915 38.1066 26.9399 37.5518 26.8625 37.0809C26.8302 36.8938 26.8496 36.6293 26.9141 36.3003C27.1463 36.3519 27.3721 36.3906 27.5979 36.3906C29.5397 36.3648 30.488 34.9455 30.4299 33.9327V33.8876L30.1267 33.694V33.8101C30.1074 35.1778 28.7655 36.0422 27.5463 36.0551C27.385 36.0551 27.1979 36.0164 27.0044 35.9713C27.1915 35.3326 27.5269 34.681 28.0237 34.0166C28.6043 33.2425 29.4623 32.6748 30.3654 32.449L30.4235 32.4361L30.3654 32.0813L30.288 32.0942C28.9204 32.3328 26.6689 33.5908 26.0174 35.281C25.9464 35.1584 25.8754 35.0359 25.8561 34.8875L25.8625 34.881ZM38.5454 38.4162V38.4291L38.526 38.4549L38.5131 38.4807L38.5002 38.5001V38.513C38.6293 38.513 38.7389 38.513 38.8228 38.513C44.7384 38.442 47.8414 39.9516 50.2283 39.9193C52.4217 39.8935 53.3894 39.2226 54.2151 38.7259L53.7119 39.2613C53.2603 39.6742 52.1636 40.1451 50.267 40.1709C47.9833 40.2032 41.7838 38.7194 39.2615 38.7517C38.9647 38.7517 38.668 38.7646 38.3777 38.7775H38.3712L38.3583 38.7968V38.8226L38.3261 38.8743V38.8872L38.2938 38.9452L38.2809 38.971C38.01 39.5065 37.6422 40.1129 36.9649 40.8741C36.1972 41.7321 35.3779 41.7063 34.6167 41.7192H34.5393C33.7071 41.7063 33.2813 41.2225 33.2168 40.8289C33.1136 40.2032 33.1587 40.2032 33.4877 39.8484C34.4038 38.8226 36.1843 38.584 37.4745 38.5323L37.5326 38.4227L37.8293 37.8872L37.81 37.8743C37.6229 38.1066 37.21 38.313 36.8746 38.313C36.423 38.3195 36.0682 38.0808 35.9391 37.3647C35.5843 37.7905 35.1199 38.2614 34.6231 38.2679C34.2103 38.2679 33.9651 37.9711 33.9006 37.5969C33.849 37.3066 33.9135 36.9067 34.4296 36.1261C34.4941 36.0229 34.4296 35.939 34.1909 35.939C33.9458 35.939 33.7845 35.7455 33.7329 35.6036C33.4361 35.939 32.333 37.5389 31.8685 38.2485L30.8686 38.2614C31.1653 37.7776 32.5717 35.3584 32.7588 35.0617C32.8749 34.8875 32.9845 34.6617 32.9652 34.5004C32.9587 34.4617 32.9265 34.4166 32.7846 34.4166C32.4943 34.4166 31.7201 35.081 31.3331 35.6036C30.6235 37.2615 29.0042 38.4485 27.9462 38.4614C26.9979 38.4743 26.0109 37.5905 25.8432 36.5777C25.798 36.3132 25.8109 36.0358 25.8625 35.7519C25.5077 35.4294 25.2819 35.0359 25.2045 34.5649C24.9465 32.9973 27.2108 31.4361 29.0945 31.4103C30.4622 31.391 31.4298 32.12 31.6298 33.3134C31.7266 33.9005 31.6814 34.4682 31.5395 35.0036C32.0104 34.4746 32.591 34.1327 33.0039 34.1263C33.6361 34.1198 33.6555 34.5004 33.6813 34.6294C33.7006 34.7585 33.72 34.9971 33.7071 35.1584C33.7974 35.0746 33.849 34.9649 33.9006 34.8875C33.9522 34.823 33.9329 34.7714 33.9587 34.7004C34.1909 34.1327 34.507 33.9521 34.7199 33.9521C34.8102 33.9521 34.9586 33.965 34.9844 34.1263C35.0424 34.5004 34.3457 35.2294 34.1651 35.1713C34.0683 35.2745 33.9909 35.4745 34.0038 35.5455C34.0103 35.6229 34.049 35.7648 34.2296 35.7584C34.5844 35.7584 34.9392 35.3971 35.0747 35.1842L35.694 34.2295L36.752 34.2166L35.1779 36.7002C34.8296 37.2099 34.6231 37.6679 34.6489 37.855C34.6683 37.9711 34.7457 38.0098 34.8296 38.0098C34.9715 38.0098 35.2102 37.913 35.9327 37.0744C35.9714 36.7196 36.1972 36.2229 36.7778 35.5713C37.0939 35.2229 38.1454 34.3327 39.2099 34.3198C39.6614 34.3198 39.7388 34.423 39.8872 34.5714H39.9066L40.2291 34.2811L41.1387 34.2682L39.055 37.4679C38.8486 37.784 38.7067 38.1001 38.5518 38.4291L38.5454 38.4162ZM37.2423 38.9775L37.2939 38.8743C35.965 39.042 34.8296 39.429 34.0812 40.2677C33.8167 40.5644 33.6942 40.7838 33.7522 41.1128C33.7974 41.3773 34.0232 41.5708 34.3522 41.5708C35.8037 41.5515 36.8036 39.8677 37.2423 38.9775ZM39.3711 34.5133C39.0679 34.5133 38.6164 34.8101 38.0487 35.4487C37.339 36.2358 36.6552 37.3518 36.7391 37.8485C36.7584 37.9776 36.8746 38.0614 37.0423 38.0614C37.4423 38.0614 38.2422 37.0292 39.255 35.5906C39.4937 35.2487 39.6679 34.9004 39.6356 34.7262C39.6098 34.5649 39.526 34.5133 39.3776 34.5133H39.3711Z" fill="#0D1853"/>
<path fill-rule="evenodd" clip-rule="evenodd" d="M42.7705 32.8102C43.0866 32.8102 43.293 32.9328 43.3252 33.1392C43.3898 33.5005 43.0479 33.7456 42.6801 33.7521C42.4544 33.7521 42.1963 33.6231 42.1511 33.3586C42.106 33.0876 42.435 32.8102 42.764 32.8102H42.7705Z" fill="#0D1853"/>
<path fill-rule="evenodd" clip-rule="evenodd" d="M34.0876 0.477327L34.6682 0.354756V0.361207C34.7843 0.335403 36.4874 0.00639725 40.2032 0.00639725C43.8117 0.00639725 44.865 0.261911 45.0233 0.300309C45.028 0.301452 45.0319 0.302402 45.0351 0.303147L45.635 0.425718C45.635 0.425718 45.7382 1.1805 45.7511 1.25791C46.6866 1.14179 48.3251 1.00632 49.8411 1.03212C52.3295 1.0734 53.0716 1.3087 53.2448 1.36363C53.2611 1.36879 53.2724 1.37237 53.2796 1.37403L53.5763 1.4837C53.5763 1.4837 54.415 6.70908 54.5891 7.91544L80 7.88318V28.0364H58.3566C58.4921 28.6041 58.8469 30.1136 58.8469 30.1136L57.8727 30.2233C52.499 30.8168 46.3253 31.1329 40.0548 31.1329C33.7844 31.1329 27.63 30.8168 22.2305 30.2233L21.2563 30.1136C21.2563 30.1136 21.6176 28.6041 21.7466 28.0364H0V7.90253H25.0431C25.2173 6.69618 25.9979 1.36113 25.9979 1.36113C25.9979 1.36113 27.3268 1.03212 30.0621 1.03212C31.6297 1.03212 33.0102 1.11599 33.965 1.24501L34.0876 0.477327ZM52.9182 2.09015L53.9117 8.96701L78.9161 8.94121V26.8688H57.0275L57.563 29.217C52.3699 29.7911 46.2929 30.1072 39.8354 30.1072C33.3778 30.1072 27.3267 29.7911 22.1078 29.217L22.7077 26.8688H1.09012L1.07076 8.93476L25.643 8.99282H25.6494L26.63 2.01919C26.63 2.01919 26.9461 1.78695 29.8813 1.78695C31.9586 1.78695 33.6488 2.02564 34.4745 2.16756L34.6358 1.13539C34.6358 1.13539 36.3002 0.748323 39.9708 0.748323C43.6415 0.748323 44.964 1.00637 44.964 1.00637L45.1188 2.0966C45.9768 1.95468 47.6283 1.73534 49.6217 1.73534C52.5634 1.73534 52.9182 2.09015 52.9182 2.09015Z" fill="#0D1853"/>
<path fill-rule="evenodd" clip-rule="evenodd" d="M41.4419 0.754756H38.4551C38.8938 0.735402 39.3518 0.716049 39.8292 0.716049H39.9711C40.4872 0.716049 40.9775 0.728951 41.4355 0.754756H41.4419Z" fill="#0D1853"/>
<path fill-rule="evenodd" clip-rule="evenodd" d="M42.0739 0.793502H37.8484C38.0419 0.780599 38.2484 0.767697 38.4548 0.754795H41.4416C41.661 0.767697 41.8739 0.780599 42.0803 0.793502H42.0739Z" fill="#0D1853"/>
<path fill-rule="evenodd" clip-rule="evenodd" d="M42.5645 0.832164H37.3843C37.5327 0.819261 37.6939 0.806359 37.8552 0.793457H42.0807C42.2484 0.806359 42.4097 0.819261 42.5645 0.832164Z" fill="#0D1853"/>
<path fill-rule="evenodd" clip-rule="evenodd" d="M42.9707 0.870906H36.9841C37.1132 0.858004 37.2422 0.845101 37.3776 0.832199H42.5579C42.6998 0.845101 42.8353 0.858004 42.9643 0.870906H42.9707Z" fill="#0D1853"/>
<path fill-rule="evenodd" clip-rule="evenodd" d="M43.3258 0.903102H36.636C36.7457 0.890199 36.8618 0.877297 36.9843 0.864395H42.971C43.0935 0.877297 43.2161 0.890199 43.3258 0.903102Z" fill="#0D1853"/>
<path fill-rule="evenodd" clip-rule="evenodd" d="M43.6482 0.941844H36.3262C36.4294 0.928942 36.5326 0.916039 36.6358 0.903137H43.3256C43.4353 0.916039 43.5449 0.928942 43.6482 0.941844Z" fill="#0D1853"/>
<path fill-rule="evenodd" clip-rule="evenodd" d="M43.9384 0.980586H36.0422L36.3261 0.941879H43.6481C43.7513 0.954781 43.8481 0.967684 43.9384 0.980586Z" fill="#0D1853"/>
<path fill-rule="evenodd" clip-rule="evenodd" d="M44.2033 1.01925H35.7717L36.0427 0.980545H43.9388L44.2033 1.01925Z" fill="#0D1853"/>
<path fill-rule="evenodd" clip-rule="evenodd" d="M44.4477 1.05154H35.5259L35.771 1.01929H44.2026L44.4477 1.05154Z" fill="#0D1853"/>
<path fill-rule="evenodd" clip-rule="evenodd" d="M44.6803 1.09019H35.2939L35.5262 1.05148H44.448L44.6803 1.09019Z" fill="#0D1853"/>
<path fill-rule="evenodd" clip-rule="evenodd" d="M44.8866 1.12893H35.0745L35.2938 1.09023H44.6801C44.764 1.10313 44.8414 1.11603 44.893 1.12893H44.8866Z" fill="#0D1853"/>
<path fill-rule="evenodd" clip-rule="evenodd" d="M45.0093 1.1612H34.8682L35.0746 1.1225H44.8867C44.9641 1.1354 45.0028 1.14185 45.0028 1.14185V1.15475L45.0093 1.1612Z" fill="#0D1853"/>
<path fill-rule="evenodd" clip-rule="evenodd" d="M45.0156 1.19987H34.6809C34.7196 1.19342 34.7841 1.18052 34.868 1.16116H45.0091V1.19987H45.0156Z" fill="#0D1853"/>
<path fill-rule="evenodd" clip-rule="evenodd" d="M45.0226 1.23861H34.6299L34.6363 1.21281L34.6815 1.19991H45.0161L45.0226 1.23861Z" fill="#0D1853"/>
<path fill-rule="evenodd" clip-rule="evenodd" d="M45.0287 1.27728H34.623L34.6295 1.23857H45.0222L45.0287 1.27728Z" fill="#0D1853"/>
<path fill-rule="evenodd" clip-rule="evenodd" d="M45.0352 1.30957H34.6167L34.6231 1.27731H45.0288L45.0352 1.30957Z" fill="#0D1853"/>
<path fill-rule="evenodd" clip-rule="evenodd" d="M45.0348 1.34821H34.6099L34.6163 1.30951H45.0348V1.34821Z" fill="#0D1853"/>
<path fill-rule="evenodd" clip-rule="evenodd" d="M45.0413 1.38696H34.6099V1.34825H45.0348L45.0413 1.38696Z" fill="#0D1853"/>
<path fill-rule="evenodd" clip-rule="evenodd" d="M45.0481 1.4257H34.6038L34.6102 1.38699H45.0416L45.0481 1.4257Z" fill="#0D1853"/>
<path fill-rule="evenodd" clip-rule="evenodd" d="M45.0549 1.4579H34.5977L34.6041 1.42565H45.0484L45.0549 1.4579Z" fill="#0D1853"/>
<path fill-rule="evenodd" clip-rule="evenodd" d="M45.0607 1.49664H34.5906L34.597 1.45793H45.0542L45.0607 1.49664Z" fill="#0D1853"/>
<path fill-rule="evenodd" clip-rule="evenodd" d="M45.0673 1.5353H34.5842L34.5907 1.49659H45.0608L45.0673 1.5353Z" fill="#0D1853"/>
<path fill-rule="evenodd" clip-rule="evenodd" d="M45.0676 1.56759H34.5781L34.5846 1.53534H45.0676V1.56759Z" fill="#0D1853"/>
<path fill-rule="evenodd" clip-rule="evenodd" d="M45.0737 1.60632H34.5713L34.5777 1.56761H45.0672L45.0737 1.60632Z" fill="#0D1853"/>
<path fill-rule="evenodd" clip-rule="evenodd" d="M45.0802 1.64498H34.5649L34.5714 1.60627H45.0738L45.0802 1.64498Z" fill="#0D1853"/>
<path fill-rule="evenodd" clip-rule="evenodd" d="M45.0863 1.68372H34.5581L34.5646 1.64502H45.0798L45.0863 1.68372Z" fill="#0D1853"/>
<path fill-rule="evenodd" clip-rule="evenodd" d="M45.0931 1.71594H34.552L34.5585 1.68368H45.0866L45.0931 1.71594Z" fill="#0D1853"/>
<path fill-rule="evenodd" clip-rule="evenodd" d="M53.0922 3.3029H26.4685L26.475 3.27065H53.0922V3.3029Z" fill="#0D1853"/>
<path fill-rule="evenodd" clip-rule="evenodd" d="M53.0987 3.34163H26.4622L26.4686 3.30292H53.0923L53.0987 3.34163Z" fill="#0D1853"/>
<path fill-rule="evenodd" clip-rule="evenodd" d="M53.1052 3.38037H26.4622V3.34166H53.0987L53.1052 3.38037Z" fill="#0D1853"/>
<path fill-rule="evenodd" clip-rule="evenodd" d="M53.112 3.41904H26.4561L26.4625 3.38033H53.1055L53.112 3.41904Z" fill="#0D1853"/>
<path fill-rule="evenodd" clip-rule="evenodd" d="M53.1185 3.45133H26.4497L26.4562 3.41907H53.1121L53.1185 3.45133Z" fill="#0D1853"/>
<path fill-rule="evenodd" clip-rule="evenodd" d="M53.1246 3.49005H26.4429L26.4493 3.45134H53.1181L53.1246 3.49005Z" fill="#0D1853"/>
<path fill-rule="evenodd" clip-rule="evenodd" d="M53.1249 3.52871H26.4368L26.4432 3.49001H53.1249V3.52871Z" fill="#0D1853"/>
<path fill-rule="evenodd" clip-rule="evenodd" d="M53.1314 3.56101H26.4368V3.52875H53.1249L53.1314 3.56101Z" fill="#0D1853"/>
<path fill-rule="evenodd" clip-rule="evenodd" d="M53.2989 4.70931H26.2688L26.2752 4.67061H53.2924L53.2989 4.70931Z" fill="#0D1853"/>
<path fill-rule="evenodd" clip-rule="evenodd" d="M53.3057 4.74798H26.2627L26.2691 4.70927H53.2992L53.3057 4.74798Z" fill="#0D1853"/>
<path fill-rule="evenodd" clip-rule="evenodd" d="M53.3117 4.78027H26.2559L26.2623 4.74801H53.3053L53.3117 4.78027Z" fill="#0D1853"/>
<path fill-rule="evenodd" clip-rule="evenodd" d="M53.3118 4.81892H26.2495L26.256 4.78021H53.3118V4.81892Z" fill="#0D1853"/>
<path fill-rule="evenodd" clip-rule="evenodd" d="M53.3183 4.85766H26.2495V4.81895H53.3118L53.3183 4.85766Z" fill="#0D1853"/>
<path fill-rule="evenodd" clip-rule="evenodd" d="M53.3251 4.89632H26.2434L26.2499 4.85762H53.3186L53.3251 4.89632Z" fill="#0D1853"/>
<path fill-rule="evenodd" clip-rule="evenodd" d="M53.3312 4.92861H26.2366L26.243 4.89636H53.3247L53.3312 4.92861Z" fill="#0D1853"/>
<path fill-rule="evenodd" clip-rule="evenodd" d="M53.3377 4.96734H26.2302L26.2367 4.92863H53.3313L53.3377 4.96734Z" fill="#0D1853"/>
<path fill-rule="evenodd" clip-rule="evenodd" d="M53.344 5.00601H26.2236L26.2301 4.9673H53.3376L53.344 5.00601Z" fill="#0D1853"/>
<path fill-rule="evenodd" clip-rule="evenodd" d="M53.3439 5.03829H26.217L26.2235 5.00604H53.3439V5.03829Z" fill="#0D1853"/>
<path fill-rule="evenodd" clip-rule="evenodd" d="M53.3503 5.07702H26.217V5.03831H53.3439L53.3503 5.07702Z" fill="#0D1853"/>
<path fill-rule="evenodd" clip-rule="evenodd" d="M53.3571 5.11568H26.2109L26.2174 5.07697H53.3507L53.3571 5.11568Z" fill="#0D1853"/>
<path fill-rule="evenodd" clip-rule="evenodd" d="M53.3637 5.15443H26.2046L26.211 5.11572H53.3572L53.3637 5.15443Z" fill="#0D1853"/>
<path fill-rule="evenodd" clip-rule="evenodd" d="M53.3698 5.18664H26.1978L26.2042 5.15438H53.3633L53.3698 5.18664Z" fill="#0D1853"/>
<path fill-rule="evenodd" clip-rule="evenodd" d="M53.3766 5.22536H26.1917L26.1981 5.18666H53.3701L53.3766 5.22536Z" fill="#0D1853"/>
<path fill-rule="evenodd" clip-rule="evenodd" d="M53.3762 5.2641H26.1848L26.1913 5.2254H53.3762V5.2641Z" fill="#0D1853"/>
<path fill-rule="evenodd" clip-rule="evenodd" d="M53.3826 5.29632H26.1848V5.26406H53.3762L53.3826 5.29632Z" fill="#0D1853"/>
<path fill-rule="evenodd" clip-rule="evenodd" d="M53.3892 5.33504H26.1785L26.1849 5.29634H53.3827L53.3892 5.33504Z" fill="#0D1853"/>
<path fill-rule="evenodd" clip-rule="evenodd" d="M53.396 5.37378H26.1724L26.1788 5.33508H53.3895L53.396 5.37378Z" fill="#0D1853"/>
<path fill-rule="evenodd" clip-rule="evenodd" d="M53.4989 6.07692H26.0688L26.0753 6.03821H53.4924L53.4989 6.07692Z" fill="#0D1853"/>
<path fill-rule="evenodd" clip-rule="evenodd" d="M53.499 6.10913H26.0625L26.069 6.07688H53.499V6.10913Z" fill="#0D1853"/>
<path fill-rule="evenodd" clip-rule="evenodd" d="M53.5054 6.14786H26.0625V6.10915H53.499L53.5054 6.14786Z" fill="#0D1853"/>
<path fill-rule="evenodd" clip-rule="evenodd" d="M53.512 6.1866H26.0562L26.0626 6.14789H53.5056L53.512 6.1866Z" fill="#0D1853"/>
<path fill-rule="evenodd" clip-rule="evenodd" d="M53.5181 6.22526H26.0493L26.0558 6.18656H53.5116L53.5181 6.22526Z" fill="#0D1853"/>
<path fill-rule="evenodd" clip-rule="evenodd" d="M53.5249 6.25756H26.0432L26.0497 6.2253H53.5184L53.5249 6.25756Z" fill="#0D1853"/>
<path fill-rule="evenodd" clip-rule="evenodd" d="M53.5309 6.29628H26.0364L26.0428 6.25757H53.5245L53.5309 6.29628Z" fill="#0D1853"/>
<path fill-rule="evenodd" clip-rule="evenodd" d="M53.531 6.33494H26.03L26.0365 6.29624H53.531V6.33494Z" fill="#0D1853"/>
<path fill-rule="evenodd" clip-rule="evenodd" d="M53.5375 6.37369H26.03V6.33498H53.531L53.5375 6.37369Z" fill="#0D1853"/>
<path fill-rule="evenodd" clip-rule="evenodd" d="M53.5443 6.4059H26.0239L26.0304 6.37365H53.5378L53.5443 6.4059Z" fill="#0D1853"/>
<path fill-rule="evenodd" clip-rule="evenodd" d="M53.5508 6.44462H26.0176L26.024 6.40592H53.5444L53.5508 6.44462Z" fill="#0D1853"/>
<path fill-rule="evenodd" clip-rule="evenodd" d="M53.5569 6.48337H26.0107L26.0172 6.44466H53.5505L53.5569 6.48337Z" fill="#0D1853"/>
<path fill-rule="evenodd" clip-rule="evenodd" d="M53.5635 6.51558H26.0044L26.0108 6.48333H53.557L53.5635 6.51558Z" fill="#0D1853"/>
<path fill-rule="evenodd" clip-rule="evenodd" d="M53.5635 6.5543H26.0044V6.5156H53.5635V6.5543Z" fill="#0D1853"/>
<path fill-rule="evenodd" clip-rule="evenodd" d="M53.5695 6.59297H25.9976L26.004 6.55426H53.5631L53.5695 6.59297Z" fill="#0D1853"/>
<path fill-rule="evenodd" clip-rule="evenodd" d="M53.5763 6.63171H25.9915L25.9979 6.59301H53.5699L53.5763 6.63171Z" fill="#0D1853"/>
<path fill-rule="evenodd" clip-rule="evenodd" d="M53.5829 6.66393H25.9851L25.9916 6.63167H53.5764L53.5829 6.66393Z" fill="#0D1853"/>
<path fill-rule="evenodd" clip-rule="evenodd" d="M53.5889 6.70265H25.9783L25.9847 6.66394H53.5825L53.5889 6.70265Z" fill="#0D1853"/>
<path fill-rule="evenodd" clip-rule="evenodd" d="M53.5957 6.74139H25.9722L25.9786 6.70268H53.5893L53.5957 6.74139Z" fill="#0D1853"/>
<path fill-rule="evenodd" clip-rule="evenodd" d="M53.5957 6.77361H25.9722V6.74135H53.5957V6.77361Z" fill="#0D1853"/>
<path fill-rule="evenodd" clip-rule="evenodd" d="M53.6023 6.81233H25.9658L25.9723 6.77362H53.5958L53.6023 6.81233Z" fill="#0D1853"/>
<path fill-rule="evenodd" clip-rule="evenodd" d="M53.6089 6.85107H25.9595L25.9659 6.81236H53.6024L53.6089 6.85107Z" fill="#0D1853"/>
<path fill-rule="evenodd" clip-rule="evenodd" d="M53.6149 6.88974H25.9526L25.9591 6.85103H53.6085L53.6149 6.88974Z" fill="#0D1853"/>
<path fill-rule="evenodd" clip-rule="evenodd" d="M53.6217 6.92203H25.9465L25.953 6.88977H53.6153L53.6217 6.92203Z" fill="#0D1853"/>
<path fill-rule="evenodd" clip-rule="evenodd" d="M53.6213 6.96067H25.9397L25.9461 6.92197H53.6213V6.96067Z" fill="#0D1853"/>
<path fill-rule="evenodd" clip-rule="evenodd" d="M53.6278 6.99942H25.9397V6.96071H53.6213L53.6278 6.99942Z" fill="#0D1853"/>
<path fill-rule="evenodd" clip-rule="evenodd" d="M53.6343 7.03816H25.9333L25.9398 6.99945H53.6279L53.6343 7.03816Z" fill="#0D1853"/>
<path fill-rule="evenodd" clip-rule="evenodd" d="M53.6411 7.07037H25.9272L25.9337 7.03812H53.6347L53.6411 7.07037Z" fill="#0D1853"/>
<path fill-rule="evenodd" clip-rule="evenodd" d="M53.6477 7.1091H25.9209L25.9273 7.07039H53.6412L53.6477 7.1091Z" fill="#0D1853"/>
<path fill-rule="evenodd" clip-rule="evenodd" d="M53.7894 8.10255H25.7788L25.7853 8.07029H53.783L53.7894 8.10255Z" fill="#0D1853"/>
<path fill-rule="evenodd" clip-rule="evenodd" d="M53.796 8.14127H25.7725L25.7789 8.10257H53.7896L53.796 8.14127Z" fill="#0D1853"/>
<path fill-rule="evenodd" clip-rule="evenodd" d="M53.8021 8.17994H25.7656L25.7721 8.14123H53.7956L53.8021 8.17994Z" fill="#0D1853"/>
<path fill-rule="evenodd" clip-rule="evenodd" d="M53.8089 8.21868H25.7595L25.766 8.17997H53.8024L53.8089 8.21868Z" fill="#0D1853"/>
<path fill-rule="evenodd" clip-rule="evenodd" d="M53.8147 8.25097H25.7524L25.7589 8.21872H53.8082L53.8147 8.25097Z" fill="#0D1853"/>
<path fill-rule="evenodd" clip-rule="evenodd" d="M53.8147 8.28962H25.7524V8.25091H53.8147V8.28962Z" fill="#0D1853"/>
<path fill-rule="evenodd" clip-rule="evenodd" d="M53.8215 8.32836H25.7463L25.7528 8.28965H53.815L53.8215 8.32836Z" fill="#0D1853"/>
<path fill-rule="evenodd" clip-rule="evenodd" d="M53.828 8.36702H25.74L25.7464 8.32832H53.8216L53.828 8.36702Z" fill="#0D1853"/>
<path fill-rule="evenodd" clip-rule="evenodd" d="M53.8341 8.39932H25.7332L25.7396 8.36706H53.8277L53.8341 8.39932Z" fill="#0D1853"/>
<path fill-rule="evenodd" clip-rule="evenodd" d="M46.0935 8.59929C47.0095 8.65735 48.0417 8.70251 48.8933 8.70251C50.7899 8.70251 53.4348 8.47672 53.8412 8.44447L53.7251 7.65098H45.958L46.0935 8.59929Z" fill="#0D1853"/>
<path fill-rule="evenodd" clip-rule="evenodd" d="M45.7192 6.03823L45.8805 7.13492H53.6476L53.4928 6.06404C53.1122 6.05759 50.6156 6.01888 48.8867 6.01888C47.9642 6.01888 46.7321 6.01888 45.7192 6.03178V6.03823Z" fill="#0D1853"/>
<path fill-rule="evenodd" clip-rule="evenodd" d="M45.5255 4.68989L45.6481 5.54788C46.6673 5.52208 47.9447 5.50272 48.9059 5.50272C50.6154 5.50272 53.0088 5.58014 53.4216 5.59304L53.2926 4.68989C52.8797 4.67698 50.5509 4.59312 48.9059 4.59312C47.9124 4.59312 46.5512 4.65118 45.519 4.69634L45.5255 4.68989Z" fill="#0D1853"/>
<path fill-rule="evenodd" clip-rule="evenodd" d="M45.3253 3.30943L45.4543 4.21258C46.48 4.14162 47.8799 4.0642 48.9057 4.0642C50.5507 4.0642 52.8279 4.20613 53.2279 4.23193L53.0924 3.29652C52.6795 3.26427 50.4797 3.10944 48.9057 3.10944C47.7703 3.10944 46.2478 3.23201 45.3188 3.31588L45.3253 3.30943Z" fill="#0D1853"/>
<path fill-rule="evenodd" clip-rule="evenodd" d="M48.8349 1.74823C47.2028 1.74823 45.8416 1.92886 45.1384 2.04498L45.2481 2.83201C46.1383 2.73524 47.7189 2.57397 48.9059 2.57397C50.4735 2.57397 52.6152 2.78685 53.0217 2.82556L52.9184 2.09013C52.9184 2.09013 51.2412 1.74823 48.8349 1.74823Z" fill="#0D1853"/>
<path fill-rule="evenodd" clip-rule="evenodd" d="M46.1577 9.07666L46.0157 8.0832L33.6103 8.07029L33.4619 9.06376C34.4167 9.14117 37.7841 9.39922 39.9775 9.39922C42.3386 9.39922 45.6093 9.12182 46.1577 9.07666Z" fill="#0D1853"/>
<path fill-rule="evenodd" clip-rule="evenodd" d="M45.7255 6.08982C45.1578 6.08982 42.0936 6.03821 39.9647 6.03821C37.9584 6.03821 34.7845 6.06402 33.9007 6.07047L33.7007 7.43165H45.9191L45.7255 6.08337V6.08982Z" fill="#0D1853"/>
<path fill-rule="evenodd" clip-rule="evenodd" d="M45.6414 5.49634L45.4737 4.3674C44.9705 4.34804 42.0223 4.24483 39.9386 4.24483C37.8549 4.24483 34.4229 4.46416 34.1391 4.47707L33.9907 5.49634C34.8874 5.47054 37.9517 5.39312 39.9386 5.39312C42.0933 5.39312 45.1253 5.48344 45.6349 5.49634H45.6414Z" fill="#0D1853"/>
<path fill-rule="evenodd" clip-rule="evenodd" d="M39.958 1.74179C41.9514 1.74179 44.6931 2.01274 45.1383 2.06435V2.04499L45.0028 1.14829C45.0028 1.14829 42.9126 0.722519 39.8935 0.722519C36.8744 0.722519 34.6294 1.2128 34.6294 1.2128L34.494 2.0579L34.4746 2.18047L34.5327 2.16756C34.5327 2.16756 37.7776 1.74179 39.9516 1.74179H39.958Z" fill="#0D1853"/>
<path fill-rule="evenodd" clip-rule="evenodd" d="M39.9711 3.59327C42.0225 3.59327 44.8674 3.76745 45.3964 3.7997L45.2223 2.63206C44.6804 2.59335 41.9322 2.39337 39.9711 2.39337C37.7906 2.39337 34.4489 2.75463 34.4489 2.75463H34.3973L34.2231 3.90937H34.2619C34.2619 3.90937 37.6938 3.59327 39.9646 3.59327H39.9711Z" fill="#0D1853"/>
<path fill-rule="evenodd" clip-rule="evenodd" d="M30.7848 8.69608C31.5976 8.69608 32.604 8.65092 33.5265 8.59931L33.6684 7.63165L25.9078 7.64455H25.8368L25.7207 8.42514H25.7917C26.011 8.45094 28.7979 8.69608 30.7719 8.69608H30.7848Z" fill="#0D1853"/>
<path fill-rule="evenodd" clip-rule="evenodd" d="M30.8103 4.05124C31.8102 4.05124 33.165 4.12866 34.1842 4.19317L34.3197 3.29001C33.3843 3.20615 31.9199 3.09003 30.8103 3.09003C29.1201 3.09003 26.6881 3.27711 26.5526 3.28356H26.4687L26.3333 4.21897H26.4171C26.4816 4.21252 29.0169 4.04479 30.8103 4.04479V4.05124Z" fill="#0D1853"/>
<path fill-rule="evenodd" clip-rule="evenodd" d="M30.8101 5.48345C31.7455 5.48345 32.9777 5.5028 33.9841 5.52861L34.1131 4.67061C33.0938 4.619 31.7778 4.5674 30.8101 4.5674C29.049 4.5674 26.5073 4.66416 26.3524 4.67061H26.275L26.146 5.58022H26.2234C26.3976 5.57377 28.9974 5.4899 30.8101 5.4899V5.48345Z" fill="#0D1853"/>
<path fill-rule="evenodd" clip-rule="evenodd" d="M33.7457 7.12198L33.907 6.02529C32.9006 6.01884 31.6942 6.00594 30.7846 6.00594C28.9719 6.00594 26.3205 6.04465 26.1399 6.0511H26.0689L25.9141 7.12198H33.7457Z" fill="#0D1853"/>
<path fill-rule="evenodd" clip-rule="evenodd" d="M30.8105 2.50946C31.9717 2.50946 33.5006 2.66428 34.3973 2.76105L34.5005 2.05788C33.8231 1.94176 32.4361 1.74823 30.733 1.74823C28.3203 1.74823 26.6495 2.09013 26.6495 2.09013L26.5527 2.77395H26.6172C26.7334 2.7546 29.1138 2.50946 30.8169 2.50946H30.8105Z" fill="#0D1853"/>
<path fill-rule="evenodd" clip-rule="evenodd" d="M23.972 16.7534C24.2494 17.3663 24.8365 18.6436 25.0429 19.1081H22.8496C23.0753 18.6372 23.6817 17.3598 23.9656 16.7534H23.972ZM24.8429 13.5924H22.0496C22.0496 13.5924 22.6173 14.3665 22.7334 14.5278C22.6109 14.7859 19.1531 22.1272 19.1208 22.1982L18.2241 23.1787H22.0625C22.0625 23.1787 21.5529 22.4369 21.4432 22.282C21.5464 22.0691 22.2625 20.5725 22.3722 20.3402H25.6171C25.7203 20.5918 26.346 22.0691 26.4364 22.2756C26.3331 22.4304 25.8171 23.1787 25.8171 23.1787H30.1199L29.1523 22.1724C29.12 22.1014 25.0042 13.5989 25.0042 13.5989H24.8494L24.8429 13.5924Z" fill="#0D1853"/>
<path fill-rule="evenodd" clip-rule="evenodd" d="M56.1499 13.5666H48.7505C48.7505 13.5666 49.3569 14.3794 49.4343 14.4827V22.2562C49.3569 22.3594 48.7505 23.1723 48.7505 23.1723H56.5628V20.6305C56.5628 20.6305 55.6725 21.3789 55.5628 21.4756H52.0728V18.9468H54.2726C54.3694 19.0178 55.0532 19.5403 55.0532 19.5403V16.9405C55.0532 16.9405 54.3565 17.5792 54.2533 17.6695H52.0728V15.2761H55.3887C55.5048 15.4052 56.3821 16.4051 56.3821 16.4051L56.395 13.5731H56.1434L56.1499 13.5666Z" fill="#0D1853"/>
<path fill-rule="evenodd" clip-rule="evenodd" d="M61.4142 14.8439C62.4464 14.8439 63.0206 15.3729 63.0206 16.3277C63.0206 17.2824 62.3497 17.9275 61.3433 17.9275H60.6143V14.8439H61.4078H61.4142ZM57.821 13.5731H57.3372C57.3372 13.5731 57.9113 14.3794 57.9823 14.4827V22.2627C57.9113 22.3659 57.3372 23.1723 57.3372 23.1723H61.2336C61.2336 23.1723 60.6853 22.3659 60.6143 22.2627V19.1145H60.6853C60.8272 19.3016 63.098 22.2562 63.098 22.2562C63.7173 23.0562 63.9495 23.1658 65.0075 23.1658H67.3622V22.0691H66.4332C66.2203 22.0691 66.0848 22.024 65.7171 21.5595C65.7171 21.5595 64.1753 19.5855 63.5947 18.8371C65.014 18.3791 65.7429 17.5147 65.7429 16.2696C65.7429 15.4761 65.4397 14.8181 64.8398 14.302C64.1818 13.7666 63.3496 13.5666 61.8594 13.5666H57.821V13.5731Z" fill="#0D1853"/>
<path fill-rule="evenodd" clip-rule="evenodd" d="M75.0908 12.6957C75.0908 12.6957 74.3489 12.9731 74.2135 13.0247C73.5619 12.7989 72.8071 12.5667 72.0201 12.5667C69.53 12.5667 67.8591 13.844 67.8591 15.7535C67.8591 16.5341 68.143 17.2373 68.6655 17.7469C69.1881 18.2501 69.4332 18.4178 71.3427 19.4242C73.0394 20.3338 73.5619 20.7983 73.5619 21.3982C73.5619 22.0821 72.8007 22.5788 71.7491 22.5788C70.8524 22.5788 70.246 22.3853 69.4203 21.8369C69.4203 21.8369 68.9687 21.5208 68.4268 20.7209L67.9688 20.0371V23.7722C67.9688 23.7722 69.001 23.3916 69.1493 23.3336C70.1944 23.8303 71.1105 24.0561 72.091 24.0561C74.5102 24.0561 76.1939 22.6756 76.1939 20.6951C76.1939 20.0177 76.0004 19.4307 75.6069 18.8952C75.2714 18.4436 74.8328 18.063 74.3554 17.7856L73.5683 17.3534L72.691 16.8825C70.8524 15.9148 70.5299 15.5665 70.5299 15.0826C70.5299 14.4698 71.2008 13.9859 72.0523 13.9859C72.6975 13.9859 73.1877 14.1279 73.9748 14.5472C73.9877 14.5472 74.3038 14.7214 74.9295 15.5794L74.9618 15.631L75.4198 16.347V12.5667L75.0779 12.6957H75.0908Z" fill="#0D1853"/>
<path fill-rule="evenodd" clip-rule="evenodd" d="M3.83218 12.3732H3.29028C3.29028 12.3732 3.9612 13.1602 4.05151 13.2634C4.05796 13.9601 4.07087 19.6823 4.07087 22.8175L3.31609 23.7465H6.70291C6.70291 23.7465 6.0707 22.9594 5.99329 22.8562C5.99329 22.3014 5.98039 18.534 5.97394 16.3664C6.73517 17.6889 10.3994 24.0755 10.3994 24.0755C10.3994 24.0755 13.8894 17.2954 14.412 16.2696V22.811L13.6959 23.74H17.9085C17.9085 23.74 17.2698 22.953 17.1859 22.8498C17.1795 22.1659 17.1666 16.4309 17.1666 13.2957L17.9085 12.3667H14.3539C14.3539 12.3667 11.0509 18.9017 10.6832 19.6371C10.2639 18.921 6.47712 12.3603 6.47712 12.3603H3.83218V12.3732Z" fill="#0D1853"/>
<path fill-rule="evenodd" clip-rule="evenodd" d="M29.2817 18.5469C29.2817 21.4951 31.2042 23.2562 34.4233 23.2562C35.2619 23.2562 36.1715 23.1143 37.3714 22.7853L37.5585 22.7337V17.476L37.3133 17.4631H34.2362C34.2362 17.4631 35.2296 18.4953 35.3458 18.6179V21.2564C35.0684 21.308 34.7652 21.3467 34.4233 21.3467C32.7395 21.3467 31.6493 20.1984 31.6493 18.4179C31.6493 16.6374 32.8169 15.4375 34.6297 15.4375C35.3845 15.4375 36.2231 15.6117 36.8231 15.8891L37.1456 16.0374L37.3004 13.9731L37.1069 13.915C36.2425 13.657 35.3909 13.5344 34.4233 13.5344C31.2042 13.5344 29.2817 15.4117 29.2817 18.5469Z" fill="#0D1853"/>
<path fill-rule="evenodd" clip-rule="evenodd" d="M41.3065 13.5859H38.1906C38.1906 13.5859 38.868 14.3988 38.9648 14.5084V22.2562C38.868 22.3659 38.1777 23.1787 38.1777 23.1787L41.9258 23.1916C41.9258 23.1916 41.1775 22.3659 41.0807 22.2562V17.3211C41.8162 18.3726 45.1901 23.1787 45.1901 23.1787H48.2156C48.2156 23.1787 47.5899 22.3723 47.506 22.2627V14.502C47.5899 14.3923 48.2543 13.5924 48.2543 13.5924H44.6159C44.6159 13.5924 45.2997 14.4052 45.3901 14.5084V19.1661C44.6611 18.1404 41.4291 13.5859 41.4291 13.5859H41.3001H41.3065Z" fill="#0D1853"/>
<path fill-rule="evenodd" clip-rule="evenodd" d="M47.2543 22.3466V14.4117L47.7252 13.844H45.1577L45.648 14.4182V19.9532L41.3064 13.844H38.7324L39.2162 14.4182V22.3466L38.7195 22.9272L41.358 22.9336L40.829 22.3466V16.5277L45.3189 22.9272H47.7059L47.2543 22.3466Z" fill="#0D1853"/>
<path fill-rule="evenodd" clip-rule="evenodd" d="M22.4564 19.3597H25.4368L23.9788 16.16L22.4564 19.3597ZM28.9397 22.3143L29.5268 22.9207H26.2948L26.7205 22.3014L25.7851 20.0822H22.2177L21.1597 22.3014L21.5855 22.9207H18.7986L19.334 22.3337L23.0305 14.4956L22.5531 13.8376H24.8497L28.9462 22.3079L28.9397 22.3143Z" fill="#0D1853"/>
<path fill-rule="evenodd" clip-rule="evenodd" d="M56.1438 15.7407L55.5051 15.0246H51.8215V17.9211H54.3568L54.8019 17.5083L54.8084 19.0372L54.3568 18.6953H51.8215V21.7273H55.6535L56.3115 21.1725V22.9207H49.2476L49.6862 22.3401V14.4053L49.2476 13.8247H55.2535V13.8182H56.1502L56.1438 15.7407Z" fill="#0D1853"/>
<path fill-rule="evenodd" clip-rule="evenodd" d="M60.3695 18.1792H61.3436C62.4919 18.1792 63.266 17.4244 63.266 16.3342C63.266 15.2439 62.5822 14.5988 61.4081 14.5988H60.363V18.1792H60.3695ZM60.763 22.9207H57.8213L58.2342 22.3401V14.3988L57.8213 13.8182H61.8597C63.2854 13.8182 64.0789 14.0118 64.6788 14.4956C65.2078 14.9472 65.4916 15.5407 65.4916 16.2696C65.4916 17.5083 64.7304 18.3082 63.1757 18.7082L65.5239 21.7144C65.9045 22.1982 66.1045 22.3208 66.4335 22.3208H67.1109V22.9143H65.0078C64.0272 22.9143 63.866 22.8304 63.2983 22.1014L60.8081 18.8565H60.363V22.3337L60.7565 22.9143L60.763 22.9207Z" fill="#0D1853"/>
<path fill-rule="evenodd" clip-rule="evenodd" d="M75.1747 12.9279V15.4955L75.136 15.431C74.4393 14.4762 74.0974 14.3278 74.0974 14.3278C73.291 13.8956 72.7684 13.7343 72.0588 13.7343C71.0524 13.7343 70.2848 14.3278 70.2848 15.0826C70.2848 15.7213 70.7234 16.1212 72.5813 17.1018C73.4651 17.5792 74.0264 17.8695 74.2393 17.9985C74.6844 18.2565 75.0844 18.6114 75.4134 19.0436C75.7811 19.5403 75.9553 20.0693 75.9553 20.6951C75.9553 22.5207 74.3554 23.8045 72.104 23.8045C70.9879 23.8045 70.059 23.4884 69.1752 23.0626L68.2333 23.411V20.8563C68.8139 21.7272 69.2913 22.0433 69.2913 22.0433C70.1557 22.6175 70.8137 22.8304 71.7621 22.8304C72.9555 22.8304 73.82 22.2369 73.82 21.4047C73.82 20.6822 73.2587 20.1725 71.4718 19.2049C69.5816 18.2114 69.3493 18.0501 68.8462 17.5727C68.3688 17.1082 68.1172 16.4696 68.1172 15.76C68.1172 13.9988 69.6719 12.8247 72.0266 12.8247C72.7749 12.8247 73.4909 13.0441 74.2264 13.2957L75.1876 12.9344L75.1747 12.9279Z" fill="#0D1853"/>
<path fill-rule="evenodd" clip-rule="evenodd" d="M5.70965 15.4375C5.70965 15.4375 10.2899 23.4175 10.3802 23.5658C10.4577 23.411 14.6509 15.2697 14.6509 15.2697V22.8949C14.6509 22.8949 14.6315 22.9594 14.1993 23.5013C14.3799 23.5013 17.1926 23.5013 17.3797 23.5013C17.2829 23.3787 16.9345 22.953 16.9345 22.953L16.9152 13.2312C16.9152 13.2312 16.941 13.1667 17.3861 12.6248C17.199 12.6248 14.5605 12.6248 14.5025 12.6248L10.6899 20.1726L6.3225 12.6248H3.82593C3.92915 12.7473 4.29041 13.1731 4.29041 13.1731L4.31621 22.8949C4.31621 22.8949 4.28396 22.9594 3.83238 23.5013H6.17413C6.07736 23.3787 5.73545 22.953 5.73545 22.953L5.70965 15.431V15.4375Z" fill="#0D1853"/>
<path fill-rule="evenodd" clip-rule="evenodd" d="M35.5906 18.5211V21.4757C35.2874 21.5531 34.9068 21.6047 34.4165 21.6047C32.5135 21.6047 31.391 20.2371 31.391 18.4308C31.391 16.6245 32.5393 15.1988 34.623 15.1988C35.339 15.1988 36.2293 15.3536 36.9196 15.6697L37.0357 14.1601C36.268 13.9279 35.4487 13.7924 34.4165 13.7924C31.391 13.7924 29.5266 15.502 29.5266 18.5533C29.5266 21.6047 31.5329 23.011 34.4165 23.011C35.3713 23.011 36.3583 22.8046 37.3002 22.553V17.7276H34.8165L35.5906 18.5275V18.5211Z" fill="#0D1853"/>
<path fill-rule="evenodd" clip-rule="evenodd" d="M57.5627 29.2235L57.0724 27.0172L57.0595 27.0236L56.7047 25.4883C51.6987 26.0044 45.9508 26.2947 39.8545 26.2947C33.7582 26.2947 28.0296 26.0044 23.0236 25.4883L22.701 26.8753L22.1011 29.2235C27.32 29.7976 33.3647 30.1137 39.8351 30.1137C46.3056 30.1137 52.3696 29.7976 57.5627 29.2235ZM26.7336 28.7847L26.1724 28.7331L26.353 26.8042L26.9142 26.8559L26.7336 28.7847ZM28.7271 27.8042L29.0239 27.8236C29.1787 27.8365 29.3335 27.7913 29.3464 27.6236C29.3593 27.4817 29.2561 27.3978 29.0432 27.3784L28.7594 27.3591L28.7271 27.7978V27.8042ZM29.2368 27.043C29.7013 27.0752 29.9528 27.3655 29.9335 27.6558C29.9141 27.8687 29.7722 28.0171 29.5077 28.101C29.68 28.1896 29.7509 28.3533 29.8952 28.6869C29.94 28.7904 29.9919 28.9102 30.0561 29.0493L29.4368 29.0041C29.3834 28.8957 29.3397 28.791 29.2995 28.6945C29.1793 28.4061 29.0898 28.1913 28.8626 28.1719L28.7013 28.159L28.6433 28.946L28.082 28.9009L28.2304 26.9656L29.2368 27.043ZM31.1587 29.1202L31.7264 29.146L31.8361 27.2107L31.2748 27.1785L31.1587 29.1202ZM34.6423 27.8429L34.6362 27.8402L34.6488 27.4751C34.3714 27.359 34.1456 27.3074 33.894 27.2945C33.3715 27.2752 33.0231 27.4816 33.0102 27.8171C32.9948 28.2332 33.4006 28.3755 33.7272 28.49C33.9473 28.5671 34.1314 28.6316 34.1262 28.7589C34.1262 28.875 34.0037 28.9266 33.7908 28.9266C33.5456 28.9137 33.3456 28.8428 33.0295 28.6428L33.0102 29.0621C33.2295 29.1718 33.4231 29.2685 33.8166 29.2814C34.3198 29.3008 34.6939 29.1008 34.7068 28.7267C34.7224 28.3175 34.3072 28.1672 33.9788 28.0484C33.7636 27.9706 33.5857 27.9062 33.5908 27.7912C33.5972 27.6945 33.7327 27.6364 33.9327 27.6429C34.125 27.6493 34.3173 27.7003 34.6362 27.8402L34.6359 27.8493L34.6423 27.8429ZM37.591 29.3525L38.1522 29.3654L38.1909 27.4236L37.6297 27.4107L37.6168 28.1913L36.4878 28.1719L36.5007 27.3913L35.9395 27.3849L35.9072 29.3202L36.4685 29.3331L36.4814 28.5461L37.6103 28.5654L37.591 29.3525ZM43.1323 29.1783L43.1387 29.1718L43.1258 29.1776V28.7525L43.0813 28.7713C42.7843 28.8963 42.5894 28.9783 42.3065 28.9783C41.8356 28.9848 41.4937 28.7461 41.4937 28.3977C41.4872 28.0558 41.8227 27.7978 42.3065 27.7978C42.5839 27.7913 42.842 27.8687 43.0871 27.9848V27.5526C42.8549 27.4365 42.5775 27.3913 42.2614 27.3913C41.3905 27.4042 40.9131 27.8945 40.9131 28.4106C40.926 28.9074 41.3711 29.3912 42.2485 29.3783C42.5793 29.3719 42.8161 29.3153 43.1258 29.1776V29.1783H43.1323ZM44.3968 29.3009L44.9129 29.288L44.8549 27.5204L44.3452 27.5397L44.3968 29.3009ZM46.6221 28.8944L46.9576 28.8815C47.4736 28.8557 47.6091 28.5525 47.5962 28.288C47.5833 27.9848 47.3769 27.7396 46.893 27.7654L46.564 27.7783L46.6157 28.8944H46.6221ZM46.9447 27.4364C47.693 27.3977 48.0994 27.7848 48.1252 28.2622C48.151 28.7718 47.7962 29.1589 46.9769 29.1976L46.1254 29.2363L46.0415 27.4751L46.9447 27.43V27.4364ZM49.2988 29.0751L50.8084 28.9719L50.789 28.6493L49.7827 28.7138L49.7569 28.2945L50.6923 28.23L50.6729 27.9075L49.7311 27.972L49.7117 27.6043L50.6858 27.5333L50.6665 27.2107L49.1763 27.314L49.2988 29.0751ZM52.3636 27.7977L52.6345 27.7719C52.7765 27.759 52.9119 27.6945 52.899 27.5461C52.8861 27.4171 52.7829 27.3591 52.5894 27.372L52.3313 27.3978L52.3636 27.7977ZM52.7055 27.043C53.1248 27.0042 53.3958 27.2236 53.4216 27.4881C53.4409 27.6816 53.3377 27.8364 53.1055 27.9461C53.2724 28.0001 53.3609 28.1363 53.5415 28.4145C53.5982 28.5018 53.664 28.6031 53.7441 28.7202L53.1829 28.7718C53.122 28.686 53.069 28.6016 53.0199 28.5233C52.866 28.2782 52.7496 28.0927 52.5442 28.1074L52.3959 28.1203L52.4604 28.8364L51.9507 28.8815L51.7959 27.1268L52.712 27.043H52.7055Z" fill="#0D1853"/>
</g>
<defs>
<clipPath id="clip0_1311_45811">
<rect width="80" height="41.7128" fill="white"/>
</clipPath>
</defs>
</svg>
