<svg width="80" height="59" viewBox="0 0 80 59" fill="none" xmlns="http://www.w3.org/2000/svg">
<g clip-path="url(#clip0_1311_45358)">
<path d="M70.4803 40.16H53.7295V29.3109H73.2202L70.4803 40.16Z" fill="#0D1853"/>
<path d="M70.7049 39.2724H53.7295V38.973H70.7818L70.7049 39.2724ZM73.0622 29.9428H53.7316V30.2421H72.9874L73.0622 29.9428ZM72.9104 30.5436H53.7316V38.6737H70.8587L72.9104 30.5436Z" fill="#0D1853"/>
<path d="M9.07089 40.0228H25.8218V29.1736H6.33105L9.07089 40.0228Z" fill="#0D1853"/>
<path d="M8.7714 38.8338H25.8216V39.1331H8.84623L8.76932 38.8338H8.7714ZM6.5658 30.1029H25.8216V29.8035H6.49097L6.5658 30.1029ZM8.69448 38.5323H25.8216V30.4022H6.64272L8.69656 38.5323H8.69448Z" fill="#0D1853"/>
<path d="M63.1729 36.8568L54.8807 39.9604H53.9307V29.6143L63.1168 26.045L63.1729 36.8568Z" fill="#0D1853"/>
<path fill-rule="evenodd" clip-rule="evenodd" d="M63.1174 35.8777L53.9292 39.447V39.1518L63.1174 35.5825V35.8777ZM63.1174 27.259L53.9292 30.8283V38.8545L63.1174 35.2852V27.259Z" fill="#0D1853"/>
<path d="M16.5171 36.8568L24.8094 39.9604H25.7594V29.6143L16.5711 26.045L16.5171 36.8568Z" fill="#0D1853"/>
<path fill-rule="evenodd" clip-rule="evenodd" d="M16.571 35.8777L25.7593 39.447V39.1518L16.571 35.5825V35.8777ZM16.571 27.259L25.7593 30.8283V38.8545L16.571 35.2852V27.259Z" fill="#0D1853"/>
<path d="M63.1734 25.7603C59.2611 23.7688 48.0065 22.3511 39.8452 22.3511C31.6839 22.3511 20.4294 23.7688 16.5171 25.7603V36.8569C20.4294 34.8654 31.6839 33.4476 39.8452 33.4476C48.0065 33.4476 59.2611 34.8654 63.1734 36.8569V25.7603Z" fill="white"/>
<path d="M39.8455 11.6432V5.98268L37.8062 8.21321C37.7272 8.29844 37.5256 8.33171 37.4237 8.27558L33.8066 6.24876L35.954 10.581L39.8476 11.6432H39.8455Z" fill="#0D1853"/>
<path d="M39.8449 11.6432V5.98268L41.8841 8.21321C41.9631 8.29844 42.1648 8.33171 42.2666 8.27558L45.8837 6.24876L43.7363 10.581L39.8428 11.6432H39.8449Z" fill="#0D1853"/>
<path d="M77.9764 2.43628H78.1552V0.168328H78.2778L78.783 2.43628H79.1759L79.681 0.168328H79.8037V2.43628H79.9991V-5.34058e-05H79.5334L79.0407 2.26582H78.9368L78.44 -5.34058e-05H77.9764V2.43628ZM76.6002 2.43628H76.7956V0.168328H77.4463V-5.34058e-05H75.9517V0.168328H76.6023V2.43628H76.6002Z" fill="#0D1853"/>
<path fill-rule="evenodd" clip-rule="evenodd" d="M39.8452 32.2295C31.6839 32.2295 20.4294 33.6472 16.5171 35.6387V35.9464C20.4294 33.9549 31.6839 32.5372 39.8452 32.5372C48.0065 32.5372 59.2611 33.9549 63.1734 35.9464V35.6387C59.2611 33.6472 48.0065 32.2295 39.8452 32.2295ZM39.8452 23.2595C31.6839 23.2595 20.4294 24.6773 16.5171 26.6687V26.9764C20.4294 24.9849 31.6839 23.5672 39.8452 23.5672C48.0065 23.5672 59.2611 24.9849 63.1734 26.9764V26.6687C59.2611 24.6773 48.0065 23.2595 39.8452 23.2595ZM39.8452 23.8728C31.6839 23.8728 20.4294 25.2905 16.5171 27.282V35.329C20.4294 33.3375 31.6839 31.9198 39.8452 31.9198C48.0065 31.9198 59.2611 33.3375 63.1734 35.329V27.282C59.2611 25.2905 48.0065 23.8728 39.8452 23.8728ZM58.9389 32.4353C58.9389 32.0985 58.6749 31.8366 58.3485 31.8366C58.018 31.8366 57.7477 32.1006 57.7477 32.4353V32.481C57.7477 32.8116 58.0242 33.0818 58.3485 33.0818C58.6728 33.0818 58.9389 32.8116 58.9389 32.481V32.4353ZM58.8433 32.454C58.835 32.7242 58.6167 32.9384 58.3485 32.9384C58.0762 32.9384 57.8579 32.7305 57.8434 32.4644C57.8517 32.19 58.0845 31.9759 58.3485 31.9759C58.6125 31.9759 58.8287 32.1838 58.8433 32.454ZM58.3859 32.3854H58.3069H58.3049H58.1988V32.217H58.3776C58.4462 32.217 58.5107 32.2274 58.5231 32.296C58.5148 32.348 58.4816 32.3854 58.3859 32.3854ZM58.6146 32.3168V32.2711H58.6125C58.6167 32.1692 58.5419 32.0985 58.4026 32.0985H58.1115V32.8074H58.1988V32.4977H58.3485L58.5315 32.8074H58.6312V32.7617L58.4629 32.4914C58.5315 32.4769 58.6146 32.4311 58.6146 32.3168ZM48.969 26.6978C48.969 25.5441 48.3683 25.0639 47.1896 24.9953V24.9932C46.0317 24.9226 45.3374 25.4173 45.3374 26.4546V29.8035C45.3374 30.8679 45.8571 31.4811 47.1293 31.558C48.5387 31.6454 48.969 30.8908 48.969 30.1154V26.6978ZM47.78 26.49V30.0904C47.78 30.5353 47.5243 30.7141 47.1397 30.6891C46.7676 30.6642 46.5431 30.4376 46.5306 30.0239V26.386C46.5306 26.0139 46.7946 25.8289 47.1667 25.8539C47.4869 25.8746 47.7758 26.0347 47.78 26.49ZM57.7561 29.2049C57.7561 29.2049 56.7146 28.9991 56.1658 28.8951H56.1637V27.1843C56.2677 27.2045 56.3789 27.2259 56.4942 27.2481C56.8165 27.3102 57.1704 27.3783 57.4858 27.4441C57.8018 27.5106 58.0159 27.7102 58.0159 27.7102V26.6334C57.1158 26.4463 55.6191 26.1636 54.8749 26.0409C54.8749 26.0409 54.8915 26.0846 54.8749 26.1532C54.8749 26.1532 54.9871 26.4234 54.9913 26.8039V32.4291L56.2864 32.6473C56.2739 32.6161 56.2593 32.5767 56.2864 32.5372C56.2448 32.4291 56.172 32.2274 56.1658 31.9696V29.7744C56.1658 29.7744 56.6314 29.8659 57.0534 29.947C57.6022 30.0509 57.7581 29.3171 57.727 29.3109C57.7478 29.2485 57.7561 29.2049 57.7561 29.2049ZM53.5133 28.444C53.5133 28.444 52.4344 28.2798 51.9022 28.2091V26.5336C51.9626 26.5415 52.0235 26.5494 52.0849 26.5574C52.4587 26.6059 52.8475 26.6564 53.2118 26.7207C53.5382 26.7727 53.8126 26.9889 53.8126 26.9889L53.8085 26.8766V25.8705C52.8086 25.7063 51.2786 25.4921 50.5988 25.4132C50.5988 25.4132 50.6134 25.4589 50.5988 25.5254C50.5988 25.5254 50.7111 25.8476 50.7131 26.1823V31.8428L52.0269 32.0029C52.0145 31.9738 51.9999 31.9343 52.0269 31.8927C51.9854 31.7888 51.9084 31.5955 51.9022 31.3231V29.0864C51.9022 29.0864 52.3616 29.1591 52.8023 29.2215C53.3657 29.3005 53.5133 28.5542 53.4842 28.55C53.505 28.4877 53.5133 28.444 53.5133 28.444ZM23.9321 30.6662C23.9321 29.8036 23.3646 29.3504 22.6578 28.8577H22.6599C22.0758 28.4523 21.8118 28.1696 21.7848 27.8349C21.8014 27.5813 21.9511 27.3152 22.4022 27.1905C22.5477 27.151 22.7348 27.1094 22.899 27.0887C23.2066 27.0512 23.5455 27.1843 23.5455 27.1843V26.1116C23.2773 26.1428 22.6641 26.2467 22.3273 26.3216C20.999 26.6168 20.631 27.3048 20.631 27.995V28.1073C20.631 28.8224 20.8826 29.209 21.6434 29.7952C21.7591 29.884 21.8726 29.9646 21.9804 30.0411C22.4048 30.3426 22.7394 30.5802 22.7659 31.003C22.7431 31.4957 22.4105 31.7742 21.9386 31.8969C21.7328 31.9509 21.5374 31.9925 21.3233 32.0175C21.0239 32.0549 20.6082 31.9426 20.6082 31.9426L20.604 32.9134V33.0257C21.0593 32.9591 21.6871 32.8427 22.1589 32.7305C23.4977 32.4124 23.9321 31.7223 23.9321 30.7785V30.6662ZM32.7441 30.7328V24.9662L31.4116 25.0722C31.4116 25.0722 31.4282 25.1117 31.4116 25.1845C31.4116 25.1845 31.5239 25.4506 31.528 25.8164V31.5144L32.8418 31.4188C32.8418 31.4188 32.8273 31.3793 32.8418 31.3065C32.8418 31.3065 32.7524 31.0612 32.7441 30.7328ZM42.6454 24.775C42.6454 24.775 42.6578 24.8186 42.6766 24.8872H42.6454C42.6454 24.8872 42.7472 25.1907 42.7472 25.5067V28.6602C42.7472 28.6602 41.4916 25.6356 41.3586 25.3279C41.1944 24.9433 41.0405 24.7375 40.5998 24.7251C40.2381 24.7147 39.8141 24.7209 39.8141 24.7209C39.8141 24.7209 39.8286 24.7646 39.8141 24.8332C39.8141 24.8332 39.9305 25.1637 39.9326 25.4693V31.1963L40.9158 31.2047C40.9158 31.2047 40.9013 31.161 40.9158 31.0924C40.9158 31.0924 40.814 30.8138 40.8056 30.4937V27.1697L42.4874 31.2421L43.6245 31.2816V24.8124L42.6454 24.775ZM29.6053 25.2554C29.6052 25.2525 29.6051 25.251 29.6051 25.251L29.6072 25.2552L29.6053 25.2554ZM29.7902 30.9635C29.7738 30.6364 29.6107 25.4278 29.6053 25.2554L29.0002 25.3238C28.6427 25.3695 28.3849 25.4319 28.2103 25.9827C28.0606 26.4463 27.4183 28.55 27.4183 28.55L26.6865 26.2405C26.5057 25.6813 26.2188 25.6917 25.8654 25.7395C25.7635 25.7541 25.2085 25.8414 25.2085 25.8414L24.9944 32.1567L24.9902 32.269L25.9174 32.1339C25.9174 32.1339 25.9049 32.0944 25.9174 32.0237C25.9174 32.0237 25.855 31.8158 25.8467 31.5331C25.8571 31.1402 25.9423 27.6603 25.9423 27.6603L27.2374 31.7285L28.5928 27.3069L28.6842 31.7867L29.2975 31.7202L29.9003 31.6599C29.9003 31.6599 29.8858 31.6183 29.9003 31.5476C29.9003 31.5476 29.8068 31.2899 29.7902 30.9635ZM37.0202 26.3424V26.3964C37.0202 26.8475 36.8622 27.1344 36.6086 27.3776L35.7854 28.1073V25.6231L36.3612 25.6065C36.7666 25.6002 37.016 25.8913 37.0202 26.3424ZM38.3755 30.265L37.4463 27.8453H37.4484L37.596 27.7497C38.1136 27.4171 38.2529 26.9203 38.2529 26.305V26.2364C38.2529 25.5337 37.8995 24.723 36.7375 24.7667L34.5007 24.8644C34.5007 24.8644 34.5173 24.9059 34.5007 24.9766C34.5007 24.9766 34.6213 25.2531 34.6233 25.6002V31.3148L35.7854 31.267V28.9138L36.4651 28.4773L37.1844 30.4293C37.3985 31.0051 37.6168 31.2421 38.1614 31.2275L38.8121 31.2109C38.8121 31.2109 38.783 31.1714 38.7373 31.0986H38.8121C38.8121 31.0986 38.573 30.7806 38.3755 30.265Z" fill="#0D1853"/>
<path d="M24.4934 22.9019L5.15026 12.7138L-0.000976562 3.87063L30.4927 19.9396C30.6008 19.9979 30.7962 19.9979 30.9189 19.8648L32.769 17.1686C32.9187 16.9067 32.8168 16.7258 32.6879 16.624L29.1457 13.8758C29.1457 13.8758 28.8921 13.6555 28.599 13.5848L25.8238 12.982L27.5242 12.2377L27.5679 12.2149C28.3058 11.901 30.0707 12.1338 30.8212 12.2606C30.9771 12.296 31.106 12.3001 31.2785 12.2336L33.3926 11.6016L38.6852 13.009C38.5335 13.1857 37.9743 13.8093 37.9743 13.8093C37.7768 14.0193 37.7914 14.2292 37.9015 14.4995L39.1966 17.5698V21.5902C35.5629 21.6401 29.7194 22.006 24.4954 22.8998L24.4934 22.9019ZM16.5067 25.0659L14.8041 24.1908L10.8773 17.5698L21.741 23.4403C19.7454 23.8852 17.9369 24.4215 16.5067 25.068V25.0659ZM35.1305 47.5709C35.0411 47.3318 34.7813 47.232 34.5526 47.3464L26.7031 51.3252L30.7318 38.734C30.7858 38.5676 30.6798 38.314 30.5239 38.235L25.4143 35.6573C30.2682 34.83 35.4673 34.5161 39.1945 34.4766V58.3244L35.1326 47.5709H35.1305Z" fill="#0D1853"/>
<path d="M58.0593 23.38L68.8128 17.5698L64.886 24.1908L63.3602 24.9745C61.8967 24.3404 60.0674 23.8145 58.0593 23.378V23.38ZM40.4956 21.5881V17.5719L41.7928 14.5015C41.9009 14.2334 41.9154 14.0213 41.72 13.8114C41.72 13.8114 41.1608 13.1878 41.0091 13.0111L46.3017 11.6037L48.4158 12.2357C48.5883 12.3022 48.7172 12.298 48.8731 12.2627C49.6236 12.1359 51.3884 11.901 52.1264 12.217L52.1701 12.2398L53.8705 12.984L51.0953 13.5869C50.8022 13.6576 50.5486 13.8779 50.5486 13.8779L47.0064 16.6261C46.8775 16.7279 46.7756 16.9088 46.9253 17.1707L48.7754 19.8669C48.9001 19.9999 49.0935 19.9979 49.2016 19.9417L79.6911 3.87063L74.5399 12.7117L55.2903 22.852C49.9541 21.9623 44.0295 21.6151 40.4977 21.586L40.4956 21.5881ZM44.5576 47.5688L40.4956 58.3224V34.4704C44.1709 34.4932 49.4302 34.7884 54.3694 35.6075L49.1641 38.233C49.0082 38.312 48.9022 38.5635 48.9563 38.7319L52.985 51.3231L45.1355 47.3443C44.9089 47.23 44.649 47.3297 44.5576 47.5688Z" fill="#0D1853"/>
</g>
<defs>
<clipPath id="clip0_1311_45358">
<rect width="80" height="58.3245" fill="white"/>
</clipPath>
</defs>
</svg>
