<svg width="80" height="15" viewBox="0 0 80 15" fill="none" xmlns="http://www.w3.org/2000/svg">
<g clip-path="url(#clip0_1311_44017)">
<path d="M76.9125 3.55578C76.6395 4.25935 75.8673 4.7485 75.4643 5.3933C75.2959 5.44637 75.1678 5.33221 75.1328 5.20116C75.4638 4.36896 74.9571 3.54046 74.3721 2.89683C73.9313 2.53515 73.3379 2.37577 72.7578 2.53314C70.2158 4.10928 70.2523 7.33253 70.4826 10.1495C70.6663 11.3446 71.2209 12.6398 72.4407 13.2013C73.0129 13.5092 73.6692 13.2415 74.1948 13.0271C75.4916 12.3605 75.1102 10.7518 75.1306 9.55992C74.9165 9.05332 74.0396 9.18637 74.0658 8.6659C73.9928 8.44114 75.3085 8.76648 75.9492 8.7848C76.6402 8.80381 77.3295 8.75959 77.9619 8.52927C78.266 9.24246 77.2839 8.92698 77.0699 9.44503C77.0699 10.1641 77.0951 11.2814 77.0951 12.2768C76.8486 12.5332 76.4245 12.2834 76.1422 12.4462C75.118 13.4714 73.8596 14.0832 72.4289 13.8716C71.0366 13.605 69.6734 12.7429 68.989 11.39C67.9255 9.37808 67.975 6.52908 69.1085 4.5558C69.991 3.09967 71.4995 2.04559 73.105 1.86877C74.6136 1.85789 76.0226 2.25517 76.9125 3.55578Z" fill="#0D1853"/>
<path d="M67.6249 2.01579C67.5226 2.55414 66.9259 2.57776 66.786 3.13383C66.434 6.20159 66.6771 9.44902 66.6222 12.5589C66.7851 12.8602 66.9637 13.273 67.3534 13.3727C67.5006 13.4871 67.7823 13.3432 67.8713 13.5868L67.8664 13.8475C66.4166 13.6545 65.1522 13.5391 63.7124 13.8491C63.6022 13.773 63.6795 13.6252 63.6629 13.5133C64.0014 13.314 64.4696 13.155 64.6077 12.7288L64.6972 3.34215C64.6137 2.80049 64.154 2.45715 63.7119 2.16987C63.7148 2.02094 63.7337 1.98417 63.8656 1.91177C66.032 2.48133 67.6612 1.73653 67.6249 2.01579Z" fill="#0D1853"/>
<path d="M34.9595 2.24861C35.1149 2.20211 35.1767 2.34172 35.0949 2.4576C34.8046 2.74517 34.2306 2.72356 34.13 3.24174C34.13 3.24174 34.1031 12.1079 34.1031 12.6007C34.1031 13.0936 34.951 13.4813 35.0873 13.5533C35.2235 13.6252 35.3063 13.6606 35.4202 13.6895C35.5339 13.7181 35.502 13.9603 35.2853 13.9478C35.0822 13.9363 32.6344 13.8517 31.2508 13.9288C31.156 13.934 31.0484 13.9666 31.0174 13.8265C30.9866 13.687 31.5986 13.5341 31.8124 13.347C32.0265 13.1597 32.157 13.0929 32.157 12.8314C32.157 12.5694 32.1112 6.83496 32.1112 6.83496C31.1108 6.83496 28.7592 6.83496 28.5451 6.83496C28.5451 6.83496 28.522 12.1298 28.522 12.6475C28.522 13.1648 29.7252 13.5464 29.8514 13.6478C29.9774 13.7493 29.9634 13.9345 29.8464 13.9272C28.0376 13.8112 27.1064 13.8112 25.432 13.9058C25.324 13.9116 25.3238 13.7936 25.4456 13.7026C25.5762 13.605 25.8879 13.5161 26.242 13.2992C26.4699 13.1597 26.6436 12.8684 26.6436 12.6319C26.6436 12.395 26.6741 3.60814 26.6741 3.60814C26.6719 2.91614 25.8633 2.83946 25.4609 2.40396C25.2152 2.09379 25.8025 2.24861 26.237 2.29496C27.4001 2.41984 28.6349 2.2639 29.7158 2.24544C29.8053 2.23601 29.869 2.38837 29.6517 2.46577C29.2325 2.60553 28.6891 3.0336 28.6332 3.43762L28.5651 6.31493L32.104 6.29934C32.104 6.29934 32.104 4.42161 32.104 3.56735C32.104 3.04002 31.835 2.67878 31.2577 2.4775L31.1842 2.42013C31.1842 2.42013 31.0488 2.25244 31.3358 2.27377C31.6228 2.29496 33.7243 2.58092 34.9595 2.24861Z" fill="#0D1853"/>
<path d="M53.4955 3.74198C54.97 5.68651 55.1172 8.98629 53.9808 11.127C53.2296 12.5482 51.8305 13.7157 50.2447 13.8744C48.1944 13.9502 46.2945 12.8738 45.4525 10.9776C44.3922 8.74237 44.93 5.67837 46.3236 3.74685C47.5057 2.2029 49.4338 1.64064 51.2506 2.1567C52.083 2.46944 52.8765 2.93024 53.4955 3.74198ZM49.493 2.5358C47.8844 2.9361 47.6678 4.64588 47.2176 5.90485C46.9884 8.35969 46.9589 11.1158 48.6406 12.915C49.1741 13.2967 49.9558 13.3479 50.5926 13.1539C51.1191 12.8837 51.538 12.3323 51.8077 11.8343C52.6553 9.18518 53.2253 5.32085 51.2356 3.03182C50.7577 2.63238 50.1833 2.47328 49.493 2.5358Z" fill="#0D1853"/>
<path d="M43.8366 4.31817C44.0186 5.62523 43.7147 7.01696 42.4918 7.70351C42.0768 7.99407 41.5723 8.09694 41.0861 8.21868C41.8234 8.66035 42.7639 9.1798 43.27 10.0641C43.9379 11.305 44.3696 13.2315 46.0792 13.4662C46.2458 13.5437 46.2603 13.7673 46.1467 13.877C45.1109 13.4493 43.0996 14.4945 42.6807 12.8666C41.8313 11.3987 40.713 8.53888 40.2072 8.4087C39.7016 8.27848 38.8399 8.19152 38.8399 8.67391C38.8399 9.56035 38.7786 11.6779 38.8736 12.5853C38.8736 13.0043 39.2898 13.3916 40.1166 13.5667C40.1899 13.6426 40.2819 13.7185 40.2424 13.8298C39.4381 14.0207 38.8415 13.6723 37.909 13.7493C36.9638 13.7328 36.2792 14.0753 35.907 13.8424C35.6741 13.6561 36.9054 13.3302 36.9054 12.9142C36.9054 9.37251 36.8844 7.02452 36.8844 3.55252C36.8844 2.80714 35.8249 2.54675 35.7496 2.35105C35.6741 2.15548 35.9573 2.16864 35.9573 2.16864C38.797 2.7771 42.4772 1.1091 43.8366 4.31817ZM38.8399 2.94692C38.8504 4.4933 38.8399 5.8225 38.8399 7.78936C39.3031 7.94643 39.9928 7.88335 40.4235 7.74172C41.2284 7.51353 41.6718 6.66458 41.8517 5.95998C41.9625 4.97457 41.8479 4.07842 41.226 3.39685C40.6972 2.75448 39.573 2.58724 38.8399 2.94692Z" fill="#0D1853"/>
<path d="M59.5446 2.49578C59.7273 2.98465 59.9263 3.68266 60.0627 4.19211C60.842 7.11206 61.3753 9.23285 62.4464 12.818C62.7102 13.5321 63.7015 13.4022 63.3767 13.8434C61.1893 13.5321 59.4882 14.0431 59.2993 13.7721C59.2043 13.6366 59.6293 13.5286 59.9163 13.3768C60.2044 13.2242 60.3554 13.0276 60.3231 12.7096C60.2442 11.9073 59.8533 11.1013 59.6991 10.3346H56.4709L55.7609 12.6298C55.6018 13.1282 57.2781 13.3768 57.3449 13.6634C57.3803 13.7571 57.2497 13.792 57.2111 13.866C56.0015 13.7889 54.7257 13.5269 53.5838 13.8424C53.5109 13.7667 53.2209 13.8109 53.4027 13.5784C53.5838 13.3455 54.5461 13.4698 54.8846 12.689L58.4184 2.35688C58.613 1.79834 59.2957 1.82954 59.5446 2.49578ZM58.24 4.84045L56.6264 9.69836L59.5129 9.68262C59.5129 9.68262 58.6608 6.33808 58.24 4.84045Z" fill="#0D1853"/>
<path d="M25.7849 4.3931C26.1283 5.55421 25.8529 6.89057 25.1288 7.80934C23.8967 9.01722 22.096 9.10406 20.4012 9.09319C20.4535 9.98677 20.4321 11.592 20.4321 12.6007C20.4321 13.0196 20.5004 13.2176 21.3168 13.3922C21.4842 13.4137 21.7348 13.3565 21.8053 13.5815C21.8409 13.6753 21.7098 13.7102 21.6712 13.7841L17.8405 13.7723H17.4445C15.8847 13.5863 13.5336 13.7723 13.417 13.7492C13.3008 13.7259 13.2915 13.6375 13.2915 13.6375C13.5582 13.3067 14.0995 13.2416 14.3124 12.7798C14.2895 11.9598 13.9857 11.2466 13.8125 10.4984L10.3301 10.4374C10.3301 10.4374 9.53679 12.1189 9.87699 12.9072C10.1302 13.3398 10.7666 13.1645 10.8696 13.6508L10.6066 13.795C9.64136 13.6108 8.65165 13.7421 7.71787 13.8751C7.56692 13.9841 7.76692 14.2667 7.50483 14.3369L6.93343 13.7841C6.28148 13.7841 4.64712 13.7495 3.17341 13.7492C1.70014 13.7491 0.414705 13.8103 0.418273 13.7471C0.380015 13.3883 1.20958 13.4272 1.43304 13.2248C1.62546 13.0506 1.83389 12.8542 1.83389 12.6083C1.83389 12.3622 1.81186 3.30309 1.81186 3.30309C1.6203 2.53612 0.681807 2.94815 0.487365 2.34842L0.67729 2.14699C2.10673 2.41393 3.76526 2.36858 5.11266 2.0198C5.62195 2.7178 4.52594 2.54971 4.29532 2.9553L3.87529 3.54414C3.67113 6.68843 3.74952 9.79908 3.79046 12.911C3.83707 13.4235 4.78003 13.4349 5.24955 13.3658C6.46391 13.1454 7.5808 12.1217 8.23146 11.127C8.36264 11.0922 8.43504 11.2053 8.50858 11.2623C8.31186 11.8738 8.02273 12.4273 7.93674 13.0778C8.25435 13.0276 8.66997 12.6996 8.88097 12.3491L12.4822 2.42797C12.6721 2.01578 13.1377 1.96902 13.2852 2.29334C14.4342 5.8339 14.8451 8.28602 16.6454 12.7249C16.8522 13.2348 17.3749 13.4386 17.6852 13.4235C17.9955 13.4079 18.4689 13.1136 18.4689 12.6475C18.4689 12.1817 18.4188 3.79867 18.4188 3.79867C18.3838 3.17991 18.0804 2.89878 17.638 2.64886C17.453 2.57101 17.3274 2.53338 17.1029 2.35999C16.8783 2.18633 17.1817 2.10063 17.1817 2.10063C20.0947 2.76603 24.3548 0.9411 25.7849 4.3931ZM20.4452 2.95858L20.4012 8.39446L21.5044 8.41649C22.1777 8.27916 22.8526 8.03023 23.2554 7.36669C23.9471 6.14934 23.7382 3.90924 23.1963 3.28648C22.4638 2.56559 21.3436 2.71352 20.4452 2.95858ZM12.2375 4.96464C12.2375 4.96464 11.0563 8.3268 10.6023 9.77174C11.6251 9.88261 12.4646 9.80409 13.4899 9.74771C13.0885 8.21336 12.2375 4.96464 12.2375 4.96464Z" fill="#0D1853"/>
<path d="M76.5854 1.90411C76.5854 1.05501 77.274 0.428663 78.0882 0.428663C78.8942 0.428663 79.5825 1.05501 79.5825 1.90411C79.5825 2.76121 78.8942 3.3874 78.0882 3.3874C77.274 3.3874 76.5854 2.76121 76.5854 1.90411ZM78.0882 3.1409C78.7572 3.1409 79.2849 2.61656 79.2849 1.90411C79.2849 1.20353 78.7572 0.675165 78.0882 0.675165C77.4108 0.675165 76.8824 1.20353 76.8824 1.90411C76.8824 2.61656 77.4108 3.1409 78.0882 3.1409ZM77.7749 2.76121H77.5168V1.05501H78.1659C78.5693 1.05501 78.7687 1.20353 78.7687 1.54044C78.7687 1.84531 78.5766 1.97865 78.3265 2.00982L78.8122 2.76121H78.5227L78.0725 2.02157H77.7749V2.76121ZM78.084 1.80223C78.3028 1.80223 78.4989 1.7865 78.4989 1.52456C78.4989 1.31325 78.3071 1.2739 78.1271 1.2739H77.7749V1.80223H78.084Z" fill="#0D1853"/>
</g>
<defs>
<clipPath id="clip0_1311_44017">
<rect width="80" height="14.7656" fill="white"/>
</clipPath>
</defs>
</svg>
