<svg width="80" height="34" viewBox="0 0 80 34" fill="none" xmlns="http://www.w3.org/2000/svg">
<path fill-rule="evenodd" clip-rule="evenodd" d="M7.49893 4.5267C7.83803 5.17496 8.30412 5.71203 8.46234 6.4843C8.56753 6.99188 8.99728 7.52682 9.41121 7.68504C9.87987 7.86335 9.98506 7.0496 10.204 6.64893C10.2728 6.52621 10.4353 6.52621 10.4982 6.41888C11.1631 5.24166 11.8242 4.12731 12.3164 2.91417C12.6653 2.0551 12.9027 1.09383 13.5312 0.451985C13.8515 0.125717 14.5755 0.113318 15.1284 0.262554C16.1529 0.539647 17.154 -0.298899 18.1375 0.232622C18.4616 0.40837 18.3731 0.745328 18.2452 0.95443C18.0524 1.273 17.5679 1.05663 17.2438 1.22511C17.0714 1.31619 16.9928 1.51289 16.8764 1.67709C16.7892 1.80409 16.9393 1.99267 16.8987 2.1047C16.7973 2.38522 16.8397 2.6854 16.7849 2.96463C16.7039 3.38381 16.6862 3.81277 16.7323 4.2372C16.7986 4.86066 16.6588 5.50208 16.6224 6.12682C16.5681 7.05473 16.6327 7.97239 16.6712 8.91613C16.6772 9.07477 16.7426 9.27404 16.8115 9.43354C16.8397 9.50238 16.8743 9.61912 16.9025 9.68669C16.9692 9.84918 16.7648 10.0608 16.7584 10.2058C16.7443 10.5445 16.8115 11.0221 17.1133 11.212C17.4623 11.4296 17.9857 11.1051 18.3397 11.3749C18.5347 11.5233 18.5305 11.8966 18.3397 12.0608C17.3669 12.8903 16.0734 12.2267 14.968 12.2327C14.4797 12.237 13.9524 12.3392 13.4414 12.5076C13.1494 12.6056 12.7526 12.6607 12.4973 12.4431C12.3023 12.2746 12.0346 12.2353 12.1218 11.9492C12.1663 11.7952 12.1543 11.5592 12.3288 11.5104C12.6003 11.4365 12.8706 11.4172 13.1579 11.3638C13.6647 11.2701 13.6403 10.8027 13.7865 10.4855C13.9242 10.1844 13.7177 9.78076 13.7378 9.4515C13.7887 8.59414 13.8006 7.71369 13.8024 6.87856C13.8092 5.66201 13.9443 4.41381 13.7583 3.17502C13.1049 3.39737 12.9997 4.05718 12.7483 4.55962C12.57 4.91839 12.4118 5.29725 12.2129 5.6496C12.0611 5.91515 11.852 6.1529 11.7366 6.43256C11.4043 7.26469 11.2623 8.24093 10.5833 8.84301C10.6902 8.89304 10.6821 9.01961 10.6457 9.05296C10.4516 9.227 10.2138 9.4391 10.1937 9.60629C10.1617 9.93042 10.1027 10.4337 9.84566 10.6762C9.79435 10.7232 9.86148 10.902 9.81316 10.9357C9.49245 11.1478 9.53308 11.5152 9.24102 11.7388C9.14566 11.8123 9.32013 11.9949 9.27352 12.0779C9.11102 12.3554 9.03833 12.7668 8.68983 12.8117C8.47431 12.8425 8.3858 12.5534 8.2635 12.3785C7.72642 11.6229 7.49123 10.8545 7.03326 10.0827C6.72153 9.56054 6.47993 8.98412 6.2503 8.40086C6.17718 8.21356 5.85947 8.16781 5.84108 7.93604C5.78592 7.25015 5.33351 6.65407 5.00553 6.03959C4.96277 5.95877 5.01194 5.83775 4.98115 5.74881C4.85116 5.39218 4.4599 5.29041 4.24481 4.98296C4.12721 4.81876 4.20632 4.584 4.00919 4.45999C3.62819 5.16769 3.93436 5.97074 3.81292 6.71863C3.77486 6.94698 3.76631 7.19414 3.7522 7.41008C3.69148 8.28583 3.85354 9.16372 3.88818 10.0506C3.90229 10.3225 3.98738 10.6296 4.1255 10.8583C4.36069 11.2483 4.80883 11.3073 5.28732 11.3822C5.58152 11.4296 5.63241 11.8718 5.50797 12.163C5.40492 12.4072 5.115 12.411 4.91231 12.4345C3.77657 12.5611 2.7285 11.9573 1.56069 12.3828C1.13308 12.538 0.486102 12.603 0.118783 12.2066C-0.0774903 11.9924 -0.0428538 11.5391 0.315485 11.4566C0.731551 11.3591 1.16942 11.4301 1.58506 11.3116C1.71292 11.2757 1.82239 11.1594 1.96393 11.0974C2.17688 11.0063 2.26069 10.7232 2.28464 10.5701C2.69429 8.04722 2.64126 5.6 2.58867 3.10019C2.58867 3.05015 2.71396 2.98558 2.70412 2.9548C2.50357 2.36084 2.80931 1.64844 2.25385 1.2358C1.79331 0.89328 1.23228 1.43763 0.782009 1.10495C0.676816 1.02969 0.589584 0.815883 0.636193 0.691448C0.699052 0.522969 0.808521 0.328406 0.991111 0.237752C1.14291 0.160354 1.37211 0.247587 1.43882 0C2.1974 0.273244 3.01585 0.310018 3.78085 0.302749C4.27559 0.299328 4.90205 0.13983 5.2266 0.39041C5.81243 0.847099 6.05189 1.71301 6.42477 2.37923C6.80534 3.06469 7.12391 3.80831 7.49893 4.5267ZM29.7283 9.67557C29.6817 10.1511 29.7223 10.6244 29.8091 11.1021C29.8498 11.3197 30.1457 11.448 30.3043 11.4365C30.5433 11.4172 30.7785 11.1209 31.0565 11.2107C31.3584 11.3099 31.4986 11.6648 31.3284 11.912C30.5964 12.9682 29.1767 13.2885 28.064 12.9276C27.4902 12.739 27.0626 12.1352 26.5559 11.8902C25.9764 11.6088 25.2747 12.1519 24.5632 12.3122C23.9184 12.455 23.3137 12.538 22.6753 12.6051C22.1728 12.6573 21.6901 12.4863 21.2565 12.2827C20.6724 12.0048 20.2772 11.4822 19.9185 10.9315C19.3485 10.0579 19.7966 9.11711 20.1532 8.2559C20.4209 7.61362 21.0841 7.25486 21.7085 6.98931C22.1181 6.81698 22.5517 6.65492 22.99 6.55956C24.1292 6.31155 25.238 6.30813 26.3754 6.24783C26.4567 6.24399 26.5661 6.13152 26.5867 6.04044C26.7808 5.16811 26.2698 4.17007 25.3902 4.04948C24.4901 3.92889 23.4317 4.24404 23.1213 5.08772C22.8292 5.87838 22.1138 6.4843 21.3189 6.38552C21.0593 6.35388 20.8079 6.17942 20.725 5.89163C20.4739 5.00434 21.1727 4.44588 21.8603 4.03323C22.3978 3.7091 22.9772 3.48888 23.5857 3.43714C24.5427 3.35418 25.4915 3.25455 26.4507 3.35418C26.9125 3.40208 27.3568 3.54234 27.8006 3.67575C28.0991 3.7664 28.419 3.88571 28.6986 4.04392C29.4025 4.43604 29.8485 5.18351 29.8023 5.96561C29.7818 6.30043 29.6483 6.69255 29.6928 7.03891C29.8051 7.91357 29.817 8.7982 29.7283 9.67557ZM22.9002 9.52248C23.046 10.1823 23.3458 10.7925 23.9748 10.9871C24.4426 11.1346 24.9801 11.0914 25.4569 10.9747C25.7344 10.9088 26.1218 10.9524 26.286 10.6475C26.8026 9.68112 26.6871 8.59371 26.6384 7.55718C26.6324 7.4182 26.5554 7.17703 26.3728 7.12144C25.7485 6.93073 25.0832 7.03464 24.5136 7.19029C23.7593 7.39511 23.0311 8.00403 22.9541 8.91442C22.9481 8.99567 22.7925 9.05639 22.7681 9.14747C22.736 9.27532 22.8694 9.38223 22.9002 9.52248ZM36.851 10.4222C36.792 10.7365 36.8309 11.123 37.1204 11.2287C37.4411 11.3433 37.7388 11.4027 38.0855 11.457C38.3186 11.4916 38.5132 11.8602 38.3592 12.0651C37.5284 13.179 36.1698 12.1814 35.0888 12.4704C34.1708 12.7172 33.3335 12.7552 32.4287 12.5842C32.1473 12.5324 32.1045 12.1694 32.2345 11.9637C32.4774 11.5754 33.0166 11.5335 33.4776 11.466C33.5666 11.4523 33.6461 11.3471 33.7 11.2556C33.9745 10.801 33.8723 10.2875 33.8766 9.82309C33.8847 9.12694 33.8359 8.40684 33.8304 7.70727C33.8278 7.55547 33.9523 7.30574 33.9497 7.17917C33.9339 6.17257 34.0044 5.15785 34.0104 4.15638C34.0126 3.72065 34.0352 3.22077 34.0044 2.80086C33.9681 2.30354 34.063 1.56848 33.5383 1.32303C33.1731 1.1507 32.7049 1.24007 32.5185 0.820159C32.4454 0.651252 32.5771 0.482774 32.7331 0.388699C33.2381 0.0859501 33.7833 0.208247 34.3106 0.251863C34.7177 0.287355 35.1154 0.337386 35.5165 0.275382C35.9425 0.205126 36.374 0.173213 36.8057 0.180025C36.8976 0.181736 37.0755 0.247588 37.0918 0.378437C37.1829 1.09127 37.2261 1.79255 37.1243 2.484C37.0148 3.20238 37.1546 3.90025 36.999 4.60238C36.9601 4.7807 36.8382 5.02101 36.8669 5.12321C37.0618 5.8416 36.4773 7.39597 37.5438 7.17019C38.0693 7.05816 38.3772 6.41674 38.8736 6.17556C39.1678 6.03103 39.3641 5.7672 39.6579 5.62523C39.9726 5.47557 40.3562 5.02273 40.0252 4.71827C39.7314 4.44802 39.137 4.25089 39.332 3.79206C39.4843 3.43714 39.9465 3.46879 40.2852 3.44527C40.8282 3.40978 41.3884 3.5325 41.949 3.59707C42.9505 3.71081 43.9075 3.17544 44.8837 3.50086C45.2489 3.62358 45.2001 4.12816 45.0056 4.34624C44.5639 4.84227 43.798 4.54637 43.246 4.86964C42.2565 5.4529 41.1378 5.78516 40.5041 6.77166C40.2142 7.21937 41.1011 7.2741 41.4786 7.43702C42.1637 7.73421 42.6178 8.31662 43.0386 8.94264C43.4688 9.57636 43.8096 10.1784 44.3197 10.6976C44.7909 11.1773 45.4152 11.2842 46.096 11.3078C46.3923 11.318 46.2144 11.7101 46.1486 11.9321C46.0635 12.2169 45.7278 12.34 45.4798 12.429C44.7456 12.6966 43.9558 12.7899 43.1604 12.6547C41.9644 12.4533 41.1862 11.5772 40.4468 10.6445C40.3489 10.5235 40.3942 10.3255 40.3267 10.2242C39.8122 9.46775 39.3051 8.719 38.5149 8.38204C37.9513 8.14386 37.4484 8.87294 37.067 9.32236C36.8228 9.61356 36.922 10.0382 36.851 10.4222Z" fill="#0D1853"/>
<path fill-rule="evenodd" clip-rule="evenodd" d="M49.8277 9.66573C50.0834 10.3884 50.745 10.7809 51.4095 11.0662C51.7178 11.1991 52.1026 11.1666 52.455 11.2034C53.6232 11.324 54.7098 10.7574 55.6347 9.98687C55.7523 9.89151 55.9302 9.84405 56.0721 9.91418C56.348 10.0531 56.3719 10.4004 56.2753 10.6441C55.9631 11.4549 55.1152 11.7559 54.3895 12.1125C53.7079 12.4409 52.8971 12.6316 52.148 12.6586C52.1155 12.6612 51.9525 12.7287 51.9209 12.7309C51.5194 12.7509 51.1059 12.7569 50.7197 12.7103C50.2703 12.6569 49.7875 12.6428 49.3535 12.4589C48.9558 12.2917 48.5868 12.1001 48.2387 11.8389C47.5738 11.3407 46.9251 10.9174 46.4949 10.1921C46.4505 10.1156 46.515 9.96207 46.4633 9.92102C45.9963 9.54472 46.0575 9.01961 45.9189 8.52786C45.6885 7.6782 46.0327 6.82084 46.3414 6.08149C46.7023 5.21986 47.2745 4.37789 48.1579 3.87887C49.0217 3.39139 49.962 3.03134 50.9357 3.06897C50.9968 3.07068 51.1987 3.12756 51.2354 3.12328C51.8679 3.04802 52.4558 3.14979 53.0438 3.24301C53.8062 3.3636 54.4677 3.7895 55.1566 4.18162C55.9477 4.63104 56.4745 5.32847 56.6242 6.20593C56.7059 6.67716 57.1194 7.31943 56.584 7.58241C55.9516 7.892 55.1934 7.72352 54.4836 7.78766C54.2197 7.81033 53.8631 7.76115 53.5834 7.76457C52.8377 7.77697 52.0992 7.75859 51.3124 7.91424C51.2714 7.92151 51.2072 7.79493 51.1704 7.80263C50.6475 7.94545 50.1121 7.64655 49.6862 7.90868C49.0495 8.3008 49.6289 9.11283 49.8277 9.66573ZM49.791 6.03403C49.7183 6.11741 49.7067 6.20465 49.7426 6.26237C49.9299 6.55571 50.2947 6.60489 50.5577 6.5989C51.4663 6.57795 52.5978 7.02865 53.1892 6.34362C53.5467 5.93867 53.0558 5.19292 52.5768 4.78626C52.3254 4.57032 52.0458 4.28852 51.6964 4.3424C51.4492 4.3796 51.2145 4.2727 51.0276 4.34411C50.3913 4.58656 49.9812 5.19035 49.7623 5.83048C49.7585 5.84973 49.8478 5.9763 49.791 6.03403ZM62.9986 9.44979C63.088 10.1686 62.9049 11.156 63.6516 11.4343C64.0326 11.5733 64.6077 11.2919 64.8557 11.6109C65.1396 11.9825 64.8147 12.6056 64.3203 12.5598C62.7912 12.4234 61.3356 12.0924 59.7701 12.5128C59.4178 12.6081 59.0244 12.5042 58.7486 12.2857C58.6592 12.2156 58.4929 12.0261 58.5899 11.8769C58.7075 11.6969 58.6023 11.4177 58.8046 11.3625C59.0483 11.2962 59.3164 11.566 59.5388 11.4557C60.1601 11.144 60.0181 10.3512 60.1601 9.73244C60.2328 9.40703 60.099 9.00465 60.0258 8.6121C59.9365 8.12762 60.1922 7.67734 59.9647 7.16421C59.8753 6.96024 60.1759 6.80758 60.2371 6.57453C60.314 6.24484 59.9446 6.0212 60.0382 5.75437C60.1716 5.38962 60.0015 5.08259 59.9604 4.76916C59.8753 4.12346 59.0201 4.62291 58.7037 4.2603C58.1525 3.627 59.3207 3.30159 59.8514 3.42218C60.3709 3.53977 60.8695 3.58339 61.3681 3.58681C61.8423 3.59109 62.3337 3.2366 62.7878 3.37899C63.2086 3.51112 63.262 4.07984 63.2821 4.53354C63.2864 4.57929 63.383 4.74564 63.4685 4.66824C64.3605 3.84851 65.3419 3.04588 66.5704 3.36274C67.0814 3.49359 67.5685 3.75058 67.7421 4.24961C67.8439 4.53568 67.9208 4.89958 67.8315 5.20446C67.787 5.37038 67.6694 5.5906 67.4834 5.64832C67.013 5.78944 66.5221 5.94722 66.0684 5.83647C65.5446 5.7099 65.1187 5.30153 64.5435 5.38663C63.8012 5.49353 63.1731 6.05883 63.1119 6.73189C63.0311 7.62474 62.881 8.51674 62.9986 9.44979ZM71.2057 3.17545C71.1531 3.57184 70.9902 3.89725 70.7798 4.2077C70.7473 4.25089 70.6212 4.32914 70.6135 4.38601C70.5284 4.8799 70.0867 5.08088 69.8801 5.50293C69.8549 5.5581 69.6804 5.4653 69.6039 5.59188C69.5556 5.54142 69.482 5.49909 69.4662 5.4358C69.3935 5.19976 69.6608 5.15614 69.7377 4.97954C69.9049 4.60965 70.1679 4.07471 69.6736 3.87673C69.1057 3.65266 68.7974 3.18699 68.6473 2.63666C68.5665 2.3446 68.5464 2.00807 68.7252 1.75663C68.9274 1.47697 69.2353 1.27942 69.5436 1.16995C70.1072 0.968115 70.7439 1.23195 71.0847 1.75663C71.3597 2.18296 71.2754 2.6683 71.2057 3.17545ZM79.8307 9.98302C79.7823 10.116 79.7939 10.2635 79.6562 10.3525C79.7088 10.3901 79.7699 10.4401 79.7255 10.4979C79.5425 10.739 79.474 10.934 79.3111 11.1517C79.0114 11.5515 78.6462 11.9556 78.2002 12.1087C77.5395 12.3374 76.8211 12.3836 76.104 12.4721C75.7431 12.5158 75.3942 12.4345 75.0491 12.4204C74.7819 12.4093 74.5428 12.1006 74.2183 12.1814C73.9835 12.2391 73.8214 12.4409 73.6029 12.5299C73.298 12.6547 72.9457 12.4136 72.852 12.2703C72.3051 11.442 71.6278 10.5667 71.8591 9.53488C71.9233 9.23342 72.427 9.32493 72.69 9.47203C73.2168 9.7752 73.505 10.3012 74.0532 10.6022C74.2469 10.7117 74.3119 11.0187 74.5236 11.0803C75.298 11.2979 76.0437 11.6943 76.8511 11.4527C77.374 11.2996 77.7914 10.775 77.6451 10.2135C77.4831 9.56439 76.7775 9.13721 76.0232 9.17826C75.9296 9.18424 75.7508 9.07819 75.6341 9.03629C75.1958 8.87722 74.6972 9.12352 74.2225 9.03458C74.0729 9.00593 73.9835 8.75834 73.8291 8.72328C73.1274 8.56078 72.7058 8.07673 72.3735 7.52682C72.1508 7.15608 72.114 6.69212 72.0819 6.26665C72.0199 5.44435 72.4227 4.64173 73.1116 4.11876C73.6996 3.6672 74.3192 3.24728 75.0457 3.22163C75.9377 3.18742 76.8053 3.28107 77.705 3.49872C77.7499 3.5124 77.8722 3.19811 77.9855 3.21265C78.3905 3.26696 78.9425 2.96806 78.9994 3.48119C79.0879 4.29664 79.7293 5.0223 79.4445 5.79671C79.3971 5.92584 79.2016 6.22303 78.9827 6.16531C78.6586 6.07722 78.4927 5.73727 78.2126 5.52945C78.1591 5.48968 78.0424 5.54142 78.0065 5.50293C77.1949 4.55791 75.9095 4.10678 74.7459 4.54081C74.1982 4.74435 74.1212 5.47771 74.6074 5.79671C75.4267 6.34362 76.3679 6.2876 77.2599 6.59335C77.3283 6.61729 77.5395 6.57966 77.6892 6.58693C77.8029 6.59078 77.7384 6.86701 77.9128 6.78748C78.2853 6.62028 78.683 6.95382 78.9382 7.15181C79.498 7.58754 79.826 8.23922 79.9722 8.9311C80.0453 9.2518 79.9645 9.62982 79.8307 9.98302ZM19.8505 25.8401C19.7876 26.2241 19.8077 26.7155 19.41 26.8617C18.8652 27.0563 18.9114 26.2938 18.9341 25.9205C18.9439 25.7341 19.0799 25.5357 19.0393 25.3167C18.9119 24.6719 19.1812 24.1241 19.0799 23.5084C18.8362 22.0318 18.6703 20.5886 17.6277 19.4076C17.5773 19.3481 17.6418 19.2023 17.5952 19.1296C17.0864 18.3715 16.5104 17.8609 15.777 17.3375C14.6353 16.5242 13.4778 16.0179 12.1535 15.7199C11.4667 15.566 10.7553 15.5584 10.0654 15.6976C9.69383 15.7682 9.35816 15.7318 9.00067 15.8131C8.64404 15.8943 8.35199 16.0012 8.02786 16.1334C7.87776 16.1907 7.711 16.3181 7.55107 16.3732C7.41509 16.422 7.22053 16.3856 7.1256 16.4908C6.77496 16.8795 6.25755 16.8517 5.91246 17.1716C5.22187 17.8164 4.46885 18.3291 3.96854 19.1425C3.23647 20.3376 2.60617 21.5503 2.57324 22.9007C2.54887 23.8654 2.21063 24.9118 2.84093 25.8162C2.86915 25.8521 3.05388 25.6734 3.08082 25.54C3.24075 24.7656 3.43317 23.9873 4.09212 23.5165C4.14472 23.4806 4.24649 23.4806 4.30293 23.5131C4.55651 23.6542 4.60055 23.9467 4.65614 24.1904C4.72285 24.4778 4.9157 24.7373 5.01448 24.9605C5.23769 25.4677 5.36769 26.0514 5.84618 26.2293C6.68772 26.5457 7.64258 26.4405 8.52217 26.6753C8.66799 26.712 8.68638 27.1623 8.51448 27.3252C7.84313 27.9692 7.03452 28.3836 6.37129 29.04C6.20495 29.2029 6.25584 29.4693 6.28406 29.6963C6.35504 30.224 6.52523 30.7111 6.6997 31.193C6.77667 31.4085 7.01998 31.6274 7.26543 31.7207C7.95516 31.9755 8.59188 32.2718 9.31155 32.4382C9.873 32.5716 10.4571 32.5109 11.0365 32.5233C11.3551 32.5276 11.5176 32.7461 11.6082 33.0343C11.7036 33.3298 11.3183 33.2849 11.0977 33.3541C10.8663 33.4268 10.5396 33.2891 10.2827 33.2973C9.34148 33.3255 8.37636 33.0018 7.53739 32.6242C7.07941 32.4181 6.56799 32.2791 6.06726 32.1333C5.41643 31.9477 4.95205 31.4158 4.38461 30.9864C4.19432 30.8402 3.93861 30.8847 3.80263 30.9539C3.53879 31.0835 3.30189 31.4568 3.08296 31.5009C2.75626 31.5701 2.53134 31.834 2.19481 31.8382C2.07123 31.8382 2.07123 32.0486 1.96176 32.1055C1.83433 32.1782 1.7471 32.0563 1.66585 31.9678C1.62951 32.0196 1.58076 32.0773 1.52004 32.032C1.36396 31.9225 1.11466 31.9144 1.09029 31.7365C1.0069 31.1284 1.42211 30.6131 1.45675 30.0051C1.46103 29.9072 1.59273 29.8507 1.65174 29.766C1.70648 29.6801 1.51576 29.5749 1.60086 29.4813C1.96604 29.1002 1.80739 28.6705 1.42211 28.443C0.728957 28.0338 -0.110445 27.4826 0.0174112 26.6021C0.0456336 26.4076 0.242763 26.2938 0.390716 26.2541C0.802078 26.1403 1.31521 26.4076 1.61967 26.1647C1.95791 25.8966 1.65388 25.3655 1.69279 24.9396C1.70434 24.7985 2.01692 24.6809 1.93397 24.5988C1.62138 24.2913 1.44093 23.8453 1.6496 23.5404C1.88479 23.1996 1.73898 22.9409 1.85015 22.6082C1.87068 22.5433 1.92712 22.4051 1.92969 22.3654C1.99041 21.6637 2.22175 21.0107 2.42016 20.3291C2.4548 20.2072 2.64551 20.2966 2.63525 20.1786C2.57624 19.4503 3.2215 19.0471 3.59224 18.4891C3.65467 18.3937 3.66921 18.1876 3.73806 18.0798C4.22639 17.3247 4.85669 16.8304 5.61142 16.3502C5.81026 16.2244 6.04331 16.1398 6.25626 16.05C6.7121 15.8575 7.26158 15.4684 7.7931 15.5373C7.96714 15.5591 8.02828 15.2307 8.16597 15.2268C8.82279 15.2063 9.40092 14.7402 10.0458 14.9202C10.1411 14.9467 10.2664 15.0237 10.3558 15.1152C10.4571 15.0139 10.5585 14.8458 10.6602 14.8458C11.1588 14.836 11.6613 14.8291 12.1603 14.9331C12.7098 15.0485 13.2349 15.1028 13.7497 15.2811C14.0174 15.3748 14.2547 15.5693 14.4754 15.7049C14.9522 15.9931 15.4995 16.0316 15.842 16.4981C15.8989 16.5772 15.9271 16.7389 16.0289 16.7534C16.8495 16.8727 17.3057 17.5928 17.8232 18.15C17.8976 18.2359 17.8937 18.4365 17.945 18.4831C18.4436 18.9509 18.7703 19.4828 19.082 20.049C19.5687 20.9333 19.8928 21.9023 19.9056 22.9003C19.9155 23.8765 20.0104 24.8464 19.8505 25.8401ZM1.27031 27.6032C1.77105 28.0218 2.71393 28.1911 2.63097 28.8569C2.52578 29.7246 1.81167 30.4506 1.69664 31.3666C1.68595 31.4436 1.84588 31.5813 1.95364 31.497C2.26194 31.2499 2.56384 31.0544 2.8482 30.803C3.1967 30.4908 3.51912 30.1257 3.93048 30.15C4.63861 30.1825 5.07221 31.0018 5.82181 31.1365C5.91717 30.3215 5.33989 29.5462 5.5383 28.8163C5.75938 28.0094 6.83995 27.8961 7.40953 27.2838C6.7245 27.0366 6.00098 27.1174 5.30525 26.9348C5.00678 26.8544 4.83103 26.4606 4.75535 26.2049C4.62193 25.7473 4.37221 25.3539 4.15926 24.9353C4.08442 25.0131 3.98308 25.0781 3.94673 25.1709C3.70556 25.7833 3.62602 26.5342 3.1193 26.8938C2.75412 27.1533 2.1606 26.9472 1.6697 26.9716C1.4204 26.9883 0.951742 26.7728 0.885463 27.1379C0.852537 27.3077 1.09628 27.4578 1.27031 27.6032Z" fill="#0D1853"/>
<path fill-rule="evenodd" clip-rule="evenodd" d="M9.44688 22.4462C9.31346 22.9649 9.03979 23.3784 8.53478 23.5601C7.91218 23.7799 7.28359 23.9009 6.63918 23.6093C6.48096 23.5357 6.29239 23.6662 6.11193 23.7837C5.94388 23.8889 5.82629 23.6901 5.76557 23.5682C5.52824 23.082 5.37003 22.506 5.54022 21.9955C5.57058 21.9018 5.72067 21.821 5.81645 21.8578C5.98237 21.9262 6.01273 22.1366 6.09269 22.267C6.44333 22.8426 7.07149 23.4019 7.8707 23.1475C8.24144 23.0299 8.53948 22.669 8.35476 22.3923C7.8258 21.6021 6.87137 21.4563 6.05763 21.0667C5.24688 20.6776 5.28964 19.7279 5.69031 19.0565C6.11878 18.345 7.00222 18.2171 7.68939 18.4318C8.13796 18.5737 8.55103 18.5002 8.99703 18.5297C9.04834 18.5331 9.12146 18.6067 9.13557 18.6674C9.1963 18.953 9.11334 19.2412 9.27327 19.5136C9.35451 19.6513 9.1762 19.8386 9.22281 20.0246C9.14755 20.0246 9.06031 20.049 9.00387 20.0169C8.7178 19.8583 8.80332 19.4473 8.53392 19.2836C8.24785 19.1108 7.94553 19.0039 7.6291 18.9184C7.13649 18.785 6.57076 18.9368 6.43906 19.5012C6.36166 19.8254 6.68194 19.963 6.8966 20.064C7.67785 20.4214 8.56343 20.6643 9.10479 21.3451C9.34168 21.6436 9.55677 22.004 9.44688 22.4462ZM11.9227 25.6939C11.9591 26.2207 11.7705 26.7437 11.8945 27.2748C11.9612 27.5429 12.1276 27.8426 12.4718 27.7332C12.4718 27.7815 12.4885 27.8426 12.4658 27.8794C12.3666 28.0415 12.1271 28.0817 12.0296 28.0616C11.5067 27.9478 10.9191 28.1911 10.3568 28.0984C10.3004 28.0898 10.2273 28.0175 10.2209 27.9555C10.1884 27.7165 10.5086 27.6891 10.5659 27.5018C10.9572 26.228 10.8152 24.9554 10.6207 23.6576C10.5963 23.4913 10.3047 23.4545 10.2153 23.2685C10.1845 23.2073 10.2029 23.1265 10.2029 23.0495C10.9632 23.0696 11.7218 23.0739 12.4718 23.1992C12.3482 23.5524 11.9227 23.7188 11.8838 24.1079C11.8295 24.6403 11.8881 25.1619 11.9227 25.6939ZM15.9188 26.7638C15.7828 27.2991 15.5215 27.7208 15.2372 28.1668C15.1623 28.2844 14.8912 28.1394 14.8583 28.086C14.0779 26.7437 13.956 25.2398 13.4395 23.8081C13.3702 23.6217 13.1145 23.5977 13.0093 23.4224C12.9139 23.2569 13.1231 23.115 13.1735 23.0902C13.5203 22.9247 13.9629 23.0217 14.3516 23.0987C14.5179 23.1312 14.9237 23.0585 14.8284 23.245C14.5791 23.7359 14.7612 24.3114 14.8527 24.7942C14.8566 24.8224 14.792 24.952 14.8305 25.0012C15.0777 25.3129 15.0028 25.7914 15.2945 25.9458C15.5703 26.0911 15.6413 25.6451 15.7606 25.4429C16.0381 24.9759 16.1095 24.4166 16.1458 23.877C16.1599 23.6542 15.8153 23.602 15.7503 23.4194C15.7157 23.3258 15.6126 23.1723 15.6592 23.1556C16.2314 22.9251 16.8552 23.0145 17.4595 23.1274C17.4394 23.1958 17.4843 23.2411 17.5347 23.2736C16.6752 24.2785 16.2433 25.4827 15.9188 26.7638ZM13.2223 32.8675C12.8699 33.139 12.2127 33.1506 12.1438 32.7131C12.075 32.2757 12.9323 32.1577 13.2081 32.4373C13.3056 32.5348 13.3989 32.729 13.2223 32.8675ZM17.6036 30.4378C17.1841 30.6568 17.0541 31.0869 16.6992 31.3542C16.1869 31.7484 15.6635 32.0033 15.1119 32.3364C14.9254 32.4502 14.7223 32.4502 14.5141 32.4091C14.4614 32.4008 14.4119 32.3788 14.3704 32.3455C14.3288 32.3121 14.2967 32.2685 14.2772 32.2189C14.2576 32.1693 14.2514 32.1155 14.2591 32.0627C14.2667 32.01 14.288 31.9602 14.3208 31.9182C14.6979 31.4607 15.262 31.2858 15.7687 30.942C16.6444 30.3455 17.403 29.7211 17.9345 28.8373C18.1569 28.4597 18.2929 27.9812 18.6841 27.7665C19.0164 27.5801 19.3516 28.0304 19.2315 28.322C19.0044 28.8817 18.5097 29.2867 18.2056 29.846C18.0695 30.0997 17.8595 30.306 17.6036 30.4378ZM26.4132 25.0084C26.3504 25.4502 26.5022 25.8962 26.4838 26.2938C26.4414 27.1131 26.2995 28.1313 26.9464 28.6701C27.2791 28.9425 28.0719 28.6825 28.0877 29.1002C28.1365 30.4023 26.2187 29.6147 25.2518 29.7575C24.9534 29.802 24.6207 29.7891 24.323 29.8383C23.8078 29.9268 23.1877 30.1423 22.693 29.7532C22.4416 29.5544 22.3586 29.0391 22.5553 28.9296C22.8953 28.7393 23.3943 28.9506 23.7984 28.8287C24.1084 28.7351 24.4205 28.7269 24.6373 28.4144C24.9234 28.0094 24.9841 27.6643 24.8665 27.2068C24.9841 27.1743 24.899 27.0071 25.0188 26.9797C24.9089 26.9305 24.9196 26.8053 24.9576 26.7685C25.0329 26.6915 25.0513 26.5615 25.0555 26.5213C25.118 25.8966 25.0025 25.2603 25.0697 24.6407C25.1103 24.2674 25.2989 23.8975 25.2176 23.5092C25.1509 23.1928 25.0594 22.9089 25.1081 22.5963C25.3048 21.3194 25.4549 20.0909 25.1727 18.8346C24.9901 18.0195 23.9506 18.6374 23.4802 18.0948C23.2955 17.8801 23.4717 17.3683 23.8125 17.3439C24.285 17.3097 24.8764 16.8637 25.2441 17.3807C26.2234 17.1759 27.1983 17.4341 28.1942 17.3396C28.3298 17.3255 28.5119 17.4474 28.6257 17.5526C29.0174 17.9118 29.1333 18.4613 29.3338 18.9239C29.5386 19.4024 29.8444 19.8309 30.0577 20.3051C30.183 20.5891 30.2827 20.9089 30.5097 21.1813C30.8215 21.5465 30.7915 22.0566 31.1097 22.4667C31.2418 22.633 31.1687 22.9294 31.2559 23.103C31.3547 23.3061 31.5091 23.4639 31.6878 23.6341C31.8494 23.7876 32.1355 23.9056 32.245 23.6426C32.3604 23.3711 32.4455 23.0863 32.5999 22.8392C33.7108 21.0479 34.6332 19.364 35.6039 17.5368C35.6834 17.3871 35.8378 17.2781 35.9793 17.2571C36.2059 17.2231 36.4365 17.2245 36.6626 17.2614C37.0518 17.3208 37.4597 17.2413 37.8685 17.1844C38.7814 17.0566 39.6794 17.1318 40.5817 17.2028C41.0076 17.2362 41.2642 17.6604 41.1872 18.1376C41.1662 18.2586 40.9866 18.2487 40.9665 18.2487C40.2246 18.2004 39.5092 18.5494 39.5011 19.2729C39.4913 20.0832 39.4913 20.8739 39.375 21.7009C39.351 21.8595 39.4729 22.1511 39.5862 22.3782C39.6367 22.48 39.6388 22.6378 39.5862 22.7391C39.4802 22.9422 39.2655 23.1 39.1864 23.2911C39.0487 23.6067 39.422 23.9676 39.1821 24.3568C39.0705 24.5398 39.2651 24.8237 39.2411 25.0059C39.1804 25.4519 39.2792 25.8778 39.2818 26.2994C39.2835 26.6885 39.4092 27.1144 39.4686 27.5155C39.5212 27.8888 39.6876 28.1159 39.9206 28.3233C39.9976 28.3883 40.107 28.4486 40.2105 28.4768C40.4722 28.5538 40.7438 28.2865 40.9447 28.5093C41.2838 28.886 41.1303 29.5475 40.6501 29.6608C40.243 29.7588 39.8535 29.8272 39.4545 29.8144C38.6942 29.7985 37.9579 29.4133 37.1899 29.5189C36.5249 29.6082 35.8857 29.8028 35.2229 29.7502C34.6836 29.7053 34.1235 29.1746 34.5289 28.7847C34.9167 28.4156 35.91 28.7162 36.0559 28.0958C36.3154 27.0007 36.232 25.8974 36.2987 24.7869C36.3086 24.5924 36.0375 24.3495 36.1529 24.122C36.2765 23.8907 36.327 23.6349 36.309 23.4323C36.2286 22.5937 36.3945 21.762 36.2868 20.9427C36.2504 20.6502 36.4916 20.1927 36.1149 20.0622C36.0597 20.0464 35.8797 20.1272 35.8288 20.2534C35.464 21.1864 34.8372 21.9403 34.4078 22.8323C34.3488 22.9576 34.4335 23.1487 34.3672 23.2625C33.6899 24.4628 33.1746 25.646 32.5447 26.8553C32.4045 27.1217 32.2322 27.3941 32.1552 27.7263C32.0842 28.0269 31.7297 28.2459 31.6523 28.5089C31.5552 28.8497 31.2345 29.1537 31.3645 29.5514C31.2144 29.5398 31.1234 29.8062 31.0075 29.6809C30.6064 29.2392 30.3284 28.6752 30.1822 28.1608C30.0753 27.7789 29.8298 27.3299 29.5882 26.9566C29.513 26.8429 29.5296 26.6158 29.5053 26.4572C29.3915 25.7516 28.9455 25.1637 28.6979 24.5231C28.2541 23.3681 27.6597 22.2572 27.1821 21.0971C27.1269 20.9675 27.0521 20.752 26.9045 20.7362C26.4744 20.6878 26.6407 21.0971 26.5697 21.3767C26.5556 21.4379 26.574 21.5828 26.4521 21.6158C26.6895 22.0057 26.4487 22.4184 26.4808 22.8285C26.4992 23.0799 26.335 23.372 26.4038 23.6512C26.5227 24.1207 26.4761 24.5624 26.4132 25.0084ZM52.4227 27.2833C52.4518 27.6276 52.2893 28.0009 52.4026 28.3288C52.5771 28.8116 53.186 28.496 53.57 28.5644C53.9715 28.6371 54.0852 29.468 53.6435 29.6677C52.9863 29.9632 52.2615 30.0119 51.5431 30.0611C51.0034 30.0979 50.4882 29.9593 49.9614 29.8255C49.6616 29.7485 49.467 29.5056 49.2566 29.2619C49.1224 29.1156 48.8551 29.1114 48.6845 29.1977C48.5511 29.258 48.413 29.3842 48.283 29.4483C47.5774 29.7733 46.8599 30.0089 46.1022 30.2274C45.9636 30.2676 45.8383 30.1423 45.7289 30.1748C44.942 30.4177 44.1552 30.1299 43.4741 29.7447C42.4401 29.1652 41.8564 28.0902 42.0552 26.9057C42.2207 25.9368 42.7967 25.2312 43.6237 24.6599C43.9603 24.4286 44.3096 24.2699 44.6786 24.1361C45.2876 23.9172 45.9029 23.7953 46.5601 23.6777C47.4637 23.5156 48.3599 23.682 49.2002 23.2728C49.3336 22.5227 49.0339 21.7603 48.3484 21.4319C47.6835 21.1112 46.856 21.2985 46.2523 21.7641C46.2407 22.6972 45.4731 23.5396 44.5243 23.3168C43.9286 23.1757 43.4989 22.5467 43.7584 21.9138C44.3182 20.5399 45.8507 20.5232 47.0989 20.2393C47.7318 20.093 48.3886 20.1867 49.0416 20.2919C49.9579 20.4424 50.8055 20.6609 51.5965 21.1929C51.9595 21.4367 52.2195 21.8062 52.3265 22.2302C52.5326 23.0739 52.5822 23.9373 52.4402 24.7732C52.3423 25.3488 52.6348 25.8957 52.3393 26.4679C52.2161 26.7031 52.3983 27.0071 52.4227 27.2833ZM45.4932 27.4338C45.911 28.65 47.2122 28.7791 48.2911 28.4755C48.9432 28.2891 49.1912 27.6648 49.24 27.0524C49.2524 26.8938 49.1066 26.6958 49.1506 26.5337C49.2442 26.213 49.1591 25.9133 49.1591 25.6173C49.1549 25.3817 49.0056 25.0409 48.7375 24.9759C48.5511 24.9276 48.3852 24.757 48.2265 24.8139C47.7202 24.9883 47.1767 24.8583 46.7222 25.1179C46.3656 25.3167 46.3331 25.8076 46.0047 26.039C45.9187 26.0993 45.7733 26.1194 45.7408 26.2284C45.66 26.4922 45.5018 26.6954 45.5745 26.9793C45.4526 27.0067 45.5176 27.1456 45.4368 27.2183C45.3795 27.2666 45.4646 27.356 45.4932 27.4338ZM59.5843 25.8436C59.5599 26.6787 59.6412 27.4937 59.9127 28.2446C60.103 28.7633 60.8415 28.2121 61.2717 28.4507C61.6039 28.6294 61.5513 29.3149 61.2024 29.5214C60.7124 29.8131 60.1569 29.9063 59.6455 29.7275C58.9557 29.4885 58.275 29.3226 57.6019 29.468C57.0584 29.5856 56.5269 29.5582 55.9877 29.7275C55.4207 29.9063 54.7801 29.3795 55.0756 28.8197C55.221 28.5439 55.611 28.4546 55.9958 28.378C56.4576 28.2844 56.547 27.8024 56.7373 27.421C56.7865 27.3282 56.6445 27.2307 56.6235 27.1247C56.4739 26.4841 56.7172 25.8718 56.5709 25.2312C56.5025 24.9191 56.7946 24.5748 56.6488 24.2742C56.3037 23.5687 56.7582 22.7742 56.4375 22.0729C56.3208 21.8172 55.9915 21.8373 55.7726 21.6872C55.6623 21.91 55.4562 21.972 55.2496 21.8984C54.8921 21.7731 54.5441 21.3464 54.828 21.0432C55.132 20.7225 55.6387 20.6216 56.0723 20.6742C56.7698 20.7627 57.4428 20.7751 58.1121 20.7268C58.5623 20.69 59.0122 20.471 59.471 20.5848C59.796 20.6656 59.6613 21.213 59.9371 21.2578C60.4199 21.3348 60.83 20.9461 61.2875 20.7708C61.8062 20.5728 62.3014 20.7392 62.7957 20.82C63.0839 20.8683 63.3721 21.0064 63.615 21.189C63.8664 21.3754 63.9558 21.7158 64.0524 22.004C64.191 22.421 63.9515 22.9161 63.5453 23.0897C63.3063 23.1949 62.9941 23.1714 62.7303 23.1547C62.0897 23.1145 61.6193 22.6805 61.0399 22.4205C60.6307 22.2341 59.9974 22.6151 59.8597 23.0008C59.5475 23.8851 59.6202 24.8913 59.5843 25.8436ZM68.9789 27.1371C69.0649 27.4296 69.0401 27.7618 69.1829 28.0175C69.3608 28.3417 69.7867 28.3216 70.1318 28.3618C70.2814 28.3784 70.4358 28.5003 70.4961 28.6457C70.6381 28.9946 70.6381 29.5219 70.2045 29.5946C69.3766 29.7408 68.5744 29.7408 67.7718 29.4526C67.3301 29.2948 66.8306 29.4894 66.3363 29.6437C65.8009 29.8092 65.2006 29.7489 64.6207 29.6754C64.0777 29.6027 64.0084 28.9219 64.2885 28.6098C64.5399 28.3374 65.0911 28.4755 65.411 28.2805C65.8493 28.009 65.6957 27.4001 65.8454 26.9057C65.8779 26.8005 66.0199 26.6428 66.0117 26.6141C65.818 25.965 66.0242 25.3411 66.0083 24.7117C66.0083 24.5663 66.223 24.4042 66.1747 24.2699C65.8698 23.3989 66.1298 22.5428 66.0652 21.6825C65.9959 20.8029 66.202 19.8826 66.0032 18.9791C65.8578 18.3475 65.0672 18.69 64.5566 18.5374C64.2115 18.4365 64.3855 17.9067 64.5566 17.6155C64.6776 17.3965 64.9735 17.4068 65.1604 17.37C65.9874 17.1998 66.8067 17.5286 67.6333 17.4051C68.0634 17.3418 68.5094 17.1878 68.9238 17.2062C69.0974 17.2139 69.3612 17.4833 69.3287 17.6757C69.0897 19.0569 69.073 20.35 69.1132 21.6872C69.1256 22.0857 69.336 22.5514 69.227 22.8717C69.1419 23.1274 68.9764 23.5982 69.0773 23.9548C69.2034 23.7675 69.3488 23.9993 69.4382 23.9338C70.3828 23.2732 71.3197 22.8071 72.0783 21.972C72.1309 21.9185 72.2519 21.7808 72.1634 21.7038C71.8102 21.4208 71.389 21.7966 71.0601 21.6478C70.6257 21.4524 70.7394 20.6216 71.1294 20.5647C72.7146 20.3248 74.2839 20.3376 75.8776 20.4142C76.3394 20.4343 76.4741 20.7794 76.6319 21.1608C76.5152 21.189 76.575 21.3263 76.4985 21.4037C76.4583 21.4396 76.4502 21.5615 76.5596 21.614C75.2819 21.9095 74.1466 22.3123 72.9951 23.1064C72.9224 23.159 72.7723 23.0897 72.7227 23.1432C72.452 23.4263 71.9444 23.6863 72.0902 24.0027C72.1963 24.2216 72.6906 24.2622 72.8813 24.4568C73.4817 25.0892 74.2394 25.4296 74.7756 26.107C74.9903 26.3828 75.27 26.5688 75.4804 26.8613C75.7361 27.2145 76.1132 27.3556 76.4942 27.6438C76.5626 27.6921 76.7055 27.6271 76.7739 27.6763C77.2524 28.0372 77.7796 27.8097 78.2987 27.7982C78.566 27.7896 78.5869 28.2476 78.4198 28.4712C77.7433 29.3876 76.705 29.7199 75.6501 29.7524C75.261 29.7648 74.9044 29.6587 74.5311 29.5693C73.6716 29.3705 73.1122 28.7141 72.5927 28.0043C71.9487 27.1238 71.3073 26.3823 70.6141 25.584C70.4846 25.4335 70.1724 25.1983 69.9252 25.3441C69.4908 25.6037 68.9195 25.9197 69.0576 26.5286C69.0662 26.5645 68.9524 26.618 68.94 26.6783C68.9067 26.8292 68.9263 26.9793 68.9789 27.1371Z" fill="#0D1853"/>
<path fill-rule="evenodd" clip-rule="evenodd" d="M79.1166 25.7426C79.2752 25.9004 79.3522 26.0907 79.3522 26.3062C79.3522 26.5333 79.2752 26.724 79.1166 26.8818C79.0441 26.9594 78.9562 27.0211 78.8586 27.0629C78.761 27.1047 78.6557 27.1257 78.5495 27.1247C78.3225 27.1247 78.1318 27.0439 77.9731 26.8856C77.8966 26.8102 77.8362 26.7198 77.7959 26.6202C77.7555 26.5206 77.7359 26.4137 77.7384 26.3062C77.7384 26.0907 77.8153 25.9004 77.9697 25.7426C78.1318 25.5763 78.3221 25.4946 78.5491 25.4946C78.7685 25.4946 78.9588 25.5763 79.1166 25.7426ZM79.2389 25.6173C79.1504 25.524 79.0435 25.4501 78.9249 25.4005C78.8062 25.3509 78.6785 25.3266 78.55 25.3291C78.2904 25.3291 78.0629 25.4177 77.8726 25.5921C77.6695 25.7824 77.5686 26.0223 77.5686 26.3062C77.5686 26.582 77.6623 26.8125 77.8483 27.0037C78.0386 27.1939 78.2699 27.2876 78.55 27.2876C78.813 27.2876 79.04 27.194 79.2307 27.0071C79.4296 26.8206 79.5271 26.5863 79.5271 26.3062C79.5287 26.1778 79.504 26.0504 79.4544 25.9319C79.4048 25.8134 79.3315 25.7063 79.2389 25.6173ZM78.6667 26.2327C78.6299 26.2609 78.5782 26.2737 78.5132 26.2737H78.4037V25.9573H78.473C78.5414 25.9573 78.5983 25.9658 78.6342 25.9817C78.6962 26.006 78.7244 26.0428 78.7244 26.1035C78.7244 26.1643 78.7043 26.2045 78.6667 26.2327ZM78.4037 26.4683H78.4649L78.526 26.4726C78.5662 26.4768 78.5987 26.4811 78.6188 26.4884C78.6375 26.4951 78.6545 26.5058 78.6686 26.5198C78.6827 26.5337 78.6936 26.5506 78.7005 26.5692C78.7082 26.5944 78.7163 26.6342 78.7206 26.7026C78.7206 26.7676 78.7283 26.8164 78.7364 26.854H79.0079L78.9964 26.8206C78.9964 26.8091 78.9921 26.8005 78.9921 26.7881C78.9878 26.7796 78.9878 26.7681 78.9878 26.7608V26.659C78.9878 26.5495 78.9554 26.4687 78.8942 26.42C78.8484 26.3873 78.796 26.3652 78.7407 26.355C78.8083 26.3483 78.8728 26.3231 78.9271 26.2823C78.9797 26.2412 79.0041 26.1771 79.0041 26.0834C79.0041 25.9658 78.9558 25.8765 78.8579 25.8277C78.7921 25.7912 78.7184 25.7717 78.6432 25.7709C78.6274 25.7666 78.5547 25.7666 78.4204 25.7666H78.1207V26.854H78.4046V26.4683H78.4037Z" fill="#0D1853"/>
</svg>
