<svg width="154" height="41" viewBox="0 0 154 41" fill="none" xmlns="http://www.w3.org/2000/svg">
<path d="M24.3989 18.9938C24.3581 14.4816 28.1131 12.2864 28.2848 12.1842C26.1582 9.10002 22.8621 8.67862 21.7038 8.64502C18.9354 8.35522 16.2501 10.2928 14.8398 10.2928C13.4015 10.2928 11.2298 8.67302 8.88932 8.72062C5.87747 8.76682 3.05984 10.5014 1.5145 13.195C-1.67468 18.6872 0.703839 26.7582 3.75932 31.1976C5.28776 33.3718 7.07376 35.7994 9.41147 35.714C11.6985 35.6202 12.5528 34.2636 15.3127 34.2636C18.0473 34.2636 18.8495 35.714 21.2337 35.6594C23.6882 35.6202 25.2335 33.4754 26.7085 31.2816C28.4748 28.7896 29.1841 26.3354 29.2123 26.2094C29.1546 26.1898 24.4454 24.402 24.3989 18.9938Z" fill="white"/>
<path d="M19.8951 5.7246C21.1252 4.1944 21.9668 2.1126 21.7332 0C19.9528 0.0784 17.7263 1.225 16.4442 2.7216C15.3098 4.0404 14.2965 6.202 14.5583 8.2348C16.5582 8.3832 18.6116 7.231 19.8951 5.7246Z" fill="white"/>
<path d="M57.4973 35.4022H54.3011L52.5502 29.9296H46.4646L44.7968 35.4022H41.6851L47.7144 16.771H51.4384L57.4973 35.4022ZM52.0225 27.6336L50.4391 22.7686C50.2717 22.2716 49.9578 21.1012 49.4948 19.2588H49.4385C49.2541 20.0512 48.9571 21.2216 48.549 22.7686L46.9938 27.6336H52.0225Z" fill="white"/>
<path d="M73.0029 28.5199C73.0029 30.8047 72.3823 32.6107 71.1409 33.9365C70.0291 35.1167 68.6484 35.7061 67.0003 35.7061C65.2214 35.7061 63.9434 35.0705 63.1651 33.7993H63.1088V40.8763H60.1083V26.3905C60.1083 24.9541 60.0703 23.4799 59.9971 21.9679H62.636L62.8034 24.0973H62.8597C63.8604 22.4929 65.379 21.6921 67.4169 21.6921C69.0101 21.6921 70.3401 22.3179 71.4041 23.5709C72.4709 24.8253 73.0029 26.4745 73.0029 28.5199ZM69.946 28.6291C69.946 27.3215 69.6505 26.2435 69.0566 25.3951C68.4077 24.5103 67.5365 24.0679 66.4444 24.0679C65.7041 24.0679 65.0314 24.3143 64.4304 24.8001C63.828 25.2901 63.434 25.9299 63.2496 26.7223C63.1567 27.0919 63.1103 27.3943 63.1103 27.6323V29.8723C63.1103 30.8495 63.4114 31.6741 64.0138 32.3475C64.6162 33.0209 65.3987 33.3569 66.3614 33.3569C67.4915 33.3569 68.3711 32.9229 69.0003 32.0577C69.6308 31.1911 69.946 30.0487 69.946 28.6291Z" fill="white"/>
<path d="M88.5362 28.5199C88.5362 30.8047 87.9155 32.6107 86.6728 33.9365C85.5623 35.1167 84.1817 35.7061 82.5336 35.7061C80.7546 35.7061 79.4767 35.0705 78.6998 33.7993H78.6435V40.8763H75.6429V26.3905C75.6429 24.9541 75.6049 23.4799 75.5317 21.9679H78.1706L78.3381 24.0973H78.3944C79.3937 22.4929 80.9123 21.6921 82.9516 21.6921C84.5434 21.6921 85.8734 22.3179 86.9402 23.5709C88.0028 24.8253 88.5362 26.4745 88.5362 28.5199ZM85.4793 28.6291C85.4793 27.3215 85.1823 26.2435 84.5884 25.3951C83.9396 24.5103 83.0712 24.0679 81.9777 24.0679C81.236 24.0679 80.5646 24.3143 79.9623 24.8001C79.3599 25.2901 78.9672 25.9299 78.7828 26.7223C78.6914 27.0919 78.6435 27.3943 78.6435 27.6323V29.8723C78.6435 30.8495 78.9447 31.6741 79.5443 32.3475C80.1466 33.0195 80.9292 33.3569 81.8946 33.3569C83.0248 33.3569 83.9044 32.9229 84.5335 32.0577C85.164 31.1911 85.4793 30.0487 85.4793 28.6291Z" fill="white"/>
<path d="M105.904 30.1774C105.904 31.7622 105.351 33.0516 104.24 34.047C103.02 35.1348 101.321 35.678 99.1383 35.678C97.1229 35.678 95.5072 35.2916 94.2842 34.5174L94.9794 32.0296C96.2968 32.822 97.7422 33.2196 99.3171 33.2196C100.447 33.2196 101.327 32.9648 101.959 32.458C102.588 31.9512 102.902 31.2708 102.902 30.4224C102.902 29.6664 102.643 29.0294 102.123 28.5128C101.607 27.9962 100.744 27.516 99.5394 27.0722C96.2602 25.8556 94.622 24.0734 94.622 21.7298C94.622 20.1982 95.1962 18.9424 96.346 17.9652C97.4917 16.9866 99.0201 16.498 100.931 16.498C102.636 16.498 104.052 16.7934 105.182 17.3828L104.432 19.816C103.376 19.2448 102.183 18.9592 100.847 18.9592C99.7914 18.9592 98.9666 19.2182 98.3755 19.7334C97.8759 20.194 97.6254 20.7554 97.6254 21.4204C97.6254 22.1568 97.9111 22.7658 98.4853 23.2446C98.9849 23.687 99.8927 24.1658 101.21 24.6824C102.822 25.3278 104.005 26.0824 104.767 26.9476C105.525 27.81 105.904 28.8894 105.904 30.1774Z" fill="white"/>
<path d="M115.824 24.2078H112.517V30.7304C112.517 32.3894 113.1 33.2182 114.268 33.2182C114.804 33.2182 115.249 33.172 115.601 33.0796L115.684 35.3462C115.093 35.566 114.314 35.6766 113.35 35.6766C112.165 35.6766 111.239 35.3168 110.571 34.5986C109.905 33.879 109.57 32.6722 109.57 30.9768V24.205H107.6V21.965H109.57V19.5052L112.517 18.6204V21.965H115.824V24.2078Z" fill="white"/>
<path d="M130.747 28.5744C130.747 30.6394 130.153 32.3348 128.968 33.6606C127.726 35.0256 126.076 35.706 124.02 35.706C122.038 35.706 120.461 35.0522 119.284 33.7446C118.107 32.437 117.519 30.7864 117.519 28.797C117.519 26.7152 118.124 25.01 119.339 23.6842C120.551 22.357 122.186 21.6934 124.242 21.6934C126.224 21.6934 127.818 22.3472 129.022 23.6562C130.173 24.926 130.747 26.5654 130.747 28.5744ZM127.634 28.671C127.634 27.432 127.368 26.3694 126.829 25.4832C126.2 24.4108 125.301 23.876 124.135 23.876C122.929 23.876 122.013 24.4122 121.384 25.4832C120.845 26.3708 120.579 27.4502 120.579 28.727C120.579 29.966 120.845 31.0286 121.384 31.9134C122.033 32.9858 122.939 33.5206 124.109 33.5206C125.254 33.5206 126.153 32.9746 126.802 31.8854C127.355 30.9824 127.634 29.9086 127.634 28.671Z" fill="white"/>
<path d="M140.501 24.5929C140.204 24.5383 139.887 24.5103 139.555 24.5103C138.499 24.5103 137.683 24.9065 137.109 25.7003C136.609 26.4003 136.359 27.2851 136.359 28.3533V35.4023H133.359L133.387 26.1987C133.387 24.6503 133.349 23.2405 133.275 21.9693H135.888L135.998 24.5397H136.081C136.398 23.6563 136.898 22.9451 137.582 22.4117C138.25 21.9315 138.972 21.6921 139.75 21.6921C140.028 21.6921 140.278 21.7117 140.501 21.7467V24.5929Z" fill="white"/>
<path d="M153.92 28.0493C153.92 28.5841 153.885 29.0349 153.811 29.4031H144.809C144.844 30.7303 145.279 31.7453 146.115 32.4453C146.873 33.0711 147.854 33.3847 149.059 33.3847C150.392 33.3847 151.608 33.1733 152.702 32.7491L153.172 34.8211C151.894 35.3755 150.385 35.6513 148.644 35.6513C146.55 35.6513 144.906 35.0381 143.71 33.8131C142.516 32.5881 141.918 30.9431 141.918 28.8795C141.918 26.8537 142.474 25.1667 143.587 23.8213C144.752 22.3849 146.327 21.6667 148.309 21.6667C150.255 21.6667 151.729 22.3849 152.73 23.8213C153.522 24.9623 153.92 26.3735 153.92 28.0493ZM151.059 27.2751C151.079 26.3903 150.883 25.6259 150.476 24.9805C149.957 24.1503 149.159 23.7359 148.085 23.7359C147.104 23.7359 146.306 24.1405 145.697 24.9525C145.197 25.5979 144.9 26.3721 144.809 27.2737H151.059V27.2751Z" fill="white"/>
<path d="M51.0297 5.30881C51.0297 6.95661 50.5329 8.19701 49.5407 9.03001C48.6216 9.79861 47.3156 10.1836 45.6239 10.1836C44.7851 10.1836 44.0673 10.1472 43.4663 10.0744V1.07101C44.2502 0.945015 45.0947 0.880615 46.0067 0.880615C47.6182 0.880615 48.8328 1.22921 49.6519 1.92641C50.5695 2.71461 51.0297 3.84161 51.0297 5.30881ZM49.4745 5.34941C49.4745 4.28121 49.1902 3.46221 48.6216 2.89101C48.0531 2.32121 47.2227 2.03561 46.1291 2.03561C45.6647 2.03561 45.2692 2.06641 44.9413 2.13081V8.97541C45.1228 9.00341 45.455 9.01601 45.9377 9.01601C47.0665 9.01601 47.9376 8.70381 48.5513 8.07941C49.1649 7.45501 49.4745 6.54501 49.4745 5.34941Z" fill="white"/>
<path d="M59.2758 6.74801C59.2758 7.76301 58.9845 8.59461 58.4018 9.24701C57.791 9.91761 56.9818 10.2522 55.9712 10.2522C54.9973 10.2522 54.2218 9.93161 53.6434 9.28761C53.0664 8.64501 52.7778 7.83441 52.7778 6.85721C52.7778 5.83521 53.0748 4.99661 53.6715 4.34561C54.2683 3.69461 55.0705 3.36841 56.081 3.36841C57.0549 3.36841 57.8375 3.68901 58.43 4.33161C58.9929 4.95601 59.2758 5.76241 59.2758 6.74801ZM57.746 6.79561C57.746 6.18661 57.6137 5.66441 57.3505 5.22901C57.0409 4.70261 56.6004 4.43941 56.0275 4.43941C55.435 4.43941 54.9846 4.70261 54.675 5.22901C54.4104 5.66441 54.2795 6.19501 54.2795 6.82221C54.2795 7.43121 54.4118 7.95341 54.675 8.38881C54.9945 8.91521 55.4392 9.17841 56.0135 9.17841C56.5764 9.17841 57.0183 8.91101 57.3364 8.37481C57.6095 7.93101 57.746 7.40461 57.746 6.79561Z" fill="white"/>
<path d="M70.3323 3.50293L68.2564 10.1025H66.9053L66.0454 7.23673C65.8272 6.52133 65.6499 5.81013 65.5119 5.10453H65.4852C65.3571 5.82973 65.1798 6.53953 64.9518 7.23673L64.0384 10.1025H62.6718L60.7197 3.50293H62.2355L62.9856 6.64033C63.1672 7.38233 63.3164 8.08933 63.436 8.75853H63.4628C63.5725 8.20693 63.7541 7.50413 64.0102 6.65433L64.9518 3.50433H66.1537L67.0559 6.58713C67.274 7.33893 67.4514 8.06273 67.5879 8.75993H67.6287C67.7286 8.08093 67.8792 7.35713 68.0791 6.58713L68.8841 3.50433H70.3323V3.50293Z" fill="white"/>
<path d="M77.979 10.1025H76.504V6.32246C76.504 5.15766 76.0593 4.57526 75.167 4.57526C74.7293 4.57526 74.376 4.73486 74.1016 5.05546C73.8299 5.37606 73.692 5.75406 73.692 6.18666V10.1011H72.217V5.38866C72.217 4.80906 72.1988 4.18046 72.1636 3.50006H73.4598L73.5288 4.53186H73.5696C73.7413 4.21126 73.9974 3.94666 74.3338 3.73526C74.7335 3.48886 75.1811 3.36426 75.6708 3.36426C76.2901 3.36426 76.8052 3.56306 77.2148 3.96206C77.7242 4.45066 77.979 5.18006 77.979 6.14886V10.1025Z" fill="white"/>
<path d="M82.0463 10.1024H80.5728V0.474609H82.0463V10.1024Z" fill="white"/>
<path d="M90.7299 6.74801C90.7299 7.76301 90.4386 8.59461 89.8559 9.24701C89.2451 9.91761 88.4345 10.2522 87.4253 10.2522C86.45 10.2522 85.6745 9.93161 85.0975 9.28761C84.5204 8.64501 84.2319 7.83441 84.2319 6.85721C84.2319 5.83521 84.5289 4.99661 85.1256 4.34561C85.7224 3.69461 86.5246 3.36841 87.5337 3.36841C88.509 3.36841 89.2902 3.68901 89.8841 4.33161C90.447 4.95601 90.7299 5.76241 90.7299 6.74801ZM89.1987 6.79561C89.1987 6.18661 89.0664 5.66441 88.8032 5.22901C88.495 4.70261 88.053 4.43941 87.4816 4.43941C86.8877 4.43941 86.4373 4.70261 86.1291 5.22901C85.8645 5.66441 85.7336 6.19501 85.7336 6.82221C85.7336 7.43121 85.8659 7.95341 86.1291 8.38881C86.4486 8.91521 86.8933 9.17841 87.4676 9.17841C88.0305 9.17841 88.471 8.91101 88.7891 8.37481C89.0636 7.93101 89.1987 7.40461 89.1987 6.79561Z" fill="white"/>
<path d="M97.8685 10.1024H96.5442L96.4344 9.34221H96.3936C95.9404 9.94841 95.2944 10.2522 94.4556 10.2522C93.8293 10.2522 93.3226 10.052 92.9412 9.65441C92.595 9.29321 92.4219 8.84381 92.4219 8.31041C92.4219 7.50401 92.7597 6.88941 93.4394 6.46381C94.1178 6.03821 95.072 5.82961 96.3007 5.83941V5.71621C96.3007 4.84681 95.8419 4.41281 94.9228 4.41281C94.2684 4.41281 93.6914 4.57661 93.1931 4.90141L92.8934 3.93821C93.5098 3.55881 94.2712 3.36841 95.1691 3.36841C96.9031 3.36841 97.7728 4.27841 97.7728 6.09841V8.52881C97.7728 9.18821 97.8052 9.71321 97.8685 10.1024ZM96.3373 7.83441V6.81661C94.7103 6.78861 93.8968 7.23241 93.8968 8.14661C93.8968 8.49101 93.9897 8.74861 94.1797 8.92081C94.3697 9.09301 94.6118 9.17841 94.9003 9.17841C95.224 9.17841 95.5266 9.07621 95.8025 8.87321C96.0797 8.66881 96.25 8.40981 96.3134 8.09201C96.3288 8.02061 96.3373 7.93381 96.3373 7.83441Z" fill="white"/>
<path d="M106.249 10.1024H104.94L104.871 9.04261H104.831C104.413 9.84901 103.701 10.2522 102.7 10.2522C101.9 10.2522 101.235 9.94001 100.707 9.31561C100.179 8.69121 99.916 7.88061 99.916 6.88521C99.916 5.81701 100.202 4.95181 100.776 4.29101C101.332 3.67501 102.013 3.36701 102.824 3.36701C103.715 3.36701 104.338 3.66521 104.693 4.26301H104.721V0.474609H106.197V8.32441C106.197 8.96701 106.214 9.55921 106.249 10.1024ZM104.721 7.31921V6.21881C104.721 6.02841 104.707 5.87441 104.68 5.75681C104.597 5.40401 104.418 5.10721 104.147 4.86781C103.872 4.62841 103.541 4.50801 103.16 4.50801C102.61 4.50801 102.179 4.72501 101.862 5.16041C101.549 5.59581 101.39 6.15161 101.39 6.83061C101.39 7.48301 101.54 8.01221 101.843 8.41961C102.162 8.85361 102.593 9.07061 103.132 9.07061C103.616 9.07061 104.003 8.89001 104.297 8.52741C104.582 8.19281 104.721 7.78961 104.721 7.31921Z" fill="white"/>
<path d="M118.864 6.74801C118.864 7.76301 118.572 8.59461 117.99 9.24701C117.379 9.91761 116.571 10.2522 115.559 10.2522C114.587 10.2522 113.811 9.93161 113.231 9.28761C112.654 8.64501 112.366 7.83441 112.366 6.85721C112.366 5.83521 112.663 4.99661 113.259 4.34561C113.856 3.69461 114.658 3.36841 115.67 3.36841C116.643 3.36841 117.427 3.68901 118.018 4.33161C118.581 4.95601 118.864 5.76241 118.864 6.74801ZM117.335 6.79561C117.335 6.18661 117.203 5.66441 116.94 5.22901C116.629 4.70261 116.19 4.43941 115.615 4.43941C115.024 4.43941 114.574 4.70261 114.263 5.22901C113.998 5.66441 113.867 6.19501 113.867 6.82221C113.867 7.43121 114 7.95341 114.263 8.38881C114.582 8.91521 115.027 9.17841 115.601 9.17841C116.164 9.17841 116.608 8.91101 116.926 8.37481C117.197 7.93101 117.335 7.40461 117.335 6.79561Z" fill="white"/>
<path d="M126.794 10.1025H125.321V6.32246C125.321 5.15766 124.876 4.57526 123.982 4.57526C123.545 4.57526 123.192 4.73486 122.918 5.05546C122.645 5.37606 122.509 5.75406 122.509 6.18666V10.1011H121.033V5.38866C121.033 4.80906 121.016 4.18046 120.98 3.50006H122.275L122.344 4.53186H122.385C122.558 4.21126 122.814 3.94666 123.149 3.73526C123.55 3.48886 123.997 3.36426 124.488 3.36426C125.106 3.36426 125.621 3.56306 126.03 3.96206C126.541 4.45066 126.794 5.18006 126.794 6.14886V10.1025Z" fill="white"/>
<path d="M136.721 4.60173H135.097V7.80773C135.097 8.62253 135.386 9.02993 135.957 9.02993C136.222 9.02993 136.441 9.00753 136.614 8.96133L136.652 10.0743C136.361 10.1835 135.978 10.2381 135.507 10.2381C134.924 10.2381 134.471 10.0617 134.143 9.70893C133.814 9.35613 133.65 8.76253 133.65 7.92953V4.60173H132.681V3.50273H133.65V2.29313L135.096 1.85913V3.50133H136.72V4.60173H136.721Z" fill="white"/>
<path d="M144.53 10.1024H143.053V6.35041C143.053 5.16741 142.608 4.57521 141.718 4.57521C141.034 4.57521 140.566 4.91821 140.31 5.60421C140.266 5.74841 140.241 5.92481 140.241 6.13201V10.101H138.768V0.474609H140.241V4.45201H140.269C140.734 3.72821 141.399 3.36701 142.262 3.36701C142.873 3.36701 143.378 3.56581 143.779 3.96481C144.279 4.46181 144.53 5.20101 144.53 6.17821V10.1024Z" fill="white"/>
<path d="M152.584 6.49031C152.584 6.75351 152.564 6.97471 152.529 7.15531H148.106C148.125 7.80771 148.336 8.30471 148.746 8.64911C149.12 8.95711 149.603 9.11111 150.194 9.11111C150.849 9.11111 151.445 9.00751 151.983 8.79891L152.214 9.81811C151.585 10.0897 150.844 10.2255 149.987 10.2255C148.96 10.2255 148.151 9.92451 147.565 9.32251C146.977 8.72051 146.686 7.91271 146.686 6.89911C146.686 5.90371 146.957 5.07491 147.505 4.41411C148.076 3.70851 148.849 3.35571 149.824 3.35571C150.778 3.35571 151.503 3.70851 151.993 4.41411C152.388 4.97411 152.584 5.66711 152.584 6.49031ZM151.177 6.11091C151.188 5.67551 151.091 5.30031 150.891 4.98391C150.635 4.57651 150.245 4.37211 149.717 4.37211C149.236 4.37211 148.843 4.57091 148.543 4.96991C148.298 5.28771 148.153 5.66711 148.106 6.11091H151.177Z" fill="white"/>
</svg>
