<svg width="100" height="100" viewBox="0 0 100 100" fill="none" xmlns="http://www.w3.org/2000/svg">
<path d="M71.0536 37.9588C70.4546 37.9588 69.8556 37.9196 69.2664 37.8508C68.7361 37.7919 68.3531 37.3304 68.3826 36.8001C68.4611 35.4253 67.6657 34.1487 66.3989 33.6184C65.1911 33.1176 63.6199 33.4711 62.7459 34.4433C62.3924 34.8361 61.7934 34.8852 61.3809 34.5513C60.4775 33.8246 59.6526 32.9899 58.9357 32.0767C58.6117 31.6642 58.6608 31.075 59.0438 30.7215C60.0454 29.7984 60.3793 28.345 59.8686 27.0979C59.358 25.8606 58.1501 25.0553 56.8539 25.0848C56.3531 25.0848 55.7541 24.7215 55.6951 24.201C55.5675 23.0226 55.5675 21.8442 55.705 20.6854C55.7737 20.1453 56.196 19.782 56.7459 19.8016C58.1796 19.8016 59.4366 19.0259 59.9374 17.818C60.4677 16.5512 60.1338 15.088 59.1125 14.1551C58.7197 13.8016 58.6706 13.2026 59.0045 12.7902C59.741 11.8769 60.5757 11.0422 61.5086 10.3155C61.921 9.99145 62.5102 10.0504 62.8637 10.4334C63.7377 11.3957 65.2991 11.7492 66.4971 11.2582C67.7443 10.7476 68.5495 9.49063 68.5004 8.12565C68.4808 7.60519 68.8736 7.15347 69.394 7.09455C70.543 6.96689 71.7214 6.96689 72.8801 7.10437C73.4104 7.16329 73.7934 7.62483 73.764 8.15511C73.6854 9.52991 74.4808 10.8065 75.7476 11.3368C76.9555 11.8376 78.5267 11.4841 79.4006 10.5119C79.7542 10.1191 80.3532 10.07 80.7656 10.4039C81.6691 11.1306 82.4939 11.9555 83.2206 12.8785C83.5447 13.291 83.4956 13.8802 83.1126 14.2337C82.111 15.1568 81.7771 16.6101 82.2877 17.8573C82.7885 19.075 83.9768 19.8704 85.3221 19.8704C85.8131 19.8704 86.3925 20.2337 86.4514 20.7542C86.5791 21.9326 86.5791 23.111 86.4416 24.2697C86.3827 24.8 85.9015 25.1928 85.3908 25.1535H85.2141C83.9178 25.1535 82.7198 25.949 82.219 27.1372C81.6887 28.404 82.0226 29.8671 83.0439 30.8001C83.4367 31.1536 83.4858 31.7526 83.1519 32.165C82.4154 33.0783 81.5709 33.913 80.6478 34.6397C80.2255 34.9637 79.6461 34.9146 79.2926 34.5218C78.4186 33.5595 76.8573 33.206 75.6592 33.697C74.4121 34.2076 73.6068 35.4646 73.6559 36.8295C73.6756 37.35 73.2828 37.8017 72.7623 37.8606C72.1829 37.9294 71.6134 37.9588 71.0536 37.9588ZM65.2205 33.0979C65.6624 33.0979 66.1043 33.1765 66.507 33.3434C67.8818 33.9228 68.7557 35.3173 68.6674 36.8197C68.6477 37.1929 68.9227 37.5169 69.286 37.5562C70.4153 37.6839 71.5741 37.6937 72.7034 37.566C73.0667 37.5268 73.3417 37.2027 73.3319 36.8394C73.2828 35.3565 74.1568 33.9916 75.5217 33.4318C76.8278 32.9015 78.5267 33.2845 79.4792 34.3353C79.7345 34.6102 80.147 34.6397 80.4416 34.4138C81.345 33.7068 82.1699 32.8819 82.8966 31.9883C83.1322 31.6937 83.093 31.2714 82.818 31.0259C81.7083 30.0144 81.345 28.4138 81.9244 27.039C82.4645 25.7427 83.7804 24.8688 85.1944 24.8688L85.3908 24.8786C85.764 24.908 86.0979 24.6331 86.1372 24.2599C86.2746 23.1208 86.2746 21.962 86.147 20.8033C86.1077 20.4498 85.6658 20.1748 85.3123 20.1748C83.8491 20.1748 82.543 19.3106 82.0029 17.9849C81.4432 16.62 81.8065 15.0291 82.8966 14.0275C83.1715 13.782 83.201 13.3597 82.9751 13.0749C82.2681 12.1715 81.453 11.3564 80.5692 10.6494C80.2746 10.4137 79.8524 10.453 79.6069 10.728C78.6445 11.7885 76.9358 12.1715 75.6199 11.6216C74.2451 11.0422 73.3712 9.64775 73.4595 8.14529C73.4792 7.77213 73.2042 7.44807 72.8409 7.40879C71.7018 7.28113 70.5528 7.27131 69.4235 7.39897C69.0602 7.43825 68.7852 7.76231 68.795 8.12565C68.8441 9.60847 67.9701 10.9833 66.6052 11.5332C65.2991 12.0635 63.6002 11.6805 62.6477 10.6298C62.4022 10.3548 61.9799 10.3253 61.6853 10.5512C60.7721 11.2681 59.9472 12.0831 59.2303 12.9767C58.9947 13.2713 59.0339 13.6936 59.3089 13.9391C60.4186 14.9506 60.7819 16.5512 60.2025 17.926C59.6526 19.2419 58.2876 20.0864 56.7262 20.0864C56.3334 20.0766 56.029 20.3221 55.9897 20.7051C55.8523 21.8442 55.8523 23.003 55.9799 24.1617C56.0192 24.5152 56.4709 24.7804 56.8343 24.7804C58.2483 24.7411 59.574 25.6249 60.124 26.9702C60.6837 28.3352 60.3204 29.9261 59.2303 30.9277C58.9554 31.1732 58.9259 31.5955 59.1518 31.8803C59.8588 32.7739 60.6641 33.5889 61.5577 34.3058C61.8523 34.5415 62.2745 34.5022 62.52 34.2272C63.1878 33.5104 64.2189 33.0979 65.2205 33.0979ZM71.0929 27.7755C68.196 27.7755 65.8294 25.4187 65.8294 22.512C65.8294 19.6052 68.1862 17.2484 71.0929 17.2484C73.9996 17.2484 76.3564 19.6052 76.3564 22.512C76.3564 25.4187 73.9898 27.7755 71.0929 27.7755ZM71.0929 17.543C68.3531 17.543 66.124 19.7722 66.124 22.512C66.124 25.2517 68.3531 27.4809 71.0929 27.4809C73.8327 27.4809 76.0618 25.2517 76.0618 22.512C76.0618 19.7722 73.8327 17.543 71.0929 17.543Z" fill="#FF404E"/>
<path opacity="0.9" d="M68.5693 92.9999H37.6166C35.0143 92.9999 32.9128 90.8886 32.9128 88.2961V24.633C32.9128 22.0307 35.0241 19.9292 37.6166 19.9292H68.5693C71.1716 19.9292 73.2731 22.0405 73.2731 24.633V88.2961C73.2731 90.8886 71.1716 92.9999 68.5693 92.9999Z" fill="#0D1853"/>
<path d="M68.1767 90.7706H38.0097C36.4286 90.7706 35.1422 89.4842 35.1422 87.9032V25.1533C35.1422 23.5723 36.4286 22.2859 38.0097 22.2859H68.1865C69.7676 22.2859 71.054 23.5723 71.054 25.1533V87.9032C71.054 89.4842 69.7676 90.7706 68.1767 90.7706Z" fill="white"/>
<path opacity="0.9" d="M41.6132 22.011L43.4888 24.4071C44.2351 25.3596 45.3448 25.9095 46.5035 25.9095H59.5445C60.7033 25.9095 61.8129 25.3596 62.5592 24.4071L64.4349 22.011H41.6132Z" fill="#0D1853"/>
<path opacity="0.9" d="M37.7834 30.3582H68.4022C68.9423 30.3582 69.3842 30.8001 69.3842 31.3402V48.5939C69.3842 49.134 68.9423 49.5759 68.4022 49.5759H37.7834C37.2433 49.5759 36.8014 49.134 36.8014 48.5939V31.3402C36.8112 30.8001 37.2433 30.3582 37.7834 30.3582Z" fill="#0D1853"/>
<path d="M68.6087 53.3271H37.5775C37.1552 53.3271 36.8115 52.9834 36.8115 52.5611C36.8115 52.1389 37.1552 51.7952 37.5775 51.7952H68.6185C69.0408 51.7952 69.3845 52.1389 69.3845 52.5611C69.3747 52.9834 69.031 53.3271 68.6087 53.3271Z" fill="#F2F2F2"/>
<path d="M68.6087 56.5285H37.5775C37.1552 56.5285 36.8115 56.1848 36.8115 55.7625C36.8115 55.3403 37.1552 54.9966 37.5775 54.9966H68.6185C69.0408 54.9966 69.3845 55.3403 69.3845 55.7625C69.3747 56.1848 69.031 56.5285 68.6087 56.5285Z" fill="#F2F2F2"/>
<path d="M58.5923 59.7299H37.5775C37.1552 59.7299 36.8115 59.3862 36.8115 58.964C36.8115 58.5417 37.1552 58.198 37.5775 58.198H58.5923C59.0146 58.198 59.3583 58.5417 59.3583 58.964C59.3583 59.3862 59.0146 59.7299 58.5923 59.7299Z" fill="#F2F2F2"/>
<path d="M51.355 78.6628H37.5775C37.1552 78.6628 36.8115 78.3191 36.8115 77.8968C36.8115 77.4746 37.1552 77.1309 37.5775 77.1309H51.355C51.7772 77.1309 52.1209 77.4746 52.1209 77.8968C52.1209 78.3191 51.7772 78.6628 51.355 78.6628Z" fill="#F2F2F2"/>
<path d="M51.355 81.8642H37.5775C37.1552 81.8642 36.8115 81.5205 36.8115 81.0982C36.8115 80.676 37.1552 80.3323 37.5775 80.3323H51.355C51.7772 80.3323 52.1209 80.676 52.1209 81.0982C52.1209 81.5205 51.7772 81.8642 51.355 81.8642Z" fill="#F2F2F2"/>
<path d="M43.695 85.0654H37.5674C37.1451 85.0654 36.8014 84.7217 36.8014 84.2994C36.8014 83.8772 37.1451 83.5334 37.5674 83.5334H43.695C44.1173 83.5334 44.461 83.8772 44.461 84.2994C44.461 84.7217 44.1173 85.0654 43.695 85.0654Z" fill="#F2F2F2"/>
<path opacity="0.9" d="M40.9948 63.3533H36.8115V74.9016H40.9948V63.3533Z" fill="#0D1853"/>
<path d="M46.553 66.9673H42.3696V74.9019H46.553V66.9673Z" fill="#FF404E"/>
<path opacity="0.9" d="M52.1111 70.031H47.9277V74.9017H52.1111V70.031Z" fill="#0D1853"/>
<path d="M18.4583 25.8901H39.0116C41.4666 25.8901 43.4698 28.1095 43.4698 30.8198C43.4698 33.2944 41.8004 35.3566 39.64 35.7003L39.5811 37.8705L37.4305 35.7592H18.4583C16.0033 35.7592 14 33.5399 14 30.8296C14 28.0996 16.0033 25.8901 18.4583 25.8901Z" fill="#FF404E"/>
<path d="M34.0232 32.5187C34.8801 32.5187 35.5748 31.824 35.5748 30.9671C35.5748 30.1102 34.8801 29.4155 34.0232 29.4155C33.1663 29.4155 32.4717 30.1102 32.4717 30.9671C32.4717 31.824 33.1663 32.5187 34.0232 32.5187Z" fill="white"/>
<path d="M28.7305 32.5187C29.5874 32.5187 30.2821 31.824 30.2821 30.9671C30.2821 30.1102 29.5874 29.4155 28.7305 29.4155C27.8736 29.4155 27.179 30.1102 27.179 30.9671C27.179 31.824 27.8736 32.5187 28.7305 32.5187Z" fill="white"/>
<path d="M23.4374 32.5187C24.2943 32.5187 24.989 31.824 24.989 30.9671C24.989 30.1102 24.2943 29.4155 23.4374 29.4155C22.5805 29.4155 21.8859 30.1102 21.8859 30.9671C21.8859 31.824 22.5805 32.5187 23.4374 32.5187Z" fill="white"/>
<path d="M65.3944 54.018C67.9036 55.6618 68.5601 58.7498 66.9785 61.0978C66.9561 61.1225 66.7472 61.3647 66.4314 61.7863C66.4314 61.7908 66.4289 61.793 66.4264 61.793C65.5113 63.0242 63.7158 65.7848 63.1289 69.2451C62.6041 72.3263 65.663 76.8788 66.7796 78.4172C66.976 78.6885 67.1103 78.8634 67.16 78.9217C67.165 78.9285 67.17 78.933 67.175 78.9419C68.3413 80.7203 68.299 83.0234 66.8691 84.7995C64.9492 87.1856 61.2463 87.7126 58.6003 85.9791C56.0762 84.3241 55.4271 81.2069 57.046 78.8545C57.0958 78.7782 57.148 78.7065 57.2052 78.6347C57.2574 78.5719 57.3196 78.4979 57.3892 78.4104C58.6252 76.8608 62.532 71.6558 61.6169 68.9625C60.6793 66.2266 57.9338 62.5263 57.1729 61.5284C57.1729 61.5261 57.1679 61.5239 57.1679 61.5216C57.1057 61.4409 57.0585 61.3781 57.0261 61.3378C57.0162 61.3265 57.0087 61.3153 56.9988 61.3019C56.9888 61.2929 56.9839 61.2839 56.9764 61.2727C55.6584 59.4697 55.641 57.0477 57.1306 55.1998C59.0504 52.816 62.7558 52.2867 65.3993 54.0203" fill="#FF404E"/>
</svg>
