<svg width="25" height="24" viewBox="0 0 25 24" fill="none" xmlns="http://www.w3.org/2000/svg">
<path d="M24.5 12C24.5 18.6274 19.1274 24 12.5 24C5.87258 24 0.5 18.6274 0.5 12C0.5 5.37258 5.87258 0 12.5 0C19.1274 0 24.5 5.37258 24.5 12Z" fill="white"/>
<path d="M14.5487 12.0976C14.5487 13.283 13.5878 14.2439 12.4024 14.2439C11.217 14.2439 10.2561 13.283 10.2561 12.0976C10.2561 10.9122 11.217 9.95122 12.4024 9.95122C13.5878 9.95122 14.5487 10.9122 14.5487 12.0976Z" fill="#0D1853"/>
<path fill-rule="evenodd" clip-rule="evenodd" d="M9.71947 6.82927H15.0853C15.9146 6.82927 16.5487 7.07317 17.0365 7.56098C17.4756 8.04878 17.7195 8.68293 17.7195 9.46342V14.8293C17.7195 15.6098 17.4756 16.2927 16.9878 16.7317C16.5487 17.1707 15.8658 17.4146 15.0853 17.4146H9.76825C8.98776 17.4146 8.35361 17.1707 7.86581 16.7317C7.378 16.2439 7.1341 15.561 7.1341 14.7805V9.41463C7.1341 8.63415 7.378 7.95122 7.81703 7.5122C8.25605 7.07317 8.93898 6.82927 9.71947 6.82927ZM9.08532 12.0976C9.08532 13.9024 10.5487 15.4146 12.4024 15.4146C14.2561 15.4146 15.7682 13.9512 15.7682 12.0976C15.7682 10.2439 14.2073 8.78049 12.4024 8.78049C10.5975 8.78049 9.08532 10.2439 9.08532 12.0976ZM15.0853 8.63415C15.0853 9.07317 15.4268 9.41463 15.8658 9.41463C16.3048 9.41463 16.6463 9.07317 16.6463 8.63415C16.6463 8.19512 16.3048 7.85366 15.8658 7.85366C15.4268 7.85366 15.0853 8.19512 15.0853 8.63415Z" fill="#0D1853"/>
<path fill-rule="evenodd" clip-rule="evenodd" d="M12.5 0C5.86585 0 0.5 5.36585 0.5 12C0.5 18.6341 5.86585 24 12.5 24C19.1341 24 24.5 18.6341 24.5 12C24.5488 5.36585 19.1341 0 12.5 0ZM18.8902 14.8293C18.8902 15.9512 18.5 16.9268 17.8171 17.6098C17.1341 18.2927 16.1585 18.6341 15.0854 18.6341H9.76829C8.69512 18.6341 7.71951 18.2927 7.03659 17.6098C6.30488 16.9268 5.96341 15.9512 5.96341 14.8293V9.46342C5.96341 7.21951 7.47561 5.65854 9.76829 5.65854H15.1341C16.2561 5.65854 17.1829 6.04878 17.8659 6.73171C18.5488 7.41463 18.8902 8.34146 18.8902 9.46342V14.8293Z" fill="#0D1853"/>
</svg>
