<svg width="24" height="24" viewBox="0 0 24 24" fill="none" xmlns="http://www.w3.org/2000/svg">
<path d="M23.9998 12C23.9998 18.6274 18.6272 24 11.9998 24C5.37234 24 -0.000244141 18.6274 -0.000244141 12C-0.000244141 5.37258 5.37234 0 11.9998 0C18.6272 0 23.9998 5.37258 23.9998 12Z" fill="#0D1853"/>
<path d="M14.0485 12.0976C14.0485 13.283 13.0875 14.2439 11.9022 14.2439C10.7168 14.2439 9.75581 13.283 9.75581 12.0976C9.75581 10.9122 10.7168 9.95122 11.9022 9.95122C13.0875 9.95122 14.0485 10.9122 14.0485 12.0976Z" fill="white"/>
<path fill-rule="evenodd" clip-rule="evenodd" d="M9.21922 6.82927H14.5851C15.4143 6.82927 16.0485 7.07317 16.5363 7.56098C16.9753 8.04878 17.2192 8.68293 17.2192 9.46342V14.8293C17.2192 15.6098 16.9753 16.2927 16.4875 16.7317C16.0485 17.1707 15.3656 17.4146 14.5851 17.4146H9.268C8.48751 17.4146 7.85337 17.1707 7.36556 16.7317C6.87776 16.2439 6.63386 15.561 6.63386 14.7805V9.41463C6.63386 8.63415 6.87776 7.95122 7.31678 7.5122C7.75581 7.07317 8.43873 6.82927 9.21922 6.82927ZM8.58507 12.0976C8.58507 13.9024 10.0485 15.4146 11.9021 15.4146C13.7558 15.4146 15.268 13.9512 15.268 12.0976C15.268 10.2439 13.707 8.78049 11.9021 8.78049C10.0973 8.78049 8.58507 10.2439 8.58507 12.0976ZM14.5851 8.63415C14.5851 9.07317 14.9265 9.41463 15.3656 9.41463C15.8046 9.41463 16.146 9.07317 16.146 8.63415C16.146 8.19512 15.8046 7.85366 15.3656 7.85366C14.9265 7.85366 14.5851 8.19512 14.5851 8.63415Z" fill="white"/>
<path fill-rule="evenodd" clip-rule="evenodd" d="M11.9998 0C5.36561 0 -0.000244141 5.36585 -0.000244141 12C-0.000244141 18.6341 5.36561 24 11.9998 24C18.6339 24 23.9998 18.6341 23.9998 12C24.0485 5.36585 18.6339 0 11.9998 0ZM18.39 14.8293C18.39 15.9512 17.9998 16.9268 17.3168 17.6098C16.6339 18.2927 15.6583 18.6341 14.5851 18.6341H9.26805C8.19488 18.6341 7.21927 18.2927 6.53634 17.6098C5.80463 16.9268 5.46317 15.9512 5.46317 14.8293V9.46342C5.46317 7.21951 6.97537 5.65854 9.26805 5.65854H14.6339C15.7559 5.65854 16.6827 6.04878 17.3656 6.73171C18.0485 7.41463 18.39 8.34146 18.39 9.46342V14.8293Z" fill="white"/>
</svg>
