<svg width="24" height="24" viewBox="0 0 24 24" fill="none" xmlns="http://www.w3.org/2000/svg">
<path d="M24 12C24 18.6274 18.6274 24 12 24C5.37258 24 0 18.6274 0 12C0 5.37258 5.37258 0 12 0C18.6274 0 24 5.37258 24 12Z" fill="#0D1853"/>
<path fill-rule="evenodd" clip-rule="evenodd" d="M12 24C18.6274 24 24 18.6274 24 12C24 5.37258 18.6274 0 12 0C5.37258 0 0 5.37258 0 12C0 18.6274 5.37258 24 12 24ZM18.7348 12.97V17.6548L16.0192 17.6552V13.2836C16.0192 12.1856 15.6264 11.4364 14.6432 11.4364C13.8932 11.4364 13.4464 11.9416 13.2504 12.4296C13.1784 12.604 13.1608 12.848 13.1608 13.0916V17.6548H10.4448C10.4448 17.6548 10.4808 10.2508 10.4448 9.484H13.1608V10.6416C13.5208 10.0852 14.1668 9.292 15.6084 9.292C17.3948 9.292 18.7348 10.46 18.7348 12.97ZM9.12041 6.9564C9.12041 7.7408 8.5304 8.3688 7.58359 8.3688H7.56641C6.65481 8.3688 6.06521 7.7408 6.06521 6.9564C6.06521 6.1548 6.6728 5.5452 7.60161 5.5452C8.5304 5.5452 9.10281 6.1552 9.12041 6.9564ZM8.9416 9.484V17.6548H6.226V9.484H8.9416Z" fill="white"/>
</svg>
