<svg width="25" height="24" viewBox="0 0 25 24" fill="none" xmlns="http://www.w3.org/2000/svg">
<path d="M24.5005 12C24.5005 18.6274 19.1279 24 12.5005 24C5.87307 24 0.500488 18.6274 0.500488 12C0.500488 5.37258 5.87307 0 12.5005 0C19.1279 0 24.5005 5.37258 24.5005 12Z" fill="white"/>
<path fill-rule="evenodd" clip-rule="evenodd" d="M12.5005 24C19.1279 24 24.5005 18.6274 24.5005 12C24.5005 5.37258 19.1279 0 12.5005 0C5.87307 0 0.500488 5.37258 0.500488 12C0.500488 18.6274 5.87307 24 12.5005 24ZM19.2353 12.97V17.6548L16.5197 17.6552V13.2836C16.5197 12.1856 16.1269 11.4364 15.1437 11.4364C14.3937 11.4364 13.9469 11.9416 13.7509 12.4296C13.6789 12.604 13.6613 12.848 13.6613 13.0916V17.6548H10.9453C10.9453 17.6548 10.9813 10.2508 10.9453 9.484H13.6613V10.6416C14.0213 10.0852 14.6673 9.292 16.1089 9.292C17.8953 9.292 19.2353 10.46 19.2353 12.97ZM9.6209 6.9564C9.6209 7.7408 9.03088 8.3688 8.08408 8.3688H8.06689C7.1553 8.3688 6.5657 7.7408 6.5657 6.9564C6.5657 6.1548 7.17329 5.5452 8.1021 5.5452C9.03088 5.5452 9.6033 6.1552 9.6209 6.9564ZM9.44209 9.484V17.6548H6.72649V9.484H9.44209Z" fill="#0D1853"/>
</svg>
