<svg width="164" height="40" viewBox="0 0 164 40" fill="none" xmlns="http://www.w3.org/2000/svg">
<path d="M136.466 33.4137H139.093V15.9112H136.466V33.4137ZM160.12 22.2164L157.11 29.8042H157.02L153.896 22.2164H151.067L155.753 32.8215L153.081 38.721H155.82L163.041 22.217L160.12 22.2164ZM145.227 31.4256C144.368 31.4256 143.168 30.9974 143.168 29.9392C143.168 28.5884 144.662 28.0705 145.951 28.0705C147.105 28.0705 147.65 28.3178 148.351 28.6557C148.147 30.2772 146.744 31.4256 145.227 31.4256L145.227 31.4256ZM145.545 21.8336C143.643 21.8336 141.674 22.667 140.859 24.5133L143.19 25.4813C143.688 24.5133 144.616 24.1984 145.59 24.1984C146.948 24.1984 148.328 25.0083 148.351 26.4498V26.6297C147.875 26.3595 146.856 25.9544 145.612 25.9544C143.099 25.9544 140.541 27.3274 140.541 29.8944C140.541 32.2361 142.602 33.7449 144.91 33.7449C146.675 33.7449 147.65 32.9568 148.259 32.0333H148.351V33.385H150.887V26.6744C150.887 23.5672 148.554 21.8336 145.545 21.8336V21.8336ZM129.314 24.347H125.579V18.348H129.314C131.278 18.348 132.392 19.9646 132.392 21.3475C132.392 22.7038 131.278 24.347 129.314 24.347ZM129.247 15.9116H122.954V33.4141H125.579V26.7834H129.247C132.157 26.7834 135.019 24.6878 135.019 21.3481C135.019 18.009 132.157 15.9123 129.247 15.9123L129.247 15.9116ZM94.9339 31.4286C93.1196 31.4286 91.6012 29.917 91.6012 27.8428C91.6012 25.7445 93.1196 24.2116 94.9339 24.2116C96.7251 24.2116 98.1308 25.7446 98.1308 27.8428C98.1308 29.917 96.7251 31.4286 94.9339 31.4286ZM97.9493 23.1962H97.8585C97.2692 22.4972 96.135 21.8656 94.7074 21.8656C91.7139 21.8656 88.9706 24.4824 88.9706 27.8428C88.9706 31.1804 91.7139 33.7741 94.7074 33.7741C96.135 33.7741 97.2692 33.1424 97.8585 32.4211H97.9493V33.2775C97.9493 35.5563 96.7251 36.7736 94.7525 36.7736C93.1433 36.7736 92.1455 35.6235 91.737 34.6539L89.4474 35.601C90.1044 37.1792 91.8498 39.1196 94.7526 39.1196C97.8367 39.1196 100.444 37.3148 100.444 32.9165V22.2264H97.9494L97.9493 23.1962ZM102.258 33.4132H104.887V15.9106H102.258V33.4132ZM108.765 27.6394C108.697 25.3387 110.557 24.1662 111.894 24.1662C112.937 24.1662 113.821 24.6852 114.117 25.4289L108.765 27.6394ZM116.927 25.6543C116.428 24.3243 114.909 21.8656 111.803 21.8656C108.719 21.8656 106.157 24.2789 106.157 27.8199C106.157 31.158 108.697 33.7742 112.097 33.7742C114.841 33.7742 116.428 32.1057 117.086 31.1355L115.046 29.7821C114.365 30.7746 113.436 31.4287 112.097 31.4287C110.76 31.4287 109.808 30.8195 109.196 29.6241L117.199 26.3314L116.927 25.6543ZM53.1619 23.6926V26.2186H59.2382C59.0568 27.6395 58.5806 28.6768 57.855 29.3987C56.9704 30.278 55.5873 31.2482 53.1618 31.2482C49.4206 31.2482 46.4959 28.2486 46.4959 24.5272C46.4959 20.8058 49.4206 17.8058 53.1618 17.8058C55.1798 17.8058 56.6532 18.5954 57.7416 19.6103L59.5333 17.8282C58.0137 16.3849 55.9961 15.2798 53.1618 15.2798C48.0368 15.2798 43.729 19.4298 43.729 24.5272C43.729 29.624 48.0368 33.7742 53.1618 33.7742C55.9275 33.7742 58.0138 32.8719 59.646 31.1805C61.3239 29.5114 61.8456 27.1659 61.8456 25.271C61.8456 24.6853 61.7999 24.1439 61.7092 23.6926H53.1619ZM68.7545 31.4286C66.9403 31.4286 65.3757 29.94 65.3757 27.8199C65.3757 25.6773 66.9403 24.2117 68.7545 24.2117C70.5681 24.2117 72.1326 25.6773 72.1326 27.8199C72.1326 29.94 70.5681 31.4286 68.7545 31.4286ZM68.7545 21.8656C65.4433 21.8656 62.7456 24.3691 62.7456 27.8199C62.7456 31.2482 65.4433 33.7742 68.7545 33.7742C72.0646 33.7742 74.7628 31.2482 74.7628 27.8199C74.7628 24.3691 72.0646 21.8656 68.7545 21.8656ZM81.8614 31.4286C80.0484 31.4286 78.4833 29.94 78.4833 27.8199C78.4833 25.6773 80.0485 24.2117 81.8614 24.2117C83.6757 24.2117 85.2397 25.6773 85.2397 27.8199C85.2397 29.94 83.6757 31.4286 81.8614 31.4286ZM81.8614 21.8656C78.5514 21.8656 75.8537 24.3691 75.8537 27.8199C75.8537 31.2482 78.5514 33.7742 81.8614 33.7742C85.1726 33.7742 87.8703 31.2482 87.8703 27.8199C87.8703 24.3691 85.1726 21.8656 81.8614 21.8656Z" fill="white"/>
<path d="M15.1222 18.6076L0.139648 34.427C0.140212 34.4303 0.141337 34.433 0.141865 34.4364C0.60137 36.1542 2.17867 37.419 4.05059 37.419C4.79889 37.419 5.50145 37.2178 6.10396 36.8645L6.15181 36.8366L23.0175 27.1555L15.123 18.6074" fill="#EB3131"/>
<path d="M30.281 15.9143L30.2666 15.9045L22.9852 11.7056L14.7817 18.967L23.0137 27.1546L30.2567 22.9974C31.5265 22.3155 32.3886 20.9838 32.3886 19.4482C32.3886 17.9236 31.5381 16.5986 30.2809 15.9144" fill="#F6B60B"/>
<path d="M0.137412 4.40186C0.047341 4.73225 0 5.07832 0 5.4377V33.392C0 33.7507 0.0467824 34.098 0.137982 34.4272L15.6378 19.012L0.137982 4.40226" fill="#5778C5"/>
<path d="M15.2332 19.4151L22.9886 11.7027L6.14197 1.98653C5.52962 1.62169 4.81493 1.41113 4.05018 1.41113C2.17825 1.41113 0.598825 2.67828 0.139236 4.39809C0.138672 4.39977 0.138672 4.40092 0.138672 4.40239L15.2331 19.4154" fill="#3BAD49"/>
<path d="M52.6694 5.1079H48.5639V6.11854H51.6404C51.5568 6.94327 51.2269 7.59076 50.6706 8.06105C50.1142 8.53145 49.4039 8.76762 48.5639 8.76762C47.6425 8.76762 46.8618 8.44829 46.222 7.81397C45.5952 7.16648 45.2764 6.3658 45.2764 5.40116C45.2764 4.43658 45.5952 3.63588 46.222 2.98845C46.8618 2.35412 47.6425 2.03689 48.5639 2.03689C49.0368 2.03689 49.4875 2.11782 49.9008 2.29505C50.3143 2.47214 50.6463 2.71938 50.9058 3.03661L51.6865 2.26005C51.3324 1.85966 50.8839 1.55348 50.3274 1.33033C49.7711 1.10717 49.1906 1.00007 48.5638 1.00007C47.3346 1.00007 46.2923 1.4244 45.4412 2.271C44.5902 3.11967 44.1636 4.16532 44.1636 5.40118C44.1636 6.63703 44.5901 7.68494 45.4412 8.53156C46.2923 9.37798 47.3346 9.80249 48.5638 9.80249C49.8546 9.80249 50.8838 9.39118 51.6754 8.5555C52.3725 7.86 52.7287 6.91938 52.7287 5.74253C52.7287 5.54345 52.7045 5.33122 52.6693 5.10807L52.6694 5.1079ZM54.2599 1.18801V9.61421H59.2054V8.57949H55.3484V5.90649H58.8273V4.89585H55.3484V2.22495H59.2054V1.18798L54.2599 1.18801ZM66.1402 2.22498V1.18801H60.3194V2.22498H62.6856V9.61419H63.7741V2.22498H66.1402ZM71.4101 1.18801H70.3216V9.61421H71.4101V1.18801ZM78.5948 2.22498V1.18801H72.7741V2.22498H75.1401V9.61419H76.2286V2.22498H78.5948ZM89.5789 2.28405C88.7389 1.42434 87.7098 1 86.4805 1C85.2491 1 84.22 1.42433 83.3799 2.27093C82.5398 3.10658 82.1265 4.15433 82.1265 5.4011C82.1265 6.64788 82.5399 7.69579 83.3799 8.53149C84.2199 9.37791 85.2491 9.80241 86.4805 9.80241C87.6987 9.80241 88.7388 9.37794 89.5789 8.53149C90.419 7.69584 90.8323 6.64799 90.8323 5.4011C90.8323 4.16525 90.419 3.11954 89.5789 2.28405ZM84.1606 2.98838C84.7873 2.35405 85.557 2.03682 86.4805 2.03682C87.4019 2.03682 88.1716 2.35406 88.7873 2.98838C89.414 3.61179 89.7218 4.42542 89.7218 5.40108C89.7218 6.37896 89.414 7.1904 88.7873 7.81389C88.1716 8.44822 87.4019 8.76755 86.4805 8.76755C85.557 8.76755 84.7873 8.44821 84.1606 7.81389C83.547 7.17733 83.2392 6.37895 83.2392 5.40108C83.2392 4.42544 83.547 3.62489 84.1606 2.98838ZM93.4184 4.36651L93.3723 2.7411H93.4184L97.7241 9.61413H98.861V1.18793H97.7725V6.11845L97.8186 7.74386H97.7725L93.6559 1.18793H92.3299V9.61413H93.4184V4.36651Z" fill="white" stroke="white" stroke-width="0.281474" stroke-miterlimit="10"/>
</svg>
