<svg width="227" height="40" viewBox="0 0 227 40" fill="none" xmlns="http://www.w3.org/2000/svg">
<path fill-rule="evenodd" clip-rule="evenodd" d="M61.3928 5.92256C62.4499 3.41686 60.8699 0.529614 58.193 0.0683372C58.1591 0.0422365 58.1181 0.0424537 58.077 0.0426712C58.0284 0.0429283 57.9798 0.0431857 57.9429 0H57.0392C56.9891 0.0463817 56.9284 0.0429199 56.868 0.0394689C56.8394 0.0378353 56.8109 0.0362041 56.7835 0.0398634C56.7763 0.0398634 56.7692 0.0397738 56.7621 0.0396846C56.7126 0.039062 56.6641 0.0384531 56.6243 0.0683372C54.6522 0.444192 53.1972 2.16971 53.1574 4.1344C53.146 4.85194 53.2313 5.56379 53.6178 6.18452C54.3737 7.4032 54.942 8.70161 55.4024 10.0456C56.6471 13.6788 57.1188 17.4317 57.1699 21.2472C57.187 22.4374 57.0961 23.6219 56.9767 24.8064C56.7835 26.7426 56.4595 28.6504 55.9991 30.5354C55.6468 31.9818 55.1978 33.3941 54.6692 34.7893C53.9247 36.754 55.3058 38.8326 57.3632 38.8725C59.4774 38.9124 60.9608 36.8452 60.2333 34.8577C60.2052 34.7804 60.177 34.7031 60.1488 34.6258C59.8922 33.9228 59.6351 33.2183 59.4149 32.5C58.767 30.4044 58.3294 28.2688 58.0452 26.0991C57.852 24.6527 57.7156 23.1948 57.7042 21.7312C57.6928 20.5809 57.7553 19.4362 57.8406 18.2916C57.9884 16.3098 58.2782 14.3565 58.767 12.4317C59.324 10.2221 60.0628 8.08657 61.2848 6.14466C61.3179 6.0948 61.342 6.03887 61.3659 5.98352C61.3747 5.96301 61.3835 5.94258 61.3928 5.92256ZM44.3441 37.2551V32.3462H43.786V33.508C43.3076 32.8246 42.5217 32.2096 41.36 32.2096C39.9591 32.2096 38.5696 33.2916 38.5696 34.9658V34.9886C38.5696 36.6515 39.9591 37.7221 41.36 37.7221C42.5104 37.7221 43.2848 37.0957 43.786 36.3781V37.221C43.786 38.713 42.8407 39.4761 41.5081 39.4761C40.6539 39.4761 39.8566 39.1913 39.1618 38.656L38.8315 39.1116C39.6288 39.7039 40.5286 40 41.4967 40C43.1482 40 44.3441 39.0205 44.3441 37.2551ZM43.8202 34.9772C43.8202 36.2984 42.6243 37.1868 41.417 37.1868C40.2211 37.1868 39.1732 36.2756 39.1732 34.9658V34.9431C39.1732 33.5877 40.1983 32.7449 41.417 32.7449C42.6243 32.7449 43.8202 33.6105 43.8202 34.9544V34.9772ZM49.9495 38.1549V29.8405H49.3914V38.1549H49.9495ZM68.0779 38.2916C69.4788 38.2916 70.9025 37.1412 70.9025 35.2506V35.2278C70.9025 33.3371 69.4788 32.2096 68.0779 32.2096C66.9276 32.2096 66.1873 32.8815 65.6861 33.6446V29.8405H65.128V38.1549H65.6861V36.9021C66.1645 37.631 66.9162 38.2916 68.0779 38.2916ZM70.2989 35.2733C70.2989 36.8337 69.2852 37.7563 68.021 37.7563C66.8137 37.7563 65.6519 36.754 65.6519 35.262V35.2392C65.6519 33.7585 66.8137 32.7449 68.021 32.7449C69.2397 32.7449 70.2989 33.7244 70.2989 35.2506V35.2733ZM80.0273 38.1549V34.533C80.0273 33.0296 79.0934 32.2551 77.6014 32.2551C76.8041 32.2551 76.1777 32.4601 75.5398 32.7563L75.7449 33.246C76.2802 32.9727 76.861 32.779 77.5672 32.779C78.7631 32.779 79.4806 33.3827 79.4806 34.5558V34.8064C78.9225 34.6583 78.3645 34.5558 77.5558 34.5558C76.0524 34.5558 75.0159 35.2392 75.0159 36.4465V36.4692C75.0159 37.6765 76.1777 38.2916 77.2597 38.2916C78.3645 38.2916 79.082 37.7449 79.4806 37.1868V38.1549H80.0273ZM79.492 35.9795C79.492 37.0387 78.4783 37.7677 77.2938 37.7677C76.4055 37.7677 75.6082 37.2779 75.6082 36.4351V36.4123C75.6082 35.6036 76.2916 35.0569 77.5216 35.0569C78.3531 35.0569 79.0023 35.1936 79.492 35.3189V35.9795ZM85.5196 38.1549V29.8405H84.9615V38.1549H85.5196ZM98.8772 30.8314V30.0683H98.1824V30.8314H98.8772ZM98.8089 32.3462H98.2508V38.1549H98.8089V32.3462ZM108.604 34.6014C108.604 33.2118 107.75 32.2096 106.281 32.2096C105.221 32.2096 104.572 32.7449 104.185 33.4282V32.3462H103.627V38.1549H104.185V34.795C104.185 33.5877 105.062 32.7221 106.201 32.7221C107.374 32.7221 108.046 33.508 108.046 34.7039V38.1549H108.604V34.6014ZM116.113 38.0524V37.5285C115.783 37.6765 115.544 37.7335 115.259 37.7335C114.587 37.7335 114.097 37.4374 114.097 36.6059V32.8588H116.136V32.3462H114.097V30.4897H113.539V32.3462H112.696V32.8588H113.539V36.6629C113.539 37.7677 114.268 38.2574 115.168 38.2574C115.532 38.2574 115.817 38.1891 116.113 38.0524ZM120.438 35.4784H125.256C125.267 35.3872 125.267 35.3531 125.267 35.2733V35.2506C125.267 33.5308 124.231 32.2096 122.602 32.2096C121.03 32.2096 119.846 33.5535 119.846 35.2392V35.262C119.846 37.0729 121.167 38.2916 122.693 38.2916C123.809 38.2916 124.504 37.836 125.096 37.1982L124.709 36.8565C124.231 37.369 123.616 37.7677 122.716 37.7677C121.577 37.7677 120.541 36.9248 120.438 35.4784ZM120.438 34.9772C120.541 33.6902 121.429 32.7221 122.579 32.7221C123.912 32.7221 124.584 33.8041 124.664 34.9772H120.438ZM130.153 38.1549V29.8405H129.595V38.1549H130.153ZM135.609 38.1549V29.8405H135.051V38.1549H135.609ZM141.133 30.8314V30.0683H140.439V30.8314H141.133ZM141.065 32.3462H140.507V38.1549H141.065V32.3462ZM151.282 37.2551V32.3462H150.724V33.508C150.245 32.8246 149.459 32.2096 148.298 32.2096C146.897 32.2096 145.507 33.2916 145.507 34.9658V34.9886C145.507 36.6515 146.897 37.7221 148.298 37.7221C149.448 37.7221 150.222 37.0957 150.724 36.3781V37.221C150.724 38.713 149.778 39.4761 148.446 39.4761C147.591 39.4761 146.794 39.1913 146.099 38.656L145.769 39.1116C146.566 39.7039 147.466 40 148.434 40C150.086 40 151.282 39.0205 151.282 37.2551ZM150.758 34.9772C150.758 36.2984 149.562 37.1868 148.355 37.1868C147.159 37.1868 146.111 36.2756 146.111 34.9658V34.9431C146.111 33.5877 147.136 32.7449 148.355 32.7449C149.562 32.7449 150.758 33.6105 150.758 34.9544V34.9772ZM156.215 35.4784H161.033C161.044 35.3872 161.044 35.3531 161.044 35.2733V35.2506C161.044 33.5308 160.008 32.2096 158.379 32.2096C156.807 32.2096 155.623 33.5535 155.623 35.2392V35.262C155.623 37.0729 156.944 38.2916 158.47 38.2916C159.586 38.2916 160.281 37.836 160.873 37.1982L160.486 36.8565C160.008 37.369 159.393 37.7677 158.493 37.7677C157.354 37.7677 156.318 36.9248 156.215 35.4784ZM156.215 34.9772C156.318 33.6902 157.206 32.7221 158.356 32.7221C159.689 32.7221 160.361 33.8041 160.441 34.9772H156.215ZM170.27 34.6014C170.27 33.2118 169.415 32.2096 167.946 32.2096C166.887 32.2096 166.238 32.7449 165.85 33.4282V32.3462H165.292V38.1549H165.85V34.795C165.85 33.5877 166.727 32.7221 167.866 32.7221C169.04 32.7221 169.712 33.508 169.712 34.7039V38.1549H170.27V34.6014ZM179.829 37.1412L179.441 36.7995C178.952 37.3462 178.314 37.7677 177.494 37.7677C176.161 37.7677 175.102 36.6515 175.102 35.2506V35.2278C175.102 33.8383 176.127 32.7335 177.448 32.7335C178.314 32.7335 178.883 33.1777 179.384 33.6902L179.783 33.2802C179.236 32.7107 178.553 32.2096 177.46 32.2096C175.797 32.2096 174.498 33.6219 174.498 35.2506V35.2733C174.498 36.9021 175.785 38.2916 177.46 38.2916C178.53 38.2916 179.236 37.8132 179.829 37.1412ZM184.05 35.4784H188.868C188.879 35.3872 188.879 35.3531 188.879 35.2733V35.2506C188.879 33.5308 187.843 32.2096 186.214 32.2096C184.642 32.2096 183.458 33.5535 183.458 35.2392V35.262C183.458 37.0729 184.779 38.2916 186.305 38.2916C187.421 38.2916 188.116 37.836 188.708 37.1982L188.321 36.8565C187.843 37.369 187.228 37.7677 186.328 37.7677C185.189 37.7677 184.153 36.9248 184.05 35.4784ZM184.05 34.9772C184.153 33.6902 185.041 32.7221 186.191 32.7221C187.524 32.7221 188.196 33.8041 188.276 34.9772H184.05Z" fill="#FF404E"/>
<path d="M0 25.0569H8.48293C16.5194 25.0569 21.2073 20.2733 21.2073 13.8314V13.7676C21.2073 7.32569 16.5832 2.73343 8.61049 2.73343H0V25.0569ZM6.1868 19.5717V8.21863H8.70616C12.4055 8.21863 14.8611 10.2915 14.8611 13.8633V13.9271C14.8611 17.5307 12.4055 19.5717 8.70616 19.5717H6.1868Z" fill="#0D1853"/>
<path d="M28.2121 25.0569H34.3989V18.2961H37.1096L41.6062 25.0569H48.7497L43.4239 17.2756C46.1984 16.0956 48.0162 13.8314 48.0162 10.4191V10.3553C48.0162 8.15485 47.3465 6.43275 46.039 5.15712C44.5401 3.62637 42.1802 2.73343 38.7679 2.73343H28.2121V25.0569ZM34.3989 13.4487V8.09107H38.449C40.5219 8.09107 41.7975 8.98401 41.7975 10.738V10.8018C41.7975 12.4282 40.5857 13.4487 38.4809 13.4487H34.3989Z" fill="#0D1853"/>
<path d="M69.2203 25.0569H75.3433V12.8109L84.8786 25.0569H90.3V2.73343H84.177V14.533L74.9925 2.73343H69.2203V25.0569Z" fill="#0D1853"/>
<path d="M98.0864 25.0569H104.273V19.2847L106.537 16.7653L112.15 25.0569H119.581L110.843 12.3325L119.294 2.73343H111.959L104.273 11.7904V2.73343H98.0864V25.0569Z" fill="#0D1853"/>
<path d="M130.35 25.0569H136.537V8.15485H143.234V2.73343H123.653V8.15485H130.35V25.0569Z" fill="#0D1853"/>
<path d="M145.126 25.0569H151.631L153.226 21.0706H161.836L163.463 25.0569H170.096L160.593 2.57397H154.629L145.126 25.0569ZM155.044 16.2551L157.563 9.90884L160.051 16.2551H155.044Z" fill="#0D1853"/>
<path d="M176.089 25.0569H182.212V12.8109L191.747 25.0569H197.169V2.73343H191.046V14.533L181.861 2.73343H176.089V25.0569Z" fill="#0D1853"/>
<path d="M204.955 25.0569H211.142V19.2847L213.406 16.7653L219.019 25.0569H226.449L217.711 12.3325L226.162 2.73343H218.828L211.142 11.7904V2.73343H204.955V25.0569Z" fill="#0D1853"/>
</svg>
