<svg width="264" height="30" viewBox="0 0 264 30" fill="none" xmlns="http://www.w3.org/2000/svg">
<path d="M237.9 28.2504H245.247V21.2932L247.936 18.2578L254.603 28.2504H263.429L253.051 12.9152L263.087 1.3455H254.377L245.249 12.2602V1.3455H237.901V28.2504H237.9ZM204.379 28.2504H211.651V13.491L222.976 28.2504H229.415V1.3455H222.144V15.5667L211.236 1.3455H204.379V28.2504V28.2504ZM180.137 17.6424L183.129 9.99456L186.083 17.6424H180.137ZM168.357 28.2504H176.085L177.979 23.446H188.204L190.137 28.2504H198.015L186.728 1.15356H179.646L168.357 28.2504ZM151.582 28.2504H158.929V7.87929H166.883V1.3455H143.628V7.87929H151.582V28.2504V28.2504ZM114.047 28.2504H121.394V21.2932L124.083 18.2578L130.75 28.2504H139.576L129.198 12.9152L139.235 1.3455H130.524L121.396 12.2602V1.3455H114.049V28.2504H114.047ZM80.5265 28.2504H87.798V13.491L99.1235 28.2504H105.562V1.3455H98.2908V15.5667L87.3846 1.3455H80.5285V28.2504H80.5265ZM40.6826 14.2587V7.80212H45.4932C47.956 7.80212 49.4712 8.87856 49.4712 10.9918V11.069C49.4712 13.0299 48.0321 14.2587 45.5322 14.2587H40.6845H40.6826ZM33.3351 28.2484H40.6826V20.1H43.902L49.243 28.2484H57.7274L51.4016 18.8712C54.6971 17.4485 56.8557 14.7198 56.8557 10.608V10.5308C56.8557 7.87929 56.0601 5.8036 54.5079 4.26612C52.7276 2.42194 49.9255 1.3455 45.8715 1.3455H33.3331V28.2504L33.3351 28.2484ZM7.91905 21.6394V7.95646H10.9103C15.3036 7.95646 18.2208 10.4556 18.2208 14.7594V14.8365C18.2208 19.1799 15.3036 21.6394 10.9103 21.6394H7.91905V21.6394ZM0.571533 28.2504H10.6471C20.1922 28.2504 25.7594 22.4844 25.7594 14.7218V14.6446C25.7594 6.88201 20.2683 1.3455 10.7992 1.3455H0.571533V28.2504Z" fill="white"/>
<path d="M70.6363 0.898245C72.6038 2.34866 73.1186 5.07338 71.8784 7.14512C71.8609 7.16689 71.6971 7.38059 71.4495 7.75259C71.4495 7.75655 71.4475 7.75853 71.4455 7.75853C70.728 8.84485 69.3201 11.2807 68.8599 14.3339C68.4484 17.0527 70.8469 21.0695 71.7224 22.4269C71.8765 22.6663 71.9818 22.8207 72.0208 22.8721C72.0247 22.8781 72.0286 22.882 72.0325 22.8899C72.947 24.4591 72.9139 26.4912 71.7926 28.0584C70.2873 30.1638 67.3837 30.6288 65.309 29.0992C63.3297 27.6389 62.8208 24.8885 64.0902 22.8128C64.1292 22.7455 64.1702 22.6822 64.215 22.6188C64.256 22.5634 64.3047 22.4981 64.3593 22.421C65.3285 21.0537 68.3919 16.461 67.6743 14.0846C66.9392 11.6705 64.7864 8.40558 64.1897 7.52504C64.1897 7.52306 64.1858 7.52108 64.1858 7.5191C64.137 7.44787 64.1 7.39246 64.0746 7.35684C64.0668 7.34695 64.061 7.33706 64.0532 7.32518C64.0454 7.31727 64.0415 7.30935 64.0356 7.29946C63.0021 5.70856 62.9885 3.57152 64.1565 1.94104C65.6619 -0.162358 68.5674 -0.62934 70.6402 0.900224" fill="#FF404E"/>
</svg>
